<?xml version="1.0" encoding="utf-8" standalone="no"?>
<!DOCTYPE svg PUBLIC "-//W3C//DTD SVG 1.1//EN"
  "http://www.w3.org/Graphics/SVG/1.1/DTD/svg11.dtd">
<svg xmlns:xlink="http://www.w3.org/1999/xlink" width="238.107098pt" height="190.485679pt" viewBox="0 0 238.107098 190.485679" xmlns="http://www.w3.org/2000/svg" version="1.1">
 <metadata>
  <rdf:RDF xmlns:dc="http://purl.org/dc/elements/1.1/" xmlns:cc="http://creativecommons.org/ns#" xmlns:rdf="http://www.w3.org/1999/02/22-rdf-syntax-ns#">
   <cc:Work>
    <dc:type rdf:resource="http://purl.org/dc/dcmitype/StillImage"/>
    <dc:date>1980-01-01T00:00:00+00:00</dc:date>
    <dc:format>image/svg+xml</dc:format>
    <dc:creator>
     <cc:Agent>
      <dc:title>Matplotlib v3.5.1, https://matplotlib.org/</dc:title>
     </cc:Agent>
    </dc:creator>
   </cc:Work>
  </rdf:RDF>
 </metadata>
 <defs>
  <style type="text/css">*{stroke-linejoin: round; stroke-linecap: butt}</style>
 </defs>
 <g id="figure_1">
  <g id="patch_1">
   <path d="M 0 190.485679 
L 238.107098 190.485679 
L 238.107098 0 
L 0 0 
z
" style="fill: #ffffff"/>
  </g>
  <g id="axes_1">
   <g id="patch_2">
    <path d="M 64.61 150.685679 
L 227.307098 150.685679 
L 227.307098 10.8 
L 64.61 10.8 
z
" style="fill: #e5e5e5"/>
   </g>
   <g id="matplotlib.axis_1">
    <g id="xtick_1">
     <g id="line2d_1">
      <path d="M 72.005323 150.685679 
L 72.005323 10.8 
" clip-path="url(#p1912b3c755)" style="fill: none; stroke: #ffffff; stroke-width: 0.8; stroke-linecap: square"/>
     </g>
     <g id="line2d_2">
      <defs>
       <path id="m5d160f4286" d="M 0 0 
L 0 3.5 
" style="stroke: #555555; stroke-width: 0.8"/>
      </defs>
      <g>
       <use xlink:href="#m5d160f4286" x="72.005323" y="150.685679" style="fill: #555555; stroke: #555555; stroke-width: 0.8"/>
      </g>
     </g>
     <g id="text_1">
      <!-- 0 -->
      <g style="fill: #555555" transform="translate(69.460323 163.764429)scale(0.08 -0.08)">
       <defs>
        <path id="DejaVuSerif-30" d="M 2034 219 
Q 2513 219 2750 744 
Q 2988 1269 2988 2328 
Q 2988 3391 2750 3916 
Q 2513 4441 2034 4441 
Q 1556 4441 1318 3916 
Q 1081 3391 1081 2328 
Q 1081 1269 1318 744 
Q 1556 219 2034 219 
z
M 2034 -91 
Q 1275 -91 848 546 
Q 422 1184 422 2328 
Q 422 3475 848 4112 
Q 1275 4750 2034 4750 
Q 2797 4750 3222 4112 
Q 3647 3475 3647 2328 
Q 3647 1184 3222 546 
Q 2797 -91 2034 -91 
z
" transform="scale(0.015625)"/>
       </defs>
       <use xlink:href="#DejaVuSerif-30"/>
      </g>
     </g>
    </g>
    <g id="xtick_2">
     <g id="line2d_3">
      <path d="M 108.981936 150.685679 
L 108.981936 10.8 
" clip-path="url(#p1912b3c755)" style="fill: none; stroke: #ffffff; stroke-width: 0.8; stroke-linecap: square"/>
     </g>
     <g id="line2d_4">
      <g>
       <use xlink:href="#m5d160f4286" x="108.981936" y="150.685679" style="fill: #555555; stroke: #555555; stroke-width: 0.8"/>
      </g>
     </g>
     <g id="text_2">
      <!-- 5 -->
      <g style="fill: #555555" transform="translate(106.436936 163.764429)scale(0.08 -0.08)">
       <defs>
        <path id="DejaVuSerif-35" d="M 3219 4666 
L 3219 4153 
L 1081 4153 
L 1081 2816 
Q 1244 2928 1461 2984 
Q 1678 3041 1947 3041 
Q 2703 3041 3140 2622 
Q 3578 2203 3578 1478 
Q 3578 738 3136 323 
Q 2694 -91 1894 -91 
Q 1572 -91 1234 -12 
Q 897 66 544 225 
L 544 1131 
L 897 1131 
Q 925 688 1179 453 
Q 1434 219 1894 219 
Q 2388 219 2653 544 
Q 2919 869 2919 1478 
Q 2919 2084 2655 2407 
Q 2391 2731 1894 2731 
Q 1613 2731 1398 2631 
Q 1184 2531 1019 2322 
L 750 2322 
L 750 4666 
L 3219 4666 
z
" transform="scale(0.015625)"/>
       </defs>
       <use xlink:href="#DejaVuSerif-35"/>
      </g>
     </g>
    </g>
    <g id="xtick_3">
     <g id="line2d_5">
      <path d="M 145.958549 150.685679 
L 145.958549 10.8 
" clip-path="url(#p1912b3c755)" style="fill: none; stroke: #ffffff; stroke-width: 0.8; stroke-linecap: square"/>
     </g>
     <g id="line2d_6">
      <g>
       <use xlink:href="#m5d160f4286" x="145.958549" y="150.685679" style="fill: #555555; stroke: #555555; stroke-width: 0.8"/>
      </g>
     </g>
     <g id="text_3">
      <!-- 10 -->
      <g style="fill: #555555" transform="translate(140.868549 163.764429)scale(0.08 -0.08)">
       <defs>
        <path id="DejaVuSerif-31" d="M 909 0 
L 909 331 
L 1722 331 
L 1722 4213 
L 781 3603 
L 781 4013 
L 1919 4750 
L 2350 4750 
L 2350 331 
L 3163 331 
L 3163 0 
L 909 0 
z
" transform="scale(0.015625)"/>
       </defs>
       <use xlink:href="#DejaVuSerif-31"/>
       <use xlink:href="#DejaVuSerif-30" x="63.623047"/>
      </g>
     </g>
    </g>
    <g id="xtick_4">
     <g id="line2d_7">
      <path d="M 182.935162 150.685679 
L 182.935162 10.8 
" clip-path="url(#p1912b3c755)" style="fill: none; stroke: #ffffff; stroke-width: 0.8; stroke-linecap: square"/>
     </g>
     <g id="line2d_8">
      <g>
       <use xlink:href="#m5d160f4286" x="182.935162" y="150.685679" style="fill: #555555; stroke: #555555; stroke-width: 0.8"/>
      </g>
     </g>
     <g id="text_4">
      <!-- 15 -->
      <g style="fill: #555555" transform="translate(177.845162 163.764429)scale(0.08 -0.08)">
       <use xlink:href="#DejaVuSerif-31"/>
       <use xlink:href="#DejaVuSerif-35" x="63.623047"/>
      </g>
     </g>
    </g>
    <g id="xtick_5">
     <g id="line2d_9">
      <path d="M 219.911776 150.685679 
L 219.911776 10.8 
" clip-path="url(#p1912b3c755)" style="fill: none; stroke: #ffffff; stroke-width: 0.8; stroke-linecap: square"/>
     </g>
     <g id="line2d_10">
      <g>
       <use xlink:href="#m5d160f4286" x="219.911776" y="150.685679" style="fill: #555555; stroke: #555555; stroke-width: 0.8"/>
      </g>
     </g>
     <g id="text_5">
      <!-- 20 -->
      <g style="fill: #555555" transform="translate(214.821776 163.764429)scale(0.08 -0.08)">
       <defs>
        <path id="DejaVuSerif-32" d="M 819 3553 
L 469 3553 
L 469 4384 
Q 803 4563 1142 4656 
Q 1481 4750 1806 4750 
Q 2534 4750 2956 4397 
Q 3378 4044 3378 3438 
Q 3378 2753 2422 1800 
Q 2347 1728 2309 1691 
L 1131 513 
L 3078 513 
L 3078 1088 
L 3444 1088 
L 3444 0 
L 434 0 
L 434 341 
L 1850 1753 
Q 2319 2222 2519 2614 
Q 2719 3006 2719 3438 
Q 2719 3909 2473 4175 
Q 2228 4441 1797 4441 
Q 1350 4441 1106 4219 
Q 863 3997 819 3553 
z
" transform="scale(0.015625)"/>
       </defs>
       <use xlink:href="#DejaVuSerif-32"/>
       <use xlink:href="#DejaVuSerif-30" x="63.623047"/>
      </g>
     </g>
    </g>
    <g id="text_6">
     <!-- $τ$ -->
     <g style="fill: #555555" transform="translate(142.908549 177.026616)scale(0.1 -0.1)">
      <defs>
       <path id="DejaVuSans-Oblique-3c4" d="M 2103 638 
Q 2188 488 2525 488 
L 2800 488 
L 2706 0 
L 2363 0 
Q 1800 0 1600 300 
Q 1403 606 1534 1269 
L 1856 2925 
L 541 2925 
L 653 3500 
L 3881 3500 
L 3769 2925 
L 2444 2925 
L 2113 1234 
Q 2025 781 2103 638 
z
" transform="scale(0.015625)"/>
      </defs>
      <use xlink:href="#DejaVuSans-Oblique-3c4" transform="translate(0 0.3125)"/>
     </g>
    </g>
   </g>
   <g id="matplotlib.axis_2">
    <g id="ytick_1">
     <g id="line2d_11">
      <path d="M 64.61 144.327239 
L 227.307098 144.327239 
" clip-path="url(#p1912b3c755)" style="fill: none; stroke: #ffffff; stroke-width: 0.8; stroke-linecap: square"/>
     </g>
     <g id="line2d_12">
      <defs>
       <path id="m51b09be710" d="M 0 0 
L -3.5 0 
" style="stroke: #555555; stroke-width: 0.8"/>
      </defs>
      <g>
       <use xlink:href="#m51b09be710" x="64.61" y="144.327239" style="fill: #555555; stroke: #555555; stroke-width: 0.8"/>
      </g>
     </g>
     <g id="text_7">
      <!-- 0.0000 -->
      <g style="fill: #555555" transform="translate(29.6175 147.366614)scale(0.08 -0.08)">
       <defs>
        <path id="DejaVuSerif-2e" d="M 603 325 
Q 603 500 722 622 
Q 841 744 1019 744 
Q 1191 744 1312 622 
Q 1434 500 1434 325 
Q 1434 153 1312 31 
Q 1191 -91 1019 -91 
Q 841 -91 722 29 
Q 603 150 603 325 
z
" transform="scale(0.015625)"/>
       </defs>
       <use xlink:href="#DejaVuSerif-30"/>
       <use xlink:href="#DejaVuSerif-2e" x="63.623047"/>
       <use xlink:href="#DejaVuSerif-30" x="95.410156"/>
       <use xlink:href="#DejaVuSerif-30" x="159.033203"/>
       <use xlink:href="#DejaVuSerif-30" x="222.65625"/>
       <use xlink:href="#DejaVuSerif-30" x="286.279297"/>
      </g>
     </g>
    </g>
    <g id="ytick_2">
     <g id="line2d_13">
      <path d="M 64.61 122.934177 
L 227.307098 122.934177 
" clip-path="url(#p1912b3c755)" style="fill: none; stroke: #ffffff; stroke-width: 0.8; stroke-linecap: square"/>
     </g>
     <g id="line2d_14">
      <g>
       <use xlink:href="#m51b09be710" x="64.61" y="122.934177" style="fill: #555555; stroke: #555555; stroke-width: 0.8"/>
      </g>
     </g>
     <g id="text_8">
      <!-- 0.0002 -->
      <g style="fill: #555555" transform="translate(29.6175 125.973552)scale(0.08 -0.08)">
       <use xlink:href="#DejaVuSerif-30"/>
       <use xlink:href="#DejaVuSerif-2e" x="63.623047"/>
       <use xlink:href="#DejaVuSerif-30" x="95.410156"/>
       <use xlink:href="#DejaVuSerif-30" x="159.033203"/>
       <use xlink:href="#DejaVuSerif-30" x="222.65625"/>
       <use xlink:href="#DejaVuSerif-32" x="286.279297"/>
      </g>
     </g>
    </g>
    <g id="ytick_3">
     <g id="line2d_15">
      <path d="M 64.61 101.541116 
L 227.307098 101.541116 
" clip-path="url(#p1912b3c755)" style="fill: none; stroke: #ffffff; stroke-width: 0.8; stroke-linecap: square"/>
     </g>
     <g id="line2d_16">
      <g>
       <use xlink:href="#m51b09be710" x="64.61" y="101.541116" style="fill: #555555; stroke: #555555; stroke-width: 0.8"/>
      </g>
     </g>
     <g id="text_9">
      <!-- 0.0004 -->
      <g style="fill: #555555" transform="translate(29.6175 104.580491)scale(0.08 -0.08)">
       <defs>
        <path id="DejaVuSerif-34" d="M 2234 1581 
L 2234 4063 
L 641 1581 
L 2234 1581 
z
M 3609 0 
L 1484 0 
L 1484 331 
L 2234 331 
L 2234 1247 
L 197 1247 
L 197 1588 
L 2241 4750 
L 2859 4750 
L 2859 1581 
L 3750 1581 
L 3750 1247 
L 2859 1247 
L 2859 331 
L 3609 331 
L 3609 0 
z
" transform="scale(0.015625)"/>
       </defs>
       <use xlink:href="#DejaVuSerif-30"/>
       <use xlink:href="#DejaVuSerif-2e" x="63.623047"/>
       <use xlink:href="#DejaVuSerif-30" x="95.410156"/>
       <use xlink:href="#DejaVuSerif-30" x="159.033203"/>
       <use xlink:href="#DejaVuSerif-30" x="222.65625"/>
       <use xlink:href="#DejaVuSerif-34" x="286.279297"/>
      </g>
     </g>
    </g>
    <g id="ytick_4">
     <g id="line2d_17">
      <path d="M 64.61 80.148055 
L 227.307098 80.148055 
" clip-path="url(#p1912b3c755)" style="fill: none; stroke: #ffffff; stroke-width: 0.8; stroke-linecap: square"/>
     </g>
     <g id="line2d_18">
      <g>
       <use xlink:href="#m51b09be710" x="64.61" y="80.148055" style="fill: #555555; stroke: #555555; stroke-width: 0.8"/>
      </g>
     </g>
     <g id="text_10">
      <!-- 0.0006 -->
      <g style="fill: #555555" transform="translate(29.6175 83.18743)scale(0.08 -0.08)">
       <defs>
        <path id="DejaVuSerif-36" d="M 2094 219 
Q 2534 219 2771 542 
Q 3009 866 3009 1472 
Q 3009 2078 2771 2401 
Q 2534 2725 2094 2725 
Q 1647 2725 1412 2412 
Q 1178 2100 1178 1509 
Q 1178 888 1415 553 
Q 1653 219 2094 219 
z
M 1075 2569 
Q 1288 2803 1556 2918 
Q 1825 3034 2163 3034 
Q 2859 3034 3264 2615 
Q 3669 2197 3669 1472 
Q 3669 763 3233 336 
Q 2797 -91 2069 -91 
Q 1278 -91 853 498 
Q 428 1088 428 2181 
Q 428 3406 931 4078 
Q 1434 4750 2350 4750 
Q 2597 4750 2869 4703 
Q 3141 4656 3425 4563 
L 3425 3794 
L 3072 3794 
Q 3034 4109 2831 4275 
Q 2628 4441 2284 4441 
Q 1678 4441 1381 3981 
Q 1084 3522 1075 2569 
z
" transform="scale(0.015625)"/>
       </defs>
       <use xlink:href="#DejaVuSerif-30"/>
       <use xlink:href="#DejaVuSerif-2e" x="63.623047"/>
       <use xlink:href="#DejaVuSerif-30" x="95.410156"/>
       <use xlink:href="#DejaVuSerif-30" x="159.033203"/>
       <use xlink:href="#DejaVuSerif-30" x="222.65625"/>
       <use xlink:href="#DejaVuSerif-36" x="286.279297"/>
      </g>
     </g>
    </g>
    <g id="ytick_5">
     <g id="line2d_19">
      <path d="M 64.61 58.754993 
L 227.307098 58.754993 
" clip-path="url(#p1912b3c755)" style="fill: none; stroke: #ffffff; stroke-width: 0.8; stroke-linecap: square"/>
     </g>
     <g id="line2d_20">
      <g>
       <use xlink:href="#m51b09be710" x="64.61" y="58.754993" style="fill: #555555; stroke: #555555; stroke-width: 0.8"/>
      </g>
     </g>
     <g id="text_11">
      <!-- 0.0008 -->
      <g style="fill: #555555" transform="translate(29.6175 61.794368)scale(0.08 -0.08)">
       <defs>
        <path id="DejaVuSerif-38" d="M 2981 1275 
Q 2981 1775 2732 2051 
Q 2484 2328 2034 2328 
Q 1584 2328 1336 2051 
Q 1088 1775 1088 1275 
Q 1088 772 1336 495 
Q 1584 219 2034 219 
Q 2484 219 2732 495 
Q 2981 772 2981 1275 
z
M 2853 3541 
Q 2853 3966 2637 4203 
Q 2422 4441 2034 4441 
Q 1650 4441 1433 4203 
Q 1216 3966 1216 3541 
Q 1216 3113 1433 2875 
Q 1650 2638 2034 2638 
Q 2422 2638 2637 2875 
Q 2853 3113 2853 3541 
z
M 2516 2484 
Q 3047 2413 3344 2092 
Q 3641 1772 3641 1275 
Q 3641 619 3225 264 
Q 2809 -91 2034 -91 
Q 1263 -91 845 264 
Q 428 619 428 1275 
Q 428 1772 725 2092 
Q 1022 2413 1556 2484 
Q 1084 2569 832 2842 
Q 581 3116 581 3541 
Q 581 4103 968 4426 
Q 1356 4750 2034 4750 
Q 2713 4750 3100 4426 
Q 3488 4103 3488 3541 
Q 3488 3116 3236 2842 
Q 2984 2569 2516 2484 
z
" transform="scale(0.015625)"/>
       </defs>
       <use xlink:href="#DejaVuSerif-30"/>
       <use xlink:href="#DejaVuSerif-2e" x="63.623047"/>
       <use xlink:href="#DejaVuSerif-30" x="95.410156"/>
       <use xlink:href="#DejaVuSerif-30" x="159.033203"/>
       <use xlink:href="#DejaVuSerif-30" x="222.65625"/>
       <use xlink:href="#DejaVuSerif-38" x="286.279297"/>
      </g>
     </g>
    </g>
    <g id="ytick_6">
     <g id="line2d_21">
      <path d="M 64.61 37.361932 
L 227.307098 37.361932 
" clip-path="url(#p1912b3c755)" style="fill: none; stroke: #ffffff; stroke-width: 0.8; stroke-linecap: square"/>
     </g>
     <g id="line2d_22">
      <g>
       <use xlink:href="#m51b09be710" x="64.61" y="37.361932" style="fill: #555555; stroke: #555555; stroke-width: 0.8"/>
      </g>
     </g>
     <g id="text_12">
      <!-- 0.0010 -->
      <g style="fill: #555555" transform="translate(29.6175 40.401307)scale(0.08 -0.08)">
       <use xlink:href="#DejaVuSerif-30"/>
       <use xlink:href="#DejaVuSerif-2e" x="63.623047"/>
       <use xlink:href="#DejaVuSerif-30" x="95.410156"/>
       <use xlink:href="#DejaVuSerif-30" x="159.033203"/>
       <use xlink:href="#DejaVuSerif-31" x="222.65625"/>
       <use xlink:href="#DejaVuSerif-30" x="286.279297"/>
      </g>
     </g>
    </g>
    <g id="ytick_7">
     <g id="line2d_23">
      <path d="M 64.61 15.96887 
L 227.307098 15.96887 
" clip-path="url(#p1912b3c755)" style="fill: none; stroke: #ffffff; stroke-width: 0.8; stroke-linecap: square"/>
     </g>
     <g id="line2d_24">
      <g>
       <use xlink:href="#m51b09be710" x="64.61" y="15.96887" style="fill: #555555; stroke: #555555; stroke-width: 0.8"/>
      </g>
     </g>
     <g id="text_13">
      <!-- 0.0012 -->
      <g style="fill: #555555" transform="translate(29.6175 19.008245)scale(0.08 -0.08)">
       <use xlink:href="#DejaVuSerif-30"/>
       <use xlink:href="#DejaVuSerif-2e" x="63.623047"/>
       <use xlink:href="#DejaVuSerif-30" x="95.410156"/>
       <use xlink:href="#DejaVuSerif-30" x="159.033203"/>
       <use xlink:href="#DejaVuSerif-31" x="222.65625"/>
       <use xlink:href="#DejaVuSerif-32" x="286.279297"/>
      </g>
     </g>
    </g>
    <g id="text_14">
     <!-- $|{J}_{\mathrm{ref}}-{J}_{N_i}|$ -->
     <g style="fill: #555555" transform="translate(22.8175 101.692839)rotate(-90)scale(0.1 -0.1)">
      <defs>
       <path id="DejaVuSans-7c" d="M 1344 4891 
L 1344 -1509 
L 813 -1509 
L 813 4891 
L 1344 4891 
z
" transform="scale(0.015625)"/>
       <path id="DejaVuSans-Oblique-4a" d="M 1069 4666 
L 1703 4666 
L 856 325 
Q 691 -522 298 -901 
Q -94 -1281 -800 -1281 
L -1050 -1281 
L -947 -750 
L -750 -750 
Q -328 -750 -109 -509 
Q 109 -269 225 325 
L 1069 4666 
z
" transform="scale(0.015625)"/>
       <path id="DejaVuSans-72" d="M 2631 2963 
Q 2534 3019 2420 3045 
Q 2306 3072 2169 3072 
Q 1681 3072 1420 2755 
Q 1159 2438 1159 1844 
L 1159 0 
L 581 0 
L 581 3500 
L 1159 3500 
L 1159 2956 
Q 1341 3275 1631 3429 
Q 1922 3584 2338 3584 
Q 2397 3584 2469 3576 
Q 2541 3569 2628 3553 
L 2631 2963 
z
" transform="scale(0.015625)"/>
       <path id="DejaVuSans-65" d="M 3597 1894 
L 3597 1613 
L 953 1613 
Q 991 1019 1311 708 
Q 1631 397 2203 397 
Q 2534 397 2845 478 
Q 3156 559 3463 722 
L 3463 178 
Q 3153 47 2828 -22 
Q 2503 -91 2169 -91 
Q 1331 -91 842 396 
Q 353 884 353 1716 
Q 353 2575 817 3079 
Q 1281 3584 2069 3584 
Q 2775 3584 3186 3129 
Q 3597 2675 3597 1894 
z
M 3022 2063 
Q 3016 2534 2758 2815 
Q 2500 3097 2075 3097 
Q 1594 3097 1305 2825 
Q 1016 2553 972 2059 
L 3022 2063 
z
" transform="scale(0.015625)"/>
       <path id="DejaVuSans-66" d="M 2375 4863 
L 2375 4384 
L 1825 4384 
Q 1516 4384 1395 4259 
Q 1275 4134 1275 3809 
L 1275 3500 
L 2222 3500 
L 2222 3053 
L 1275 3053 
L 1275 0 
L 697 0 
L 697 3053 
L 147 3053 
L 147 3500 
L 697 3500 
L 697 3744 
Q 697 4328 969 4595 
Q 1241 4863 1831 4863 
L 2375 4863 
z
" transform="scale(0.015625)"/>
       <path id="DejaVuSans-2212" d="M 678 2272 
L 4684 2272 
L 4684 1741 
L 678 1741 
L 678 2272 
z
" transform="scale(0.015625)"/>
       <path id="DejaVuSans-Oblique-4e" d="M 1081 4666 
L 1931 4666 
L 3219 666 
L 4000 4666 
L 4616 4666 
L 3706 0 
L 2853 0 
L 1569 4025 
L 788 0 
L 172 0 
L 1081 4666 
z
" transform="scale(0.015625)"/>
       <path id="DejaVuSans-Oblique-69" d="M 1172 4863 
L 1747 4863 
L 1606 4134 
L 1031 4134 
L 1172 4863 
z
M 909 3500 
L 1484 3500 
L 800 0 
L 225 0 
L 909 3500 
z
" transform="scale(0.015625)"/>
      </defs>
      <use xlink:href="#DejaVuSans-7c" transform="translate(0 0.578125)"/>
      <use xlink:href="#DejaVuSans-Oblique-4a" transform="translate(33.691406 0.578125)"/>
      <use xlink:href="#DejaVuSans-72" transform="translate(63.183594 -15.828125)scale(0.7)"/>
      <use xlink:href="#DejaVuSans-65" transform="translate(91.962891 -15.828125)scale(0.7)"/>
      <use xlink:href="#DejaVuSans-66" transform="translate(135.029297 -15.828125)scale(0.7)"/>
      <use xlink:href="#DejaVuSans-2212" transform="translate(181.889648 0.578125)"/>
      <use xlink:href="#DejaVuSans-Oblique-4a" transform="translate(285.161133 0.578125)"/>
      <use xlink:href="#DejaVuSans-Oblique-4e" transform="translate(314.65332 -15.828125)scale(0.7)"/>
      <use xlink:href="#DejaVuSans-Oblique-69" transform="translate(367.016602 -27.3125)scale(0.49)"/>
      <use xlink:href="#DejaVuSans-7c" transform="translate(385.278809 0.578125)"/>
     </g>
    </g>
   </g>
   <g id="PolyCollection_1">
    <defs>
     <path id="ma27a21f2f7" d="M 72.005323 -46.15844 
L 72.005323 -46.15844 
L 72.752325 -46.15844 
L 73.499327 -46.15844 
L 74.24633 -46.15844 
L 74.993332 -46.15844 
L 75.740334 -46.15844 
L 76.487336 -46.15844 
L 77.234339 -46.15844 
L 77.981341 -46.15844 
L 78.728343 -46.15844 
L 79.475346 -46.15844 
L 80.222348 -46.15844 
L 80.96935 -46.15844 
L 81.716352 -46.15844 
L 82.463355 -46.15844 
L 83.210357 -46.15844 
L 83.957359 -46.15844 
L 84.704362 -46.15844 
L 85.451364 -46.15844 
L 86.198366 -46.15844 
L 86.945368 -46.15844 
L 87.692371 -46.15844 
L 88.439373 -46.15844 
L 89.186375 -46.15844 
L 89.933378 -46.15844 
L 90.68038 -46.15844 
L 91.427382 -46.15844 
L 92.174384 -46.15844 
L 92.921387 -46.15844 
L 93.668389 -46.15844 
L 94.415391 -46.15844 
L 95.162394 -46.15844 
L 95.909396 -46.15844 
L 96.656398 -46.15844 
L 97.4034 -46.15844 
L 98.150403 -46.15844 
L 98.897405 -46.15844 
L 99.644407 -46.15844 
L 100.39141 -46.15844 
L 101.138412 -46.15844 
L 101.885414 -46.15844 
L 102.632416 -46.15844 
L 103.379419 -46.15844 
L 104.126421 -46.15844 
L 104.873423 -46.15844 
L 105.620426 -46.15844 
L 106.367428 -46.15844 
L 107.11443 -46.15844 
L 107.861432 -46.15844 
L 108.608435 -46.15844 
L 109.355437 -46.15844 
L 110.102439 -46.15844 
L 110.849442 -46.15844 
L 111.596444 -46.15844 
L 112.343446 -46.15844 
L 113.090449 -46.15844 
L 113.837451 -46.15844 
L 114.584453 -46.15844 
L 115.331455 -46.15844 
L 116.078458 -46.15844 
L 116.82546 -46.15844 
L 117.572462 -46.15844 
L 118.319465 -46.15844 
L 119.066467 -46.15844 
L 119.813469 -46.15844 
L 120.560471 -46.15844 
L 121.307474 -46.15844 
L 122.054476 -46.15844 
L 122.801478 -46.15844 
L 123.548481 -46.15844 
L 124.295483 -46.15844 
L 125.042485 -46.15844 
L 125.789487 -46.15844 
L 126.53649 -46.15844 
L 127.283492 -46.15844 
L 128.030494 -46.15844 
L 128.777497 -46.15844 
L 129.524499 -46.15844 
L 130.271501 -46.15844 
L 131.018503 -46.15844 
L 131.765506 -46.15844 
L 132.512508 -46.15844 
L 133.25951 -46.15844 
L 134.006513 -46.15844 
L 134.753515 -46.15844 
L 135.500517 -46.15844 
L 136.247519 -46.15844 
L 136.994522 -46.15844 
L 137.741524 -46.15844 
L 138.488526 -46.15844 
L 139.235529 -46.15844 
L 139.982531 -46.15844 
L 140.729533 -46.15844 
L 141.476535 -46.15844 
L 142.223538 -46.15844 
L 142.97054 -46.15844 
L 143.717542 -46.15844 
L 144.464545 -46.15844 
L 145.211547 -46.15844 
L 145.958549 -46.15844 
L 146.705551 -46.15844 
L 147.452554 -46.15844 
L 148.199556 -46.15844 
L 148.946558 -46.15844 
L 149.693561 -46.15844 
L 150.440563 -46.15844 
L 151.187565 -46.15844 
L 151.934567 -46.15844 
L 152.68157 -46.15844 
L 153.428572 -46.15844 
L 154.175574 -46.15844 
L 154.922577 -46.15844 
L 155.669579 -46.15844 
L 156.416581 -46.15844 
L 157.163584 -46.15844 
L 157.910586 -46.15844 
L 158.657588 -46.15844 
L 159.40459 -46.15844 
L 160.151593 -46.15844 
L 160.898595 -46.15844 
L 161.645597 -46.15844 
L 162.3926 -46.15844 
L 163.139602 -46.15844 
L 163.886604 -46.15844 
L 164.633606 -46.15844 
L 165.380609 -46.15844 
L 166.127611 -46.15844 
L 166.874613 -46.15844 
L 167.621616 -46.15844 
L 168.368618 -46.15844 
L 169.11562 -46.15844 
L 169.862622 -46.15844 
L 170.609625 -46.15844 
L 171.356627 -46.15844 
L 172.103629 -46.15844 
L 172.850632 -46.15844 
L 173.597634 -46.15844 
L 174.344636 -46.15844 
L 175.091638 -46.15844 
L 175.838641 -46.15844 
L 176.585643 -46.15844 
L 177.332645 -46.15844 
L 178.079648 -46.15844 
L 178.82665 -46.15844 
L 179.573652 -46.15844 
L 180.320654 -46.15844 
L 181.067657 -46.15844 
L 181.814659 -46.15844 
L 182.561661 -46.15844 
L 183.308664 -46.15844 
L 184.055666 -46.15844 
L 184.802668 -46.15844 
L 185.54967 -46.15844 
L 186.296673 -46.15844 
L 187.043675 -46.15844 
L 187.790677 -46.15844 
L 188.53768 -46.15844 
L 189.284682 -46.15844 
L 190.031684 -46.15844 
L 190.778686 -46.15844 
L 191.525689 -46.15844 
L 192.272691 -46.15844 
L 193.019693 -46.15844 
L 193.766696 -46.15844 
L 194.513698 -46.15844 
L 195.2607 -46.15844 
L 196.007703 -46.15844 
L 196.754705 -46.15844 
L 197.501707 -46.15844 
L 198.248709 -46.15844 
L 198.995712 -46.15844 
L 199.742714 -46.15844 
L 200.489716 -46.15844 
L 201.236719 -46.15844 
L 201.983721 -46.15844 
L 202.730723 -46.15844 
L 203.477725 -46.15844 
L 204.224728 -46.15844 
L 204.97173 -46.15844 
L 205.718732 -46.15844 
L 206.465735 -46.15844 
L 207.212737 -46.15844 
L 207.959739 -46.15844 
L 208.706741 -46.15844 
L 209.453744 -46.15844 
L 210.200746 -46.15844 
L 210.947748 -46.15844 
L 211.694751 -46.15844 
L 212.441753 -46.15844 
L 213.188755 -46.15844 
L 213.935757 -46.15844 
L 214.68276 -46.15844 
L 215.429762 -46.15844 
L 216.176764 -46.15844 
L 216.923767 -46.15844 
L 217.670769 -46.15844 
L 218.417771 -46.15844 
L 219.164773 -46.15844 
L 219.911776 -46.15844 
L 219.911776 -93.965094 
L 219.911776 -93.965094 
L 219.164773 -93.979687 
L 218.417771 -93.92967 
L 217.670769 -93.783404 
L 216.923767 -93.550666 
L 216.176764 -93.263255 
L 215.429762 -92.943874 
L 214.68276 -92.630855 
L 213.935757 -92.381929 
L 213.188755 -92.221816 
L 212.441753 -92.120377 
L 211.694751 -92.042636 
L 210.947748 -91.96274 
L 210.200746 -91.874963 
L 209.453744 -91.802862 
L 208.706741 -91.743577 
L 207.959739 -91.668735 
L 207.212737 -91.574506 
L 206.465735 -91.450075 
L 205.718732 -91.298969 
L 204.97173 -91.142006 
L 204.224728 -91.006813 
L 203.477725 -90.938603 
L 202.730723 -90.956003 
L 201.983721 -91.048832 
L 201.236719 -91.211565 
L 200.489716 -91.3929 
L 199.742714 -91.502392 
L 198.995712 -91.505609 
L 198.248709 -91.424271 
L 197.501707 -91.270163 
L 196.754705 -91.075662 
L 196.007703 -90.914937 
L 195.2607 -90.85373 
L 194.513698 -90.893531 
L 193.766696 -90.978551 
L 193.019693 -91.043461 
L 192.272691 -91.049978 
L 191.525689 -91.025765 
L 190.778686 -91.028554 
L 190.031684 -91.08035 
L 189.284682 -91.160816 
L 188.53768 -91.243848 
L 187.790677 -91.297831 
L 187.043675 -91.269266 
L 186.296673 -91.097665 
L 185.54967 -90.787995 
L 184.802668 -90.427692 
L 184.055666 -90.109424 
L 183.308664 -89.842765 
L 182.561661 -89.587699 
L 181.814659 -89.351537 
L 181.067657 -89.153783 
L 180.320654 -88.967994 
L 179.573652 -88.782019 
L 178.82665 -88.613841 
L 178.079648 -88.510025 
L 177.332645 -88.526231 
L 176.585643 -88.658575 
L 175.838641 -88.866883 
L 175.091638 -89.098482 
L 174.344636 -89.258488 
L 173.597634 -89.269625 
L 172.850632 -89.14198 
L 172.103629 -88.942739 
L 171.356627 -88.751814 
L 170.609625 -88.631804 
L 169.862622 -88.60644 
L 169.11562 -88.661106 
L 168.368618 -88.771789 
L 167.621616 -88.933979 
L 166.874613 -89.123228 
L 166.127611 -89.276066 
L 165.380609 -89.317259 
L 164.633606 -89.206514 
L 163.886604 -88.973825 
L 163.139602 -88.67137 
L 162.3926 -88.331757 
L 161.645597 -87.935834 
L 160.898595 -87.460313 
L 160.151593 -86.964843 
L 159.40459 -86.552007 
L 158.657588 -86.266899 
L 157.910586 -86.12234 
L 157.163584 -86.103268 
L 156.416581 -86.16485 
L 155.669579 -86.282042 
L 154.922577 -86.426509 
L 154.175574 -86.551618 
L 153.428572 -86.605931 
L 152.68157 -86.564227 
L 151.934567 -86.453487 
L 151.187565 -86.310152 
L 150.440563 -86.170455 
L 149.693561 -86.092966 
L 148.946558 -86.110598 
L 148.199556 -86.196568 
L 147.452554 -86.321788 
L 146.705551 -86.478018 
L 145.958549 -86.669639 
L 145.211547 -86.873682 
L 144.464545 -87.018137 
L 143.717542 -87.028732 
L 142.97054 -86.889039 
L 142.223538 -86.657963 
L 141.476535 -86.405238 
L 140.729533 -86.170659 
L 139.982531 -85.940593 
L 139.235529 -85.664537 
L 138.488526 -85.314072 
L 137.741524 -84.895094 
L 136.994522 -84.430415 
L 136.247519 -83.937374 
L 135.500517 -83.425157 
L 134.753515 -82.911735 
L 134.006513 -82.446233 
L 133.25951 -82.081541 
L 132.512508 -81.826686 
L 131.765506 -81.665241 
L 131.018503 -81.579195 
L 130.271501 -81.515542 
L 129.524499 -81.416947 
L 128.777497 -81.30581 
L 128.030494 -81.247137 
L 127.283492 -81.321987 
L 126.53649 -81.570896 
L 125.789487 -81.946726 
L 125.042485 -82.388043 
L 124.295483 -82.854279 
L 123.548481 -83.288644 
L 122.801478 -83.615237 
L 122.054476 -83.787838 
L 121.307474 -83.822622 
L 120.560471 -83.769473 
L 119.813469 -83.678643 
L 119.066467 -83.564304 
L 118.319465 -83.385758 
L 117.572462 -83.101434 
L 116.82546 -82.705832 
L 116.078458 -82.246817 
L 115.331455 -81.788463 
L 114.584453 -81.340105 
L 113.837451 -80.881455 
L 113.090449 -80.424982 
L 112.343446 -79.993932 
L 111.596444 -79.599767 
L 110.849442 -79.231305 
L 110.102439 -78.874785 
L 109.355437 -78.539493 
L 108.608435 -78.230602 
L 107.861432 -77.914082 
L 107.11443 -77.592282 
L 106.367428 -77.350726 
L 105.620426 -77.237326 
L 104.873423 -77.213368 
L 104.126421 -77.231144 
L 103.379419 -77.284319 
L 102.632416 -77.378806 
L 101.885414 -77.527654 
L 101.138412 -77.725076 
L 100.39141 -77.930284 
L 99.644407 -78.12406 
L 98.897405 -78.303104 
L 98.150403 -78.478426 
L 97.4034 -78.664267 
L 96.656398 -78.830803 
L 95.909396 -78.921263 
L 95.162394 -78.8946 
L 94.415391 -78.745726 
L 93.668389 -78.477168 
L 92.921387 -78.094876 
L 92.174384 -77.616073 
L 91.427382 -77.049936 
L 90.68038 -76.400671 
L 89.933378 -75.684035 
L 89.186375 -74.900125 
L 88.439373 -74.028491 
L 87.692371 -73.059715 
L 86.945368 -72.025948 
L 86.198366 -70.962717 
L 85.451364 -69.849491 
L 84.704362 -68.68306 
L 83.957359 -67.522625 
L 83.210357 -66.424367 
L 82.463355 -65.40616 
L 81.716352 -64.474654 
L 80.96935 -63.604825 
L 80.222348 -62.773712 
L 79.475346 -61.983782 
L 78.728343 -61.214324 
L 77.981341 -60.414396 
L 77.234339 -59.514377 
L 76.487336 -58.458681 
L 75.740334 -57.221845 
L 74.993332 -55.740973 
L 74.24633 -53.895702 
L 73.499327 -51.634449 
L 72.752325 -49.010936 
L 72.005323 -46.15844 
z
" style="stroke: #ffff00; stroke-width: 0.5"/>
    </defs>
    <g clip-path="url(#p1912b3c755)">
     <use xlink:href="#ma27a21f2f7" x="0" y="190.485679" style="fill: #ffff00; stroke: #ffff00; stroke-width: 0.5"/>
    </g>
   </g>
   <g id="line2d_25">
    <path d="M 72.005323 144.327239 
L 72.752325 140.776134 
L 74.24633 132.556508 
L 74.993332 131.60044 
L 75.740334 129.598085 
L 76.487336 125.666646 
L 77.234339 123.430302 
L 77.981341 123.916344 
L 78.728343 124.662098 
L 79.475346 123.67604 
L 80.222348 123.088465 
L 80.96935 126.326848 
L 82.463355 142.227733 
L 83.210357 130.316488 
L 83.957359 122.590982 
L 84.704362 119.474325 
L 85.451364 119.056759 
L 86.198366 122.187873 
L 86.945368 130.498055 
L 87.692371 141.948822 
L 88.439373 135.325901 
L 89.186375 126.705069 
L 89.933378 121.358865 
L 90.68038 118.34645 
L 91.427382 118.080187 
L 92.174384 121.117456 
L 92.921387 127.174298 
L 93.668389 136.307407 
L 94.415391 139.113 
L 95.162394 123.375506 
L 95.909396 110.299321 
L 96.656398 103.565869 
L 97.4034 102.601728 
L 98.150403 105.085434 
L 98.897405 109.535049 
L 99.644407 114.71219 
L 100.39141 118.418527 
L 101.885414 122.160975 
L 102.632416 123.972432 
L 103.379419 123.630391 
L 105.620426 114.053477 
L 106.367428 108.614061 
L 107.11443 101.29195 
L 107.861432 96.312176 
L 108.608435 96.697132 
L 109.355437 102.496732 
L 110.102439 111.710474 
L 110.849442 123.340947 
L 111.596444 137.769404 
L 112.343446 133.435074 
L 114.584453 77.815701 
L 115.331455 66.651317 
L 116.078458 62.441122 
L 116.82546 64.095302 
L 118.319465 73.620552 
L 119.066467 76.112321 
L 119.813469 77.701896 
L 120.560471 80.04937 
L 121.307474 84.495717 
L 122.801478 97.084378 
L 123.548481 101.069958 
L 124.295483 103.01789 
L 125.042485 103.666715 
L 125.789487 104.067847 
L 126.53649 103.370907 
L 127.283492 100.155956 
L 128.030494 96.000032 
L 128.777497 94.841963 
L 129.524499 98.481019 
L 130.271501 105.617993 
L 131.765506 124.116228 
L 132.512508 137.789824 
L 133.25951 132.452716 
L 135.500517 69.635624 
L 136.247519 52.185245 
L 136.994522 38.793982 
L 137.741524 28.485299 
L 138.488526 20.839466 
L 139.235529 17.15844 
L 139.982531 17.562572 
L 140.729533 20.39613 
L 141.476535 22.177777 
L 142.223538 20.641804 
L 142.97054 18.292779 
L 143.717542 19.552886 
L 144.464545 27.697851 
L 145.958549 58.829189 
L 146.705551 74.524982 
L 147.452554 87.783218 
L 148.199556 97.103392 
L 148.946558 101.003256 
L 149.693561 99.585147 
L 150.440563 94.159329 
L 151.187565 85.785208 
L 153.428572 53.847502 
L 154.175574 48.454004 
L 154.922577 50.47085 
L 155.669579 60.525198 
L 156.416581 75.866913 
L 157.163584 94.775142 
L 158.657588 136.958111 
L 159.40459 139.282823 
L 160.151593 135.524465 
L 160.898595 137.122122 
L 161.645597 141.512264 
L 162.3926 142.66238 
L 163.139602 140.579728 
L 163.886604 139.963136 
L 164.633606 139.503948 
L 165.380609 141.160588 
L 166.127611 141.774646 
L 168.368618 116.104899 
L 169.11562 111.801224 
L 169.862622 110.99554 
L 170.609625 115.260904 
L 171.356627 125.849004 
L 172.103629 141.635369 
L 172.850632 129.200592 
L 174.344636 97.781931 
L 175.091638 84.519352 
L 175.838641 73.383281 
L 176.585643 65.096382 
L 178.079648 51.155016 
L 178.82665 42.656173 
L 179.573652 36.077226 
L 180.320654 33.458575 
L 181.067657 34.235559 
L 181.814659 37.83386 
L 182.561661 43.286026 
L 184.055666 56.860676 
L 185.54967 73.066274 
L 186.296673 82.87071 
L 187.043675 97.056174 
L 188.53768 132.7795 
L 189.284682 140.031758 
L 190.778686 112.352437 
L 191.525689 102.804593 
L 192.272691 95.870155 
L 193.019693 90.367062 
L 193.766696 87.197272 
L 194.513698 87.254239 
L 195.2607 89.31104 
L 196.007703 92.168818 
L 196.754705 97.273248 
L 197.501707 105.937407 
L 198.995712 126.796365 
L 199.742714 133.587626 
L 200.489716 133.228817 
L 201.236719 123.467169 
L 201.983721 105.944124 
L 203.477725 68.063991 
L 204.224728 57.587739 
L 204.97173 56.446779 
L 205.718732 63.435773 
L 207.212737 88.999684 
L 208.706741 113.521656 
L 209.453744 121.31154 
L 210.947748 130.525837 
L 212.441753 142.479407 
L 213.188755 140.259343 
L 214.68276 129.731892 
L 215.429762 127.002191 
L 216.176764 127.870352 
L 216.923767 131.980825 
L 218.417771 143.777326 
L 219.911776 128.883459 
L 219.911776 128.883459 
" clip-path="url(#p1912b3c755)" style="fill: none; stroke-dasharray: 1,1.65; stroke-dashoffset: 0; stroke: #e24a33; stroke-opacity: 0.437186"/>
   </g>
   <g id="line2d_26">
    <path d="M 72.005323 144.327239 
L 72.752325 142.760836 
L 73.499327 140.336017 
L 74.24633 137.262859 
L 75.740334 139.038619 
L 76.487336 138.069406 
L 77.234339 138.662226 
L 77.981341 141.127285 
L 78.728343 142.797285 
L 79.475346 141.8523 
L 80.96935 136.966467 
L 81.716352 136.686648 
L 82.463355 139.312486 
L 83.210357 143.74808 
L 83.957359 141.125296 
L 84.704362 138.086366 
L 86.198366 130.462001 
L 86.945368 128.455416 
L 87.692371 128.297767 
L 88.439373 129.142668 
L 89.186375 129.454097 
L 89.933378 128.36924 
L 90.68038 125.656376 
L 91.427382 121.64631 
L 92.174384 118.347783 
L 92.921387 118.323351 
L 93.668389 121.732688 
L 95.162394 130.02083 
L 96.656398 137.132371 
L 97.4034 139.176238 
L 98.150403 138.669062 
L 99.644407 134.86404 
L 100.39141 133.708282 
L 101.138412 132.890846 
L 101.885414 131.763774 
L 102.632416 129.091785 
L 103.379419 123.641057 
L 104.126421 116.951143 
L 104.873423 113.211356 
L 105.620426 114.549145 
L 106.367428 118.125884 
L 107.11443 120.722707 
L 107.861432 122.892321 
L 108.608435 126.556404 
L 110.102439 137.854804 
L 110.849442 144.031933 
L 111.596444 135.578786 
L 114.584453 94.541454 
L 115.331455 89.851934 
L 116.078458 91.907226 
L 116.82546 101.022492 
L 117.572462 115.56043 
L 118.319465 132.455416 
L 119.066467 140.26572 
L 119.813469 127.002506 
L 120.560471 117.008177 
L 121.307474 110.144936 
L 122.054476 106.523212 
L 122.801478 107.684758 
L 123.548481 114.521471 
L 125.042485 136.034234 
L 125.789487 143.543737 
L 128.777497 113.485339 
L 129.524499 110.192723 
L 130.271501 110.501051 
L 131.018503 113.765677 
L 131.765506 119.112705 
L 132.512508 126.653932 
L 134.006513 143.479984 
L 136.247519 113.349239 
L 136.994522 107.618533 
L 137.741524 105.476418 
L 138.488526 105.468594 
L 139.235529 107.142641 
L 140.729533 112.74483 
L 141.476535 113.214919 
L 142.223538 109.282666 
L 142.97054 103.767565 
L 143.717542 101.191336 
L 144.464545 104.160035 
L 145.211547 112.40707 
L 146.705551 133.974215 
L 147.452554 142.875758 
L 148.946558 136.3543 
L 149.693561 136.458906 
L 150.440563 140.236947 
L 151.187565 141.398321 
L 153.428572 113.956469 
L 154.175574 109.322818 
L 154.922577 109.882981 
L 155.669579 114.608764 
L 157.163584 127.928408 
L 157.910586 136.723628 
L 158.657588 142.704312 
L 159.40459 136.750821 
L 160.151593 135.795045 
L 160.898595 138.356407 
L 161.645597 142.414668 
L 162.3926 142.387344 
L 163.139602 140.283176 
L 163.886604 140.885445 
L 164.633606 144.175491 
L 165.380609 137.373887 
L 166.874613 120.041439 
L 167.621616 113.086063 
L 168.368618 108.852405 
L 169.11562 107.284855 
L 169.862622 108.147689 
L 170.609625 111.618687 
L 171.356627 117.495986 
L 173.597634 138.386246 
L 174.344636 144.198258 
L 175.838641 133.590228 
L 177.332645 122.728546 
L 178.079648 115.230057 
L 179.573652 97.565104 
L 180.320654 91.154085 
L 181.067657 86.609998 
L 181.814659 83.933726 
L 182.561661 83.599788 
L 183.308664 85.287619 
L 184.055666 87.89199 
L 184.802668 92.116936 
L 185.54967 99.232178 
L 186.296673 110.088439 
L 187.043675 125.41678 
L 187.790677 143.359413 
L 188.53768 128.659974 
L 189.284682 116.164354 
L 190.031684 109.03354 
L 190.778686 107.280869 
L 191.525689 110.019756 
L 192.272691 115.825597 
L 193.766696 130.441427 
L 194.513698 138.35016 
L 195.2607 142.433915 
L 196.007703 135.903511 
L 197.501707 126.03266 
L 198.248709 122.752681 
L 198.995712 122.123253 
L 199.742714 124.340178 
L 200.489716 130.095893 
L 201.236719 139.951424 
L 201.983721 135.995294 
L 202.730723 123.649345 
L 203.477725 114.901078 
L 204.224728 112.052235 
L 204.97173 115.031738 
L 205.718732 122.667774 
L 207.212737 142.499471 
L 207.959739 138.861179 
L 208.706741 133.646647 
L 209.453744 131.688739 
L 210.200746 132.317232 
L 210.947748 133.46569 
L 212.441753 134.498673 
L 213.188755 135.774517 
L 213.935757 137.413198 
L 215.429762 139.714186 
L 216.923767 144.142111 
L 217.670769 141.912324 
L 218.417771 140.978318 
L 219.164773 141.719357 
L 219.911776 143.781485 
L 219.911776 143.781485 
" clip-path="url(#p1912b3c755)" style="fill: none; stroke: #ff0000; stroke-linecap: square"/>
   </g>
   <g id="patch_3">
    <path d="M 64.61 150.685679 
L 64.61 10.8 
" style="fill: none; stroke: #ffffff; stroke-linejoin: miter; stroke-linecap: square"/>
   </g>
   <g id="patch_4">
    <path d="M 227.307098 150.685679 
L 227.307098 10.8 
" style="fill: none; stroke: #ffffff; stroke-linejoin: miter; stroke-linecap: square"/>
   </g>
   <g id="patch_5">
    <path d="M 64.61 150.685679 
L 227.307098 150.685679 
" style="fill: none; stroke: #ffffff; stroke-linejoin: miter; stroke-linecap: square"/>
   </g>
   <g id="patch_6">
    <path d="M 64.61 10.8 
L 227.307098 10.8 
" style="fill: none; stroke: #ffffff; stroke-linejoin: miter; stroke-linecap: square"/>
   </g>
   <g id="legend_1">
    <g id="patch_7">
     <path d="M 94.107098 52.4275 
L 221.707098 52.4275 
Q 223.307098 52.4275 223.307098 50.8275 
L 223.307098 16.4 
Q 223.307098 14.8 221.707098 14.8 
L 94.107098 14.8 
Q 92.507098 14.8 92.507098 16.4 
L 92.507098 50.8275 
Q 92.507098 52.4275 94.107098 52.4275 
z
" style="fill: #e5e5e5; opacity: 0.8; stroke: #cccccc; stroke-width: 0.5; stroke-linejoin: miter"/>
    </g>
    <g id="patch_8">
     <path d="M 95.707098 24.07875 
L 111.707098 24.07875 
L 111.707098 18.47875 
L 95.707098 18.47875 
z
" style="fill: #ffff00; stroke: #ffff00; stroke-width: 0.5; stroke-linejoin: miter"/>
    </g>
    <g id="text_15">
     <!-- $\sigma\, (N=10000)$ -->
     <g transform="translate(118.107098 24.07875)scale(0.08 -0.08)">
      <defs>
       <path id="DejaVuSans-Oblique-3c3" d="M 2219 3044 
Q 1744 3044 1422 2700 
Q 1081 2341 969 1747 
Q 844 1119 1044 756 
Q 1241 397 1706 397 
Q 2166 397 2503 759 
Q 2844 1122 2966 1747 
Q 3075 2319 2881 2700 
Q 2700 3044 2219 3044 
z
M 2309 3503 
L 4219 3500 
L 4106 2925 
L 3463 2925 
Q 3706 2438 3575 1747 
Q 3406 888 2884 400 
Q 2359 -91 1609 -91 
Q 856 -91 525 400 
Q 194 888 363 1747 
Q 528 2609 1050 3097 
Q 1484 3503 2309 3503 
z
" transform="scale(0.015625)"/>
       <path id="DejaVuSans-28" d="M 1984 4856 
Q 1566 4138 1362 3434 
Q 1159 2731 1159 2009 
Q 1159 1288 1364 580 
Q 1569 -128 1984 -844 
L 1484 -844 
Q 1016 -109 783 600 
Q 550 1309 550 2009 
Q 550 2706 781 3412 
Q 1013 4119 1484 4856 
L 1984 4856 
z
" transform="scale(0.015625)"/>
       <path id="DejaVuSans-3d" d="M 678 2906 
L 4684 2906 
L 4684 2381 
L 678 2381 
L 678 2906 
z
M 678 1631 
L 4684 1631 
L 4684 1100 
L 678 1100 
L 678 1631 
z
" transform="scale(0.015625)"/>
       <path id="DejaVuSans-31" d="M 794 531 
L 1825 531 
L 1825 4091 
L 703 3866 
L 703 4441 
L 1819 4666 
L 2450 4666 
L 2450 531 
L 3481 531 
L 3481 0 
L 794 0 
L 794 531 
z
" transform="scale(0.015625)"/>
       <path id="DejaVuSans-30" d="M 2034 4250 
Q 1547 4250 1301 3770 
Q 1056 3291 1056 2328 
Q 1056 1369 1301 889 
Q 1547 409 2034 409 
Q 2525 409 2770 889 
Q 3016 1369 3016 2328 
Q 3016 3291 2770 3770 
Q 2525 4250 2034 4250 
z
M 2034 4750 
Q 2819 4750 3233 4129 
Q 3647 3509 3647 2328 
Q 3647 1150 3233 529 
Q 2819 -91 2034 -91 
Q 1250 -91 836 529 
Q 422 1150 422 2328 
Q 422 3509 836 4129 
Q 1250 4750 2034 4750 
z
" transform="scale(0.015625)"/>
       <path id="DejaVuSans-29" d="M 513 4856 
L 1013 4856 
Q 1481 4119 1714 3412 
Q 1947 2706 1947 2009 
Q 1947 1309 1714 600 
Q 1481 -109 1013 -844 
L 513 -844 
Q 928 -128 1133 580 
Q 1338 1288 1338 2009 
Q 1338 2731 1133 3434 
Q 928 4138 513 4856 
z
" transform="scale(0.015625)"/>
      </defs>
      <use xlink:href="#DejaVuSans-Oblique-3c3" transform="translate(0 0.125)"/>
      <use xlink:href="#DejaVuSans-28" transform="translate(79.614583 0.125)"/>
      <use xlink:href="#DejaVuSans-Oblique-4e" transform="translate(118.628254 0.125)"/>
      <use xlink:href="#DejaVuSans-3d" transform="translate(212.915364 0.125)"/>
      <use xlink:href="#DejaVuSans-31" transform="translate(316.186848 0.125)"/>
      <use xlink:href="#DejaVuSans-30" transform="translate(379.809895 0.125)"/>
      <use xlink:href="#DejaVuSans-30" transform="translate(443.432942 0.125)"/>
      <use xlink:href="#DejaVuSans-30" transform="translate(507.055989 0.125)"/>
      <use xlink:href="#DejaVuSans-30" transform="translate(570.679036 0.125)"/>
      <use xlink:href="#DejaVuSans-29" transform="translate(634.302083 0.125)"/>
     </g>
    </g>
    <g id="line2d_27">
     <path d="M 95.707098 33.02125 
L 103.707098 33.02125 
L 111.707098 33.02125 
" style="fill: none; stroke-dasharray: 1,1.65; stroke-dashoffset: 0; stroke: #e24a33; stroke-opacity: 0.437186"/>
    </g>
    <g id="text_16">
     <!-- $N=5000$  $\Delta&lt;\sigma = 43.7\%$ -->
     <g transform="translate(118.107098 35.82125)scale(0.08 -0.08)">
      <defs>
       <path id="DejaVuSans-35" d="M 691 4666 
L 3169 4666 
L 3169 4134 
L 1269 4134 
L 1269 2991 
Q 1406 3038 1543 3061 
Q 1681 3084 1819 3084 
Q 2600 3084 3056 2656 
Q 3513 2228 3513 1497 
Q 3513 744 3044 326 
Q 2575 -91 1722 -91 
Q 1428 -91 1123 -41 
Q 819 9 494 109 
L 494 744 
Q 775 591 1075 516 
Q 1375 441 1709 441 
Q 2250 441 2565 725 
Q 2881 1009 2881 1497 
Q 2881 1984 2565 2268 
Q 2250 2553 1709 2553 
Q 1456 2553 1204 2497 
Q 953 2441 691 2322 
L 691 4666 
z
" transform="scale(0.015625)"/>
       <path id="DejaVuSerif-20" transform="scale(0.015625)"/>
       <path id="DejaVuSans-394" d="M 2188 4044 
L 906 525 
L 3472 525 
L 2188 4044 
z
M 50 0 
L 1831 4666 
L 2547 4666 
L 4325 0 
L 50 0 
z
" transform="scale(0.015625)"/>
       <path id="DejaVuSans-3c" d="M 4684 3150 
L 1459 2003 
L 4684 863 
L 4684 294 
L 678 1747 
L 678 2266 
L 4684 3719 
L 4684 3150 
z
" transform="scale(0.015625)"/>
       <path id="DejaVuSans-34" d="M 2419 4116 
L 825 1625 
L 2419 1625 
L 2419 4116 
z
M 2253 4666 
L 3047 4666 
L 3047 1625 
L 3713 1625 
L 3713 1100 
L 3047 1100 
L 3047 0 
L 2419 0 
L 2419 1100 
L 313 1100 
L 313 1709 
L 2253 4666 
z
" transform="scale(0.015625)"/>
       <path id="DejaVuSans-33" d="M 2597 2516 
Q 3050 2419 3304 2112 
Q 3559 1806 3559 1356 
Q 3559 666 3084 287 
Q 2609 -91 1734 -91 
Q 1441 -91 1130 -33 
Q 819 25 488 141 
L 488 750 
Q 750 597 1062 519 
Q 1375 441 1716 441 
Q 2309 441 2620 675 
Q 2931 909 2931 1356 
Q 2931 1769 2642 2001 
Q 2353 2234 1838 2234 
L 1294 2234 
L 1294 2753 
L 1863 2753 
Q 2328 2753 2575 2939 
Q 2822 3125 2822 3475 
Q 2822 3834 2567 4026 
Q 2313 4219 1838 4219 
Q 1578 4219 1281 4162 
Q 984 4106 628 3988 
L 628 4550 
Q 988 4650 1302 4700 
Q 1616 4750 1894 4750 
Q 2613 4750 3031 4423 
Q 3450 4097 3450 3541 
Q 3450 3153 3228 2886 
Q 3006 2619 2597 2516 
z
" transform="scale(0.015625)"/>
       <path id="DejaVuSans-2e" d="M 684 794 
L 1344 794 
L 1344 0 
L 684 0 
L 684 794 
z
" transform="scale(0.015625)"/>
       <path id="DejaVuSans-37" d="M 525 4666 
L 3525 4666 
L 3525 4397 
L 1831 0 
L 1172 0 
L 2766 4134 
L 525 4134 
L 525 4666 
z
" transform="scale(0.015625)"/>
       <path id="DejaVuSans-25" d="M 4653 2053 
Q 4381 2053 4226 1822 
Q 4072 1591 4072 1178 
Q 4072 772 4226 539 
Q 4381 306 4653 306 
Q 4919 306 5073 539 
Q 5228 772 5228 1178 
Q 5228 1588 5073 1820 
Q 4919 2053 4653 2053 
z
M 4653 2450 
Q 5147 2450 5437 2106 
Q 5728 1763 5728 1178 
Q 5728 594 5436 251 
Q 5144 -91 4653 -91 
Q 4153 -91 3862 251 
Q 3572 594 3572 1178 
Q 3572 1766 3864 2108 
Q 4156 2450 4653 2450 
z
M 1428 4353 
Q 1159 4353 1004 4120 
Q 850 3888 850 3481 
Q 850 3069 1003 2837 
Q 1156 2606 1428 2606 
Q 1700 2606 1854 2837 
Q 2009 3069 2009 3481 
Q 2009 3884 1853 4118 
Q 1697 4353 1428 4353 
z
M 4250 4750 
L 4750 4750 
L 1831 -91 
L 1331 -91 
L 4250 4750 
z
M 1428 4750 
Q 1922 4750 2215 4408 
Q 2509 4066 2509 3481 
Q 2509 2891 2217 2550 
Q 1925 2209 1428 2209 
Q 931 2209 642 2551 
Q 353 2894 353 3481 
Q 353 4063 643 4406 
Q 934 4750 1428 4750 
z
" transform="scale(0.015625)"/>
      </defs>
      <use xlink:href="#DejaVuSans-Oblique-4e" transform="translate(0 0.78125)"/>
      <use xlink:href="#DejaVuSans-3d" transform="translate(94.287109 0.78125)"/>
      <use xlink:href="#DejaVuSans-35" transform="translate(197.558594 0.78125)"/>
      <use xlink:href="#DejaVuSans-30" transform="translate(261.181641 0.78125)"/>
      <use xlink:href="#DejaVuSans-30" transform="translate(324.804688 0.78125)"/>
      <use xlink:href="#DejaVuSans-30" transform="translate(388.427734 0.78125)"/>
      <use xlink:href="#DejaVuSerif-20" transform="translate(452.050781 0.78125)"/>
      <use xlink:href="#DejaVuSerif-20" transform="translate(483.837891 0.78125)"/>
      <use xlink:href="#DejaVuSans-394" transform="translate(515.625 0.78125)"/>
      <use xlink:href="#DejaVuSans-3c" transform="translate(603.515625 0.78125)"/>
      <use xlink:href="#DejaVuSans-Oblique-3c3" transform="translate(706.787109 0.78125)"/>
      <use xlink:href="#DejaVuSans-3d" transform="translate(789.648438 0.78125)"/>
      <use xlink:href="#DejaVuSans-34" transform="translate(892.919922 0.78125)"/>
      <use xlink:href="#DejaVuSans-33" transform="translate(956.542969 0.78125)"/>
      <use xlink:href="#DejaVuSans-2e" transform="translate(1020.166016 0.78125)"/>
      <use xlink:href="#DejaVuSans-37" transform="translate(1044.203125 0.78125)"/>
      <use xlink:href="#DejaVuSans-25" transform="translate(1107.826172 0.78125)"/>
     </g>
    </g>
    <g id="line2d_28">
     <path d="M 95.707098 44.76375 
L 103.707098 44.76375 
L 111.707098 44.76375 
" style="fill: none; stroke: #ff0000; stroke-linecap: square"/>
    </g>
    <g id="text_17">
     <!-- $N=10000$  $\Delta&lt;\sigma = 90.5\%$ -->
     <g transform="translate(118.107098 47.56375)scale(0.08 -0.08)">
      <defs>
       <path id="DejaVuSans-39" d="M 703 97 
L 703 672 
Q 941 559 1184 500 
Q 1428 441 1663 441 
Q 2288 441 2617 861 
Q 2947 1281 2994 2138 
Q 2813 1869 2534 1725 
Q 2256 1581 1919 1581 
Q 1219 1581 811 2004 
Q 403 2428 403 3163 
Q 403 3881 828 4315 
Q 1253 4750 1959 4750 
Q 2769 4750 3195 4129 
Q 3622 3509 3622 2328 
Q 3622 1225 3098 567 
Q 2575 -91 1691 -91 
Q 1453 -91 1209 -44 
Q 966 3 703 97 
z
M 1959 2075 
Q 2384 2075 2632 2365 
Q 2881 2656 2881 3163 
Q 2881 3666 2632 3958 
Q 2384 4250 1959 4250 
Q 1534 4250 1286 3958 
Q 1038 3666 1038 3163 
Q 1038 2656 1286 2365 
Q 1534 2075 1959 2075 
z
" transform="scale(0.015625)"/>
      </defs>
      <use xlink:href="#DejaVuSans-Oblique-4e" transform="translate(0 0.78125)"/>
      <use xlink:href="#DejaVuSans-3d" transform="translate(94.287109 0.78125)"/>
      <use xlink:href="#DejaVuSans-31" transform="translate(197.558594 0.78125)"/>
      <use xlink:href="#DejaVuSans-30" transform="translate(261.181641 0.78125)"/>
      <use xlink:href="#DejaVuSans-30" transform="translate(324.804688 0.78125)"/>
      <use xlink:href="#DejaVuSans-30" transform="translate(388.427734 0.78125)"/>
      <use xlink:href="#DejaVuSans-30" transform="translate(452.050781 0.78125)"/>
      <use xlink:href="#DejaVuSerif-20" transform="translate(515.673828 0.78125)"/>
      <use xlink:href="#DejaVuSerif-20" transform="translate(547.460938 0.78125)"/>
      <use xlink:href="#DejaVuSans-394" transform="translate(579.248047 0.78125)"/>
      <use xlink:href="#DejaVuSans-3c" transform="translate(667.138672 0.78125)"/>
      <use xlink:href="#DejaVuSans-Oblique-3c3" transform="translate(770.410156 0.78125)"/>
      <use xlink:href="#DejaVuSans-3d" transform="translate(853.271484 0.78125)"/>
      <use xlink:href="#DejaVuSans-39" transform="translate(956.542969 0.78125)"/>
      <use xlink:href="#DejaVuSans-30" transform="translate(1020.166016 0.78125)"/>
      <use xlink:href="#DejaVuSans-2e" transform="translate(1083.789062 0.78125)"/>
      <use xlink:href="#DejaVuSans-35" transform="translate(1115.576172 0.78125)"/>
      <use xlink:href="#DejaVuSans-25" transform="translate(1179.199219 0.78125)"/>
     </g>
    </g>
   </g>
  </g>
 </g>
 <defs>
  <clipPath id="p1912b3c755">
   <rect x="64.61" y="10.8" width="162.697098" height="139.885679"/>
  </clipPath>
 </defs>
</svg>
