<?xml version="1.0" encoding="utf-8" standalone="no"?>
<!DOCTYPE svg PUBLIC "-//W3C//DTD SVG 1.1//EN"
  "http://www.w3.org/Graphics/SVG/1.1/DTD/svg11.dtd">
<svg xmlns:xlink="http://www.w3.org/1999/xlink" width="238.107098pt" height="190.485679pt" viewBox="0 0 238.107098 190.485679" xmlns="http://www.w3.org/2000/svg" version="1.1">
 <metadata>
  <rdf:RDF xmlns:dc="http://purl.org/dc/elements/1.1/" xmlns:cc="http://creativecommons.org/ns#" xmlns:rdf="http://www.w3.org/1999/02/22-rdf-syntax-ns#">
   <cc:Work>
    <dc:type rdf:resource="http://purl.org/dc/dcmitype/StillImage"/>
    <dc:date>1980-01-01T00:00:00+00:00</dc:date>
    <dc:format>image/svg+xml</dc:format>
    <dc:creator>
     <cc:Agent>
      <dc:title>Matplotlib v3.5.1, https://matplotlib.org/</dc:title>
     </cc:Agent>
    </dc:creator>
   </cc:Work>
  </rdf:RDF>
 </metadata>
 <defs>
  <style type="text/css">*{stroke-linejoin: round; stroke-linecap: butt}</style>
 </defs>
 <g id="figure_1">
  <g id="patch_1">
   <path d="M 0 190.485679 
L 238.107098 190.485679 
L 238.107098 0 
L 0 0 
z
" style="fill: #ffffff"/>
  </g>
  <g id="axes_1">
   <g id="patch_2">
    <path d="M 59.485 150.685679 
L 227.307098 150.685679 
L 227.307098 10.8 
L 59.485 10.8 
z
" style="fill: #e5e5e5"/>
   </g>
   <g id="matplotlib.axis_1">
    <g id="xtick_1">
     <g id="line2d_1">
      <path d="M 67.113277 150.685679 
L 67.113277 10.8 
" clip-path="url(#p138b0d02d2)" style="fill: none; stroke: #ffffff; stroke-width: 0.8; stroke-linecap: square"/>
     </g>
     <g id="line2d_2">
      <defs>
       <path id="mfdd41f7603" d="M 0 0 
L 0 3.5 
" style="stroke: #555555; stroke-width: 0.8"/>
      </defs>
      <g>
       <use xlink:href="#mfdd41f7603" x="67.113277" y="150.685679" style="fill: #555555; stroke: #555555; stroke-width: 0.8"/>
      </g>
     </g>
     <g id="text_1">
      <!-- 0 -->
      <g style="fill: #555555" transform="translate(64.568277 163.764429)scale(0.08 -0.08)">
       <defs>
        <path id="DejaVuSerif-30" d="M 2034 219 
Q 2513 219 2750 744 
Q 2988 1269 2988 2328 
Q 2988 3391 2750 3916 
Q 2513 4441 2034 4441 
Q 1556 4441 1318 3916 
Q 1081 3391 1081 2328 
Q 1081 1269 1318 744 
Q 1556 219 2034 219 
z
M 2034 -91 
Q 1275 -91 848 546 
Q 422 1184 422 2328 
Q 422 3475 848 4112 
Q 1275 4750 2034 4750 
Q 2797 4750 3222 4112 
Q 3647 3475 3647 2328 
Q 3647 1184 3222 546 
Q 2797 -91 2034 -91 
z
" transform="scale(0.015625)"/>
       </defs>
       <use xlink:href="#DejaVuSerif-30"/>
      </g>
     </g>
    </g>
    <g id="xtick_2">
     <g id="line2d_3">
      <path d="M 105.254663 150.685679 
L 105.254663 10.8 
" clip-path="url(#p138b0d02d2)" style="fill: none; stroke: #ffffff; stroke-width: 0.8; stroke-linecap: square"/>
     </g>
     <g id="line2d_4">
      <g>
       <use xlink:href="#mfdd41f7603" x="105.254663" y="150.685679" style="fill: #555555; stroke: #555555; stroke-width: 0.8"/>
      </g>
     </g>
     <g id="text_2">
      <!-- 5 -->
      <g style="fill: #555555" transform="translate(102.709663 163.764429)scale(0.08 -0.08)">
       <defs>
        <path id="DejaVuSerif-35" d="M 3219 4666 
L 3219 4153 
L 1081 4153 
L 1081 2816 
Q 1244 2928 1461 2984 
Q 1678 3041 1947 3041 
Q 2703 3041 3140 2622 
Q 3578 2203 3578 1478 
Q 3578 738 3136 323 
Q 2694 -91 1894 -91 
Q 1572 -91 1234 -12 
Q 897 66 544 225 
L 544 1131 
L 897 1131 
Q 925 688 1179 453 
Q 1434 219 1894 219 
Q 2388 219 2653 544 
Q 2919 869 2919 1478 
Q 2919 2084 2655 2407 
Q 2391 2731 1894 2731 
Q 1613 2731 1398 2631 
Q 1184 2531 1019 2322 
L 750 2322 
L 750 4666 
L 3219 4666 
z
" transform="scale(0.015625)"/>
       </defs>
       <use xlink:href="#DejaVuSerif-35"/>
      </g>
     </g>
    </g>
    <g id="xtick_3">
     <g id="line2d_5">
      <path d="M 143.396049 150.685679 
L 143.396049 10.8 
" clip-path="url(#p138b0d02d2)" style="fill: none; stroke: #ffffff; stroke-width: 0.8; stroke-linecap: square"/>
     </g>
     <g id="line2d_6">
      <g>
       <use xlink:href="#mfdd41f7603" x="143.396049" y="150.685679" style="fill: #555555; stroke: #555555; stroke-width: 0.8"/>
      </g>
     </g>
     <g id="text_3">
      <!-- 10 -->
      <g style="fill: #555555" transform="translate(138.306049 163.764429)scale(0.08 -0.08)">
       <defs>
        <path id="DejaVuSerif-31" d="M 909 0 
L 909 331 
L 1722 331 
L 1722 4213 
L 781 3603 
L 781 4013 
L 1919 4750 
L 2350 4750 
L 2350 331 
L 3163 331 
L 3163 0 
L 909 0 
z
" transform="scale(0.015625)"/>
       </defs>
       <use xlink:href="#DejaVuSerif-31"/>
       <use xlink:href="#DejaVuSerif-30" x="63.623047"/>
      </g>
     </g>
    </g>
    <g id="xtick_4">
     <g id="line2d_7">
      <path d="M 181.537435 150.685679 
L 181.537435 10.8 
" clip-path="url(#p138b0d02d2)" style="fill: none; stroke: #ffffff; stroke-width: 0.8; stroke-linecap: square"/>
     </g>
     <g id="line2d_8">
      <g>
       <use xlink:href="#mfdd41f7603" x="181.537435" y="150.685679" style="fill: #555555; stroke: #555555; stroke-width: 0.8"/>
      </g>
     </g>
     <g id="text_4">
      <!-- 15 -->
      <g style="fill: #555555" transform="translate(176.447435 163.764429)scale(0.08 -0.08)">
       <use xlink:href="#DejaVuSerif-31"/>
       <use xlink:href="#DejaVuSerif-35" x="63.623047"/>
      </g>
     </g>
    </g>
    <g id="xtick_5">
     <g id="line2d_9">
      <path d="M 219.678821 150.685679 
L 219.678821 10.8 
" clip-path="url(#p138b0d02d2)" style="fill: none; stroke: #ffffff; stroke-width: 0.8; stroke-linecap: square"/>
     </g>
     <g id="line2d_10">
      <g>
       <use xlink:href="#mfdd41f7603" x="219.678821" y="150.685679" style="fill: #555555; stroke: #555555; stroke-width: 0.8"/>
      </g>
     </g>
     <g id="text_5">
      <!-- 20 -->
      <g style="fill: #555555" transform="translate(214.588821 163.764429)scale(0.08 -0.08)">
       <defs>
        <path id="DejaVuSerif-32" d="M 819 3553 
L 469 3553 
L 469 4384 
Q 803 4563 1142 4656 
Q 1481 4750 1806 4750 
Q 2534 4750 2956 4397 
Q 3378 4044 3378 3438 
Q 3378 2753 2422 1800 
Q 2347 1728 2309 1691 
L 1131 513 
L 3078 513 
L 3078 1088 
L 3444 1088 
L 3444 0 
L 434 0 
L 434 341 
L 1850 1753 
Q 2319 2222 2519 2614 
Q 2719 3006 2719 3438 
Q 2719 3909 2473 4175 
Q 2228 4441 1797 4441 
Q 1350 4441 1106 4219 
Q 863 3997 819 3553 
z
" transform="scale(0.015625)"/>
       </defs>
       <use xlink:href="#DejaVuSerif-32"/>
       <use xlink:href="#DejaVuSerif-30" x="63.623047"/>
      </g>
     </g>
    </g>
    <g id="text_6">
     <!-- $τ$ -->
     <g style="fill: #555555" transform="translate(140.346049 177.026616)scale(0.1 -0.1)">
      <defs>
       <path id="DejaVuSans-Oblique-3c4" d="M 2103 638 
Q 2188 488 2525 488 
L 2800 488 
L 2706 0 
L 2363 0 
Q 1800 0 1600 300 
Q 1403 606 1534 1269 
L 1856 2925 
L 541 2925 
L 653 3500 
L 3881 3500 
L 3769 2925 
L 2444 2925 
L 2113 1234 
Q 2025 781 2103 638 
z
" transform="scale(0.015625)"/>
      </defs>
      <use xlink:href="#DejaVuSans-Oblique-3c4" transform="translate(0 0.3125)"/>
     </g>
    </g>
   </g>
   <g id="matplotlib.axis_2">
    <g id="ytick_1">
     <g id="line2d_11">
      <path d="M 59.485 144.327239 
L 227.307098 144.327239 
" clip-path="url(#p138b0d02d2)" style="fill: none; stroke: #ffffff; stroke-width: 0.8; stroke-linecap: square"/>
     </g>
     <g id="line2d_12">
      <defs>
       <path id="me10261969d" d="M 0 0 
L -3.5 0 
" style="stroke: #555555; stroke-width: 0.8"/>
      </defs>
      <g>
       <use xlink:href="#me10261969d" x="59.485" y="144.327239" style="fill: #555555; stroke: #555555; stroke-width: 0.8"/>
      </g>
     </g>
     <g id="text_7">
      <!-- 0.000 -->
      <g style="fill: #555555" transform="translate(29.5825 147.366614)scale(0.08 -0.08)">
       <defs>
        <path id="DejaVuSerif-2e" d="M 603 325 
Q 603 500 722 622 
Q 841 744 1019 744 
Q 1191 744 1312 622 
Q 1434 500 1434 325 
Q 1434 153 1312 31 
Q 1191 -91 1019 -91 
Q 841 -91 722 29 
Q 603 150 603 325 
z
" transform="scale(0.015625)"/>
       </defs>
       <use xlink:href="#DejaVuSerif-30"/>
       <use xlink:href="#DejaVuSerif-2e" x="63.623047"/>
       <use xlink:href="#DejaVuSerif-30" x="95.410156"/>
       <use xlink:href="#DejaVuSerif-30" x="159.033203"/>
       <use xlink:href="#DejaVuSerif-30" x="222.65625"/>
      </g>
     </g>
    </g>
    <g id="ytick_2">
     <g id="line2d_13">
      <path d="M 59.485 118.49091 
L 227.307098 118.49091 
" clip-path="url(#p138b0d02d2)" style="fill: none; stroke: #ffffff; stroke-width: 0.8; stroke-linecap: square"/>
     </g>
     <g id="line2d_14">
      <g>
       <use xlink:href="#me10261969d" x="59.485" y="118.49091" style="fill: #555555; stroke: #555555; stroke-width: 0.8"/>
      </g>
     </g>
     <g id="text_8">
      <!-- 0.002 -->
      <g style="fill: #555555" transform="translate(29.5825 121.530285)scale(0.08 -0.08)">
       <use xlink:href="#DejaVuSerif-30"/>
       <use xlink:href="#DejaVuSerif-2e" x="63.623047"/>
       <use xlink:href="#DejaVuSerif-30" x="95.410156"/>
       <use xlink:href="#DejaVuSerif-30" x="159.033203"/>
       <use xlink:href="#DejaVuSerif-32" x="222.65625"/>
      </g>
     </g>
    </g>
    <g id="ytick_3">
     <g id="line2d_15">
      <path d="M 59.485 92.654581 
L 227.307098 92.654581 
" clip-path="url(#p138b0d02d2)" style="fill: none; stroke: #ffffff; stroke-width: 0.8; stroke-linecap: square"/>
     </g>
     <g id="line2d_16">
      <g>
       <use xlink:href="#me10261969d" x="59.485" y="92.654581" style="fill: #555555; stroke: #555555; stroke-width: 0.8"/>
      </g>
     </g>
     <g id="text_9">
      <!-- 0.004 -->
      <g style="fill: #555555" transform="translate(29.5825 95.693956)scale(0.08 -0.08)">
       <defs>
        <path id="DejaVuSerif-34" d="M 2234 1581 
L 2234 4063 
L 641 1581 
L 2234 1581 
z
M 3609 0 
L 1484 0 
L 1484 331 
L 2234 331 
L 2234 1247 
L 197 1247 
L 197 1588 
L 2241 4750 
L 2859 4750 
L 2859 1581 
L 3750 1581 
L 3750 1247 
L 2859 1247 
L 2859 331 
L 3609 331 
L 3609 0 
z
" transform="scale(0.015625)"/>
       </defs>
       <use xlink:href="#DejaVuSerif-30"/>
       <use xlink:href="#DejaVuSerif-2e" x="63.623047"/>
       <use xlink:href="#DejaVuSerif-30" x="95.410156"/>
       <use xlink:href="#DejaVuSerif-30" x="159.033203"/>
       <use xlink:href="#DejaVuSerif-34" x="222.65625"/>
      </g>
     </g>
    </g>
    <g id="ytick_4">
     <g id="line2d_17">
      <path d="M 59.485 66.818252 
L 227.307098 66.818252 
" clip-path="url(#p138b0d02d2)" style="fill: none; stroke: #ffffff; stroke-width: 0.8; stroke-linecap: square"/>
     </g>
     <g id="line2d_18">
      <g>
       <use xlink:href="#me10261969d" x="59.485" y="66.818252" style="fill: #555555; stroke: #555555; stroke-width: 0.8"/>
      </g>
     </g>
     <g id="text_10">
      <!-- 0.006 -->
      <g style="fill: #555555" transform="translate(29.5825 69.857627)scale(0.08 -0.08)">
       <defs>
        <path id="DejaVuSerif-36" d="M 2094 219 
Q 2534 219 2771 542 
Q 3009 866 3009 1472 
Q 3009 2078 2771 2401 
Q 2534 2725 2094 2725 
Q 1647 2725 1412 2412 
Q 1178 2100 1178 1509 
Q 1178 888 1415 553 
Q 1653 219 2094 219 
z
M 1075 2569 
Q 1288 2803 1556 2918 
Q 1825 3034 2163 3034 
Q 2859 3034 3264 2615 
Q 3669 2197 3669 1472 
Q 3669 763 3233 336 
Q 2797 -91 2069 -91 
Q 1278 -91 853 498 
Q 428 1088 428 2181 
Q 428 3406 931 4078 
Q 1434 4750 2350 4750 
Q 2597 4750 2869 4703 
Q 3141 4656 3425 4563 
L 3425 3794 
L 3072 3794 
Q 3034 4109 2831 4275 
Q 2628 4441 2284 4441 
Q 1678 4441 1381 3981 
Q 1084 3522 1075 2569 
z
" transform="scale(0.015625)"/>
       </defs>
       <use xlink:href="#DejaVuSerif-30"/>
       <use xlink:href="#DejaVuSerif-2e" x="63.623047"/>
       <use xlink:href="#DejaVuSerif-30" x="95.410156"/>
       <use xlink:href="#DejaVuSerif-30" x="159.033203"/>
       <use xlink:href="#DejaVuSerif-36" x="222.65625"/>
      </g>
     </g>
    </g>
    <g id="ytick_5">
     <g id="line2d_19">
      <path d="M 59.485 40.981924 
L 227.307098 40.981924 
" clip-path="url(#p138b0d02d2)" style="fill: none; stroke: #ffffff; stroke-width: 0.8; stroke-linecap: square"/>
     </g>
     <g id="line2d_20">
      <g>
       <use xlink:href="#me10261969d" x="59.485" y="40.981924" style="fill: #555555; stroke: #555555; stroke-width: 0.8"/>
      </g>
     </g>
     <g id="text_11">
      <!-- 0.008 -->
      <g style="fill: #555555" transform="translate(29.5825 44.021299)scale(0.08 -0.08)">
       <defs>
        <path id="DejaVuSerif-38" d="M 2981 1275 
Q 2981 1775 2732 2051 
Q 2484 2328 2034 2328 
Q 1584 2328 1336 2051 
Q 1088 1775 1088 1275 
Q 1088 772 1336 495 
Q 1584 219 2034 219 
Q 2484 219 2732 495 
Q 2981 772 2981 1275 
z
M 2853 3541 
Q 2853 3966 2637 4203 
Q 2422 4441 2034 4441 
Q 1650 4441 1433 4203 
Q 1216 3966 1216 3541 
Q 1216 3113 1433 2875 
Q 1650 2638 2034 2638 
Q 2422 2638 2637 2875 
Q 2853 3113 2853 3541 
z
M 2516 2484 
Q 3047 2413 3344 2092 
Q 3641 1772 3641 1275 
Q 3641 619 3225 264 
Q 2809 -91 2034 -91 
Q 1263 -91 845 264 
Q 428 619 428 1275 
Q 428 1772 725 2092 
Q 1022 2413 1556 2484 
Q 1084 2569 832 2842 
Q 581 3116 581 3541 
Q 581 4103 968 4426 
Q 1356 4750 2034 4750 
Q 2713 4750 3100 4426 
Q 3488 4103 3488 3541 
Q 3488 3116 3236 2842 
Q 2984 2569 2516 2484 
z
" transform="scale(0.015625)"/>
       </defs>
       <use xlink:href="#DejaVuSerif-30"/>
       <use xlink:href="#DejaVuSerif-2e" x="63.623047"/>
       <use xlink:href="#DejaVuSerif-30" x="95.410156"/>
       <use xlink:href="#DejaVuSerif-30" x="159.033203"/>
       <use xlink:href="#DejaVuSerif-38" x="222.65625"/>
      </g>
     </g>
    </g>
    <g id="ytick_6">
     <g id="line2d_21">
      <path d="M 59.485 15.145595 
L 227.307098 15.145595 
" clip-path="url(#p138b0d02d2)" style="fill: none; stroke: #ffffff; stroke-width: 0.8; stroke-linecap: square"/>
     </g>
     <g id="line2d_22">
      <g>
       <use xlink:href="#me10261969d" x="59.485" y="15.145595" style="fill: #555555; stroke: #555555; stroke-width: 0.8"/>
      </g>
     </g>
     <g id="text_12">
      <!-- 0.010 -->
      <g style="fill: #555555" transform="translate(29.5825 18.18497)scale(0.08 -0.08)">
       <use xlink:href="#DejaVuSerif-30"/>
       <use xlink:href="#DejaVuSerif-2e" x="63.623047"/>
       <use xlink:href="#DejaVuSerif-30" x="95.410156"/>
       <use xlink:href="#DejaVuSerif-31" x="159.033203"/>
       <use xlink:href="#DejaVuSerif-30" x="222.65625"/>
      </g>
     </g>
    </g>
    <g id="text_13">
     <!-- $|{\langle H_S\rangle}_{\mathrm{ref}}-{\langle H_S\rangle}_{N_i}|$ -->
     <g style="fill: #555555" transform="translate(22.7825 118.892839)rotate(-90)scale(0.1 -0.1)">
      <defs>
       <path id="DejaVuSans-7c" d="M 1344 4891 
L 1344 -1509 
L 813 -1509 
L 813 4891 
L 1344 4891 
z
" transform="scale(0.015625)"/>
       <path id="DejaVuSans-27e8" d="M 572 2006 
L 1453 4856 
L 1984 4856 
L 1103 2006 
L 1984 -844 
L 1453 -844 
L 572 2006 
z
" transform="scale(0.015625)"/>
       <path id="DejaVuSans-Oblique-48" d="M 1081 4666 
L 1716 4666 
L 1344 2753 
L 3634 2753 
L 4006 4666 
L 4641 4666 
L 3731 0 
L 3097 0 
L 3531 2222 
L 1241 2222 
L 806 0 
L 172 0 
L 1081 4666 
z
" transform="scale(0.015625)"/>
       <path id="DejaVuSans-Oblique-53" d="M 3859 4513 
L 3738 3897 
Q 3422 4066 3111 4152 
Q 2800 4238 2509 4238 
Q 1944 4238 1609 3991 
Q 1275 3744 1275 3334 
Q 1275 3109 1398 2989 
Q 1522 2869 2034 2731 
L 2413 2638 
Q 3053 2472 3303 2217 
Q 3553 1963 3553 1503 
Q 3553 797 2998 353 
Q 2444 -91 1538 -91 
Q 1166 -91 791 -17 
Q 416 56 38 206 
L 166 856 
Q 513 641 861 531 
Q 1209 422 1556 422 
Q 2147 422 2503 684 
Q 2859 947 2859 1369 
Q 2859 1650 2717 1795 
Q 2575 1941 2106 2059 
L 1728 2156 
Q 1081 2325 845 2545 
Q 609 2766 609 3163 
Q 609 3859 1145 4304 
Q 1681 4750 2541 4750 
Q 2875 4750 3203 4690 
Q 3531 4631 3859 4513 
z
" transform="scale(0.015625)"/>
       <path id="DejaVuSans-27e9" d="M 1925 2006 
L 1044 -844 
L 513 -844 
L 1394 2006 
L 513 4856 
L 1044 4856 
L 1925 2006 
z
" transform="scale(0.015625)"/>
       <path id="DejaVuSans-72" d="M 2631 2963 
Q 2534 3019 2420 3045 
Q 2306 3072 2169 3072 
Q 1681 3072 1420 2755 
Q 1159 2438 1159 1844 
L 1159 0 
L 581 0 
L 581 3500 
L 1159 3500 
L 1159 2956 
Q 1341 3275 1631 3429 
Q 1922 3584 2338 3584 
Q 2397 3584 2469 3576 
Q 2541 3569 2628 3553 
L 2631 2963 
z
" transform="scale(0.015625)"/>
       <path id="DejaVuSans-65" d="M 3597 1894 
L 3597 1613 
L 953 1613 
Q 991 1019 1311 708 
Q 1631 397 2203 397 
Q 2534 397 2845 478 
Q 3156 559 3463 722 
L 3463 178 
Q 3153 47 2828 -22 
Q 2503 -91 2169 -91 
Q 1331 -91 842 396 
Q 353 884 353 1716 
Q 353 2575 817 3079 
Q 1281 3584 2069 3584 
Q 2775 3584 3186 3129 
Q 3597 2675 3597 1894 
z
M 3022 2063 
Q 3016 2534 2758 2815 
Q 2500 3097 2075 3097 
Q 1594 3097 1305 2825 
Q 1016 2553 972 2059 
L 3022 2063 
z
" transform="scale(0.015625)"/>
       <path id="DejaVuSans-66" d="M 2375 4863 
L 2375 4384 
L 1825 4384 
Q 1516 4384 1395 4259 
Q 1275 4134 1275 3809 
L 1275 3500 
L 2222 3500 
L 2222 3053 
L 1275 3053 
L 1275 0 
L 697 0 
L 697 3053 
L 147 3053 
L 147 3500 
L 697 3500 
L 697 3744 
Q 697 4328 969 4595 
Q 1241 4863 1831 4863 
L 2375 4863 
z
" transform="scale(0.015625)"/>
       <path id="DejaVuSans-2212" d="M 678 2272 
L 4684 2272 
L 4684 1741 
L 678 1741 
L 678 2272 
z
" transform="scale(0.015625)"/>
       <path id="DejaVuSans-Oblique-4e" d="M 1081 4666 
L 1931 4666 
L 3219 666 
L 4000 4666 
L 4616 4666 
L 3706 0 
L 2853 0 
L 1569 4025 
L 788 0 
L 172 0 
L 1081 4666 
z
" transform="scale(0.015625)"/>
       <path id="DejaVuSans-Oblique-69" d="M 1172 4863 
L 1747 4863 
L 1606 4134 
L 1031 4134 
L 1172 4863 
z
M 909 3500 
L 1484 3500 
L 800 0 
L 225 0 
L 909 3500 
z
" transform="scale(0.015625)"/>
      </defs>
      <use xlink:href="#DejaVuSans-7c" transform="translate(0 0.578125)"/>
      <use xlink:href="#DejaVuSans-27e8" transform="translate(33.691406 0.578125)"/>
      <use xlink:href="#DejaVuSans-Oblique-48" transform="translate(72.705078 0.578125)"/>
      <use xlink:href="#DejaVuSans-Oblique-53" transform="translate(147.900391 -15.828125)scale(0.7)"/>
      <use xlink:href="#DejaVuSans-27e9" transform="translate(195.068359 0.578125)"/>
      <use xlink:href="#DejaVuSans-72" transform="translate(235.039062 -15.828125)scale(0.7)"/>
      <use xlink:href="#DejaVuSans-65" transform="translate(263.818359 -15.828125)scale(0.7)"/>
      <use xlink:href="#DejaVuSans-66" transform="translate(306.884766 -15.828125)scale(0.7)"/>
      <use xlink:href="#DejaVuSans-2212" transform="translate(353.745117 0.578125)"/>
      <use xlink:href="#DejaVuSans-27e8" transform="translate(457.016602 0.578125)"/>
      <use xlink:href="#DejaVuSans-Oblique-48" transform="translate(496.030273 0.578125)"/>
      <use xlink:href="#DejaVuSans-Oblique-53" transform="translate(571.225586 -15.828125)scale(0.7)"/>
      <use xlink:href="#DejaVuSans-27e9" transform="translate(618.393555 0.578125)"/>
      <use xlink:href="#DejaVuSans-Oblique-4e" transform="translate(658.364258 -15.828125)scale(0.7)"/>
      <use xlink:href="#DejaVuSans-Oblique-69" transform="translate(710.727539 -27.3125)scale(0.49)"/>
      <use xlink:href="#DejaVuSans-7c" transform="translate(728.989746 0.578125)"/>
     </g>
    </g>
   </g>
   <g id="PolyCollection_1">
    <defs>
     <path id="mb41f9f73e0" d="M 67.113277 -46.15844 
L 67.113277 -46.15844 
L 67.88381 -46.15844 
L 68.654343 -46.15844 
L 69.424876 -46.15844 
L 70.195409 -46.15844 
L 70.965942 -46.15844 
L 71.736476 -46.15844 
L 72.507009 -46.15844 
L 73.277542 -46.15844 
L 74.048075 -46.15844 
L 74.818608 -46.15844 
L 75.589141 -46.15844 
L 76.359674 -46.15844 
L 77.130207 -46.15844 
L 77.90074 -46.15844 
L 78.671273 -46.15844 
L 79.441806 -46.15844 
L 80.212339 -46.15844 
L 80.982872 -46.15844 
L 81.753405 -46.15844 
L 82.523938 -46.15844 
L 83.294471 -46.15844 
L 84.065004 -46.15844 
L 84.835537 -46.15844 
L 85.60607 -46.15844 
L 86.376603 -46.15844 
L 87.147137 -46.15844 
L 87.91767 -46.15844 
L 88.688203 -46.15844 
L 89.458736 -46.15844 
L 90.229269 -46.15844 
L 90.999802 -46.15844 
L 91.770335 -46.15844 
L 92.540868 -46.15844 
L 93.311401 -46.15844 
L 94.081934 -46.15844 
L 94.852467 -46.15844 
L 95.623 -46.15844 
L 96.393533 -46.15844 
L 97.164066 -46.15844 
L 97.934599 -46.15844 
L 98.705132 -46.15844 
L 99.475665 -46.15844 
L 100.246198 -46.15844 
L 101.016731 -46.15844 
L 101.787264 -46.15844 
L 102.557798 -46.15844 
L 103.328331 -46.15844 
L 104.098864 -46.15844 
L 104.869397 -46.15844 
L 105.63993 -46.15844 
L 106.410463 -46.15844 
L 107.180996 -46.15844 
L 107.951529 -46.15844 
L 108.722062 -46.15844 
L 109.492595 -46.15844 
L 110.263128 -46.15844 
L 111.033661 -46.15844 
L 111.804194 -46.15844 
L 112.574727 -46.15844 
L 113.34526 -46.15844 
L 114.115793 -46.15844 
L 114.886326 -46.15844 
L 115.656859 -46.15844 
L 116.427392 -46.15844 
L 117.197925 -46.15844 
L 117.968459 -46.15844 
L 118.738992 -46.15844 
L 119.509525 -46.15844 
L 120.280058 -46.15844 
L 121.050591 -46.15844 
L 121.821124 -46.15844 
L 122.591657 -46.15844 
L 123.36219 -46.15844 
L 124.132723 -46.15844 
L 124.903256 -46.15844 
L 125.673789 -46.15844 
L 126.444322 -46.15844 
L 127.214855 -46.15844 
L 127.985388 -46.15844 
L 128.755921 -46.15844 
L 129.526454 -46.15844 
L 130.296987 -46.15844 
L 131.06752 -46.15844 
L 131.838053 -46.15844 
L 132.608586 -46.15844 
L 133.37912 -46.15844 
L 134.149653 -46.15844 
L 134.920186 -46.15844 
L 135.690719 -46.15844 
L 136.461252 -46.15844 
L 137.231785 -46.15844 
L 138.002318 -46.15844 
L 138.772851 -46.15844 
L 139.543384 -46.15844 
L 140.313917 -46.15844 
L 141.08445 -46.15844 
L 141.854983 -46.15844 
L 142.625516 -46.15844 
L 143.396049 -46.15844 
L 144.166582 -46.15844 
L 144.937115 -46.15844 
L 145.707648 -46.15844 
L 146.478181 -46.15844 
L 147.248714 -46.15844 
L 148.019247 -46.15844 
L 148.789781 -46.15844 
L 149.560314 -46.15844 
L 150.330847 -46.15844 
L 151.10138 -46.15844 
L 151.871913 -46.15844 
L 152.642446 -46.15844 
L 153.412979 -46.15844 
L 154.183512 -46.15844 
L 154.954045 -46.15844 
L 155.724578 -46.15844 
L 156.495111 -46.15844 
L 157.265644 -46.15844 
L 158.036177 -46.15844 
L 158.80671 -46.15844 
L 159.577243 -46.15844 
L 160.347776 -46.15844 
L 161.118309 -46.15844 
L 161.888842 -46.15844 
L 162.659375 -46.15844 
L 163.429909 -46.15844 
L 164.200442 -46.15844 
L 164.970975 -46.15844 
L 165.741508 -46.15844 
L 166.512041 -46.15844 
L 167.282574 -46.15844 
L 168.053107 -46.15844 
L 168.82364 -46.15844 
L 169.594173 -46.15844 
L 170.364706 -46.15844 
L 171.135239 -46.15844 
L 171.905772 -46.15844 
L 172.676305 -46.15844 
L 173.446838 -46.15844 
L 174.217371 -46.15844 
L 174.987904 -46.15844 
L 175.758437 -46.15844 
L 176.52897 -46.15844 
L 177.299503 -46.15844 
L 178.070036 -46.15844 
L 178.84057 -46.15844 
L 179.611103 -46.15844 
L 180.381636 -46.15844 
L 181.152169 -46.15844 
L 181.922702 -46.15844 
L 182.693235 -46.15844 
L 183.463768 -46.15844 
L 184.234301 -46.15844 
L 185.004834 -46.15844 
L 185.775367 -46.15844 
L 186.5459 -46.15844 
L 187.316433 -46.15844 
L 188.086966 -46.15844 
L 188.857499 -46.15844 
L 189.628032 -46.15844 
L 190.398565 -46.15844 
L 191.169098 -46.15844 
L 191.939631 -46.15844 
L 192.710164 -46.15844 
L 193.480697 -46.15844 
L 194.251231 -46.15844 
L 195.021764 -46.15844 
L 195.792297 -46.15844 
L 196.56283 -46.15844 
L 197.333363 -46.15844 
L 198.103896 -46.15844 
L 198.874429 -46.15844 
L 199.644962 -46.15844 
L 200.415495 -46.15844 
L 201.186028 -46.15844 
L 201.956561 -46.15844 
L 202.727094 -46.15844 
L 203.497627 -46.15844 
L 204.26816 -46.15844 
L 205.038693 -46.15844 
L 205.809226 -46.15844 
L 206.579759 -46.15844 
L 207.350292 -46.15844 
L 208.120825 -46.15844 
L 208.891358 -46.15844 
L 209.661892 -46.15844 
L 210.432425 -46.15844 
L 211.202958 -46.15844 
L 211.973491 -46.15844 
L 212.744024 -46.15844 
L 213.514557 -46.15844 
L 214.28509 -46.15844 
L 215.055623 -46.15844 
L 215.826156 -46.15844 
L 216.596689 -46.15844 
L 217.367222 -46.15844 
L 218.137755 -46.15844 
L 218.908288 -46.15844 
L 219.678821 -46.15844 
L 219.678821 -67.415668 
L 219.678821 -67.415668 
L 218.908288 -67.419054 
L 218.137755 -67.460485 
L 217.367222 -67.497377 
L 216.596689 -67.489827 
L 215.826156 -67.440583 
L 215.055623 -67.374365 
L 214.28509 -67.316708 
L 213.514557 -67.269795 
L 212.744024 -67.215455 
L 211.973491 -67.131861 
L 211.202958 -67.022479 
L 210.432425 -66.936754 
L 209.661892 -66.89671 
L 208.891358 -66.868652 
L 208.120825 -66.82206 
L 207.350292 -66.767427 
L 206.579759 -66.729168 
L 205.809226 -66.69792 
L 205.038693 -66.642246 
L 204.26816 -66.551414 
L 203.497627 -66.432333 
L 202.727094 -66.315384 
L 201.956561 -66.237078 
L 201.186028 -66.198027 
L 200.415495 -66.16981 
L 199.644962 -66.130056 
L 198.874429 -66.082109 
L 198.103896 -66.046115 
L 197.333363 -66.026067 
L 196.56283 -66.002245 
L 195.792297 -65.958654 
L 195.021764 -65.903863 
L 194.251231 -65.859232 
L 193.480697 -65.821509 
L 192.710164 -65.762108 
L 191.939631 -65.679751 
L 191.169098 -65.597485 
L 190.398565 -65.535452 
L 189.628032 -65.484953 
L 188.857499 -65.421406 
L 188.086966 -65.322418 
L 187.316433 -65.197943 
L 186.5459 -65.080631 
L 185.775367 -64.986873 
L 185.004834 -64.905257 
L 184.234301 -64.828584 
L 183.463768 -64.767912 
L 182.693235 -64.729782 
L 181.922702 -64.687926 
L 181.152169 -64.618908 
L 180.381636 -64.528689 
L 179.611103 -64.43497 
L 178.84057 -64.350787 
L 178.070036 -64.289659 
L 177.299503 -64.250353 
L 176.52897 -64.223008 
L 175.758437 -64.20741 
L 174.987904 -64.202874 
L 174.217371 -64.198129 
L 173.446838 -64.181131 
L 172.676305 -64.150944 
L 171.905772 -64.107224 
L 171.135239 -64.044106 
L 170.364706 -63.975134 
L 169.594173 -63.921754 
L 168.82364 -63.87786 
L 168.053107 -63.813032 
L 167.282574 -63.72403 
L 166.512041 -63.64925 
L 165.741508 -63.621784 
L 164.970975 -63.629038 
L 164.200442 -63.628672 
L 163.429909 -63.582969 
L 162.659375 -63.487901 
L 161.888842 -63.383366 
L 161.118309 -63.291733 
L 160.347776 -63.199206 
L 159.577243 -63.098604 
L 158.80671 -62.973632 
L 158.036177 -62.806802 
L 157.265644 -62.619369 
L 156.495111 -62.464432 
L 155.724578 -62.362496 
L 154.954045 -62.280305 
L 154.183512 -62.199085 
L 153.412979 -62.138025 
L 152.642446 -62.102229 
L 151.871913 -62.087431 
L 151.10138 -62.088271 
L 150.330847 -62.086352 
L 149.560314 -62.060869 
L 148.789781 -62.007228 
L 148.019247 -61.93563 
L 147.248714 -61.844899 
L 146.478181 -61.742718 
L 145.707648 -61.655796 
L 144.937115 -61.581858 
L 144.166582 -61.510438 
L 143.396049 -61.442659 
L 142.625516 -61.375876 
L 141.854983 -61.316511 
L 141.08445 -61.268417 
L 140.313917 -61.216822 
L 139.543384 -61.158449 
L 138.772851 -61.107927 
L 138.002318 -61.069037 
L 137.231785 -61.013271 
L 136.461252 -60.907675 
L 135.690719 -60.743418 
L 134.920186 -60.542134 
L 134.149653 -60.341668 
L 133.37912 -60.167403 
L 132.608586 -59.997769 
L 131.838053 -59.814728 
L 131.06752 -59.629172 
L 130.296987 -59.450801 
L 129.526454 -59.279562 
L 128.755921 -59.125797 
L 127.985388 -58.994209 
L 127.214855 -58.870776 
L 126.444322 -58.746456 
L 125.673789 -58.636023 
L 124.903256 -58.549496 
L 124.132723 -58.484141 
L 123.36219 -58.433946 
L 122.591657 -58.396302 
L 121.821124 -58.37334 
L 121.050591 -58.371835 
L 120.280058 -58.384766 
L 119.509525 -58.392965 
L 118.738992 -58.38809 
L 117.968459 -58.375993 
L 117.197925 -58.34879 
L 116.427392 -58.291882 
L 115.656859 -58.209417 
L 114.886326 -58.104063 
L 114.115793 -57.978805 
L 113.34526 -57.844673 
L 112.574727 -57.710459 
L 111.804194 -57.571021 
L 111.033661 -57.416423 
L 110.263128 -57.255686 
L 109.492595 -57.096948 
L 108.722062 -56.928993 
L 107.951529 -56.740905 
L 107.180996 -56.534213 
L 106.410463 -56.328385 
L 105.63993 -56.129274 
L 104.869397 -55.928649 
L 104.098864 -55.736927 
L 103.328331 -55.562695 
L 102.557798 -55.408046 
L 101.787264 -55.279359 
L 101.016731 -55.167243 
L 100.246198 -55.055798 
L 99.475665 -54.957077 
L 98.705132 -54.898926 
L 97.934599 -54.895386 
L 97.164066 -54.929276 
L 96.393533 -54.976441 
L 95.623 -55.023578 
L 94.852467 -55.061285 
L 94.081934 -55.083782 
L 93.311401 -55.085629 
L 92.540868 -55.061171 
L 91.770335 -55.015478 
L 90.999802 -54.948735 
L 90.229269 -54.863454 
L 89.458736 -54.76455 
L 88.688203 -54.655613 
L 87.91767 -54.538693 
L 87.147137 -54.41097 
L 86.376603 -54.260842 
L 85.60607 -54.082195 
L 84.835537 -53.869789 
L 84.065004 -53.621014 
L 83.294471 -53.348762 
L 82.523938 -53.069703 
L 81.753405 -52.784215 
L 80.982872 -52.480938 
L 80.212339 -52.167821 
L 79.441806 -51.86158 
L 78.671273 -51.560347 
L 77.90074 -51.239827 
L 77.130207 -50.888087 
L 76.359674 -50.520073 
L 75.589141 -50.158332 
L 74.818608 -49.804674 
L 74.048075 -49.449788 
L 73.277542 -49.087069 
L 72.507009 -48.708821 
L 71.736476 -48.307027 
L 70.965942 -47.878532 
L 70.195409 -47.426806 
L 69.424876 -46.97301 
L 68.654343 -46.563042 
L 67.88381 -46.267452 
L 67.113277 -46.15844 
z
" style="stroke: #ffff00; stroke-width: 0.5"/>
    </defs>
    <g clip-path="url(#p138b0d02d2)">
     <use xlink:href="#mb41f9f73e0" x="0" y="190.485679" style="fill: #ffff00; stroke: #ffff00; stroke-width: 0.5"/>
    </g>
   </g>
   <g id="line2d_23">
    <path d="M 67.113277 144.327239 
L 67.88381 144.109314 
L 69.424876 142.91942 
L 70.195409 142.687668 
L 71.736476 143.051024 
L 72.507009 142.988359 
L 73.277542 142.447572 
L 74.048075 141.474141 
L 74.818608 139.868369 
L 75.589141 137.64339 
L 76.359674 135.850114 
L 77.130207 135.79986 
L 77.90074 137.601467 
L 78.671273 139.774317 
L 80.212339 142.835925 
L 80.982872 143.506954 
L 81.753405 141.135217 
L 82.523938 140.27942 
L 84.065004 141.402556 
L 84.835537 140.644439 
L 85.60607 138.923971 
L 86.376603 137.925416 
L 87.147137 138.20513 
L 87.91767 139.207607 
L 88.688203 141.13509 
L 89.458736 144.010034 
L 90.999802 139.583023 
L 91.770335 138.693459 
L 92.540868 139.833357 
L 93.311401 142.658373 
L 94.081934 143.219158 
L 94.852467 142.360297 
L 96.393533 144.069553 
L 97.164066 143.034633 
L 97.934599 142.366736 
L 98.705132 141.435959 
L 99.475665 140.27653 
L 100.246198 140.10286 
L 101.016731 142.332274 
L 101.787264 141.766965 
L 102.557798 136.482831 
L 103.328331 132.064072 
L 104.098864 128.871452 
L 104.869397 126.864486 
L 105.63993 126.561563 
L 106.410463 128.164724 
L 107.951529 132.601636 
L 108.722062 134.16571 
L 109.492595 135.203568 
L 110.263128 134.914926 
L 111.033661 132.971076 
L 113.34526 123.139415 
L 114.115793 121.798842 
L 114.886326 121.407951 
L 115.656859 121.955999 
L 116.427392 124.300248 
L 117.968459 131.515321 
L 118.738992 133.630264 
L 119.509525 133.753834 
L 120.280058 131.839291 
L 123.36219 121.111338 
L 124.132723 119.259616 
L 124.903256 118.947469 
L 125.673789 120.241111 
L 126.444322 122.173679 
L 127.214855 123.780434 
L 127.985388 125.048354 
L 128.755921 125.73594 
L 129.526454 124.897377 
L 130.296987 122.63751 
L 131.06752 120.796823 
L 131.838053 120.66868 
L 133.37912 123.008708 
L 134.149653 122.756079 
L 134.920186 121.290282 
L 135.690719 121.214803 
L 136.461252 123.725823 
L 137.231785 126.751407 
L 138.002318 128.222949 
L 139.543384 130.159114 
L 140.313917 130.864509 
L 141.08445 131.182617 
L 141.854983 130.775943 
L 142.625516 129.474357 
L 143.396049 127.785961 
L 144.166582 125.50252 
L 144.937115 122.539608 
L 145.707648 120.231984 
L 146.478181 119.244043 
L 147.248714 118.886578 
L 148.019247 118.013052 
L 150.330847 112.581959 
L 151.871913 109.468834 
L 152.642446 107.042006 
L 153.412979 103.574495 
L 154.954045 94.67147 
L 156.495111 85.632211 
L 157.265644 83.18889 
L 158.036177 84.318426 
L 158.80671 88.736844 
L 160.347776 99.279658 
L 161.118309 102.033519 
L 161.888842 101.776834 
L 163.429909 97.694795 
L 164.200442 97.572352 
L 164.970975 99.39965 
L 165.741508 101.566618 
L 166.512041 102.589445 
L 167.282574 102.899539 
L 168.053107 103.903176 
L 168.82364 105.549146 
L 169.594173 105.848586 
L 170.364706 102.74156 
L 171.135239 97.596507 
L 171.905772 93.864771 
L 172.676305 91.34089 
L 173.446838 87.79039 
L 175.758437 74.578613 
L 177.299503 69.691574 
L 179.611103 59.426756 
L 181.152169 54.942961 
L 182.693235 48.563688 
L 183.463768 46.463871 
L 184.234301 43.889637 
L 185.004834 39.505047 
L 185.775367 33.937432 
L 187.316433 20.406195 
L 188.086966 17.15844 
L 188.857499 17.713117 
L 190.398565 21.634285 
L 191.169098 25.291575 
L 191.939631 31.051729 
L 194.251231 51.15232 
L 195.021764 55.087089 
L 195.792297 55.421169 
L 197.333363 51.250194 
L 198.103896 51.039117 
L 198.874429 52.60172 
L 199.644962 55.678268 
L 201.186028 64.649061 
L 201.956561 70.420557 
L 202.727094 77.572471 
L 203.497627 82.929036 
L 204.26816 83.714857 
L 205.038693 80.60295 
L 205.809226 76.948291 
L 206.579759 76.097657 
L 207.350292 78.263076 
L 209.661892 88.67647 
L 210.432425 90.1565 
L 211.202958 89.752827 
L 211.973491 87.582381 
L 213.514557 80.917609 
L 214.28509 79.031387 
L 215.055623 78.71095 
L 215.826156 78.887807 
L 216.596689 79.558707 
L 217.367222 80.706784 
L 218.137755 80.493385 
L 218.908288 79.02991 
L 219.678821 79.533177 
L 219.678821 79.533177 
" clip-path="url(#p138b0d02d2)" style="fill: none; stroke-dasharray: 1,1.65; stroke-dashoffset: 0; stroke: #e24a33; stroke-opacity: 0.236181"/>
   </g>
   <g id="line2d_24">
    <path d="M 67.113277 144.327239 
L 67.88381 144.251928 
L 68.654343 144.014067 
L 70.965942 142.785372 
L 72.507009 142.61583 
L 74.048075 142.657613 
L 75.589141 142.123303 
L 76.359674 141.656572 
L 77.130207 140.614434 
L 77.90074 139.306772 
L 78.671273 138.64444 
L 80.212339 138.629789 
L 80.982872 138.389832 
L 81.753405 138.572682 
L 83.294471 140.636744 
L 84.065004 140.910888 
L 84.835537 140.273272 
L 86.376603 138.090596 
L 87.147137 137.300298 
L 88.688203 136.718086 
L 89.458736 136.439305 
L 90.229269 136.422339 
L 91.770335 137.700161 
L 92.540868 137.842572 
L 93.311401 137.765084 
L 94.081934 137.96095 
L 94.852467 138.629783 
L 96.393533 140.55156 
L 97.164066 140.81911 
L 98.705132 139.833432 
L 99.475665 139.774121 
L 100.246198 139.949263 
L 101.016731 139.68495 
L 101.787264 138.360155 
L 102.557798 136.134434 
L 104.869397 128.4447 
L 105.63993 127.008294 
L 106.410463 126.974749 
L 108.722062 129.326224 
L 110.263128 131.225183 
L 111.033661 130.940008 
L 112.574727 128.174658 
L 113.34526 127.833566 
L 114.115793 129.667082 
L 114.886326 133.830587 
L 116.427392 144.1267 
L 117.197925 139.635664 
L 117.968459 136.99552 
L 118.738992 136.565402 
L 120.280058 138.428342 
L 121.050591 138.731946 
L 121.821124 139.530973 
L 123.36219 143.868352 
L 124.132723 141.699355 
L 124.903256 141.302204 
L 125.673789 142.132146 
L 126.444322 143.157005 
L 127.214855 143.853323 
L 127.985388 144.140229 
L 128.755921 144.242117 
L 129.526454 143.887548 
L 130.296987 142.793665 
L 131.838053 139.697201 
L 132.608586 138.107776 
L 134.920186 134.215113 
L 135.690719 133.679234 
L 136.461252 133.793866 
L 137.231785 133.497166 
L 138.002318 132.608791 
L 138.772851 132.349662 
L 139.543384 133.060517 
L 140.313917 134.249963 
L 141.08445 135.169336 
L 141.854983 135.234905 
L 142.625516 134.726381 
L 143.396049 134.037456 
L 144.166582 132.648896 
L 144.937115 130.67393 
L 145.707648 129.511443 
L 146.478181 129.780103 
L 147.248714 130.440919 
L 148.019247 129.82459 
L 148.789781 127.917108 
L 149.560314 126.425145 
L 150.330847 126.049592 
L 151.10138 126.044151 
L 151.871913 125.647427 
L 152.642446 124.478003 
L 153.412979 122.701921 
L 154.954045 118.742269 
L 156.495111 115.473476 
L 157.265644 113.192367 
L 158.036177 110.399994 
L 158.80671 108.477221 
L 159.577243 108.490535 
L 160.347776 109.729479 
L 161.118309 110.408764 
L 161.888842 109.754858 
L 163.429909 107.081795 
L 164.970975 104.735472 
L 167.282574 100.274628 
L 169.594173 95.907561 
L 171.135239 91.950474 
L 171.905772 91.225556 
L 172.676305 91.223206 
L 173.446838 90.182511 
L 174.217371 88.487422 
L 174.987904 87.518594 
L 175.758437 87.913166 
L 176.52897 89.014978 
L 177.299503 89.759397 
L 178.070036 89.99703 
L 178.84057 89.663962 
L 180.381636 87.476105 
L 181.152169 87.341678 
L 181.922702 88.405402 
L 183.463768 91.632392 
L 184.234301 92.201744 
L 185.004834 91.631823 
L 185.775367 89.872051 
L 187.316433 83.79197 
L 188.086966 81.634172 
L 188.857499 80.884845 
L 189.628032 81.196895 
L 190.398565 81.972416 
L 191.169098 83.15431 
L 191.939631 84.806517 
L 192.710164 86.813254 
L 193.480697 89.236453 
L 194.251231 92.035626 
L 195.021764 94.03376 
L 195.792297 94.161652 
L 196.56283 93.451394 
L 197.333363 93.925397 
L 198.103896 96.131443 
L 199.644962 102.133214 
L 200.415495 104.500049 
L 201.956561 107.561853 
L 203.497627 112.627573 
L 204.26816 113.733527 
L 205.038693 113.646685 
L 205.809226 113.853475 
L 207.350292 116.574189 
L 208.120825 117.401298 
L 208.891358 117.427855 
L 209.661892 116.923057 
L 211.202958 115.503419 
L 211.973491 114.649654 
L 212.744024 114.181452 
L 213.514557 114.532436 
L 214.28509 115.827912 
L 215.055623 117.439272 
L 215.826156 118.227825 
L 216.596689 118.722091 
L 218.137755 121.284752 
L 218.908288 121.411179 
L 219.678821 121.175555 
L 219.678821 121.175555 
" clip-path="url(#p138b0d02d2)" style="fill: none; stroke-dasharray: 1,1.65; stroke-dashoffset: 0; stroke: #348abd; stroke-opacity: 0.447236"/>
   </g>
   <g id="line2d_25">
    <path d="M 67.113277 144.327239 
L 68.654343 144.230844 
L 70.965942 143.483754 
L 71.736476 143.527061 
L 73.277542 143.966356 
L 74.048075 143.993926 
L 75.589141 143.487953 
L 76.359674 143.164744 
L 77.130207 142.684234 
L 77.90074 142.5211 
L 79.441806 144.007532 
L 80.212339 142.883982 
L 83.294471 140.245429 
L 84.065004 140.140688 
L 84.835537 140.591828 
L 87.147137 142.692344 
L 87.91767 143.655545 
L 88.688203 143.649516 
L 89.458736 142.288891 
L 90.229269 141.447462 
L 94.081934 140.003415 
L 94.852467 139.898354 
L 95.623 140.064828 
L 97.164066 140.813628 
L 98.705132 141.886963 
L 99.475665 142.033938 
L 100.246198 141.659991 
L 101.016731 140.932698 
L 102.557798 139.178089 
L 104.098864 137.601456 
L 106.410463 134.747786 
L 107.180996 134.311454 
L 107.951529 134.243224 
L 109.492595 134.655145 
L 110.263128 134.40227 
L 111.033661 133.186854 
L 112.574727 128.955932 
L 113.34526 127.528963 
L 114.115793 127.858906 
L 114.886326 130.145351 
L 115.656859 133.943723 
L 117.197925 142.495937 
L 117.968459 143.368045 
L 118.738992 142.112265 
L 119.509525 142.15533 
L 120.280058 142.45202 
L 121.050591 142.009772 
L 121.821124 141.193011 
L 122.591657 140.808042 
L 124.132723 141.095367 
L 124.903256 141.286959 
L 125.673789 141.848472 
L 127.214855 143.668221 
L 127.985388 144.076556 
L 130.296987 144.325378 
L 132.608586 142.790651 
L 134.149653 143.157556 
L 134.920186 143.516896 
L 135.690719 144.296623 
L 136.461252 143.521441 
L 137.231785 143.397974 
L 138.002318 143.97477 
L 138.772851 143.843461 
L 139.543384 142.167802 
L 140.313917 139.829456 
L 141.08445 138.091544 
L 141.854983 137.428401 
L 142.625516 137.729512 
L 143.396049 138.683908 
L 144.166582 140.346446 
L 144.937115 142.477836 
L 145.707648 143.988558 
L 146.478181 144.23639 
L 147.248714 143.817689 
L 148.019247 144.065376 
L 148.789781 143.211169 
L 149.560314 141.61839 
L 150.330847 140.841695 
L 151.10138 141.13529 
L 151.871913 141.757433 
L 152.642446 141.594998 
L 153.412979 140.289959 
L 156.495111 131.736843 
L 157.265644 129.431175 
L 158.036177 127.58912 
L 158.80671 127.078952 
L 160.347776 128.877049 
L 161.118309 128.858509 
L 163.429909 126.248304 
L 164.200442 125.277974 
L 165.741508 122.923769 
L 166.512041 122.153722 
L 167.282574 122.000331 
L 168.053107 122.370685 
L 169.594173 123.556468 
L 170.364706 123.605523 
L 171.135239 123.330422 
L 171.905772 123.206597 
L 172.676305 122.88785 
L 174.217371 120.921172 
L 174.987904 120.592758 
L 175.758437 121.458527 
L 178.070036 126.744427 
L 178.84057 127.254136 
L 179.611103 126.696974 
L 181.152169 124.647346 
L 182.693235 123.038847 
L 183.463768 123.040908 
L 184.234301 123.708607 
L 185.004834 124.155041 
L 185.775367 123.362523 
L 187.316433 119.228537 
L 188.086966 118.405555 
L 188.857499 118.534582 
L 191.939631 120.758683 
L 192.710164 121.592464 
L 193.480697 122.814807 
L 195.021764 126.135175 
L 195.792297 126.886054 
L 198.103896 127.705267 
L 198.874429 128.347908 
L 200.415495 130.2824 
L 201.186028 130.594672 
L 201.956561 130.027532 
L 203.497627 128.184958 
L 205.038693 125.467032 
L 205.809226 124.595938 
L 206.579759 124.348642 
L 208.120825 124.483363 
L 210.432425 124.215679 
L 211.973491 124.219297 
L 212.744024 124.108049 
L 213.514557 124.113595 
L 214.28509 124.42442 
L 215.055623 124.885686 
L 215.826156 125.193933 
L 216.596689 125.373092 
L 217.367222 125.686657 
L 218.137755 126.438219 
L 219.678821 128.80632 
L 219.678821 128.80632 
" clip-path="url(#p138b0d02d2)" style="fill: none; stroke-dasharray: 1,1.65; stroke-dashoffset: 0; stroke: #988ed5; stroke-opacity: 0.768844"/>
   </g>
   <g id="line2d_26">
    <path d="M 67.113277 144.327239 
L 69.424876 144.171568 
L 70.965942 144.116501 
L 72.507009 144.301327 
L 74.048075 144.179432 
L 77.90074 144.235682 
L 78.671273 143.816244 
L 81.753405 139.734359 
L 84.835537 136.706012 
L 86.376603 135.874765 
L 87.147137 135.639316 
L 87.91767 135.567905 
L 88.688203 135.749565 
L 89.458736 136.179346 
L 90.999802 137.480197 
L 93.311401 140.160953 
L 94.081934 140.550763 
L 94.852467 140.612708 
L 97.164066 140.105261 
L 98.705132 139.46001 
L 99.475665 139.416696 
L 100.246198 139.867415 
L 101.016731 140.669315 
L 102.557798 142.547863 
L 104.098864 143.960269 
L 104.869397 144.119067 
L 105.63993 143.697772 
L 106.410463 143.592503 
L 107.951529 144.218813 
L 108.722062 144.062655 
L 109.492595 143.699919 
L 110.263128 143.686033 
L 111.033661 144.175259 
L 112.574727 141.060353 
L 113.34526 139.985636 
L 114.115793 139.861407 
L 114.886326 140.631645 
L 117.197925 144.035622 
L 118.738992 143.833542 
L 119.509525 144.322846 
L 120.280058 143.903567 
L 121.821124 144.262325 
L 122.591657 144.187252 
L 123.36219 144.240895 
L 124.132723 144.069237 
L 128.755921 141.036018 
L 129.526454 140.885219 
L 130.296987 141.217566 
L 131.838053 142.861619 
L 132.608586 143.097352 
L 133.37912 142.46329 
L 135.690719 138.519937 
L 136.461252 137.997445 
L 137.231785 138.333624 
L 138.002318 139.223595 
L 138.772851 139.891894 
L 139.543384 139.938045 
L 141.08445 139.326913 
L 141.854983 139.414216 
L 144.166582 140.288068 
L 144.937115 140.939188 
L 146.478181 142.484595 
L 148.019247 143.436404 
L 148.789781 144.298828 
L 149.560314 143.628691 
L 150.330847 143.525148 
L 151.871913 144.207065 
L 152.642446 143.641731 
L 153.412979 143.548269 
L 154.183512 144.031589 
L 154.954045 144.211247 
L 155.724578 144.09013 
L 156.495111 143.763099 
L 157.265644 142.970969 
L 158.036177 141.931436 
L 158.80671 141.323004 
L 159.577243 141.39356 
L 160.347776 141.633188 
L 161.118309 141.637675 
L 163.429909 141.074396 
L 164.200442 140.999321 
L 165.741508 140.395522 
L 166.512041 140.696061 
L 167.282574 141.625509 
L 168.053107 142.804233 
L 168.82364 143.723681 
L 169.594173 143.996496 
L 170.364706 143.74866 
L 171.135239 143.344532 
L 173.446838 142.599321 
L 174.987904 141.749625 
L 175.758437 141.41217 
L 176.52897 141.469751 
L 177.299503 141.851956 
L 178.070036 141.954141 
L 178.84057 141.786569 
L 179.611103 141.958065 
L 180.381636 142.748128 
L 181.152169 144.048343 
L 181.922702 143.137796 
L 183.463768 140.639937 
L 184.234301 139.738897 
L 185.004834 139.344615 
L 185.775367 139.618618 
L 186.5459 140.351146 
L 187.316433 140.853308 
L 188.086966 140.841363 
L 189.628032 140.482754 
L 191.169098 140.556242 
L 191.939631 140.903644 
L 192.710164 141.447748 
L 193.480697 141.85214 
L 195.021764 141.939706 
L 195.792297 142.248111 
L 196.56283 143.032012 
L 197.333363 144.120547 
L 198.103896 143.620317 
L 199.644962 142.453688 
L 201.186028 141.537416 
L 201.956561 140.83505 
L 202.727094 140.310872 
L 204.26816 140.126013 
L 205.038693 139.780281 
L 206.579759 138.62459 
L 208.120825 137.897677 
L 208.891358 137.687594 
L 210.432425 137.618767 
L 211.202958 137.183692 
L 212.744024 135.748763 
L 213.514557 135.337257 
L 214.28509 135.465015 
L 215.055623 136.109434 
L 217.367222 139.00014 
L 218.908288 139.932195 
L 219.678821 139.954844 
L 219.678821 139.954844 
" clip-path="url(#p138b0d02d2)" style="fill: none; stroke: #ff0000; stroke-linecap: square"/>
   </g>
   <g id="patch_3">
    <path d="M 59.485 150.685679 
L 59.485 10.8 
" style="fill: none; stroke: #ffffff; stroke-linejoin: miter; stroke-linecap: square"/>
   </g>
   <g id="patch_4">
    <path d="M 227.307098 150.685679 
L 227.307098 10.8 
" style="fill: none; stroke: #ffffff; stroke-linejoin: miter; stroke-linecap: square"/>
   </g>
   <g id="patch_5">
    <path d="M 59.485 150.685679 
L 227.307098 150.685679 
" style="fill: none; stroke: #ffffff; stroke-linejoin: miter; stroke-linecap: square"/>
   </g>
   <g id="patch_6">
    <path d="M 59.485 10.8 
L 227.307098 10.8 
" style="fill: none; stroke: #ffffff; stroke-linejoin: miter; stroke-linecap: square"/>
   </g>
   <g id="legend_1">
    <g id="patch_7">
     <path d="M 65.085 75.9125 
L 187.565 75.9125 
Q 189.165 75.9125 189.165 74.3125 
L 189.165 16.4 
Q 189.165 14.8 187.565 14.8 
L 65.085 14.8 
Q 63.485 14.8 63.485 16.4 
L 63.485 74.3125 
Q 63.485 75.9125 65.085 75.9125 
z
" style="fill: #e5e5e5; opacity: 0.8; stroke: #cccccc; stroke-width: 0.5; stroke-linejoin: miter"/>
    </g>
    <g id="patch_8">
     <path d="M 66.685 24.07875 
L 82.685 24.07875 
L 82.685 18.47875 
L 66.685 18.47875 
z
" style="fill: #ffff00; stroke: #ffff00; stroke-width: 0.5; stroke-linejoin: miter"/>
    </g>
    <g id="text_14">
     <!-- $\sigma\, (N=8000)$ -->
     <g transform="translate(89.085 24.07875)scale(0.08 -0.08)">
      <defs>
       <path id="DejaVuSans-Oblique-3c3" d="M 2219 3044 
Q 1744 3044 1422 2700 
Q 1081 2341 969 1747 
Q 844 1119 1044 756 
Q 1241 397 1706 397 
Q 2166 397 2503 759 
Q 2844 1122 2966 1747 
Q 3075 2319 2881 2700 
Q 2700 3044 2219 3044 
z
M 2309 3503 
L 4219 3500 
L 4106 2925 
L 3463 2925 
Q 3706 2438 3575 1747 
Q 3406 888 2884 400 
Q 2359 -91 1609 -91 
Q 856 -91 525 400 
Q 194 888 363 1747 
Q 528 2609 1050 3097 
Q 1484 3503 2309 3503 
z
" transform="scale(0.015625)"/>
       <path id="DejaVuSans-28" d="M 1984 4856 
Q 1566 4138 1362 3434 
Q 1159 2731 1159 2009 
Q 1159 1288 1364 580 
Q 1569 -128 1984 -844 
L 1484 -844 
Q 1016 -109 783 600 
Q 550 1309 550 2009 
Q 550 2706 781 3412 
Q 1013 4119 1484 4856 
L 1984 4856 
z
" transform="scale(0.015625)"/>
       <path id="DejaVuSans-3d" d="M 678 2906 
L 4684 2906 
L 4684 2381 
L 678 2381 
L 678 2906 
z
M 678 1631 
L 4684 1631 
L 4684 1100 
L 678 1100 
L 678 1631 
z
" transform="scale(0.015625)"/>
       <path id="DejaVuSans-38" d="M 2034 2216 
Q 1584 2216 1326 1975 
Q 1069 1734 1069 1313 
Q 1069 891 1326 650 
Q 1584 409 2034 409 
Q 2484 409 2743 651 
Q 3003 894 3003 1313 
Q 3003 1734 2745 1975 
Q 2488 2216 2034 2216 
z
M 1403 2484 
Q 997 2584 770 2862 
Q 544 3141 544 3541 
Q 544 4100 942 4425 
Q 1341 4750 2034 4750 
Q 2731 4750 3128 4425 
Q 3525 4100 3525 3541 
Q 3525 3141 3298 2862 
Q 3072 2584 2669 2484 
Q 3125 2378 3379 2068 
Q 3634 1759 3634 1313 
Q 3634 634 3220 271 
Q 2806 -91 2034 -91 
Q 1263 -91 848 271 
Q 434 634 434 1313 
Q 434 1759 690 2068 
Q 947 2378 1403 2484 
z
M 1172 3481 
Q 1172 3119 1398 2916 
Q 1625 2713 2034 2713 
Q 2441 2713 2670 2916 
Q 2900 3119 2900 3481 
Q 2900 3844 2670 4047 
Q 2441 4250 2034 4250 
Q 1625 4250 1398 4047 
Q 1172 3844 1172 3481 
z
" transform="scale(0.015625)"/>
       <path id="DejaVuSans-30" d="M 2034 4250 
Q 1547 4250 1301 3770 
Q 1056 3291 1056 2328 
Q 1056 1369 1301 889 
Q 1547 409 2034 409 
Q 2525 409 2770 889 
Q 3016 1369 3016 2328 
Q 3016 3291 2770 3770 
Q 2525 4250 2034 4250 
z
M 2034 4750 
Q 2819 4750 3233 4129 
Q 3647 3509 3647 2328 
Q 3647 1150 3233 529 
Q 2819 -91 2034 -91 
Q 1250 -91 836 529 
Q 422 1150 422 2328 
Q 422 3509 836 4129 
Q 1250 4750 2034 4750 
z
" transform="scale(0.015625)"/>
       <path id="DejaVuSans-29" d="M 513 4856 
L 1013 4856 
Q 1481 4119 1714 3412 
Q 1947 2706 1947 2009 
Q 1947 1309 1714 600 
Q 1481 -109 1013 -844 
L 513 -844 
Q 928 -128 1133 580 
Q 1338 1288 1338 2009 
Q 1338 2731 1133 3434 
Q 928 4138 513 4856 
z
" transform="scale(0.015625)"/>
      </defs>
      <use xlink:href="#DejaVuSans-Oblique-3c3" transform="translate(0 0.125)"/>
      <use xlink:href="#DejaVuSans-28" transform="translate(79.614583 0.125)"/>
      <use xlink:href="#DejaVuSans-Oblique-4e" transform="translate(118.628254 0.125)"/>
      <use xlink:href="#DejaVuSans-3d" transform="translate(212.915364 0.125)"/>
      <use xlink:href="#DejaVuSans-38" transform="translate(316.186848 0.125)"/>
      <use xlink:href="#DejaVuSans-30" transform="translate(379.809895 0.125)"/>
      <use xlink:href="#DejaVuSans-30" transform="translate(443.432942 0.125)"/>
      <use xlink:href="#DejaVuSans-30" transform="translate(507.055989 0.125)"/>
      <use xlink:href="#DejaVuSans-29" transform="translate(570.679036 0.125)"/>
     </g>
    </g>
    <g id="line2d_27">
     <path d="M 66.685 33.02125 
L 74.685 33.02125 
L 82.685 33.02125 
" style="fill: none; stroke-dasharray: 1,1.65; stroke-dashoffset: 0; stroke: #e24a33; stroke-opacity: 0.236181"/>
    </g>
    <g id="text_15">
     <!-- $N=2000$  $\Delta&lt;\sigma = 23.6\%$ -->
     <g transform="translate(89.085 35.82125)scale(0.08 -0.08)">
      <defs>
       <path id="DejaVuSans-32" d="M 1228 531 
L 3431 531 
L 3431 0 
L 469 0 
L 469 531 
Q 828 903 1448 1529 
Q 2069 2156 2228 2338 
Q 2531 2678 2651 2914 
Q 2772 3150 2772 3378 
Q 2772 3750 2511 3984 
Q 2250 4219 1831 4219 
Q 1534 4219 1204 4116 
Q 875 4013 500 3803 
L 500 4441 
Q 881 4594 1212 4672 
Q 1544 4750 1819 4750 
Q 2544 4750 2975 4387 
Q 3406 4025 3406 3419 
Q 3406 3131 3298 2873 
Q 3191 2616 2906 2266 
Q 2828 2175 2409 1742 
Q 1991 1309 1228 531 
z
" transform="scale(0.015625)"/>
       <path id="DejaVuSerif-20" transform="scale(0.015625)"/>
       <path id="DejaVuSans-394" d="M 2188 4044 
L 906 525 
L 3472 525 
L 2188 4044 
z
M 50 0 
L 1831 4666 
L 2547 4666 
L 4325 0 
L 50 0 
z
" transform="scale(0.015625)"/>
       <path id="DejaVuSans-3c" d="M 4684 3150 
L 1459 2003 
L 4684 863 
L 4684 294 
L 678 1747 
L 678 2266 
L 4684 3719 
L 4684 3150 
z
" transform="scale(0.015625)"/>
       <path id="DejaVuSans-33" d="M 2597 2516 
Q 3050 2419 3304 2112 
Q 3559 1806 3559 1356 
Q 3559 666 3084 287 
Q 2609 -91 1734 -91 
Q 1441 -91 1130 -33 
Q 819 25 488 141 
L 488 750 
Q 750 597 1062 519 
Q 1375 441 1716 441 
Q 2309 441 2620 675 
Q 2931 909 2931 1356 
Q 2931 1769 2642 2001 
Q 2353 2234 1838 2234 
L 1294 2234 
L 1294 2753 
L 1863 2753 
Q 2328 2753 2575 2939 
Q 2822 3125 2822 3475 
Q 2822 3834 2567 4026 
Q 2313 4219 1838 4219 
Q 1578 4219 1281 4162 
Q 984 4106 628 3988 
L 628 4550 
Q 988 4650 1302 4700 
Q 1616 4750 1894 4750 
Q 2613 4750 3031 4423 
Q 3450 4097 3450 3541 
Q 3450 3153 3228 2886 
Q 3006 2619 2597 2516 
z
" transform="scale(0.015625)"/>
       <path id="DejaVuSans-2e" d="M 684 794 
L 1344 794 
L 1344 0 
L 684 0 
L 684 794 
z
" transform="scale(0.015625)"/>
       <path id="DejaVuSans-36" d="M 2113 2584 
Q 1688 2584 1439 2293 
Q 1191 2003 1191 1497 
Q 1191 994 1439 701 
Q 1688 409 2113 409 
Q 2538 409 2786 701 
Q 3034 994 3034 1497 
Q 3034 2003 2786 2293 
Q 2538 2584 2113 2584 
z
M 3366 4563 
L 3366 3988 
Q 3128 4100 2886 4159 
Q 2644 4219 2406 4219 
Q 1781 4219 1451 3797 
Q 1122 3375 1075 2522 
Q 1259 2794 1537 2939 
Q 1816 3084 2150 3084 
Q 2853 3084 3261 2657 
Q 3669 2231 3669 1497 
Q 3669 778 3244 343 
Q 2819 -91 2113 -91 
Q 1303 -91 875 529 
Q 447 1150 447 2328 
Q 447 3434 972 4092 
Q 1497 4750 2381 4750 
Q 2619 4750 2861 4703 
Q 3103 4656 3366 4563 
z
" transform="scale(0.015625)"/>
       <path id="DejaVuSans-25" d="M 4653 2053 
Q 4381 2053 4226 1822 
Q 4072 1591 4072 1178 
Q 4072 772 4226 539 
Q 4381 306 4653 306 
Q 4919 306 5073 539 
Q 5228 772 5228 1178 
Q 5228 1588 5073 1820 
Q 4919 2053 4653 2053 
z
M 4653 2450 
Q 5147 2450 5437 2106 
Q 5728 1763 5728 1178 
Q 5728 594 5436 251 
Q 5144 -91 4653 -91 
Q 4153 -91 3862 251 
Q 3572 594 3572 1178 
Q 3572 1766 3864 2108 
Q 4156 2450 4653 2450 
z
M 1428 4353 
Q 1159 4353 1004 4120 
Q 850 3888 850 3481 
Q 850 3069 1003 2837 
Q 1156 2606 1428 2606 
Q 1700 2606 1854 2837 
Q 2009 3069 2009 3481 
Q 2009 3884 1853 4118 
Q 1697 4353 1428 4353 
z
M 4250 4750 
L 4750 4750 
L 1831 -91 
L 1331 -91 
L 4250 4750 
z
M 1428 4750 
Q 1922 4750 2215 4408 
Q 2509 4066 2509 3481 
Q 2509 2891 2217 2550 
Q 1925 2209 1428 2209 
Q 931 2209 642 2551 
Q 353 2894 353 3481 
Q 353 4063 643 4406 
Q 934 4750 1428 4750 
z
" transform="scale(0.015625)"/>
      </defs>
      <use xlink:href="#DejaVuSans-Oblique-4e" transform="translate(0 0.78125)"/>
      <use xlink:href="#DejaVuSans-3d" transform="translate(94.287109 0.78125)"/>
      <use xlink:href="#DejaVuSans-32" transform="translate(197.558594 0.78125)"/>
      <use xlink:href="#DejaVuSans-30" transform="translate(261.181641 0.78125)"/>
      <use xlink:href="#DejaVuSans-30" transform="translate(324.804688 0.78125)"/>
      <use xlink:href="#DejaVuSans-30" transform="translate(388.427734 0.78125)"/>
      <use xlink:href="#DejaVuSerif-20" transform="translate(452.050781 0.78125)"/>
      <use xlink:href="#DejaVuSerif-20" transform="translate(483.837891 0.78125)"/>
      <use xlink:href="#DejaVuSans-394" transform="translate(515.625 0.78125)"/>
      <use xlink:href="#DejaVuSans-3c" transform="translate(603.515625 0.78125)"/>
      <use xlink:href="#DejaVuSans-Oblique-3c3" transform="translate(706.787109 0.78125)"/>
      <use xlink:href="#DejaVuSans-3d" transform="translate(789.648438 0.78125)"/>
      <use xlink:href="#DejaVuSans-32" transform="translate(892.919922 0.78125)"/>
      <use xlink:href="#DejaVuSans-33" transform="translate(956.542969 0.78125)"/>
      <use xlink:href="#DejaVuSans-2e" transform="translate(1020.166016 0.78125)"/>
      <use xlink:href="#DejaVuSans-36" transform="translate(1051.953125 0.78125)"/>
      <use xlink:href="#DejaVuSans-25" transform="translate(1115.576172 0.78125)"/>
     </g>
    </g>
    <g id="line2d_28">
     <path d="M 66.685 44.76375 
L 74.685 44.76375 
L 82.685 44.76375 
" style="fill: none; stroke-dasharray: 1,1.65; stroke-dashoffset: 0; stroke: #348abd; stroke-opacity: 0.447236"/>
    </g>
    <g id="text_16">
     <!-- $N=4000$  $\Delta&lt;\sigma = 44.7\%$ -->
     <g transform="translate(89.085 47.56375)scale(0.08 -0.08)">
      <defs>
       <path id="DejaVuSans-34" d="M 2419 4116 
L 825 1625 
L 2419 1625 
L 2419 4116 
z
M 2253 4666 
L 3047 4666 
L 3047 1625 
L 3713 1625 
L 3713 1100 
L 3047 1100 
L 3047 0 
L 2419 0 
L 2419 1100 
L 313 1100 
L 313 1709 
L 2253 4666 
z
" transform="scale(0.015625)"/>
       <path id="DejaVuSans-37" d="M 525 4666 
L 3525 4666 
L 3525 4397 
L 1831 0 
L 1172 0 
L 2766 4134 
L 525 4134 
L 525 4666 
z
" transform="scale(0.015625)"/>
      </defs>
      <use xlink:href="#DejaVuSans-Oblique-4e" transform="translate(0 0.78125)"/>
      <use xlink:href="#DejaVuSans-3d" transform="translate(94.287109 0.78125)"/>
      <use xlink:href="#DejaVuSans-34" transform="translate(197.558594 0.78125)"/>
      <use xlink:href="#DejaVuSans-30" transform="translate(261.181641 0.78125)"/>
      <use xlink:href="#DejaVuSans-30" transform="translate(324.804688 0.78125)"/>
      <use xlink:href="#DejaVuSans-30" transform="translate(388.427734 0.78125)"/>
      <use xlink:href="#DejaVuSerif-20" transform="translate(452.050781 0.78125)"/>
      <use xlink:href="#DejaVuSerif-20" transform="translate(483.837891 0.78125)"/>
      <use xlink:href="#DejaVuSans-394" transform="translate(515.625 0.78125)"/>
      <use xlink:href="#DejaVuSans-3c" transform="translate(603.515625 0.78125)"/>
      <use xlink:href="#DejaVuSans-Oblique-3c3" transform="translate(706.787109 0.78125)"/>
      <use xlink:href="#DejaVuSans-3d" transform="translate(789.648438 0.78125)"/>
      <use xlink:href="#DejaVuSans-34" transform="translate(892.919922 0.78125)"/>
      <use xlink:href="#DejaVuSans-34" transform="translate(956.542969 0.78125)"/>
      <use xlink:href="#DejaVuSans-2e" transform="translate(1020.166016 0.78125)"/>
      <use xlink:href="#DejaVuSans-37" transform="translate(1044.203125 0.78125)"/>
      <use xlink:href="#DejaVuSans-25" transform="translate(1107.826172 0.78125)"/>
     </g>
    </g>
    <g id="line2d_29">
     <path d="M 66.685 56.50625 
L 74.685 56.50625 
L 82.685 56.50625 
" style="fill: none; stroke-dasharray: 1,1.65; stroke-dashoffset: 0; stroke: #988ed5; stroke-opacity: 0.768844"/>
    </g>
    <g id="text_17">
     <!-- $N=6000$  $\Delta&lt;\sigma = 76.9\%$ -->
     <g transform="translate(89.085 59.30625)scale(0.08 -0.08)">
      <defs>
       <path id="DejaVuSans-39" d="M 703 97 
L 703 672 
Q 941 559 1184 500 
Q 1428 441 1663 441 
Q 2288 441 2617 861 
Q 2947 1281 2994 2138 
Q 2813 1869 2534 1725 
Q 2256 1581 1919 1581 
Q 1219 1581 811 2004 
Q 403 2428 403 3163 
Q 403 3881 828 4315 
Q 1253 4750 1959 4750 
Q 2769 4750 3195 4129 
Q 3622 3509 3622 2328 
Q 3622 1225 3098 567 
Q 2575 -91 1691 -91 
Q 1453 -91 1209 -44 
Q 966 3 703 97 
z
M 1959 2075 
Q 2384 2075 2632 2365 
Q 2881 2656 2881 3163 
Q 2881 3666 2632 3958 
Q 2384 4250 1959 4250 
Q 1534 4250 1286 3958 
Q 1038 3666 1038 3163 
Q 1038 2656 1286 2365 
Q 1534 2075 1959 2075 
z
" transform="scale(0.015625)"/>
      </defs>
      <use xlink:href="#DejaVuSans-Oblique-4e" transform="translate(0 0.78125)"/>
      <use xlink:href="#DejaVuSans-3d" transform="translate(94.287109 0.78125)"/>
      <use xlink:href="#DejaVuSans-36" transform="translate(197.558594 0.78125)"/>
      <use xlink:href="#DejaVuSans-30" transform="translate(261.181641 0.78125)"/>
      <use xlink:href="#DejaVuSans-30" transform="translate(324.804688 0.78125)"/>
      <use xlink:href="#DejaVuSans-30" transform="translate(388.427734 0.78125)"/>
      <use xlink:href="#DejaVuSerif-20" transform="translate(452.050781 0.78125)"/>
      <use xlink:href="#DejaVuSerif-20" transform="translate(483.837891 0.78125)"/>
      <use xlink:href="#DejaVuSans-394" transform="translate(515.625 0.78125)"/>
      <use xlink:href="#DejaVuSans-3c" transform="translate(603.515625 0.78125)"/>
      <use xlink:href="#DejaVuSans-Oblique-3c3" transform="translate(706.787109 0.78125)"/>
      <use xlink:href="#DejaVuSans-3d" transform="translate(789.648438 0.78125)"/>
      <use xlink:href="#DejaVuSans-37" transform="translate(892.919922 0.78125)"/>
      <use xlink:href="#DejaVuSans-36" transform="translate(956.542969 0.78125)"/>
      <use xlink:href="#DejaVuSans-2e" transform="translate(1020.166016 0.78125)"/>
      <use xlink:href="#DejaVuSans-39" transform="translate(1051.953125 0.78125)"/>
      <use xlink:href="#DejaVuSans-25" transform="translate(1115.576172 0.78125)"/>
     </g>
    </g>
    <g id="line2d_30">
     <path d="M 66.685 68.24875 
L 74.685 68.24875 
L 82.685 68.24875 
" style="fill: none; stroke: #ff0000; stroke-linecap: square"/>
    </g>
    <g id="text_18">
     <!-- $N=8000$  $\Delta&lt;\sigma = 97.0\%$ -->
     <g transform="translate(89.085 71.04875)scale(0.08 -0.08)">
      <use xlink:href="#DejaVuSans-Oblique-4e" transform="translate(0 0.78125)"/>
      <use xlink:href="#DejaVuSans-3d" transform="translate(94.287109 0.78125)"/>
      <use xlink:href="#DejaVuSans-38" transform="translate(197.558594 0.78125)"/>
      <use xlink:href="#DejaVuSans-30" transform="translate(261.181641 0.78125)"/>
      <use xlink:href="#DejaVuSans-30" transform="translate(324.804688 0.78125)"/>
      <use xlink:href="#DejaVuSans-30" transform="translate(388.427734 0.78125)"/>
      <use xlink:href="#DejaVuSerif-20" transform="translate(452.050781 0.78125)"/>
      <use xlink:href="#DejaVuSerif-20" transform="translate(483.837891 0.78125)"/>
      <use xlink:href="#DejaVuSans-394" transform="translate(515.625 0.78125)"/>
      <use xlink:href="#DejaVuSans-3c" transform="translate(603.515625 0.78125)"/>
      <use xlink:href="#DejaVuSans-Oblique-3c3" transform="translate(706.787109 0.78125)"/>
      <use xlink:href="#DejaVuSans-3d" transform="translate(789.648438 0.78125)"/>
      <use xlink:href="#DejaVuSans-39" transform="translate(892.919922 0.78125)"/>
      <use xlink:href="#DejaVuSans-37" transform="translate(956.542969 0.78125)"/>
      <use xlink:href="#DejaVuSans-2e" transform="translate(1020.166016 0.78125)"/>
      <use xlink:href="#DejaVuSans-30" transform="translate(1051.953125 0.78125)"/>
      <use xlink:href="#DejaVuSans-25" transform="translate(1115.576172 0.78125)"/>
     </g>
    </g>
   </g>
  </g>
 </g>
 <defs>
  <clipPath id="p138b0d02d2">
   <rect x="59.485" y="10.8" width="167.822098" height="139.885679"/>
  </clipPath>
 </defs>
</svg>
