<?xml version="1.0" encoding="utf-8" standalone="no"?>
<!DOCTYPE svg PUBLIC "-//W3C//DTD SVG 1.1//EN"
  "http://www.w3.org/Graphics/SVG/1.1/DTD/svg11.dtd">
<svg xmlns:xlink="http://www.w3.org/1999/xlink" width="238.107098pt" height="190.485679pt" viewBox="0 0 238.107098 190.485679" xmlns="http://www.w3.org/2000/svg" version="1.1">
 <metadata>
  <rdf:RDF xmlns:dc="http://purl.org/dc/elements/1.1/" xmlns:cc="http://creativecommons.org/ns#" xmlns:rdf="http://www.w3.org/1999/02/22-rdf-syntax-ns#">
   <cc:Work>
    <dc:type rdf:resource="http://purl.org/dc/dcmitype/StillImage"/>
    <dc:date>1980-01-01T00:00:00+00:00</dc:date>
    <dc:format>image/svg+xml</dc:format>
    <dc:creator>
     <cc:Agent>
      <dc:title>Matplotlib v3.5.1, https://matplotlib.org/</dc:title>
     </cc:Agent>
    </dc:creator>
   </cc:Work>
  </rdf:RDF>
 </metadata>
 <defs>
  <style type="text/css">*{stroke-linejoin: round; stroke-linecap: butt}</style>
 </defs>
 <g id="figure_1">
  <g id="patch_1">
   <path d="M 0 190.485679 
L 238.107098 190.485679 
L 238.107098 0 
L 0 0 
z
" style="fill: #ffffff"/>
  </g>
  <g id="axes_1">
   <g id="patch_2">
    <path d="M 45.425 150.685679 
L 227.307098 150.685679 
L 227.307098 10.8 
L 45.425 10.8 
z
" style="fill: #e5e5e5"/>
   </g>
   <g id="matplotlib.axis_1">
    <g id="xtick_1">
     <g id="line2d_1">
      <path d="M 53.692368 150.685679 
L 53.692368 10.8 
" clip-path="url(#p978873b845)" style="fill: none; stroke: #ffffff; stroke-width: 0.8; stroke-linecap: square"/>
     </g>
     <g id="line2d_2">
      <defs>
       <path id="mb0516a9c73" d="M 0 0 
L 0 3.5 
" style="stroke: #555555; stroke-width: 0.8"/>
      </defs>
      <g>
       <use xlink:href="#mb0516a9c73" x="53.692368" y="150.685679" style="fill: #555555; stroke: #555555; stroke-width: 0.8"/>
      </g>
     </g>
     <g id="text_1">
      <!-- 0 -->
      <g style="fill: #555555" transform="translate(51.147368 163.764429)scale(0.08 -0.08)">
       <defs>
        <path id="DejaVuSerif-30" d="M 2034 219 
Q 2513 219 2750 744 
Q 2988 1269 2988 2328 
Q 2988 3391 2750 3916 
Q 2513 4441 2034 4441 
Q 1556 4441 1318 3916 
Q 1081 3391 1081 2328 
Q 1081 1269 1318 744 
Q 1556 219 2034 219 
z
M 2034 -91 
Q 1275 -91 848 546 
Q 422 1184 422 2328 
Q 422 3475 848 4112 
Q 1275 4750 2034 4750 
Q 2797 4750 3222 4112 
Q 3647 3475 3647 2328 
Q 3647 1184 3222 546 
Q 2797 -91 2034 -91 
z
" transform="scale(0.015625)"/>
       </defs>
       <use xlink:href="#DejaVuSerif-30"/>
      </g>
     </g>
    </g>
    <g id="xtick_2">
     <g id="line2d_3">
      <path d="M 86.761841 150.685679 
L 86.761841 10.8 
" clip-path="url(#p978873b845)" style="fill: none; stroke: #ffffff; stroke-width: 0.8; stroke-linecap: square"/>
     </g>
     <g id="line2d_4">
      <g>
       <use xlink:href="#mb0516a9c73" x="86.761841" y="150.685679" style="fill: #555555; stroke: #555555; stroke-width: 0.8"/>
      </g>
     </g>
     <g id="text_2">
      <!-- 10 -->
      <g style="fill: #555555" transform="translate(81.671841 163.764429)scale(0.08 -0.08)">
       <defs>
        <path id="DejaVuSerif-31" d="M 909 0 
L 909 331 
L 1722 331 
L 1722 4213 
L 781 3603 
L 781 4013 
L 1919 4750 
L 2350 4750 
L 2350 331 
L 3163 331 
L 3163 0 
L 909 0 
z
" transform="scale(0.015625)"/>
       </defs>
       <use xlink:href="#DejaVuSerif-31"/>
       <use xlink:href="#DejaVuSerif-30" x="63.623047"/>
      </g>
     </g>
    </g>
    <g id="xtick_3">
     <g id="line2d_5">
      <path d="M 119.831313 150.685679 
L 119.831313 10.8 
" clip-path="url(#p978873b845)" style="fill: none; stroke: #ffffff; stroke-width: 0.8; stroke-linecap: square"/>
     </g>
     <g id="line2d_6">
      <g>
       <use xlink:href="#mb0516a9c73" x="119.831313" y="150.685679" style="fill: #555555; stroke: #555555; stroke-width: 0.8"/>
      </g>
     </g>
     <g id="text_3">
      <!-- 20 -->
      <g style="fill: #555555" transform="translate(114.741313 163.764429)scale(0.08 -0.08)">
       <defs>
        <path id="DejaVuSerif-32" d="M 819 3553 
L 469 3553 
L 469 4384 
Q 803 4563 1142 4656 
Q 1481 4750 1806 4750 
Q 2534 4750 2956 4397 
Q 3378 4044 3378 3438 
Q 3378 2753 2422 1800 
Q 2347 1728 2309 1691 
L 1131 513 
L 3078 513 
L 3078 1088 
L 3444 1088 
L 3444 0 
L 434 0 
L 434 341 
L 1850 1753 
Q 2319 2222 2519 2614 
Q 2719 3006 2719 3438 
Q 2719 3909 2473 4175 
Q 2228 4441 1797 4441 
Q 1350 4441 1106 4219 
Q 863 3997 819 3553 
z
" transform="scale(0.015625)"/>
       </defs>
       <use xlink:href="#DejaVuSerif-32"/>
       <use xlink:href="#DejaVuSerif-30" x="63.623047"/>
      </g>
     </g>
    </g>
    <g id="xtick_4">
     <g id="line2d_7">
      <path d="M 152.900785 150.685679 
L 152.900785 10.8 
" clip-path="url(#p978873b845)" style="fill: none; stroke: #ffffff; stroke-width: 0.8; stroke-linecap: square"/>
     </g>
     <g id="line2d_8">
      <g>
       <use xlink:href="#mb0516a9c73" x="152.900785" y="150.685679" style="fill: #555555; stroke: #555555; stroke-width: 0.8"/>
      </g>
     </g>
     <g id="text_4">
      <!-- 30 -->
      <g style="fill: #555555" transform="translate(147.810785 163.764429)scale(0.08 -0.08)">
       <defs>
        <path id="DejaVuSerif-33" d="M 622 4469 
Q 988 4606 1323 4678 
Q 1659 4750 1953 4750 
Q 2638 4750 3022 4454 
Q 3406 4159 3406 3634 
Q 3406 3213 3140 2930 
Q 2875 2647 2388 2547 
Q 2963 2466 3280 2130 
Q 3597 1794 3597 1259 
Q 3597 606 3158 257 
Q 2719 -91 1894 -91 
Q 1528 -91 1179 -12 
Q 831 66 488 225 
L 488 1131 
L 838 1131 
Q 869 681 1141 450 
Q 1413 219 1906 219 
Q 2384 219 2661 495 
Q 2938 772 2938 1253 
Q 2938 1803 2653 2086 
Q 2369 2369 1819 2369 
L 1522 2369 
L 1522 2688 
L 1678 2688 
Q 2225 2688 2498 2914 
Q 2772 3141 2772 3597 
Q 2772 4006 2547 4223 
Q 2322 4441 1900 4441 
Q 1478 4441 1245 4241 
Q 1013 4041 972 3647 
L 622 3647 
L 622 4469 
z
" transform="scale(0.015625)"/>
       </defs>
       <use xlink:href="#DejaVuSerif-33"/>
       <use xlink:href="#DejaVuSerif-30" x="63.623047"/>
      </g>
     </g>
    </g>
    <g id="xtick_5">
     <g id="line2d_9">
      <path d="M 185.970258 150.685679 
L 185.970258 10.8 
" clip-path="url(#p978873b845)" style="fill: none; stroke: #ffffff; stroke-width: 0.8; stroke-linecap: square"/>
     </g>
     <g id="line2d_10">
      <g>
       <use xlink:href="#mb0516a9c73" x="185.970258" y="150.685679" style="fill: #555555; stroke: #555555; stroke-width: 0.8"/>
      </g>
     </g>
     <g id="text_5">
      <!-- 40 -->
      <g style="fill: #555555" transform="translate(180.880258 163.764429)scale(0.08 -0.08)">
       <defs>
        <path id="DejaVuSerif-34" d="M 2234 1581 
L 2234 4063 
L 641 1581 
L 2234 1581 
z
M 3609 0 
L 1484 0 
L 1484 331 
L 2234 331 
L 2234 1247 
L 197 1247 
L 197 1588 
L 2241 4750 
L 2859 4750 
L 2859 1581 
L 3750 1581 
L 3750 1247 
L 2859 1247 
L 2859 331 
L 3609 331 
L 3609 0 
z
" transform="scale(0.015625)"/>
       </defs>
       <use xlink:href="#DejaVuSerif-34"/>
       <use xlink:href="#DejaVuSerif-30" x="63.623047"/>
      </g>
     </g>
    </g>
    <g id="xtick_6">
     <g id="line2d_11">
      <path d="M 219.03973 150.685679 
L 219.03973 10.8 
" clip-path="url(#p978873b845)" style="fill: none; stroke: #ffffff; stroke-width: 0.8; stroke-linecap: square"/>
     </g>
     <g id="line2d_12">
      <g>
       <use xlink:href="#mb0516a9c73" x="219.03973" y="150.685679" style="fill: #555555; stroke: #555555; stroke-width: 0.8"/>
      </g>
     </g>
     <g id="text_6">
      <!-- 50 -->
      <g style="fill: #555555" transform="translate(213.94973 163.764429)scale(0.08 -0.08)">
       <defs>
        <path id="DejaVuSerif-35" d="M 3219 4666 
L 3219 4153 
L 1081 4153 
L 1081 2816 
Q 1244 2928 1461 2984 
Q 1678 3041 1947 3041 
Q 2703 3041 3140 2622 
Q 3578 2203 3578 1478 
Q 3578 738 3136 323 
Q 2694 -91 1894 -91 
Q 1572 -91 1234 -12 
Q 897 66 544 225 
L 544 1131 
L 897 1131 
Q 925 688 1179 453 
Q 1434 219 1894 219 
Q 2388 219 2653 544 
Q 2919 869 2919 1478 
Q 2919 2084 2655 2407 
Q 2391 2731 1894 2731 
Q 1613 2731 1398 2631 
Q 1184 2531 1019 2322 
L 750 2322 
L 750 4666 
L 3219 4666 
z
" transform="scale(0.015625)"/>
       </defs>
       <use xlink:href="#DejaVuSerif-35"/>
       <use xlink:href="#DejaVuSerif-30" x="63.623047"/>
      </g>
     </g>
    </g>
    <g id="text_7">
     <!-- $τ$ -->
     <g style="fill: #555555" transform="translate(133.316049 177.026616)scale(0.1 -0.1)">
      <defs>
       <path id="DejaVuSans-Oblique-3c4" d="M 2103 638 
Q 2188 488 2525 488 
L 2800 488 
L 2706 0 
L 2363 0 
Q 1800 0 1600 300 
Q 1403 606 1534 1269 
L 1856 2925 
L 541 2925 
L 653 3500 
L 3881 3500 
L 3769 2925 
L 2444 2925 
L 2113 1234 
Q 2025 781 2103 638 
z
" transform="scale(0.015625)"/>
      </defs>
      <use xlink:href="#DejaVuSans-Oblique-3c4" transform="translate(0 0.3125)"/>
     </g>
    </g>
   </g>
   <g id="matplotlib.axis_2">
    <g id="ytick_1">
     <g id="line2d_13">
      <path d="M 45.425 144.327239 
L 227.307098 144.327239 
" clip-path="url(#p978873b845)" style="fill: none; stroke: #ffffff; stroke-width: 0.8; stroke-linecap: square"/>
     </g>
     <g id="line2d_14">
      <defs>
       <path id="m760f820c20" d="M 0 0 
L -3.5 0 
" style="stroke: #555555; stroke-width: 0.8"/>
      </defs>
      <g>
       <use xlink:href="#m760f820c20" x="45.425" y="144.327239" style="fill: #555555; stroke: #555555; stroke-width: 0.8"/>
      </g>
     </g>
     <g id="text_8">
      <!-- 0.0000 -->
      <g style="fill: #555555" transform="translate(10.4325 147.366614)scale(0.08 -0.08)">
       <defs>
        <path id="DejaVuSerif-2e" d="M 603 325 
Q 603 500 722 622 
Q 841 744 1019 744 
Q 1191 744 1312 622 
Q 1434 500 1434 325 
Q 1434 153 1312 31 
Q 1191 -91 1019 -91 
Q 841 -91 722 29 
Q 603 150 603 325 
z
" transform="scale(0.015625)"/>
       </defs>
       <use xlink:href="#DejaVuSerif-30"/>
       <use xlink:href="#DejaVuSerif-2e" x="63.623047"/>
       <use xlink:href="#DejaVuSerif-30" x="95.410156"/>
       <use xlink:href="#DejaVuSerif-30" x="159.033203"/>
       <use xlink:href="#DejaVuSerif-30" x="222.65625"/>
       <use xlink:href="#DejaVuSerif-30" x="286.279297"/>
      </g>
     </g>
    </g>
    <g id="ytick_2">
     <g id="line2d_15">
      <path d="M 45.425 126.623056 
L 227.307098 126.623056 
" clip-path="url(#p978873b845)" style="fill: none; stroke: #ffffff; stroke-width: 0.8; stroke-linecap: square"/>
     </g>
     <g id="line2d_16">
      <g>
       <use xlink:href="#m760f820c20" x="45.425" y="126.623056" style="fill: #555555; stroke: #555555; stroke-width: 0.8"/>
      </g>
     </g>
     <g id="text_9">
      <!-- 0.0005 -->
      <g style="fill: #555555" transform="translate(10.4325 129.662431)scale(0.08 -0.08)">
       <use xlink:href="#DejaVuSerif-30"/>
       <use xlink:href="#DejaVuSerif-2e" x="63.623047"/>
       <use xlink:href="#DejaVuSerif-30" x="95.410156"/>
       <use xlink:href="#DejaVuSerif-30" x="159.033203"/>
       <use xlink:href="#DejaVuSerif-30" x="222.65625"/>
       <use xlink:href="#DejaVuSerif-35" x="286.279297"/>
      </g>
     </g>
    </g>
    <g id="ytick_3">
     <g id="line2d_17">
      <path d="M 45.425 108.918874 
L 227.307098 108.918874 
" clip-path="url(#p978873b845)" style="fill: none; stroke: #ffffff; stroke-width: 0.8; stroke-linecap: square"/>
     </g>
     <g id="line2d_18">
      <g>
       <use xlink:href="#m760f820c20" x="45.425" y="108.918874" style="fill: #555555; stroke: #555555; stroke-width: 0.8"/>
      </g>
     </g>
     <g id="text_10">
      <!-- 0.0010 -->
      <g style="fill: #555555" transform="translate(10.4325 111.958249)scale(0.08 -0.08)">
       <use xlink:href="#DejaVuSerif-30"/>
       <use xlink:href="#DejaVuSerif-2e" x="63.623047"/>
       <use xlink:href="#DejaVuSerif-30" x="95.410156"/>
       <use xlink:href="#DejaVuSerif-30" x="159.033203"/>
       <use xlink:href="#DejaVuSerif-31" x="222.65625"/>
       <use xlink:href="#DejaVuSerif-30" x="286.279297"/>
      </g>
     </g>
    </g>
    <g id="ytick_4">
     <g id="line2d_19">
      <path d="M 45.425 91.214691 
L 227.307098 91.214691 
" clip-path="url(#p978873b845)" style="fill: none; stroke: #ffffff; stroke-width: 0.8; stroke-linecap: square"/>
     </g>
     <g id="line2d_20">
      <g>
       <use xlink:href="#m760f820c20" x="45.425" y="91.214691" style="fill: #555555; stroke: #555555; stroke-width: 0.8"/>
      </g>
     </g>
     <g id="text_11">
      <!-- 0.0015 -->
      <g style="fill: #555555" transform="translate(10.4325 94.254066)scale(0.08 -0.08)">
       <use xlink:href="#DejaVuSerif-30"/>
       <use xlink:href="#DejaVuSerif-2e" x="63.623047"/>
       <use xlink:href="#DejaVuSerif-30" x="95.410156"/>
       <use xlink:href="#DejaVuSerif-30" x="159.033203"/>
       <use xlink:href="#DejaVuSerif-31" x="222.65625"/>
       <use xlink:href="#DejaVuSerif-35" x="286.279297"/>
      </g>
     </g>
    </g>
    <g id="ytick_5">
     <g id="line2d_21">
      <path d="M 45.425 73.510509 
L 227.307098 73.510509 
" clip-path="url(#p978873b845)" style="fill: none; stroke: #ffffff; stroke-width: 0.8; stroke-linecap: square"/>
     </g>
     <g id="line2d_22">
      <g>
       <use xlink:href="#m760f820c20" x="45.425" y="73.510509" style="fill: #555555; stroke: #555555; stroke-width: 0.8"/>
      </g>
     </g>
     <g id="text_12">
      <!-- 0.0020 -->
      <g style="fill: #555555" transform="translate(10.4325 76.549884)scale(0.08 -0.08)">
       <use xlink:href="#DejaVuSerif-30"/>
       <use xlink:href="#DejaVuSerif-2e" x="63.623047"/>
       <use xlink:href="#DejaVuSerif-30" x="95.410156"/>
       <use xlink:href="#DejaVuSerif-30" x="159.033203"/>
       <use xlink:href="#DejaVuSerif-32" x="222.65625"/>
       <use xlink:href="#DejaVuSerif-30" x="286.279297"/>
      </g>
     </g>
    </g>
    <g id="ytick_6">
     <g id="line2d_23">
      <path d="M 45.425 55.806326 
L 227.307098 55.806326 
" clip-path="url(#p978873b845)" style="fill: none; stroke: #ffffff; stroke-width: 0.8; stroke-linecap: square"/>
     </g>
     <g id="line2d_24">
      <g>
       <use xlink:href="#m760f820c20" x="45.425" y="55.806326" style="fill: #555555; stroke: #555555; stroke-width: 0.8"/>
      </g>
     </g>
     <g id="text_13">
      <!-- 0.0025 -->
      <g style="fill: #555555" transform="translate(10.4325 58.845701)scale(0.08 -0.08)">
       <use xlink:href="#DejaVuSerif-30"/>
       <use xlink:href="#DejaVuSerif-2e" x="63.623047"/>
       <use xlink:href="#DejaVuSerif-30" x="95.410156"/>
       <use xlink:href="#DejaVuSerif-30" x="159.033203"/>
       <use xlink:href="#DejaVuSerif-32" x="222.65625"/>
       <use xlink:href="#DejaVuSerif-35" x="286.279297"/>
      </g>
     </g>
    </g>
    <g id="ytick_7">
     <g id="line2d_25">
      <path d="M 45.425 38.102144 
L 227.307098 38.102144 
" clip-path="url(#p978873b845)" style="fill: none; stroke: #ffffff; stroke-width: 0.8; stroke-linecap: square"/>
     </g>
     <g id="line2d_26">
      <g>
       <use xlink:href="#m760f820c20" x="45.425" y="38.102144" style="fill: #555555; stroke: #555555; stroke-width: 0.8"/>
      </g>
     </g>
     <g id="text_14">
      <!-- 0.0030 -->
      <g style="fill: #555555" transform="translate(10.4325 41.141519)scale(0.08 -0.08)">
       <use xlink:href="#DejaVuSerif-30"/>
       <use xlink:href="#DejaVuSerif-2e" x="63.623047"/>
       <use xlink:href="#DejaVuSerif-30" x="95.410156"/>
       <use xlink:href="#DejaVuSerif-30" x="159.033203"/>
       <use xlink:href="#DejaVuSerif-33" x="222.65625"/>
       <use xlink:href="#DejaVuSerif-30" x="286.279297"/>
      </g>
     </g>
    </g>
    <g id="ytick_8">
     <g id="line2d_27">
      <path d="M 45.425 20.397961 
L 227.307098 20.397961 
" clip-path="url(#p978873b845)" style="fill: none; stroke: #ffffff; stroke-width: 0.8; stroke-linecap: square"/>
     </g>
     <g id="line2d_28">
      <g>
       <use xlink:href="#m760f820c20" x="45.425" y="20.397961" style="fill: #555555; stroke: #555555; stroke-width: 0.8"/>
      </g>
     </g>
     <g id="text_15">
      <!-- 0.0035 -->
      <g style="fill: #555555" transform="translate(10.4325 23.437336)scale(0.08 -0.08)">
       <use xlink:href="#DejaVuSerif-30"/>
       <use xlink:href="#DejaVuSerif-2e" x="63.623047"/>
       <use xlink:href="#DejaVuSerif-30" x="95.410156"/>
       <use xlink:href="#DejaVuSerif-30" x="159.033203"/>
       <use xlink:href="#DejaVuSerif-33" x="222.65625"/>
       <use xlink:href="#DejaVuSerif-35" x="286.279297"/>
      </g>
     </g>
    </g>
   </g>
   <g id="PolyCollection_1">
    <defs>
     <path id="mdb701af17e" d="M 53.692368 -46.15844 
L 53.692368 -46.15844 
L 54.024391 -46.15844 
L 54.356414 -46.15844 
L 54.688437 -46.15844 
L 55.020459 -46.15844 
L 55.352482 -46.15844 
L 55.684505 -46.15844 
L 56.016528 -46.15844 
L 56.348551 -46.15844 
L 56.680573 -46.15844 
L 57.012596 -46.15844 
L 57.344619 -46.15844 
L 57.676642 -46.15844 
L 58.008665 -46.15844 
L 58.340688 -46.15844 
L 58.67271 -46.15844 
L 59.004733 -46.15844 
L 59.336756 -46.15844 
L 59.668779 -46.15844 
L 60.000802 -46.15844 
L 60.332824 -46.15844 
L 60.664847 -46.15844 
L 60.99687 -46.15844 
L 61.328893 -46.15844 
L 61.660916 -46.15844 
L 61.992938 -46.15844 
L 62.324961 -46.15844 
L 62.656984 -46.15844 
L 62.989007 -46.15844 
L 63.32103 -46.15844 
L 63.653053 -46.15844 
L 63.985075 -46.15844 
L 64.317098 -46.15844 
L 64.649121 -46.15844 
L 64.981144 -46.15844 
L 65.313167 -46.15844 
L 65.645189 -46.15844 
L 65.977212 -46.15844 
L 66.309235 -46.15844 
L 66.641258 -46.15844 
L 66.973281 -46.15844 
L 67.305304 -46.15844 
L 67.637326 -46.15844 
L 67.969349 -46.15844 
L 68.301372 -46.15844 
L 68.633395 -46.15844 
L 68.965418 -46.15844 
L 69.29744 -46.15844 
L 69.629463 -46.15844 
L 69.961486 -46.15844 
L 70.293509 -46.15844 
L 70.625532 -46.15844 
L 70.957555 -46.15844 
L 71.289577 -46.15844 
L 71.6216 -46.15844 
L 71.953623 -46.15844 
L 72.285646 -46.15844 
L 72.617669 -46.15844 
L 72.949691 -46.15844 
L 73.281714 -46.15844 
L 73.613737 -46.15844 
L 73.94576 -46.15844 
L 74.277783 -46.15844 
L 74.609805 -46.15844 
L 74.941828 -46.15844 
L 75.273851 -46.15844 
L 75.605874 -46.15844 
L 75.937897 -46.15844 
L 76.26992 -46.15844 
L 76.601942 -46.15844 
L 76.933965 -46.15844 
L 77.265988 -46.15844 
L 77.598011 -46.15844 
L 77.930034 -46.15844 
L 78.262056 -46.15844 
L 78.594079 -46.15844 
L 78.926102 -46.15844 
L 79.258125 -46.15844 
L 79.590148 -46.15844 
L 79.922171 -46.15844 
L 80.254193 -46.15844 
L 80.586216 -46.15844 
L 80.918239 -46.15844 
L 81.250262 -46.15844 
L 81.582285 -46.15844 
L 81.914307 -46.15844 
L 82.24633 -46.15844 
L 82.578353 -46.15844 
L 82.910376 -46.15844 
L 83.242399 -46.15844 
L 83.574422 -46.15844 
L 83.906444 -46.15844 
L 84.238467 -46.15844 
L 84.57049 -46.15844 
L 84.902513 -46.15844 
L 85.234536 -46.15844 
L 85.566558 -46.15844 
L 85.898581 -46.15844 
L 86.230604 -46.15844 
L 86.562627 -46.15844 
L 86.89465 -46.15844 
L 87.226672 -46.15844 
L 87.558695 -46.15844 
L 87.890718 -46.15844 
L 88.222741 -46.15844 
L 88.554764 -46.15844 
L 88.886787 -46.15844 
L 89.218809 -46.15844 
L 89.550832 -46.15844 
L 89.882855 -46.15844 
L 90.214878 -46.15844 
L 90.546901 -46.15844 
L 90.878923 -46.15844 
L 91.210946 -46.15844 
L 91.542969 -46.15844 
L 91.874992 -46.15844 
L 92.207015 -46.15844 
L 92.539038 -46.15844 
L 92.87106 -46.15844 
L 93.203083 -46.15844 
L 93.535106 -46.15844 
L 93.867129 -46.15844 
L 94.199152 -46.15844 
L 94.531174 -46.15844 
L 94.863197 -46.15844 
L 95.19522 -46.15844 
L 95.527243 -46.15844 
L 95.859266 -46.15844 
L 96.191289 -46.15844 
L 96.523311 -46.15844 
L 96.855334 -46.15844 
L 97.187357 -46.15844 
L 97.51938 -46.15844 
L 97.851403 -46.15844 
L 98.183425 -46.15844 
L 98.515448 -46.15844 
L 98.847471 -46.15844 
L 99.179494 -46.15844 
L 99.511517 -46.15844 
L 99.843539 -46.15844 
L 100.175562 -46.15844 
L 100.507585 -46.15844 
L 100.839608 -46.15844 
L 101.171631 -46.15844 
L 101.503654 -46.15844 
L 101.835676 -46.15844 
L 102.167699 -46.15844 
L 102.499722 -46.15844 
L 102.831745 -46.15844 
L 103.163768 -46.15844 
L 103.49579 -46.15844 
L 103.827813 -46.15844 
L 104.159836 -46.15844 
L 104.491859 -46.15844 
L 104.823882 -46.15844 
L 105.155905 -46.15844 
L 105.487927 -46.15844 
L 105.81995 -46.15844 
L 106.151973 -46.15844 
L 106.483996 -46.15844 
L 106.816019 -46.15844 
L 107.148041 -46.15844 
L 107.480064 -46.15844 
L 107.812087 -46.15844 
L 108.14411 -46.15844 
L 108.476133 -46.15844 
L 108.808155 -46.15844 
L 109.140178 -46.15844 
L 109.472201 -46.15844 
L 109.804224 -46.15844 
L 110.136247 -46.15844 
L 110.46827 -46.15844 
L 110.800292 -46.15844 
L 111.132315 -46.15844 
L 111.464338 -46.15844 
L 111.796361 -46.15844 
L 112.128384 -46.15844 
L 112.460406 -46.15844 
L 112.792429 -46.15844 
L 113.124452 -46.15844 
L 113.456475 -46.15844 
L 113.788498 -46.15844 
L 114.120521 -46.15844 
L 114.452543 -46.15844 
L 114.784566 -46.15844 
L 115.116589 -46.15844 
L 115.448612 -46.15844 
L 115.780635 -46.15844 
L 116.112657 -46.15844 
L 116.44468 -46.15844 
L 116.776703 -46.15844 
L 117.108726 -46.15844 
L 117.440749 -46.15844 
L 117.772772 -46.15844 
L 118.104794 -46.15844 
L 118.436817 -46.15844 
L 118.76884 -46.15844 
L 119.100863 -46.15844 
L 119.432886 -46.15844 
L 119.764908 -46.15844 
L 120.096931 -46.15844 
L 120.428954 -46.15844 
L 120.760977 -46.15844 
L 121.093 -46.15844 
L 121.425022 -46.15844 
L 121.757045 -46.15844 
L 122.089068 -46.15844 
L 122.421091 -46.15844 
L 122.753114 -46.15844 
L 123.085137 -46.15844 
L 123.417159 -46.15844 
L 123.749182 -46.15844 
L 124.081205 -46.15844 
L 124.413228 -46.15844 
L 124.745251 -46.15844 
L 125.077273 -46.15844 
L 125.409296 -46.15844 
L 125.741319 -46.15844 
L 126.073342 -46.15844 
L 126.405365 -46.15844 
L 126.737388 -46.15844 
L 127.06941 -46.15844 
L 127.401433 -46.15844 
L 127.733456 -46.15844 
L 128.065479 -46.15844 
L 128.397502 -46.15844 
L 128.729524 -46.15844 
L 129.061547 -46.15844 
L 129.39357 -46.15844 
L 129.725593 -46.15844 
L 130.057616 -46.15844 
L 130.389639 -46.15844 
L 130.721661 -46.15844 
L 131.053684 -46.15844 
L 131.385707 -46.15844 
L 131.71773 -46.15844 
L 132.049753 -46.15844 
L 132.381775 -46.15844 
L 132.713798 -46.15844 
L 133.045821 -46.15844 
L 133.377844 -46.15844 
L 133.709867 -46.15844 
L 134.041889 -46.15844 
L 134.373912 -46.15844 
L 134.705935 -46.15844 
L 135.037958 -46.15844 
L 135.369981 -46.15844 
L 135.702004 -46.15844 
L 136.034026 -46.15844 
L 136.366049 -46.15844 
L 136.698072 -46.15844 
L 137.030095 -46.15844 
L 137.362118 -46.15844 
L 137.69414 -46.15844 
L 138.026163 -46.15844 
L 138.358186 -46.15844 
L 138.690209 -46.15844 
L 139.022232 -46.15844 
L 139.354255 -46.15844 
L 139.686277 -46.15844 
L 140.0183 -46.15844 
L 140.350323 -46.15844 
L 140.682346 -46.15844 
L 141.014369 -46.15844 
L 141.346391 -46.15844 
L 141.678414 -46.15844 
L 142.010437 -46.15844 
L 142.34246 -46.15844 
L 142.674483 -46.15844 
L 143.006506 -46.15844 
L 143.338528 -46.15844 
L 143.670551 -46.15844 
L 144.002574 -46.15844 
L 144.334597 -46.15844 
L 144.66662 -46.15844 
L 144.998642 -46.15844 
L 145.330665 -46.15844 
L 145.662688 -46.15844 
L 145.994711 -46.15844 
L 146.326734 -46.15844 
L 146.658756 -46.15844 
L 146.990779 -46.15844 
L 147.322802 -46.15844 
L 147.654825 -46.15844 
L 147.986848 -46.15844 
L 148.318871 -46.15844 
L 148.650893 -46.15844 
L 148.982916 -46.15844 
L 149.314939 -46.15844 
L 149.646962 -46.15844 
L 149.978985 -46.15844 
L 150.311007 -46.15844 
L 150.64303 -46.15844 
L 150.975053 -46.15844 
L 151.307076 -46.15844 
L 151.639099 -46.15844 
L 151.971122 -46.15844 
L 152.303144 -46.15844 
L 152.635167 -46.15844 
L 152.96719 -46.15844 
L 153.299213 -46.15844 
L 153.631236 -46.15844 
L 153.963258 -46.15844 
L 154.295281 -46.15844 
L 154.627304 -46.15844 
L 154.959327 -46.15844 
L 155.29135 -46.15844 
L 155.623372 -46.15844 
L 155.955395 -46.15844 
L 156.287418 -46.15844 
L 156.619441 -46.15844 
L 156.951464 -46.15844 
L 157.283487 -46.15844 
L 157.615509 -46.15844 
L 157.947532 -46.15844 
L 158.279555 -46.15844 
L 158.611578 -46.15844 
L 158.943601 -46.15844 
L 159.275623 -46.15844 
L 159.607646 -46.15844 
L 159.939669 -46.15844 
L 160.271692 -46.15844 
L 160.603715 -46.15844 
L 160.935738 -46.15844 
L 161.26776 -46.15844 
L 161.599783 -46.15844 
L 161.931806 -46.15844 
L 162.263829 -46.15844 
L 162.595852 -46.15844 
L 162.927874 -46.15844 
L 163.259897 -46.15844 
L 163.59192 -46.15844 
L 163.923943 -46.15844 
L 164.255966 -46.15844 
L 164.587989 -46.15844 
L 164.920011 -46.15844 
L 165.252034 -46.15844 
L 165.584057 -46.15844 
L 165.91608 -46.15844 
L 166.248103 -46.15844 
L 166.580125 -46.15844 
L 166.912148 -46.15844 
L 167.244171 -46.15844 
L 167.576194 -46.15844 
L 167.908217 -46.15844 
L 168.240239 -46.15844 
L 168.572262 -46.15844 
L 168.904285 -46.15844 
L 169.236308 -46.15844 
L 169.568331 -46.15844 
L 169.900354 -46.15844 
L 170.232376 -46.15844 
L 170.564399 -46.15844 
L 170.896422 -46.15844 
L 171.228445 -46.15844 
L 171.560468 -46.15844 
L 171.89249 -46.15844 
L 172.224513 -46.15844 
L 172.556536 -46.15844 
L 172.888559 -46.15844 
L 173.220582 -46.15844 
L 173.552605 -46.15844 
L 173.884627 -46.15844 
L 174.21665 -46.15844 
L 174.548673 -46.15844 
L 174.880696 -46.15844 
L 175.212719 -46.15844 
L 175.544741 -46.15844 
L 175.876764 -46.15844 
L 176.208787 -46.15844 
L 176.54081 -46.15844 
L 176.872833 -46.15844 
L 177.204856 -46.15844 
L 177.536878 -46.15844 
L 177.868901 -46.15844 
L 178.200924 -46.15844 
L 178.532947 -46.15844 
L 178.86497 -46.15844 
L 179.196992 -46.15844 
L 179.529015 -46.15844 
L 179.861038 -46.15844 
L 180.193061 -46.15844 
L 180.525084 -46.15844 
L 180.857106 -46.15844 
L 181.189129 -46.15844 
L 181.521152 -46.15844 
L 181.853175 -46.15844 
L 182.185198 -46.15844 
L 182.517221 -46.15844 
L 182.849243 -46.15844 
L 183.181266 -46.15844 
L 183.513289 -46.15844 
L 183.845312 -46.15844 
L 184.177335 -46.15844 
L 184.509357 -46.15844 
L 184.84138 -46.15844 
L 185.173403 -46.15844 
L 185.505426 -46.15844 
L 185.837449 -46.15844 
L 186.169472 -46.15844 
L 186.501494 -46.15844 
L 186.833517 -46.15844 
L 187.16554 -46.15844 
L 187.497563 -46.15844 
L 187.829586 -46.15844 
L 188.161608 -46.15844 
L 188.493631 -46.15844 
L 188.825654 -46.15844 
L 189.157677 -46.15844 
L 189.4897 -46.15844 
L 189.821723 -46.15844 
L 190.153745 -46.15844 
L 190.485768 -46.15844 
L 190.817791 -46.15844 
L 191.149814 -46.15844 
L 191.481837 -46.15844 
L 191.813859 -46.15844 
L 192.145882 -46.15844 
L 192.477905 -46.15844 
L 192.809928 -46.15844 
L 193.141951 -46.15844 
L 193.473973 -46.15844 
L 193.805996 -46.15844 
L 194.138019 -46.15844 
L 194.470042 -46.15844 
L 194.802065 -46.15844 
L 195.134088 -46.15844 
L 195.46611 -46.15844 
L 195.798133 -46.15844 
L 196.130156 -46.15844 
L 196.462179 -46.15844 
L 196.794202 -46.15844 
L 197.126224 -46.15844 
L 197.458247 -46.15844 
L 197.79027 -46.15844 
L 198.122293 -46.15844 
L 198.454316 -46.15844 
L 198.786339 -46.15844 
L 199.118361 -46.15844 
L 199.450384 -46.15844 
L 199.782407 -46.15844 
L 200.11443 -46.15844 
L 200.446453 -46.15844 
L 200.778475 -46.15844 
L 201.110498 -46.15844 
L 201.442521 -46.15844 
L 201.774544 -46.15844 
L 202.106567 -46.15844 
L 202.438589 -46.15844 
L 202.770612 -46.15844 
L 203.102635 -46.15844 
L 203.434658 -46.15844 
L 203.766681 -46.15844 
L 204.098704 -46.15844 
L 204.430726 -46.15844 
L 204.762749 -46.15844 
L 205.094772 -46.15844 
L 205.426795 -46.15844 
L 205.758818 -46.15844 
L 206.09084 -46.15844 
L 206.422863 -46.15844 
L 206.754886 -46.15844 
L 207.086909 -46.15844 
L 207.418932 -46.15844 
L 207.750955 -46.15844 
L 208.082977 -46.15844 
L 208.415 -46.15844 
L 208.747023 -46.15844 
L 209.079046 -46.15844 
L 209.411069 -46.15844 
L 209.743091 -46.15844 
L 210.075114 -46.15844 
L 210.407137 -46.15844 
L 210.73916 -46.15844 
L 211.071183 -46.15844 
L 211.403206 -46.15844 
L 211.735228 -46.15844 
L 212.067251 -46.15844 
L 212.399274 -46.15844 
L 212.731297 -46.15844 
L 213.06332 -46.15844 
L 213.395342 -46.15844 
L 213.727365 -46.15844 
L 214.059388 -46.15844 
L 214.391411 -46.15844 
L 214.723434 -46.15844 
L 215.055456 -46.15844 
L 215.387479 -46.15844 
L 215.719502 -46.15844 
L 216.051525 -46.15844 
L 216.383548 -46.15844 
L 216.715571 -46.15844 
L 217.047593 -46.15844 
L 217.379616 -46.15844 
L 217.711639 -46.15844 
L 218.043662 -46.15844 
L 218.375685 -46.15844 
L 218.707707 -46.15844 
L 219.03973 -46.15844 
L 219.03973 -126.112542 
L 219.03973 -126.112542 
L 218.707707 -126.108568 
L 218.375685 -126.07663 
L 218.043662 -125.962202 
L 217.711639 -125.783335 
L 217.379616 -125.641739 
L 217.047593 -125.605941 
L 216.715571 -125.634244 
L 216.383548 -125.537628 
L 216.051525 -125.241159 
L 215.719502 -124.957402 
L 215.387479 -124.838481 
L 215.055456 -124.859693 
L 214.723434 -124.95542 
L 214.391411 -125.061957 
L 214.059388 -125.122712 
L 213.727365 -125.103257 
L 213.395342 -125.0083 
L 213.06332 -124.855617 
L 212.731297 -124.687615 
L 212.399274 -124.571318 
L 212.067251 -124.548188 
L 211.735228 -124.532906 
L 211.403206 -124.488594 
L 211.071183 -124.45803 
L 210.73916 -124.419562 
L 210.407137 -124.280674 
L 210.075114 -124.052966 
L 209.743091 -123.877738 
L 209.411069 -123.829684 
L 209.079046 -123.864844 
L 208.747023 -123.903485 
L 208.415 -123.902625 
L 208.082977 -123.920586 
L 207.750955 -124.015546 
L 207.418932 -124.130057 
L 207.086909 -124.159738 
L 206.754886 -124.065116 
L 206.422863 -123.928714 
L 206.09084 -123.932473 
L 205.758818 -124.067529 
L 205.426795 -124.207572 
L 205.094772 -124.367006 
L 204.762749 -124.643478 
L 204.430726 -125.017291 
L 204.098704 -125.367233 
L 203.766681 -125.651624 
L 203.434658 -125.838671 
L 203.102635 -125.915412 
L 202.770612 -126.026226 
L 202.438589 -126.222992 
L 202.106567 -126.321213 
L 201.774544 -126.144369 
L 201.442521 -125.705668 
L 201.110498 -125.109332 
L 200.778475 -124.492902 
L 200.446453 -123.979035 
L 200.11443 -123.59225 
L 199.782407 -123.339295 
L 199.450384 -123.220476 
L 199.118361 -123.143523 
L 198.786339 -123.023004 
L 198.454316 -122.815443 
L 198.122293 -122.52144 
L 197.79027 -122.247522 
L 197.458247 -122.09585 
L 197.126224 -122.059625 
L 196.794202 -122.096973 
L 196.462179 -122.184956 
L 196.130156 -122.292847 
L 195.798133 -122.38044 
L 195.46611 -122.431319 
L 195.134088 -122.446257 
L 194.802065 -122.448162 
L 194.470042 -122.430851 
L 194.138019 -122.385683 
L 193.805996 -122.318306 
L 193.473973 -122.226844 
L 193.141951 -122.096151 
L 192.809928 -121.980166 
L 192.477905 -121.936202 
L 192.145882 -121.942545 
L 191.813859 -122.019066 
L 191.481837 -122.178722 
L 191.149814 -122.320052 
L 190.817791 -122.342124 
L 190.485768 -122.237788 
L 190.153745 -122.11484 
L 189.821723 -122.181129 
L 189.4897 -122.486566 
L 189.157677 -122.829569 
L 188.825654 -123.029586 
L 188.493631 -123.034564 
L 188.161608 -122.867738 
L 187.829586 -122.552913 
L 187.497563 -122.213233 
L 187.16554 -121.990618 
L 186.833517 -121.879013 
L 186.501494 -121.809686 
L 186.169472 -121.784598 
L 185.837449 -121.825969 
L 185.505426 -121.897488 
L 185.173403 -121.963453 
L 184.84138 -122.051503 
L 184.509357 -122.204778 
L 184.177335 -122.452898 
L 183.845312 -122.737375 
L 183.513289 -122.94037 
L 183.181266 -123.035299 
L 182.849243 -123.045718 
L 182.517221 -122.980643 
L 182.185198 -122.900399 
L 181.853175 -122.888102 
L 181.521152 -122.974271 
L 181.189129 -123.151491 
L 180.857106 -123.319912 
L 180.525084 -123.309226 
L 180.193061 -123.049141 
L 179.861038 -122.617651 
L 179.529015 -122.149354 
L 179.196992 -121.789947 
L 178.86497 -121.652331 
L 178.532947 -121.74325 
L 178.200924 -121.931618 
L 177.868901 -122.097503 
L 177.536878 -122.223896 
L 177.204856 -122.383423 
L 176.872833 -122.654239 
L 176.54081 -123.039821 
L 176.208787 -123.490582 
L 175.876764 -123.876827 
L 175.544741 -124.092077 
L 175.212719 -124.158919 
L 174.880696 -124.065133 
L 174.548673 -123.764345 
L 174.21665 -123.343728 
L 173.884627 -122.879899 
L 173.552605 -122.361511 
L 173.220582 -121.817731 
L 172.888559 -121.31461 
L 172.556536 -120.901333 
L 172.224513 -120.585592 
L 171.89249 -120.448264 
L 171.560468 -120.531333 
L 171.228445 -120.729977 
L 170.896422 -121.013443 
L 170.564399 -121.400369 
L 170.232376 -121.790647 
L 169.900354 -122.035988 
L 169.568331 -122.102751 
L 169.236308 -122.043424 
L 168.904285 -121.951687 
L 168.572262 -121.90286 
L 168.240239 -121.875217 
L 167.908217 -121.764154 
L 167.576194 -121.520038 
L 167.244171 -121.181992 
L 166.912148 -120.826388 
L 166.580125 -120.546672 
L 166.248103 -120.349739 
L 165.91608 -120.241173 
L 165.584057 -120.292977 
L 165.252034 -120.481945 
L 164.920011 -120.619332 
L 164.587989 -120.570604 
L 164.255966 -120.34791 
L 163.923943 -120.103487 
L 163.59192 -119.963129 
L 163.259897 -119.976149 
L 162.927874 -120.120107 
L 162.595852 -120.275684 
L 162.263829 -120.352266 
L 161.931806 -120.34412 
L 161.599783 -120.247736 
L 161.26776 -120.097121 
L 160.935738 -119.967075 
L 160.603715 -119.920117 
L 160.271692 -119.953832 
L 159.939669 -120.000969 
L 159.607646 -119.991458 
L 159.275623 -119.911389 
L 158.943601 -119.809964 
L 158.611578 -119.771492 
L 158.279555 -119.775082 
L 157.947532 -119.644976 
L 157.615509 -119.292347 
L 157.283487 -118.842683 
L 156.951464 -118.447116 
L 156.619441 -118.054496 
L 156.287418 -117.669561 
L 155.955395 -117.406704 
L 155.623372 -117.277721 
L 155.29135 -117.227597 
L 154.959327 -117.211892 
L 154.627304 -117.232882 
L 154.295281 -117.266709 
L 153.963258 -117.278937 
L 153.631236 -117.353649 
L 153.299213 -117.57673 
L 152.96719 -117.86476 
L 152.635167 -118.060137 
L 152.303144 -118.106967 
L 151.971122 -118.0565 
L 151.639099 -118.024565 
L 151.307076 -118.064394 
L 150.975053 -118.082768 
L 150.64303 -117.999175 
L 150.311007 -117.846519 
L 149.978985 -117.700856 
L 149.646962 -117.610025 
L 149.314939 -117.566536 
L 148.982916 -117.496661 
L 148.650893 -117.333261 
L 148.318871 -117.075369 
L 147.986848 -116.75735 
L 147.654825 -116.398772 
L 147.322802 -116.043143 
L 146.990779 -115.780182 
L 146.658756 -115.648673 
L 146.326734 -115.610778 
L 145.994711 -115.65131 
L 145.662688 -115.782316 
L 145.330665 -115.948644 
L 144.998642 -116.101837 
L 144.66662 -116.238804 
L 144.334597 -116.354719 
L 144.002574 -116.455225 
L 143.670551 -116.574453 
L 143.338528 -116.712483 
L 143.006506 -116.832849 
L 142.674483 -116.946894 
L 142.34246 -117.030131 
L 142.010437 -117.021697 
L 141.678414 -116.868789 
L 141.346391 -116.668345 
L 141.014369 -116.568876 
L 140.682346 -116.544728 
L 140.350323 -116.521419 
L 140.0183 -116.504162 
L 139.686277 -116.515503 
L 139.354255 -116.510316 
L 139.022232 -116.468095 
L 138.690209 -116.457717 
L 138.358186 -116.514391 
L 138.026163 -116.621527 
L 137.69414 -116.77582 
L 137.362118 -116.94746 
L 137.030095 -117.038546 
L 136.698072 -116.967061 
L 136.366049 -116.775747 
L 136.034026 -116.574434 
L 135.702004 -116.403084 
L 135.369981 -116.272131 
L 135.037958 -116.153458 
L 134.705935 -116.013979 
L 134.373912 -115.84634 
L 134.041889 -115.673703 
L 133.709867 -115.513285 
L 133.377844 -115.300473 
L 133.045821 -114.973233 
L 132.713798 -114.609332 
L 132.381775 -114.257359 
L 132.049753 -113.905581 
L 131.71773 -113.614115 
L 131.385707 -113.469719 
L 131.053684 -113.491549 
L 130.721661 -113.611801 
L 130.389639 -113.777172 
L 130.057616 -114.004476 
L 129.725593 -114.262994 
L 129.39357 -114.430134 
L 129.061547 -114.511356 
L 128.729524 -114.559799 
L 128.397502 -114.511739 
L 128.065479 -114.318534 
L 127.733456 -114.023406 
L 127.401433 -113.694582 
L 127.06941 -113.349047 
L 126.737388 -112.951146 
L 126.405365 -112.489064 
L 126.073342 -112.011667 
L 125.741319 -111.584301 
L 125.409296 -111.284416 
L 125.077273 -111.132007 
L 124.745251 -111.082367 
L 124.413228 -111.085298 
L 124.081205 -111.09514 
L 123.749182 -111.125204 
L 123.417159 -111.189463 
L 123.085137 -111.244302 
L 122.753114 -111.266089 
L 122.421091 -111.304602 
L 122.089068 -111.386963 
L 121.757045 -111.440945 
L 121.425022 -111.341192 
L 121.093 -111.017791 
L 120.760977 -110.488758 
L 120.428954 -109.901616 
L 120.096931 -109.432614 
L 119.764908 -109.137426 
L 119.432886 -108.935506 
L 119.100863 -108.697338 
L 118.76884 -108.450758 
L 118.436817 -108.348728 
L 118.104794 -108.473339 
L 117.772772 -108.764344 
L 117.440749 -109.069375 
L 117.108726 -109.216656 
L 116.776703 -109.130074 
L 116.44468 -108.929941 
L 116.112657 -108.83934 
L 115.780635 -108.905354 
L 115.448612 -108.969064 
L 115.116589 -108.865919 
L 114.784566 -108.628189 
L 114.452543 -108.355832 
L 114.120521 -108.039191 
L 113.788498 -107.705211 
L 113.456475 -107.420583 
L 113.124452 -107.219504 
L 112.792429 -107.049466 
L 112.460406 -106.730605 
L 112.128384 -106.145455 
L 111.796361 -105.389331 
L 111.464338 -104.656088 
L 111.132315 -104.064535 
L 110.800292 -103.626026 
L 110.46827 -103.357485 
L 110.136247 -103.252546 
L 109.804224 -103.286801 
L 109.472201 -103.446357 
L 109.140178 -103.711933 
L 108.808155 -104.090796 
L 108.476133 -104.480746 
L 108.14411 -104.707985 
L 107.812087 -104.740706 
L 107.480064 -104.613419 
L 107.148041 -104.370249 
L 106.816019 -104.052498 
L 106.483996 -103.678182 
L 106.151973 -103.320777 
L 105.81995 -103.006791 
L 105.487927 -102.616065 
L 105.155905 -102.158574 
L 104.823882 -101.707947 
L 104.491859 -101.281602 
L 104.159836 -100.926363 
L 103.827813 -100.656479 
L 103.49579 -100.493127 
L 103.163768 -100.451979 
L 102.831745 -100.473473 
L 102.499722 -100.494273 
L 102.167699 -100.458191 
L 101.835676 -100.361496 
L 101.503654 -100.256523 
L 101.171631 -100.232799 
L 100.839608 -100.269579 
L 100.507585 -100.237524 
L 100.175562 -100.05719 
L 99.843539 -99.800591 
L 99.511517 -99.606251 
L 99.179494 -99.50854 
L 98.847471 -99.400768 
L 98.515448 -99.201736 
L 98.183425 -98.945728 
L 97.851403 -98.691319 
L 97.51938 -98.431789 
L 97.187357 -98.127195 
L 96.855334 -97.830158 
L 96.523311 -97.633431 
L 96.191289 -97.532856 
L 95.859266 -97.44927 
L 95.527243 -97.37413 
L 95.19522 -97.309074 
L 94.863197 -97.208043 
L 94.531174 -97.03849 
L 94.199152 -96.850668 
L 93.867129 -96.740713 
L 93.535106 -96.677057 
L 93.203083 -96.585713 
L 92.87106 -96.462251 
L 92.539038 -96.321801 
L 92.207015 -96.092031 
L 91.874992 -95.710518 
L 91.542969 -95.207795 
L 91.210946 -94.710186 
L 90.878923 -94.288861 
L 90.546901 -93.903642 
L 90.214878 -93.540849 
L 89.882855 -93.260321 
L 89.550832 -93.136647 
L 89.218809 -93.138802 
L 88.886787 -93.149147 
L 88.554764 -93.119026 
L 88.222741 -93.090357 
L 87.890718 -93.147534 
L 87.558695 -93.305418 
L 87.226672 -93.478835 
L 86.89465 -93.617073 
L 86.562627 -93.711728 
L 86.230604 -93.716204 
L 85.898581 -93.613247 
L 85.566558 -93.466439 
L 85.234536 -93.321634 
L 84.902513 -93.134951 
L 84.57049 -92.871925 
L 84.238467 -92.455867 
L 83.906444 -91.820704 
L 83.574422 -91.094032 
L 83.242399 -90.435969 
L 82.910376 -89.907039 
L 82.578353 -89.559018 
L 82.24633 -89.353061 
L 81.914307 -89.211906 
L 81.582285 -89.088429 
L 81.250262 -88.944934 
L 80.918239 -88.796933 
L 80.586216 -88.653961 
L 80.254193 -88.517559 
L 79.922171 -88.42337 
L 79.590148 -88.370156 
L 79.258125 -88.3528 
L 78.926102 -88.367946 
L 78.594079 -88.394595 
L 78.262056 -88.434781 
L 77.930034 -88.4938 
L 77.598011 -88.505488 
L 77.265988 -88.392765 
L 76.933965 -88.12249 
L 76.601942 -87.749175 
L 76.26992 -87.352317 
L 75.937897 -86.943488 
L 75.605874 -86.553596 
L 75.273851 -86.232535 
L 74.941828 -85.967693 
L 74.609805 -85.721305 
L 74.277783 -85.470926 
L 73.94576 -85.159128 
L 73.613737 -84.78172 
L 73.281714 -84.39409 
L 72.949691 -84.015196 
L 72.617669 -83.649139 
L 72.285646 -83.321958 
L 71.953623 -83.073672 
L 71.6216 -82.888053 
L 71.289577 -82.734212 
L 70.957555 -82.635461 
L 70.625532 -82.598025 
L 70.293509 -82.539468 
L 69.961486 -82.373764 
L 69.629463 -82.094448 
L 69.29744 -81.691617 
L 68.965418 -81.108865 
L 68.633395 -80.371067 
L 68.301372 -79.622957 
L 67.969349 -78.969135 
L 67.637326 -78.426645 
L 67.305304 -78.020837 
L 66.973281 -77.774544 
L 66.641258 -77.688847 
L 66.309235 -77.726316 
L 65.977212 -77.839753 
L 65.645189 -77.980337 
L 65.313167 -78.079974 
L 64.981144 -78.118934 
L 64.649121 -78.191662 
L 64.317098 -78.344069 
L 63.985075 -78.512575 
L 63.653053 -78.643134 
L 63.32103 -78.688179 
L 62.989007 -78.566442 
L 62.656984 -78.256451 
L 62.324961 -77.844973 
L 61.992938 -77.372133 
L 61.660916 -76.779174 
L 61.328893 -76.028466 
L 60.99687 -75.130516 
L 60.664847 -74.159242 
L 60.332824 -73.203246 
L 60.000802 -72.292671 
L 59.668779 -71.37342 
L 59.336756 -70.379575 
L 59.004733 -69.306987 
L 58.67271 -68.175966 
L 58.340688 -67.037972 
L 58.008665 -65.934511 
L 57.676642 -64.879255 
L 57.344619 -63.878341 
L 57.012596 -62.868915 
L 56.680573 -61.769479 
L 56.348551 -60.522644 
L 56.016528 -59.083692 
L 55.684505 -57.41392 
L 55.352482 -55.473423 
L 55.020459 -53.226642 
L 54.688437 -50.778916 
L 54.356414 -48.472498 
L 54.024391 -46.782658 
L 53.692368 -46.15844 
z
" style="stroke: #ffff00; stroke-width: 0.5"/>
    </defs>
    <g clip-path="url(#p978873b845)">
     <use xlink:href="#mdb701af17e" x="0" y="190.485679" style="fill: #ffff00; stroke: #ffff00; stroke-width: 0.5"/>
    </g>
   </g>
   <g id="line2d_29">
    <path d="M 53.692368 142.564023 
L 54.024391 144.259717 
L 55.020459 134.718626 
L 55.352482 134.286729 
L 55.684505 134.825559 
L 56.016528 135.791045 
L 56.348551 136.017877 
L 56.680573 135.547307 
L 57.012596 135.699001 
L 57.344619 135.609703 
L 57.676642 133.547546 
L 58.340688 125.750656 
L 58.67271 123.198698 
L 59.668779 111.903159 
L 60.000802 111.708967 
L 60.332824 112.835941 
L 60.664847 115.080761 
L 61.328893 122.12493 
L 61.660916 122.66737 
L 61.992938 120.524651 
L 62.324961 113.531661 
L 63.32103 74.909271 
L 63.653053 73.702675 
L 63.985075 80.309362 
L 64.649121 96.454307 
L 64.981144 100.560683 
L 65.645189 104.28741 
L 66.973281 115.69492 
L 67.305304 120.037184 
L 67.637326 121.54435 
L 67.969349 116.595063 
L 68.301372 104.65414 
L 69.29744 55.077414 
L 69.629463 44.438048 
L 69.961486 39.900105 
L 70.293509 41.161747 
L 70.625532 46.764946 
L 71.289577 61.72241 
L 71.6216 65.427152 
L 71.953623 64.006187 
L 72.285646 57.629124 
L 73.281714 29.796065 
L 73.613737 27.167887 
L 73.94576 29.236112 
L 74.609805 36.681409 
L 74.941828 38.768075 
L 75.273851 37.965063 
L 75.605874 31.667686 
L 75.937897 22.016079 
L 76.26992 17.15844 
L 76.601942 21.508265 
L 77.598011 52.946436 
L 77.930034 49.421213 
L 78.594079 35.05186 
L 78.926102 35.634141 
L 79.258125 40.091977 
L 79.590148 42.857106 
L 79.922171 43.746909 
L 80.254193 46.194594 
L 80.586216 51.440577 
L 81.582285 72.983887 
L 82.24633 83.893731 
L 83.242399 110.285893 
L 83.574422 110.585027 
L 83.906444 101.173736 
L 84.57049 74.253998 
L 84.902513 67.285471 
L 85.234536 64.556163 
L 85.566558 64.070151 
L 85.898581 64.358078 
L 86.230604 65.300941 
L 86.562627 68.753451 
L 87.226672 82.099442 
L 87.558695 80.964932 
L 88.554764 51.773436 
L 88.886787 51.887081 
L 90.214878 78.736729 
L 90.546901 81.756136 
L 90.878923 81.959444 
L 91.210946 82.821089 
L 91.542969 83.06668 
L 91.874992 79.185692 
L 92.539038 65.422004 
L 92.87106 63.686095 
L 93.203083 62.593534 
L 93.535106 57.924928 
L 93.867129 50.91373 
L 94.199152 46.999704 
L 94.531174 47.331158 
L 94.863197 52.098252 
L 95.527243 66.869369 
L 96.523311 80.03389 
L 96.855334 80.570868 
L 97.187357 79.633584 
L 97.51938 82.107501 
L 97.851403 89.545961 
L 98.847471 123.615518 
L 99.179494 127.765727 
L 99.511517 130.221147 
L 99.843539 131.643354 
L 100.507585 128.562687 
L 100.839608 132.135444 
L 101.171631 139.717703 
L 101.503654 141.183025 
L 102.499722 119.038865 
L 102.831745 114.755787 
L 103.163768 113.502375 
L 103.49579 117.420157 
L 104.159836 142.106065 
L 104.823882 121.243504 
L 105.155905 111.477406 
L 105.487927 107.062963 
L 105.81995 110.654899 
L 106.483996 124.812167 
L 106.816019 128.130614 
L 107.148041 126.923722 
L 107.480064 122.792646 
L 107.812087 120.523668 
L 108.14411 120.749385 
L 108.476133 121.680292 
L 109.140178 128.292362 
L 109.472201 127.408018 
L 109.804224 122.568269 
L 110.136247 120.742015 
L 110.46827 125.234766 
L 110.800292 133.546629 
L 111.132315 138.781958 
L 111.464338 135.435653 
L 111.796361 123.811272 
L 112.460406 91.738257 
L 112.792429 84.283981 
L 113.124452 84.719322 
L 113.456475 89.604361 
L 113.788498 97.709647 
L 114.120521 111.408603 
L 114.452543 132.828968 
L 114.784566 132.486716 
L 115.116589 116.278695 
L 115.780635 96.483222 
L 116.112657 91.259501 
L 116.44468 95.431969 
L 116.776703 102.744452 
L 117.108726 105.216387 
L 117.440749 100.522867 
L 118.104794 81.010794 
L 118.436817 79.068063 
L 118.76884 85.463563 
L 119.432886 102.670037 
L 119.764908 102.280456 
L 120.760977 83.187037 
L 121.093 86.222154 
L 121.425022 92.106091 
L 121.757045 95.04783 
L 122.089068 95.422734 
L 122.421091 95.032902 
L 122.753114 95.56064 
L 123.085137 94.462056 
L 123.417159 87.003886 
L 124.413228 49.049956 
L 124.745251 40.956184 
L 125.077273 39.063491 
L 125.409296 46.599489 
L 125.741319 66.684709 
L 126.737388 142.874321 
L 128.065479 61.371625 
L 128.397502 45.331302 
L 128.729524 41.6344 
L 129.061547 52.986168 
L 130.057616 108.565384 
L 130.389639 135.524443 
L 130.721661 126.109041 
L 131.053684 108.904182 
L 131.385707 109.226917 
L 131.71773 126.03823 
L 132.049753 135.690838 
L 132.713798 84.672775 
L 133.045821 69.325965 
L 133.377844 60.313277 
L 133.709867 58.386163 
L 134.041889 61.013717 
L 134.373912 60.611273 
L 135.037958 49.969386 
L 135.369981 49.405368 
L 135.702004 56.509446 
L 136.034026 67.455612 
L 136.366049 73.97614 
L 136.698072 72.945933 
L 137.362118 56.409731 
L 137.69414 53.562133 
L 138.026163 60.394615 
L 139.022232 101.48582 
L 139.354255 109.992183 
L 139.686277 114.651863 
L 140.0183 116.251503 
L 140.350323 113.397117 
L 140.682346 106.902988 
L 141.014369 97.878825 
L 141.678414 73.685824 
L 142.010437 69.094868 
L 142.34246 70.797611 
L 142.674483 68.730461 
L 143.006506 63.320425 
L 143.338528 64.737942 
L 144.334597 91.414708 
L 144.66662 92.53709 
L 144.998642 92.485628 
L 145.330665 96.302624 
L 145.994711 111.052484 
L 146.326734 110.939894 
L 146.658756 109.733231 
L 146.990779 109.151902 
L 147.322802 106.122246 
L 147.654825 98.614688 
L 148.982916 52.767374 
L 149.314939 51.510897 
L 149.646962 60.901811 
L 150.311007 95.248312 
L 150.64303 105.524289 
L 150.975053 109.918189 
L 151.307076 107.11292 
L 151.639099 94.428893 
L 152.303144 60.472911 
L 152.635167 54.490073 
L 152.96719 52.283445 
L 153.299213 48.725334 
L 153.631236 46.468314 
L 153.963258 55.461594 
L 155.29135 138.979486 
L 155.623372 143.707686 
L 155.955395 137.124326 
L 156.619441 104.850163 
L 157.283487 66.868114 
L 157.615509 59.640233 
L 157.947532 64.329173 
L 158.611578 83.572482 
L 159.607646 97.83441 
L 159.939669 103.87087 
L 160.271692 105.768582 
L 160.603715 105.055577 
L 160.935738 105.29445 
L 161.26776 106.76603 
L 161.599783 109.982493 
L 162.263829 123.021314 
L 162.595852 121.760592 
L 164.255966 74.477152 
L 164.587989 69.581652 
L 164.920011 72.138505 
L 165.252034 84.663414 
L 165.91608 122.474201 
L 166.248103 128.004202 
L 166.580125 119.42895 
L 167.244171 93.399708 
L 167.576194 87.852722 
L 167.908217 88.378116 
L 168.240239 95.262843 
L 169.236308 130.314523 
L 169.900354 143.264313 
L 170.564399 129.828067 
L 170.896422 130.238327 
L 171.228445 133.908424 
L 171.560468 133.430489 
L 172.224513 119.232443 
L 172.556536 117.556951 
L 173.220582 136.362231 
L 173.884627 87.985149 
L 174.21665 72.970731 
L 174.548673 63.72076 
L 174.880696 58.97057 
L 175.212719 58.409755 
L 175.544741 60.81513 
L 175.876764 70.657224 
L 176.208787 94.860712 
L 176.54081 128.285686 
L 176.872833 130.232268 
L 177.204856 111.588067 
L 177.868901 97.068233 
L 178.532947 70.896861 
L 178.86497 56.15469 
L 179.196992 48.533046 
L 179.529015 53.47005 
L 180.857106 110.099577 
L 181.189129 115.826542 
L 181.521152 116.790689 
L 182.185198 113.472615 
L 182.517221 113.644815 
L 182.849243 114.693247 
L 183.181266 112.24237 
L 183.513289 108.195981 
L 184.177335 104.139013 
L 184.509357 105.102039 
L 185.505426 120.243194 
L 185.837449 114.174151 
L 186.501494 90.683068 
L 186.833517 87.163695 
L 187.16554 88.437592 
L 187.497563 93.93209 
L 188.493631 132.910606 
L 188.825654 129.364744 
L 189.4897 99.716807 
L 189.821723 91.995546 
L 190.153745 96.28034 
L 190.485768 108.568488 
L 191.149814 142.091081 
L 191.481837 125.273678 
L 191.813859 119.341639 
L 192.145882 126.524141 
L 192.477905 142.370289 
L 193.141951 119.081616 
L 193.473973 115.23417 
L 193.805996 112.881012 
L 194.138019 108.986785 
L 194.470042 102.737673 
L 195.134088 83.615889 
L 195.46611 78.839107 
L 195.798133 78.497966 
L 196.130156 78.82006 
L 196.794202 76.729789 
L 197.126224 78.075048 
L 197.79027 82.663901 
L 198.122293 85.774183 
L 198.454316 87.628232 
L 198.786339 87.901554 
L 199.118361 93.421988 
L 199.450384 107.300163 
L 199.782407 127.521624 
L 200.11443 135.558811 
L 201.110498 54.207984 
L 201.442521 36.184384 
L 201.774544 28.002761 
L 202.106567 30.774475 
L 202.438589 46.742801 
L 203.102635 92.436268 
L 203.434658 105.485404 
L 204.098704 137.241575 
L 204.430726 110.688747 
L 204.762749 95.430614 
L 205.094772 95.836276 
L 205.758818 121.632191 
L 206.09084 133.897166 
L 206.422863 139.961179 
L 206.754886 140.953188 
L 207.086909 141.49782 
L 207.418932 141.312305 
L 207.750955 138.800116 
L 208.082977 137.451713 
L 208.415 142.148497 
L 208.747023 140.148096 
L 209.079046 142.554363 
L 209.411069 134.931621 
L 209.743091 122.168283 
L 210.075114 115.61602 
L 210.407137 116.13936 
L 210.73916 114.648832 
L 211.403206 97.546888 
L 212.399274 63.212701 
L 212.731297 63.007775 
L 213.06332 71.55665 
L 214.059388 116.717606 
L 214.391411 125.596614 
L 214.723434 129.753144 
L 215.055456 128.857293 
L 215.387479 122.153335 
L 216.051525 102.582201 
L 216.383548 97.011796 
L 216.715571 95.865349 
L 217.047593 101.727246 
L 217.379616 116.661835 
L 217.711639 139.365415 
L 218.043662 122.638272 
L 219.03973 35.649443 
L 219.03973 35.649443 
" clip-path="url(#p978873b845)" style="fill: none; stroke-dasharray: 1,1.65; stroke-dashoffset: 0; stroke: #e24a33; stroke-opacity: 0.649299"/>
   </g>
   <g id="line2d_30">
    <path d="M 53.692368 142.564023 
L 54.024391 144.188159 
L 55.020459 138.181516 
L 55.352482 138.419273 
L 55.684505 138.350694 
L 56.016528 137.327506 
L 56.680573 134.516406 
L 57.012596 134.814211 
L 57.344619 136.156426 
L 57.676642 135.791364 
L 58.340688 128.585169 
L 58.67271 124.711906 
L 59.336756 114.02563 
L 59.668779 113.302323 
L 60.000802 118.738338 
L 60.664847 132.658758 
L 60.99687 136.215631 
L 61.328893 136.953781 
L 61.660916 134.777747 
L 61.992938 131.066468 
L 62.324961 125.412459 
L 62.989007 108.691118 
L 63.32103 106.207122 
L 63.653053 110.513291 
L 64.317098 125.720494 
L 64.649121 128.745028 
L 64.981144 128.464804 
L 65.313167 127.226779 
L 65.645189 128.040886 
L 65.977212 131.525013 
L 66.641258 144.223136 
L 67.305304 128.458019 
L 67.637326 127.197864 
L 67.969349 133.050731 
L 68.301372 143.4821 
L 69.629463 108.862043 
L 69.961486 106.397546 
L 70.293509 108.747646 
L 71.289577 129.616712 
L 71.6216 131.142092 
L 71.953623 128.266138 
L 72.617669 111.057623 
L 72.949691 103.219163 
L 73.281714 99.877227 
L 73.613737 101.461581 
L 73.94576 106.323393 
L 74.277783 113.969968 
L 75.273851 144.111885 
L 75.605874 144.113663 
L 76.26992 130.75336 
L 76.601942 128.504567 
L 76.933965 132.627093 
L 77.265988 141.047374 
L 77.598011 141.655267 
L 77.930034 141.913907 
L 78.262056 142.879664 
L 79.258125 127.617278 
L 79.922171 118.320291 
L 80.254193 117.772701 
L 80.586216 119.510002 
L 80.918239 123.250785 
L 81.582285 134.574045 
L 81.914307 142.222713 
L 82.24633 135.788815 
L 82.910376 110.602483 
L 83.242399 103.974941 
L 83.574422 106.336921 
L 84.238467 131.145854 
L 84.57049 143.630651 
L 85.566558 121.928122 
L 85.898581 120.539013 
L 86.230604 122.774089 
L 86.89465 133.077308 
L 87.226672 138.032812 
L 87.558695 138.232978 
L 87.890718 132.936971 
L 88.554764 117.657703 
L 88.886787 115.241592 
L 89.218809 118.76397 
L 90.546901 143.384697 
L 90.878923 139.962149 
L 91.210946 135.185901 
L 91.542969 132.844274 
L 91.874992 133.770218 
L 92.539038 139.660485 
L 92.87106 138.940319 
L 93.203083 139.126299 
L 93.535106 143.858003 
L 94.199152 130.931432 
L 94.531174 129.293498 
L 94.863197 135.583751 
L 95.19522 139.741654 
L 95.859266 116.113027 
L 96.191289 110.840505 
L 96.523311 108.718217 
L 96.855334 109.054212 
L 97.187357 110.554967 
L 97.51938 110.22482 
L 97.851403 106.778101 
L 98.847471 91.098916 
L 99.179494 88.780238 
L 99.511517 85.619823 
L 99.843539 84.373535 
L 100.175562 87.472668 
L 100.507585 92.584234 
L 100.839608 95.382844 
L 101.171631 93.66044 
L 101.835676 84.973038 
L 102.499722 75.790061 
L 103.163768 71.056209 
L 103.49579 71.402473 
L 103.827813 78.10857 
L 104.491859 96.138179 
L 104.823882 99.837343 
L 105.155905 98.663379 
L 105.487927 92.589881 
L 106.151973 75.01993 
L 106.483996 71.279518 
L 106.816019 72.220233 
L 107.480064 79.173892 
L 107.812087 75.379361 
L 108.476133 54.404485 
L 109.140178 34.01099 
L 109.472201 32.27443 
L 109.804224 36.76229 
L 110.46827 48.688339 
L 111.132315 54.981711 
L 111.464338 63.501926 
L 112.792429 117.896811 
L 113.124452 118.453036 
L 113.456475 113.325639 
L 114.120521 92.303194 
L 114.784566 63.936047 
L 115.116589 57.694759 
L 115.448612 53.627372 
L 115.780635 47.177186 
L 116.112657 44.477444 
L 116.776703 53.920752 
L 117.108726 54.734571 
L 117.440749 50.19381 
L 118.104794 38.223688 
L 118.436817 37.246597 
L 119.100863 41.492958 
L 119.432886 41.458793 
L 119.764908 41.114973 
L 120.096931 43.198142 
L 120.428954 48.536718 
L 121.093 62.200001 
L 121.425022 63.516429 
L 122.421091 48.641645 
L 122.753114 50.162127 
L 123.085137 52.641499 
L 123.417159 51.440114 
L 124.081205 39.695231 
L 124.745251 24.819395 
L 125.077273 22.368021 
L 125.409296 30.528105 
L 126.737388 102.23392 
L 127.733456 139.309121 
L 128.065479 137.232315 
L 128.397502 127.059362 
L 128.729524 125.181038 
L 129.39357 142.17425 
L 130.057616 108.322728 
L 130.721661 66.645313 
L 131.053684 52.293275 
L 131.385707 49.702334 
L 131.71773 59.021732 
L 132.713798 109.766471 
L 133.045821 120.068512 
L 133.377844 126.888415 
L 133.709867 128.703025 
L 134.041889 127.600716 
L 134.373912 129.476038 
L 135.037958 140.361347 
L 135.369981 143.22968 
L 135.702004 143.137871 
L 136.034026 141.106517 
L 136.366049 138.262041 
L 137.030095 129.663899 
L 137.69414 127.471999 
L 138.690209 115.533268 
L 139.022232 115.094536 
L 139.686277 116.840669 
L 140.350323 114.052311 
L 140.682346 117.396112 
L 141.346391 135.464466 
L 141.678414 144.318855 
L 142.010437 140.776627 
L 142.34246 141.071087 
L 143.006506 138.123121 
L 143.338528 143.147488 
L 144.002574 126.687828 
L 144.334597 124.438377 
L 144.66662 125.468157 
L 144.998642 126.920911 
L 145.330665 126.643457 
L 146.990779 110.457409 
L 147.322802 109.108161 
L 147.654825 108.978129 
L 147.986848 112.398836 
L 148.318871 120.260633 
L 148.982916 141.85487 
L 149.646962 137.3158 
L 150.311007 144.313334 
L 150.975053 140.283467 
L 151.307076 140.530939 
L 151.639099 142.210297 
L 151.971122 133.283184 
L 152.303144 130.694109 
L 152.96719 143.871671 
L 153.299213 142.720838 
L 153.631236 144.054671 
L 153.963258 141.207983 
L 154.959327 103.230105 
L 155.29135 97.404662 
L 155.623372 95.627737 
L 155.955395 100.185727 
L 156.287418 111.830741 
L 156.619441 128.985964 
L 156.951464 139.173719 
L 157.615509 102.964534 
L 157.947532 94.293726 
L 158.279555 91.331275 
L 158.611578 92.519634 
L 158.943601 96.516956 
L 159.275623 103.893774 
L 159.939669 123.094238 
L 160.271692 125.67368 
L 160.603715 121.052916 
L 161.26776 105.93076 
L 161.599783 102.175306 
L 161.931806 104.860295 
L 162.595852 118.842816 
L 162.927874 121.686119 
L 163.259897 122.349119 
L 163.59192 120.302944 
L 164.587989 100.100746 
L 164.920011 101.75241 
L 165.252034 109.441494 
L 165.91608 129.487163 
L 166.248103 131.665488 
L 166.580125 125.193678 
L 167.244171 108.114723 
L 167.576194 108.013611 
L 167.908217 114.781022 
L 168.572262 142.297624 
L 169.568331 113.578713 
L 169.900354 108.020197 
L 170.896422 80.755561 
L 171.560468 74.880145 
L 172.224513 69.462516 
L 172.556536 69.675625 
L 172.888559 74.740062 
L 173.220582 85.654537 
L 174.21665 126.217763 
L 174.548673 133.132026 
L 174.880696 135.390447 
L 175.212719 131.838548 
L 175.544741 125.381171 
L 175.876764 115.99249 
L 176.872833 67.899725 
L 177.204856 64.743988 
L 177.868901 75.331905 
L 178.200924 74.564025 
L 178.532947 68.104895 
L 179.196992 48.130767 
L 179.529015 46.920261 
L 179.861038 54.2926 
L 180.857106 92.3547 
L 181.189129 95.101892 
L 181.521152 90.740918 
L 182.185198 78.601502 
L 182.517221 77.044118 
L 182.849243 77.065898 
L 183.181266 75.299055 
L 183.513289 72.106135 
L 184.177335 62.783348 
L 184.509357 62.508703 
L 184.84138 68.640253 
L 185.505426 85.287305 
L 185.837449 84.621008 
L 186.169472 74.824547 
L 186.833517 50.525932 
L 187.16554 44.09327 
L 187.497563 45.713655 
L 187.829586 59.188818 
L 188.493631 91.681904 
L 188.825654 92.969141 
L 189.821723 70.7992 
L 190.153745 74.66916 
L 190.817791 90.1105 
L 191.481837 110.933274 
L 191.813859 116.642966 
L 192.145882 115.078911 
L 192.809928 101.256972 
L 193.473973 94.612257 
L 193.805996 85.593715 
L 194.802065 46.574069 
L 195.134088 42.277249 
L 195.46611 45.671528 
L 195.798133 51.416786 
L 196.130156 55.114786 
L 196.462179 55.239826 
L 197.126224 47.643334 
L 197.458247 46.505156 
L 197.79027 50.217198 
L 198.122293 55.699867 
L 198.786339 61.622083 
L 199.118361 67.607686 
L 200.446453 108.520659 
L 201.110498 140.773406 
L 201.774544 129.982933 
L 202.106567 130.127068 
L 202.438589 135.706313 
L 202.770612 143.999399 
L 203.102635 139.134287 
L 203.434658 138.912472 
L 203.766681 133.321507 
L 204.430726 109.011271 
L 204.762749 102.934463 
L 205.094772 104.368748 
L 205.758818 117.222776 
L 206.09084 118.683692 
L 206.754886 115.590871 
L 207.418932 118.911224 
L 208.082977 114.799445 
L 208.415 116.689389 
L 208.747023 116.570608 
L 209.079046 106.744575 
L 209.743091 77.414359 
L 210.075114 69.999555 
L 210.407137 66.68393 
L 210.73916 61.733371 
L 211.403206 46.878199 
L 211.735228 43.749071 
L 212.067251 42.084929 
L 212.399274 41.252887 
L 212.731297 42.099782 
L 213.06332 46.192792 
L 213.727365 64.349882 
L 215.055456 104.302905 
L 215.387479 106.005321 
L 215.719502 102.125966 
L 216.051525 100.11152 
L 216.383548 103.061241 
L 217.047593 116.94968 
L 217.379616 126.855693 
L 217.711639 140.42725 
L 218.043662 130.920957 
L 219.03973 75.721639 
L 219.03973 75.721639 
" clip-path="url(#p978873b845)" style="fill: none; stroke: #ff0000; stroke-linecap: square"/>
   </g>
   <g id="patch_3">
    <path d="M 45.425 150.685679 
L 45.425 10.8 
" style="fill: none; stroke: #ffffff; stroke-linejoin: miter; stroke-linecap: square"/>
   </g>
   <g id="patch_4">
    <path d="M 227.307098 150.685679 
L 227.307098 10.8 
" style="fill: none; stroke: #ffffff; stroke-linejoin: miter; stroke-linecap: square"/>
   </g>
   <g id="patch_5">
    <path d="M 45.425 150.685679 
L 227.307098 150.685679 
" style="fill: none; stroke: #ffffff; stroke-linejoin: miter; stroke-linecap: square"/>
   </g>
   <g id="patch_6">
    <path d="M 45.425 10.8 
L 227.307098 10.8 
" style="fill: none; stroke: #ffffff; stroke-linejoin: miter; stroke-linecap: square"/>
   </g>
   <g id="legend_1">
    <g id="patch_7">
     <path d="M 99.227098 52.4275 
L 221.707098 52.4275 
Q 223.307098 52.4275 223.307098 50.8275 
L 223.307098 16.4 
Q 223.307098 14.8 221.707098 14.8 
L 99.227098 14.8 
Q 97.627098 14.8 97.627098 16.4 
L 97.627098 50.8275 
Q 97.627098 52.4275 99.227098 52.4275 
z
" style="fill: #e5e5e5; opacity: 0.8; stroke: #cccccc; stroke-width: 0.5; stroke-linejoin: miter"/>
    </g>
    <g id="patch_8">
     <path d="M 100.827098 24.07875 
L 116.827098 24.07875 
L 116.827098 18.47875 
L 100.827098 18.47875 
z
" style="fill: #ffff00; stroke: #ffff00; stroke-width: 0.5; stroke-linejoin: miter"/>
    </g>
    <g id="text_16">
     <!-- $\sigma\, (N=5191)$ -->
     <g transform="translate(123.227098 24.07875)scale(0.08 -0.08)">
      <defs>
       <path id="DejaVuSans-Oblique-3c3" d="M 2219 3044 
Q 1744 3044 1422 2700 
Q 1081 2341 969 1747 
Q 844 1119 1044 756 
Q 1241 397 1706 397 
Q 2166 397 2503 759 
Q 2844 1122 2966 1747 
Q 3075 2319 2881 2700 
Q 2700 3044 2219 3044 
z
M 2309 3503 
L 4219 3500 
L 4106 2925 
L 3463 2925 
Q 3706 2438 3575 1747 
Q 3406 888 2884 400 
Q 2359 -91 1609 -91 
Q 856 -91 525 400 
Q 194 888 363 1747 
Q 528 2609 1050 3097 
Q 1484 3503 2309 3503 
z
" transform="scale(0.015625)"/>
       <path id="DejaVuSans-28" d="M 1984 4856 
Q 1566 4138 1362 3434 
Q 1159 2731 1159 2009 
Q 1159 1288 1364 580 
Q 1569 -128 1984 -844 
L 1484 -844 
Q 1016 -109 783 600 
Q 550 1309 550 2009 
Q 550 2706 781 3412 
Q 1013 4119 1484 4856 
L 1984 4856 
z
" transform="scale(0.015625)"/>
       <path id="DejaVuSans-Oblique-4e" d="M 1081 4666 
L 1931 4666 
L 3219 666 
L 4000 4666 
L 4616 4666 
L 3706 0 
L 2853 0 
L 1569 4025 
L 788 0 
L 172 0 
L 1081 4666 
z
" transform="scale(0.015625)"/>
       <path id="DejaVuSans-3d" d="M 678 2906 
L 4684 2906 
L 4684 2381 
L 678 2381 
L 678 2906 
z
M 678 1631 
L 4684 1631 
L 4684 1100 
L 678 1100 
L 678 1631 
z
" transform="scale(0.015625)"/>
       <path id="DejaVuSans-35" d="M 691 4666 
L 3169 4666 
L 3169 4134 
L 1269 4134 
L 1269 2991 
Q 1406 3038 1543 3061 
Q 1681 3084 1819 3084 
Q 2600 3084 3056 2656 
Q 3513 2228 3513 1497 
Q 3513 744 3044 326 
Q 2575 -91 1722 -91 
Q 1428 -91 1123 -41 
Q 819 9 494 109 
L 494 744 
Q 775 591 1075 516 
Q 1375 441 1709 441 
Q 2250 441 2565 725 
Q 2881 1009 2881 1497 
Q 2881 1984 2565 2268 
Q 2250 2553 1709 2553 
Q 1456 2553 1204 2497 
Q 953 2441 691 2322 
L 691 4666 
z
" transform="scale(0.015625)"/>
       <path id="DejaVuSans-31" d="M 794 531 
L 1825 531 
L 1825 4091 
L 703 3866 
L 703 4441 
L 1819 4666 
L 2450 4666 
L 2450 531 
L 3481 531 
L 3481 0 
L 794 0 
L 794 531 
z
" transform="scale(0.015625)"/>
       <path id="DejaVuSans-39" d="M 703 97 
L 703 672 
Q 941 559 1184 500 
Q 1428 441 1663 441 
Q 2288 441 2617 861 
Q 2947 1281 2994 2138 
Q 2813 1869 2534 1725 
Q 2256 1581 1919 1581 
Q 1219 1581 811 2004 
Q 403 2428 403 3163 
Q 403 3881 828 4315 
Q 1253 4750 1959 4750 
Q 2769 4750 3195 4129 
Q 3622 3509 3622 2328 
Q 3622 1225 3098 567 
Q 2575 -91 1691 -91 
Q 1453 -91 1209 -44 
Q 966 3 703 97 
z
M 1959 2075 
Q 2384 2075 2632 2365 
Q 2881 2656 2881 3163 
Q 2881 3666 2632 3958 
Q 2384 4250 1959 4250 
Q 1534 4250 1286 3958 
Q 1038 3666 1038 3163 
Q 1038 2656 1286 2365 
Q 1534 2075 1959 2075 
z
" transform="scale(0.015625)"/>
       <path id="DejaVuSans-29" d="M 513 4856 
L 1013 4856 
Q 1481 4119 1714 3412 
Q 1947 2706 1947 2009 
Q 1947 1309 1714 600 
Q 1481 -109 1013 -844 
L 513 -844 
Q 928 -128 1133 580 
Q 1338 1288 1338 2009 
Q 1338 2731 1133 3434 
Q 928 4138 513 4856 
z
" transform="scale(0.015625)"/>
      </defs>
      <use xlink:href="#DejaVuSans-Oblique-3c3" transform="translate(0 0.125)"/>
      <use xlink:href="#DejaVuSans-28" transform="translate(79.614583 0.125)"/>
      <use xlink:href="#DejaVuSans-Oblique-4e" transform="translate(118.628254 0.125)"/>
      <use xlink:href="#DejaVuSans-3d" transform="translate(212.915364 0.125)"/>
      <use xlink:href="#DejaVuSans-35" transform="translate(316.186848 0.125)"/>
      <use xlink:href="#DejaVuSans-31" transform="translate(379.809895 0.125)"/>
      <use xlink:href="#DejaVuSans-39" transform="translate(443.432942 0.125)"/>
      <use xlink:href="#DejaVuSans-31" transform="translate(507.055989 0.125)"/>
      <use xlink:href="#DejaVuSans-29" transform="translate(570.679036 0.125)"/>
     </g>
    </g>
    <g id="line2d_31">
     <path d="M 100.827098 33.02125 
L 108.827098 33.02125 
L 116.827098 33.02125 
" style="fill: none; stroke-dasharray: 1,1.65; stroke-dashoffset: 0; stroke: #e24a33; stroke-opacity: 0.649299"/>
    </g>
    <g id="text_17">
     <!-- $N=3114$  $\Delta&lt;\sigma = 64.9\%$ -->
     <g transform="translate(123.227098 35.82125)scale(0.08 -0.08)">
      <defs>
       <path id="DejaVuSans-33" d="M 2597 2516 
Q 3050 2419 3304 2112 
Q 3559 1806 3559 1356 
Q 3559 666 3084 287 
Q 2609 -91 1734 -91 
Q 1441 -91 1130 -33 
Q 819 25 488 141 
L 488 750 
Q 750 597 1062 519 
Q 1375 441 1716 441 
Q 2309 441 2620 675 
Q 2931 909 2931 1356 
Q 2931 1769 2642 2001 
Q 2353 2234 1838 2234 
L 1294 2234 
L 1294 2753 
L 1863 2753 
Q 2328 2753 2575 2939 
Q 2822 3125 2822 3475 
Q 2822 3834 2567 4026 
Q 2313 4219 1838 4219 
Q 1578 4219 1281 4162 
Q 984 4106 628 3988 
L 628 4550 
Q 988 4650 1302 4700 
Q 1616 4750 1894 4750 
Q 2613 4750 3031 4423 
Q 3450 4097 3450 3541 
Q 3450 3153 3228 2886 
Q 3006 2619 2597 2516 
z
" transform="scale(0.015625)"/>
       <path id="DejaVuSans-34" d="M 2419 4116 
L 825 1625 
L 2419 1625 
L 2419 4116 
z
M 2253 4666 
L 3047 4666 
L 3047 1625 
L 3713 1625 
L 3713 1100 
L 3047 1100 
L 3047 0 
L 2419 0 
L 2419 1100 
L 313 1100 
L 313 1709 
L 2253 4666 
z
" transform="scale(0.015625)"/>
       <path id="DejaVuSerif-20" transform="scale(0.015625)"/>
       <path id="DejaVuSans-394" d="M 2188 4044 
L 906 525 
L 3472 525 
L 2188 4044 
z
M 50 0 
L 1831 4666 
L 2547 4666 
L 4325 0 
L 50 0 
z
" transform="scale(0.015625)"/>
       <path id="DejaVuSans-3c" d="M 4684 3150 
L 1459 2003 
L 4684 863 
L 4684 294 
L 678 1747 
L 678 2266 
L 4684 3719 
L 4684 3150 
z
" transform="scale(0.015625)"/>
       <path id="DejaVuSans-36" d="M 2113 2584 
Q 1688 2584 1439 2293 
Q 1191 2003 1191 1497 
Q 1191 994 1439 701 
Q 1688 409 2113 409 
Q 2538 409 2786 701 
Q 3034 994 3034 1497 
Q 3034 2003 2786 2293 
Q 2538 2584 2113 2584 
z
M 3366 4563 
L 3366 3988 
Q 3128 4100 2886 4159 
Q 2644 4219 2406 4219 
Q 1781 4219 1451 3797 
Q 1122 3375 1075 2522 
Q 1259 2794 1537 2939 
Q 1816 3084 2150 3084 
Q 2853 3084 3261 2657 
Q 3669 2231 3669 1497 
Q 3669 778 3244 343 
Q 2819 -91 2113 -91 
Q 1303 -91 875 529 
Q 447 1150 447 2328 
Q 447 3434 972 4092 
Q 1497 4750 2381 4750 
Q 2619 4750 2861 4703 
Q 3103 4656 3366 4563 
z
" transform="scale(0.015625)"/>
       <path id="DejaVuSans-2e" d="M 684 794 
L 1344 794 
L 1344 0 
L 684 0 
L 684 794 
z
" transform="scale(0.015625)"/>
       <path id="DejaVuSans-25" d="M 4653 2053 
Q 4381 2053 4226 1822 
Q 4072 1591 4072 1178 
Q 4072 772 4226 539 
Q 4381 306 4653 306 
Q 4919 306 5073 539 
Q 5228 772 5228 1178 
Q 5228 1588 5073 1820 
Q 4919 2053 4653 2053 
z
M 4653 2450 
Q 5147 2450 5437 2106 
Q 5728 1763 5728 1178 
Q 5728 594 5436 251 
Q 5144 -91 4653 -91 
Q 4153 -91 3862 251 
Q 3572 594 3572 1178 
Q 3572 1766 3864 2108 
Q 4156 2450 4653 2450 
z
M 1428 4353 
Q 1159 4353 1004 4120 
Q 850 3888 850 3481 
Q 850 3069 1003 2837 
Q 1156 2606 1428 2606 
Q 1700 2606 1854 2837 
Q 2009 3069 2009 3481 
Q 2009 3884 1853 4118 
Q 1697 4353 1428 4353 
z
M 4250 4750 
L 4750 4750 
L 1831 -91 
L 1331 -91 
L 4250 4750 
z
M 1428 4750 
Q 1922 4750 2215 4408 
Q 2509 4066 2509 3481 
Q 2509 2891 2217 2550 
Q 1925 2209 1428 2209 
Q 931 2209 642 2551 
Q 353 2894 353 3481 
Q 353 4063 643 4406 
Q 934 4750 1428 4750 
z
" transform="scale(0.015625)"/>
      </defs>
      <use xlink:href="#DejaVuSans-Oblique-4e" transform="translate(0 0.78125)"/>
      <use xlink:href="#DejaVuSans-3d" transform="translate(94.287109 0.78125)"/>
      <use xlink:href="#DejaVuSans-33" transform="translate(197.558594 0.78125)"/>
      <use xlink:href="#DejaVuSans-31" transform="translate(261.181641 0.78125)"/>
      <use xlink:href="#DejaVuSans-31" transform="translate(324.804688 0.78125)"/>
      <use xlink:href="#DejaVuSans-34" transform="translate(388.427734 0.78125)"/>
      <use xlink:href="#DejaVuSerif-20" transform="translate(452.050781 0.78125)"/>
      <use xlink:href="#DejaVuSerif-20" transform="translate(483.837891 0.78125)"/>
      <use xlink:href="#DejaVuSans-394" transform="translate(515.625 0.78125)"/>
      <use xlink:href="#DejaVuSans-3c" transform="translate(603.515625 0.78125)"/>
      <use xlink:href="#DejaVuSans-Oblique-3c3" transform="translate(706.787109 0.78125)"/>
      <use xlink:href="#DejaVuSans-3d" transform="translate(789.648438 0.78125)"/>
      <use xlink:href="#DejaVuSans-36" transform="translate(892.919922 0.78125)"/>
      <use xlink:href="#DejaVuSans-34" transform="translate(956.542969 0.78125)"/>
      <use xlink:href="#DejaVuSans-2e" transform="translate(1020.166016 0.78125)"/>
      <use xlink:href="#DejaVuSans-39" transform="translate(1051.953125 0.78125)"/>
      <use xlink:href="#DejaVuSans-25" transform="translate(1115.576172 0.78125)"/>
     </g>
    </g>
    <g id="line2d_32">
     <path d="M 100.827098 44.76375 
L 108.827098 44.76375 
L 116.827098 44.76375 
" style="fill: none; stroke: #ff0000; stroke-linecap: square"/>
    </g>
    <g id="text_18">
     <!-- $N=5191$  $\Delta&lt;\sigma = 74.9\%$ -->
     <g transform="translate(123.227098 47.56375)scale(0.08 -0.08)">
      <defs>
       <path id="DejaVuSans-37" d="M 525 4666 
L 3525 4666 
L 3525 4397 
L 1831 0 
L 1172 0 
L 2766 4134 
L 525 4134 
L 525 4666 
z
" transform="scale(0.015625)"/>
      </defs>
      <use xlink:href="#DejaVuSans-Oblique-4e" transform="translate(0 0.78125)"/>
      <use xlink:href="#DejaVuSans-3d" transform="translate(94.287109 0.78125)"/>
      <use xlink:href="#DejaVuSans-35" transform="translate(197.558594 0.78125)"/>
      <use xlink:href="#DejaVuSans-31" transform="translate(261.181641 0.78125)"/>
      <use xlink:href="#DejaVuSans-39" transform="translate(324.804688 0.78125)"/>
      <use xlink:href="#DejaVuSans-31" transform="translate(388.427734 0.78125)"/>
      <use xlink:href="#DejaVuSerif-20" transform="translate(452.050781 0.78125)"/>
      <use xlink:href="#DejaVuSerif-20" transform="translate(483.837891 0.78125)"/>
      <use xlink:href="#DejaVuSans-394" transform="translate(515.625 0.78125)"/>
      <use xlink:href="#DejaVuSans-3c" transform="translate(603.515625 0.78125)"/>
      <use xlink:href="#DejaVuSans-Oblique-3c3" transform="translate(706.787109 0.78125)"/>
      <use xlink:href="#DejaVuSans-3d" transform="translate(789.648438 0.78125)"/>
      <use xlink:href="#DejaVuSans-37" transform="translate(892.919922 0.78125)"/>
      <use xlink:href="#DejaVuSans-34" transform="translate(956.542969 0.78125)"/>
      <use xlink:href="#DejaVuSans-2e" transform="translate(1020.166016 0.78125)"/>
      <use xlink:href="#DejaVuSans-39" transform="translate(1051.953125 0.78125)"/>
      <use xlink:href="#DejaVuSans-25" transform="translate(1115.576172 0.78125)"/>
     </g>
    </g>
   </g>
  </g>
 </g>
 <defs>
  <clipPath id="p978873b845">
   <rect x="45.425" y="10.8" width="181.882098" height="139.885679"/>
  </clipPath>
 </defs>
</svg>
