<?xml version="1.0" encoding="utf-8" standalone="no"?>
<!DOCTYPE svg PUBLIC "-//W3C//DTD SVG 1.1//EN"
  "http://www.w3.org/Graphics/SVG/1.1/DTD/svg11.dtd">
<svg xmlns:xlink="http://www.w3.org/1999/xlink" width="317.210461pt" height="95.163138pt" viewBox="0 0 317.210461 95.163138" xmlns="http://www.w3.org/2000/svg" version="1.1">
 <metadata>
  <rdf:RDF xmlns:dc="http://purl.org/dc/elements/1.1/" xmlns:cc="http://creativecommons.org/ns#" xmlns:rdf="http://www.w3.org/1999/02/22-rdf-syntax-ns#">
   <cc:Work>
    <dc:type rdf:resource="http://purl.org/dc/dcmitype/StillImage"/>
    <dc:date>1980-01-01T00:00:00+00:00</dc:date>
    <dc:format>image/svg+xml</dc:format>
    <dc:creator>
     <cc:Agent>
      <dc:title>Matplotlib v3.5.1, https://matplotlib.org/</dc:title>
     </cc:Agent>
    </dc:creator>
   </cc:Work>
  </rdf:RDF>
 </metadata>
 <defs>
  <style type="text/css">*{stroke-linejoin: round; stroke-linecap: butt}</style>
 </defs>
 <g id="figure_1">
  <g id="patch_1">
   <path d="M 0 95.163138 
L 317.210461 95.163138 
L 317.210461 0 
L 0 0 
z
" style="fill: #ffffff"/>
  </g>
  <g id="axes_1">
   <g id="patch_2">
    <path d="M 48.425 55.363138 
L 306.410461 55.363138 
L 306.410461 19.8 
L 48.425 19.8 
z
" style="fill: #e5e5e5"/>
   </g>
   <g id="matplotlib.axis_1">
    <g id="xtick_1">
     <g id="line2d_1">
      <path d="M 60.151612 55.363138 
L 60.151612 19.8 
" clip-path="url(#pc18404fbff)" style="fill: none; stroke: #ffffff; stroke-width: 0.8; stroke-linecap: square"/>
     </g>
     <g id="line2d_2">
      <defs>
       <path id="m45e4296008" d="M 0 0 
L 0 3.5 
" style="stroke: #555555; stroke-width: 0.8"/>
      </defs>
      <g>
       <use xlink:href="#m45e4296008" x="60.151612" y="55.363138" style="fill: #555555; stroke: #555555; stroke-width: 0.8"/>
      </g>
     </g>
     <g id="text_1">
      <!-- 0 -->
      <g style="fill: #555555" transform="translate(57.606612 68.441888)scale(0.08 -0.08)">
       <defs>
        <path id="DejaVuSerif-30" d="M 2034 219 
Q 2513 219 2750 744 
Q 2988 1269 2988 2328 
Q 2988 3391 2750 3916 
Q 2513 4441 2034 4441 
Q 1556 4441 1318 3916 
Q 1081 3391 1081 2328 
Q 1081 1269 1318 744 
Q 1556 219 2034 219 
z
M 2034 -91 
Q 1275 -91 848 546 
Q 422 1184 422 2328 
Q 422 3475 848 4112 
Q 1275 4750 2034 4750 
Q 2797 4750 3222 4112 
Q 3647 3475 3647 2328 
Q 3647 1184 3222 546 
Q 2797 -91 2034 -91 
z
" transform="scale(0.015625)"/>
       </defs>
       <use xlink:href="#DejaVuSerif-30"/>
      </g>
     </g>
    </g>
    <g id="xtick_2">
     <g id="line2d_3">
      <path d="M 107.058059 55.363138 
L 107.058059 19.8 
" clip-path="url(#pc18404fbff)" style="fill: none; stroke: #ffffff; stroke-width: 0.8; stroke-linecap: square"/>
     </g>
     <g id="line2d_4">
      <g>
       <use xlink:href="#m45e4296008" x="107.058059" y="55.363138" style="fill: #555555; stroke: #555555; stroke-width: 0.8"/>
      </g>
     </g>
     <g id="text_2">
      <!-- 10 -->
      <g style="fill: #555555" transform="translate(101.968059 68.441888)scale(0.08 -0.08)">
       <defs>
        <path id="DejaVuSerif-31" d="M 909 0 
L 909 331 
L 1722 331 
L 1722 4213 
L 781 3603 
L 781 4013 
L 1919 4750 
L 2350 4750 
L 2350 331 
L 3163 331 
L 3163 0 
L 909 0 
z
" transform="scale(0.015625)"/>
       </defs>
       <use xlink:href="#DejaVuSerif-31"/>
       <use xlink:href="#DejaVuSerif-30" x="63.623047"/>
      </g>
     </g>
    </g>
    <g id="xtick_3">
     <g id="line2d_5">
      <path d="M 153.964507 55.363138 
L 153.964507 19.8 
" clip-path="url(#pc18404fbff)" style="fill: none; stroke: #ffffff; stroke-width: 0.8; stroke-linecap: square"/>
     </g>
     <g id="line2d_6">
      <g>
       <use xlink:href="#m45e4296008" x="153.964507" y="55.363138" style="fill: #555555; stroke: #555555; stroke-width: 0.8"/>
      </g>
     </g>
     <g id="text_3">
      <!-- 20 -->
      <g style="fill: #555555" transform="translate(148.874507 68.441888)scale(0.08 -0.08)">
       <defs>
        <path id="DejaVuSerif-32" d="M 819 3553 
L 469 3553 
L 469 4384 
Q 803 4563 1142 4656 
Q 1481 4750 1806 4750 
Q 2534 4750 2956 4397 
Q 3378 4044 3378 3438 
Q 3378 2753 2422 1800 
Q 2347 1728 2309 1691 
L 1131 513 
L 3078 513 
L 3078 1088 
L 3444 1088 
L 3444 0 
L 434 0 
L 434 341 
L 1850 1753 
Q 2319 2222 2519 2614 
Q 2719 3006 2719 3438 
Q 2719 3909 2473 4175 
Q 2228 4441 1797 4441 
Q 1350 4441 1106 4219 
Q 863 3997 819 3553 
z
" transform="scale(0.015625)"/>
       </defs>
       <use xlink:href="#DejaVuSerif-32"/>
       <use xlink:href="#DejaVuSerif-30" x="63.623047"/>
      </g>
     </g>
    </g>
    <g id="xtick_4">
     <g id="line2d_7">
      <path d="M 200.870954 55.363138 
L 200.870954 19.8 
" clip-path="url(#pc18404fbff)" style="fill: none; stroke: #ffffff; stroke-width: 0.8; stroke-linecap: square"/>
     </g>
     <g id="line2d_8">
      <g>
       <use xlink:href="#m45e4296008" x="200.870954" y="55.363138" style="fill: #555555; stroke: #555555; stroke-width: 0.8"/>
      </g>
     </g>
     <g id="text_4">
      <!-- 30 -->
      <g style="fill: #555555" transform="translate(195.780954 68.441888)scale(0.08 -0.08)">
       <defs>
        <path id="DejaVuSerif-33" d="M 622 4469 
Q 988 4606 1323 4678 
Q 1659 4750 1953 4750 
Q 2638 4750 3022 4454 
Q 3406 4159 3406 3634 
Q 3406 3213 3140 2930 
Q 2875 2647 2388 2547 
Q 2963 2466 3280 2130 
Q 3597 1794 3597 1259 
Q 3597 606 3158 257 
Q 2719 -91 1894 -91 
Q 1528 -91 1179 -12 
Q 831 66 488 225 
L 488 1131 
L 838 1131 
Q 869 681 1141 450 
Q 1413 219 1906 219 
Q 2384 219 2661 495 
Q 2938 772 2938 1253 
Q 2938 1803 2653 2086 
Q 2369 2369 1819 2369 
L 1522 2369 
L 1522 2688 
L 1678 2688 
Q 2225 2688 2498 2914 
Q 2772 3141 2772 3597 
Q 2772 4006 2547 4223 
Q 2322 4441 1900 4441 
Q 1478 4441 1245 4241 
Q 1013 4041 972 3647 
L 622 3647 
L 622 4469 
z
" transform="scale(0.015625)"/>
       </defs>
       <use xlink:href="#DejaVuSerif-33"/>
       <use xlink:href="#DejaVuSerif-30" x="63.623047"/>
      </g>
     </g>
    </g>
    <g id="xtick_5">
     <g id="line2d_9">
      <path d="M 247.777402 55.363138 
L 247.777402 19.8 
" clip-path="url(#pc18404fbff)" style="fill: none; stroke: #ffffff; stroke-width: 0.8; stroke-linecap: square"/>
     </g>
     <g id="line2d_10">
      <g>
       <use xlink:href="#m45e4296008" x="247.777402" y="55.363138" style="fill: #555555; stroke: #555555; stroke-width: 0.8"/>
      </g>
     </g>
     <g id="text_5">
      <!-- 40 -->
      <g style="fill: #555555" transform="translate(242.687402 68.441888)scale(0.08 -0.08)">
       <defs>
        <path id="DejaVuSerif-34" d="M 2234 1581 
L 2234 4063 
L 641 1581 
L 2234 1581 
z
M 3609 0 
L 1484 0 
L 1484 331 
L 2234 331 
L 2234 1247 
L 197 1247 
L 197 1588 
L 2241 4750 
L 2859 4750 
L 2859 1581 
L 3750 1581 
L 3750 1247 
L 2859 1247 
L 2859 331 
L 3609 331 
L 3609 0 
z
" transform="scale(0.015625)"/>
       </defs>
       <use xlink:href="#DejaVuSerif-34"/>
       <use xlink:href="#DejaVuSerif-30" x="63.623047"/>
      </g>
     </g>
    </g>
    <g id="xtick_6">
     <g id="line2d_11">
      <path d="M 294.683849 55.363138 
L 294.683849 19.8 
" clip-path="url(#pc18404fbff)" style="fill: none; stroke: #ffffff; stroke-width: 0.8; stroke-linecap: square"/>
     </g>
     <g id="line2d_12">
      <g>
       <use xlink:href="#m45e4296008" x="294.683849" y="55.363138" style="fill: #555555; stroke: #555555; stroke-width: 0.8"/>
      </g>
     </g>
     <g id="text_6">
      <!-- 50 -->
      <g style="fill: #555555" transform="translate(289.593849 68.441888)scale(0.08 -0.08)">
       <defs>
        <path id="DejaVuSerif-35" d="M 3219 4666 
L 3219 4153 
L 1081 4153 
L 1081 2816 
Q 1244 2928 1461 2984 
Q 1678 3041 1947 3041 
Q 2703 3041 3140 2622 
Q 3578 2203 3578 1478 
Q 3578 738 3136 323 
Q 2694 -91 1894 -91 
Q 1572 -91 1234 -12 
Q 897 66 544 225 
L 544 1131 
L 897 1131 
Q 925 688 1179 453 
Q 1434 219 1894 219 
Q 2388 219 2653 544 
Q 2919 869 2919 1478 
Q 2919 2084 2655 2407 
Q 2391 2731 1894 2731 
Q 1613 2731 1398 2631 
Q 1184 2531 1019 2322 
L 750 2322 
L 750 4666 
L 3219 4666 
z
" transform="scale(0.015625)"/>
       </defs>
       <use xlink:href="#DejaVuSerif-35"/>
       <use xlink:href="#DejaVuSerif-30" x="63.623047"/>
      </g>
     </g>
    </g>
    <g id="text_7">
     <!-- $τ$ -->
     <g style="fill: #555555" transform="translate(174.36773 81.704076)scale(0.1 -0.1)">
      <defs>
       <path id="DejaVuSans-Oblique-3c4" d="M 2103 638 
Q 2188 488 2525 488 
L 2800 488 
L 2706 0 
L 2363 0 
Q 1800 0 1600 300 
Q 1403 606 1534 1269 
L 1856 2925 
L 541 2925 
L 653 3500 
L 3881 3500 
L 3769 2925 
L 2444 2925 
L 2113 1234 
Q 2025 781 2103 638 
z
" transform="scale(0.015625)"/>
      </defs>
      <use xlink:href="#DejaVuSans-Oblique-3c4" transform="translate(0 0.3125)"/>
     </g>
    </g>
   </g>
   <g id="matplotlib.axis_2">
    <g id="ytick_1">
     <g id="line2d_13">
      <path d="M 48.425 53.288662 
L 306.410461 53.288662 
" clip-path="url(#pc18404fbff)" style="fill: none; stroke: #ffffff; stroke-width: 0.8; stroke-linecap: square"/>
     </g>
     <g id="line2d_14">
      <defs>
       <path id="m08439a49b0" d="M 0 0 
L -3.5 0 
" style="stroke: #555555; stroke-width: 0.8"/>
      </defs>
      <g>
       <use xlink:href="#m08439a49b0" x="48.425" y="53.288662" style="fill: #555555; stroke: #555555; stroke-width: 0.8"/>
      </g>
     </g>
     <g id="text_8">
      <!-- 0 -->
      <g style="fill: #555555" transform="translate(36.335 56.328037)scale(0.08 -0.08)">
       <use xlink:href="#DejaVuSerif-30"/>
      </g>
     </g>
    </g>
    <g id="ytick_2">
     <g id="line2d_15">
      <path d="M 48.425 28.144012 
L 306.410461 28.144012 
" clip-path="url(#pc18404fbff)" style="fill: none; stroke: #ffffff; stroke-width: 0.8; stroke-linecap: square"/>
     </g>
     <g id="line2d_16">
      <g>
       <use xlink:href="#m08439a49b0" x="48.425" y="28.144012" style="fill: #555555; stroke: #555555; stroke-width: 0.8"/>
      </g>
     </g>
     <g id="text_9">
      <!-- 1 -->
      <g style="fill: #555555" transform="translate(36.335 31.183387)scale(0.08 -0.08)">
       <use xlink:href="#DejaVuSerif-31"/>
      </g>
     </g>
    </g>
    <g id="text_10">
     <!-- $||ψ|| - 1$ -->
     <g style="fill: #555555" transform="translate(29.935 56.981569)rotate(-90)scale(0.1 -0.1)">
      <defs>
       <path id="DejaVuSans-7c" d="M 1344 4891 
L 1344 -1509 
L 813 -1509 
L 813 4891 
L 1344 4891 
z
" transform="scale(0.015625)"/>
       <path id="DejaVuSans-Oblique-3c8" d="M 1591 -78 
Q 891 38 616 341 
Q 278 713 425 1472 
L 819 3500 
L 1400 3500 
L 1009 1494 
Q 900 922 1119 684 
Q 1313 478 1691 434 
L 2284 3500 
L 2856 3500 
L 2263 438 
Q 2681 481 2928 688 
Q 3247 950 3353 1497 
L 3741 3500 
L 4322 3500 
L 3928 1475 
Q 3775 688 3300 344 
Q 2872 34 2163 -75 
L 1919 -1331 
L 1347 -1331 
L 1591 -78 
z
" transform="scale(0.015625)"/>
       <path id="DejaVuSans-2212" d="M 678 2272 
L 4684 2272 
L 4684 1741 
L 678 1741 
L 678 2272 
z
" transform="scale(0.015625)"/>
       <path id="DejaVuSans-31" d="M 794 531 
L 1825 531 
L 1825 4091 
L 703 3866 
L 703 4441 
L 1819 4666 
L 2450 4666 
L 2450 531 
L 3481 531 
L 3481 0 
L 794 0 
L 794 531 
z
" transform="scale(0.015625)"/>
      </defs>
      <use xlink:href="#DejaVuSans-7c" transform="translate(0 0.578125)"/>
      <use xlink:href="#DejaVuSans-7c" transform="translate(33.691406 0.578125)"/>
      <use xlink:href="#DejaVuSans-Oblique-3c8" transform="translate(67.382812 0.578125)"/>
      <use xlink:href="#DejaVuSans-7c" transform="translate(133.349609 0.578125)"/>
      <use xlink:href="#DejaVuSans-7c" transform="translate(167.041016 0.578125)"/>
      <use xlink:href="#DejaVuSans-2212" transform="translate(220.214844 0.578125)"/>
      <use xlink:href="#DejaVuSans-31" transform="translate(323.486328 0.578125)"/>
     </g>
    </g>
    <g id="text_11">
     <!-- 1e−6 -->
     <g style="fill: #555555" transform="translate(48.425 16.8)scale(0.08 -0.08)">
      <defs>
       <path id="DejaVuSerif-65" d="M 3469 1600 
L 991 1600 
L 991 1575 
Q 991 903 1244 561 
Q 1497 219 1991 219 
Q 2369 219 2611 417 
Q 2853 616 2950 1006 
L 3413 1006 
Q 3275 459 2904 184 
Q 2534 -91 1931 -91 
Q 1203 -91 761 389 
Q 319 869 319 1663 
Q 319 2450 753 2931 
Q 1188 3413 1894 3413 
Q 2647 3413 3050 2948 
Q 3453 2484 3469 1600 
z
M 2791 1931 
Q 2772 2513 2545 2808 
Q 2319 3103 1894 3103 
Q 1497 3103 1269 2806 
Q 1041 2509 991 1931 
L 2791 1931 
z
" transform="scale(0.015625)"/>
       <path id="DejaVuSerif-2212" d="M 678 2259 
L 4684 2259 
L 4684 1753 
L 678 1753 
L 678 2259 
z
" transform="scale(0.015625)"/>
       <path id="DejaVuSerif-36" d="M 2094 219 
Q 2534 219 2771 542 
Q 3009 866 3009 1472 
Q 3009 2078 2771 2401 
Q 2534 2725 2094 2725 
Q 1647 2725 1412 2412 
Q 1178 2100 1178 1509 
Q 1178 888 1415 553 
Q 1653 219 2094 219 
z
M 1075 2569 
Q 1288 2803 1556 2918 
Q 1825 3034 2163 3034 
Q 2859 3034 3264 2615 
Q 3669 2197 3669 1472 
Q 3669 763 3233 336 
Q 2797 -91 2069 -91 
Q 1278 -91 853 498 
Q 428 1088 428 2181 
Q 428 3406 931 4078 
Q 1434 4750 2350 4750 
Q 2597 4750 2869 4703 
Q 3141 4656 3425 4563 
L 3425 3794 
L 3072 3794 
Q 3034 4109 2831 4275 
Q 2628 4441 2284 4441 
Q 1678 4441 1381 3981 
Q 1084 3522 1075 2569 
z
" transform="scale(0.015625)"/>
      </defs>
      <use xlink:href="#DejaVuSerif-31"/>
      <use xlink:href="#DejaVuSerif-65" x="63.623047"/>
      <use xlink:href="#DejaVuSerif-2212" x="122.802734"/>
      <use xlink:href="#DejaVuSerif-36" x="206.591797"/>
     </g>
    </g>
   </g>
   <g id="line2d_17">
    <path d="M 60.151612 53.288662 
L 60.62256 47.485078 
L 61.093508 21.416506 
L 61.564457 23.729414 
L 62.506353 33.555694 
L 63.44825 40.071377 
L 64.390146 44.437271 
L 65.332043 47.346407 
L 66.273939 49.307636 
L 67.215836 50.601648 
L 68.157732 51.488792 
L 69.099629 52.091192 
L 69.570577 52.346135 
L 72.867215 52.995002 
L 73.338163 52.995341 
L 74.28006 53.123245 
L 77.105749 53.339062 
L 77.576698 53.199335 
L 80.402387 53.123316 
L 80.873336 53.308553 
L 81.344284 53.265524 
L 81.815232 53.33999 
L 82.28618 53.194308 
L 83.699025 53.291989 
L 84.640922 53.101636 
L 85.11187 53.2735 
L 85.582818 53.13461 
L 86.524715 53.449542 
L 86.995663 53.255539 
L 87.466611 53.455023 
L 89.350404 53.249748 
L 90.292301 53.294618 
L 93.117991 53.084956 
L 94.059887 53.288628 
L 94.530835 53.219827 
L 95.472732 53.323017 
L 96.885577 53.233485 
L 97.356525 53.42213 
L 97.827473 53.18307 
L 98.76937 53.197494 
L 99.240318 53.126286 
L 99.711266 53.237704 
L 100.182215 53.221299 
L 100.653163 53.400736 
L 101.124111 53.253789 
L 102.066008 53.245572 
L 102.536956 53.244545 
L 103.007904 53.488516 
L 103.478852 53.26111 
L 103.949801 53.23954 
L 104.420749 53.365369 
L 109.130232 53.120788 
L 109.60118 53.205681 
L 110.072128 53.171185 
L 110.543076 53.295052 
L 111.955921 53.149268 
L 112.42687 53.235744 
L 113.368766 53.068543 
L 113.839714 53.425422 
L 114.310663 53.195074 
L 115.252559 53.229881 
L 115.723507 53.054523 
L 116.194456 53.254351 
L 116.665404 53.24511 
L 117.136352 53.347386 
L 117.6073 53.230037 
L 118.549197 53.34173 
L 119.020145 53.012965 
L 119.962042 53.478662 
L 120.43299 53.221039 
L 120.903938 53.120263 
L 121.374887 53.237495 
L 121.845835 53.125574 
L 122.316783 53.356422 
L 124.200576 53.126535 
L 124.671524 53.229818 
L 125.142473 53.147105 
L 126.555318 53.246567 
L 128.910059 53.140808 
L 129.381007 53.257024 
L 133.148593 53.05717 
L 133.619542 53.239962 
L 134.09049 53.163872 
L 134.561438 53.268825 
L 135.503335 53.231803 
L 135.974283 53.309815 
L 136.916179 53.127134 
L 137.858076 53.232004 
L 142.567559 53.206715 
L 143.038507 53.444227 
L 143.509455 53.382006 
L 143.980403 53.17733 
L 144.9223 53.116773 
L 145.393248 52.77242 
L 145.864196 53.25834 
L 146.806093 53.211964 
L 147.277041 53.398991 
L 147.74799 53.164769 
L 148.689886 53.104562 
L 150.102731 53.442836 
L 150.573679 53.274473 
L 151.986524 53.207298 
L 152.92842 53.207289 
L 153.870317 53.223224 
L 154.341265 53.259372 
L 155.283162 53.055958 
L 155.75411 53.22005 
L 156.225058 53.226617 
L 156.696007 53.01877 
L 157.166955 53.286906 
L 158.5798 53.248476 
L 159.050748 53.309907 
L 159.992644 53.228036 
L 161.405489 53.278526 
L 162.818334 53.135605 
L 163.289282 53.242773 
L 164.231179 53.218553 
L 165.173075 53.225879 
L 165.644024 53.15192 
L 166.58592 53.228465 
L 168.469713 53.305687 
L 168.940662 53.200772 
L 169.41161 53.287142 
L 169.882558 53.200287 
L 170.353506 53.268673 
L 170.824455 53.182692 
L 171.295403 53.255863 
L 172.708248 53.21896 
L 173.650144 53.281657 
L 175.533937 53.251136 
L 176.475834 53.339243 
L 176.946782 53.185334 
L 178.359627 53.265484 
L 178.830575 53.153949 
L 181.185317 53.253756 
L 182.127213 53.201091 
L 185.423851 53.179639 
L 185.894799 53.351045 
L 186.365747 53.208932 
L 187.307644 53.338878 
L 188.249541 53.415236 
L 188.720489 53.601852 
L 189.191437 53.284949 
L 189.662385 53.35156 
L 190.604282 52.97904 
L 191.07523 53.150997 
L 191.546178 53.002994 
L 192.017127 53.018521 
L 192.488075 53.226794 
L 192.959023 53.027749 
L 193.429971 52.621075 
L 193.90092 53.194447 
L 194.371868 52.960828 
L 195.313765 53.411127 
L 195.784713 53.246647 
L 196.255661 53.220003 
L 196.726609 53.444347 
L 197.668506 53.08448 
L 198.139454 53.557777 
L 198.610402 53.164378 
L 200.494195 53.182947 
L 200.965144 52.903439 
L 201.436092 53.161028 
L 201.90704 52.959431 
L 204.261782 53.149784 
L 205.203678 52.945141 
L 205.674626 52.950495 
L 206.145575 53.090155 
L 206.616523 52.966225 
L 207.087471 51.773582 
L 207.558419 52.871738 
L 208.500316 53.048343 
L 208.971264 53.035708 
L 209.442213 52.888905 
L 209.913161 53.119353 
L 210.384109 53.155547 
L 210.855057 53.451621 
L 211.326006 53.080498 
L 211.796954 53.218822 
L 212.267902 52.982042 
L 212.73885 53.304513 
L 213.680747 53.065072 
L 215.093592 53.234377 
L 215.56454 52.769126 
L 216.035488 53.086891 
L 216.506437 52.943483 
L 217.448333 53.15083 
L 217.919281 53.08966 
L 218.39023 53.182548 
L 220.274023 53.125848 
L 220.744971 53.167221 
L 221.215919 53.376774 
L 221.686868 53.076971 
L 222.157816 53.435662 
L 223.570661 53.140755 
L 224.041609 53.4389 
L 224.512557 53.215221 
L 224.983505 53.746632 
L 225.454454 53.160759 
L 225.925402 53.232017 
L 226.39635 53.007393 
L 226.867298 53.197421 
L 227.809195 53.170435 
L 228.280143 53.462531 
L 228.751092 53.223616 
L 229.22204 53.348325 
L 229.692988 53.207162 
L 232.047729 53.155194 
L 232.518678 53.418629 
L 232.989626 53.195136 
L 233.460574 53.270973 
L 233.931522 53.148226 
L 235.344367 53.111835 
L 235.815316 53.284982 
L 236.286264 53.289272 
L 236.757212 53.01894 
L 237.22816 53.347552 
L 237.699109 53.224519 
L 238.170057 53.253635 
L 238.641005 53.142334 
L 240.05385 53.30612 
L 241.466695 53.087699 
L 242.408591 53.263527 
L 243.350488 53.212909 
L 243.821436 53.341122 
L 244.292384 53.15737 
L 245.234281 53.220431 
L 245.705229 52.99072 
L 246.176177 53.226877 
L 246.647126 53.291273 
L 247.118074 53.229789 
L 247.589022 53.422847 
L 248.05997 53.227051 
L 250.88566 53.240964 
L 251.356608 53.062255 
L 251.827557 53.211762 
L 252.769453 53.244048 
L 254.653246 53.32674 
L 255.595143 53.181253 
L 259.362729 53.25064 
L 259.833677 53.413344 
L 260.304625 53.230852 
L 260.775574 53.45259 
L 261.246522 53.220804 
L 261.71747 53.580815 
L 262.188418 52.975506 
L 262.659367 53.146766 
L 265.485056 53.466004 
L 265.956005 53.219636 
L 268.781694 53.227272 
L 269.252642 53.504593 
L 269.723591 53.46608 
L 270.194539 53.284034 
L 272.54928 53.216119 
L 274.433073 53.332189 
L 274.904022 53.260297 
L 275.37497 53.406559 
L 275.845918 53.218998 
L 279.142556 53.229686 
L 279.613504 53.18223 
L 280.555401 53.348035 
L 281.026349 53.231815 
L 281.968246 53.256379 
L 282.439194 53.092238 
L 282.910142 53.211299 
L 283.381091 52.915836 
L 283.852039 53.211492 
L 284.322987 53.123716 
L 284.793935 53.261046 
L 285.264884 52.960761 
L 285.735832 53.281771 
L 286.20678 53.250518 
L 287.148677 53.376993 
L 288.090573 53.24169 
L 288.561521 53.547347 
L 289.03247 53.251741 
L 289.503418 53.590356 
L 289.974366 53.209291 
L 294.683849 53.248526 
L 294.683849 53.248526 
" clip-path="url(#pc18404fbff)" style="fill: none; stroke: #e24a33; stroke-linecap: square"/>
   </g>
   <g id="patch_3">
    <path d="M 48.425 55.363138 
L 48.425 19.8 
" style="fill: none; stroke: #ffffff; stroke-linejoin: miter; stroke-linecap: square"/>
   </g>
   <g id="patch_4">
    <path d="M 306.410461 55.363138 
L 306.410461 19.8 
" style="fill: none; stroke: #ffffff; stroke-linejoin: miter; stroke-linecap: square"/>
   </g>
   <g id="patch_5">
    <path d="M 48.425 55.363138 
L 306.410461 55.363138 
" style="fill: none; stroke: #ffffff; stroke-linejoin: miter; stroke-linecap: square"/>
   </g>
   <g id="patch_6">
    <path d="M 48.425 19.8 
L 306.410461 19.8 
" style="fill: none; stroke: #ffffff; stroke-linejoin: miter; stroke-linecap: square"/>
   </g>
  </g>
 </g>
 <defs>
  <clipPath id="pc18404fbff">
   <rect x="48.425" y="19.8" width="257.985461" height="35.563138"/>
  </clipPath>
 </defs>
</svg>
