<?xml version="1.0" encoding="utf-8" standalone="no"?>
<!DOCTYPE svg PUBLIC "-//W3C//DTD SVG 1.1//EN"
  "http://www.w3.org/Graphics/SVG/1.1/DTD/svg11.dtd">
<svg xmlns:xlink="http://www.w3.org/1999/xlink" width="223.228364pt" height="137.962716pt" viewBox="0 0 223.228364 137.962716" xmlns="http://www.w3.org/2000/svg" version="1.1">
 <metadata>
  <rdf:RDF xmlns:dc="http://purl.org/dc/elements/1.1/" xmlns:cc="http://creativecommons.org/ns#" xmlns:rdf="http://www.w3.org/1999/02/22-rdf-syntax-ns#">
   <cc:Work>
    <dc:type rdf:resource="http://purl.org/dc/dcmitype/StillImage"/>
    <dc:date>1980-01-01T00:00:00+00:00</dc:date>
    <dc:format>image/svg+xml</dc:format>
    <dc:creator>
     <cc:Agent>
      <dc:title>Matplotlib v3.5.2, https://matplotlib.org/</dc:title>
     </cc:Agent>
    </dc:creator>
   </cc:Work>
  </rdf:RDF>
 </metadata>
 <defs>
  <style type="text/css">*{stroke-linejoin: round; stroke-linecap: butt}</style>
 </defs>
 <g id="figure_1">
  <g id="patch_1">
   <path d="M 0 137.962716 
L 223.228364 137.962716 
L 223.228364 0 
L 0 0 
z
" style="fill: #ffffff"/>
  </g>
  <g id="axes_1">
   <g id="patch_2">
    <path d="M 50.175 98.162716 
L 207.365864 98.162716 
L 207.365864 10.8 
L 50.175 10.8 
z
" style="fill: #e5e5e5"/>
   </g>
   <g id="matplotlib.axis_1">
    <g id="xtick_1">
     <g id="line2d_1">
      <path d="M 50.175 98.162716 
L 50.175 10.8 
" clip-path="url(#p857acfc1ad)" style="fill: none; stroke: #ffffff; stroke-width: 0.8; stroke-linecap: square"/>
     </g>
     <g id="line2d_2">
      <defs>
       <path id="m80cdffeaf3" d="M 0 0 
L 0 3.5 
" style="stroke: #555555; stroke-width: 0.8"/>
      </defs>
      <g>
       <use xlink:href="#m80cdffeaf3" x="50.175" y="98.162716" style="fill: #555555; stroke: #555555; stroke-width: 0.8"/>
      </g>
     </g>
     <g id="text_1">
      <!-- 0 -->
      <g style="fill: #555555" transform="translate(47.63 111.241466)scale(0.08 -0.08)">
       <defs>
        <path id="DejaVuSerif-30" d="M 2034 219 
Q 2513 219 2750 744 
Q 2988 1269 2988 2328 
Q 2988 3391 2750 3916 
Q 2513 4441 2034 4441 
Q 1556 4441 1318 3916 
Q 1081 3391 1081 2328 
Q 1081 1269 1318 744 
Q 1556 219 2034 219 
z
M 2034 -91 
Q 1275 -91 848 546 
Q 422 1184 422 2328 
Q 422 3475 848 4112 
Q 1275 4750 2034 4750 
Q 2797 4750 3222 4112 
Q 3647 3475 3647 2328 
Q 3647 1184 3222 546 
Q 2797 -91 2034 -91 
z
" transform="scale(0.015625)"/>
       </defs>
       <use xlink:href="#DejaVuSerif-30"/>
      </g>
     </g>
    </g>
    <g id="xtick_2">
     <g id="line2d_3">
      <path d="M 81.613173 98.162716 
L 81.613173 10.8 
" clip-path="url(#p857acfc1ad)" style="fill: none; stroke: #ffffff; stroke-width: 0.8; stroke-linecap: square"/>
     </g>
     <g id="line2d_4">
      <g>
       <use xlink:href="#m80cdffeaf3" x="81.613173" y="98.162716" style="fill: #555555; stroke: #555555; stroke-width: 0.8"/>
      </g>
     </g>
     <g id="text_2">
      <!-- 2 -->
      <g style="fill: #555555" transform="translate(79.068173 111.241466)scale(0.08 -0.08)">
       <defs>
        <path id="DejaVuSerif-32" d="M 819 3553 
L 469 3553 
L 469 4384 
Q 803 4563 1142 4656 
Q 1481 4750 1806 4750 
Q 2534 4750 2956 4397 
Q 3378 4044 3378 3438 
Q 3378 2753 2422 1800 
Q 2347 1728 2309 1691 
L 1131 513 
L 3078 513 
L 3078 1088 
L 3444 1088 
L 3444 0 
L 434 0 
L 434 341 
L 1850 1753 
Q 2319 2222 2519 2614 
Q 2719 3006 2719 3438 
Q 2719 3909 2473 4175 
Q 2228 4441 1797 4441 
Q 1350 4441 1106 4219 
Q 863 3997 819 3553 
z
" transform="scale(0.015625)"/>
       </defs>
       <use xlink:href="#DejaVuSerif-32"/>
      </g>
     </g>
    </g>
    <g id="xtick_3">
     <g id="line2d_5">
      <path d="M 113.051345 98.162716 
L 113.051345 10.8 
" clip-path="url(#p857acfc1ad)" style="fill: none; stroke: #ffffff; stroke-width: 0.8; stroke-linecap: square"/>
     </g>
     <g id="line2d_6">
      <g>
       <use xlink:href="#m80cdffeaf3" x="113.051345" y="98.162716" style="fill: #555555; stroke: #555555; stroke-width: 0.8"/>
      </g>
     </g>
     <g id="text_3">
      <!-- 4 -->
      <g style="fill: #555555" transform="translate(110.506345 111.241466)scale(0.08 -0.08)">
       <defs>
        <path id="DejaVuSerif-34" d="M 2234 1581 
L 2234 4063 
L 641 1581 
L 2234 1581 
z
M 3609 0 
L 1484 0 
L 1484 331 
L 2234 331 
L 2234 1247 
L 197 1247 
L 197 1588 
L 2241 4750 
L 2859 4750 
L 2859 1581 
L 3750 1581 
L 3750 1247 
L 2859 1247 
L 2859 331 
L 3609 331 
L 3609 0 
z
" transform="scale(0.015625)"/>
       </defs>
       <use xlink:href="#DejaVuSerif-34"/>
      </g>
     </g>
    </g>
    <g id="xtick_4">
     <g id="line2d_7">
      <path d="M 144.489518 98.162716 
L 144.489518 10.8 
" clip-path="url(#p857acfc1ad)" style="fill: none; stroke: #ffffff; stroke-width: 0.8; stroke-linecap: square"/>
     </g>
     <g id="line2d_8">
      <g>
       <use xlink:href="#m80cdffeaf3" x="144.489518" y="98.162716" style="fill: #555555; stroke: #555555; stroke-width: 0.8"/>
      </g>
     </g>
     <g id="text_4">
      <!-- 6 -->
      <g style="fill: #555555" transform="translate(141.944518 111.241466)scale(0.08 -0.08)">
       <defs>
        <path id="DejaVuSerif-36" d="M 2094 219 
Q 2534 219 2771 542 
Q 3009 866 3009 1472 
Q 3009 2078 2771 2401 
Q 2534 2725 2094 2725 
Q 1647 2725 1412 2412 
Q 1178 2100 1178 1509 
Q 1178 888 1415 553 
Q 1653 219 2094 219 
z
M 1075 2569 
Q 1288 2803 1556 2918 
Q 1825 3034 2163 3034 
Q 2859 3034 3264 2615 
Q 3669 2197 3669 1472 
Q 3669 763 3233 336 
Q 2797 -91 2069 -91 
Q 1278 -91 853 498 
Q 428 1088 428 2181 
Q 428 3406 931 4078 
Q 1434 4750 2350 4750 
Q 2597 4750 2869 4703 
Q 3141 4656 3425 4563 
L 3425 3794 
L 3072 3794 
Q 3034 4109 2831 4275 
Q 2628 4441 2284 4441 
Q 1678 4441 1381 3981 
Q 1084 3522 1075 2569 
z
" transform="scale(0.015625)"/>
       </defs>
       <use xlink:href="#DejaVuSerif-36"/>
      </g>
     </g>
    </g>
    <g id="xtick_5">
     <g id="line2d_9">
      <path d="M 175.927691 98.162716 
L 175.927691 10.8 
" clip-path="url(#p857acfc1ad)" style="fill: none; stroke: #ffffff; stroke-width: 0.8; stroke-linecap: square"/>
     </g>
     <g id="line2d_10">
      <g>
       <use xlink:href="#m80cdffeaf3" x="175.927691" y="98.162716" style="fill: #555555; stroke: #555555; stroke-width: 0.8"/>
      </g>
     </g>
     <g id="text_5">
      <!-- 8 -->
      <g style="fill: #555555" transform="translate(173.382691 111.241466)scale(0.08 -0.08)">
       <defs>
        <path id="DejaVuSerif-38" d="M 2981 1275 
Q 2981 1775 2732 2051 
Q 2484 2328 2034 2328 
Q 1584 2328 1336 2051 
Q 1088 1775 1088 1275 
Q 1088 772 1336 495 
Q 1584 219 2034 219 
Q 2484 219 2732 495 
Q 2981 772 2981 1275 
z
M 2853 3541 
Q 2853 3966 2637 4203 
Q 2422 4441 2034 4441 
Q 1650 4441 1433 4203 
Q 1216 3966 1216 3541 
Q 1216 3113 1433 2875 
Q 1650 2638 2034 2638 
Q 2422 2638 2637 2875 
Q 2853 3113 2853 3541 
z
M 2516 2484 
Q 3047 2413 3344 2092 
Q 3641 1772 3641 1275 
Q 3641 619 3225 264 
Q 2809 -91 2034 -91 
Q 1263 -91 845 264 
Q 428 619 428 1275 
Q 428 1772 725 2092 
Q 1022 2413 1556 2484 
Q 1084 2569 832 2842 
Q 581 3116 581 3541 
Q 581 4103 968 4426 
Q 1356 4750 2034 4750 
Q 2713 4750 3100 4426 
Q 3488 4103 3488 3541 
Q 3488 3116 3236 2842 
Q 2984 2569 2516 2484 
z
" transform="scale(0.015625)"/>
       </defs>
       <use xlink:href="#DejaVuSerif-38"/>
      </g>
     </g>
    </g>
    <g id="xtick_6">
     <g id="line2d_11">
      <path d="M 207.365864 98.162716 
L 207.365864 10.8 
" clip-path="url(#p857acfc1ad)" style="fill: none; stroke: #ffffff; stroke-width: 0.8; stroke-linecap: square"/>
     </g>
     <g id="line2d_12">
      <g>
       <use xlink:href="#m80cdffeaf3" x="207.365864" y="98.162716" style="fill: #555555; stroke: #555555; stroke-width: 0.8"/>
      </g>
     </g>
     <g id="text_6">
      <!-- 10 -->
      <g style="fill: #555555" transform="translate(202.275864 111.241466)scale(0.08 -0.08)">
       <defs>
        <path id="DejaVuSerif-31" d="M 909 0 
L 909 331 
L 1722 331 
L 1722 4213 
L 781 3603 
L 781 4013 
L 1919 4750 
L 2350 4750 
L 2350 331 
L 3163 331 
L 3163 0 
L 909 0 
z
" transform="scale(0.015625)"/>
       </defs>
       <use xlink:href="#DejaVuSerif-31"/>
       <use xlink:href="#DejaVuSerif-30" x="63.623047"/>
      </g>
     </g>
    </g>
    <g id="text_7">
     <!-- $\tau$ -->
     <g style="fill: #555555" transform="translate(125.720432 124.503653)scale(0.1 -0.1)">
      <defs>
       <path id="DejaVuSans-Oblique-3c4" d="M 2103 638 
Q 2188 488 2525 488 
L 2800 488 
L 2706 0 
L 2363 0 
Q 1800 0 1600 300 
Q 1403 606 1534 1269 
L 1856 2925 
L 541 2925 
L 653 3500 
L 3881 3500 
L 3769 2925 
L 2444 2925 
L 2113 1234 
Q 2025 781 2103 638 
z
" transform="scale(0.015625)"/>
      </defs>
      <use xlink:href="#DejaVuSans-Oblique-3c4" transform="translate(0 0.3125)"/>
     </g>
    </g>
   </g>
   <g id="matplotlib.axis_2">
    <g id="ytick_1">
     <g id="line2d_13">
      <path d="M 50.175 78.881559 
L 207.365864 78.881559 
" clip-path="url(#p857acfc1ad)" style="fill: none; stroke: #ffffff; stroke-width: 0.8; stroke-linecap: square"/>
     </g>
     <g id="line2d_14">
      <defs>
       <path id="mcdd8aab652" d="M 0 0 
L -3.5 0 
" style="stroke: #555555; stroke-width: 0.8"/>
      </defs>
      <g>
       <use xlink:href="#mcdd8aab652" x="50.175" y="78.881559" style="fill: #555555; stroke: #555555; stroke-width: 0.8"/>
      </g>
     </g>
     <g id="text_8">
      <!-- −0.4 -->
      <g style="fill: #555555" transform="translate(23.74875 81.920934)scale(0.08 -0.08)">
       <defs>
        <path id="DejaVuSerif-2212" d="M 678 2259 
L 4684 2259 
L 4684 1753 
L 678 1753 
L 678 2259 
z
" transform="scale(0.015625)"/>
        <path id="DejaVuSerif-2e" d="M 603 325 
Q 603 500 722 622 
Q 841 744 1019 744 
Q 1191 744 1312 622 
Q 1434 500 1434 325 
Q 1434 153 1312 31 
Q 1191 -91 1019 -91 
Q 841 -91 722 29 
Q 603 150 603 325 
z
" transform="scale(0.015625)"/>
       </defs>
       <use xlink:href="#DejaVuSerif-2212"/>
       <use xlink:href="#DejaVuSerif-30" x="83.789062"/>
       <use xlink:href="#DejaVuSerif-2e" x="147.412109"/>
       <use xlink:href="#DejaVuSerif-34" x="179.199219"/>
      </g>
     </g>
    </g>
    <g id="ytick_2">
     <g id="line2d_15">
      <path d="M 50.175 59.155074 
L 207.365864 59.155074 
" clip-path="url(#p857acfc1ad)" style="fill: none; stroke: #ffffff; stroke-width: 0.8; stroke-linecap: square"/>
     </g>
     <g id="line2d_16">
      <g>
       <use xlink:href="#mcdd8aab652" x="50.175" y="59.155074" style="fill: #555555; stroke: #555555; stroke-width: 0.8"/>
      </g>
     </g>
     <g id="text_9">
      <!-- −0.2 -->
      <g style="fill: #555555" transform="translate(23.74875 62.194449)scale(0.08 -0.08)">
       <use xlink:href="#DejaVuSerif-2212"/>
       <use xlink:href="#DejaVuSerif-30" x="83.789062"/>
       <use xlink:href="#DejaVuSerif-2e" x="147.412109"/>
       <use xlink:href="#DejaVuSerif-32" x="179.199219"/>
      </g>
     </g>
    </g>
    <g id="ytick_3">
     <g id="line2d_17">
      <path d="M 50.175 39.42859 
L 207.365864 39.42859 
" clip-path="url(#p857acfc1ad)" style="fill: none; stroke: #ffffff; stroke-width: 0.8; stroke-linecap: square"/>
     </g>
     <g id="line2d_18">
      <g>
       <use xlink:href="#mcdd8aab652" x="50.175" y="39.42859" style="fill: #555555; stroke: #555555; stroke-width: 0.8"/>
      </g>
     </g>
     <g id="text_10">
      <!-- 0.0 -->
      <g style="fill: #555555" transform="translate(30.4525 42.467965)scale(0.08 -0.08)">
       <use xlink:href="#DejaVuSerif-30"/>
       <use xlink:href="#DejaVuSerif-2e" x="63.623047"/>
       <use xlink:href="#DejaVuSerif-30" x="95.410156"/>
      </g>
     </g>
    </g>
    <g id="ytick_4">
     <g id="line2d_19">
      <path d="M 50.175 19.702105 
L 207.365864 19.702105 
" clip-path="url(#p857acfc1ad)" style="fill: none; stroke: #ffffff; stroke-width: 0.8; stroke-linecap: square"/>
     </g>
     <g id="line2d_20">
      <g>
       <use xlink:href="#mcdd8aab652" x="50.175" y="19.702105" style="fill: #555555; stroke: #555555; stroke-width: 0.8"/>
      </g>
     </g>
     <g id="text_11">
      <!-- 0.2 -->
      <g style="fill: #555555" transform="translate(30.4525 22.74148)scale(0.08 -0.08)">
       <use xlink:href="#DejaVuSerif-30"/>
       <use xlink:href="#DejaVuSerif-2e" x="63.623047"/>
       <use xlink:href="#DejaVuSerif-32" x="95.410156"/>
      </g>
     </g>
    </g>
    <g id="text_12">
     <!-- Energy -->
     <g style="fill: #555555" transform="translate(17.526875 72.72667)rotate(-90)scale(0.1 -0.1)">
      <defs>
       <path id="DejaVuSerif-45" d="M 353 0 
L 353 331 
L 947 331 
L 947 4331 
L 353 4331 
L 353 4666 
L 4109 4666 
L 4109 3628 
L 3725 3628 
L 3725 4281 
L 1581 4281 
L 1581 2719 
L 3109 2719 
L 3109 3303 
L 3494 3303 
L 3494 1753 
L 3109 1753 
L 3109 2338 
L 1581 2338 
L 1581 384 
L 3775 384 
L 3775 1038 
L 4159 1038 
L 4159 0 
L 353 0 
z
" transform="scale(0.015625)"/>
       <path id="DejaVuSerif-6e" d="M 263 0 
L 263 331 
L 781 331 
L 781 2988 
L 231 2988 
L 231 3322 
L 1356 3322 
L 1356 2731 
Q 1516 3069 1770 3241 
Q 2025 3413 2363 3413 
Q 2913 3413 3172 3097 
Q 3431 2781 3431 2113 
L 3431 331 
L 3944 331 
L 3944 0 
L 2356 0 
L 2356 331 
L 2853 331 
L 2853 1931 
Q 2853 2541 2703 2767 
Q 2553 2994 2175 2994 
Q 1775 2994 1565 2701 
Q 1356 2409 1356 1850 
L 1356 331 
L 1856 331 
L 1856 0 
L 263 0 
z
" transform="scale(0.015625)"/>
       <path id="DejaVuSerif-65" d="M 3469 1600 
L 991 1600 
L 991 1575 
Q 991 903 1244 561 
Q 1497 219 1991 219 
Q 2369 219 2611 417 
Q 2853 616 2950 1006 
L 3413 1006 
Q 3275 459 2904 184 
Q 2534 -91 1931 -91 
Q 1203 -91 761 389 
Q 319 869 319 1663 
Q 319 2450 753 2931 
Q 1188 3413 1894 3413 
Q 2647 3413 3050 2948 
Q 3453 2484 3469 1600 
z
M 2791 1931 
Q 2772 2513 2545 2808 
Q 2319 3103 1894 3103 
Q 1497 3103 1269 2806 
Q 1041 2509 991 1931 
L 2791 1931 
z
" transform="scale(0.015625)"/>
       <path id="DejaVuSerif-72" d="M 3059 3328 
L 3059 2497 
L 2728 2497 
Q 2713 2744 2591 2866 
Q 2469 2988 2234 2988 
Q 1809 2988 1582 2694 
Q 1356 2400 1356 1850 
L 1356 331 
L 2022 331 
L 2022 0 
L 263 0 
L 263 331 
L 781 331 
L 781 2994 
L 231 2994 
L 231 3322 
L 1356 3322 
L 1356 2731 
Q 1525 3078 1790 3245 
Q 2056 3413 2438 3413 
Q 2578 3413 2733 3391 
Q 2888 3369 3059 3328 
z
" transform="scale(0.015625)"/>
       <path id="DejaVuSerif-67" d="M 3359 2988 
L 3359 72 
Q 3359 -644 2965 -1033 
Q 2572 -1422 1844 -1422 
Q 1516 -1422 1216 -1362 
Q 916 -1303 641 -1184 
L 641 -488 
L 941 -488 
Q 997 -813 1206 -963 
Q 1416 -1113 1806 -1113 
Q 2313 -1113 2548 -827 
Q 2784 -541 2784 72 
L 2784 519 
Q 2616 206 2355 57 
Q 2094 -91 1709 -91 
Q 1097 -91 708 395 
Q 319 881 319 1663 
Q 319 2444 706 2928 
Q 1094 3413 1709 3413 
Q 2094 3413 2355 3264 
Q 2616 3116 2784 2803 
L 2784 3322 
L 3909 3322 
L 3909 2988 
L 3359 2988 
z
M 2784 1825 
Q 2784 2422 2554 2737 
Q 2325 3053 1888 3053 
Q 1444 3053 1217 2703 
Q 991 2353 991 1663 
Q 991 975 1217 622 
Q 1444 269 1888 269 
Q 2325 269 2554 583 
Q 2784 897 2784 1497 
L 2784 1825 
z
" transform="scale(0.015625)"/>
       <path id="DejaVuSerif-79" d="M 1381 -609 
L 1600 -56 
L 359 2988 
L -19 2988 
L -19 3322 
L 1509 3322 
L 1509 2988 
L 978 2988 
L 1913 703 
L 2847 2988 
L 2350 2988 
L 2350 3322 
L 3597 3322 
L 3597 2988 
L 3225 2988 
L 1703 -750 
Q 1547 -1138 1356 -1280 
Q 1166 -1422 819 -1422 
Q 672 -1422 517 -1397 
Q 363 -1372 206 -1325 
L 206 -691 
L 500 -691 
Q 519 -903 608 -995 
Q 697 -1088 884 -1088 
Q 1056 -1088 1161 -992 
Q 1266 -897 1381 -609 
z
" transform="scale(0.015625)"/>
      </defs>
      <use xlink:href="#DejaVuSerif-45"/>
      <use xlink:href="#DejaVuSerif-6e" x="72.998047"/>
      <use xlink:href="#DejaVuSerif-65" x="137.402344"/>
      <use xlink:href="#DejaVuSerif-72" x="196.582031"/>
      <use xlink:href="#DejaVuSerif-67" x="244.384766"/>
      <use xlink:href="#DejaVuSerif-79" x="308.398438"/>
     </g>
    </g>
   </g>
   <g id="PolyCollection_1">
    <path d="M 50.175 39.42859 
L 50.175 39.42859 
L 50.768189 39.428602 
L 51.361378 39.429427 
L 51.954566 39.43813 
L 52.547755 39.480668 
L 53.140944 39.617621 
L 53.734133 39.955418 
L 54.327321 40.644877 
L 54.92051 41.861818 
L 55.513699 43.770679 
L 56.106888 46.479028 
L 56.700077 49.995681 
L 57.293265 54.20515 
L 57.886454 58.865048 
L 58.479643 63.624097 
L 59.072832 68.054928 
L 59.666021 71.700759 
L 60.259209 74.136917 
L 60.852398 75.040382 
L 61.445587 74.252299 
L 62.038776 71.81572 
L 62.631964 67.974729 
L 63.225153 63.134402 
L 63.818342 57.796078 
L 64.411531 52.484949 
L 65.00472 47.67937 
L 65.597908 43.747501 
L 66.191097 40.899953 
L 66.784286 39.168692 
L 67.377475 38.417958 
L 67.970664 38.385192 
L 68.563852 38.742959 
L 69.157041 39.169281 
L 69.75023 39.413703 
L 69.928186 39.42859 
L 70.343419 39.347958 
L 70.936607 38.992505 
L 71.529796 38.513985 
L 72.122985 38.194305 
L 72.716174 38.377326 
L 73.309363 39.402214 
L 73.902551 41.533935 
L 74.49574 44.902521 
L 75.088929 49.463169 
L 75.682118 54.986252 
L 76.275306 61.07917 
L 76.868495 67.233845 
L 77.461684 72.889401 
L 78.054873 77.500576 
L 78.648062 80.605817 
L 79.24125 81.889818 
L 79.834439 81.230308 
L 80.427628 78.714148 
L 81.020817 74.616007 
L 81.614006 69.349618 
L 82.207194 63.408193 
L 82.800383 57.305366 
L 83.393572 51.521944 
L 83.986761 46.460817 
L 84.579949 42.411337 
L 85.173138 39.524679 
L 85.766327 37.803255 
L 86.359516 37.108792 
L 86.952705 37.192101 
L 87.545893 37.742135 
L 88.139082 38.445404 
L 88.732271 39.043353 
L 89.32546 39.376443 
L 89.681373 39.42859 
L 89.918649 39.407965 
L 90.511837 39.225356 
L 91.105026 39.020309 
L 91.698215 39.051462 
L 92.291404 39.595537 
L 92.884592 40.894818 
L 93.477781 43.109691 
L 94.07097 46.284074 
L 94.664159 50.328897 
L 95.257348 55.025319 
L 95.850536 60.046651 
L 96.443725 64.996431 
L 97.036914 69.458672 
L 97.630103 73.052935 
L 98.223291 75.481951 
L 98.81648 76.558714 
L 99.409669 76.209692 
L 100.002858 74.466324 
L 100.596047 71.460562 
L 101.189235 67.424316 
L 101.782424 62.678685 
L 102.375613 57.604453 
L 102.968802 52.598811 
L 103.561991 48.02788 
L 104.155179 44.182506 
L 104.748368 41.244763 
L 105.341557 39.27226 
L 105.934746 38.202513 
L 106.527934 37.874392 
L 107.121123 38.061488 
L 107.714312 38.512492 
L 108.307501 38.993744 
L 108.90069 39.328557 
L 109.434559 39.42859 
L 109.493878 39.427413 
L 110.087067 39.303815 
L 110.680256 39.072593 
L 111.273445 38.930601 
L 111.866634 39.123003 
L 112.459822 39.900436 
L 113.053011 41.47293 
L 113.6462 43.96646 
L 114.239389 47.389075 
L 114.832577 51.61485 
L 115.425766 56.392298 
L 116.018955 61.376963 
L 116.612144 66.178822 
L 117.205333 70.410648 
L 117.798521 73.72737 
L 118.39171 75.854703 
L 118.984899 76.609807 
L 119.578088 75.91573 
L 120.171276 73.81036 
L 120.764465 70.450325 
L 121.357654 66.106387 
L 121.950843 61.142868 
L 122.544032 55.977226 
L 123.13722 51.025562 
L 123.730409 46.647205 
L 124.323598 43.101515 
L 124.916787 40.52362 
L 125.509976 38.919071 
L 126.103164 38.175334 
L 126.696353 38.088667 
L 127.289542 38.404035 
L 127.882731 38.862532 
L 128.475919 39.247892 
L 129.069108 39.423587 
L 129.187746 39.42859 
L 129.662297 39.354534 
L 130.255486 39.110884 
L 130.848675 38.854316 
L 131.441863 38.809553 
L 132.035052 39.225787 
L 132.628241 40.333899 
L 133.22143 42.305163 
L 133.814618 45.216278 
L 134.407807 49.025451 
L 135.000996 53.564614 
L 135.594185 58.551668 
L 136.187374 63.622281 
L 136.780562 68.37433 
L 137.373751 72.414086 
L 137.96694 75.395787 
L 138.560129 77.053046 
L 139.153318 77.22501 
L 139.746506 75.877759 
L 140.339695 73.11506 
L 140.932884 69.171188 
L 141.526073 64.384963 
L 142.119261 59.161407 
L 142.71245 53.928073 
L 143.305639 49.088589 
L 143.898828 44.975315 
L 144.492017 41.807787 
L 145.085205 39.667133 
L 145.678394 38.494431 
L 146.271583 38.113859 
L 146.864772 38.274056 
L 147.457961 38.698055 
L 148.051149 39.133208 
L 148.644338 39.394489 
L 148.940932 39.42859 
L 149.237527 39.395629 
L 149.830716 39.163385 
L 150.423904 38.832216 
L 151.017093 38.619979 
L 151.610282 38.789211 
L 152.203471 39.601403 
L 152.79666 41.27185 
L 153.389848 43.930248 
L 153.983037 47.589597 
L 154.576226 52.125964 
L 155.169415 57.274351 
L 155.762603 62.647766 
L 156.355792 67.78332 
L 156.948981 72.210156 
L 157.54217 75.523056 
L 158.135359 77.44044 
L 158.728547 77.831489 
L 159.321736 76.711765 
L 159.914925 74.219335 
L 160.508114 70.585337 
L 161.101303 66.107579 
L 161.694491 61.129174 
L 162.28768 56.017688 
L 162.880869 51.13828 
L 163.474058 46.818777 
L 164.067246 43.310689 
L 164.660435 40.755039 
L 165.253624 39.163914 
L 165.846813 38.425309 
L 166.440002 38.331058 
L 167.03319 38.620546 
L 167.626379 39.03056 
L 168.219568 39.342885 
L 168.694119 39.42859 
L 168.812757 39.423174 
L 169.405946 39.245661 
L 169.999134 38.899386 
L 170.592323 38.574041 
L 171.185512 38.52712 
L 171.778701 39.037665 
L 172.371889 40.354457 
L 172.965078 42.647612 
L 173.558267 45.971783 
L 174.151456 50.246699 
L 174.744645 55.257042 
L 175.337833 60.669985 
L 175.931022 66.06672 
L 176.524211 70.985287 
L 177.1174 74.974243 
L 177.710588 77.65355 
L 178.303777 78.769563 
L 178.896966 78.228087 
L 179.490155 76.099281 
L 180.083344 72.599075 
L 180.676532 68.055268 
L 181.269721 62.866412 
L 181.86291 57.46005 
L 182.456099 52.252653 
L 183.049288 47.610027 
L 183.642476 43.809147 
L 184.235665 41.007338 
L 184.828854 39.226723 
L 185.422043 38.359735 
L 186.015231 38.196532 
L 186.60842 38.469289 
L 187.201609 38.904361 
L 187.794798 39.272304 
L 188.387987 39.427289 
L 188.447305 39.42859 
L 188.981175 39.330208 
L 189.574364 39.052848 
L 190.167553 38.763152 
L 190.760742 38.69397 
L 191.353931 39.100392 
L 191.947119 40.213273 
L 192.540308 42.197286 
L 193.133497 45.120118 
L 193.726686 48.935869 
L 194.319874 53.482622 
L 194.913063 58.492614 
L 195.506252 63.613056 
L 196.099441 68.436838 
L 196.69263 72.544152 
L 197.285818 75.553945 
L 197.879007 77.176454 
L 198.472196 77.253107 
L 199.065385 75.774897 
L 199.658573 72.87921 
L 200.251762 68.829622 
L 200.844951 63.98424 
L 201.43814 58.75706 
L 202.031329 53.574085 
L 202.624517 48.826221 
L 203.217706 44.824588 
L 203.810895 41.765822 
L 204.404084 39.713504 
L 204.997273 38.599341 
L 205.590461 38.244865 
L 206.18365 38.400602 
L 206.776839 38.795656 
L 207.370028 39.188291 
L 207.963216 39.40839 
L 208.200492 39.42859 
L 208.556405 39.385164 
L 209.149594 39.156831 
L 209.742783 38.86181 
L 210.335972 38.713316 
L 210.92916 38.961462 
L 211.522349 39.849106 
L 212.115538 41.568579 
L 212.708727 44.225677 
L 213.301916 47.814976 
L 213.895104 52.208394 
L 214.488293 57.15854 
L 215.081482 62.318401 
L 215.674671 67.276539 
L 216.267859 71.603285 
L 216.861048 74.90262 
L 217.454237 76.864074 
L 218.047426 77.304328 
L 218.640615 76.187272 
L 219.233803 73.620865 
L 219.826992 69.838427 
L 220.420181 65.172041 
L 221.01337 60.019935 
L 221.606558 54.806394 
L 222.199747 49.935258 
L 222.792936 45.742319 
L 223.386125 42.454767 
L 223.979314 40.166651 
L 224.572502 38.836605 
L 225.165691 38.308265 
L 225.75888 38.348065 
L 226.352069 38.692233 
L 226.945258 39.094733 
L 227.538446 39.369035 
L 227.953678 39.42859 
L 228.131635 39.417904 
L 228.724824 39.247202 
L 229.318013 38.962257 
L 229.911201 38.748411 
L 230.50439 38.839557 
L 231.097579 39.479374 
L 231.690768 40.879896 
L 232.283957 43.181999 
L 232.877145 46.422974 
L 233.470334 50.517075 
L 234.063523 55.254204 
L 234.656712 60.318417 
L 235.249901 65.322593 
L 235.843089 69.852332 
L 236.436278 73.513396 
L 237.029467 75.978538 
L 237.622656 77.027064 
L 238.215844 76.568688 
L 238.809033 74.648249 
L 239.402222 71.435649 
L 239.995411 67.207618 
L 240.5886 62.322608 
L 241.181788 57.185644 
L 241.774977 52.203484 
L 242.368166 47.737086 
L 242.961355 44.059627 
L 243.554543 41.32633 
L 244.147732 39.561324 
L 244.740921 38.664981 
L 245.33411 38.441079 
L 245.927299 38.638685 
L 246.520487 39.000734 
L 247.113676 39.310527 
L 247.706865 39.42859 
L 248.300054 39.314794 
L 248.893243 39.033343 
L 249.486431 38.740488 
L 250.07962 38.65674 
L 250.672809 39.027293 
L 251.265998 40.07669 
L 251.859186 41.965941 
L 252.452375 44.760805 
L 253.045564 48.41732 
L 253.638753 52.785129 
L 254.231942 57.623827 
L 254.82513 62.625753 
L 255.418319 67.440223 
L 256.011508 71.697013 
L 256.604697 75.031415 
L 257.197886 77.11863 
L 257.791074 77.721582 
L 258.384263 76.739923 
L 258.977452 74.237511 
L 259.570641 70.436738 
L 260.163829 65.686992 
L 260.757018 60.41941 
L 261.350207 55.093638 
L 261.943396 50.13982 
L 262.536585 45.903837 
L 263.129773 42.607269 
L 263.722962 40.329994 
L 264.316151 39.016035 
L 264.90934 38.498187 
L 265.502528 38.535612 
L 266.095717 38.858747 
L 266.688906 39.215997 
L 267.282095 39.41644 
L 267.460051 39.42859 
L 267.875284 39.362609 
L 268.468472 39.068007 
L 269.061661 38.656132 
L 269.65485 38.340989 
L 270.248039 38.392074 
L 270.841228 39.088691 
L 271.434416 40.669618 
L 272.027605 43.28531 
L 272.620794 46.96073 
L 273.213983 51.57622 
L 273.807171 56.870563 
L 274.40036 62.465543 
L 274.993549 67.906841 
L 275.586738 72.715019 
L 276.179927 76.441675 
L 276.773115 78.725151 
L 277.366304 79.337617 
L 277.959493 78.216379 
L 278.552682 75.474809 
L 279.14587 71.388714 
L 279.739059 66.357111 
L 280.332248 60.845191 
L 280.925437 55.323559 
L 281.518626 50.215278 
L 282.111814 45.854892 
L 282.705003 42.459487 
L 283.298192 40.112571 
L 283.891381 38.763603 
L 284.48457 38.245968 
L 285.077758 38.312968 
L 285.670947 38.686245 
L 286.264136 39.107105 
L 286.857325 39.380918 
L 287.213238 39.42859 
L 287.450513 39.407797 
L 288.043702 39.196565 
L 288.636891 38.861441 
L 289.23008 38.60188 
L 289.823269 38.667683 
L 290.416457 39.314912 
L 291.009646 40.761511 
L 291.602835 43.151054 
L 292.196024 46.527746 
L 292.789213 50.820174 
L 293.382401 55.831033 
L 293.97559 61.235625 
L 294.568779 66.598284 
L 295.161968 71.416997 
L 295.755156 75.197871 
L 296.348345 77.543723 
L 296.941534 78.226651 
L 297.534723 77.218177 
L 298.127912 74.672609 
L 298.7211 70.880463 
L 299.314289 66.214092 
L 299.907478 61.080605 
L 300.500667 55.885592 
L 301.093855 51.002247 
L 301.687044 46.740799 
L 302.280233 43.319631 
L 302.873422 40.844263 
L 303.466611 39.300802 
L 304.059799 38.567353 
L 304.652988 38.441938 
L 305.246177 38.681522 
L 305.839366 39.045177 
L 306.432555 39.334746 
L 306.966424 39.42859 
L 307.025743 39.427418 
L 307.618932 39.295608 
L 308.212121 39.011183 
L 308.80531 38.733482 
L 309.398498 38.683094 
L 309.991687 39.105114 
L 310.584876 40.226451 
L 311.178065 42.212529 
L 311.771254 45.129909 
L 312.364442 48.922294 
L 312.957631 53.406588 
L 313.55082 58.291873 
L 314.144009 63.217434 
L 314.737198 67.79978 
L 315.330386 71.677537 
L 315.923575 74.546791 
L 316.516764 76.184387 
L 317.109953 76.460463 
L 317.703141 75.343416 
L 318.29633 72.901267 
L 318.889519 69.302552 
L 319.482708 64.815038 
L 320.075897 59.794312 
L 320.669085 54.653182 
L 321.262274 49.810514 
L 321.855463 45.629821 
L 322.448652 42.364062 
L 323.04184 40.121147 
L 323.635029 38.858119 
L 324.228218 38.403732 
L 324.821407 38.502115 
L 325.414596 38.867081 
L 326.007784 39.23714 
L 326.600973 39.422985 
L 326.719611 39.42859 
L 327.194162 39.340907 
L 327.787351 39.027272 
L 328.38054 38.631734 
L 328.973728 38.39015 
L 329.566917 38.581501 
L 330.160106 39.475752 
L 330.753295 41.281133 
L 331.346483 44.099951 
L 331.939672 47.901107 
L 332.532861 52.514432 
L 333.12605 57.647571 
L 333.719239 62.921836 
L 334.312427 67.919753 
L 334.905616 72.234827 
L 335.498805 75.514557 
L 336.091994 77.491586 
L 336.685183 78.003531 
L 337.278371 77.005153 
L 337.87156 74.574166 
L 338.464749 70.908273 
L 339.057938 66.310957 
L 339.651126 61.164908 
L 340.244315 55.89227 
L 340.837504 50.904278 
L 341.430693 46.549512 
L 342.023882 43.072775 
L 342.61707 40.591808 
L 343.210259 39.092497 
L 343.803448 38.441039 
L 344.396637 38.41235 
L 344.989825 38.732873 
L 345.583014 39.132007 
L 346.176203 39.392847 
L 346.472797 39.42859 
L 346.769392 39.3926 
L 347.362581 39.125572 
L 347.955769 38.705149 
L 348.548958 38.344398 
L 349.142147 38.318128 
L 349.735336 38.91266 
L 350.328525 40.372418 
L 350.921713 42.853189 
L 351.514902 46.389399 
L 352.108091 50.878073 
L 352.70128 56.078725 
L 353.294468 61.628865 
L 353.887657 67.07682 
L 354.480846 71.932632 
L 355.074035 75.733003 
L 355.667224 78.109987 
L 356.260412 78.847308 
L 356.853601 77.907467 
L 357.44679 75.422772 
L 358.039979 71.659364 
L 358.633168 66.971744 
L 359.226356 61.761374 
L 359.819545 56.442261 
L 360.412734 51.407818 
L 361.005923 46.994294 
L 361.599111 43.444059 
L 362.1923 40.878047 
L 362.785489 39.286308 
L 363.378678 38.540475 
L 363.971867 38.425461 
L 364.565055 38.68323 
L 365.158244 39.059962 
L 365.751433 39.34895 
L 366.225984 39.42859 
L 366.344622 39.423533 
L 366.93781 39.256297 
L 367.530999 38.922513 
L 368.124188 38.587443 
L 368.717377 38.479003 
L 369.310566 38.849361 
L 369.903754 39.931373 
L 370.496943 41.897089 
L 371.090132 44.824658 
L 371.683321 48.677442 
L 372.27651 53.296925 
L 372.869698 58.409939 
L 373.462887 63.650575 
L 374.056076 68.596738 
L 374.649265 72.819082 
L 375.242453 75.935673 
L 375.835642 77.661304 
L 376.428831 77.839819 
L 377.02202 76.455052 
L 377.615209 73.626223 
L 378.208397 69.595555 
L 378.801586 64.709325 
L 379.394775 59.388097 
L 379.987964 54.081859 
L 380.581153 49.212481 
L 381.174341 45.115591 
L 381.76753 41.997296 
L 382.360719 39.915787 
L 382.953908 38.789292 
L 383.547096 38.425423 
L 384.140285 38.56441 
L 384.733474 38.928869 
L 385.326663 39.273391 
L 385.919852 39.427252 
L 385.97917 39.42859 
L 386.51304 39.323787 
L 387.106229 39.011593 
L 387.699418 38.645509 
L 388.292607 38.458482 
L 388.885795 38.718585 
L 389.478984 39.678363 
L 390.072173 41.525685 
L 390.665362 44.34505 
L 391.258551 48.095829 
L 391.851739 52.610123 
L 392.444928 57.609018 
L 393.038117 62.73308 
L 393.631306 67.581429 
L 394.224495 71.753711 
L 394.817683 74.890613 
L 395.410872 76.711002 
L 396.004061 77.044882 
L 396.59725 75.858389 
L 397.190438 73.262805 
L 397.783627 69.501731 
L 398.376816 64.918344 
L 398.970005 59.910583 
L 399.563194 54.88346 
L 400.156382 50.205481 
L 400.749571 46.172503 
L 401.34276 42.981059 
L 401.935949 40.713598 
L 402.529138 39.337729 
L 403.122326 38.720155 
L 403.715515 38.654025 
L 404.308704 38.896445 
L 404.901893 39.210999 
L 405.495081 39.409142 
L 405.732357 39.42859 
L 406.08827 39.384256 
L 406.681459 39.132692 
L 407.274648 38.757539 
L 407.867837 38.453563 
L 408.461025 38.475271 
L 409.054214 39.092982 
L 409.647403 40.543266 
L 410.240592 42.980515 
L 410.83378 46.437164 
L 411.426969 50.801123 
L 412.020158 55.817937 
L 412.613347 61.11932 
L 413.206536 66.271356 
L 413.799724 70.830857 
L 414.392913 74.399551 
L 414.986102 76.668737 
L 415.579291 77.449699 
L 416.17248 76.68847 
L 416.765668 74.465963 
L 417.358857 70.985472 
L 417.952046 66.550413 
L 418.545235 61.534848 
L 419.138423 56.347669 
L 419.731612 51.39082 
L 420.324801 47.014333 
L 420.91799 43.474938 
L 421.511179 40.906856 
L 422.104367 39.311183 
L 422.697556 38.566149 
L 423.290745 38.456859 
L 423.883934 38.719691 
L 424.477123 39.093306 
L 425.070311 39.366847 
L 425.485543 39.42859 
L 425.6635 39.417202 
L 426.256689 39.229892 
L 426.849878 38.900719 
L 427.443066 38.617807 
L 428.036255 38.626888 
L 428.629444 39.186215 
L 429.222633 40.519736 
L 429.815822 42.77648 
L 430.40901 46.001034 
L 431.002199 50.11686 
L 431.595388 54.923205 
L 432.188577 60.107241 
L 432.781765 65.273177 
L 433.374954 69.987177 
L 433.968143 73.831819 
L 434.561332 76.459487 
L 435.154521 77.634032 
L 435.747709 77.25445 
L 436.340898 75.360246 
L 436.934087 72.122404 
L 437.527276 67.824328 
L 438.120465 62.834561 
L 438.713653 57.570511 
L 439.306842 52.453469 
L 439.900031 47.859692 
L 440.49322 44.075662 
L 441.086408 41.265644 
L 441.679597 39.45767 
L 442.272786 38.550814 
L 442.865975 38.342568 
L 443.459164 38.571455 
L 444.052352 38.967494 
L 444.645541 39.30202 
L 445.23873 39.42859 
L 445.831919 39.308097 
L 446.425107 39.014002 
L 447.018296 38.717291 
L 447.611485 38.654523 
L 448.204674 39.084765 
L 448.797863 40.242269 
L 449.391051 42.291838 
L 449.98424 45.293758 
L 450.577429 49.184297 
L 451.170618 53.775372 
L 451.763807 58.772922 
L 452.356995 63.809477 
L 452.950184 68.48443 
L 453.543373 72.406611 
L 454.136562 75.235656 
L 454.72975 76.71845 
L 455.322939 76.71613 
L 455.916128 75.219679 
L 456.509317 72.354843 
L 457.102506 68.373869 
L 457.695694 63.628713 
L 458.288883 58.526979 
L 458.882072 53.480924 
L 459.475261 48.860826 
L 460.06845 44.957858 
L 460.661638 41.956872 
L 461.254827 39.920497 
L 461.848016 38.788613 
L 462.441205 38.396163 
L 463.034393 38.507717 
L 463.627582 38.862706 
L 464.220771 39.223306 
L 464.81396 39.417162 
L 464.991916 39.42859 
L 465.407149 39.368319 
L 466.000337 39.111338 
L 466.593526 38.785769 
L 467.186715 38.611187 
L 467.779904 38.846691 
L 468.373092 39.742187 
L 468.966281 41.490601 
L 469.55947 44.189518 
L 470.152659 47.817494 
L 470.745848 52.226223 
L 471.339036 57.147671 
L 471.932225 62.216941 
L 472.525414 67.013745 
L 473.118603 71.120884 
L 473.711792 74.186482 
L 474.30498 75.969174 
L 474.898169 76.354321 
L 475.491358 75.347328 
L 476.084547 73.057286 
L 476.677735 69.6783 
L 477.270924 65.471462 
L 477.864113 60.749071 
L 478.457302 55.857536 
L 479.050491 51.151826 
L 479.643679 46.958467 
L 480.236868 43.532374 
L 480.830057 41.019286 
L 481.423246 39.43641 
L 482.016435 38.677944 
L 482.609623 38.543186 
L 483.202812 38.779248 
L 483.796001 39.129747 
L 484.38919 39.38221 
L 484.745103 39.42859 
L 484.982378 39.407564 
L 485.575567 39.185083 
L 486.168756 38.807626 
L 486.761945 38.465793 
L 487.355134 38.414313 
L 487.948322 38.926935 
L 488.541511 40.246725 
L 489.1347 42.538426 
L 489.727889 45.850128 
L 490.321077 50.09197 
L 490.914266 55.037653 
L 491.507455 60.34926 
L 492.100644 65.619448 
L 492.693833 70.420246 
L 493.287021 74.347801 
L 493.88021 77.059038 
L 494.473399 78.302632 
L 495.066588 77.945491 
L 495.659777 75.993059 
L 496.252965 72.601462 
L 496.846154 68.074514 
L 497.439343 62.83468 
L 498.032532 57.365325 
L 498.62572 52.136661 
L 499.218909 47.537013 
L 499.812098 43.82788 
L 500.405287 41.128655 
L 500.998476 39.424793 
L 501.591664 38.589634 
L 502.184853 38.414147 
L 502.778042 38.6436 
L 503.371231 39.020299 
L 503.96442 39.327626 
L 504.498289 39.42859 
L 504.557608 39.427317 
L 505.150797 39.282556 
L 505.743986 38.963389 
L 506.337175 38.634859 
L 506.930363 38.530092 
L 507.523552 38.911113 
L 508.116741 40.02133 
L 508.70993 42.036202 
L 509.303119 45.021398 
L 509.896307 48.908451 
L 510.489496 53.494915 
L 511.082685 58.469535 
L 511.675874 63.455882 
L 512.269062 68.063439 
L 512.862251 71.934296 
L 513.45544 74.775875 
L 514.048629 76.37607 
L 514.641818 76.606578 
L 515.235006 75.42719 
L 515.828195 72.899383 
L 516.421384 69.202524 
L 517.014573 64.635406 
L 517.607762 59.590151 
L 518.20095 54.49959 
L 518.794139 49.7725 
L 519.387328 45.735466 
L 519.980517 42.594612 
L 520.573705 40.421458 
L 521.166894 39.160287 
L 521.760083 38.651591 
L 522.353272 38.666626 
L 522.946461 38.949314 
L 523.539649 39.261234 
L 524.132838 39.423597 
L 524.251476 39.42859 
L 524.726027 39.349095 
L 525.319216 39.057647 
L 525.912405 38.673165 
L 526.505593 38.402167 
L 527.098782 38.498195 
L 527.691971 39.218143 
L 528.28516 40.777285 
L 528.878348 43.309173 
L 529.471537 46.83504 
L 530.064726 51.246215 
L 530.657915 56.302695 
L 531.251104 61.650449 
L 531.844292 66.857726 
L 532.437481 71.467 
L 533.03067 75.05514 
L 533.623859 77.290278 
L 534.217047 77.972653 
L 534.810236 77.053185 
L 535.403425 74.632412 
L 535.996614 70.944019 
L 536.589803 66.325253 
L 537.182991 61.178166 
L 537.77618 55.926581 
L 538.369369 50.971982 
L 538.962558 46.651535 
L 539.555747 43.202758 
L 540.148935 40.739618 
L 540.742124 39.244604 
L 541.335313 38.580536 
L 541.928502 38.522126 
L 542.52169 38.80185 
L 543.114879 39.160962 
L 543.708068 39.396408 
L 544.004662 39.42859 
L 544.301257 39.396351 
L 544.894446 39.159471 
L 545.487634 38.795183 
L 546.080823 38.504252 
L 546.674012 38.542362 
L 547.267201 39.172782 
L 547.86039 40.616998 
L 548.453578 43.012537 
L 549.046767 46.384699 
L 549.639956 50.634283 
L 550.233145 55.539383 
L 550.826333 60.768932 
L 551.419522 65.909788 
L 552.012711 70.512215 
L 552.6059 74.152606 
L 553.199089 76.498352 
L 553.792277 77.352662 
L 554.385466 76.667815 
L 554.978655 74.533855 
L 555.571844 71.1574 
L 556.165032 66.838134 
L 556.758221 61.940956 
L 557.35141 56.86022 
L 557.944599 51.978349 
L 558.537788 47.626146 
L 559.130976 44.050623 
L 559.724165 41.392054 
L 560.317354 39.671716 
L 560.910543 38.794391 
L 561.503732 38.569624 
L 562.09692 38.75059 
L 562.690109 39.082899 
L 563.283298 39.352547 
L 563.757849 39.42859 
L 563.876487 39.423705 
L 564.469675 39.260962 
L 565.062864 38.934131 
L 565.656053 38.605886 
L 566.249242 38.504005 
L 566.842431 38.88184 
L 567.435619 39.972891 
L 568.028808 41.946847 
L 568.621997 44.874491 
L 569.215186 48.707572 
L 569.808375 53.277231 
L 570.401563 58.310331 
L 570.994752 63.457963 
L 571.587941 68.328813 
L 572.18113 72.523964 
L 572.774318 75.674457 
L 573.367507 77.482925 
L 573.960696 77.765053 
L 574.553885 76.479436 
L 575.147074 73.735036 
L 575.740262 69.776315 
L 576.333451 64.954373 
L 576.92664 59.689031 
L 577.519829 54.421689 
L 578.113017 49.562156 
L 578.706206 45.438593 
L 579.299395 42.260381 
L 579.892584 40.099924 
L 580.485773 38.894954 
L 581.078961 38.469838 
L 581.67215 38.572811 
L 582.265339 38.92442 
L 582.858528 39.270021 
L 583.451717 39.427209 
L 583.511035 39.42859 
L 584.044905 39.31942 
L 584.638094 38.989732 
L 585.231283 38.592912 
L 585.824472 38.367455 
L 586.41766 38.592305 
L 587.010849 39.53506 
L 587.604038 41.399932 
L 588.197227 44.284211 
L 588.790416 48.15101 
L 589.383604 52.823233 
L 589.976793 57.999678 
L 590.569982 63.290944 
L 591.163171 68.270663 
L 591.756359 72.531164 
L 592.349548 75.726439 
L 592.942737 77.594852 
L 593.535926 77.972663 
L 594.129115 76.810432 
L 594.722303 74.189753 
L 595.315492 70.328065 
L 595.908681 65.5617 
L 596.50187 60.30725 
L 597.095059 55.009639 
L 597.688247 50.086359 
L 598.281436 45.875711 
L 598.874625 42.597045 
L 599.467814 40.3306 
L 600.061002 39.020681 
L 600.654191 38.500124 
L 601.24738 38.529551 
L 601.840569 38.843666 
L 602.433758 39.197752 
L 603.026946 39.408523 
L 603.264222 39.42859 
L 603.620135 39.383946 
L 604.213324 39.137447 
L 604.806513 38.784146 
L 605.399702 38.519893 
L 605.99289 38.586925 
L 606.586079 39.232078 
L 607.179268 40.664488 
L 607.772457 43.019275 
L 608.365645 46.3313 
L 608.958834 50.519851 
L 609.552023 55.384064 
L 610.145212 60.61101 
L 610.738401 65.800032 
L 611.331589 70.504493 
L 611.924778 74.286828 
L 612.517967 76.778217 
L 613.111156 77.731785 
L 613.704344 77.058443 
L 614.297533 74.838546 
L 614.890722 71.307442 
L 615.483911 66.816758 
L 616.0771 61.780166 
L 616.670288 56.618813 
L 617.263477 51.717766 
L 617.856666 47.394728 
L 618.449855 43.877188 
L 619.043044 41.285892 
L 619.636232 39.626608 
L 620.229421 38.794795 
L 620.82261 38.5969 
L 621.415799 38.787373 
L 622.008987 39.115029 
L 622.602176 39.369288 
L 623.017408 39.42859 
L 623.195365 39.417363 
L 623.788554 39.22676 
L 624.381743 38.870879 
L 624.974931 38.517722 
L 625.56812 38.402837 
L 626.161309 38.789132 
L 626.754498 39.918987 
L 627.347687 41.96685 
L 627.940875 45.001533 
L 628.534064 48.965505 
L 629.127253 53.674412 
L 629.720442 58.834961 
L 630.31363 64.075378 
L 630.906819 68.982232 
L 631.500008 73.140875 
L 632.093197 76.178942 
L 632.686386 77.809581 
L 633.279574 77.867757 
L 633.872763 76.332995 
L 634.465952 73.334849 
L 635.059141 69.141978 
L 635.652329 64.135803 
L 636.245518 58.767052 
L 636.838707 53.497316 
L 637.431896 48.736228 
L 638.025085 44.789088 
L 638.618273 41.825935 
L 639.211462 39.874969 
L 639.804651 38.836982 
L 640.39784 38.515377 
L 640.991029 38.656751 
L 641.584217 38.996937 
L 642.177406 39.306442 
L 642.770595 39.42859 
L 642.770595 39.42859 
L 642.770595 39.42859 
L 642.177406 39.318118 
L 641.584217 39.044181 
L 640.991029 38.763837 
L 640.39784 38.705264 
L 639.804651 39.128772 
L 639.211462 40.281731 
L 638.618273 42.353986 
L 638.025085 45.439151 
L 637.431896 49.506137 
L 636.838707 54.385255 
L 636.245518 59.773665 
L 635.652329 65.263575 
L 635.059141 70.391397 
L 634.465952 74.698922 
L 633.872763 77.793007 
L 633.279574 79.392184 
L 632.686386 79.356295 
L 632.093197 77.700288 
L 631.500008 74.591025 
L 630.906819 70.325008 
L 630.31363 65.289068 
L 629.720442 59.91132 
L 629.127253 54.612973 
L 628.534064 49.767955 
L 627.940875 45.669968 
L 627.347687 42.505303 
L 626.754498 40.335053 
L 626.161309 39.093936 
L 625.56812 38.610091 
L 624.974931 38.64331 
L 624.381743 38.933186 
L 623.788554 39.246879 
L 623.195365 39.418433 
L 623.017408 39.42859 
L 622.602176 39.375035 
L 622.008987 39.148163 
L 621.415799 38.868651 
L 620.82261 38.745444 
L 620.229421 39.029317 
L 619.636232 39.966236 
L 619.043044 41.749271 
L 618.449855 44.479962 
L 617.856666 48.146752 
L 617.263477 52.621229 
L 616.670288 57.667466 
L 616.0771 62.959418 
L 615.483911 68.104846 
L 614.890722 72.678061 
L 614.297533 76.264451 
L 613.704344 78.514601 
L 613.111156 79.196854 
L 612.517967 78.2337 
L 611.924778 75.714088 
L 611.331589 71.88157 
L 610.738401 67.100944 
L 610.145212 61.808144 
L 609.552023 56.45242 
L 608.958834 51.441746 
L 608.365645 47.099704 
L 607.772457 43.63784 
L 607.179268 41.144273 
L 606.586079 39.587518 
L 605.99289 38.833698 
L 605.399702 38.675005 
L 604.806513 38.866749 
L 604.213324 39.169164 
L 603.620135 39.388433 
L 603.264222 39.42859 
L 603.026946 39.410515 
L 602.433758 39.221964 
L 601.840569 38.913984 
L 601.24738 38.668698 
L 600.654191 38.729539 
L 600.061002 39.360025 
L 599.467814 40.796578 
L 598.874625 43.201738 
L 598.281436 46.624952 
L 597.688247 50.978783 
L 597.095059 56.036983 
L 596.50187 61.4563 
L 595.908681 66.81744 
L 595.315492 71.676201 
L 594.722303 75.616336 
L 594.129115 78.298011 
L 593.535926 79.49532 
L 592.942737 79.116754 
L 592.349548 77.207368 
L 591.756359 73.936736 
L 591.163171 69.579379 
L 590.569982 64.491789 
L 589.976793 59.083268 
L 589.383604 53.77656 
L 588.790416 48.960581 
L 588.197227 44.94285 
L 587.604038 41.910895 
L 587.010849 39.91149 
L 586.41766 38.853548 
L 585.824472 38.534894 
L 585.231283 38.687432 
L 584.638094 39.031486 
L 584.044905 39.329092 
L 583.511035 39.42859 
L 583.451717 39.427332 
L 582.858528 39.285193 
L 582.265339 38.980077 
L 581.67215 38.692983 
L 581.078961 38.674859 
L 580.485773 39.200123 
L 579.892584 40.515678 
L 579.299395 42.793916 
L 578.706206 46.096312 
L 578.113017 50.35167 
L 577.519829 55.351471 
L 576.92664 60.764742 
L 576.333451 66.173613 
L 575.740262 71.124924 
L 575.147074 75.186309 
L 574.553885 77.995824 
L 573.960696 79.301982 
L 573.367507 78.994589 
L 572.774318 77.120829 
L 572.18113 73.876835 
L 571.587941 69.573521 
L 570.994752 64.58959 
L 570.401563 59.327278 
L 569.808375 54.176836 
L 569.215186 49.485892 
L 568.621997 45.528563 
L 568.028808 42.476791 
L 567.435619 40.382845 
L 566.842431 39.180181 
L 566.249242 38.703423 
L 565.656053 38.723265 
L 565.062864 38.989834 
L 564.469675 39.277476 
L 563.876487 39.424161 
L 563.757849 39.42859 
L 563.283298 39.359769 
L 562.690109 39.119205 
L 562.09692 38.837957 
L 561.503732 38.729561 
L 560.910543 39.047167 
L 560.317354 40.035128 
L 559.724165 41.880113 
L 559.130976 44.672235 
L 558.537788 48.383668 
L 557.944599 52.866508 
L 557.35141 57.866718 
L 556.758221 63.049574 
L 556.165032 68.033217 
L 555.571844 72.426813 
L 554.978655 75.867858 
L 554.385466 78.054253 
L 553.792277 78.771931 
L 553.199089 77.921788 
L 552.6059 75.54541 
L 552.012711 71.838882 
L 551.419522 67.138803 
L 550.826333 61.875692 
L 550.233145 56.508111 
L 549.639956 51.458722 
L 549.046767 47.066976 
L 548.453578 43.560634 
L 547.86039 41.041997 
L 547.267201 39.487095 
L 546.674012 38.759436 
L 546.080823 38.639245 
L 545.487634 38.865608 
L 544.894446 39.185238 
L 544.301257 39.399243 
L 544.004662 39.42859 
L 543.708068 39.399314 
L 543.114879 39.187099 
L 542.52169 38.874018 
L 541.928502 38.661997 
L 541.335313 38.808041 
L 540.742124 39.577461 
L 540.148935 41.192722 
L 539.555747 43.787006 
L 538.962558 47.37206 
L 538.369369 51.826807 
L 537.77618 56.907166 
L 537.182991 62.272018 
L 536.589803 67.518495 
L 535.996614 72.221939 
L 535.403425 75.978709 
L 534.810236 78.449547 
L 534.217047 79.398044 
L 533.623859 78.719258 
L 533.03067 76.457324 
L 532.437481 72.809598 
L 531.844292 68.110146 
L 531.251104 62.788529 
L 530.657915 57.310676 
L 530.064726 52.116025 
L 529.471537 47.564437 
L 528.878348 43.900698 
L 528.28516 41.238292 
L 527.691971 39.560634 
L 527.098782 38.737645 
L 526.505593 38.555839 
L 525.912405 38.759005 
L 525.319216 39.094275 
L 524.726027 39.356566 
L 524.251476 39.42859 
L 524.132838 39.424077 
L 523.539649 39.278824 
L 522.946461 39.008731 
L 522.353272 38.791083 
L 521.760083 38.860715 
L 521.166894 39.468938 
L 520.573705 40.839956 
L 519.980517 43.130356 
L 519.387328 46.39527 
L 518.794139 50.564217 
L 518.20095 55.431462 
L 517.607762 60.667722 
L 517.014573 65.857521 
L 516.421384 70.55801 
L 515.828195 74.364964 
L 515.235006 76.967267 
L 514.641818 78.176241 
L 514.048629 77.928014 
L 513.45544 76.268852 
L 512.862251 73.338474 
L 512.269062 69.360388 
L 511.675874 64.635531 
L 511.082685 59.527278 
L 510.489496 54.429189 
L 509.896307 49.718164 
L 509.303119 45.704485 
L 508.70993 42.590847 
L 508.116741 40.449044 
L 507.523552 39.219345 
L 506.930363 38.73287 
L 506.337175 38.751621 
L 505.743986 39.01695 
L 505.150797 39.297179 
L 504.557608 39.427437 
L 504.498289 39.42859 
L 503.96442 39.337252 
L 503.371231 39.062723 
L 502.778042 38.741122 
L 502.184853 38.587945 
L 501.591664 38.860019 
L 500.998476 39.811468 
L 500.405287 41.649957 
L 499.812098 44.498288 
L 499.218909 48.363526 
L 498.62572 53.115689 
L 498.032532 58.481671 
L 497.439343 64.063416 
L 496.846154 69.385742 
L 496.252965 73.967053 
L 495.659777 77.392889 
L 495.066588 79.369278 
L 494.473399 79.744854 
L 493.88021 78.509623 
L 493.287021 75.785274 
L 492.693833 71.811707 
L 492.100644 66.926364 
L 491.507455 61.535461 
L 490.914266 56.076408 
L 490.321077 50.969962 
L 489.727889 46.567321 
L 489.1347 43.104717 
L 488.541511 40.677554 
L 487.948322 39.239811 
L 487.355134 38.627063 
L 486.761945 38.596338 
L 486.168756 38.874571 
L 485.575567 39.208501 
L 484.982378 39.40952 
L 484.745103 39.42859 
L 484.38919 39.386681 
L 483.796001 39.161714 
L 483.202812 38.863099 
L 482.609623 38.700896 
L 482.016435 38.927593 
L 481.423246 39.791588 
L 480.830057 41.489838 
L 480.236868 44.126507 
L 479.643679 47.685107 
L 479.050491 52.020838 
L 478.457302 56.876047 
L 477.864113 61.91518 
L 477.270924 66.769298 
L 476.677735 71.078238 
L 476.084547 74.522222 
L 475.491358 76.841336 
L 474.898169 77.847665 
L 474.30498 77.43747 
L 473.711792 75.607696 
L 473.118603 72.473765 
L 472.525414 68.277672 
L 471.932225 63.372537 
L 471.339036 58.178209 
L 470.745848 53.11954 
L 470.152659 48.567823 
L 469.55947 44.798409 
L 468.966281 41.966101 
L 468.373092 40.096662 
L 467.779904 39.094805 
L 467.186715 38.769195 
L 466.593526 38.871871 
L 466.000337 39.146054 
L 465.407149 39.374264 
L 464.991916 39.42859 
L 464.81396 39.418258 
L 464.220771 39.243817 
L 463.627582 38.926448 
L 463.034393 38.637574 
L 462.441205 38.613717 
L 461.848016 39.11353 
L 461.254827 40.369577 
L 460.661638 42.54325 
L 460.06845 45.690749 
L 459.475261 49.745244 
L 458.882072 54.516291 
L 458.288883 59.704628 
L 457.695694 64.930078 
L 457.102506 69.771286 
L 456.509317 73.815131 
L 455.916128 76.709111 
L 455.322939 78.205156 
L 454.72975 78.184292 
L 454.136562 76.660788 
L 453.543373 73.774024 
L 452.950184 69.774549 
L 452.356995 65.001461 
L 451.763807 59.847879 
L 451.170618 54.7187 
L 450.577429 49.986974 
L 449.98424 45.953166 
L 449.391051 42.81201 
L 448.797863 40.633211 
L 448.204674 39.361053 
L 447.611485 38.833805 
L 447.018296 38.81923 
L 446.425107 39.059667 
L 445.831919 39.319571 
L 445.23873 39.42859 
L 444.645541 39.313515 
L 444.052352 39.013324 
L 443.459164 38.673934 
L 442.865975 38.522994 
L 442.272786 38.828654 
L 441.679597 39.849241 
L 441.086408 41.78259 
L 440.49322 44.724169 
L 439.900031 48.641164 
L 439.306842 53.365833 
L 438.713653 58.608199 
L 438.120465 63.986814 
L 437.527276 69.074481 
L 436.934087 73.450476 
L 436.340898 76.746814 
L 435.747709 78.681116 
L 435.154521 79.079477 
L 434.561332 77.895859 
L 433.968143 75.225727 
L 433.374954 71.304582 
L 432.781765 66.485002 
L 432.188577 61.192936 
L 431.595388 55.871017 
L 431.002199 50.921899 
L 430.40901 46.663627 
L 429.815822 43.302014 
L 429.222633 40.91885 
L 428.629444 39.473859 
L 428.036255 38.82031 
L 427.443066 38.734832 
L 426.849878 38.959378 
L 426.256689 39.24924 
L 425.6635 39.418261 
L 425.485543 39.42859 
L 425.070311 39.372719 
L 424.477123 39.12815 
L 423.883934 38.806924 
L 423.290745 38.617283 
L 422.697556 38.81677 
L 422.104367 39.665184 
L 421.511179 41.374474 
L 420.91799 44.064312 
L 420.324801 47.731488 
L 419.731612 52.238925 
L 419.138423 57.326531 
L 418.545235 62.641172 
L 417.952046 67.777844 
L 417.358857 72.322659 
L 416.765668 75.892619 
L 416.17248 78.172551 
L 415.579291 78.949439 
L 414.986102 78.139972 
L 414.392913 75.804694 
L 413.799724 72.144136 
L 413.206536 67.477401 
L 412.613347 62.208135 
L 412.020158 56.781878 
L 411.426969 51.635439 
L 410.83378 47.141268 
L 410.240592 43.557685 
L 409.647403 40.999346 
L 409.054214 39.435772 
L 408.461025 38.715136 
L 407.867837 38.604468 
L 407.274648 38.837478 
L 406.681459 39.163082 
L 406.08827 39.388503 
L 405.732357 39.42859 
L 405.495081 39.411004 
L 404.901893 39.233449 
L 404.308704 38.961404 
L 403.715515 38.782694 
L 403.122326 38.933146 
L 402.529138 39.654339 
L 401.935949 41.150226 
L 401.34276 43.549297 
L 400.749571 46.877575 
L 400.156382 51.04568 
L 399.563194 55.850849 
L 398.970005 60.992601 
L 398.376816 66.099731 
L 397.783627 70.76665 
L 397.190438 74.596639 
L 396.59725 77.247174 
L 396.004061 78.471224 
L 395.410872 78.149219 
L 394.817683 76.306069 
L 394.224495 73.10843 
L 393.631306 68.84262 
L 393.038117 63.878603 
L 392.444928 58.627137 
L 391.851739 53.496031 
L 391.258551 48.848514 
L 390.665362 44.965774 
L 390.072173 42.017949 
L 389.478984 40.048967 
L 388.885795 38.978889 
L 388.292607 38.624689 
L 387.699418 38.737503 
L 387.106229 39.051043 
L 386.51304 39.332652 
L 385.97917 39.42859 
L 385.919852 39.427362 
L 385.326663 39.286839 
L 384.733474 38.978307 
L 384.140285 38.672428 
L 383.547096 38.612832 
L 382.953908 39.072938 
L 382.360719 40.306954 
L 381.76753 42.501585 
L 381.174341 45.734457 
L 380.581153 49.94577 
L 379.987964 54.930218 
L 379.394775 60.353932 
L 378.801586 65.795036 
L 378.208397 70.798724 
L 377.615209 74.933749 
L 377.02202 77.840036 
L 376.428831 79.263455 
L 375.835642 79.078831 
L 375.242453 77.304288 
L 374.649265 74.105663 
L 374.056076 69.78202 
L 373.462887 64.727167 
L 372.869698 59.376225 
L 372.27651 54.151993 
L 371.683321 49.419707 
L 371.090132 45.452751 
L 370.496943 42.410968 
L 369.903754 40.333277 
L 369.310566 39.144927 
L 368.717377 38.678334 
L 368.124188 38.705553 
L 367.530999 38.978771 
L 366.93781 39.272972 
L 366.344622 39.42399 
L 366.225984 39.42859 
L 365.751433 39.356148 
L 365.158244 39.095829 
L 364.565055 38.769223 
L 363.971867 38.583864 
L 363.378678 38.795105 
L 362.785489 39.661268 
L 362.1923 41.394275 
L 361.599111 44.114856 
L 361.005923 47.821646 
L 360.412734 52.38129 
L 359.819545 57.541482 
L 359.226356 62.961786 
L 358.633168 68.251325 
L 358.039979 73.002719 
L 357.44679 76.820091 
L 356.853601 79.349211 
L 356.260412 80.318452 
L 355.667224 79.587487 
L 355.074035 77.186938 
L 354.480846 73.32905 
L 353.887657 68.381116 
L 353.294468 62.810201 
L 352.70128 57.115124 
L 352.108091 51.759678 
L 351.514902 47.117777 
L 350.921713 43.437386 
L 350.328525 40.824616 
L 349.735336 39.245986 
L 349.142147 38.546956 
L 348.548958 38.485518 
L 347.955769 38.778136 
L 347.362581 39.152114 
L 346.769392 39.395575 
L 346.472797 39.42859 
L 346.176203 39.395846 
L 345.583014 39.159148 
L 344.989825 38.808197 
L 344.396637 38.558332 
L 343.803448 38.676604 
L 343.210259 39.431567 
L 342.61707 41.043345 
L 342.023882 43.642533 
L 341.430693 47.242655 
L 340.837504 51.727188 
L 340.244315 56.851885 
L 339.651126 62.265126 
L 339.057938 67.547375 
L 338.464749 72.263867 
L 337.87156 76.018484 
L 337.278371 78.498015 
L 336.685183 79.501928 
L 336.091994 78.956462 
L 335.498805 76.914319 
L 334.905616 73.545666 
L 334.312427 69.125321 
L 333.719239 64.01279 
L 333.12605 58.619577 
L 332.532861 53.365246 
L 331.939672 48.628842 
L 331.346483 44.703321 
L 330.753295 41.760941 
L 330.160106 39.836729 
L 329.566917 38.833733 
L 328.973728 38.549332 
L 328.38054 38.717918 
L 327.787351 39.062654 
L 327.194162 39.347871 
L 326.719611 39.42859 
L 326.600973 39.423422 
L 326.007784 39.25305 
L 325.414596 38.921334 
L 324.821407 38.618071 
L 324.228218 38.603275 
L 323.635029 39.158747 
L 323.04184 40.533514 
L 322.448652 42.891396 
L 321.855463 46.269989 
L 321.262274 50.560251 
L 320.669085 55.512783 
L 320.075897 60.770271 
L 319.482708 65.917885 
L 318.889519 70.538641 
L 318.29633 74.261864 
L 317.703141 76.798386 
L 317.109953 77.961383 
L 316.516764 77.675424 
L 315.923575 75.977627 
L 315.330386 73.012626 
L 314.737198 69.020674 
L 314.144009 64.318597 
L 313.55082 59.273952 
L 312.957631 54.271419 
L 312.364442 49.670744 
L 311.771254 45.76157 
L 311.178065 42.7268 
L 310.584876 40.624808 
L 309.991687 39.393617 
L 309.398498 38.873735 
L 308.80531 38.843673 
L 308.212121 39.061921 
L 307.618932 39.30952 
L 307.025743 39.427533 
L 306.966424 39.42859 
L 306.432555 39.343998 
L 305.839366 39.086172 
L 305.246177 38.776244 
L 304.652988 38.611361 
L 304.059799 38.830994 
L 303.466611 39.676196 
L 302.873422 41.346345 
L 302.280233 43.959873 
L 301.687044 47.525863 
L 301.093855 51.932193 
L 300.500667 56.952337 
L 299.907478 62.267905 
L 299.314289 67.499687 
L 298.7211 72.23911 
L 298.127912 76.077588 
L 297.534723 78.641254 
L 296.941534 79.639606 
L 296.348345 78.922291 
L 295.755156 76.524116 
L 295.161968 72.677028 
L 294.568779 67.777712 
L 293.97559 62.317349 
L 293.382401 56.797086 
L 292.789213 51.655804 
L 292.196024 47.22496 
L 291.602835 43.71003 
L 291.009646 41.189836 
L 290.416457 39.6256 
L 289.823269 38.877171 
L 289.23008 38.728684 
L 288.636891 38.925439 
L 288.043702 39.218622 
L 287.450513 39.409621 
L 287.213238 39.42859 
L 286.857325 39.385073 
L 286.264136 39.136957 
L 285.670947 38.765543 
L 285.077758 38.464865 
L 284.48457 38.491464 
L 283.891381 39.119701 
L 283.298192 40.590822 
L 282.705003 43.065801 
L 282.111814 46.590938 
L 281.518626 51.080673 
L 280.925437 56.31722 
L 280.332248 61.964807 
L 279.739059 67.597146 
L 279.14587 72.737931 
L 278.552682 76.914224 
L 277.959493 79.718869 
L 277.366304 80.869543 
L 276.773115 80.248428 
L 276.179927 77.915811 
L 275.586738 74.101154 
L 274.993549 69.174089 
L 274.40036 63.595962 
L 273.807171 57.859111 
L 273.213983 52.426097 
L 272.620794 47.677965 
L 272.027605 43.87582 
L 271.434416 41.139024 
L 270.841228 39.443609 
L 270.248039 38.641893 
L 269.65485 38.499315 
L 269.061661 38.74116 
L 268.468472 39.101549 
L 267.875284 39.368208 
L 267.460051 39.42859 
L 267.282095 39.417447 
L 266.688906 39.234472 
L 266.095717 38.915533 
L 265.502528 38.651147 
L 264.90934 38.693033 
L 264.316151 39.310331 
L 263.722962 40.741944 
L 263.129773 43.151414 
L 262.536585 46.589553 
L 261.943396 50.969744 
L 261.350207 56.061671 
L 260.757018 61.508999 
L 260.163829 66.871753 
L 259.570641 71.685195 
L 258.977452 75.521 
L 258.384263 78.039408 
L 257.791074 79.028506 
L 257.197886 78.428575 
L 256.604697 76.334875 
L 256.011508 72.974028 
L 255.418319 68.661947 
L 254.82513 63.760549 
L 254.231942 58.643825 
L 253.638753 53.670805 
L 253.045564 49.159512 
L 252.452375 45.360446 
L 251.859186 42.432116 
L 251.265998 40.423777 
L 250.672809 39.272132 
L 250.07962 38.816679 
L 249.486431 38.832731 
L 248.893243 39.075449 
L 248.300054 39.32558 
L 247.706865 39.42859 
L 247.113676 39.321627 
L 246.520487 39.045225 
L 245.927299 38.738202 
L 245.33411 38.615626 
L 244.740921 38.932028 
L 244.147732 39.935092 
L 243.554543 41.817607 
L 242.961355 44.676063 
L 242.368166 48.483132 
L 241.774977 53.07926 
L 241.181788 58.185529 
L 240.5886 63.435407 
L 239.995411 68.418724 
L 239.402222 72.729136 
L 238.809033 76.00664 
L 238.215844 77.970399 
L 237.622656 78.44362 
L 237.029467 77.374642 
L 236.436278 74.851564 
L 235.843089 71.100285 
L 235.249901 66.459422 
L 234.656712 61.336055 
L 234.063523 56.153025 
L 233.470334 51.298775 
L 232.877145 47.086528 
L 232.283957 43.725016 
L 231.690768 41.302641 
L 231.097579 39.787829 
L 230.50439 39.046133 
L 229.911201 38.87082 
L 229.318013 39.021591 
L 228.724824 39.266029 
L 228.131635 39.418899 
L 227.953678 39.42859 
L 227.538446 39.374419 
L 226.945258 39.126388 
L 226.352069 38.771924 
L 225.75888 38.497248 
L 225.165691 38.547378 
L 224.572502 39.184084 
L 223.979314 40.637811 
L 223.386125 43.060448 
L 222.792936 46.487347 
L 222.199747 50.817472 
L 221.606558 55.817256 
L 221.01337 61.146493 
L 220.420181 66.398237 
L 219.826992 71.144303 
L 219.233803 74.98126 
L 218.640615 77.573207 
L 218.047426 78.688026 
L 217.454237 78.224477 
L 216.861048 76.226076 
L 216.267859 72.877333 
L 215.674671 68.482388 
L 215.081482 63.430249 
L 214.488293 58.150276 
L 213.895104 53.061051 
L 213.301916 48.520057 
L 212.708727 44.784766 
L 212.115538 41.991649 
L 211.522349 40.152569 
L 210.92916 39.165596 
L 210.335972 38.839163 
L 209.742783 38.928904 
L 209.149594 39.183157 
L 208.556405 39.38902 
L 208.200492 39.42859 
L 207.963216 39.410164 
L 207.370028 39.210495 
L 206.776839 38.86109 
L 206.18365 38.529787 
L 205.590461 38.454114 
L 204.997273 38.900409 
L 204.404084 40.114881 
L 203.810895 42.274966 
L 203.217706 45.449746 
L 202.624517 49.576383 
L 202.031329 54.456465 
L 201.43814 59.773101 
L 200.844951 65.125867 
L 200.251762 70.077197 
L 199.658573 74.202703 
L 199.065385 77.13937 
L 198.472196 78.626691 
L 197.879007 78.535703 
L 197.285818 76.882635 
L 196.69263 73.826942 
L 196.099441 69.653258 
L 195.506252 64.736762 
L 194.913063 59.496666 
L 194.319874 54.347262 
L 193.726686 49.653929 
L 193.133497 45.69722 
L 192.540308 42.647453 
L 191.947119 40.553055 
L 191.353931 39.344877 
L 190.760742 38.856345 
L 190.167553 38.85693 
L 189.574364 39.094394 
L 188.981175 39.339664 
L 188.447305 39.42859 
L 188.387987 39.427405 
L 187.794798 39.286057 
L 187.201609 38.952849 
L 186.60842 38.571167 
L 186.015231 38.36918 
L 185.422043 38.62096 
L 184.828854 39.595031 
L 184.235665 41.499655 
L 183.642476 44.436718 
L 183.049288 48.374893 
L 182.456099 53.147255 
L 181.86291 58.470724 
L 181.269721 63.978485 
L 180.676532 69.255775 
L 180.083344 73.87499 
L 179.490155 77.433096 
L 178.896966 79.594811 
L 178.303777 80.138025 
L 177.710588 78.991504 
L 177.1174 76.253966 
L 176.524211 72.185881 
L 175.931022 67.171925 
L 175.337833 61.665015 
L 174.744645 56.128951 
L 174.151456 50.987701 
L 173.558267 46.581555 
L 172.965078 43.13254 
L 172.371889 40.72496 
L 171.778701 39.305935 
L 171.185512 38.706589 
L 170.592323 38.68008 
L 169.999134 38.949896 
L 169.405946 39.260657 
L 168.812757 39.423587 
L 168.694119 39.42859 
L 168.219568 39.349413 
L 167.626379 39.063286 
L 167.03319 38.699248 
L 166.440002 38.475354 
L 165.846813 38.653725 
L 165.253624 39.49187 
L 164.660435 41.192863 
L 164.067246 43.86298 
L 163.474058 47.485702 
L 162.880869 51.918106 
L 162.28768 56.908681 
L 161.694491 62.12896 
L 161.101303 67.210027 
L 160.508114 71.777487 
L 159.914925 75.480495 
L 159.321736 78.01447 
L 158.728547 79.143248 
L 158.135359 78.726574 
L 157.54217 76.751094 
L 156.948981 73.354504 
L 156.355792 68.827891 
L 155.762603 63.585127 
L 155.169415 58.102013 
L 154.576226 52.842586 
L 153.983037 48.193839 
L 153.389848 44.422288 
L 152.79666 41.655432 
L 152.203471 39.88458 
L 151.610282 38.983724 
L 151.017093 38.740262 
L 150.423904 38.894732 
L 149.830716 39.186236 
L 149.237527 39.398199 
L 148.940932 39.42859 
L 148.644338 39.397082 
L 148.051149 39.156655 
L 147.457961 38.763154 
L 146.864772 38.400762 
L 146.271583 38.320394 
L 145.678394 38.796505 
L 145.085205 40.077405 
L 144.492017 42.335741 
L 143.898828 45.627668 
L 143.305639 49.869971 
L 142.71245 54.841287 
L 142.119261 60.20648 
L 141.526073 65.556463 
L 140.932884 70.454554 
L 140.339695 74.484234 
L 139.746506 77.296332 
L 139.153318 78.651205 
L 138.560129 78.44683 
L 137.96694 76.725462 
L 137.373751 73.65962 
L 136.780562 69.525428 
L 136.187374 64.672444 
L 135.594185 59.492976 
L 135.000996 54.387087 
L 134.407807 49.720452 
L 133.814618 45.780502 
L 133.22143 42.742496 
L 132.628241 40.654892 
L 132.035052 39.44589 
L 131.441863 38.947107 
L 130.848675 38.928794 
L 130.255486 39.141703 
L 129.662297 39.36067 
L 129.187746 39.42859 
L 129.069108 39.423976 
L 128.475919 39.262139 
L 127.882731 38.911119 
L 127.289542 38.507415 
L 126.696353 38.265354 
L 126.103164 38.439817 
L 125.509976 39.280533 
L 124.916787 40.986005 
L 124.323598 43.664786 
L 123.730409 47.309233 
L 123.13722 51.783935 
L 122.544032 56.830234 
L 121.950843 62.089404 
L 121.357654 67.144994 
L 120.764465 71.577173 
L 120.171276 75.015656 
L 119.578088 77.179513 
L 118.984899 77.899917 
L 118.39171 77.129368 
L 117.798521 74.942221 
L 117.205333 71.527191 
L 116.612144 67.170881 
L 116.018955 62.233188 
L 115.425766 57.114317 
L 114.832577 52.212165 
L 114.239389 47.873591 
L 113.6462 44.349403 
L 113.053011 41.764552 
L 112.459822 40.110936 
L 111.866634 39.263355 
L 111.273445 39.013101 
L 110.680256 39.111279 
L 110.087067 39.31457 
L 109.493878 39.427502 
L 109.434559 39.42859 
L 108.90069 39.335746 
L 108.307501 39.025399 
L 107.714312 38.584972 
L 107.121123 38.18988 
L 106.527934 38.072482 
L 105.934746 38.482825 
L 105.341557 39.645846 
L 104.748368 41.720565 
L 104.155179 44.76645 
L 103.561991 48.722175 
L 102.968802 53.401621 
L 102.375613 58.50955 
L 101.782424 63.674653 
L 101.189235 68.493878 
L 100.596047 72.581363 
L 100.002858 75.613505 
L 99.409669 77.358564 
L 98.81648 77.686366 
L 98.223291 76.568699 
L 97.630103 74.083169 
L 97.036914 70.419178 
L 96.443725 65.87342 
L 95.850536 60.825103 
L 95.257348 55.691929 
L 94.664159 50.876321 
L 94.07097 46.713447 
L 93.477781 43.430252 
L 92.884592 41.12137 
L 92.291404 39.745198 
L 91.698215 39.141108 
L 91.105026 39.065558 
L 90.511837 39.241055 
L 89.918649 39.409273 
L 89.681373 39.42859 
L 89.32546 39.37943 
L 88.732271 39.06473 
L 88.139082 38.501619 
L 87.545893 37.848368 
L 86.952705 37.361605 
L 86.359516 37.352849 
L 85.766327 38.131613 
L 85.173138 39.945841 
L 84.579949 42.93199 
L 83.986761 47.084482 
L 83.393572 52.247949 
L 82.800383 58.129039 
L 82.207194 64.322045 
L 81.614006 70.344263 
L 81.020817 75.679275 
L 80.427628 79.82861 
L 79.834439 82.372167 
L 79.24125 83.030768 
L 78.648062 81.71551 
L 78.054873 78.548073 
L 77.461684 73.845651 
L 76.868495 68.076497 
L 76.275306 61.797038 
L 75.682118 55.580003 
L 75.088929 49.94193 
L 74.49574 45.27903 
L 73.902551 41.820971 
L 73.309363 39.611441 
L 72.716174 38.519961 
L 72.122985 38.282195 
L 71.529796 38.560038 
L 70.936607 39.010295 
L 70.343419 39.350879 
L 69.928186 39.42859 
L 69.75023 39.414222 
L 69.157041 39.178817 
L 68.563852 38.772541 
L 67.970664 38.446346 
L 67.377475 38.522962 
L 66.784286 39.33012 
L 66.191097 41.129989 
L 65.597908 44.057102 
L 65.00472 48.076834 
L 64.411531 52.974036 
L 63.818342 58.374666 
L 63.225153 63.794665 
L 62.631964 68.705034 
L 62.038776 72.602857 
L 61.445587 75.081207 
L 60.852398 75.89053 
L 60.259209 74.979517 
L 59.666021 72.501399 
L 59.072832 68.78054 
L 58.479643 64.249764 
L 57.886454 59.377999 
L 57.293265 54.605232 
L 56.700077 50.292481 
L 56.106888 46.687593 
L 55.513699 43.908287 
L 54.92051 41.946092 
L 54.327321 40.69218 
L 53.734133 39.979324 
L 53.140944 39.628137 
L 52.547755 39.484436 
L 51.954566 39.439099 
L 51.361378 39.429563 
L 50.768189 39.428606 
L 50.175 39.42859 
z
" clip-path="url(#p857acfc1ad)" style="fill: #96c6e2; fill-opacity: 0.5; stroke: #96c6e2; stroke-opacity: 0.5; stroke-width: 0.5"/>
   </g>
   <g id="line2d_21">
    <path d="M 50.175 39.42859 
L 50.768189 39.209772 
L 51.361378 38.561087 
L 51.954566 37.505559 
L 52.547755 36.080657 
L 53.734133 32.336359 
L 57.293265 19.219214 
L 57.886454 17.58059 
L 58.479643 16.279853 
L 59.072832 15.363175 
L 59.666021 14.863093 
L 60.259209 14.797359 
L 60.852398 15.168306 
L 61.445587 15.962767 
L 62.038776 17.152542 
L 63.225153 20.536568 
L 65.00472 27.157694 
L 66.784286 33.760678 
L 67.970664 37.114811 
L 68.563852 38.285711 
L 69.157041 39.059545 
L 69.928186 39.42859 
L 70.343419 39.321207 
L 70.936607 38.799747 
L 71.529796 37.862974 
L 72.122985 36.544139 
L 73.309363 32.95944 
L 75.088929 26.227903 
L 76.868495 19.768273 
L 78.054873 16.631598 
L 78.648062 15.595638 
L 79.24125 14.968024 
L 79.834439 14.771033 
L 80.427628 15.011657 
L 81.020817 15.681355 
L 81.614006 16.756357 
L 82.207194 18.198502 
L 83.393572 21.968246 
L 86.952705 35.068962 
L 87.545893 36.691981 
L 88.139082 37.974504 
L 88.732271 38.871006 
L 89.32546 39.349666 
L 89.918649 39.393491 
L 90.511837 39.000928 
L 91.105026 38.18591 
L 91.698215 36.977367 
L 92.884592 33.563749 
L 94.664159 26.92507 
L 96.443725 20.340816 
L 97.630103 17.016875 
L 98.223291 15.864953 
L 98.81648 15.111816 
L 99.409669 14.784198 
L 100.002858 14.893729 
L 100.596047 15.43652 
L 101.189235 16.393304 
L 101.782424 17.730119 
L 102.968802 21.34223 
L 104.748368 28.087154 
L 106.527934 34.52399 
L 107.714312 37.62846 
L 108.307501 38.64476 
L 108.90069 39.251247 
L 109.493878 39.426395 
L 110.087067 39.163985 
L 110.680256 38.473333 
L 111.273445 37.378954 
L 111.866634 35.919694 
L 113.053011 32.124838 
L 116.612144 19.041719 
L 117.205333 17.434449 
L 117.798521 16.170254 
L 118.39171 15.294008 
L 118.984899 14.836813 
L 119.578088 14.814899 
L 120.171276 15.229044 
L 120.764465 16.064547 
L 121.357654 17.29175 
L 122.544032 20.734656 
L 124.323598 27.390297 
L 126.103164 33.955235 
L 127.289542 37.248689 
L 127.882731 38.381531 
L 128.475919 39.113904 
L 129.187746 39.42859 
L 129.662297 39.288397 
L 130.255486 38.724323 
L 130.848675 37.747612 
L 131.441863 36.392935 
L 132.628241 32.753735 
L 134.407807 25.996024 
L 136.187374 19.582555 
L 137.373751 16.510566 
L 137.96694 15.514017 
L 138.560129 14.92871 
L 139.153318 14.775422 
L 139.746506 15.059593 
L 140.339695 15.771137 
L 140.932884 16.884797 
L 141.526073 18.361042 
L 142.71245 22.180672 
L 146.271583 35.24503 
L 146.864772 36.836407 
L 147.457961 38.082162 
L 148.051149 38.938074 
L 148.644338 39.373763 
L 149.237527 39.373763 
L 149.830716 38.938074 
L 150.423904 38.082162 
L 151.017093 36.836407 
L 152.203471 33.364519 
L 153.983037 26.692509 
L 155.762603 20.147471 
L 156.948981 16.884797 
L 157.54217 15.771137 
L 158.135359 15.059593 
L 158.728547 14.775422 
L 159.321736 14.92871 
L 159.914925 15.514017 
L 160.508114 16.510566 
L 161.101303 17.882984 
L 162.28768 21.548951 
L 166.440002 36.392935 
L 167.03319 37.747612 
L 167.626379 38.724323 
L 168.219568 39.288397 
L 168.812757 39.419812 
L 169.405946 39.113904 
L 169.999134 38.381531 
L 170.592323 37.248689 
L 171.185512 35.755591 
L 172.371889 31.911528 
L 175.931022 18.867093 
L 176.524211 17.29175 
L 177.1174 16.064547 
L 177.710588 15.229044 
L 178.303777 14.814899 
L 178.896966 14.836813 
L 179.490155 15.294008 
L 180.083344 16.170254 
L 180.676532 17.434449 
L 181.86291 20.93501 
L 183.642476 27.622797 
L 185.422043 34.147351 
L 186.60842 37.378954 
L 187.201609 38.473333 
L 187.794798 39.163985 
L 188.447305 39.42859 
L 188.981175 39.251247 
L 189.574364 38.64476 
L 190.167553 37.62846 
L 190.760742 36.238423 
L 191.947119 32.546016 
L 196.099441 17.730119 
L 196.69263 16.393304 
L 197.285818 15.43652 
L 197.879007 14.893729 
L 198.472196 14.784198 
L 199.065385 15.111816 
L 199.658573 15.864953 
L 200.251762 17.016875 
L 200.844951 18.526694 
L 202.031329 22.394848 
L 205.590461 35.418199 
L 206.18365 36.977367 
L 206.776839 38.18591 
L 207.370028 39.000928 
L 207.370028 39.000928 
" clip-path="url(#p857acfc1ad)" style="fill: none; stroke-dasharray: 1,1.65; stroke-dashoffset: 0; stroke: #e24a33"/>
   </g>
   <g id="line2d_22">
    <path d="M 50.175 39.42859 
L 52.547755 39.482552 
L 53.140944 39.622879 
L 53.734133 39.967371 
L 54.327321 40.668529 
L 54.92051 41.903955 
L 55.513699 43.839483 
L 56.106888 46.58331 
L 56.700077 50.144081 
L 57.886454 59.121524 
L 59.072832 68.417734 
L 59.666021 72.101079 
L 60.259209 74.558217 
L 60.852398 75.465456 
L 61.445587 74.666753 
L 62.038776 72.209289 
L 62.631964 68.339881 
L 63.818342 58.085372 
L 65.00472 47.878102 
L 65.597908 43.902301 
L 66.191097 41.014971 
L 66.784286 39.249406 
L 67.377475 38.47046 
L 67.970664 38.415769 
L 69.928186 39.42859 
L 70.343419 39.349419 
L 72.122985 38.23825 
L 72.716174 38.448644 
L 73.309363 39.506828 
L 73.902551 41.677453 
L 74.49574 45.090776 
L 75.088929 49.702549 
L 76.275306 61.438104 
L 77.461684 73.367526 
L 78.054873 78.024325 
L 78.648062 81.160663 
L 79.24125 82.460293 
L 79.834439 81.801238 
L 80.427628 79.271379 
L 81.020817 75.147641 
L 82.207194 63.865119 
L 83.393572 51.884947 
L 83.986761 46.772649 
L 84.579949 42.671664 
L 85.173138 39.73526 
L 85.766327 37.967434 
L 86.359516 37.230821 
L 86.952705 37.276853 
L 87.545893 37.795251 
L 88.732271 39.054041 
L 89.32546 39.377936 
L 89.918649 39.408619 
L 91.105026 39.042933 
L 91.698215 39.096285 
L 92.291404 39.670368 
L 92.884592 41.008094 
L 93.477781 43.269971 
L 94.07097 46.49876 
L 95.257348 55.358624 
L 97.036914 69.938925 
L 97.630103 73.568052 
L 98.223291 76.025325 
L 98.81648 77.12254 
L 99.409669 76.784128 
L 100.002858 75.039914 
L 100.596047 72.020962 
L 101.782424 63.176669 
L 103.561991 48.375028 
L 104.155179 44.474478 
L 104.748368 41.482664 
L 105.341557 39.459053 
L 105.934746 38.342669 
L 106.527934 37.973437 
L 107.121123 38.125684 
L 108.90069 39.332152 
L 109.493878 39.427458 
L 111.273445 38.971851 
L 111.866634 39.193179 
L 112.459822 40.005686 
L 113.053011 41.618741 
L 113.6462 44.157932 
L 114.239389 47.631333 
L 115.425766 56.753307 
L 117.205333 70.968919 
L 117.798521 74.334795 
L 118.39171 76.492036 
L 118.984899 77.254862 
L 119.578088 76.547621 
L 120.171276 74.413008 
L 120.764465 71.013749 
L 121.950843 61.616136 
L 123.13722 51.404749 
L 124.323598 43.38315 
L 124.916787 40.754813 
L 125.509976 39.099802 
L 126.103164 38.307575 
L 126.696353 38.17701 
L 127.289542 38.455725 
L 128.475919 39.255016 
L 129.187746 39.42859 
L 129.662297 39.357602 
L 130.848675 38.891555 
L 131.441863 38.87833 
L 132.035052 39.335839 
L 132.628241 40.494395 
L 133.22143 42.523829 
L 133.814618 45.49839 
L 135.000996 53.975851 
L 136.780562 68.949879 
L 137.373751 73.036853 
L 137.96694 76.060624 
L 138.560129 77.749938 
L 139.153318 77.938108 
L 139.746506 76.587045 
L 140.339695 73.799647 
L 140.932884 69.812871 
L 142.71245 54.38468 
L 143.898828 45.301492 
L 144.492017 42.071764 
L 145.085205 39.872269 
L 145.678394 38.645468 
L 146.271583 38.217126 
L 146.864772 38.337409 
L 148.644338 39.395785 
L 149.237527 39.396914 
L 151.017093 38.680121 
L 151.610282 38.886467 
L 152.203471 39.742992 
L 152.79666 41.463641 
L 153.389848 44.176268 
L 153.983037 47.891718 
L 155.169415 57.688182 
L 156.355792 68.305606 
L 156.948981 72.78233 
L 157.54217 76.137075 
L 158.135359 78.083507 
L 158.728547 78.487368 
L 159.321736 77.363118 
L 159.914925 74.849915 
L 160.508114 71.181412 
L 161.694491 61.629067 
L 162.880869 51.528193 
L 164.067246 43.586834 
L 164.660435 40.973951 
L 165.253624 39.327892 
L 165.846813 38.539517 
L 166.440002 38.403206 
L 167.03319 38.659897 
L 168.219568 39.346149 
L 168.812757 39.423381 
L 169.405946 39.253159 
L 170.592323 38.62706 
L 171.185512 38.616854 
L 171.778701 39.1718 
L 172.371889 40.539709 
L 172.965078 42.890076 
L 173.558267 46.276669 
L 174.744645 55.692996 
L 176.524211 71.585584 
L 177.1174 75.614105 
L 177.710588 78.322527 
L 178.303777 79.453794 
L 178.896966 78.911449 
L 179.490155 76.766189 
L 180.083344 73.237032 
L 181.269721 63.422448 
L 183.049288 47.99246 
L 183.642476 44.122933 
L 184.235665 41.253497 
L 184.828854 39.410877 
L 185.422043 38.490347 
L 186.015231 38.282856 
L 186.60842 38.520228 
L 187.794798 39.27918 
L 188.447305 39.42859 
L 188.981175 39.334936 
L 190.167553 38.810041 
L 190.760742 38.775157 
L 191.353931 39.222635 
L 191.947119 40.383164 
L 192.540308 42.42237 
L 193.133497 45.408669 
L 194.319874 53.914942 
L 196.099441 69.045048 
L 196.69263 73.185547 
L 197.285818 76.21829 
L 197.879007 77.856078 
L 198.472196 77.939899 
L 199.065385 76.457134 
L 199.658573 73.540956 
L 200.251762 69.45341 
L 203.217706 45.137167 
L 203.810895 42.020394 
L 204.404084 39.914193 
L 204.997273 38.749875 
L 205.590461 38.349489 
L 206.18365 38.465194 
L 207.370028 39.199393 
L 207.370028 39.199393 
" clip-path="url(#p857acfc1ad)" style="fill: none; stroke: #348abd; stroke-linecap: square"/>
   </g>
   <g id="LineCollection_1">
    <path d="M 50.175 39.42859 
L 50.175 39.42859 
" clip-path="url(#p857acfc1ad)" style="fill: none; stroke: #988ed5"/>
    <path d="M 69.928186 34.16908 
L 69.928186 33.677886 
" clip-path="url(#p857acfc1ad)" style="fill: none; stroke: #988ed5"/>
    <path d="M 89.681373 44.504956 
L 89.681373 43.64703 
" clip-path="url(#p857acfc1ad)" style="fill: none; stroke: #988ed5"/>
    <path d="M 109.434559 56.5067 
L 109.434559 55.382791 
" clip-path="url(#p857acfc1ad)" style="fill: none; stroke: #988ed5"/>
    <path d="M 129.187746 64.046361 
L 129.187746 62.67083 
" clip-path="url(#p857acfc1ad)" style="fill: none; stroke: #988ed5"/>
    <path d="M 148.940932 69.07845 
L 148.940932 67.44282 
" clip-path="url(#p857acfc1ad)" style="fill: none; stroke: #988ed5"/>
    <path d="M 168.694119 72.160797 
L 168.694119 70.337033 
" clip-path="url(#p857acfc1ad)" style="fill: none; stroke: #988ed5"/>
    <path d="M 188.447305 75.235235 
L 188.447305 73.228018 
" clip-path="url(#p857acfc1ad)" style="fill: none; stroke: #988ed5"/>
    <path d="M 208.200492 78.734351 
L 208.200492 76.553366 
" clip-path="url(#p857acfc1ad)" style="fill: none; stroke: #988ed5"/>
    <path clip-path="url(#p857acfc1ad)" style="fill: none; stroke: #988ed5"/>
    <path clip-path="url(#p857acfc1ad)" style="fill: none; stroke: #988ed5"/>
    <path clip-path="url(#p857acfc1ad)" style="fill: none; stroke: #988ed5"/>
    <path clip-path="url(#p857acfc1ad)" style="fill: none; stroke: #988ed5"/>
    <path clip-path="url(#p857acfc1ad)" style="fill: none; stroke: #988ed5"/>
    <path clip-path="url(#p857acfc1ad)" style="fill: none; stroke: #988ed5"/>
    <path clip-path="url(#p857acfc1ad)" style="fill: none; stroke: #988ed5"/>
    <path clip-path="url(#p857acfc1ad)" style="fill: none; stroke: #988ed5"/>
    <path clip-path="url(#p857acfc1ad)" style="fill: none; stroke: #988ed5"/>
    <path clip-path="url(#p857acfc1ad)" style="fill: none; stroke: #988ed5"/>
    <path clip-path="url(#p857acfc1ad)" style="fill: none; stroke: #988ed5"/>
    <path clip-path="url(#p857acfc1ad)" style="fill: none; stroke: #988ed5"/>
    <path clip-path="url(#p857acfc1ad)" style="fill: none; stroke: #988ed5"/>
    <path clip-path="url(#p857acfc1ad)" style="fill: none; stroke: #988ed5"/>
    <path clip-path="url(#p857acfc1ad)" style="fill: none; stroke: #988ed5"/>
    <path clip-path="url(#p857acfc1ad)" style="fill: none; stroke: #988ed5"/>
    <path clip-path="url(#p857acfc1ad)" style="fill: none; stroke: #988ed5"/>
    <path clip-path="url(#p857acfc1ad)" style="fill: none; stroke: #988ed5"/>
    <path clip-path="url(#p857acfc1ad)" style="fill: none; stroke: #988ed5"/>
    <path clip-path="url(#p857acfc1ad)" style="fill: none; stroke: #988ed5"/>
    <path clip-path="url(#p857acfc1ad)" style="fill: none; stroke: #988ed5"/>
    <path clip-path="url(#p857acfc1ad)" style="fill: none; stroke: #988ed5"/>
   </g>
   <g id="line2d_23">
    <defs>
     <path id="m43a2381410" d="M -0 1.414214 
L 1.414214 0 
L 0 -1.414214 
L -1.414214 -0 
z
" style="stroke: #988ed5; stroke-linejoin: miter"/>
    </defs>
    <g clip-path="url(#p857acfc1ad)">
     <use xlink:href="#m43a2381410" x="50.175" y="39.42859" style="fill: #988ed5; stroke: #988ed5; stroke-linejoin: miter"/>
     <use xlink:href="#m43a2381410" x="69.928186" y="33.923483" style="fill: #988ed5; stroke: #988ed5; stroke-linejoin: miter"/>
     <use xlink:href="#m43a2381410" x="89.681373" y="44.075993" style="fill: #988ed5; stroke: #988ed5; stroke-linejoin: miter"/>
     <use xlink:href="#m43a2381410" x="109.434559" y="55.944745" style="fill: #988ed5; stroke: #988ed5; stroke-linejoin: miter"/>
     <use xlink:href="#m43a2381410" x="129.187746" y="63.358596" style="fill: #988ed5; stroke: #988ed5; stroke-linejoin: miter"/>
     <use xlink:href="#m43a2381410" x="148.940932" y="68.260635" style="fill: #988ed5; stroke: #988ed5; stroke-linejoin: miter"/>
     <use xlink:href="#m43a2381410" x="168.694119" y="71.248915" style="fill: #988ed5; stroke: #988ed5; stroke-linejoin: miter"/>
     <use xlink:href="#m43a2381410" x="188.447305" y="74.231626" style="fill: #988ed5; stroke: #988ed5; stroke-linejoin: miter"/>
     <use xlink:href="#m43a2381410" x="208.200492" y="77.643859" style="fill: #988ed5; stroke: #988ed5; stroke-linejoin: miter"/>
     <use xlink:href="#m43a2381410" x="227.953678" y="81.939493" style="fill: #988ed5; stroke: #988ed5; stroke-linejoin: miter"/>
     <use xlink:href="#m43a2381410" x="247.706865" y="84.33164" style="fill: #988ed5; stroke: #988ed5; stroke-linejoin: miter"/>
     <use xlink:href="#m43a2381410" x="267.460051" y="84.367216" style="fill: #988ed5; stroke: #988ed5; stroke-linejoin: miter"/>
     <use xlink:href="#m43a2381410" x="287.213238" y="86.141207" style="fill: #988ed5; stroke: #988ed5; stroke-linejoin: miter"/>
     <use xlink:href="#m43a2381410" x="306.966424" y="88.48495" style="fill: #988ed5; stroke: #988ed5; stroke-linejoin: miter"/>
     <use xlink:href="#m43a2381410" x="326.719611" y="88.972847" style="fill: #988ed5; stroke: #988ed5; stroke-linejoin: miter"/>
     <use xlink:href="#m43a2381410" x="346.472797" y="89.328244" style="fill: #988ed5; stroke: #988ed5; stroke-linejoin: miter"/>
     <use xlink:href="#m43a2381410" x="366.225984" y="89.678781" style="fill: #988ed5; stroke: #988ed5; stroke-linejoin: miter"/>
     <use xlink:href="#m43a2381410" x="385.97917" y="89.612268" style="fill: #988ed5; stroke: #988ed5; stroke-linejoin: miter"/>
     <use xlink:href="#m43a2381410" x="405.732357" y="89.06061" style="fill: #988ed5; stroke: #988ed5; stroke-linejoin: miter"/>
     <use xlink:href="#m43a2381410" x="425.485543" y="88.080678" style="fill: #988ed5; stroke: #988ed5; stroke-linejoin: miter"/>
     <use xlink:href="#m43a2381410" x="445.23873" y="89.651796" style="fill: #988ed5; stroke: #988ed5; stroke-linejoin: miter"/>
     <use xlink:href="#m43a2381410" x="464.991916" y="91.441421" style="fill: #988ed5; stroke: #988ed5; stroke-linejoin: miter"/>
     <use xlink:href="#m43a2381410" x="484.745103" y="92.17263" style="fill: #988ed5; stroke: #988ed5; stroke-linejoin: miter"/>
     <use xlink:href="#m43a2381410" x="504.498289" y="92.15297" style="fill: #988ed5; stroke: #988ed5; stroke-linejoin: miter"/>
     <use xlink:href="#m43a2381410" x="524.251476" y="91.769648" style="fill: #988ed5; stroke: #988ed5; stroke-linejoin: miter"/>
     <use xlink:href="#m43a2381410" x="544.004662" y="90.535306" style="fill: #988ed5; stroke: #988ed5; stroke-linejoin: miter"/>
     <use xlink:href="#m43a2381410" x="563.757849" y="90.976258" style="fill: #988ed5; stroke: #988ed5; stroke-linejoin: miter"/>
     <use xlink:href="#m43a2381410" x="583.511035" y="89.224208" style="fill: #988ed5; stroke: #988ed5; stroke-linejoin: miter"/>
     <use xlink:href="#m43a2381410" x="603.264222" y="88.788038" style="fill: #988ed5; stroke: #988ed5; stroke-linejoin: miter"/>
     <use xlink:href="#m43a2381410" x="623.017408" y="86.937226" style="fill: #988ed5; stroke: #988ed5; stroke-linejoin: miter"/>
     <use xlink:href="#m43a2381410" x="642.770595" y="86.060422" style="fill: #988ed5; stroke: #988ed5; stroke-linejoin: miter"/>
    </g>
   </g>
   <g id="patch_3">
    <path d="M 50.175 98.162716 
L 50.175 10.8 
" style="fill: none; stroke: #ffffff; stroke-linejoin: miter; stroke-linecap: square"/>
   </g>
   <g id="patch_4">
    <path d="M 207.365864 98.162716 
L 207.365864 10.8 
" style="fill: none; stroke: #ffffff; stroke-linejoin: miter; stroke-linecap: square"/>
   </g>
   <g id="patch_5">
    <path d="M 50.175 98.162716 
L 207.365864 98.162716 
" style="fill: none; stroke: #ffffff; stroke-linejoin: miter; stroke-linecap: square"/>
   </g>
   <g id="patch_6">
    <path d="M 50.175 10.8 
L 207.365864 10.8 
" style="fill: none; stroke: #ffffff; stroke-linejoin: miter; stroke-linecap: square"/>
   </g>
   <g id="legend_1">
    <g id="patch_7">
     <path d="M 55.775 94.162716 
L 126.45375 94.162716 
Q 128.05375 94.162716 128.05375 92.562716 
L 128.05375 58.021466 
Q 128.05375 56.421466 126.45375 56.421466 
L 55.775 56.421466 
Q 54.175 56.421466 54.175 58.021466 
L 54.175 92.562716 
Q 54.175 94.162716 55.775 94.162716 
z
" style="fill: #e5e5e5; opacity: 0.8; stroke: #cccccc; stroke-width: 0.5; stroke-linejoin: miter"/>
    </g>
    <g id="line2d_24">
     <path d="M 57.375 62.900216 
L 65.375 62.900216 
L 73.375 62.900216 
" style="fill: none; stroke-dasharray: 1,1.65; stroke-dashoffset: 0; stroke: #e24a33"/>
    </g>
    <g id="text_13">
     <!-- Coupling -->
     <g transform="translate(79.775 65.700216)scale(0.08 -0.08)">
      <defs>
       <path id="DejaVuSerif-43" d="M 4513 1234 
Q 4306 581 3820 245 
Q 3334 -91 2591 -91 
Q 2134 -91 1743 65 
Q 1353 222 1050 525 
Q 700 875 529 1320 
Q 359 1766 359 2328 
Q 359 3416 987 4083 
Q 1616 4750 2644 4750 
Q 3025 4750 3456 4650 
Q 3888 4550 4384 4347 
L 4384 3272 
L 4031 3272 
Q 3916 3859 3567 4137 
Q 3219 4416 2591 4416 
Q 1844 4416 1459 3886 
Q 1075 3356 1075 2328 
Q 1075 1303 1459 773 
Q 1844 244 2591 244 
Q 3113 244 3450 492 
Q 3788 741 3938 1234 
L 4513 1234 
z
" transform="scale(0.015625)"/>
       <path id="DejaVuSerif-6f" d="M 1925 219 
Q 2388 219 2623 584 
Q 2859 950 2859 1663 
Q 2859 2375 2623 2739 
Q 2388 3103 1925 3103 
Q 1463 3103 1227 2739 
Q 991 2375 991 1663 
Q 991 950 1228 584 
Q 1466 219 1925 219 
z
M 1925 -91 
Q 1200 -91 759 389 
Q 319 869 319 1663 
Q 319 2456 758 2934 
Q 1197 3413 1925 3413 
Q 2653 3413 3092 2934 
Q 3531 2456 3531 1663 
Q 3531 869 3092 389 
Q 2653 -91 1925 -91 
z
" transform="scale(0.015625)"/>
       <path id="DejaVuSerif-75" d="M 2266 3322 
L 3341 3322 
L 3341 331 
L 3884 331 
L 3884 0 
L 2766 0 
L 2766 588 
Q 2606 256 2353 82 
Q 2100 -91 1766 -91 
Q 1213 -91 952 223 
Q 691 538 691 1209 
L 691 2988 
L 172 2988 
L 172 3322 
L 1269 3322 
L 1269 1388 
Q 1269 781 1417 556 
Q 1566 331 1947 331 
Q 2347 331 2556 625 
Q 2766 919 2766 1478 
L 2766 2988 
L 2266 2988 
L 2266 3322 
z
" transform="scale(0.015625)"/>
       <path id="DejaVuSerif-70" d="M 1313 1825 
L 1313 1497 
Q 1313 897 1542 583 
Q 1772 269 2209 269 
Q 2650 269 2876 622 
Q 3103 975 3103 1663 
Q 3103 2353 2876 2703 
Q 2650 3053 2209 3053 
Q 1772 3053 1542 2737 
Q 1313 2422 1313 1825 
z
M 738 2988 
L 184 2988 
L 184 3322 
L 1313 3322 
L 1313 2803 
Q 1481 3116 1742 3264 
Q 2003 3413 2388 3413 
Q 3000 3413 3387 2928 
Q 3775 2444 3775 1663 
Q 3775 881 3387 395 
Q 3000 -91 2388 -91 
Q 2003 -91 1742 57 
Q 1481 206 1313 519 
L 1313 -997 
L 1856 -997 
L 1856 -1331 
L 184 -1331 
L 184 -997 
L 738 -997 
L 738 2988 
z
" transform="scale(0.015625)"/>
       <path id="DejaVuSerif-6c" d="M 1313 331 
L 1856 331 
L 1856 0 
L 184 0 
L 184 331 
L 738 331 
L 738 4531 
L 184 4531 
L 184 4863 
L 1313 4863 
L 1313 331 
z
" transform="scale(0.015625)"/>
       <path id="DejaVuSerif-69" d="M 622 4353 
Q 622 4497 726 4603 
Q 831 4709 978 4709 
Q 1122 4709 1226 4603 
Q 1331 4497 1331 4353 
Q 1331 4206 1228 4103 
Q 1125 4000 978 4000 
Q 831 4000 726 4103 
Q 622 4206 622 4353 
z
M 1356 331 
L 1900 331 
L 1900 0 
L 231 0 
L 231 331 
L 781 331 
L 781 2988 
L 231 2988 
L 231 3322 
L 1356 3322 
L 1356 331 
z
" transform="scale(0.015625)"/>
      </defs>
      <use xlink:href="#DejaVuSerif-43"/>
      <use xlink:href="#DejaVuSerif-6f" x="76.513672"/>
      <use xlink:href="#DejaVuSerif-75" x="136.71875"/>
      <use xlink:href="#DejaVuSerif-70" x="201.123047"/>
      <use xlink:href="#DejaVuSerif-6c" x="265.136719"/>
      <use xlink:href="#DejaVuSerif-69" x="297.119141"/>
      <use xlink:href="#DejaVuSerif-6e" x="329.101562"/>
      <use xlink:href="#DejaVuSerif-67" x="393.505859"/>
     </g>
    </g>
    <g id="line2d_25">
     <path d="M 57.375 74.756466 
L 65.375 74.756466 
L 73.375 74.756466 
" style="fill: none; stroke: #348abd; stroke-linecap: square"/>
    </g>
    <g id="text_14">
     <!-- Interaction -->
     <g transform="translate(79.775 77.556466)scale(0.08 -0.08)">
      <defs>
       <path id="DejaVuSerif-49" d="M 1581 331 
L 2175 331 
L 2175 0 
L 353 0 
L 353 331 
L 947 331 
L 947 4331 
L 353 4331 
L 353 4666 
L 2175 4666 
L 2175 4331 
L 1581 4331 
L 1581 331 
z
" transform="scale(0.015625)"/>
       <path id="DejaVuSerif-74" d="M 691 2988 
L 184 2988 
L 184 3322 
L 691 3322 
L 691 4353 
L 1269 4353 
L 1269 3322 
L 2350 3322 
L 2350 2988 
L 1269 2988 
L 1269 878 
Q 1269 456 1350 337 
Q 1431 219 1650 219 
Q 1875 219 1978 351 
Q 2081 484 2088 781 
L 2522 781 
Q 2497 328 2275 118 
Q 2053 -91 1600 -91 
Q 1103 -91 897 129 
Q 691 350 691 878 
L 691 2988 
z
" transform="scale(0.015625)"/>
       <path id="DejaVuSerif-61" d="M 2547 1044 
L 2547 1747 
L 1806 1747 
Q 1378 1747 1168 1562 
Q 959 1378 959 997 
Q 959 650 1171 447 
Q 1384 244 1747 244 
Q 2106 244 2326 466 
Q 2547 688 2547 1044 
z
M 3122 2075 
L 3122 331 
L 3634 331 
L 3634 0 
L 2547 0 
L 2547 359 
Q 2356 128 2106 18 
Q 1856 -91 1522 -91 
Q 969 -91 644 203 
Q 319 497 319 997 
Q 319 1513 691 1797 
Q 1063 2081 1741 2081 
L 2547 2081 
L 2547 2309 
Q 2547 2688 2317 2895 
Q 2088 3103 1672 3103 
Q 1328 3103 1125 2947 
Q 922 2791 872 2484 
L 575 2484 
L 575 3156 
Q 875 3284 1158 3348 
Q 1441 3413 1709 3413 
Q 2400 3413 2761 3070 
Q 3122 2728 3122 2075 
z
" transform="scale(0.015625)"/>
       <path id="DejaVuSerif-63" d="M 3291 997 
Q 3169 466 2822 187 
Q 2475 -91 1925 -91 
Q 1200 -91 759 389 
Q 319 869 319 1663 
Q 319 2459 759 2936 
Q 1200 3413 1925 3413 
Q 2241 3413 2553 3339 
Q 2866 3266 3181 3116 
L 3181 2266 
L 2847 2266 
Q 2781 2703 2561 2903 
Q 2341 3103 1931 3103 
Q 1466 3103 1228 2742 
Q 991 2381 991 1663 
Q 991 944 1227 581 
Q 1463 219 1931 219 
Q 2303 219 2525 412 
Q 2747 606 2828 997 
L 3291 997 
z
" transform="scale(0.015625)"/>
      </defs>
      <use xlink:href="#DejaVuSerif-49"/>
      <use xlink:href="#DejaVuSerif-6e" x="39.501953"/>
      <use xlink:href="#DejaVuSerif-74" x="103.90625"/>
      <use xlink:href="#DejaVuSerif-65" x="144.091797"/>
      <use xlink:href="#DejaVuSerif-72" x="203.271484"/>
      <use xlink:href="#DejaVuSerif-61" x="251.074219"/>
      <use xlink:href="#DejaVuSerif-63" x="310.693359"/>
      <use xlink:href="#DejaVuSerif-74" x="366.699219"/>
      <use xlink:href="#DejaVuSerif-69" x="406.884766"/>
      <use xlink:href="#DejaVuSerif-6f" x="438.867188"/>
      <use xlink:href="#DejaVuSerif-6e" x="499.072266"/>
     </g>
    </g>
    <g id="LineCollection_2">
     <path d="M 65.375 90.498966 
L 65.375 82.498966 
" style="fill: none; stroke: #988ed5"/>
    </g>
    <g id="line2d_26"/>
    <g id="line2d_27">
     <g>
      <use xlink:href="#m43a2381410" x="65.375" y="86.498966" style="fill: #988ed5; stroke: #988ed5; stroke-linejoin: miter"/>
     </g>
    </g>
    <g id="text_15">
     <!-- Total -->
     <g transform="translate(79.775 89.298966)scale(0.08 -0.08)">
      <defs>
       <path id="DejaVuSerif-54" d="M 1222 0 
L 1222 331 
L 1819 331 
L 1819 4294 
L 447 4294 
L 447 3566 
L 63 3566 
L 63 4666 
L 4206 4666 
L 4206 3566 
L 3822 3566 
L 3822 4294 
L 2450 4294 
L 2450 331 
L 3047 331 
L 3047 0 
L 1222 0 
z
" transform="scale(0.015625)"/>
      </defs>
      <use xlink:href="#DejaVuSerif-54"/>
      <use xlink:href="#DejaVuSerif-6f" x="58.949219"/>
      <use xlink:href="#DejaVuSerif-74" x="119.154297"/>
      <use xlink:href="#DejaVuSerif-61" x="159.339844"/>
      <use xlink:href="#DejaVuSerif-6c" x="218.958984"/>
     </g>
    </g>
   </g>
  </g>
 </g>
 <defs>
  <clipPath id="p857acfc1ad">
   <rect x="50.175" y="10.8" width="157.190864" height="87.362716"/>
  </clipPath>
 </defs>
</svg>
