<?xml version="1.0" encoding="utf-8" standalone="no"?>
<!DOCTYPE svg PUBLIC "-//W3C//DTD SVG 1.1//EN"
  "http://www.w3.org/Graphics/SVG/1.1/DTD/svg11.dtd">
<svg xmlns:xlink="http://www.w3.org/1999/xlink" width="223.228364pt" height="137.962716pt" viewBox="0 0 223.228364 137.962716" xmlns="http://www.w3.org/2000/svg" version="1.1">
 <metadata>
  <rdf:RDF xmlns:dc="http://purl.org/dc/elements/1.1/" xmlns:cc="http://creativecommons.org/ns#" xmlns:rdf="http://www.w3.org/1999/02/22-rdf-syntax-ns#">
   <cc:Work>
    <dc:type rdf:resource="http://purl.org/dc/dcmitype/StillImage"/>
    <dc:date>1980-01-01T00:00:00+00:00</dc:date>
    <dc:format>image/svg+xml</dc:format>
    <dc:creator>
     <cc:Agent>
      <dc:title>Matplotlib v3.5.2, https://matplotlib.org/</dc:title>
     </cc:Agent>
    </dc:creator>
   </cc:Work>
  </rdf:RDF>
 </metadata>
 <defs>
  <style type="text/css">*{stroke-linejoin: round; stroke-linecap: butt}</style>
 </defs>
 <g id="figure_1">
  <g id="patch_1">
   <path d="M 0 137.962716 
L 223.228364 137.962716 
L 223.228364 0 
L 0 0 
z
" style="fill: #ffffff"/>
  </g>
  <g id="axes_1">
   <g id="patch_2">
    <path d="M 82.5374 76.300316 
L 188.503464 76.300316 
L 188.503464 18.6624 
L 82.5374 18.6624 
z
" style="fill: #e5e5e5"/>
   </g>
   <g id="matplotlib.axis_1">
    <g id="xtick_1">
     <g id="line2d_1">
      <path d="M 82.5374 76.300316 
L 82.5374 18.6624 
" clip-path="url(#p46327b7c49)" style="fill: none; stroke: #ffffff; stroke-width: 0.8; stroke-linecap: square"/>
     </g>
     <g id="line2d_2">
      <defs>
       <path id="m9c46ba7e3f" d="M 0 0 
L 0 3.5 
" style="stroke: #000000; stroke-width: 0.8"/>
      </defs>
      <g>
       <use xlink:href="#m9c46ba7e3f" x="82.5374" y="76.300316" style="stroke: #000000; stroke-width: 0.8"/>
      </g>
     </g>
     <g id="text_1">
      <!-- 0 -->
      <g transform="translate(77.9564 94.242066)scale(0.144 -0.144)">
       <defs>
        <path id="DejaVuSans-30" d="M 2034 4250 
Q 1547 4250 1301 3770 
Q 1056 3291 1056 2328 
Q 1056 1369 1301 889 
Q 1547 409 2034 409 
Q 2525 409 2770 889 
Q 3016 1369 3016 2328 
Q 3016 3291 2770 3770 
Q 2525 4250 2034 4250 
z
M 2034 4750 
Q 2819 4750 3233 4129 
Q 3647 3509 3647 2328 
Q 3647 1150 3233 529 
Q 2819 -91 2034 -91 
Q 1250 -91 836 529 
Q 422 1150 422 2328 
Q 422 3509 836 4129 
Q 1250 4750 2034 4750 
z
" transform="scale(0.015625)"/>
       </defs>
       <use xlink:href="#DejaVuSans-30"/>
      </g>
     </g>
    </g>
    <g id="xtick_2">
     <g id="line2d_3">
      <path d="M 135.520432 76.300316 
L 135.520432 18.6624 
" clip-path="url(#p46327b7c49)" style="fill: none; stroke: #ffffff; stroke-width: 0.8; stroke-linecap: square"/>
     </g>
     <g id="line2d_4">
      <g>
       <use xlink:href="#m9c46ba7e3f" x="135.520432" y="76.300316" style="stroke: #000000; stroke-width: 0.8"/>
      </g>
     </g>
     <g id="text_2">
      <!-- 5 -->
      <g transform="translate(130.939432 94.242066)scale(0.144 -0.144)">
       <defs>
        <path id="DejaVuSans-35" d="M 691 4666 
L 3169 4666 
L 3169 4134 
L 1269 4134 
L 1269 2991 
Q 1406 3038 1543 3061 
Q 1681 3084 1819 3084 
Q 2600 3084 3056 2656 
Q 3513 2228 3513 1497 
Q 3513 744 3044 326 
Q 2575 -91 1722 -91 
Q 1428 -91 1123 -41 
Q 819 9 494 109 
L 494 744 
Q 775 591 1075 516 
Q 1375 441 1709 441 
Q 2250 441 2565 725 
Q 2881 1009 2881 1497 
Q 2881 1984 2565 2268 
Q 2250 2553 1709 2553 
Q 1456 2553 1204 2497 
Q 953 2441 691 2322 
L 691 4666 
z
" transform="scale(0.015625)"/>
       </defs>
       <use xlink:href="#DejaVuSans-35"/>
      </g>
     </g>
    </g>
    <g id="xtick_3">
     <g id="line2d_5">
      <path d="M 188.503464 76.300316 
L 188.503464 18.6624 
" clip-path="url(#p46327b7c49)" style="fill: none; stroke: #ffffff; stroke-width: 0.8; stroke-linecap: square"/>
     </g>
     <g id="line2d_6">
      <g>
       <use xlink:href="#m9c46ba7e3f" x="188.503464" y="76.300316" style="stroke: #000000; stroke-width: 0.8"/>
      </g>
     </g>
     <g id="text_3">
      <!-- 10 -->
      <g transform="translate(179.341464 94.242066)scale(0.144 -0.144)">
       <defs>
        <path id="DejaVuSans-31" d="M 794 531 
L 1825 531 
L 1825 4091 
L 703 3866 
L 703 4441 
L 1819 4666 
L 2450 4666 
L 2450 531 
L 3481 531 
L 3481 0 
L 794 0 
L 794 531 
z
" transform="scale(0.015625)"/>
       </defs>
       <use xlink:href="#DejaVuSans-31"/>
       <use xlink:href="#DejaVuSans-30" x="63.623047"/>
      </g>
     </g>
    </g>
    <g id="text_4">
     <!-- $\tau$ -->
     <g transform="translate(130.250032 114.366916)scale(0.1728 -0.1728)">
      <defs>
       <path id="DejaVuSans-Oblique-3c4" d="M 2103 638 
Q 2188 488 2525 488 
L 2800 488 
L 2706 0 
L 2363 0 
Q 1800 0 1600 300 
Q 1403 606 1534 1269 
L 1856 2925 
L 541 2925 
L 653 3500 
L 3881 3500 
L 3769 2925 
L 2444 2925 
L 2113 1234 
Q 2025 781 2103 638 
z
" transform="scale(0.015625)"/>
      </defs>
      <use xlink:href="#DejaVuSans-Oblique-3c4" transform="translate(0 0.3125)"/>
     </g>
    </g>
   </g>
   <g id="matplotlib.axis_2">
    <g id="ytick_1">
     <g id="line2d_7">
      <path d="M 82.5374 60.539353 
L 188.503464 60.539353 
" clip-path="url(#p46327b7c49)" style="fill: none; stroke: #ffffff; stroke-width: 0.8; stroke-linecap: square"/>
     </g>
     <g id="line2d_8">
      <defs>
       <path id="m8a876d3faf" d="M 0 0 
L -3.5 0 
" style="stroke: #000000; stroke-width: 0.8"/>
      </defs>
      <g>
       <use xlink:href="#m8a876d3faf" x="82.5374" y="60.539353" style="stroke: #000000; stroke-width: 0.8"/>
      </g>
     </g>
     <g id="text_5">
      <!-- −0.5 -->
      <g transform="translate(40.57015 66.010228)scale(0.144 -0.144)">
       <defs>
        <path id="DejaVuSans-2212" d="M 678 2272 
L 4684 2272 
L 4684 1741 
L 678 1741 
L 678 2272 
z
" transform="scale(0.015625)"/>
        <path id="DejaVuSans-2e" d="M 684 794 
L 1344 794 
L 1344 0 
L 684 0 
L 684 794 
z
" transform="scale(0.015625)"/>
       </defs>
       <use xlink:href="#DejaVuSans-2212"/>
       <use xlink:href="#DejaVuSans-30" x="83.789062"/>
       <use xlink:href="#DejaVuSans-2e" x="147.412109"/>
       <use xlink:href="#DejaVuSans-35" x="179.199219"/>
      </g>
     </g>
    </g>
    <g id="ytick_2">
     <g id="line2d_9">
      <path d="M 82.5374 39.359981 
L 188.503464 39.359981 
" clip-path="url(#p46327b7c49)" style="fill: none; stroke: #ffffff; stroke-width: 0.8; stroke-linecap: square"/>
     </g>
     <g id="line2d_10">
      <g>
       <use xlink:href="#m8a876d3faf" x="82.5374" y="39.359981" style="stroke: #000000; stroke-width: 0.8"/>
      </g>
     </g>
     <g id="text_6">
      <!-- 0.0 -->
      <g transform="translate(52.6369 44.830856)scale(0.144 -0.144)">
       <use xlink:href="#DejaVuSans-30"/>
       <use xlink:href="#DejaVuSans-2e" x="63.623047"/>
       <use xlink:href="#DejaVuSans-30" x="95.410156"/>
      </g>
     </g>
    </g>
    <g id="text_7">
     <!-- Energy -->
     <g transform="translate(32.97645 77.732158)rotate(-90)scale(0.1728 -0.1728)">
      <defs>
       <path id="DejaVuSans-45" d="M 628 4666 
L 3578 4666 
L 3578 4134 
L 1259 4134 
L 1259 2753 
L 3481 2753 
L 3481 2222 
L 1259 2222 
L 1259 531 
L 3634 531 
L 3634 0 
L 628 0 
L 628 4666 
z
" transform="scale(0.015625)"/>
       <path id="DejaVuSans-6e" d="M 3513 2113 
L 3513 0 
L 2938 0 
L 2938 2094 
Q 2938 2591 2744 2837 
Q 2550 3084 2163 3084 
Q 1697 3084 1428 2787 
Q 1159 2491 1159 1978 
L 1159 0 
L 581 0 
L 581 3500 
L 1159 3500 
L 1159 2956 
Q 1366 3272 1645 3428 
Q 1925 3584 2291 3584 
Q 2894 3584 3203 3211 
Q 3513 2838 3513 2113 
z
" transform="scale(0.015625)"/>
       <path id="DejaVuSans-65" d="M 3597 1894 
L 3597 1613 
L 953 1613 
Q 991 1019 1311 708 
Q 1631 397 2203 397 
Q 2534 397 2845 478 
Q 3156 559 3463 722 
L 3463 178 
Q 3153 47 2828 -22 
Q 2503 -91 2169 -91 
Q 1331 -91 842 396 
Q 353 884 353 1716 
Q 353 2575 817 3079 
Q 1281 3584 2069 3584 
Q 2775 3584 3186 3129 
Q 3597 2675 3597 1894 
z
M 3022 2063 
Q 3016 2534 2758 2815 
Q 2500 3097 2075 3097 
Q 1594 3097 1305 2825 
Q 1016 2553 972 2059 
L 3022 2063 
z
" transform="scale(0.015625)"/>
       <path id="DejaVuSans-72" d="M 2631 2963 
Q 2534 3019 2420 3045 
Q 2306 3072 2169 3072 
Q 1681 3072 1420 2755 
Q 1159 2438 1159 1844 
L 1159 0 
L 581 0 
L 581 3500 
L 1159 3500 
L 1159 2956 
Q 1341 3275 1631 3429 
Q 1922 3584 2338 3584 
Q 2397 3584 2469 3576 
Q 2541 3569 2628 3553 
L 2631 2963 
z
" transform="scale(0.015625)"/>
       <path id="DejaVuSans-67" d="M 2906 1791 
Q 2906 2416 2648 2759 
Q 2391 3103 1925 3103 
Q 1463 3103 1205 2759 
Q 947 2416 947 1791 
Q 947 1169 1205 825 
Q 1463 481 1925 481 
Q 2391 481 2648 825 
Q 2906 1169 2906 1791 
z
M 3481 434 
Q 3481 -459 3084 -895 
Q 2688 -1331 1869 -1331 
Q 1566 -1331 1297 -1286 
Q 1028 -1241 775 -1147 
L 775 -588 
Q 1028 -725 1275 -790 
Q 1522 -856 1778 -856 
Q 2344 -856 2625 -561 
Q 2906 -266 2906 331 
L 2906 616 
Q 2728 306 2450 153 
Q 2172 0 1784 0 
Q 1141 0 747 490 
Q 353 981 353 1791 
Q 353 2603 747 3093 
Q 1141 3584 1784 3584 
Q 2172 3584 2450 3431 
Q 2728 3278 2906 2969 
L 2906 3500 
L 3481 3500 
L 3481 434 
z
" transform="scale(0.015625)"/>
       <path id="DejaVuSans-79" d="M 2059 -325 
Q 1816 -950 1584 -1140 
Q 1353 -1331 966 -1331 
L 506 -1331 
L 506 -850 
L 844 -850 
Q 1081 -850 1212 -737 
Q 1344 -625 1503 -206 
L 1606 56 
L 191 3500 
L 800 3500 
L 1894 763 
L 2988 3500 
L 3597 3500 
L 2059 -325 
z
" transform="scale(0.015625)"/>
      </defs>
      <use xlink:href="#DejaVuSans-45"/>
      <use xlink:href="#DejaVuSans-6e" x="63.183594"/>
      <use xlink:href="#DejaVuSans-65" x="126.5625"/>
      <use xlink:href="#DejaVuSans-72" x="188.085938"/>
      <use xlink:href="#DejaVuSans-67" x="227.449219"/>
      <use xlink:href="#DejaVuSans-79" x="290.925781"/>
     </g>
    </g>
   </g>
   <g id="PolyCollection_1">
    <path d="M 82.5374 39.359981 
L 82.5374 39.359981 
L 82.937283 39.359977 
L 83.337165 39.359949 
L 83.737048 39.360384 
L 84.13693 39.364691 
L 84.536813 39.387046 
L 84.936695 39.466653 
L 85.336578 39.677279 
L 85.73646 40.111336 
L 86.136343 40.835426 
L 86.536225 41.880153 
L 86.936108 43.274428 
L 87.33599 45.032847 
L 87.735873 47.105527 
L 88.135755 49.329228 
L 88.535638 51.415733 
L 88.93552 53.028004 
L 89.335403 53.937403 
L 89.735286 54.072237 
L 90.135168 53.407304 
L 90.535051 51.964804 
L 90.934933 49.98441 
L 91.334816 47.852052 
L 91.734698 45.848871 
L 92.134581 44.08666 
L 92.534463 42.572881 
L 92.934346 41.296269 
L 93.334228 40.27894 
L 93.734111 39.568309 
L 94.133993 39.182756 
L 94.533876 39.074809 
L 94.933758 39.143812 
L 95.333641 39.271372 
L 95.733524 39.354572 
L 95.853488 39.359981 
L 96.133406 39.328907 
L 96.533289 39.180259 
L 96.933171 38.949567 
L 97.333054 38.732125 
L 97.732936 38.663319 
L 98.132819 38.884675 
L 98.532701 39.50454 
L 98.932584 40.573929 
L 99.332466 42.080268 
L 99.732349 43.957123 
L 100.132231 46.109828 
L 100.532114 48.4406 
L 100.931996 50.847534 
L 101.331879 53.193047 
L 101.731761 55.248687 
L 102.131644 56.536926 
L 102.531527 56.874979 
L 102.931409 56.41104 
L 103.331292 55.148974 
L 103.731174 53.135463 
L 104.131057 50.515227 
L 104.530939 47.56894 
L 104.930822 44.678406 
L 105.330704 42.191714 
L 105.730587 40.322092 
L 106.130469 39.1259 
L 106.530352 38.529978 
L 106.930234 38.383241 
L 107.330117 38.510798 
L 107.729999 38.754427 
L 108.129882 39.005727 
L 108.529765 39.215541 
L 108.929647 39.339445 
L 109.169577 39.359981 
L 109.32953 39.351404 
L 109.729412 39.269635 
L 110.129295 39.158565 
L 110.529177 39.116865 
L 110.92906 39.25708 
L 111.328942 39.680919 
L 111.728825 40.449256 
L 112.128707 41.559243 
L 112.52859 42.966845 
L 112.928472 44.600826 
L 113.328355 46.340324 
L 113.728237 48.020564 
L 114.12812 49.473839 
L 114.528002 50.591406 
L 114.927885 51.372176 
L 115.327768 51.906665 
L 115.72765 52.284605 
L 116.127533 52.489078 
L 116.527415 52.365491 
L 116.927298 51.71128 
L 117.32718 50.445068 
L 117.727063 48.684887 
L 118.126945 46.664281 
L 118.526828 44.632416 
L 118.92671 42.790858 
L 119.326593 41.264088 
L 119.726475 40.103293 
L 120.126358 39.310104 
L 120.52624 38.867836 
L 120.926123 38.745418 
L 121.326006 38.862097 
L 121.725888 39.089453 
L 122.125771 39.290346 
L 122.485665 39.359981 
L 122.525653 39.35907 
L 122.925536 39.251635 
L 123.325418 39.001094 
L 123.725301 38.712822 
L 124.125183 38.536645 
L 124.525066 38.62187 
L 124.924948 39.083975 
L 125.324831 40.008787 
L 125.724713 41.461887 
L 126.124596 43.481843 
L 126.524478 46.062958 
L 126.924361 49.119878 
L 127.324243 52.436857 
L 127.724126 55.631579 
L 128.124009 58.18509 
L 128.523891 59.581797 
L 128.923774 59.503779 
L 129.323656 57.925826 
L 129.723539 55.094017 
L 130.123421 51.465251 
L 130.523304 47.604029 
L 130.923186 44.032615 
L 131.323069 41.106224 
L 131.722951 38.977528 
L 132.122834 37.634576 
L 132.522716 36.959935 
L 132.922599 36.782676 
L 133.322481 36.926865 
L 133.722364 37.267556 
L 134.122246 37.747987 
L 134.522129 38.305165 
L 134.922012 38.828359 
L 135.321894 39.201357 
L 135.721777 39.355856 
L 135.801753 39.359981 
L 136.121659 39.303118 
L 136.521542 39.13838 
L 136.921424 39.016976 
L 137.321307 39.104599 
L 137.721189 39.514927 
L 138.121072 40.279224 
L 138.520954 41.376351 
L 138.920837 42.752639 
L 139.320719 44.312271 
L 139.720602 45.926481 
L 140.120484 47.462153 
L 140.520367 48.802815 
L 140.92025 49.84705 
L 141.320132 50.497014 
L 141.720015 50.665791 
L 142.119897 50.309836 
L 142.51978 49.451295 
L 142.919662 48.170126 
L 143.319545 46.595185 
L 143.719427 44.901668 
L 144.11931 43.280652 
L 144.519192 41.880359 
L 144.919075 40.769609 
L 145.318957 39.949561 
L 145.71884 39.387581 
L 146.118722 39.041441 
L 146.518605 38.86789 
L 146.918487 38.824938 
L 147.31837 38.874929 
L 147.718253 38.986902 
L 148.118135 39.13054 
L 148.518018 39.265967 
L 148.9179 39.348796 
L 149.117841 39.359981 
L 149.317783 39.348739 
L 149.717665 39.264939 
L 150.117548 39.131041 
L 150.51743 39.012134 
L 150.917313 38.997387 
L 151.317195 39.190632 
L 151.717078 39.699734 
L 152.11696 40.621926 
L 152.516843 42.014874 
L 152.916725 43.850499 
L 153.316608 46.016715 
L 153.716491 48.379407 
L 154.116373 50.765231 
L 154.516256 52.953147 
L 154.916138 54.71708 
L 155.316021 55.876498 
L 155.715903 56.329506 
L 156.115786 56.061551 
L 156.515668 55.151441 
L 156.915551 53.731819 
L 157.315433 51.895984 
L 157.715316 49.733265 
L 158.115198 47.379997 
L 158.515081 45.016341 
L 158.914963 42.843156 
L 159.314846 41.04293 
L 159.714728 39.735403 
L 160.114611 38.948489 
L 160.514494 38.61822 
L 160.914376 38.616757 
L 161.314259 38.804661 
L 161.714141 39.070239 
L 162.114024 39.293399 
L 162.43393 39.359981 
L 162.513906 39.355503 
L 162.913789 39.199217 
L 163.313671 38.862963 
L 163.713554 38.482827 
L 164.113436 38.264755 
L 164.513319 38.429296 
L 164.913201 39.127863 
L 165.313084 40.328781 
L 165.712966 41.796102 
L 166.112849 43.356233 
L 166.512732 44.986438 
L 166.912614 46.692065 
L 167.312497 48.45605 
L 167.712379 50.20603 
L 168.112262 51.793328 
L 168.512144 53.009384 
L 168.912027 53.636835 
L 169.311909 53.492561 
L 169.711792 52.439463 
L 170.111674 50.529561 
L 170.511557 48.191667 
L 170.911439 45.899996 
L 171.311322 43.913608 
L 171.711204 42.320708 
L 172.111087 41.120844 
L 172.510969 40.276608 
L 172.910852 39.734175 
L 173.310735 39.427057 
L 173.710617 39.280638 
L 174.1105 39.225336 
L 174.510382 39.21744 
L 174.910265 39.252197 
L 175.310147 39.31725 
L 175.71003 39.359524 
L 175.750018 39.359981 
L 176.109912 39.316031 
L 176.509795 39.142788 
L 176.909677 38.83245 
L 177.30956 38.421731 
L 177.709442 37.986589 
L 178.109325 37.632104 
L 178.509207 37.493751 
L 178.90909 37.750196 
L 179.308972 38.61058 
L 179.708855 40.250345 
L 180.108738 42.717757 
L 180.50862 45.845856 
L 180.908503 49.1921 
L 181.308385 52.113218 
L 181.708268 54.175278 
L 182.10815 55.350133 
L 182.508033 55.736815 
L 182.907915 55.409731 
L 183.307798 54.416925 
L 183.70768 52.839949 
L 184.107563 50.843643 
L 184.507445 48.64086 
L 184.907328 46.409313 
L 185.30721 44.2595 
L 185.707093 42.280176 
L 186.106976 40.622057 
L 186.506858 39.450647 
L 186.906741 38.813164 
L 187.306623 38.628927 
L 187.706506 38.744731 
L 188.106388 38.990567 
L 188.506271 39.222585 
L 188.906153 39.348579 
L 189.066106 39.359981 
L 189.306036 39.335431 
L 189.705918 39.201527 
L 190.105801 38.997337 
L 190.505683 38.790811 
L 190.905566 38.681894 
L 191.305448 38.796861 
L 191.705331 39.252716 
L 192.105213 40.119327 
L 192.505096 41.388361 
L 192.904979 42.968378 
L 193.304861 44.742616 
L 193.704744 46.642435 
L 194.104626 48.623329 
L 194.504509 50.595468 
L 194.904391 52.395142 
L 195.304274 53.809228 
L 195.704156 54.630583 
L 196.104039 54.69741 
L 196.503921 53.826257 
L 196.903804 52.057748 
L 197.303686 49.878341 
L 197.703569 47.613592 
L 198.103451 45.453319 
L 198.503334 43.518156 
L 198.903217 41.890277 
L 199.303099 40.625243 
L 199.702982 39.74698 
L 200.102864 39.236296 
L 200.502747 39.026792 
L 200.902629 39.018712 
L 201.302512 39.114406 
L 201.702394 39.242027 
L 202.102277 39.337948 
L 202.382195 39.359981 
L 202.502159 39.355901 
L 202.902042 39.289356 
L 203.301924 39.176392 
L 203.701807 39.08933 
L 204.101689 39.113923 
L 204.501572 39.322923 
L 204.901454 39.748412 
L 205.301337 40.350799 
L 205.70122 40.99362 
L 206.101102 41.536468 
L 206.500985 41.976052 
L 206.900867 42.397402 
L 207.30075 42.923252 
L 207.700632 43.685072 
L 208.100515 44.772113 
L 208.500397 46.172657 
L 208.90028 47.737546 
L 209.300162 49.193586 
L 209.700045 50.216282 
L 210.099927 50.532819 
L 210.49981 50.002792 
L 210.899692 48.698534 
L 211.299575 46.934696 
L 211.699458 45.060245 
L 212.09934 43.32182 
L 212.499223 41.86095 
L 212.899105 40.736178 
L 213.298988 39.949884 
L 213.69887 39.470248 
L 214.098753 39.242982 
L 214.498635 39.196852 
L 214.898518 39.250668 
L 215.2984 39.325625 
L 215.698283 39.359981 
L 216.098165 39.319001 
L 216.498048 39.198098 
L 216.89793 39.02349 
L 217.297813 38.850422 
L 217.697695 38.760106 
L 218.097578 38.858883 
L 218.497461 39.270949 
L 218.897343 40.11152 
L 219.297226 41.441691 
L 219.697108 43.218735 
L 220.096991 45.257179 
L 220.496873 47.241642 
L 220.896756 48.904689 
L 221.296638 50.237977 
L 221.696521 51.367688 
L 222.096403 52.315832 
L 222.496286 52.792799 
L 222.896168 52.168895 
L 223.296051 50.794584 
L 223.695933 49.211976 
L 224.095816 47.607339 
L 224.495699 46.023431 
L 224.895581 44.456734 
L 225.295464 42.918199 
L 225.695346 41.469331 
L 226.095229 40.229449 
L 226.495111 39.331278 
L 226.894994 38.839105 
L 227.294876 38.71241 
L 227.694759 38.833432 
L 228.094641 39.056861 
L 228.494524 39.256138 
L 228.894406 39.354476 
L 229.014371 39.359981 
L 229.294289 39.332029 
L 229.694171 39.217818 
L 230.094054 39.085065 
L 230.493936 39.042841 
L 230.893819 39.213384 
L 231.293702 39.699172 
L 231.693584 40.551409 
L 232.093467 41.751393 
L 232.493349 43.207523 
L 232.893232 44.758706 
L 233.293114 46.167452 
L 233.692997 47.141178 
L 234.092879 47.559987 
L 234.492762 47.642003 
L 234.892644 47.712447 
L 235.292527 47.991033 
L 235.692409 48.504588 
L 236.092292 49.087723 
L 236.492174 49.458563 
L 236.892057 49.326675 
L 237.291939 48.465148 
L 237.691822 46.774189 
L 238.091705 44.556509 
L 238.491587 42.369144 
L 238.89147 40.568354 
L 239.291352 39.299269 
L 239.691235 38.570095 
L 240.091117 38.301867 
L 240.491 38.367383 
L 240.890882 38.622789 
L 241.290765 38.932654 
L 241.690647 39.190739 
L 242.09053 39.335887 
L 242.330459 39.359981 
L 242.490412 39.34927 
L 242.890295 39.233091 
L 243.290177 39.024149 
L 243.69006 38.816831 
L 244.089943 38.75477 
L 244.489825 38.998717 
L 244.889708 39.683433 
L 245.28959 40.877644 
L 245.689473 42.559061 
L 246.089355 44.608266 
L 246.489238 46.816189 
L 246.88912 48.902755 
L 247.289003 50.57207 
L 247.688885 51.613727 
L 248.088768 51.958211 
L 248.48865 51.660393 
L 248.888533 50.867998 
L 249.288415 49.773517 
L 249.688298 48.550496 
L 250.08818 47.303715 
L 250.488063 46.060177 
L 250.887946 44.802439 
L 251.287828 43.518644 
L 251.687711 42.235047 
L 252.087593 41.015146 
L 252.487476 39.938645 
L 252.887358 39.084695 
L 253.287241 38.524208 
L 253.687123 38.297437 
L 254.087006 38.377966 
L 254.486888 38.664636 
L 254.886771 39.011596 
L 255.286653 39.275418 
L 255.646548 39.359981 
L 255.686536 39.358928 
L 256.086418 39.240419 
L 256.486301 38.984661 
L 256.886184 38.734498 
L 257.286066 38.681662 
L 257.685949 39.019392 
L 258.085831 39.888551 
L 258.485714 41.335725 
L 258.885596 43.300612 
L 259.285479 45.635246 
L 259.685361 48.126369 
L 260.085244 50.502279 
L 260.485126 52.459431 
L 260.885009 53.735409 
L 261.284891 54.1955 
L 261.684774 53.87363 
L 262.084656 52.936792 
L 262.484539 51.592033 
L 262.884421 49.997856 
L 263.284304 48.250486 
L 263.684187 46.43958 
L 264.084069 44.673174 
L 264.483952 43.051091 
L 264.883834 41.648973 
L 265.283717 40.516758 
L 265.683599 39.673761 
L 266.083482 39.103464 
L 266.483364 38.755336 
L 266.883247 38.563838 
L 267.283129 38.513837 
L 267.683012 38.643774 
L 268.082894 38.91427 
L 268.482777 39.199558 
L 268.882659 39.354967 
L 268.962636 39.359981 
L 269.282542 39.275576 
L 269.682425 38.939836 
L 270.082307 38.432473 
L 270.48219 37.938764 
L 270.882072 37.705358 
L 271.281955 37.962604 
L 271.681837 38.788279 
L 272.08172 40.001423 
L 272.481602 41.479057 
L 272.881485 43.291781 
L 273.281367 45.509098 
L 273.68125 48.167424 
L 274.081132 51.223763 
L 274.481015 54.459494 
L 274.880897 57.422452 
L 275.28078 59.513945 
L 275.680662 60.24362 
L 276.080545 59.489832 
L 276.480428 57.51438 
L 276.88031 54.757966 
L 277.280193 51.647855 
L 277.680075 48.505755 
L 278.079958 45.531568 
L 278.47984 42.836088 
L 278.879723 40.503346 
L 279.279605 38.654797 
L 279.679488 37.443519 
L 280.07937 36.946196 
L 280.479253 37.08588 
L 280.879135 37.652202 
L 281.279018 38.371228 
L 281.6789 38.985102 
L 282.078783 39.319076 
L 282.278724 39.359981 
L 282.478665 39.32266 
L 282.878548 39.079218 
L 283.278431 38.781869 
L 283.678313 38.668988 
L 284.078196 38.903079 
L 284.478078 39.526757 
L 284.877961 40.587622 
L 285.277843 42.077238 
L 285.677726 43.873899 
L 286.077608 45.75804 
L 286.477491 47.473559 
L 286.877373 48.826571 
L 287.277256 49.77656 
L 287.677138 50.447242 
L 288.077021 51.011175 
L 288.476903 51.46581 
L 288.876786 51.393375 
L 289.276669 50.376786 
L 289.676551 48.83083 
L 290.076434 47.168522 
L 290.476316 45.497781 
L 290.876199 43.835201 
L 291.276081 42.241382 
L 291.675964 40.847791 
L 292.075846 39.788601 
L 292.475729 39.118735 
L 292.875611 38.79279 
L 293.275494 38.705421 
L 293.675376 38.750496 
L 294.075259 38.861475 
L 294.475141 39.012416 
L 294.875024 39.180761 
L 295.274906 39.317635 
L 295.594813 39.359981 
L 295.674789 39.35696 
L 296.074672 39.241527 
L 296.474554 38.946665 
L 296.874437 38.497583 
L 297.274319 37.978847 
L 297.674202 37.531408 
L 298.074084 37.330839 
L 298.473967 37.54667 
L 298.873849 38.299388 
L 299.273732 39.645493 
L 299.673614 41.596657 
L 300.073497 44.120575 
L 300.473379 47.09036 
L 300.873262 50.234907 
L 301.273144 53.153673 
L 301.673027 55.40552 
L 302.07291 56.629032 
L 302.472792 56.637924 
L 302.872675 55.462207 
L 303.272557 53.33836 
L 303.67244 50.652698 
L 304.072322 47.832394 
L 304.472205 45.22023 
L 304.872087 43.006749 
L 305.27197 41.247982 
L 305.671852 39.930172 
L 306.071735 39.025012 
L 306.471617 38.50655 
L 306.8715 38.335733 
L 307.271382 38.438794 
L 307.671265 38.706158 
L 308.071147 39.014985 
L 308.47103 39.257255 
L 308.870913 39.359103 
L 308.910901 39.359981 
L 309.270795 39.289476 
L 309.670678 39.061777 
L 310.07056 38.731879 
L 310.470443 38.393567 
L 310.870325 38.168879 
L 311.270208 38.190676 
L 311.67009 38.581417 
L 312.069973 39.436856 
L 312.469855 40.815348 
L 312.869738 42.719147 
L 313.26962 45.060171 
L 313.669503 47.651878 
L 314.069385 50.272362 
L 314.469268 52.712452 
L 314.869151 54.766113 
L 315.269033 56.235733 
L 315.668916 56.966993 
L 316.068798 56.88612 
L 316.468681 56.015449 
L 316.868563 54.459025 
L 317.268446 52.368958 
L 317.668328 49.914751 
L 318.068211 47.274722 
L 318.468093 44.647893 
L 318.867976 42.254723 
L 319.267858 40.299941 
L 319.667741 38.921634 
L 320.067623 38.162279 
L 320.467506 37.965143 
L 320.867388 38.187664 
L 321.267271 38.629433 
L 321.667154 39.073591 
L 322.067036 39.334781 
L 322.226989 39.359981 
L 322.466919 39.302431 
L 322.866801 38.968645 
L 323.266684 38.433425 
L 323.666566 37.884368 
L 324.066449 37.552522 
L 324.466331 37.650707 
L 324.866214 38.310558 
L 325.266096 39.556216 
L 325.665979 41.335931 
L 326.065861 43.549811 
L 326.465744 46.037191 
L 326.865626 48.56985 
L 327.265509 50.877053 
L 327.665391 52.693998 
L 328.065274 53.816489 
L 328.465157 54.143539 
L 328.865039 53.690596 
L 329.264922 52.560386 
L 329.664804 50.876775 
L 330.064687 48.73668 
L 330.464569 46.267185 
L 330.864452 43.722258 
L 331.264334 41.410063 
L 331.664217 39.543582 
L 332.064099 38.207159 
L 332.463982 37.400027 
L 332.863864 37.07454 
L 333.263747 37.149374 
L 333.663629 37.513713 
L 334.063512 38.037533 
L 334.463395 38.587147 
L 334.863277 39.040474 
L 335.26316 39.306535 
L 335.543077 39.359981 
L 335.663042 39.350896 
L 336.062925 39.214048 
L 336.462807 39.009472 
L 336.86269 38.899627 
L 337.262572 39.056667 
L 337.662455 39.615348 
L 338.062337 40.615918 
L 338.46222 41.937553 
L 338.862102 43.369907 
L 339.261985 44.815961 
L 339.661867 46.237299 
L 340.06175 47.581394 
L 340.461632 48.780803 
L 340.861515 49.763787 
L 341.261398 50.465175 
L 341.66128 50.827248 
L 342.061163 50.788199 
L 342.461045 50.281743 
L 342.860928 49.278265 
L 343.26081 47.838863 
L 343.660693 46.104621 
L 344.060575 44.242257 
L 344.460458 42.420112 
L 344.86034 40.804839 
L 345.260223 39.543131 
L 345.660105 38.72495 
L 346.059988 38.351936 
L 346.45987 38.336752 
L 346.859753 38.537479 
L 347.259636 38.807797 
L 347.659518 39.040763 
L 348.059401 39.204321 
L 348.459283 39.315821 
L 348.859166 39.359981 
L 349.259048 39.309494 
L 349.658931 39.162904 
L 350.058813 38.959243 
L 350.458696 38.781331 
L 350.858578 38.750521 
L 351.258461 39.005558 
L 351.658343 39.653784 
L 352.058226 40.694604 
L 352.458108 41.970174 
L 352.857991 43.280884 
L 353.257873 44.556082 
L 353.657756 45.815993 
L 354.057639 47.090566 
L 354.457521 48.376526 
L 354.857404 49.597842 
L 355.257286 50.582345 
L 355.657169 51.082414 
L 356.057051 50.869155 
L 356.456934 49.900139 
L 356.856816 48.406297 
L 357.256699 46.746828 
L 357.656581 45.203246 
L 358.056464 43.891066 
L 358.456346 42.787983 
L 358.856229 41.818052 
L 359.256111 40.925654 
L 359.655994 40.106714 
L 360.055877 39.427616 
L 360.455759 39.010395 
L 360.855642 38.900981 
L 361.255524 39.019288 
L 361.655407 39.219179 
L 362.055289 39.351251 
L 362.175254 39.359981 
L 362.455172 39.309053 
L 362.855054 39.062234 
L 363.254937 38.676739 
L 363.654819 38.315095 
L 364.054702 38.205286 
L 364.454584 38.567128 
L 364.854467 39.488201 
L 365.254349 40.852102 
L 365.654232 42.534318 
L 366.054114 44.468346 
L 366.453997 46.580031 
L 366.85388 48.795728 
L 367.253762 51.02555 
L 367.653645 53.110862 
L 368.053527 54.792827 
L 368.45341 55.75315 
L 368.853292 55.711693 
L 369.253175 54.522994 
L 369.653057 52.242978 
L 370.05294 49.145646 
L 370.452822 45.654731 
L 370.852705 42.233884 
L 371.252587 39.301294 
L 371.65247 37.162837 
L 372.052352 35.954505 
L 372.452235 35.620695 
L 372.852117 35.950179 
L 373.252 36.655961 
L 373.651883 37.464499 
L 374.051765 38.187122 
L 374.451648 38.747315 
L 374.85153 39.131289 
L 375.251413 39.329424 
L 375.491342 39.359981 
L 375.651295 39.347771 
L 376.051178 39.234933 
L 376.45106 39.081495 
L 376.850943 38.997503 
L 377.250825 39.085382 
L 377.650708 39.422611 
L 378.05059 40.056436 
L 378.450473 41.000216 
L 378.850355 42.222545 
L 379.250238 43.641215 
L 379.650121 45.147945 
L 380.050003 46.65135 
L 380.449886 48.082223 
L 380.849768 49.355061 
L 381.249651 50.33795 
L 381.649533 50.867487 
L 382.049416 50.805577 
L 382.449298 50.103767 
L 382.849181 48.833908 
L 383.249063 47.170359 
L 383.648946 45.340812 
L 384.048828 43.567617 
L 384.448711 42.011873 
L 384.848593 40.739937 
L 385.248476 39.74297 
L 385.648358 39.003177 
L 386.048241 38.530082 
L 386.448124 38.327254 
L 386.848006 38.359326 
L 387.247889 38.557209 
L 387.647771 38.835898 
L 388.047654 39.108631 
L 388.447536 39.299925 
L 388.80743 39.359981 
L 388.847419 39.359226 
L 389.247301 39.27087 
L 389.647184 39.057975 
L 390.047066 38.783618 
L 390.446949 38.551696 
L 390.846831 38.500846 
L 391.246714 38.776736 
L 391.646596 39.469196 
L 392.046479 40.527077 
L 392.446362 41.766775 
L 392.846244 43.041719 
L 393.246127 44.312007 
L 393.646009 45.596736 
L 394.045892 46.933192 
L 394.445774 48.344677 
L 394.845657 49.816989 
L 395.245539 51.273618 
L 395.645422 52.543946 
L 396.045304 53.355418 
L 396.445187 53.391537 
L 396.845069 52.415993 
L 397.244952 50.416555 
L 397.644834 47.681133 
L 398.044717 44.702093 
L 398.444599 41.969742 
L 398.844482 39.826694 
L 399.244365 38.424766 
L 399.644247 37.746352 
L 400.04413 37.65485 
L 400.444012 37.950436 
L 400.843895 38.420752 
L 401.243777 38.883459 
L 401.64366 39.214905 
L 402.043542 39.356006 
L 402.123519 39.359981 
L 402.443425 39.2995 
L 402.843307 39.081529 
L 403.24319 38.782015 
L 403.643072 38.517431 
L 404.042955 38.422917 
L 404.442837 38.630758 
L 404.84272 39.24735 
L 405.242603 40.320782 
L 405.642485 41.781474 
L 406.042368 43.365244 
L 406.44225 44.747018 
L 406.842133 45.875927 
L 407.242015 46.855346 
L 407.641898 47.751998 
L 408.04178 48.566574 
L 408.441663 49.24807 
L 408.841545 49.722963 
L 409.241428 49.924363 
L 409.64131 49.809118 
L 410.041193 49.361853 
L 410.441075 48.591525 
L 410.840958 47.52549 
L 411.24084 46.205939 
L 411.640723 44.695538 
L 412.040606 43.093773 
L 412.440488 41.548133 
L 412.840371 40.234349 
L 413.240253 39.301515 
L 413.640136 38.813481 
L 414.040018 38.723755 
L 414.439901 38.895761 
L 414.839783 39.153051 
L 415.239666 39.334063 
L 415.439607 39.359981 
L 415.639548 39.332785 
L 416.039431 39.118263 
L 416.439313 38.73187 
L 416.839196 38.263948 
L 417.239078 37.824282 
L 417.638961 37.533774 
L 418.038844 37.523663 
L 418.438726 37.911081 
L 418.838609 38.776493 
L 419.238491 40.163224 
L 419.638374 42.079273 
L 420.038256 44.478045 
L 420.438139 47.225923 
L 420.838021 50.092246 
L 421.237904 52.784114 
L 421.637786 55.00374 
L 422.037669 56.491343 
L 422.437551 57.041934 
L 422.837434 56.503308 
L 423.237316 54.885739 
L 423.637199 52.56301 
L 424.037081 49.972705 
L 424.436964 47.400512 
L 424.836847 45.032265 
L 425.236729 42.996196 
L 425.636612 41.372839 
L 426.036494 40.194267 
L 426.436377 39.445365 
L 426.836259 39.069543 
L 427.236142 38.977555 
L 427.636024 39.060312 
L 428.035907 39.207099 
L 428.435789 39.325931 
L 428.755695 39.359981 
L 428.835672 39.3577 
L 429.235554 39.271844 
L 429.635437 39.040356 
L 430.035319 38.659977 
L 430.435202 38.183734 
L 430.835084 37.723909 
L 431.234967 37.439699 
L 431.63485 37.50912 
L 432.034732 38.092404 
L 432.434615 39.297755 
L 432.834497 41.154199 
L 433.23438 43.590303 
L 433.634262 46.426396 
L 434.034145 49.404209 
L 434.434027 52.251728 
L 434.83391 54.711272 
L 435.233792 56.542679 
L 435.633675 57.571608 
L 436.033557 57.719665 
L 436.43344 56.986071 
L 436.833322 55.425674 
L 437.233205 53.151788 
L 437.633088 50.356978 
L 438.03297 47.323883 
L 438.432853 44.393627 
L 438.832735 41.884597 
L 439.232618 40.007634 
L 439.6325 38.830995 
L 440.032383 38.297385 
L 440.432265 38.263099 
L 440.832148 38.537067 
L 441.23203 38.917311 
L 441.631913 39.22891 
L 442.031795 39.358891 
L 442.071784 39.359981 
L 442.431678 39.276809 
L 442.83156 39.033212 
L 443.231443 38.735781 
L 443.631325 38.510621 
L 444.031208 38.463493 
L 444.431091 38.656153 
L 444.830973 39.102015 
L 445.230856 39.773815 
L 445.630738 40.614084 
L 446.030621 41.545501 
L 446.430503 42.486871 
L 446.830386 43.379002 
L 447.230268 44.20407 
L 447.630151 44.967245 
L 448.030033 45.644611 
L 448.429916 46.160507 
L 448.829798 46.43834 
L 449.229681 46.458465 
L 449.629563 46.241721 
L 450.029446 45.807055 
L 450.429329 45.173 
L 450.829211 44.383715 
L 451.229094 43.512716 
L 451.628976 42.63861 
L 452.028859 41.820731 
L 452.428741 41.093137 
L 452.828624 40.472941 
L 453.228506 39.971772 
L 453.628389 39.602732 
L 454.028271 39.378057 
L 454.428154 39.293579 
L 454.828036 39.30984 
L 455.227919 39.353708 
L 455.387872 39.359981 
L 455.627801 39.341538 
L 456.027684 39.204202 
L 456.427566 38.90319 
L 456.827449 38.438942 
L 457.227332 37.857023 
L 457.627214 37.255624 
L 458.027097 36.790866 
L 458.426979 36.672256 
L 458.826862 37.141059 
L 459.226744 38.424606 
L 459.626627 40.66381 
L 460.026509 43.826132 
L 460.426392 47.632965 
L 460.826274 51.464118 
L 461.226157 54.045997 
L 461.626039 55.24787 
L 462.025922 55.437699 
L 462.425804 54.732579 
L 462.825687 53.277435 
L 463.22557 51.25654 
L 463.625452 48.900378 
L 464.025335 46.471073 
L 464.425217 44.210198 
L 464.8251 42.286571 
L 465.224982 40.781428 
L 465.624865 39.709233 
L 466.024747 39.046091 
L 466.42463 38.742043 
L 466.824512 38.718048 
L 467.224395 38.867049 
L 467.624277 39.073421 
L 468.02416 39.245732 
L 468.424042 39.341295 
L 468.70396 39.359981 
L 468.823925 39.356775 
L 469.223807 39.306808 
L 469.62369 39.225111 
L 470.023573 39.163322 
L 470.423455 39.180197 
L 470.823338 39.329394 
L 471.22322 39.651559 
L 471.623103 40.171851 
L 472.022985 40.897512 
L 472.422868 41.806781 
L 472.82275 42.822764 
L 473.222633 43.776196 
L 473.622515 44.433917 
L 474.022398 44.681592 
L 474.42228 44.619267 
L 474.822163 44.466242 
L 475.222045 44.432125 
L 475.621928 44.605735 
L 476.02181 44.899385 
L 476.421693 45.062034 
L 476.821576 44.781353 
L 477.221458 43.942502 
L 477.621341 42.773094 
L 478.021223 41.567773 
L 478.421106 40.502794 
L 478.820988 39.673323 
L 479.220871 39.133168 
L 479.620753 38.887339 
L 480.020636 38.879409 
L 480.420518 39.007784 
L 480.820401 39.166568 
L 481.220283 39.284781 
L 481.620166 39.343443 
L 482.020048 39.359981 
L 482.020048 39.359981 
L 482.020048 39.359981 
L 481.620166 39.394065 
L 481.220283 39.532165 
L 480.820401 39.851501 
L 480.420518 40.41538 
L 480.020636 41.250225 
L 479.620753 42.342991 
L 479.220871 43.644017 
L 478.820988 45.069241 
L 478.421106 46.504577 
L 478.021223 47.825487 
L 477.621341 48.94859 
L 477.221458 49.916243 
L 476.821576 50.937361 
L 476.421693 52.174142 
L 476.02181 53.43859 
L 475.621928 54.330773 
L 475.222045 54.513419 
L 474.822163 53.847562 
L 474.42228 52.44878 
L 474.022398 50.651262 
L 473.622515 48.859551 
L 473.222633 47.351937 
L 472.82275 46.143315 
L 472.422868 45.078278 
L 472.022985 44.034104 
L 471.623103 42.977121 
L 471.22322 41.945071 
L 470.823338 41.01688 
L 470.423455 40.273719 
L 470.023573 39.763413 
L 469.62369 39.481713 
L 469.223807 39.374908 
L 468.823925 39.359651 
L 468.70396 39.359981 
L 468.424042 39.353956 
L 468.02416 39.316989 
L 467.624277 39.28009 
L 467.224395 39.331988 
L 466.824512 39.583832 
L 466.42463 40.142015 
L 466.024747 41.08719 
L 465.624865 42.464182 
L 465.224982 44.281118 
L 464.8251 46.507371 
L 464.425217 49.063856 
L 464.025335 51.811999 
L 463.625452 54.552412 
L 463.22557 57.032562 
L 462.825687 58.954302 
L 462.425804 59.992416 
L 462.025922 59.856284 
L 461.626039 58.399971 
L 461.226157 55.763224 
L 460.826274 52.741499 
L 460.426392 49.997554 
L 460.026509 47.218473 
L 459.626627 44.635882 
L 459.226744 42.502777 
L 458.826862 40.939023 
L 458.426979 39.934234 
L 458.027097 39.393781 
L 457.627214 39.187405 
L 457.227332 39.18213 
L 456.827449 39.260961 
L 456.427566 39.337629 
L 456.027684 39.370187 
L 455.627801 39.364755 
L 455.387872 39.359981 
L 455.227919 39.363749 
L 454.828036 39.427131 
L 454.428154 39.621099 
L 454.028271 40.019572 
L 453.628389 40.706062 
L 453.228506 41.755078 
L 452.828624 43.197488 
L 452.428741 44.998368 
L 452.028859 47.058393 
L 451.628976 49.231988 
L 451.229094 51.352025 
L 450.829211 53.249828 
L 450.429329 54.766324 
L 450.029446 55.768143 
L 449.629563 56.186778 
L 449.229681 56.065878 
L 448.829798 55.56534 
L 448.429916 54.887493 
L 448.030033 54.160991 
L 447.630151 53.385284 
L 447.230268 52.481981 
L 446.830386 51.3691 
L 446.430503 49.994279 
L 446.030621 48.351304 
L 445.630738 46.502678 
L 445.230856 44.58786 
L 444.830973 42.794951 
L 444.431091 41.304369 
L 444.031208 40.231943 
L 443.631325 39.596539 
L 443.231443 39.324251 
L 442.83156 39.283644 
L 442.431678 39.332734 
L 442.071784 39.359981 
L 442.031795 39.359574 
L 441.631913 39.309561 
L 441.23203 39.199339 
L 440.832148 39.117677 
L 440.432265 39.212893 
L 440.032383 39.665881 
L 439.6325 40.649768 
L 439.232618 42.2845 
L 438.832735 44.601575 
L 438.432853 47.529329 
L 438.03297 50.895079 
L 437.633088 54.431852 
L 437.233205 57.791389 
L 436.833322 60.58633 
L 436.43344 62.462076 
L 436.033557 63.168084 
L 435.633675 62.615227 
L 435.233792 60.915228 
L 434.83391 58.364812 
L 434.434027 55.344038 
L 434.034145 52.198707 
L 433.634262 49.184225 
L 433.23438 46.4486 
L 432.834497 44.068404 
L 432.434615 42.103415 
L 432.034732 40.602195 
L 431.63485 39.57759 
L 431.234967 38.991497 
L 430.835084 38.761511 
L 430.435202 38.780532 
L 430.035319 38.937412 
L 429.635437 39.132979 
L 429.235554 39.289953 
L 428.835672 39.358231 
L 428.755695 39.359981 
L 428.435789 39.338958 
L 428.035907 39.299029 
L 427.636024 39.3377 
L 427.236142 39.566889 
L 426.836259 40.094908 
L 426.436377 41.005142 
L 426.036494 42.335371 
L 425.636612 44.0678 
L 425.236729 46.134523 
L 424.836847 48.432866 
L 424.436964 50.839352 
L 424.037081 53.215896 
L 423.637199 55.417702 
L 423.237316 57.33364 
L 422.837434 58.957361 
L 422.437551 60.227439 
L 422.037669 60.814162 
L 421.637786 60.416331 
L 421.237904 58.952331 
L 420.838021 56.582764 
L 420.438139 53.640646 
L 420.038256 50.494948 
L 419.638374 47.448525 
L 419.238491 44.716397 
L 418.838609 42.441935 
L 418.438726 40.708851 
L 418.038844 39.54403 
L 417.638961 38.917397 
L 417.239078 38.738437 
L 416.839196 38.854945 
L 416.439313 39.081649 
L 416.039431 39.268679 
L 415.639548 39.352371 
L 415.439607 39.359981 
L 415.239666 39.356094 
L 414.839783 39.365965 
L 414.439901 39.502643 
L 414.040018 39.894483 
L 413.640136 40.650862 
L 413.240253 41.837193 
L 412.840371 43.459523 
L 412.440488 45.465951 
L 412.040606 47.760711 
L 411.640723 50.217522 
L 411.24084 52.686666 
L 410.840958 55.00399 
L 410.441075 57.008678 
L 410.041193 58.566016 
L 409.64131 59.584309 
L 409.241428 60.016643 
L 408.841545 59.848595 
L 408.441663 59.083162 
L 408.04178 57.7365 
L 407.641898 55.851935 
L 407.242015 53.527798 
L 406.842133 50.943181 
L 406.44225 48.365713 
L 406.042368 46.112367 
L 405.642485 44.343129 
L 405.242603 42.918705 
L 404.84272 41.711399 
L 404.442837 40.720543 
L 404.042955 39.986283 
L 403.643072 39.528481 
L 403.24319 39.3214 
L 402.843307 39.292187 
L 402.443425 39.338035 
L 402.123519 39.359981 
L 402.043542 39.35827 
L 401.64366 39.295949 
L 401.243777 39.172617 
L 400.843895 39.089713 
L 400.444012 39.196903 
L 400.04413 39.654156 
L 399.644247 40.60149 
L 399.244365 42.135075 
L 398.844482 44.284116 
L 398.444599 46.988109 
L 398.044717 50.087715 
L 397.644834 53.350505 
L 397.244952 56.529647 
L 396.845069 59.399896 
L 396.445187 61.739224 
L 396.045304 63.337871 
L 395.645422 64.047017 
L 395.245539 63.79687 
L 394.845657 62.593407 
L 394.445774 60.522598 
L 394.045892 57.753746 
L 393.646009 54.527978 
L 393.246127 51.135573 
L 392.846244 47.888337 
L 392.446362 45.082224 
L 392.046479 42.930598 
L 391.646596 41.460659 
L 391.246714 40.526295 
L 390.846831 39.964632 
L 390.446949 39.650536 
L 390.047066 39.487638 
L 389.647184 39.408076 
L 389.247301 39.371805 
L 388.847419 39.360077 
L 388.80743 39.359981 
L 388.447536 39.368349 
L 388.047654 39.403273 
L 387.647771 39.48345 
L 387.247889 39.639627 
L 386.848006 39.91082 
L 386.448124 40.339608 
L 386.048241 40.976966 
L 385.648358 41.901795 
L 385.248476 43.23162 
L 384.848593 45.078896 
L 384.448711 47.468193 
L 384.048828 50.288209 
L 383.648946 53.290335 
L 383.249063 56.125337 
L 382.849181 58.428635 
L 382.449298 59.924921 
L 382.049416 60.490859 
L 381.649533 60.148638 
L 381.249651 59.017454 
L 380.849768 57.266784 
L 380.449886 55.092564 
L 380.050003 52.707209 
L 379.650121 50.321003 
L 379.250238 48.102288 
L 378.850355 46.137745 
L 378.450473 44.438216 
L 378.05059 42.987059 
L 377.650708 41.777043 
L 377.250825 40.815316 
L 376.850943 40.111371 
L 376.45106 39.661037 
L 376.051178 39.433031 
L 375.651295 39.363305 
L 375.491342 39.359981 
L 375.251413 39.361445 
L 374.85153 39.331944 
L 374.451648 39.213419 
L 374.051765 39.032709 
L 373.651883 38.928832 
L 373.252 39.091599 
L 372.852117 39.690443 
L 372.452235 40.852932 
L 372.052352 42.653192 
L 371.65247 45.09172 
L 371.252587 48.075416 
L 370.852705 51.417248 
L 370.452822 54.870591 
L 370.05294 58.188112 
L 369.653057 61.164691 
L 369.253175 63.621213 
L 368.853292 65.346446 
L 368.45341 66.092968 
L 368.053527 65.658316 
L 367.653645 63.971908 
L 367.253762 61.140773 
L 366.85388 57.451995 
L 366.453997 53.326206 
L 366.054114 49.227912 
L 365.654232 45.572126 
L 365.254349 42.671718 
L 364.854467 40.70618 
L 364.454584 39.613017 
L 364.054702 39.131172 
L 363.654819 39.028031 
L 363.254937 39.118105 
L 362.855054 39.25375 
L 362.455172 39.342734 
L 362.175254 39.359981 
L 362.055289 39.35735 
L 361.655407 39.326412 
L 361.255524 39.316669 
L 360.855642 39.412158 
L 360.455759 39.698352 
L 360.055877 40.261405 
L 359.655994 41.20112 
L 359.256111 42.576034 
L 358.856229 44.319863 
L 358.456346 46.304208 
L 358.056464 48.408716 
L 357.656581 50.526897 
L 357.256699 52.543973 
L 356.856816 54.331564 
L 356.456934 55.783021 
L 356.057051 56.844587 
L 355.657169 57.462917 
L 355.257286 57.527727 
L 354.857404 56.941823 
L 354.457521 55.701177 
L 354.057639 53.894395 
L 353.657756 51.673431 
L 353.257873 49.239771 
L 352.857991 46.843351 
L 352.458108 44.753548 
L 352.058226 43.138586 
L 351.658343 41.957797 
L 351.258461 41.085164 
L 350.858578 40.433573 
L 350.458696 39.958226 
L 350.058813 39.636731 
L 349.658931 39.451313 
L 349.259048 39.373867 
L 348.859166 39.359981 
L 348.459283 39.356092 
L 348.059401 39.321037 
L 347.659518 39.269961 
L 347.259636 39.30119 
L 346.859753 39.520171 
L 346.45987 40.008353 
L 346.059988 40.825592 
L 345.660105 41.992977 
L 345.260223 43.47977 
L 344.86034 45.20801 
L 344.460458 47.071967 
L 344.060575 48.961268 
L 343.660693 50.781865 
L 343.26081 52.474385 
L 342.860928 54.020588 
L 342.461045 55.409147 
L 342.061163 56.559155 
L 341.66128 57.289023 
L 341.261398 57.381828 
L 340.861515 56.688 
L 340.461632 55.199009 
L 340.06175 53.056542 
L 339.661867 50.506212 
L 339.261985 47.837093 
L 338.862102 45.336923 
L 338.46222 43.257971 
L 338.062337 41.722528 
L 337.662455 40.648936 
L 337.262572 39.936434 
L 336.86269 39.528034 
L 336.462807 39.357522 
L 336.062925 39.33417 
L 335.663042 39.35749 
L 335.543077 39.359981 
L 335.26316 39.342143 
L 334.863277 39.243477 
L 334.463395 39.079194 
L 334.063512 38.939359 
L 333.663629 38.971039 
L 333.263747 39.332812 
L 332.863864 40.141104 
L 332.463982 41.439165 
L 332.064099 43.197593 
L 331.664217 45.334554 
L 331.264334 47.746558 
L 330.864452 50.35466 
L 330.464569 53.152207 
L 330.064687 56.17028 
L 329.664804 59.30792 
L 329.264922 62.230206 
L 328.865039 64.479165 
L 328.465157 65.634812 
L 328.065274 65.436111 
L 327.665391 63.850276 
L 327.265509 61.063975 
L 326.865626 57.418277 
L 326.465744 53.339266 
L 326.065861 49.278818 
L 325.665979 45.651456 
L 325.266096 42.763943 
L 324.866214 40.752341 
L 324.466331 39.563339 
L 324.066449 39.017721 
L 323.666566 38.903136 
L 323.266684 39.021869 
L 322.866801 39.207115 
L 322.466919 39.337043 
L 322.226989 39.359981 
L 322.067036 39.350105 
L 321.667154 39.254422 
L 321.267271 39.125857 
L 320.867388 39.094285 
L 320.467506 39.319882 
L 320.067623 39.960986 
L 319.667741 41.137699 
L 319.267858 42.903538 
L 318.867976 45.240462 
L 318.468093 48.076381 
L 318.068211 51.297202 
L 317.668328 54.72863 
L 317.268446 58.111262 
L 316.868563 61.110316 
L 316.468681 63.364864 
L 316.068798 64.560419 
L 315.668916 64.504347 
L 315.269033 63.179106 
L 314.869151 60.75378 
L 314.469268 57.551075 
L 314.069385 53.981594 
L 313.669503 50.458025 
L 313.26962 47.297098 
L 312.869738 44.649925 
L 312.469855 42.541317 
L 312.069973 40.958479 
L 311.67009 39.87458 
L 311.270208 39.236082 
L 310.870325 38.95864 
L 310.470443 38.935938 
L 310.07056 39.054378 
L 309.670678 39.209929 
L 309.270795 39.324875 
L 308.910901 39.359981 
L 308.870913 39.359563 
L 308.47103 39.315061 
L 308.071147 39.22882 
L 307.671265 39.169162 
L 307.271382 39.231352 
L 306.8715 39.532966 
L 306.471617 40.202904 
L 306.071735 41.35743 
L 305.671852 43.064347 
L 305.27197 45.314886 
L 304.872087 48.024739 
L 304.472205 51.059771 
L 304.072322 54.261913 
L 303.67244 57.453602 
L 303.272557 60.414687 
L 302.872675 62.847566 
L 302.472792 64.377706 
L 302.07291 64.642626 
L 301.673027 63.450166 
L 301.273144 60.902772 
L 300.873262 57.389257 
L 300.473379 53.445346 
L 300.073497 49.586228 
L 299.673614 46.20302 
L 299.273732 43.527414 
L 298.873849 41.626265 
L 298.473967 40.42092 
L 298.074084 39.748119 
L 297.674202 39.431262 
L 297.274319 39.321338 
L 296.874437 39.310379 
L 296.474554 39.331601 
L 296.074672 39.351735 
L 295.674789 39.359792 
L 295.594813 39.359981 
L 295.274906 39.358135 
L 294.875024 39.359958 
L 294.475141 39.394534 
L 294.075259 39.518944 
L 293.675376 39.821488 
L 293.275494 40.396426 
L 292.875611 41.312603 
L 292.475729 42.603311 
L 292.075846 44.263956 
L 291.675964 46.245667 
L 291.276081 48.443887 
L 290.876199 50.681618 
L 290.476316 52.703154 
L 290.076434 54.225997 
L 289.676551 55.078372 
L 289.276669 55.384626 
L 288.876786 55.734437 
L 288.476903 56.735797 
L 288.077021 57.995642 
L 287.677138 58.843419 
L 287.277256 58.821237 
L 286.877373 57.685625 
L 286.477491 55.447851 
L 286.077608 52.376198 
L 285.677726 48.916775 
L 285.277843 45.563284 
L 284.877961 42.732288 
L 284.478078 40.685242 
L 284.078196 39.503952 
L 283.678313 39.066411 
L 283.278431 39.061546 
L 282.878548 39.212765 
L 282.478665 39.340749 
L 282.278724 39.359981 
L 282.078783 39.339527 
L 281.6789 39.180017 
L 281.279018 38.911389 
L 280.879135 38.650631 
L 280.479253 38.562726 
L 280.07937 38.835231 
L 279.679488 39.652611 
L 279.279605 41.179455 
L 278.879723 43.54566 
L 278.47984 46.792133 
L 278.079958 50.805822 
L 277.680075 55.321848 
L 277.280193 59.948838 
L 276.88031 64.203174 
L 276.480428 67.594963 
L 276.080545 69.757784 
L 275.680662 70.547195 
L 275.28078 70.016892 
L 274.880897 68.290282 
L 274.481015 65.502549 
L 274.081132 61.854116 
L 273.68125 57.637976 
L 273.281367 53.208976 
L 272.881485 48.942514 
L 272.481602 45.201218 
L 272.08172 42.307362 
L 271.681837 40.472742 
L 271.281955 39.554991 
L 270.882072 39.180531 
L 270.48219 39.100909 
L 270.082307 39.16418 
L 269.682425 39.265759 
L 269.282542 39.340411 
L 268.962636 39.359981 
L 268.882659 39.358786 
L 268.482777 39.320624 
L 268.082894 39.247914 
L 267.683012 39.183737 
L 267.283129 39.205117 
L 266.883247 39.454262 
L 266.483364 40.106957 
L 266.083482 41.22777 
L 265.683599 42.763525 
L 265.283717 44.602123 
L 264.883834 46.596911 
L 264.483952 48.599385 
L 264.084069 50.511747 
L 263.684187 52.335769 
L 263.284304 54.166571 
L 262.884421 56.086652 
L 262.484539 58.009616 
L 262.084656 59.633136 
L 261.684774 60.557334 
L 261.284891 60.46222 
L 260.885009 59.240398 
L 260.485126 57.028012 
L 260.085244 54.135387 
L 259.685361 50.938808 
L 259.285479 47.795005 
L 258.885596 44.990784 
L 258.485714 42.712737 
L 258.085831 41.038387 
L 257.685949 39.954378 
L 257.286066 39.379818 
L 256.886184 39.183757 
L 256.486301 39.209036 
L 256.086418 39.305083 
L 255.686536 39.35947 
L 255.646548 39.359981 
L 255.286653 39.318335 
L 254.886771 39.1919 
L 254.486888 39.046109 
L 254.087006 38.983889 
L 253.687123 39.122403 
L 253.287241 39.575185 
L 252.887358 40.44288 
L 252.487476 41.801089 
L 252.087593 43.679727 
L 251.687711 46.04922 
L 251.287828 48.807686 
L 250.887946 51.765843 
L 250.488063 54.654814 
L 250.08818 57.172026 
L 249.688298 59.049236 
L 249.288415 60.111832 
L 248.888533 60.306794 
L 248.48865 59.694147 
L 248.088768 58.412981 
L 247.688885 56.642829 
L 247.289003 54.573382 
L 246.88912 52.368208 
L 246.489238 50.121854 
L 246.089355 47.88226 
L 245.689473 45.720275 
L 245.28959 43.746481 
L 244.889708 42.080016 
L 244.489825 40.808364 
L 244.089943 39.959428 
L 243.69006 39.49463 
L 243.290177 39.321183 
L 242.890295 39.31595 
L 242.490412 39.354631 
L 242.330459 39.359981 
L 242.09053 39.346655 
L 241.690647 39.278007 
L 241.290765 39.219483 
L 240.890882 39.277845 
L 240.491 39.553565 
L 240.091117 40.118928 
L 239.691235 41.009845 
L 239.291352 42.226101 
L 238.89147 43.73214 
L 238.491587 45.456111 
L 238.091705 47.303173 
L 237.691822 49.224636 
L 237.291939 51.265074 
L 236.892057 53.236221 
L 236.492174 54.730109 
L 236.092292 55.505891 
L 235.692409 55.541608 
L 235.292527 54.965896 
L 234.892644 53.968767 
L 234.492762 52.726322 
L 234.092879 51.371856 
L 233.692997 50.010274 
L 233.293114 48.676871 
L 232.893232 47.246599 
L 232.493349 45.632531 
L 232.093467 43.938328 
L 231.693584 42.356201 
L 231.293702 41.054383 
L 230.893819 40.124679 
L 230.493936 39.573788 
L 230.094054 39.336966 
L 229.694171 39.302584 
L 229.294289 39.344015 
L 229.014371 39.359981 
L 228.894406 39.356419 
L 228.494524 39.292604 
L 228.094641 39.18106 
L 227.694759 39.113034 
L 227.294876 39.212919 
L 226.894994 39.604857 
L 226.495111 40.38409 
L 226.095229 41.604787 
L 225.695346 43.277331 
L 225.295464 45.340577 
L 224.895581 47.624919 
L 224.495699 49.87547 
L 224.095816 51.823336 
L 223.695933 53.25446 
L 223.296051 54.061742 
L 222.896168 54.309035 
L 222.496286 54.422586 
L 222.096403 54.663457 
L 221.696521 54.380309 
L 221.296638 53.339384 
L 220.896756 51.67248 
L 220.496873 49.672673 
L 220.096991 47.596602 
L 219.697108 45.549221 
L 219.297226 43.624548 
L 218.897343 41.96743 
L 218.497461 40.69718 
L 218.097578 39.851819 
L 217.697695 39.387541 
L 217.297813 39.20873 
L 216.89793 39.203368 
L 216.498048 39.270619 
L 216.098165 39.33611 
L 215.698283 39.359981 
L 215.2984 39.344336 
L 214.898518 39.333794 
L 214.498635 39.402109 
L 214.098753 39.631621 
L 213.69887 40.094572 
L 213.298988 40.840941 
L 212.899105 41.893303 
L 212.499223 43.244339 
L 212.09934 44.850456 
L 211.699458 46.620562 
L 211.299575 48.411377 
L 210.899692 50.053341 
L 210.49981 51.415277 
L 210.099927 52.397703 
L 209.700045 52.872094 
L 209.300162 52.793883 
L 208.90028 52.23794 
L 208.500397 51.32658 
L 208.100515 50.169568 
L 207.700632 48.848445 
L 207.30075 47.429288 
L 206.900867 45.977854 
L 206.500985 44.565614 
L 206.101102 43.271838 
L 205.70122 42.183616 
L 205.301337 41.347631 
L 204.901454 40.701851 
L 204.501572 40.184034 
L 204.101689 39.791036 
L 203.701807 39.532327 
L 203.301924 39.399107 
L 202.902042 39.358001 
L 202.502159 39.359181 
L 202.382195 39.359981 
L 202.102277 39.352801 
L 201.702394 39.310029 
L 201.302512 39.246908 
L 200.902629 39.246922 
L 200.502747 39.445928 
L 200.102864 39.96667 
L 199.702982 40.883141 
L 199.303099 42.207013 
L 198.903217 43.883369 
L 198.503334 45.805357 
L 198.103451 47.84253 
L 197.703569 49.865294 
L 197.303686 51.750926 
L 196.903804 53.380244 
L 196.503921 54.686762 
L 196.104039 55.733815 
L 195.704156 56.235855 
L 195.304274 55.915038 
L 194.904391 54.791244 
L 194.504509 53.037806 
L 194.104626 50.883324 
L 193.704744 48.554519 
L 193.304861 46.257182 
L 192.904979 44.166666 
L 192.505096 42.398455 
L 192.105213 40.995768 
L 191.705331 39.971542 
L 191.305448 39.323614 
L 190.905566 39.015574 
L 190.505683 38.971077 
L 190.105801 39.085479 
L 189.705918 39.241613 
L 189.306036 39.343194 
L 189.066106 39.359981 
L 188.906153 39.35316 
L 188.506271 39.291304 
L 188.106388 39.218657 
L 187.706506 39.223824 
L 187.306623 39.409233 
L 186.906741 39.876278 
L 186.506858 40.711956 
L 186.106976 41.985307 
L 185.707093 43.759861 
L 185.30721 46.074013 
L 184.907328 48.8343 
L 184.507445 51.81447 
L 184.107563 54.774024 
L 183.70768 57.505462 
L 183.307798 59.787361 
L 182.907915 61.31813 
L 182.508033 61.759595 
L 182.10815 60.901715 
L 181.708268 58.818766 
L 181.308385 55.908997 
L 180.908503 52.716767 
L 180.50862 49.55827 
L 180.108738 46.565537 
L 179.708855 43.925889 
L 179.308972 41.827328 
L 178.90909 40.361605 
L 178.509207 39.499872 
L 178.109325 39.118221 
L 177.709442 39.045564 
L 177.30956 39.11973 
L 176.909677 39.227348 
L 176.509795 39.310144 
L 176.109912 39.351385 
L 175.750018 39.359981 
L 175.71003 39.359913 
L 175.310147 39.356635 
L 174.910265 39.367829 
L 174.510382 39.438972 
L 174.1105 39.66533 
L 173.710617 40.163439 
L 173.310735 41.015929 
L 172.910852 42.255103 
L 172.510969 43.848133 
L 172.111087 45.696582 
L 171.711204 47.66458 
L 171.311322 49.624806 
L 170.911439 51.497156 
L 170.511557 53.266302 
L 170.111674 54.995081 
L 169.711792 56.820654 
L 169.311909 58.719162 
L 168.912027 60.282292 
L 168.512144 61.049219 
L 168.112262 60.754532 
L 167.712379 59.352162 
L 167.312497 56.984764 
L 166.912614 53.932137 
L 166.512732 50.553023 
L 166.112849 47.233465 
L 165.712966 44.343741 
L 165.313084 42.16628 
L 164.913201 40.729179 
L 164.513319 39.847679 
L 164.113436 39.372445 
L 163.713554 39.196864 
L 163.313671 39.210545 
L 162.913789 39.298082 
L 162.513906 39.357936 
L 162.43393 39.359981 
L 162.114024 39.325244 
L 161.714141 39.193427 
L 161.314259 39.035965 
L 160.914376 39.024998 
L 160.514494 39.37879 
L 160.114611 40.250605 
L 159.714728 41.690494 
L 159.314846 43.634038 
L 158.914963 45.906833 
L 158.515081 48.265116 
L 158.115198 50.470696 
L 157.715316 52.373767 
L 157.315433 53.95783 
L 156.915551 55.302042 
L 156.515668 56.466095 
L 156.115786 57.408491 
L 155.715903 57.977722 
L 155.316021 57.916967 
L 154.916138 57.007443 
L 154.516256 55.219137 
L 154.116373 52.74003 
L 153.716491 49.908913 
L 153.316608 47.108275 
L 152.916725 44.662465 
L 152.516843 42.745079 
L 152.11696 41.351046 
L 151.717078 40.401842 
L 151.317195 39.80971 
L 150.917313 39.485463 
L 150.51743 39.344909 
L 150.117548 39.314442 
L 149.717665 39.333439 
L 149.317783 39.356339 
L 149.117841 39.359981 
L 148.9179 39.356121 
L 148.518018 39.327816 
L 148.118135 39.291155 
L 147.718253 39.293908 
L 147.31837 39.414596 
L 146.918487 39.753564 
L 146.518605 40.407733 
L 146.118722 41.438226 
L 145.71884 42.835971 
L 145.318957 44.504963 
L 144.919075 46.294917 
L 144.519192 48.076271 
L 144.11931 49.79669 
L 143.719427 51.46739 
L 143.319545 53.09461 
L 142.919662 54.62051 
L 142.51978 55.929207 
L 142.119897 56.908568 
L 141.720015 57.489528 
L 141.320132 57.614296 
L 140.92025 57.191254 
L 140.520367 56.117257 
L 140.120484 54.354604 
L 139.720602 51.994789 
L 139.320719 49.267747 
L 138.920837 46.493357 
L 138.520954 43.996941 
L 138.121072 42.022332 
L 137.721189 40.669472 
L 137.321307 39.879118 
L 136.921424 39.49635 
L 136.521542 39.363218 
L 136.121659 39.351459 
L 135.801753 39.359981 
L 135.721777 39.358971 
L 135.321894 39.310514 
L 134.922012 39.165761 
L 134.522129 38.9278 
L 134.122246 38.651724 
L 133.722364 38.459116 
L 133.322481 38.540237 
L 132.922599 39.081926 
L 132.522716 40.17677 
L 132.122834 41.83702 
L 131.722951 44.048309 
L 131.323069 46.790217 
L 130.923186 50.010687 
L 130.523304 53.570683 
L 130.123421 57.195101 
L 129.723539 60.465327 
L 129.323656 62.885004 
L 128.923774 64.033213 
L 128.523891 63.736948 
L 128.124009 62.120408 
L 127.724126 59.489126 
L 127.324243 56.20058 
L 126.924361 52.619608 
L 126.524478 49.089896 
L 126.124596 45.894919 
L 125.724713 43.233339 
L 125.324831 41.21529 
L 124.924948 39.867841 
L 124.525066 39.136738 
L 124.125183 38.888572 
L 123.725301 38.942192 
L 123.325418 39.121272 
L 122.925536 39.287879 
L 122.525653 39.359383 
L 122.485665 39.359981 
L 122.125771 39.315193 
L 121.725888 39.191508 
L 121.326006 39.067311 
L 120.926123 39.048333 
L 120.52624 39.254878 
L 120.126358 39.812778 
L 119.726475 40.82106 
L 119.326593 42.297982 
L 118.92671 44.173501 
L 118.526828 46.307385 
L 118.126945 48.506364 
L 117.727063 50.555272 
L 117.32718 52.271655 
L 116.927298 53.568845 
L 116.527415 54.461461 
L 116.127533 54.987546 
L 115.72765 55.16776 
L 115.327768 55.003176 
L 114.927885 54.466945 
L 114.528002 53.516312 
L 114.12812 52.125276 
L 113.728237 50.322328 
L 113.328355 48.220791 
L 112.928472 46.018161 
L 112.52859 43.949571 
L 112.128707 42.218168 
L 111.728825 40.934989 
L 111.328942 40.089381 
L 110.92906 39.59583 
L 110.529177 39.36037 
L 110.129295 39.295126 
L 109.729412 39.318006 
L 109.32953 39.355174 
L 109.169577 39.359981 
L 108.929647 39.346789 
L 108.529765 39.255991 
L 108.129882 39.082472 
L 107.729999 38.890441 
L 107.330117 38.81665 
L 106.930234 39.001083 
L 106.530352 39.56703 
L 106.130469 40.606958 
L 105.730587 42.162003 
L 105.330704 44.212304 
L 104.930822 46.675448 
L 104.530939 49.407088 
L 104.131057 52.199602 
L 103.731174 54.767085 
L 103.331292 56.754457 
L 102.931409 57.855715 
L 102.531527 57.945157 
L 102.131644 57.127149 
L 101.731761 55.839652 
L 101.331879 54.272792 
L 100.931996 52.321895 
L 100.532114 50.089368 
L 100.132231 47.724875 
L 99.732349 45.392914 
L 99.332466 43.258863 
L 98.932584 41.473146 
L 98.532701 40.146764 
L 98.132819 39.319778 
L 97.732936 38.943558 
L 97.333054 38.89797 
L 96.933171 39.033685 
L 96.533289 39.212343 
L 96.133406 39.334347 
L 95.853488 39.359981 
L 95.733524 39.355619 
L 95.333641 39.292536 
L 94.933758 39.215562 
L 94.533876 39.23349 
L 94.133993 39.467435 
L 93.734111 40.020403 
L 93.334228 40.958647 
L 92.934346 42.307822 
L 92.534463 44.043318 
L 92.134581 46.079504 
L 91.734698 48.279926 
L 91.334816 50.481406 
L 90.934933 52.525239 
L 90.535051 54.292572 
L 90.135168 55.684376 
L 89.735286 56.494976 
L 89.335403 56.48454 
L 88.93552 55.625257 
L 88.535638 54.083723 
L 88.135755 52.041766 
L 87.735873 49.665123 
L 87.33599 47.173505 
L 86.936108 44.829642 
L 86.536225 42.864657 
L 86.136343 41.407525 
L 85.73646 40.45175 
L 85.336578 39.885054 
L 84.936695 39.579095 
L 84.536813 39.435024 
L 84.13693 39.379632 
L 83.737048 39.363553 
L 83.337165 39.360357 
L 82.937283 39.359991 
L 82.5374 39.359981 
z
" clip-path="url(#p46327b7c49)" style="fill: #96c6e2; fill-opacity: 0.5; stroke: #96c6e2; stroke-opacity: 0.5; stroke-width: 0.5"/>
   </g>
   <g id="line2d_11">
    <path d="M 82.5374 39.359981 
L 82.937283 39.266007 
L 83.337165 38.987423 
L 84.13693 37.922176 
L 84.936695 36.314147 
L 87.735873 29.977125 
L 88.535638 29.024832 
L 88.93552 28.810067 
L 89.335403 28.781837 
L 89.735286 28.941144 
L 90.135168 29.282334 
L 90.934933 30.455891 
L 91.734698 32.137359 
L 94.133993 37.710773 
L 94.933758 38.86916 
L 95.333641 39.201491 
L 95.853488 39.359981 
L 96.133406 39.313864 
L 96.533289 39.089918 
L 96.933171 38.687611 
L 97.732936 37.41086 
L 98.932584 34.6881 
L 100.532114 30.916649 
L 101.331879 29.56957 
L 101.731761 29.124666 
L 102.131644 28.855131 
L 102.531527 28.770531 
L 102.931409 28.873869 
L 103.331292 29.161479 
L 104.131057 30.242494 
L 104.930822 31.861451 
L 107.729999 38.184715 
L 108.529765 39.120521 
L 109.169577 39.359981 
L 109.32953 39.344908 
L 109.729412 39.176317 
L 110.129295 38.826299 
L 110.92906 37.637676 
L 111.728825 35.946308 
L 114.12812 30.383439 
L 114.927885 29.240326 
L 115.327768 28.916884 
L 115.72765 28.776185 
L 116.127533 28.823224 
L 116.527415 29.056331 
L 116.927298 29.467232 
L 117.727063 30.758281 
L 118.92671 33.491809 
L 120.52624 37.253648 
L 121.326006 38.586896 
L 121.725888 39.023357 
L 122.125771 39.283819 
L 122.525653 39.359038 
L 122.925536 39.246344 
L 123.325418 38.949736 
L 124.125183 37.853048 
L 124.924948 36.223307 
L 127.324243 30.604622 
L 128.124009 29.371441 
L 128.523891 28.995128 
L 128.923774 28.798781 
L 129.323656 28.78937 
L 129.723539 28.967229 
L 130.123421 29.326044 
L 130.923186 30.529627 
L 131.722951 32.230745 
L 134.122246 37.782572 
L 134.922012 38.91031 
L 135.321894 39.224836 
L 135.801753 39.359981 
L 136.121659 39.299774 
L 136.521542 39.057526 
L 136.921424 38.638067 
L 137.721189 37.332836 
L 138.920837 34.588784 
L 140.520367 30.83689 
L 141.320132 29.517592 
L 141.720015 29.089613 
L 142.119897 28.838247 
L 142.51978 28.772416 
L 142.919662 28.894456 
L 143.319545 29.200036 
L 144.11931 30.312299 
L 144.919075 31.952679 
L 147.31837 37.563307 
L 148.118135 38.781743 
L 148.518018 39.149324 
L 149.117841 39.359981 
L 149.317783 39.336435 
L 149.717665 39.149324 
L 150.117548 38.781743 
L 150.917313 37.563307 
L 151.717078 35.852591 
L 154.116373 30.312299 
L 154.916138 29.200036 
L 155.316021 28.894456 
L 155.715903 28.772416 
L 156.115786 28.838247 
L 156.515668 29.089613 
L 157.315433 30.106991 
L 158.115198 31.68138 
L 160.914376 38.056287 
L 161.714141 39.057526 
L 162.114024 39.299774 
L 162.513906 39.356211 
L 162.913789 39.224836 
L 163.313671 38.91031 
L 164.113436 37.782572 
L 164.913201 36.131699 
L 167.312497 30.529627 
L 168.112262 29.326044 
L 168.512144 28.967229 
L 168.912027 28.78937 
L 169.311909 28.798781 
L 169.711792 28.995128 
L 170.111674 29.371441 
L 170.911439 30.604622 
L 172.111087 33.293628 
L 173.710617 37.091897 
L 174.510382 38.479743 
L 174.910265 38.949736 
L 175.310147 39.246344 
L 175.750018 39.359981 
L 176.109912 39.283819 
L 176.509795 39.023357 
L 177.30956 37.98993 
L 178.109325 36.404187 
L 180.908503 30.041342 
L 181.708268 29.056331 
L 182.10815 28.823224 
L 182.508033 28.776185 
L 182.907915 28.916884 
L 183.307798 29.240326 
L 184.107563 30.383439 
L 184.907328 32.04466 
L 187.306623 37.637676 
L 188.106388 38.826299 
L 188.506271 39.176317 
L 188.506271 39.176317 
" clip-path="url(#p46327b7c49)" style="fill: none; stroke-dasharray: 2,3.3; stroke-dashoffset: 0; stroke: #e24a33; stroke-width: 2"/>
   </g>
   <g id="line2d_12">
    <path d="M 82.5374 39.359981 
L 84.536813 39.411035 
L 84.936695 39.522874 
L 85.336578 39.781167 
L 85.73646 40.281543 
L 86.136343 41.121475 
L 86.536225 42.372405 
L 87.33599 46.103176 
L 88.535638 52.749728 
L 88.93552 54.32663 
L 89.335403 55.210971 
L 89.735286 55.283607 
L 90.135168 54.54584 
L 90.535051 53.128688 
L 91.734698 47.064398 
L 92.534463 43.3081 
L 93.334228 40.618794 
L 93.734111 39.794356 
L 94.133993 39.325095 
L 94.533876 39.154149 
L 95.333641 39.281954 
L 96.133406 39.331627 
L 97.732936 38.803439 
L 98.132819 39.102227 
L 98.532701 39.825652 
L 98.932584 41.023538 
L 99.732349 44.675019 
L 101.731761 55.54417 
L 102.131644 56.832038 
L 102.531527 57.410068 
L 102.931409 57.133378 
L 103.331292 55.951715 
L 103.731174 53.951274 
L 105.730587 41.242047 
L 106.130469 39.866429 
L 106.530352 39.048504 
L 106.930234 38.692162 
L 107.330117 38.663724 
L 109.32953 39.353289 
L 110.529177 39.238618 
L 110.92906 39.426455 
L 111.328942 39.88515 
L 111.728825 40.692122 
L 112.128707 41.888706 
L 112.928472 45.309493 
L 114.12812 50.799558 
L 114.528002 52.053859 
L 114.927885 52.919561 
L 115.327768 53.45492 
L 115.72765 53.726182 
L 116.127533 53.738312 
L 116.527415 53.413476 
L 116.927298 52.640062 
L 117.32718 51.358361 
L 118.126945 47.585323 
L 119.326593 41.781035 
L 119.726475 40.462176 
L 120.126358 39.561441 
L 120.52624 39.061357 
L 120.926123 38.896875 
L 121.725888 39.14048 
L 122.525653 39.359226 
L 122.925536 39.269757 
L 124.125183 38.712609 
L 124.525066 38.879304 
L 124.924948 39.475908 
L 125.324831 40.612038 
L 125.724713 42.347613 
L 126.524478 47.576427 
L 128.124009 60.152749 
L 128.523891 61.659373 
L 128.923774 61.768496 
L 129.323656 60.405415 
L 129.723539 57.779672 
L 131.323069 43.94822 
L 132.122834 39.735798 
L 132.522716 38.568353 
L 132.922599 37.932301 
L 133.322481 37.733551 
L 133.722364 37.863336 
L 135.321894 39.255935 
L 135.801753 39.359981 
L 136.921424 39.256663 
L 137.321307 39.491858 
L 137.721189 40.0922 
L 138.121072 41.150778 
L 138.920837 44.622998 
L 140.120484 50.908379 
L 140.520367 52.460036 
L 140.92025 53.519152 
L 141.320132 54.055655 
L 141.720015 54.077659 
L 142.119897 53.609202 
L 142.51978 52.690251 
L 143.319545 49.844897 
L 144.919075 43.532263 
L 145.71884 41.111776 
L 146.118722 40.239834 
L 146.518605 39.637812 
L 146.918487 39.289251 
L 147.31837 39.144762 
L 148.118135 39.210848 
L 149.117841 39.359981 
L 150.117548 39.222742 
L 150.917313 39.241425 
L 151.317195 39.500171 
L 151.717078 40.050788 
L 152.11696 40.986486 
L 152.516843 42.379977 
L 153.316608 46.562495 
L 154.516256 54.086142 
L 154.916138 55.862261 
L 155.316021 56.896733 
L 155.715903 57.153614 
L 156.115786 56.735021 
L 156.515668 55.808768 
L 157.315433 52.926907 
L 158.115198 48.925347 
L 159.314846 42.338484 
L 159.714728 40.712949 
L 160.114611 39.599547 
L 160.514494 38.998505 
L 160.914376 38.820878 
L 161.714141 39.131833 
L 162.43393 39.359981 
L 162.913789 39.24865 
L 163.713554 38.839846 
L 164.113436 38.8186 
L 164.513319 39.138488 
L 164.913201 39.928521 
L 165.313084 41.247531 
L 166.112849 45.294849 
L 167.712379 54.779096 
L 168.112262 56.27393 
L 168.512144 57.029301 
L 168.912027 56.959564 
L 169.311909 56.105861 
L 170.111674 52.762321 
L 171.711204 44.992644 
L 172.510969 42.06237 
L 173.310735 40.221493 
L 173.710617 39.722039 
L 174.1105 39.445333 
L 174.910265 39.310013 
L 176.109912 39.333708 
L 176.909677 39.029899 
L 178.109325 38.375162 
L 178.509207 38.496812 
L 178.90909 39.055901 
L 179.308972 40.218954 
L 179.708855 42.088117 
L 180.50862 47.702063 
L 181.308385 54.011108 
L 181.708268 56.497022 
L 182.10815 58.125924 
L 182.508033 58.748205 
L 182.907915 58.363931 
L 183.307798 57.102143 
L 184.107563 52.808833 
L 185.707093 43.020019 
L 186.106976 41.303682 
L 186.506858 40.081302 
L 186.906741 39.344721 
L 187.306623 39.01908 
L 187.706506 38.984278 
L 188.506271 39.256945 
L 188.506271 39.256945 
" clip-path="url(#p46327b7c49)" style="fill: none; stroke: #348abd; stroke-width: 2; stroke-linecap: square"/>
   </g>
   <g id="LineCollection_1">
    <path d="M 82.5374 39.359981 
L 82.5374 39.359981 
" clip-path="url(#p46327b7c49)" style="fill: none; stroke: #988ed5; stroke-width: 2"/>
    <path d="M 95.853488 33.160218 
L 95.853488 31.229847 
" clip-path="url(#p46327b7c49)" style="fill: none; stroke: #988ed5; stroke-width: 2"/>
    <path d="M 109.169577 33.751519 
L 109.169577 31.289513 
" clip-path="url(#p46327b7c49)" style="fill: none; stroke: #988ed5; stroke-width: 2"/>
    <path d="M 122.485665 37.136074 
L 122.485665 34.248996 
" clip-path="url(#p46327b7c49)" style="fill: none; stroke: #988ed5; stroke-width: 2"/>
    <path d="M 135.801753 42.444512 
L 135.801753 38.026891 
" clip-path="url(#p46327b7c49)" style="fill: none; stroke: #988ed5; stroke-width: 2"/>
    <path d="M 149.117841 46.69223 
L 149.117841 39.972973 
" clip-path="url(#p46327b7c49)" style="fill: none; stroke: #988ed5; stroke-width: 2"/>
    <path d="M 162.43393 44.703945 
L 162.43393 37.642371 
" clip-path="url(#p46327b7c49)" style="fill: none; stroke: #988ed5; stroke-width: 2"/>
    <path d="M 175.750018 44.112105 
L 175.750018 35.350342 
" clip-path="url(#p46327b7c49)" style="fill: none; stroke: #988ed5; stroke-width: 2"/>
    <path d="M 189.066106 38.178883 
L 189.066106 28.874107 
" clip-path="url(#p46327b7c49)" style="fill: none; stroke: #988ed5; stroke-width: 2"/>
    <path d="M 202.382195 34.658262 
L 202.382195 25.281852 
" clip-path="url(#p46327b7c49)" style="fill: none; stroke: #988ed5; stroke-width: 2"/>
    <path d="M 215.698283 34.00208 
L 215.698283 24.266279 
" clip-path="url(#p46327b7c49)" style="fill: none; stroke: #988ed5; stroke-width: 2"/>
    <path clip-path="url(#p46327b7c49)" style="fill: none; stroke: #988ed5; stroke-width: 2"/>
    <path clip-path="url(#p46327b7c49)" style="fill: none; stroke: #988ed5; stroke-width: 2"/>
    <path clip-path="url(#p46327b7c49)" style="fill: none; stroke: #988ed5; stroke-width: 2"/>
    <path clip-path="url(#p46327b7c49)" style="fill: none; stroke: #988ed5; stroke-width: 2"/>
    <path clip-path="url(#p46327b7c49)" style="fill: none; stroke: #988ed5; stroke-width: 2"/>
    <path clip-path="url(#p46327b7c49)" style="fill: none; stroke: #988ed5; stroke-width: 2"/>
    <path clip-path="url(#p46327b7c49)" style="fill: none; stroke: #988ed5; stroke-width: 2"/>
    <path clip-path="url(#p46327b7c49)" style="fill: none; stroke: #988ed5; stroke-width: 2"/>
    <path clip-path="url(#p46327b7c49)" style="fill: none; stroke: #988ed5; stroke-width: 2"/>
    <path clip-path="url(#p46327b7c49)" style="fill: none; stroke: #988ed5; stroke-width: 2"/>
    <path clip-path="url(#p46327b7c49)" style="fill: none; stroke: #988ed5; stroke-width: 2"/>
    <path clip-path="url(#p46327b7c49)" style="fill: none; stroke: #988ed5; stroke-width: 2"/>
    <path clip-path="url(#p46327b7c49)" style="fill: none; stroke: #988ed5; stroke-width: 2"/>
    <path clip-path="url(#p46327b7c49)" style="fill: none; stroke: #988ed5; stroke-width: 2"/>
    <path clip-path="url(#p46327b7c49)" style="fill: none; stroke: #988ed5; stroke-width: 2"/>
    <path clip-path="url(#p46327b7c49)" style="fill: none; stroke: #988ed5; stroke-width: 2"/>
    <path clip-path="url(#p46327b7c49)" style="fill: none; stroke: #988ed5; stroke-width: 2"/>
    <path clip-path="url(#p46327b7c49)" style="fill: none; stroke: #988ed5; stroke-width: 2"/>
    <path clip-path="url(#p46327b7c49)" style="fill: none; stroke: #988ed5; stroke-width: 2"/>
    <path clip-path="url(#p46327b7c49)" style="fill: none; stroke: #988ed5; stroke-width: 2"/>
   </g>
   <g id="line2d_13">
    <defs>
     <path id="m731ec023b0" d="M -0 1.414214 
L 1.414214 0 
L 0 -1.414214 
L -1.414214 -0 
z
" style="stroke: #988ed5; stroke-linejoin: miter"/>
    </defs>
    <g clip-path="url(#p46327b7c49)">
     <use xlink:href="#m731ec023b0" x="82.5374" y="39.359981" style="fill: #988ed5; stroke: #988ed5; stroke-linejoin: miter"/>
     <use xlink:href="#m731ec023b0" x="95.853488" y="32.195032" style="fill: #988ed5; stroke: #988ed5; stroke-linejoin: miter"/>
     <use xlink:href="#m731ec023b0" x="109.169577" y="32.520516" style="fill: #988ed5; stroke: #988ed5; stroke-linejoin: miter"/>
     <use xlink:href="#m731ec023b0" x="122.485665" y="35.692535" style="fill: #988ed5; stroke: #988ed5; stroke-linejoin: miter"/>
     <use xlink:href="#m731ec023b0" x="135.801753" y="40.235701" style="fill: #988ed5; stroke: #988ed5; stroke-linejoin: miter"/>
     <use xlink:href="#m731ec023b0" x="149.117841" y="43.332602" style="fill: #988ed5; stroke: #988ed5; stroke-linejoin: miter"/>
     <use xlink:href="#m731ec023b0" x="162.43393" y="41.173158" style="fill: #988ed5; stroke: #988ed5; stroke-linejoin: miter"/>
     <use xlink:href="#m731ec023b0" x="175.750018" y="39.731224" style="fill: #988ed5; stroke: #988ed5; stroke-linejoin: miter"/>
     <use xlink:href="#m731ec023b0" x="189.066106" y="33.526495" style="fill: #988ed5; stroke: #988ed5; stroke-linejoin: miter"/>
     <use xlink:href="#m731ec023b0" x="202.382195" y="29.970057" style="fill: #988ed5; stroke: #988ed5; stroke-linejoin: miter"/>
     <use xlink:href="#m731ec023b0" x="215.698283" y="29.134179" style="fill: #988ed5; stroke: #988ed5; stroke-linejoin: miter"/>
     <use xlink:href="#m731ec023b0" x="229.014371" y="26.454642" style="fill: #988ed5; stroke: #988ed5; stroke-linejoin: miter"/>
     <use xlink:href="#m731ec023b0" x="242.330459" y="30.613271" style="fill: #988ed5; stroke: #988ed5; stroke-linejoin: miter"/>
     <use xlink:href="#m731ec023b0" x="255.646548" y="36.059579" style="fill: #988ed5; stroke: #988ed5; stroke-linejoin: miter"/>
     <use xlink:href="#m731ec023b0" x="268.962636" y="44.464316" style="fill: #988ed5; stroke: #988ed5; stroke-linejoin: miter"/>
     <use xlink:href="#m731ec023b0" x="282.278724" y="45.803655" style="fill: #988ed5; stroke: #988ed5; stroke-linejoin: miter"/>
     <use xlink:href="#m731ec023b0" x="295.594813" y="48.035199" style="fill: #988ed5; stroke: #988ed5; stroke-linejoin: miter"/>
     <use xlink:href="#m731ec023b0" x="308.910901" y="47.726784" style="fill: #988ed5; stroke: #988ed5; stroke-linejoin: miter"/>
     <use xlink:href="#m731ec023b0" x="322.226989" y="44.84454" style="fill: #988ed5; stroke: #988ed5; stroke-linejoin: miter"/>
     <use xlink:href="#m731ec023b0" x="335.543077" y="50.240865" style="fill: #988ed5; stroke: #988ed5; stroke-linejoin: miter"/>
     <use xlink:href="#m731ec023b0" x="348.859166" y="54.205516" style="fill: #988ed5; stroke: #988ed5; stroke-linejoin: miter"/>
     <use xlink:href="#m731ec023b0" x="362.175254" y="55.236943" style="fill: #988ed5; stroke: #988ed5; stroke-linejoin: miter"/>
     <use xlink:href="#m731ec023b0" x="375.491342" y="60.271832" style="fill: #988ed5; stroke: #988ed5; stroke-linejoin: miter"/>
     <use xlink:href="#m731ec023b0" x="388.80743" y="61.269155" style="fill: #988ed5; stroke: #988ed5; stroke-linejoin: miter"/>
     <use xlink:href="#m731ec023b0" x="402.123519" y="63.191271" style="fill: #988ed5; stroke: #988ed5; stroke-linejoin: miter"/>
     <use xlink:href="#m731ec023b0" x="415.439607" y="56.360335" style="fill: #988ed5; stroke: #988ed5; stroke-linejoin: miter"/>
     <use xlink:href="#m731ec023b0" x="428.755695" y="54.663423" style="fill: #988ed5; stroke: #988ed5; stroke-linejoin: miter"/>
     <use xlink:href="#m731ec023b0" x="442.071784" y="49.703908" style="fill: #988ed5; stroke: #988ed5; stroke-linejoin: miter"/>
     <use xlink:href="#m731ec023b0" x="455.387872" y="43.14471" style="fill: #988ed5; stroke: #988ed5; stroke-linejoin: miter"/>
     <use xlink:href="#m731ec023b0" x="468.70396" y="41.487252" style="fill: #988ed5; stroke: #988ed5; stroke-linejoin: miter"/>
     <use xlink:href="#m731ec023b0" x="482.020048" y="42.637375" style="fill: #988ed5; stroke: #988ed5; stroke-linejoin: miter"/>
    </g>
   </g>
   <g id="patch_3">
    <path d="M 82.5374 76.300316 
L 82.5374 18.6624 
" style="fill: none; stroke: #ffffff; stroke-linejoin: miter; stroke-linecap: square"/>
   </g>
   <g id="patch_4">
    <path d="M 188.503464 76.300316 
L 188.503464 18.6624 
" style="fill: none; stroke: #ffffff; stroke-linejoin: miter; stroke-linecap: square"/>
   </g>
   <g id="patch_5">
    <path d="M 82.5374 76.300316 
L 188.503464 76.300316 
" style="fill: none; stroke: #ffffff; stroke-linejoin: miter; stroke-linecap: square"/>
   </g>
   <g id="patch_6">
    <path d="M 82.5374 18.6624 
L 188.503464 18.6624 
" style="fill: none; stroke: #ffffff; stroke-linejoin: miter; stroke-linecap: square"/>
   </g>
   <g id="legend_1">
    <g id="patch_7">
     <path d="M 95.250339 70.696775 
L 181.503464 70.696775 
Q 183.503464 70.696775 183.503464 68.696775 
L 183.503464 25.6624 
Q 183.503464 23.6624 181.503464 23.6624 
L 95.250339 23.6624 
Q 93.250339 23.6624 93.250339 25.6624 
L 93.250339 68.696775 
Q 93.250339 70.696775 95.250339 70.696775 
z
" style="fill: #e5e5e5; opacity: 0.8; stroke: #cccccc; stroke-width: 0.5; stroke-linejoin: miter"/>
    </g>
    <g id="line2d_14">
     <path d="M 97.250339 31.760838 
L 107.250339 31.760838 
L 117.250339 31.760838 
" style="fill: none; stroke-dasharray: 2,3.3; stroke-dashoffset: 0; stroke: #e24a33; stroke-width: 2"/>
    </g>
    <g id="text_8">
     <!-- Coupling -->
     <g transform="translate(125.250339 35.260838)scale(0.1 -0.1)">
      <defs>
       <path id="DejaVuSans-43" d="M 4122 4306 
L 4122 3641 
Q 3803 3938 3442 4084 
Q 3081 4231 2675 4231 
Q 1875 4231 1450 3742 
Q 1025 3253 1025 2328 
Q 1025 1406 1450 917 
Q 1875 428 2675 428 
Q 3081 428 3442 575 
Q 3803 722 4122 1019 
L 4122 359 
Q 3791 134 3420 21 
Q 3050 -91 2638 -91 
Q 1578 -91 968 557 
Q 359 1206 359 2328 
Q 359 3453 968 4101 
Q 1578 4750 2638 4750 
Q 3056 4750 3426 4639 
Q 3797 4528 4122 4306 
z
" transform="scale(0.015625)"/>
       <path id="DejaVuSans-6f" d="M 1959 3097 
Q 1497 3097 1228 2736 
Q 959 2375 959 1747 
Q 959 1119 1226 758 
Q 1494 397 1959 397 
Q 2419 397 2687 759 
Q 2956 1122 2956 1747 
Q 2956 2369 2687 2733 
Q 2419 3097 1959 3097 
z
M 1959 3584 
Q 2709 3584 3137 3096 
Q 3566 2609 3566 1747 
Q 3566 888 3137 398 
Q 2709 -91 1959 -91 
Q 1206 -91 779 398 
Q 353 888 353 1747 
Q 353 2609 779 3096 
Q 1206 3584 1959 3584 
z
" transform="scale(0.015625)"/>
       <path id="DejaVuSans-75" d="M 544 1381 
L 544 3500 
L 1119 3500 
L 1119 1403 
Q 1119 906 1312 657 
Q 1506 409 1894 409 
Q 2359 409 2629 706 
Q 2900 1003 2900 1516 
L 2900 3500 
L 3475 3500 
L 3475 0 
L 2900 0 
L 2900 538 
Q 2691 219 2414 64 
Q 2138 -91 1772 -91 
Q 1169 -91 856 284 
Q 544 659 544 1381 
z
M 1991 3584 
L 1991 3584 
z
" transform="scale(0.015625)"/>
       <path id="DejaVuSans-70" d="M 1159 525 
L 1159 -1331 
L 581 -1331 
L 581 3500 
L 1159 3500 
L 1159 2969 
Q 1341 3281 1617 3432 
Q 1894 3584 2278 3584 
Q 2916 3584 3314 3078 
Q 3713 2572 3713 1747 
Q 3713 922 3314 415 
Q 2916 -91 2278 -91 
Q 1894 -91 1617 61 
Q 1341 213 1159 525 
z
M 3116 1747 
Q 3116 2381 2855 2742 
Q 2594 3103 2138 3103 
Q 1681 3103 1420 2742 
Q 1159 2381 1159 1747 
Q 1159 1113 1420 752 
Q 1681 391 2138 391 
Q 2594 391 2855 752 
Q 3116 1113 3116 1747 
z
" transform="scale(0.015625)"/>
       <path id="DejaVuSans-6c" d="M 603 4863 
L 1178 4863 
L 1178 0 
L 603 0 
L 603 4863 
z
" transform="scale(0.015625)"/>
       <path id="DejaVuSans-69" d="M 603 3500 
L 1178 3500 
L 1178 0 
L 603 0 
L 603 3500 
z
M 603 4863 
L 1178 4863 
L 1178 4134 
L 603 4134 
L 603 4863 
z
" transform="scale(0.015625)"/>
      </defs>
      <use xlink:href="#DejaVuSans-43"/>
      <use xlink:href="#DejaVuSans-6f" x="69.824219"/>
      <use xlink:href="#DejaVuSans-75" x="131.005859"/>
      <use xlink:href="#DejaVuSans-70" x="194.384766"/>
      <use xlink:href="#DejaVuSans-6c" x="257.861328"/>
      <use xlink:href="#DejaVuSans-69" x="285.644531"/>
      <use xlink:href="#DejaVuSans-6e" x="313.427734"/>
      <use xlink:href="#DejaVuSans-67" x="376.806641"/>
     </g>
    </g>
    <g id="line2d_15">
     <path d="M 97.250339 46.438963 
L 107.250339 46.438963 
L 117.250339 46.438963 
" style="fill: none; stroke: #348abd; stroke-width: 2; stroke-linecap: square"/>
    </g>
    <g id="text_9">
     <!-- Interaction -->
     <g transform="translate(125.250339 49.938963)scale(0.1 -0.1)">
      <defs>
       <path id="DejaVuSans-49" d="M 628 4666 
L 1259 4666 
L 1259 0 
L 628 0 
L 628 4666 
z
" transform="scale(0.015625)"/>
       <path id="DejaVuSans-74" d="M 1172 4494 
L 1172 3500 
L 2356 3500 
L 2356 3053 
L 1172 3053 
L 1172 1153 
Q 1172 725 1289 603 
Q 1406 481 1766 481 
L 2356 481 
L 2356 0 
L 1766 0 
Q 1100 0 847 248 
Q 594 497 594 1153 
L 594 3053 
L 172 3053 
L 172 3500 
L 594 3500 
L 594 4494 
L 1172 4494 
z
" transform="scale(0.015625)"/>
       <path id="DejaVuSans-61" d="M 2194 1759 
Q 1497 1759 1228 1600 
Q 959 1441 959 1056 
Q 959 750 1161 570 
Q 1363 391 1709 391 
Q 2188 391 2477 730 
Q 2766 1069 2766 1631 
L 2766 1759 
L 2194 1759 
z
M 3341 1997 
L 3341 0 
L 2766 0 
L 2766 531 
Q 2569 213 2275 61 
Q 1981 -91 1556 -91 
Q 1019 -91 701 211 
Q 384 513 384 1019 
Q 384 1609 779 1909 
Q 1175 2209 1959 2209 
L 2766 2209 
L 2766 2266 
Q 2766 2663 2505 2880 
Q 2244 3097 1772 3097 
Q 1472 3097 1187 3025 
Q 903 2953 641 2809 
L 641 3341 
Q 956 3463 1253 3523 
Q 1550 3584 1831 3584 
Q 2591 3584 2966 3190 
Q 3341 2797 3341 1997 
z
" transform="scale(0.015625)"/>
       <path id="DejaVuSans-63" d="M 3122 3366 
L 3122 2828 
Q 2878 2963 2633 3030 
Q 2388 3097 2138 3097 
Q 1578 3097 1268 2742 
Q 959 2388 959 1747 
Q 959 1106 1268 751 
Q 1578 397 2138 397 
Q 2388 397 2633 464 
Q 2878 531 3122 666 
L 3122 134 
Q 2881 22 2623 -34 
Q 2366 -91 2075 -91 
Q 1284 -91 818 406 
Q 353 903 353 1747 
Q 353 2603 823 3093 
Q 1294 3584 2113 3584 
Q 2378 3584 2631 3529 
Q 2884 3475 3122 3366 
z
" transform="scale(0.015625)"/>
      </defs>
      <use xlink:href="#DejaVuSans-49"/>
      <use xlink:href="#DejaVuSans-6e" x="29.492188"/>
      <use xlink:href="#DejaVuSans-74" x="92.871094"/>
      <use xlink:href="#DejaVuSans-65" x="132.080078"/>
      <use xlink:href="#DejaVuSans-72" x="193.603516"/>
      <use xlink:href="#DejaVuSans-61" x="234.716797"/>
      <use xlink:href="#DejaVuSans-63" x="295.996094"/>
      <use xlink:href="#DejaVuSans-74" x="350.976562"/>
      <use xlink:href="#DejaVuSans-69" x="390.185547"/>
      <use xlink:href="#DejaVuSans-6f" x="417.96875"/>
      <use xlink:href="#DejaVuSans-6e" x="479.150391"/>
     </g>
    </g>
    <g id="LineCollection_2">
     <path d="M 107.250339 66.117088 
L 107.250339 56.117088 
" style="fill: none; stroke: #988ed5; stroke-width: 2"/>
    </g>
    <g id="line2d_16"/>
    <g id="line2d_17">
     <g>
      <use xlink:href="#m731ec023b0" x="107.250339" y="61.117088" style="fill: #988ed5; stroke: #988ed5; stroke-linejoin: miter"/>
     </g>
    </g>
    <g id="text_10">
     <!-- Total -->
     <g transform="translate(125.250339 64.617088)scale(0.1 -0.1)">
      <defs>
       <path id="DejaVuSans-54" d="M -19 4666 
L 3928 4666 
L 3928 4134 
L 2272 4134 
L 2272 0 
L 1638 0 
L 1638 4134 
L -19 4134 
L -19 4666 
z
" transform="scale(0.015625)"/>
      </defs>
      <use xlink:href="#DejaVuSans-54"/>
      <use xlink:href="#DejaVuSans-6f" x="44.083984"/>
      <use xlink:href="#DejaVuSans-74" x="105.265625"/>
      <use xlink:href="#DejaVuSans-61" x="144.474609"/>
      <use xlink:href="#DejaVuSans-6c" x="205.753906"/>
     </g>
    </g>
   </g>
  </g>
 </g>
 <defs>
  <clipPath id="p46327b7c49">
   <rect x="82.5374" y="18.6624" width="105.966064" height="57.637916"/>
  </clipPath>
 </defs>
</svg>
