<?xml version="1.0" encoding="utf-8" standalone="no"?>
<!DOCTYPE svg PUBLIC "-//W3C//DTD SVG 1.1//EN"
  "http://www.w3.org/Graphics/SVG/1.1/DTD/svg11.dtd">
<svg xmlns:xlink="http://www.w3.org/1999/xlink" width="238.107098pt" height="190.485679pt" viewBox="0 0 238.107098 190.485679" xmlns="http://www.w3.org/2000/svg" version="1.1">
 <metadata>
  <rdf:RDF xmlns:dc="http://purl.org/dc/elements/1.1/" xmlns:cc="http://creativecommons.org/ns#" xmlns:rdf="http://www.w3.org/1999/02/22-rdf-syntax-ns#">
   <cc:Work>
    <dc:type rdf:resource="http://purl.org/dc/dcmitype/StillImage"/>
    <dc:date>1980-01-01T00:00:00+00:00</dc:date>
    <dc:format>image/svg+xml</dc:format>
    <dc:creator>
     <cc:Agent>
      <dc:title>Matplotlib v3.5.1, https://matplotlib.org/</dc:title>
     </cc:Agent>
    </dc:creator>
   </cc:Work>
  </rdf:RDF>
 </metadata>
 <defs>
  <style type="text/css">*{stroke-linejoin: round; stroke-linecap: butt}</style>
 </defs>
 <g id="figure_1">
  <g id="patch_1">
   <path d="M 0 190.485679 
L 238.107098 190.485679 
L 238.107098 0 
L 0 0 
z
" style="fill: #ffffff"/>
  </g>
  <g id="axes_1">
   <g id="patch_2">
    <path d="M 64.485 150.685679 
L 227.307098 150.685679 
L 227.307098 25.8 
L 64.485 25.8 
z
" style="fill: #e5e5e5"/>
   </g>
   <g id="matplotlib.axis_1">
    <g id="xtick_1">
     <g id="line2d_1">
      <path d="M 71.886004 150.685679 
L 71.886004 25.8 
" clip-path="url(#pe110b61967)" style="fill: none; stroke: #ffffff; stroke-width: 0.8; stroke-linecap: square"/>
     </g>
     <g id="line2d_2">
      <defs>
       <path id="mfec54c3eaf" d="M 0 0 
L 0 3.5 
" style="stroke: #555555; stroke-width: 0.8"/>
      </defs>
      <g>
       <use xlink:href="#mfec54c3eaf" x="71.886004" y="150.685679" style="fill: #555555; stroke: #555555; stroke-width: 0.8"/>
      </g>
     </g>
     <g id="text_1">
      <!-- 0 -->
      <g style="fill: #555555" transform="translate(69.341004 163.764429)scale(0.08 -0.08)">
       <defs>
        <path id="DejaVuSerif-30" d="M 2034 219 
Q 2513 219 2750 744 
Q 2988 1269 2988 2328 
Q 2988 3391 2750 3916 
Q 2513 4441 2034 4441 
Q 1556 4441 1318 3916 
Q 1081 3391 1081 2328 
Q 1081 1269 1318 744 
Q 1556 219 2034 219 
z
M 2034 -91 
Q 1275 -91 848 546 
Q 422 1184 422 2328 
Q 422 3475 848 4112 
Q 1275 4750 2034 4750 
Q 2797 4750 3222 4112 
Q 3647 3475 3647 2328 
Q 3647 1184 3222 546 
Q 2797 -91 2034 -91 
z
" transform="scale(0.015625)"/>
       </defs>
       <use xlink:href="#DejaVuSerif-30"/>
      </g>
     </g>
    </g>
    <g id="xtick_2">
     <g id="line2d_3">
      <path d="M 101.490022 150.685679 
L 101.490022 25.8 
" clip-path="url(#pe110b61967)" style="fill: none; stroke: #ffffff; stroke-width: 0.8; stroke-linecap: square"/>
     </g>
     <g id="line2d_4">
      <g>
       <use xlink:href="#mfec54c3eaf" x="101.490022" y="150.685679" style="fill: #555555; stroke: #555555; stroke-width: 0.8"/>
      </g>
     </g>
     <g id="text_2">
      <!-- 10 -->
      <g style="fill: #555555" transform="translate(96.400022 163.764429)scale(0.08 -0.08)">
       <defs>
        <path id="DejaVuSerif-31" d="M 909 0 
L 909 331 
L 1722 331 
L 1722 4213 
L 781 3603 
L 781 4013 
L 1919 4750 
L 2350 4750 
L 2350 331 
L 3163 331 
L 3163 0 
L 909 0 
z
" transform="scale(0.015625)"/>
       </defs>
       <use xlink:href="#DejaVuSerif-31"/>
       <use xlink:href="#DejaVuSerif-30" x="63.623047"/>
      </g>
     </g>
    </g>
    <g id="xtick_3">
     <g id="line2d_5">
      <path d="M 131.09404 150.685679 
L 131.09404 25.8 
" clip-path="url(#pe110b61967)" style="fill: none; stroke: #ffffff; stroke-width: 0.8; stroke-linecap: square"/>
     </g>
     <g id="line2d_6">
      <g>
       <use xlink:href="#mfec54c3eaf" x="131.09404" y="150.685679" style="fill: #555555; stroke: #555555; stroke-width: 0.8"/>
      </g>
     </g>
     <g id="text_3">
      <!-- 20 -->
      <g style="fill: #555555" transform="translate(126.00404 163.764429)scale(0.08 -0.08)">
       <defs>
        <path id="DejaVuSerif-32" d="M 819 3553 
L 469 3553 
L 469 4384 
Q 803 4563 1142 4656 
Q 1481 4750 1806 4750 
Q 2534 4750 2956 4397 
Q 3378 4044 3378 3438 
Q 3378 2753 2422 1800 
Q 2347 1728 2309 1691 
L 1131 513 
L 3078 513 
L 3078 1088 
L 3444 1088 
L 3444 0 
L 434 0 
L 434 341 
L 1850 1753 
Q 2319 2222 2519 2614 
Q 2719 3006 2719 3438 
Q 2719 3909 2473 4175 
Q 2228 4441 1797 4441 
Q 1350 4441 1106 4219 
Q 863 3997 819 3553 
z
" transform="scale(0.015625)"/>
       </defs>
       <use xlink:href="#DejaVuSerif-32"/>
       <use xlink:href="#DejaVuSerif-30" x="63.623047"/>
      </g>
     </g>
    </g>
    <g id="xtick_4">
     <g id="line2d_7">
      <path d="M 160.698058 150.685679 
L 160.698058 25.8 
" clip-path="url(#pe110b61967)" style="fill: none; stroke: #ffffff; stroke-width: 0.8; stroke-linecap: square"/>
     </g>
     <g id="line2d_8">
      <g>
       <use xlink:href="#mfec54c3eaf" x="160.698058" y="150.685679" style="fill: #555555; stroke: #555555; stroke-width: 0.8"/>
      </g>
     </g>
     <g id="text_4">
      <!-- 30 -->
      <g style="fill: #555555" transform="translate(155.608058 163.764429)scale(0.08 -0.08)">
       <defs>
        <path id="DejaVuSerif-33" d="M 622 4469 
Q 988 4606 1323 4678 
Q 1659 4750 1953 4750 
Q 2638 4750 3022 4454 
Q 3406 4159 3406 3634 
Q 3406 3213 3140 2930 
Q 2875 2647 2388 2547 
Q 2963 2466 3280 2130 
Q 3597 1794 3597 1259 
Q 3597 606 3158 257 
Q 2719 -91 1894 -91 
Q 1528 -91 1179 -12 
Q 831 66 488 225 
L 488 1131 
L 838 1131 
Q 869 681 1141 450 
Q 1413 219 1906 219 
Q 2384 219 2661 495 
Q 2938 772 2938 1253 
Q 2938 1803 2653 2086 
Q 2369 2369 1819 2369 
L 1522 2369 
L 1522 2688 
L 1678 2688 
Q 2225 2688 2498 2914 
Q 2772 3141 2772 3597 
Q 2772 4006 2547 4223 
Q 2322 4441 1900 4441 
Q 1478 4441 1245 4241 
Q 1013 4041 972 3647 
L 622 3647 
L 622 4469 
z
" transform="scale(0.015625)"/>
       </defs>
       <use xlink:href="#DejaVuSerif-33"/>
       <use xlink:href="#DejaVuSerif-30" x="63.623047"/>
      </g>
     </g>
    </g>
    <g id="xtick_5">
     <g id="line2d_9">
      <path d="M 190.302076 150.685679 
L 190.302076 25.8 
" clip-path="url(#pe110b61967)" style="fill: none; stroke: #ffffff; stroke-width: 0.8; stroke-linecap: square"/>
     </g>
     <g id="line2d_10">
      <g>
       <use xlink:href="#mfec54c3eaf" x="190.302076" y="150.685679" style="fill: #555555; stroke: #555555; stroke-width: 0.8"/>
      </g>
     </g>
     <g id="text_5">
      <!-- 40 -->
      <g style="fill: #555555" transform="translate(185.212076 163.764429)scale(0.08 -0.08)">
       <defs>
        <path id="DejaVuSerif-34" d="M 2234 1581 
L 2234 4063 
L 641 1581 
L 2234 1581 
z
M 3609 0 
L 1484 0 
L 1484 331 
L 2234 331 
L 2234 1247 
L 197 1247 
L 197 1588 
L 2241 4750 
L 2859 4750 
L 2859 1581 
L 3750 1581 
L 3750 1247 
L 2859 1247 
L 2859 331 
L 3609 331 
L 3609 0 
z
" transform="scale(0.015625)"/>
       </defs>
       <use xlink:href="#DejaVuSerif-34"/>
       <use xlink:href="#DejaVuSerif-30" x="63.623047"/>
      </g>
     </g>
    </g>
    <g id="xtick_6">
     <g id="line2d_11">
      <path d="M 219.906094 150.685679 
L 219.906094 25.8 
" clip-path="url(#pe110b61967)" style="fill: none; stroke: #ffffff; stroke-width: 0.8; stroke-linecap: square"/>
     </g>
     <g id="line2d_12">
      <g>
       <use xlink:href="#mfec54c3eaf" x="219.906094" y="150.685679" style="fill: #555555; stroke: #555555; stroke-width: 0.8"/>
      </g>
     </g>
     <g id="text_6">
      <!-- 50 -->
      <g style="fill: #555555" transform="translate(214.816094 163.764429)scale(0.08 -0.08)">
       <defs>
        <path id="DejaVuSerif-35" d="M 3219 4666 
L 3219 4153 
L 1081 4153 
L 1081 2816 
Q 1244 2928 1461 2984 
Q 1678 3041 1947 3041 
Q 2703 3041 3140 2622 
Q 3578 2203 3578 1478 
Q 3578 738 3136 323 
Q 2694 -91 1894 -91 
Q 1572 -91 1234 -12 
Q 897 66 544 225 
L 544 1131 
L 897 1131 
Q 925 688 1179 453 
Q 1434 219 1894 219 
Q 2388 219 2653 544 
Q 2919 869 2919 1478 
Q 2919 2084 2655 2407 
Q 2391 2731 1894 2731 
Q 1613 2731 1398 2631 
Q 1184 2531 1019 2322 
L 750 2322 
L 750 4666 
L 3219 4666 
z
" transform="scale(0.015625)"/>
       </defs>
       <use xlink:href="#DejaVuSerif-35"/>
       <use xlink:href="#DejaVuSerif-30" x="63.623047"/>
      </g>
     </g>
    </g>
    <g id="text_7">
     <!-- $τ$ -->
     <g style="fill: #555555" transform="translate(142.846049 177.026616)scale(0.1 -0.1)">
      <defs>
       <path id="DejaVuSans-Oblique-3c4" d="M 2103 638 
Q 2188 488 2525 488 
L 2800 488 
L 2706 0 
L 2363 0 
Q 1800 0 1600 300 
Q 1403 606 1534 1269 
L 1856 2925 
L 541 2925 
L 653 3500 
L 3881 3500 
L 3769 2925 
L 2444 2925 
L 2113 1234 
Q 2025 781 2103 638 
z
" transform="scale(0.015625)"/>
      </defs>
      <use xlink:href="#DejaVuSans-Oblique-3c4" transform="translate(0 0.3125)"/>
     </g>
    </g>
   </g>
   <g id="matplotlib.axis_2">
    <g id="ytick_1">
     <g id="line2d_13">
      <path d="M 64.485 145.009057 
L 227.307098 145.009057 
" clip-path="url(#pe110b61967)" style="fill: none; stroke: #ffffff; stroke-width: 0.8; stroke-linecap: square"/>
     </g>
     <g id="line2d_14">
      <defs>
       <path id="m4b1c5774b3" d="M 0 0 
L -3.5 0 
" style="stroke: #555555; stroke-width: 0.8"/>
      </defs>
      <g>
       <use xlink:href="#m4b1c5774b3" x="64.485" y="145.009057" style="fill: #555555; stroke: #555555; stroke-width: 0.8"/>
      </g>
     </g>
     <g id="text_8">
      <!-- 0.0000 -->
      <g style="fill: #555555" transform="translate(29.4925 148.048432)scale(0.08 -0.08)">
       <defs>
        <path id="DejaVuSerif-2e" d="M 603 325 
Q 603 500 722 622 
Q 841 744 1019 744 
Q 1191 744 1312 622 
Q 1434 500 1434 325 
Q 1434 153 1312 31 
Q 1191 -91 1019 -91 
Q 841 -91 722 29 
Q 603 150 603 325 
z
" transform="scale(0.015625)"/>
       </defs>
       <use xlink:href="#DejaVuSerif-30"/>
       <use xlink:href="#DejaVuSerif-2e" x="63.623047"/>
       <use xlink:href="#DejaVuSerif-30" x="95.410156"/>
       <use xlink:href="#DejaVuSerif-30" x="159.033203"/>
       <use xlink:href="#DejaVuSerif-30" x="222.65625"/>
       <use xlink:href="#DejaVuSerif-30" x="286.279297"/>
      </g>
     </g>
    </g>
    <g id="ytick_2">
     <g id="line2d_15">
      <path d="M 64.485 122.371814 
L 227.307098 122.371814 
" clip-path="url(#pe110b61967)" style="fill: none; stroke: #ffffff; stroke-width: 0.8; stroke-linecap: square"/>
     </g>
     <g id="line2d_16">
      <g>
       <use xlink:href="#m4b1c5774b3" x="64.485" y="122.371814" style="fill: #555555; stroke: #555555; stroke-width: 0.8"/>
      </g>
     </g>
     <g id="text_9">
      <!-- 0.0001 -->
      <g style="fill: #555555" transform="translate(29.4925 125.411189)scale(0.08 -0.08)">
       <use xlink:href="#DejaVuSerif-30"/>
       <use xlink:href="#DejaVuSerif-2e" x="63.623047"/>
       <use xlink:href="#DejaVuSerif-30" x="95.410156"/>
       <use xlink:href="#DejaVuSerif-30" x="159.033203"/>
       <use xlink:href="#DejaVuSerif-30" x="222.65625"/>
       <use xlink:href="#DejaVuSerif-31" x="286.279297"/>
      </g>
     </g>
    </g>
    <g id="ytick_3">
     <g id="line2d_17">
      <path d="M 64.485 99.734572 
L 227.307098 99.734572 
" clip-path="url(#pe110b61967)" style="fill: none; stroke: #ffffff; stroke-width: 0.8; stroke-linecap: square"/>
     </g>
     <g id="line2d_18">
      <g>
       <use xlink:href="#m4b1c5774b3" x="64.485" y="99.734572" style="fill: #555555; stroke: #555555; stroke-width: 0.8"/>
      </g>
     </g>
     <g id="text_10">
      <!-- 0.0002 -->
      <g style="fill: #555555" transform="translate(29.4925 102.773947)scale(0.08 -0.08)">
       <use xlink:href="#DejaVuSerif-30"/>
       <use xlink:href="#DejaVuSerif-2e" x="63.623047"/>
       <use xlink:href="#DejaVuSerif-30" x="95.410156"/>
       <use xlink:href="#DejaVuSerif-30" x="159.033203"/>
       <use xlink:href="#DejaVuSerif-30" x="222.65625"/>
       <use xlink:href="#DejaVuSerif-32" x="286.279297"/>
      </g>
     </g>
    </g>
    <g id="ytick_4">
     <g id="line2d_19">
      <path d="M 64.485 77.097329 
L 227.307098 77.097329 
" clip-path="url(#pe110b61967)" style="fill: none; stroke: #ffffff; stroke-width: 0.8; stroke-linecap: square"/>
     </g>
     <g id="line2d_20">
      <g>
       <use xlink:href="#m4b1c5774b3" x="64.485" y="77.097329" style="fill: #555555; stroke: #555555; stroke-width: 0.8"/>
      </g>
     </g>
     <g id="text_11">
      <!-- 0.0003 -->
      <g style="fill: #555555" transform="translate(29.4925 80.136704)scale(0.08 -0.08)">
       <use xlink:href="#DejaVuSerif-30"/>
       <use xlink:href="#DejaVuSerif-2e" x="63.623047"/>
       <use xlink:href="#DejaVuSerif-30" x="95.410156"/>
       <use xlink:href="#DejaVuSerif-30" x="159.033203"/>
       <use xlink:href="#DejaVuSerif-30" x="222.65625"/>
       <use xlink:href="#DejaVuSerif-33" x="286.279297"/>
      </g>
     </g>
    </g>
    <g id="ytick_5">
     <g id="line2d_21">
      <path d="M 64.485 54.460087 
L 227.307098 54.460087 
" clip-path="url(#pe110b61967)" style="fill: none; stroke: #ffffff; stroke-width: 0.8; stroke-linecap: square"/>
     </g>
     <g id="line2d_22">
      <g>
       <use xlink:href="#m4b1c5774b3" x="64.485" y="54.460087" style="fill: #555555; stroke: #555555; stroke-width: 0.8"/>
      </g>
     </g>
     <g id="text_12">
      <!-- 0.0004 -->
      <g style="fill: #555555" transform="translate(29.4925 57.499462)scale(0.08 -0.08)">
       <use xlink:href="#DejaVuSerif-30"/>
       <use xlink:href="#DejaVuSerif-2e" x="63.623047"/>
       <use xlink:href="#DejaVuSerif-30" x="95.410156"/>
       <use xlink:href="#DejaVuSerif-30" x="159.033203"/>
       <use xlink:href="#DejaVuSerif-30" x="222.65625"/>
       <use xlink:href="#DejaVuSerif-34" x="286.279297"/>
      </g>
     </g>
    </g>
    <g id="ytick_6">
     <g id="line2d_23">
      <path d="M 64.485 31.822844 
L 227.307098 31.822844 
" clip-path="url(#pe110b61967)" style="fill: none; stroke: #ffffff; stroke-width: 0.8; stroke-linecap: square"/>
     </g>
     <g id="line2d_24">
      <g>
       <use xlink:href="#m4b1c5774b3" x="64.485" y="31.822844" style="fill: #555555; stroke: #555555; stroke-width: 0.8"/>
      </g>
     </g>
     <g id="text_13">
      <!-- 0.0005 -->
      <g style="fill: #555555" transform="translate(29.4925 34.862219)scale(0.08 -0.08)">
       <use xlink:href="#DejaVuSerif-30"/>
       <use xlink:href="#DejaVuSerif-2e" x="63.623047"/>
       <use xlink:href="#DejaVuSerif-30" x="95.410156"/>
       <use xlink:href="#DejaVuSerif-30" x="159.033203"/>
       <use xlink:href="#DejaVuSerif-30" x="222.65625"/>
       <use xlink:href="#DejaVuSerif-35" x="286.279297"/>
      </g>
     </g>
    </g>
    <g id="text_14">
     <!-- $|{J}_{\mathrm{ref}}-{J}_{N_i}|$ -->
     <g style="fill: #555555" transform="translate(22.6925 109.192839)rotate(-90)scale(0.1 -0.1)">
      <defs>
       <path id="DejaVuSans-7c" d="M 1344 4891 
L 1344 -1509 
L 813 -1509 
L 813 4891 
L 1344 4891 
z
" transform="scale(0.015625)"/>
       <path id="DejaVuSans-Oblique-4a" d="M 1069 4666 
L 1703 4666 
L 856 325 
Q 691 -522 298 -901 
Q -94 -1281 -800 -1281 
L -1050 -1281 
L -947 -750 
L -750 -750 
Q -328 -750 -109 -509 
Q 109 -269 225 325 
L 1069 4666 
z
" transform="scale(0.015625)"/>
       <path id="DejaVuSans-72" d="M 2631 2963 
Q 2534 3019 2420 3045 
Q 2306 3072 2169 3072 
Q 1681 3072 1420 2755 
Q 1159 2438 1159 1844 
L 1159 0 
L 581 0 
L 581 3500 
L 1159 3500 
L 1159 2956 
Q 1341 3275 1631 3429 
Q 1922 3584 2338 3584 
Q 2397 3584 2469 3576 
Q 2541 3569 2628 3553 
L 2631 2963 
z
" transform="scale(0.015625)"/>
       <path id="DejaVuSans-65" d="M 3597 1894 
L 3597 1613 
L 953 1613 
Q 991 1019 1311 708 
Q 1631 397 2203 397 
Q 2534 397 2845 478 
Q 3156 559 3463 722 
L 3463 178 
Q 3153 47 2828 -22 
Q 2503 -91 2169 -91 
Q 1331 -91 842 396 
Q 353 884 353 1716 
Q 353 2575 817 3079 
Q 1281 3584 2069 3584 
Q 2775 3584 3186 3129 
Q 3597 2675 3597 1894 
z
M 3022 2063 
Q 3016 2534 2758 2815 
Q 2500 3097 2075 3097 
Q 1594 3097 1305 2825 
Q 1016 2553 972 2059 
L 3022 2063 
z
" transform="scale(0.015625)"/>
       <path id="DejaVuSans-66" d="M 2375 4863 
L 2375 4384 
L 1825 4384 
Q 1516 4384 1395 4259 
Q 1275 4134 1275 3809 
L 1275 3500 
L 2222 3500 
L 2222 3053 
L 1275 3053 
L 1275 0 
L 697 0 
L 697 3053 
L 147 3053 
L 147 3500 
L 697 3500 
L 697 3744 
Q 697 4328 969 4595 
Q 1241 4863 1831 4863 
L 2375 4863 
z
" transform="scale(0.015625)"/>
       <path id="DejaVuSans-2212" d="M 678 2272 
L 4684 2272 
L 4684 1741 
L 678 1741 
L 678 2272 
z
" transform="scale(0.015625)"/>
       <path id="DejaVuSans-Oblique-4e" d="M 1081 4666 
L 1931 4666 
L 3219 666 
L 4000 4666 
L 4616 4666 
L 3706 0 
L 2853 0 
L 1569 4025 
L 788 0 
L 172 0 
L 1081 4666 
z
" transform="scale(0.015625)"/>
       <path id="DejaVuSans-Oblique-69" d="M 1172 4863 
L 1747 4863 
L 1606 4134 
L 1031 4134 
L 1172 4863 
z
M 909 3500 
L 1484 3500 
L 800 0 
L 225 0 
L 909 3500 
z
" transform="scale(0.015625)"/>
      </defs>
      <use xlink:href="#DejaVuSans-7c" transform="translate(0 0.578125)"/>
      <use xlink:href="#DejaVuSans-Oblique-4a" transform="translate(33.691406 0.578125)"/>
      <use xlink:href="#DejaVuSans-72" transform="translate(63.183594 -15.828125)scale(0.7)"/>
      <use xlink:href="#DejaVuSans-65" transform="translate(91.962891 -15.828125)scale(0.7)"/>
      <use xlink:href="#DejaVuSans-66" transform="translate(135.029297 -15.828125)scale(0.7)"/>
      <use xlink:href="#DejaVuSans-2212" transform="translate(181.889648 0.578125)"/>
      <use xlink:href="#DejaVuSans-Oblique-4a" transform="translate(285.161133 0.578125)"/>
      <use xlink:href="#DejaVuSans-Oblique-4e" transform="translate(314.65332 -15.828125)scale(0.7)"/>
      <use xlink:href="#DejaVuSans-Oblique-69" transform="translate(367.016602 -27.3125)scale(0.49)"/>
      <use xlink:href="#DejaVuSans-7c" transform="translate(385.278809 0.578125)"/>
     </g>
    </g>
   </g>
   <g id="PolyCollection_1">
    <defs>
     <path id="mf188c96182" d="M 71.886004 -45.476622 
L 71.886004 -45.476622 
L 72.183234 -45.476622 
L 72.480463 -45.476622 
L 72.777692 -45.476622 
L 73.074921 -45.476622 
L 73.37215 -45.476622 
L 73.669379 -45.476622 
L 73.966608 -45.476622 
L 74.263837 -45.476622 
L 74.561066 -45.476622 
L 74.858295 -45.476622 
L 75.155525 -45.476622 
L 75.452754 -45.476622 
L 75.749983 -45.476622 
L 76.047212 -45.476622 
L 76.344441 -45.476622 
L 76.64167 -45.476622 
L 76.938899 -45.476622 
L 77.236128 -45.476622 
L 77.533357 -45.476622 
L 77.830586 -45.476622 
L 78.127815 -45.476622 
L 78.425045 -45.476622 
L 78.722274 -45.476622 
L 79.019503 -45.476622 
L 79.316732 -45.476622 
L 79.613961 -45.476622 
L 79.91119 -45.476622 
L 80.208419 -45.476622 
L 80.505648 -45.476622 
L 80.802877 -45.476622 
L 81.100106 -45.476622 
L 81.397336 -45.476622 
L 81.694565 -45.476622 
L 81.991794 -45.476622 
L 82.289023 -45.476622 
L 82.586252 -45.476622 
L 82.883481 -45.476622 
L 83.18071 -45.476622 
L 83.477939 -45.476622 
L 83.775168 -45.476622 
L 84.072397 -45.476622 
L 84.369626 -45.476622 
L 84.666856 -45.476622 
L 84.964085 -45.476622 
L 85.261314 -45.476622 
L 85.558543 -45.476622 
L 85.855772 -45.476622 
L 86.153001 -45.476622 
L 86.45023 -45.476622 
L 86.747459 -45.476622 
L 87.044688 -45.476622 
L 87.341917 -45.476622 
L 87.639147 -45.476622 
L 87.936376 -45.476622 
L 88.233605 -45.476622 
L 88.530834 -45.476622 
L 88.828063 -45.476622 
L 89.125292 -45.476622 
L 89.422521 -45.476622 
L 89.71975 -45.476622 
L 90.016979 -45.476622 
L 90.314208 -45.476622 
L 90.611437 -45.476622 
L 90.908667 -45.476622 
L 91.205896 -45.476622 
L 91.503125 -45.476622 
L 91.800354 -45.476622 
L 92.097583 -45.476622 
L 92.394812 -45.476622 
L 92.692041 -45.476622 
L 92.98927 -45.476622 
L 93.286499 -45.476622 
L 93.583728 -45.476622 
L 93.880958 -45.476622 
L 94.178187 -45.476622 
L 94.475416 -45.476622 
L 94.772645 -45.476622 
L 95.069874 -45.476622 
L 95.367103 -45.476622 
L 95.664332 -45.476622 
L 95.961561 -45.476622 
L 96.25879 -45.476622 
L 96.556019 -45.476622 
L 96.853248 -45.476622 
L 97.150478 -45.476622 
L 97.447707 -45.476622 
L 97.744936 -45.476622 
L 98.042165 -45.476622 
L 98.339394 -45.476622 
L 98.636623 -45.476622 
L 98.933852 -45.476622 
L 99.231081 -45.476622 
L 99.52831 -45.476622 
L 99.825539 -45.476622 
L 100.122769 -45.476622 
L 100.419998 -45.476622 
L 100.717227 -45.476622 
L 101.014456 -45.476622 
L 101.311685 -45.476622 
L 101.608914 -45.476622 
L 101.906143 -45.476622 
L 102.203372 -45.476622 
L 102.500601 -45.476622 
L 102.79783 -45.476622 
L 103.095059 -45.476622 
L 103.392289 -45.476622 
L 103.689518 -45.476622 
L 103.986747 -45.476622 
L 104.283976 -45.476622 
L 104.581205 -45.476622 
L 104.878434 -45.476622 
L 105.175663 -45.476622 
L 105.472892 -45.476622 
L 105.770121 -45.476622 
L 106.06735 -45.476622 
L 106.36458 -45.476622 
L 106.661809 -45.476622 
L 106.959038 -45.476622 
L 107.256267 -45.476622 
L 107.553496 -45.476622 
L 107.850725 -45.476622 
L 108.147954 -45.476622 
L 108.445183 -45.476622 
L 108.742412 -45.476622 
L 109.039641 -45.476622 
L 109.33687 -45.476622 
L 109.6341 -45.476622 
L 109.931329 -45.476622 
L 110.228558 -45.476622 
L 110.525787 -45.476622 
L 110.823016 -45.476622 
L 111.120245 -45.476622 
L 111.417474 -45.476622 
L 111.714703 -45.476622 
L 112.011932 -45.476622 
L 112.309161 -45.476622 
L 112.606391 -45.476622 
L 112.90362 -45.476622 
L 113.200849 -45.476622 
L 113.498078 -45.476622 
L 113.795307 -45.476622 
L 114.092536 -45.476622 
L 114.389765 -45.476622 
L 114.686994 -45.476622 
L 114.984223 -45.476622 
L 115.281452 -45.476622 
L 115.578681 -45.476622 
L 115.875911 -45.476622 
L 116.17314 -45.476622 
L 116.470369 -45.476622 
L 116.767598 -45.476622 
L 117.064827 -45.476622 
L 117.362056 -45.476622 
L 117.659285 -45.476622 
L 117.956514 -45.476622 
L 118.253743 -45.476622 
L 118.550972 -45.476622 
L 118.848202 -45.476622 
L 119.145431 -45.476622 
L 119.44266 -45.476622 
L 119.739889 -45.476622 
L 120.037118 -45.476622 
L 120.334347 -45.476622 
L 120.631576 -45.476622 
L 120.928805 -45.476622 
L 121.226034 -45.476622 
L 121.523263 -45.476622 
L 121.820492 -45.476622 
L 122.117722 -45.476622 
L 122.414951 -45.476622 
L 122.71218 -45.476622 
L 123.009409 -45.476622 
L 123.306638 -45.476622 
L 123.603867 -45.476622 
L 123.901096 -45.476622 
L 124.198325 -45.476622 
L 124.495554 -45.476622 
L 124.792783 -45.476622 
L 125.090013 -45.476622 
L 125.387242 -45.476622 
L 125.684471 -45.476622 
L 125.9817 -45.476622 
L 126.278929 -45.476622 
L 126.576158 -45.476622 
L 126.873387 -45.476622 
L 127.170616 -45.476622 
L 127.467845 -45.476622 
L 127.765074 -45.476622 
L 128.062303 -45.476622 
L 128.359533 -45.476622 
L 128.656762 -45.476622 
L 128.953991 -45.476622 
L 129.25122 -45.476622 
L 129.548449 -45.476622 
L 129.845678 -45.476622 
L 130.142907 -45.476622 
L 130.440136 -45.476622 
L 130.737365 -45.476622 
L 131.034594 -45.476622 
L 131.331824 -45.476622 
L 131.629053 -45.476622 
L 131.926282 -45.476622 
L 132.223511 -45.476622 
L 132.52074 -45.476622 
L 132.817969 -45.476622 
L 133.115198 -45.476622 
L 133.412427 -45.476622 
L 133.709656 -45.476622 
L 134.006885 -45.476622 
L 134.304114 -45.476622 
L 134.601344 -45.476622 
L 134.898573 -45.476622 
L 135.195802 -45.476622 
L 135.493031 -45.476622 
L 135.79026 -45.476622 
L 136.087489 -45.476622 
L 136.384718 -45.476622 
L 136.681947 -45.476622 
L 136.979176 -45.476622 
L 137.276405 -45.476622 
L 137.573635 -45.476622 
L 137.870864 -45.476622 
L 138.168093 -45.476622 
L 138.465322 -45.476622 
L 138.762551 -45.476622 
L 139.05978 -45.476622 
L 139.357009 -45.476622 
L 139.654238 -45.476622 
L 139.951467 -45.476622 
L 140.248696 -45.476622 
L 140.545925 -45.476622 
L 140.843155 -45.476622 
L 141.140384 -45.476622 
L 141.437613 -45.476622 
L 141.734842 -45.476622 
L 142.032071 -45.476622 
L 142.3293 -45.476622 
L 142.626529 -45.476622 
L 142.923758 -45.476622 
L 143.220987 -45.476622 
L 143.518216 -45.476622 
L 143.815446 -45.476622 
L 144.112675 -45.476622 
L 144.409904 -45.476622 
L 144.707133 -45.476622 
L 145.004362 -45.476622 
L 145.301591 -45.476622 
L 145.59882 -45.476622 
L 145.896049 -45.476622 
L 146.193278 -45.476622 
L 146.490507 -45.476622 
L 146.787736 -45.476622 
L 147.084966 -45.476622 
L 147.382195 -45.476622 
L 147.679424 -45.476622 
L 147.976653 -45.476622 
L 148.273882 -45.476622 
L 148.571111 -45.476622 
L 148.86834 -45.476622 
L 149.165569 -45.476622 
L 149.462798 -45.476622 
L 149.760027 -45.476622 
L 150.057257 -45.476622 
L 150.354486 -45.476622 
L 150.651715 -45.476622 
L 150.948944 -45.476622 
L 151.246173 -45.476622 
L 151.543402 -45.476622 
L 151.840631 -45.476622 
L 152.13786 -45.476622 
L 152.435089 -45.476622 
L 152.732318 -45.476622 
L 153.029547 -45.476622 
L 153.326777 -45.476622 
L 153.624006 -45.476622 
L 153.921235 -45.476622 
L 154.218464 -45.476622 
L 154.515693 -45.476622 
L 154.812922 -45.476622 
L 155.110151 -45.476622 
L 155.40738 -45.476622 
L 155.704609 -45.476622 
L 156.001838 -45.476622 
L 156.299068 -45.476622 
L 156.596297 -45.476622 
L 156.893526 -45.476622 
L 157.190755 -45.476622 
L 157.487984 -45.476622 
L 157.785213 -45.476622 
L 158.082442 -45.476622 
L 158.379671 -45.476622 
L 158.6769 -45.476622 
L 158.974129 -45.476622 
L 159.271358 -45.476622 
L 159.568588 -45.476622 
L 159.865817 -45.476622 
L 160.163046 -45.476622 
L 160.460275 -45.476622 
L 160.757504 -45.476622 
L 161.054733 -45.476622 
L 161.351962 -45.476622 
L 161.649191 -45.476622 
L 161.94642 -45.476622 
L 162.243649 -45.476622 
L 162.540879 -45.476622 
L 162.838108 -45.476622 
L 163.135337 -45.476622 
L 163.432566 -45.476622 
L 163.729795 -45.476622 
L 164.027024 -45.476622 
L 164.324253 -45.476622 
L 164.621482 -45.476622 
L 164.918711 -45.476622 
L 165.21594 -45.476622 
L 165.513169 -45.476622 
L 165.810399 -45.476622 
L 166.107628 -45.476622 
L 166.404857 -45.476622 
L 166.702086 -45.476622 
L 166.999315 -45.476622 
L 167.296544 -45.476622 
L 167.593773 -45.476622 
L 167.891002 -45.476622 
L 168.188231 -45.476622 
L 168.48546 -45.476622 
L 168.78269 -45.476622 
L 169.079919 -45.476622 
L 169.377148 -45.476622 
L 169.674377 -45.476622 
L 169.971606 -45.476622 
L 170.268835 -45.476622 
L 170.566064 -45.476622 
L 170.863293 -45.476622 
L 171.160522 -45.476622 
L 171.457751 -45.476622 
L 171.75498 -45.476622 
L 172.05221 -45.476622 
L 172.349439 -45.476622 
L 172.646668 -45.476622 
L 172.943897 -45.476622 
L 173.241126 -45.476622 
L 173.538355 -45.476622 
L 173.835584 -45.476622 
L 174.132813 -45.476622 
L 174.430042 -45.476622 
L 174.727271 -45.476622 
L 175.024501 -45.476622 
L 175.32173 -45.476622 
L 175.618959 -45.476622 
L 175.916188 -45.476622 
L 176.213417 -45.476622 
L 176.510646 -45.476622 
L 176.807875 -45.476622 
L 177.105104 -45.476622 
L 177.402333 -45.476622 
L 177.699562 -45.476622 
L 177.996791 -45.476622 
L 178.294021 -45.476622 
L 178.59125 -45.476622 
L 178.888479 -45.476622 
L 179.185708 -45.476622 
L 179.482937 -45.476622 
L 179.780166 -45.476622 
L 180.077395 -45.476622 
L 180.374624 -45.476622 
L 180.671853 -45.476622 
L 180.969082 -45.476622 
L 181.266312 -45.476622 
L 181.563541 -45.476622 
L 181.86077 -45.476622 
L 182.157999 -45.476622 
L 182.455228 -45.476622 
L 182.752457 -45.476622 
L 183.049686 -45.476622 
L 183.346915 -45.476622 
L 183.644144 -45.476622 
L 183.941373 -45.476622 
L 184.238602 -45.476622 
L 184.535832 -45.476622 
L 184.833061 -45.476622 
L 185.13029 -45.476622 
L 185.427519 -45.476622 
L 185.724748 -45.476622 
L 186.021977 -45.476622 
L 186.319206 -45.476622 
L 186.616435 -45.476622 
L 186.913664 -45.476622 
L 187.210893 -45.476622 
L 187.508123 -45.476622 
L 187.805352 -45.476622 
L 188.102581 -45.476622 
L 188.39981 -45.476622 
L 188.697039 -45.476622 
L 188.994268 -45.476622 
L 189.291497 -45.476622 
L 189.588726 -45.476622 
L 189.885955 -45.476622 
L 190.183184 -45.476622 
L 190.480413 -45.476622 
L 190.777643 -45.476622 
L 191.074872 -45.476622 
L 191.372101 -45.476622 
L 191.66933 -45.476622 
L 191.966559 -45.476622 
L 192.263788 -45.476622 
L 192.561017 -45.476622 
L 192.858246 -45.476622 
L 193.155475 -45.476622 
L 193.452704 -45.476622 
L 193.749934 -45.476622 
L 194.047163 -45.476622 
L 194.344392 -45.476622 
L 194.641621 -45.476622 
L 194.93885 -45.476622 
L 195.236079 -45.476622 
L 195.533308 -45.476622 
L 195.830537 -45.476622 
L 196.127766 -45.476622 
L 196.424995 -45.476622 
L 196.722224 -45.476622 
L 197.019454 -45.476622 
L 197.316683 -45.476622 
L 197.613912 -45.476622 
L 197.911141 -45.476622 
L 198.20837 -45.476622 
L 198.505599 -45.476622 
L 198.802828 -45.476622 
L 199.100057 -45.476622 
L 199.397286 -45.476622 
L 199.694515 -45.476622 
L 199.991745 -45.476622 
L 200.288974 -45.476622 
L 200.586203 -45.476622 
L 200.883432 -45.476622 
L 201.180661 -45.476622 
L 201.47789 -45.476622 
L 201.775119 -45.476622 
L 202.072348 -45.476622 
L 202.369577 -45.476622 
L 202.666806 -45.476622 
L 202.964035 -45.476622 
L 203.261265 -45.476622 
L 203.558494 -45.476622 
L 203.855723 -45.476622 
L 204.152952 -45.476622 
L 204.450181 -45.476622 
L 204.74741 -45.476622 
L 205.044639 -45.476622 
L 205.341868 -45.476622 
L 205.639097 -45.476622 
L 205.936326 -45.476622 
L 206.233556 -45.476622 
L 206.530785 -45.476622 
L 206.828014 -45.476622 
L 207.125243 -45.476622 
L 207.422472 -45.476622 
L 207.719701 -45.476622 
L 208.01693 -45.476622 
L 208.314159 -45.476622 
L 208.611388 -45.476622 
L 208.908617 -45.476622 
L 209.205846 -45.476622 
L 209.503076 -45.476622 
L 209.800305 -45.476622 
L 210.097534 -45.476622 
L 210.394763 -45.476622 
L 210.691992 -45.476622 
L 210.989221 -45.476622 
L 211.28645 -45.476622 
L 211.583679 -45.476622 
L 211.880908 -45.476622 
L 212.178137 -45.476622 
L 212.475367 -45.476622 
L 212.772596 -45.476622 
L 213.069825 -45.476622 
L 213.367054 -45.476622 
L 213.664283 -45.476622 
L 213.961512 -45.476622 
L 214.258741 -45.476622 
L 214.55597 -45.476622 
L 214.853199 -45.476622 
L 215.150428 -45.476622 
L 215.447657 -45.476622 
L 215.744887 -45.476622 
L 216.042116 -45.476622 
L 216.339345 -45.476622 
L 216.636574 -45.476622 
L 216.933803 -45.476622 
L 217.231032 -45.476622 
L 217.528261 -45.476622 
L 217.82549 -45.476622 
L 218.122719 -45.476622 
L 218.419948 -45.476622 
L 218.717178 -45.476622 
L 219.014407 -45.476622 
L 219.311636 -45.476622 
L 219.608865 -45.476622 
L 219.906094 -45.476622 
L 219.906094 -80.499122 
L 219.906094 -80.499122 
L 219.608865 -80.805464 
L 219.311636 -81.162461 
L 219.014407 -81.532409 
L 218.717178 -81.891658 
L 218.419948 -82.229755 
L 218.122719 -82.535282 
L 217.82549 -82.785134 
L 217.528261 -82.926437 
L 217.231032 -82.905276 
L 216.933803 -82.726424 
L 216.636574 -82.412422 
L 216.339345 -81.97011 
L 216.042116 -81.434673 
L 215.744887 -80.894878 
L 215.447657 -80.451285 
L 215.150428 -80.134075 
L 214.853199 -79.907198 
L 214.55597 -79.739706 
L 214.258741 -79.629008 
L 213.961512 -79.565086 
L 213.664283 -79.536244 
L 213.367054 -79.545367 
L 213.069825 -79.59507 
L 212.772596 -79.666865 
L 212.475367 -79.740159 
L 212.178137 -79.812928 
L 211.880908 -79.876933 
L 211.583679 -79.920719 
L 211.28645 -79.950132 
L 210.989221 -79.972354 
L 210.691992 -80.003492 
L 210.394763 -80.070923 
L 210.097534 -80.205258 
L 209.800305 -80.390769 
L 209.503076 -80.56428 
L 209.205846 -80.659269 
L 208.908617 -80.660744 
L 208.611388 -80.602669 
L 208.314159 -80.517948 
L 208.01693 -80.423229 
L 207.719701 -80.313596 
L 207.422472 -80.184241 
L 207.125243 -80.028435 
L 206.828014 -79.83716 
L 206.530785 -79.630372 
L 206.233556 -79.451848 
L 205.936326 -79.302663 
L 205.639097 -79.188485 
L 205.341868 -79.153675 
L 205.044639 -79.213478 
L 204.74741 -79.328051 
L 204.450181 -79.436591 
L 204.152952 -79.482781 
L 203.855723 -79.43439 
L 203.558494 -79.311323 
L 203.261265 -79.172917 
L 202.964035 -79.059452 
L 202.666806 -78.963055 
L 202.369577 -78.85468 
L 202.072348 -78.72723 
L 201.775119 -78.625572 
L 201.47789 -78.580891 
L 201.180661 -78.58068 
L 200.883432 -78.622271 
L 200.586203 -78.715547 
L 200.288974 -78.848194 
L 199.991745 -78.98838 
L 199.694515 -79.130488 
L 199.397286 -79.281136 
L 199.100057 -79.404085 
L 198.802828 -79.43154 
L 198.505599 -79.359104 
L 198.20837 -79.236207 
L 197.911141 -79.089232 
L 197.613912 -78.925018 
L 197.316683 -78.775557 
L 197.019454 -78.664442 
L 196.722224 -78.569316 
L 196.424995 -78.495601 
L 196.127766 -78.470844 
L 195.830537 -78.477188 
L 195.533308 -78.507542 
L 195.236079 -78.586695 
L 194.93885 -78.71478 
L 194.641621 -78.863891 
L 194.344392 -79.001455 
L 194.047163 -79.115175 
L 193.749934 -79.234806 
L 193.452704 -79.391592 
L 193.155475 -79.567209 
L 192.858246 -79.719614 
L 192.561017 -79.805512 
L 192.263788 -79.808255 
L 191.966559 -79.731577 
L 191.66933 -79.592502 
L 191.372101 -79.432156 
L 191.074872 -79.286993 
L 190.777643 -79.160737 
L 190.480413 -79.049375 
L 190.183184 -78.956187 
L 189.885955 -78.876944 
L 189.588726 -78.835253 
L 189.291497 -78.854245 
L 188.994268 -78.896139 
L 188.697039 -78.924508 
L 188.39981 -78.945626 
L 188.102581 -78.955421 
L 187.805352 -78.931274 
L 187.508123 -78.852307 
L 187.210893 -78.716979 
L 186.913664 -78.584135 
L 186.616435 -78.547696 
L 186.319206 -78.670709 
L 186.021977 -78.955553 
L 185.724748 -79.360801 
L 185.427519 -79.827695 
L 185.13029 -80.302511 
L 184.833061 -80.717625 
L 184.535832 -80.984196 
L 184.238602 -81.037329 
L 183.941373 -80.882278 
L 183.644144 -80.578726 
L 183.346915 -80.145463 
L 183.049686 -79.574764 
L 182.752457 -78.94342 
L 182.455228 -78.404374 
L 182.157999 -78.075216 
L 181.86077 -77.976666 
L 181.563541 -78.075958 
L 181.266312 -78.31563 
L 180.969082 -78.640438 
L 180.671853 -78.979735 
L 180.374624 -79.273096 
L 180.077395 -79.50462 
L 179.780166 -79.671003 
L 179.482937 -79.769523 
L 179.185708 -79.783387 
L 178.888479 -79.718464 
L 178.59125 -79.608323 
L 178.294021 -79.494583 
L 177.996791 -79.397972 
L 177.699562 -79.312013 
L 177.402333 -79.202636 
L 177.105104 -79.008876 
L 176.807875 -78.718832 
L 176.510646 -78.374362 
L 176.213417 -78.020097 
L 175.916188 -77.655556 
L 175.618959 -77.258954 
L 175.32173 -76.860824 
L 175.024501 -76.511905 
L 174.727271 -76.236082 
L 174.430042 -76.071251 
L 174.132813 -76.065097 
L 173.835584 -76.208911 
L 173.538355 -76.440778 
L 173.241126 -76.699607 
L 172.943897 -76.949655 
L 172.646668 -77.170687 
L 172.349439 -77.355603 
L 172.05221 -77.53262 
L 171.75498 -77.730244 
L 171.457751 -77.92468 
L 171.160522 -78.087507 
L 170.863293 -78.212908 
L 170.566064 -78.309704 
L 170.268835 -78.416864 
L 169.971606 -78.529227 
L 169.674377 -78.582315 
L 169.377148 -78.536662 
L 169.079919 -78.401981 
L 168.78269 -78.182992 
L 168.48546 -77.850427 
L 168.188231 -77.405151 
L 167.891002 -76.91349 
L 167.593773 -76.450458 
L 167.296544 -76.0744 
L 166.999315 -75.825268 
L 166.702086 -75.703439 
L 166.404857 -75.682245 
L 166.107628 -75.743108 
L 165.810399 -75.873186 
L 165.513169 -76.028108 
L 165.21594 -76.152734 
L 164.918711 -76.220173 
L 164.621482 -76.244622 
L 164.324253 -76.247048 
L 164.027024 -76.206723 
L 163.729795 -76.112485 
L 163.432566 -75.986258 
L 163.135337 -75.862902 
L 162.838108 -75.77196 
L 162.540879 -75.731645 
L 162.243649 -75.765147 
L 161.94642 -75.866289 
L 161.649191 -75.999653 
L 161.351962 -76.156919 
L 161.054733 -76.356224 
L 160.757504 -76.596781 
L 160.460275 -76.834158 
L 160.163046 -77.003949 
L 159.865817 -77.069784 
L 159.568588 -77.050022 
L 159.271358 -76.979471 
L 158.974129 -76.88661 
L 158.6769 -76.800149 
L 158.379671 -76.740894 
L 158.082442 -76.720385 
L 157.785213 -76.747957 
L 157.487984 -76.81268 
L 157.190755 -76.876483 
L 156.893526 -76.901127 
L 156.596297 -76.864178 
L 156.299068 -76.753312 
L 156.001838 -76.561346 
L 155.704609 -76.302287 
L 155.40738 -76.016448 
L 155.110151 -75.768866 
L 154.812922 -75.609722 
L 154.515693 -75.555805 
L 154.218464 -75.617769 
L 153.921235 -75.784217 
L 153.624006 -76.04119 
L 153.326777 -76.369559 
L 153.029547 -76.71462 
L 152.732318 -77.006811 
L 152.435089 -77.236777 
L 152.13786 -77.419705 
L 151.840631 -77.529846 
L 151.543402 -77.55186 
L 151.246173 -77.523193 
L 150.948944 -77.496203 
L 150.651715 -77.467329 
L 150.354486 -77.427716 
L 150.057257 -77.391839 
L 149.760027 -77.365508 
L 149.462798 -77.322752 
L 149.165569 -77.236191 
L 148.86834 -77.078255 
L 148.571111 -76.856807 
L 148.273882 -76.644588 
L 147.976653 -76.498159 
L 147.679424 -76.413979 
L 147.382195 -76.362141 
L 147.084966 -76.333028 
L 146.787736 -76.354172 
L 146.490507 -76.463597 
L 146.193278 -76.646796 
L 145.896049 -76.867557 
L 145.59882 -77.086353 
L 145.301591 -77.253159 
L 145.004362 -77.33838 
L 144.707133 -77.332182 
L 144.409904 -77.213164 
L 144.112675 -76.986137 
L 143.815446 -76.724269 
L 143.518216 -76.460334 
L 143.220987 -76.176729 
L 142.923758 -75.882982 
L 142.626529 -75.608466 
L 142.3293 -75.364262 
L 142.032071 -75.155912 
L 141.734842 -75.01238 
L 141.437613 -74.957026 
L 141.140384 -74.967474 
L 140.843155 -75.025277 
L 140.545925 -75.123094 
L 140.248696 -75.244558 
L 139.951467 -75.360514 
L 139.654238 -75.439258 
L 139.357009 -75.454835 
L 139.05978 -75.390836 
L 138.762551 -75.249376 
L 138.465322 -75.047551 
L 138.168093 -74.836966 
L 137.870864 -74.67624 
L 137.573635 -74.568816 
L 137.276405 -74.473663 
L 136.979176 -74.332827 
L 136.681947 -74.109091 
L 136.384718 -73.815346 
L 136.087489 -73.502015 
L 135.79026 -73.217782 
L 135.493031 -72.953334 
L 135.195802 -72.688812 
L 134.898573 -72.424244 
L 134.601344 -72.172349 
L 134.304114 -71.946398 
L 134.006885 -71.753594 
L 133.709656 -71.641825 
L 133.412427 -71.680308 
L 133.115198 -71.855711 
L 132.817969 -72.096373 
L 132.52074 -72.355399 
L 132.223511 -72.589529 
L 131.926282 -72.734172 
L 131.629053 -72.765839 
L 131.331824 -72.706436 
L 131.034594 -72.574169 
L 130.737365 -72.377643 
L 130.440136 -72.117072 
L 130.142907 -71.806852 
L 129.845678 -71.475785 
L 129.548449 -71.147067 
L 129.25122 -70.850827 
L 128.953991 -70.622937 
L 128.656762 -70.460454 
L 128.359533 -70.340598 
L 128.062303 -70.252398 
L 127.765074 -70.191101 
L 127.467845 -70.149541 
L 127.170616 -70.097365 
L 126.873387 -70.012353 
L 126.576158 -69.918206 
L 126.278929 -69.854405 
L 125.9817 -69.833803 
L 125.684471 -69.842531 
L 125.387242 -69.86279 
L 125.090013 -69.901673 
L 124.792783 -69.969619 
L 124.495554 -70.042226 
L 124.198325 -70.08212 
L 123.901096 -70.066882 
L 123.603867 -69.994195 
L 123.306638 -69.873939 
L 123.009409 -69.709546 
L 122.71218 -69.521839 
L 122.414951 -69.325725 
L 122.117722 -69.100179 
L 121.820492 -68.839266 
L 121.523263 -68.584375 
L 121.226034 -68.396094 
L 120.928805 -68.313446 
L 120.631576 -68.312345 
L 120.334347 -68.345337 
L 120.037118 -68.369702 
L 119.739889 -68.368172 
L 119.44266 -68.38006 
L 119.145431 -68.42805 
L 118.848202 -68.491463 
L 118.550972 -68.556727 
L 118.253743 -68.608839 
L 117.956514 -68.637011 
L 117.659285 -68.652161 
L 117.362056 -68.674201 
L 117.064827 -68.698053 
L 116.767598 -68.707798 
L 116.470369 -68.714926 
L 116.17314 -68.714306 
L 115.875911 -68.662849 
L 115.578681 -68.546669 
L 115.281452 -68.388372 
L 114.984223 -68.207695 
L 114.686994 -68.036445 
L 114.389765 -67.924532 
L 114.092536 -67.910697 
L 113.795307 -67.996765 
L 113.498078 -68.151013 
L 113.200849 -68.334007 
L 112.90362 -68.525934 
L 112.606391 -68.713282 
L 112.309161 -68.867136 
L 112.011932 -68.952496 
L 111.714703 -68.959886 
L 111.417474 -68.907078 
L 111.120245 -68.799848 
L 110.823016 -68.648473 
L 110.525787 -68.481318 
L 110.228558 -68.336393 
L 109.931329 -68.242337 
L 109.6341 -68.215427 
L 109.33687 -68.258419 
L 109.039641 -68.337999 
L 108.742412 -68.396988 
L 108.445183 -68.405739 
L 108.147954 -68.367403 
L 107.850725 -68.292516 
L 107.553496 -68.202338 
L 107.256267 -68.116272 
L 106.959038 -68.059076 
L 106.661809 -68.057266 
L 106.36458 -68.093254 
L 106.06735 -68.119475 
L 105.770121 -68.111202 
L 105.472892 -68.079763 
L 105.175663 -68.030481 
L 104.878434 -67.925473 
L 104.581205 -67.740772 
L 104.283976 -67.492096 
L 103.986747 -67.216478 
L 103.689518 -66.939665 
L 103.392289 -66.656988 
L 103.095059 -66.372905 
L 102.79783 -66.128894 
L 102.500601 -65.955504 
L 102.203372 -65.836384 
L 101.906143 -65.73332 
L 101.608914 -65.633205 
L 101.311685 -65.549099 
L 101.014456 -65.493177 
L 100.717227 -65.490988 
L 100.419998 -65.579244 
L 100.122769 -65.763974 
L 99.825539 -66.008713 
L 99.52831 -66.292315 
L 99.231081 -66.596971 
L 98.933852 -66.855054 
L 98.636623 -66.997859 
L 98.339394 -67.015034 
L 98.042165 -66.925778 
L 97.744936 -66.755895 
L 97.447707 -66.495146 
L 97.150478 -66.070376 
L 96.853248 -65.446489 
L 96.556019 -64.692383 
L 96.25879 -63.892234 
L 95.961561 -63.08768 
L 95.664332 -62.300608 
L 95.367103 -61.537977 
L 95.069874 -60.806393 
L 94.772645 -60.141377 
L 94.475416 -59.588164 
L 94.178187 -59.184931 
L 93.880958 -58.953162 
L 93.583728 -58.879094 
L 93.286499 -58.930206 
L 92.98927 -59.075328 
L 92.692041 -59.303528 
L 92.394812 -59.61252 
L 92.097583 -59.964141 
L 91.800354 -60.318532 
L 91.503125 -60.64475 
L 91.205896 -60.898975 
L 90.908667 -61.054573 
L 90.611437 -61.109053 
L 90.314208 -61.041248 
L 90.016979 -60.812341 
L 89.71975 -60.409006 
L 89.422521 -59.860125 
L 89.125292 -59.192513 
L 88.828063 -58.430357 
L 88.530834 -57.608391 
L 88.233605 -56.776334 
L 87.936376 -55.983766 
L 87.639147 -55.252093 
L 87.341917 -54.59037 
L 87.044688 -54.013214 
L 86.747459 -53.5276 
L 86.45023 -53.119249 
L 86.153001 -52.776284 
L 85.855772 -52.508822 
L 85.558543 -52.313387 
L 85.261314 -52.154953 
L 84.964085 -52.035273 
L 84.666856 -51.986572 
L 84.369626 -52.011799 
L 84.072397 -52.090014 
L 83.775168 -52.202062 
L 83.477939 -52.327911 
L 83.18071 -52.43565 
L 82.883481 -52.501259 
L 82.586252 -52.515132 
L 82.289023 -52.459171 
L 81.991794 -52.32191 
L 81.694565 -52.115931 
L 81.397336 -51.867122 
L 81.100106 -51.599538 
L 80.802877 -51.329182 
L 80.505648 -51.075501 
L 80.208419 -50.859375 
L 79.91119 -50.689151 
L 79.613961 -50.558372 
L 79.316732 -50.439388 
L 79.019503 -50.308673 
L 78.722274 -50.169366 
L 78.425045 -50.025454 
L 78.127815 -49.884824 
L 77.830586 -49.761626 
L 77.533357 -49.650747 
L 77.236128 -49.552046 
L 76.938899 -49.482794 
L 76.64167 -49.439429 
L 76.344441 -49.402949 
L 76.047212 -49.360014 
L 75.749983 -49.289179 
L 75.452754 -49.166477 
L 75.155525 -48.981627 
L 74.858295 -48.744075 
L 74.561066 -48.507977 
L 74.263837 -48.397199 
L 73.966608 -48.554679 
L 73.669379 -48.981734 
L 73.37215 -49.423885 
L 73.074921 -49.439304 
L 72.777692 -48.609086 
L 72.480463 -47.176684 
L 72.183234 -45.848693 
L 71.886004 -45.476622 
z
" style="stroke: #ffff00; stroke-width: 0.5"/>
    </defs>
    <g clip-path="url(#pe110b61967)">
     <use xlink:href="#mf188c96182" x="0" y="190.485679" style="fill: #ffff00; stroke: #ffff00; stroke-width: 0.5"/>
    </g>
   </g>
   <g id="line2d_25">
    <path d="M 71.886004 145.009057 
L 72.183234 65.77026 
L 72.480463 102.966867 
L 72.777692 95.005066 
L 73.074921 135.014571 
L 73.37215 136.706886 
L 73.669379 133.391308 
L 73.966608 131.474147 
L 74.263837 126.461533 
L 74.561066 123.538817 
L 74.858295 127.594715 
L 75.452754 142.175432 
L 75.749983 143.608646 
L 76.64167 137.250371 
L 76.938899 138.864607 
L 77.236128 142.433869 
L 77.533357 143.387408 
L 77.830586 140.054029 
L 78.127815 138.551236 
L 78.425045 138.639011 
L 78.722274 139.471165 
L 79.316732 142.352188 
L 79.613961 144.413537 
L 79.91119 143.596891 
L 80.208419 142.316404 
L 80.505648 141.999317 
L 80.802877 142.519243 
L 81.100106 144.090881 
L 81.397336 143.232175 
L 82.289023 133.387983 
L 82.586252 132.138266 
L 82.883481 132.27041 
L 83.18071 133.240152 
L 83.775168 137.470357 
L 84.072397 139.712504 
L 84.369626 140.926737 
L 85.261314 142.387987 
L 85.855772 144.714246 
L 86.153001 144.100995 
L 86.747459 142.482318 
L 87.044688 142.483338 
L 87.341917 143.897299 
L 87.639147 143.36623 
L 88.828063 129.805563 
L 89.125292 128.803109 
L 89.71975 128.307503 
L 90.016979 127.555806 
L 90.314208 126.372236 
L 90.908667 122.697317 
L 91.800354 115.240019 
L 92.097583 115.052762 
L 92.98927 119.725123 
L 93.583728 120.027073 
L 94.475416 121.600323 
L 94.772645 122.617698 
L 95.069874 124.572241 
L 95.367103 128.050927 
L 96.25879 144.904611 
L 96.853248 136.396176 
L 97.744936 128.003193 
L 98.042165 127.252234 
L 98.339394 128.848602 
L 99.52831 142.635217 
L 99.825539 144.658344 
L 100.419998 135.873181 
L 101.608914 113.178482 
L 102.203372 106.910242 
L 102.500601 106.127384 
L 102.79783 107.978247 
L 103.095059 112.336502 
L 103.689518 126.906686 
L 104.283976 142.121089 
L 104.581205 142.520178 
L 104.878434 140.101071 
L 105.175663 140.087537 
L 105.770121 141.534483 
L 106.36458 144.190639 
L 106.959038 135.656619 
L 107.850725 120.866651 
L 108.445183 117.046412 
L 108.742412 115.994061 
L 109.039641 115.651162 
L 109.33687 116.046774 
L 109.6341 117.808911 
L 109.931329 121.628655 
L 110.525787 133.711868 
L 110.823016 141.066506 
L 111.120245 140.79522 
L 111.714703 126.008391 
L 112.011932 121.726269 
L 112.309161 120.168097 
L 112.606391 121.517004 
L 113.200849 128.824241 
L 113.795307 141.32032 
L 114.092536 142.438505 
L 114.984223 122.421466 
L 115.875911 103.060436 
L 116.17314 100.138728 
L 116.470369 99.541024 
L 116.767598 100.009841 
L 117.064827 101.490588 
L 117.362056 104.702822 
L 117.659285 110.299614 
L 117.956514 118.759614 
L 118.550972 144.767364 
L 119.44266 108.413167 
L 120.037118 95.905741 
L 120.334347 92.433203 
L 120.631576 91.156437 
L 120.928805 93.34555 
L 121.226034 99.465071 
L 121.820492 121.007398 
L 122.414951 144.428 
L 123.009409 120.305022 
L 124.198325 63.068917 
L 124.495554 56.460239 
L 124.792783 54.376648 
L 125.090013 56.221908 
L 125.387242 61.968961 
L 125.684471 72.393617 
L 126.278929 105.093759 
L 126.873387 144.718344 
L 127.765074 94.632455 
L 128.359533 78.2927 
L 128.656762 74.61847 
L 128.953991 73.477091 
L 129.25122 75.086103 
L 129.548449 79.767737 
L 130.142907 98.60995 
L 131.034594 137.435832 
L 131.331824 139.25611 
L 132.223511 100.338613 
L 132.817969 86.439625 
L 133.115198 83.286063 
L 133.412427 82.644456 
L 133.709656 84.969251 
L 134.006885 91.070893 
L 134.601344 113.715091 
L 135.195802 142.076285 
L 135.493031 134.212813 
L 136.087489 116.205729 
L 136.384718 112.571527 
L 136.979176 109.550947 
L 137.276405 109.441855 
L 137.573635 110.992166 
L 137.870864 114.734776 
L 138.168093 121.437493 
L 138.762551 140.613954 
L 139.05978 142.118207 
L 140.545925 112.986268 
L 141.437613 105.651813 
L 141.734842 104.141313 
L 142.032071 103.48326 
L 142.3293 104.219364 
L 142.626529 107.005474 
L 143.220987 116.137732 
L 144.112675 136.30189 
L 144.409904 139.187887 
L 144.707133 140.335998 
L 145.301591 140.942729 
L 145.896049 142.788708 
L 146.193278 142.831657 
L 146.490507 142.236106 
L 146.787736 141.03828 
L 147.084966 138.907299 
L 147.976653 128.392458 
L 148.571111 117.44525 
L 149.165569 106.252555 
L 149.462798 103.160804 
L 149.760027 102.023578 
L 150.057257 102.010729 
L 150.354486 102.152616 
L 150.651715 103.365633 
L 151.246173 110.570846 
L 151.543402 114.419178 
L 151.840631 120.610783 
L 152.435089 140.914049 
L 152.732318 140.336503 
L 153.326777 130.178709 
L 154.515693 117.06237 
L 154.812922 116.386711 
L 155.110151 116.369024 
L 155.40738 116.969478 
L 155.704609 118.76206 
L 156.001838 122.636071 
L 157.190755 143.702389 
L 157.487984 142.506021 
L 158.6769 131.711346 
L 158.974129 129.90864 
L 159.568588 125.11456 
L 159.865817 124.667249 
L 160.163046 126.123291 
L 160.757504 132.430418 
L 161.351962 144.859339 
L 161.94642 134.134486 
L 162.838108 129.224456 
L 163.135337 128.103107 
L 163.432566 128.539082 
L 163.729795 128.475177 
L 164.027024 126.941937 
L 164.621482 121.138252 
L 165.21594 114.356921 
L 166.702086 103.813927 
L 166.999315 103.938662 
L 167.296544 108.558105 
L 167.891002 126.528608 
L 168.188231 137.584428 
L 168.48546 141.347942 
L 169.674377 103.928891 
L 169.971606 99.039685 
L 170.268835 98.293132 
L 170.566064 100.432639 
L 170.863293 104.682602 
L 171.160522 111.431513 
L 172.05221 142.928001 
L 172.646668 117.963187 
L 173.538355 91.572225 
L 174.132813 78.977418 
L 174.430042 74.602826 
L 174.727271 72.92629 
L 175.024501 75.247509 
L 175.32173 81.609941 
L 176.213417 112.835724 
L 177.105104 144.20377 
L 177.996791 114.348822 
L 178.59125 103.137612 
L 178.888479 101.519596 
L 179.185708 103.681434 
L 179.482937 108.827005 
L 180.077395 126.245504 
L 180.374624 137.938754 
L 180.671853 139.997545 
L 181.86077 98.164103 
L 182.157999 93.226813 
L 182.455228 94.401744 
L 183.346915 113.976118 
L 183.941373 123.804785 
L 184.535832 128.676141 
L 185.13029 131.387252 
L 185.427519 131.928899 
L 185.724748 130.765914 
L 186.021977 127.334715 
L 187.210893 107.018484 
L 188.102581 101.77009 
L 188.39981 102.173571 
L 188.697039 105.679567 
L 189.291497 121.406709 
L 189.885955 139.033083 
L 190.183184 143.572967 
L 191.074872 120.463788 
L 191.66933 108.44845 
L 191.966559 106.806096 
L 192.263788 108.900986 
L 192.561017 115.046534 
L 193.155475 138.59592 
L 193.452704 137.021693 
L 195.236079 49.024354 
L 195.533308 39.721186 
L 195.830537 33.925259 
L 196.127766 31.476622 
L 196.424995 32.922366 
L 196.722224 38.586901 
L 197.316683 59.984907 
L 198.505599 120.528587 
L 198.802828 137.753103 
L 199.100057 134.836781 
L 199.694515 105.533757 
L 199.991745 97.603105 
L 200.288974 95.894803 
L 200.586203 98.911441 
L 201.180661 111.598413 
L 202.072348 140.536373 
L 202.369577 138.018705 
L 203.855723 78.462985 
L 204.450181 60.178481 
L 205.044639 47.529046 
L 205.341868 45.159662 
L 205.639097 47.116348 
L 205.936326 52.982847 
L 206.530785 74.122879 
L 207.125243 106.951696 
L 207.422472 128.118369 
L 207.719701 139.336118 
L 208.314159 98.655923 
L 208.908617 72.350102 
L 209.205846 65.113232 
L 209.503076 63.220841 
L 209.800305 66.98282 
L 210.394763 84.144648 
L 210.989221 105.475006 
L 211.583679 137.880599 
L 211.880908 134.636523 
L 212.772596 91.488082 
L 213.367054 70.627272 
L 213.664283 64.141878 
L 213.961512 61.911296 
L 214.258741 64.171641 
L 214.55597 71.149035 
L 215.150428 97.163143 
L 215.744887 135.026689 
L 216.042116 133.738855 
L 216.636574 98.1942 
L 217.231032 75.638422 
L 217.82549 62.105214 
L 218.122719 59.292969 
L 218.419948 59.346582 
L 218.717178 63.269708 
L 219.311636 81.821526 
L 219.906094 106.7578 
L 219.906094 106.7578 
" clip-path="url(#pe110b61967)" style="fill: none; stroke-dasharray: 1,1.65; stroke-dashoffset: 0; stroke: #e24a33; stroke-opacity: 0.480962"/>
   </g>
   <g id="line2d_26">
    <path d="M 71.886004 145.009057 
L 72.183234 65.702115 
L 72.480463 100.966318 
L 72.777692 92.611081 
L 73.074921 133.935794 
L 73.37215 137.797427 
L 73.966608 134.395695 
L 74.561066 124.825006 
L 74.858295 127.644429 
L 75.452754 140.070423 
L 75.749983 140.516402 
L 76.344441 133.94545 
L 76.64167 132.436772 
L 76.938899 133.179031 
L 77.830586 139.409344 
L 78.127815 140.239026 
L 78.425045 140.484089 
L 78.722274 140.465615 
L 79.019503 140.559693 
L 79.316732 141.083808 
L 79.613961 142.061134 
L 79.91119 143.604103 
L 80.208419 144.085774 
L 81.991794 126.623557 
L 82.289023 125.443426 
L 82.586252 125.894594 
L 82.883481 127.749264 
L 83.477939 134.224207 
L 84.072397 141.541612 
L 84.369626 143.883731 
L 84.666856 144.078824 
L 85.558543 137.168747 
L 85.855772 135.759744 
L 86.153001 135.216433 
L 86.747459 135.09579 
L 87.044688 135.493796 
L 87.341917 137.320878 
L 87.936376 144.141252 
L 88.233605 142.184092 
L 88.828063 135.819956 
L 89.125292 134.290475 
L 90.016979 131.617206 
L 90.314208 131.047592 
L 90.611437 130.951831 
L 90.908667 130.57846 
L 91.800354 126.50362 
L 92.097583 127.286468 
L 93.880958 138.228184 
L 94.178187 139.060786 
L 94.772645 138.866817 
L 95.069874 139.599614 
L 95.664332 144.065576 
L 95.961561 143.633943 
L 96.556019 140.119968 
L 96.853248 138.728142 
L 97.150478 136.587476 
L 98.042165 127.868903 
L 98.339394 127.787464 
L 98.933852 130.91811 
L 99.825539 136.478195 
L 100.717227 144.585462 
L 101.014456 142.836514 
L 101.906143 135.676493 
L 102.203372 134.519475 
L 102.500601 134.712416 
L 102.79783 136.463349 
L 103.095059 139.602339 
L 103.392289 144.098051 
L 103.689518 140.206814 
L 104.581205 123.48277 
L 105.175663 116.453069 
L 105.472892 115.488143 
L 105.770121 116.081334 
L 106.06735 117.40873 
L 106.661809 121.834135 
L 107.553496 132.417998 
L 107.850725 134.112106 
L 108.445183 136.009564 
L 108.742412 137.281891 
L 109.039641 137.965214 
L 109.33687 137.860426 
L 109.6341 136.878795 
L 110.228558 131.834791 
L 111.417474 121.516053 
L 111.714703 119.595212 
L 112.011932 118.85308 
L 112.309161 118.762534 
L 112.606391 119.167392 
L 112.90362 120.281448 
L 113.498078 123.748411 
L 114.092536 127.391688 
L 114.984223 130.316225 
L 115.578681 133.036622 
L 116.17314 137.728745 
L 116.767598 143.639005 
L 117.064827 143.634472 
L 117.362056 142.538111 
L 117.956514 144.267795 
L 119.145431 131.364879 
L 120.928805 119.001556 
L 121.226034 118.998608 
L 121.523263 120.712147 
L 123.009409 135.591521 
L 123.306638 141.626795 
L 123.603867 140.999537 
L 124.495554 119.306169 
L 124.792783 114.891918 
L 125.090013 112.347301 
L 125.387242 111.905484 
L 125.684471 113.466195 
L 126.278929 120.671053 
L 127.170616 134.506101 
L 127.467845 141.063089 
L 127.765074 142.312277 
L 129.548449 106.577325 
L 129.845678 103.695107 
L 130.142907 102.639582 
L 130.440136 103.195755 
L 130.737365 104.987168 
L 131.034594 107.771844 
L 131.629053 116.790388 
L 132.817969 142.403419 
L 133.115198 141.838167 
L 133.709656 131.387139 
L 134.006885 128.459715 
L 134.304114 128.018726 
L 134.601344 129.568214 
L 134.898573 132.616501 
L 135.79026 144.455332 
L 136.384718 141.533796 
L 136.681947 138.788467 
L 137.573635 126.654065 
L 137.870864 125.230422 
L 138.168093 125.602427 
L 138.762551 127.949592 
L 139.357009 128.168602 
L 139.654238 129.579997 
L 140.248696 134.832464 
L 140.843155 142.945654 
L 141.140384 141.763984 
L 141.734842 132.479331 
L 142.032071 130.138826 
L 142.3293 130.114644 
L 144.707133 144.077493 
L 145.004362 144.856877 
L 145.301591 144.907954 
L 145.59882 144.674495 
L 146.490507 141.238893 
L 146.787736 141.227932 
L 147.084966 142.602172 
L 147.382195 144.692684 
L 148.86834 128.22478 
L 149.462798 125.212078 
L 150.354486 122.123617 
L 150.651715 122.159525 
L 150.948944 124.275553 
L 151.543402 131.358808 
L 151.840631 136.86951 
L 152.13786 144.868207 
L 152.732318 129.603338 
L 153.029547 125.395869 
L 153.326777 123.486599 
L 153.624006 123.140037 
L 154.218464 123.926092 
L 154.515693 124.771254 
L 155.110151 127.55262 
L 155.40738 129.642905 
L 155.704609 132.76685 
L 156.299068 143.169422 
L 156.596297 141.158728 
L 157.487984 126.348325 
L 158.082442 121.222955 
L 158.379671 119.660295 
L 158.6769 119.365183 
L 158.974129 120.079219 
L 159.271358 121.315201 
L 159.568588 123.469804 
L 160.163046 131.63706 
L 160.757504 141.067788 
L 161.054733 144.040183 
L 161.94642 128.082774 
L 162.838108 121.46726 
L 163.135337 119.463681 
L 163.432566 118.769309 
L 163.729795 118.89874 
L 164.027024 119.750377 
L 164.324253 121.503177 
L 164.621482 124.203148 
L 165.21594 133.809242 
L 165.810399 143.611563 
L 166.107628 144.561296 
L 166.702086 143.553474 
L 166.999315 142.079482 
L 167.296544 138.461922 
L 168.48546 115.722112 
L 168.78269 113.888823 
L 169.079919 113.470076 
L 169.377148 113.491286 
L 169.674377 114.058891 
L 169.971606 115.676938 
L 170.268835 118.626387 
L 170.566064 123.171727 
L 171.457751 144.20301 
L 172.646668 113.732925 
L 173.241126 105.276653 
L 173.835584 99.928646 
L 174.132813 98.51602 
L 174.430042 99.092226 
L 174.727271 102.509486 
L 175.32173 117.112377 
L 176.213417 144.743868 
L 177.402333 113.350881 
L 177.996791 102.654132 
L 178.294021 101.198011 
L 178.59125 102.694049 
L 178.888479 106.89981 
L 179.482937 121.612224 
L 180.077395 141.406717 
L 180.374624 137.196731 
L 181.563541 92.146178 
L 181.86077 84.205379 
L 182.157999 80.000227 
L 182.455228 80.254504 
L 183.346915 91.571977 
L 183.941373 99.407025 
L 184.535832 111.65716 
L 185.427519 134.433106 
L 185.724748 139.107181 
L 186.021977 140.588103 
L 186.319206 139.554496 
L 186.913664 133.925661 
L 187.805352 123.953655 
L 188.39981 116.988314 
L 188.697039 115.757961 
L 188.994268 116.229386 
L 189.291497 116.983678 
L 189.588726 116.986733 
L 189.885955 116.064423 
L 190.777643 111.462343 
L 191.074872 111.372564 
L 191.372101 112.152591 
L 191.966559 114.533309 
L 192.263788 114.663655 
L 192.561017 112.287648 
L 193.749934 93.608195 
L 194.93885 82.150612 
L 195.236079 81.994309 
L 195.533308 84.170403 
L 196.424995 96.519673 
L 197.316683 109.377581 
L 198.505599 127.197574 
L 199.100057 137.328367 
L 199.397286 140.079088 
L 199.694515 140.861756 
L 199.991745 138.975163 
L 200.586203 127.557657 
L 201.180661 116.08709 
L 201.775119 108.233479 
L 202.369577 103.085821 
L 202.964035 96.241331 
L 203.261265 94.917932 
L 203.558494 95.810313 
L 204.450181 101.618692 
L 204.74741 105.149317 
L 205.341868 116.666893 
L 206.233556 144.711813 
L 207.125243 117.279581 
L 207.719701 103.621292 
L 208.01693 99.328479 
L 208.314159 96.77956 
L 208.611388 95.893535 
L 208.908617 96.963988 
L 209.205846 100.751542 
L 209.503076 108.116959 
L 210.394763 141.723262 
L 210.691992 137.632036 
L 211.880908 96.371411 
L 212.475367 84.542336 
L 212.772596 81.835156 
L 213.069825 81.40468 
L 213.367054 82.609656 
L 213.664283 85.664411 
L 213.961512 91.274124 
L 214.55597 111.65513 
L 215.150428 141.356033 
L 215.447657 131.456519 
L 216.339345 82.630042 
L 216.933803 67.772321 
L 217.231032 63.374336 
L 217.528261 60.979496 
L 217.82549 62.065765 
L 218.122719 66.536259 
L 218.717178 83.579159 
L 219.906094 134.809531 
L 219.906094 134.809531 
" clip-path="url(#pe110b61967)" style="fill: none; stroke: #ff0000; stroke-linecap: square"/>
   </g>
   <g id="patch_3">
    <path d="M 64.485 150.685679 
L 64.485 25.8 
" style="fill: none; stroke: #ffffff; stroke-linejoin: miter; stroke-linecap: square"/>
   </g>
   <g id="patch_4">
    <path d="M 227.307098 150.685679 
L 227.307098 25.8 
" style="fill: none; stroke: #ffffff; stroke-linejoin: miter; stroke-linecap: square"/>
   </g>
   <g id="patch_5">
    <path d="M 64.485 150.685679 
L 227.307098 150.685679 
" style="fill: none; stroke: #ffffff; stroke-linejoin: miter; stroke-linecap: square"/>
   </g>
   <g id="patch_6">
    <path d="M 64.485 25.8 
L 227.307098 25.8 
" style="fill: none; stroke: #ffffff; stroke-linejoin: miter; stroke-linecap: square"/>
   </g>
   <g id="text_15">
    <!-- Bath 2 (right, $T=0$) -->
    <g transform="translate(105.776049 19.8)scale(0.08 -0.08)">
     <defs>
      <path id="DejaVuSerif-42" d="M 1581 331 
L 2516 331 
Q 3078 331 3337 575 
Q 3597 819 3597 1350 
Q 3597 1878 3339 2120 
Q 3081 2363 2516 2363 
L 1581 2363 
L 1581 331 
z
M 1581 2694 
L 2375 2694 
Q 2888 2694 3123 2891 
Q 3359 3088 3359 3513 
Q 3359 3941 3123 4136 
Q 2888 4331 2375 4331 
L 1581 4331 
L 1581 2694 
z
M 353 0 
L 353 331 
L 947 331 
L 947 4331 
L 353 4331 
L 353 4666 
L 2656 4666 
Q 3363 4666 3720 4377 
Q 4078 4088 4078 3513 
Q 4078 3097 3829 2850 
Q 3581 2603 3103 2547 
Q 3697 2472 4005 2167 
Q 4313 1863 4313 1350 
Q 4313 656 3875 328 
Q 3438 0 2509 0 
L 353 0 
z
" transform="scale(0.015625)"/>
      <path id="DejaVuSerif-61" d="M 2547 1044 
L 2547 1747 
L 1806 1747 
Q 1378 1747 1168 1562 
Q 959 1378 959 997 
Q 959 650 1171 447 
Q 1384 244 1747 244 
Q 2106 244 2326 466 
Q 2547 688 2547 1044 
z
M 3122 2075 
L 3122 331 
L 3634 331 
L 3634 0 
L 2547 0 
L 2547 359 
Q 2356 128 2106 18 
Q 1856 -91 1522 -91 
Q 969 -91 644 203 
Q 319 497 319 997 
Q 319 1513 691 1797 
Q 1063 2081 1741 2081 
L 2547 2081 
L 2547 2309 
Q 2547 2688 2317 2895 
Q 2088 3103 1672 3103 
Q 1328 3103 1125 2947 
Q 922 2791 872 2484 
L 575 2484 
L 575 3156 
Q 875 3284 1158 3348 
Q 1441 3413 1709 3413 
Q 2400 3413 2761 3070 
Q 3122 2728 3122 2075 
z
" transform="scale(0.015625)"/>
      <path id="DejaVuSerif-74" d="M 691 2988 
L 184 2988 
L 184 3322 
L 691 3322 
L 691 4353 
L 1269 4353 
L 1269 3322 
L 2350 3322 
L 2350 2988 
L 1269 2988 
L 1269 878 
Q 1269 456 1350 337 
Q 1431 219 1650 219 
Q 1875 219 1978 351 
Q 2081 484 2088 781 
L 2522 781 
Q 2497 328 2275 118 
Q 2053 -91 1600 -91 
Q 1103 -91 897 129 
Q 691 350 691 878 
L 691 2988 
z
" transform="scale(0.015625)"/>
      <path id="DejaVuSerif-68" d="M 263 0 
L 263 331 
L 781 331 
L 781 4531 
L 231 4531 
L 231 4863 
L 1356 4863 
L 1356 2731 
Q 1516 3069 1770 3241 
Q 2025 3413 2363 3413 
Q 2913 3413 3172 3097 
Q 3431 2781 3431 2113 
L 3431 331 
L 3944 331 
L 3944 0 
L 2356 0 
L 2356 331 
L 2853 331 
L 2853 1931 
Q 2853 2541 2704 2764 
Q 2556 2988 2175 2988 
Q 1775 2988 1565 2697 
Q 1356 2406 1356 1850 
L 1356 331 
L 1856 331 
L 1856 0 
L 263 0 
z
" transform="scale(0.015625)"/>
      <path id="DejaVuSerif-20" transform="scale(0.015625)"/>
      <path id="DejaVuSerif-28" d="M 2041 -997 
Q 1281 -656 893 83 
Q 506 822 506 1931 
Q 506 3044 893 3783 
Q 1281 4522 2041 4863 
L 2041 4556 
Q 1559 4225 1350 3623 
Q 1141 3022 1141 1931 
Q 1141 844 1350 242 
Q 1559 -359 2041 -691 
L 2041 -997 
z
" transform="scale(0.015625)"/>
      <path id="DejaVuSerif-72" d="M 3059 3328 
L 3059 2497 
L 2728 2497 
Q 2713 2744 2591 2866 
Q 2469 2988 2234 2988 
Q 1809 2988 1582 2694 
Q 1356 2400 1356 1850 
L 1356 331 
L 2022 331 
L 2022 0 
L 263 0 
L 263 331 
L 781 331 
L 781 2994 
L 231 2994 
L 231 3322 
L 1356 3322 
L 1356 2731 
Q 1525 3078 1790 3245 
Q 2056 3413 2438 3413 
Q 2578 3413 2733 3391 
Q 2888 3369 3059 3328 
z
" transform="scale(0.015625)"/>
      <path id="DejaVuSerif-69" d="M 622 4353 
Q 622 4497 726 4603 
Q 831 4709 978 4709 
Q 1122 4709 1226 4603 
Q 1331 4497 1331 4353 
Q 1331 4206 1228 4103 
Q 1125 4000 978 4000 
Q 831 4000 726 4103 
Q 622 4206 622 4353 
z
M 1356 331 
L 1900 331 
L 1900 0 
L 231 0 
L 231 331 
L 781 331 
L 781 2988 
L 231 2988 
L 231 3322 
L 1356 3322 
L 1356 331 
z
" transform="scale(0.015625)"/>
      <path id="DejaVuSerif-67" d="M 3359 2988 
L 3359 72 
Q 3359 -644 2965 -1033 
Q 2572 -1422 1844 -1422 
Q 1516 -1422 1216 -1362 
Q 916 -1303 641 -1184 
L 641 -488 
L 941 -488 
Q 997 -813 1206 -963 
Q 1416 -1113 1806 -1113 
Q 2313 -1113 2548 -827 
Q 2784 -541 2784 72 
L 2784 519 
Q 2616 206 2355 57 
Q 2094 -91 1709 -91 
Q 1097 -91 708 395 
Q 319 881 319 1663 
Q 319 2444 706 2928 
Q 1094 3413 1709 3413 
Q 2094 3413 2355 3264 
Q 2616 3116 2784 2803 
L 2784 3322 
L 3909 3322 
L 3909 2988 
L 3359 2988 
z
M 2784 1825 
Q 2784 2422 2554 2737 
Q 2325 3053 1888 3053 
Q 1444 3053 1217 2703 
Q 991 2353 991 1663 
Q 991 975 1217 622 
Q 1444 269 1888 269 
Q 2325 269 2554 583 
Q 2784 897 2784 1497 
L 2784 1825 
z
" transform="scale(0.015625)"/>
      <path id="DejaVuSerif-2c" d="M 231 -622 
Q 525 -406 662 -114 
Q 800 178 800 594 
L 800 709 
L 1416 709 
Q 1391 175 1164 -208 
Q 938 -591 481 -872 
L 231 -622 
z
" transform="scale(0.015625)"/>
      <path id="DejaVuSans-Oblique-54" d="M 378 4666 
L 4325 4666 
L 4225 4134 
L 2559 4134 
L 1759 0 
L 1125 0 
L 1925 4134 
L 275 4134 
L 378 4666 
z
" transform="scale(0.015625)"/>
      <path id="DejaVuSans-3d" d="M 678 2906 
L 4684 2906 
L 4684 2381 
L 678 2381 
L 678 2906 
z
M 678 1631 
L 4684 1631 
L 4684 1100 
L 678 1100 
L 678 1631 
z
" transform="scale(0.015625)"/>
      <path id="DejaVuSans-30" d="M 2034 4250 
Q 1547 4250 1301 3770 
Q 1056 3291 1056 2328 
Q 1056 1369 1301 889 
Q 1547 409 2034 409 
Q 2525 409 2770 889 
Q 3016 1369 3016 2328 
Q 3016 3291 2770 3770 
Q 2525 4250 2034 4250 
z
M 2034 4750 
Q 2819 4750 3233 4129 
Q 3647 3509 3647 2328 
Q 3647 1150 3233 529 
Q 2819 -91 2034 -91 
Q 1250 -91 836 529 
Q 422 1150 422 2328 
Q 422 3509 836 4129 
Q 1250 4750 2034 4750 
z
" transform="scale(0.015625)"/>
      <path id="DejaVuSerif-29" d="M 453 -997 
L 453 -691 
Q 934 -359 1145 242 
Q 1356 844 1356 1931 
Q 1356 3022 1145 3623 
Q 934 4225 453 4556 
L 453 4863 
Q 1216 4522 1603 3783 
Q 1991 3044 1991 1931 
Q 1991 822 1603 83 
Q 1216 -656 453 -997 
z
" transform="scale(0.015625)"/>
     </defs>
     <use xlink:href="#DejaVuSerif-42" transform="translate(0 0.015625)"/>
     <use xlink:href="#DejaVuSerif-61" transform="translate(73.486328 0.015625)"/>
     <use xlink:href="#DejaVuSerif-74" transform="translate(133.105469 0.015625)"/>
     <use xlink:href="#DejaVuSerif-68" transform="translate(173.291016 0.015625)"/>
     <use xlink:href="#DejaVuSerif-20" transform="translate(237.695312 0.015625)"/>
     <use xlink:href="#DejaVuSerif-32" transform="translate(269.482422 0.015625)"/>
     <use xlink:href="#DejaVuSerif-20" transform="translate(333.105469 0.015625)"/>
     <use xlink:href="#DejaVuSerif-28" transform="translate(364.892578 0.015625)"/>
     <use xlink:href="#DejaVuSerif-72" transform="translate(403.90625 0.015625)"/>
     <use xlink:href="#DejaVuSerif-69" transform="translate(451.708984 0.015625)"/>
     <use xlink:href="#DejaVuSerif-67" transform="translate(483.691406 0.015625)"/>
     <use xlink:href="#DejaVuSerif-68" transform="translate(547.705078 0.015625)"/>
     <use xlink:href="#DejaVuSerif-74" transform="translate(612.109375 0.015625)"/>
     <use xlink:href="#DejaVuSerif-2c" transform="translate(652.294922 0.015625)"/>
     <use xlink:href="#DejaVuSerif-20" transform="translate(684.082031 0.015625)"/>
     <use xlink:href="#DejaVuSans-Oblique-54" transform="translate(715.869141 0.015625)"/>
     <use xlink:href="#DejaVuSans-3d" transform="translate(796.435547 0.015625)"/>
     <use xlink:href="#DejaVuSans-30" transform="translate(899.707031 0.015625)"/>
     <use xlink:href="#DejaVuSerif-29" transform="translate(963.330078 0.015625)"/>
    </g>
   </g>
   <g id="legend_1">
    <g id="patch_7">
     <path d="M 70.085 67.4275 
L 192.565 67.4275 
Q 194.165 67.4275 194.165 65.8275 
L 194.165 31.4 
Q 194.165 29.8 192.565 29.8 
L 70.085 29.8 
Q 68.485 29.8 68.485 31.4 
L 68.485 65.8275 
Q 68.485 67.4275 70.085 67.4275 
z
" style="fill: #e5e5e5; opacity: 0.8; stroke: #cccccc; stroke-width: 0.5; stroke-linejoin: miter"/>
    </g>
    <g id="patch_8">
     <path d="M 71.685 39.07875 
L 87.685 39.07875 
L 87.685 33.47875 
L 71.685 33.47875 
z
" style="fill: #ffff00; stroke: #ffff00; stroke-width: 0.5; stroke-linejoin: miter"/>
    </g>
    <g id="text_16">
     <!-- $\sigma\, (N=5191)$ -->
     <g transform="translate(94.085 39.07875)scale(0.08 -0.08)">
      <defs>
       <path id="DejaVuSans-Oblique-3c3" d="M 2219 3044 
Q 1744 3044 1422 2700 
Q 1081 2341 969 1747 
Q 844 1119 1044 756 
Q 1241 397 1706 397 
Q 2166 397 2503 759 
Q 2844 1122 2966 1747 
Q 3075 2319 2881 2700 
Q 2700 3044 2219 3044 
z
M 2309 3503 
L 4219 3500 
L 4106 2925 
L 3463 2925 
Q 3706 2438 3575 1747 
Q 3406 888 2884 400 
Q 2359 -91 1609 -91 
Q 856 -91 525 400 
Q 194 888 363 1747 
Q 528 2609 1050 3097 
Q 1484 3503 2309 3503 
z
" transform="scale(0.015625)"/>
       <path id="DejaVuSans-28" d="M 1984 4856 
Q 1566 4138 1362 3434 
Q 1159 2731 1159 2009 
Q 1159 1288 1364 580 
Q 1569 -128 1984 -844 
L 1484 -844 
Q 1016 -109 783 600 
Q 550 1309 550 2009 
Q 550 2706 781 3412 
Q 1013 4119 1484 4856 
L 1984 4856 
z
" transform="scale(0.015625)"/>
       <path id="DejaVuSans-35" d="M 691 4666 
L 3169 4666 
L 3169 4134 
L 1269 4134 
L 1269 2991 
Q 1406 3038 1543 3061 
Q 1681 3084 1819 3084 
Q 2600 3084 3056 2656 
Q 3513 2228 3513 1497 
Q 3513 744 3044 326 
Q 2575 -91 1722 -91 
Q 1428 -91 1123 -41 
Q 819 9 494 109 
L 494 744 
Q 775 591 1075 516 
Q 1375 441 1709 441 
Q 2250 441 2565 725 
Q 2881 1009 2881 1497 
Q 2881 1984 2565 2268 
Q 2250 2553 1709 2553 
Q 1456 2553 1204 2497 
Q 953 2441 691 2322 
L 691 4666 
z
" transform="scale(0.015625)"/>
       <path id="DejaVuSans-31" d="M 794 531 
L 1825 531 
L 1825 4091 
L 703 3866 
L 703 4441 
L 1819 4666 
L 2450 4666 
L 2450 531 
L 3481 531 
L 3481 0 
L 794 0 
L 794 531 
z
" transform="scale(0.015625)"/>
       <path id="DejaVuSans-39" d="M 703 97 
L 703 672 
Q 941 559 1184 500 
Q 1428 441 1663 441 
Q 2288 441 2617 861 
Q 2947 1281 2994 2138 
Q 2813 1869 2534 1725 
Q 2256 1581 1919 1581 
Q 1219 1581 811 2004 
Q 403 2428 403 3163 
Q 403 3881 828 4315 
Q 1253 4750 1959 4750 
Q 2769 4750 3195 4129 
Q 3622 3509 3622 2328 
Q 3622 1225 3098 567 
Q 2575 -91 1691 -91 
Q 1453 -91 1209 -44 
Q 966 3 703 97 
z
M 1959 2075 
Q 2384 2075 2632 2365 
Q 2881 2656 2881 3163 
Q 2881 3666 2632 3958 
Q 2384 4250 1959 4250 
Q 1534 4250 1286 3958 
Q 1038 3666 1038 3163 
Q 1038 2656 1286 2365 
Q 1534 2075 1959 2075 
z
" transform="scale(0.015625)"/>
       <path id="DejaVuSans-29" d="M 513 4856 
L 1013 4856 
Q 1481 4119 1714 3412 
Q 1947 2706 1947 2009 
Q 1947 1309 1714 600 
Q 1481 -109 1013 -844 
L 513 -844 
Q 928 -128 1133 580 
Q 1338 1288 1338 2009 
Q 1338 2731 1133 3434 
Q 928 4138 513 4856 
z
" transform="scale(0.015625)"/>
      </defs>
      <use xlink:href="#DejaVuSans-Oblique-3c3" transform="translate(0 0.125)"/>
      <use xlink:href="#DejaVuSans-28" transform="translate(79.614583 0.125)"/>
      <use xlink:href="#DejaVuSans-Oblique-4e" transform="translate(118.628254 0.125)"/>
      <use xlink:href="#DejaVuSans-3d" transform="translate(212.915364 0.125)"/>
      <use xlink:href="#DejaVuSans-35" transform="translate(316.186848 0.125)"/>
      <use xlink:href="#DejaVuSans-31" transform="translate(379.809895 0.125)"/>
      <use xlink:href="#DejaVuSans-39" transform="translate(443.432942 0.125)"/>
      <use xlink:href="#DejaVuSans-31" transform="translate(507.055989 0.125)"/>
      <use xlink:href="#DejaVuSans-29" transform="translate(570.679036 0.125)"/>
     </g>
    </g>
    <g id="line2d_27">
     <path d="M 71.685 48.02125 
L 79.685 48.02125 
L 87.685 48.02125 
" style="fill: none; stroke-dasharray: 1,1.65; stroke-dashoffset: 0; stroke: #e24a33; stroke-opacity: 0.480962"/>
    </g>
    <g id="text_17">
     <!-- $N=2849$  $\Delta&lt;\sigma = 48.1\%$ -->
     <g transform="translate(94.085 50.82125)scale(0.08 -0.08)">
      <defs>
       <path id="DejaVuSans-32" d="M 1228 531 
L 3431 531 
L 3431 0 
L 469 0 
L 469 531 
Q 828 903 1448 1529 
Q 2069 2156 2228 2338 
Q 2531 2678 2651 2914 
Q 2772 3150 2772 3378 
Q 2772 3750 2511 3984 
Q 2250 4219 1831 4219 
Q 1534 4219 1204 4116 
Q 875 4013 500 3803 
L 500 4441 
Q 881 4594 1212 4672 
Q 1544 4750 1819 4750 
Q 2544 4750 2975 4387 
Q 3406 4025 3406 3419 
Q 3406 3131 3298 2873 
Q 3191 2616 2906 2266 
Q 2828 2175 2409 1742 
Q 1991 1309 1228 531 
z
" transform="scale(0.015625)"/>
       <path id="DejaVuSans-38" d="M 2034 2216 
Q 1584 2216 1326 1975 
Q 1069 1734 1069 1313 
Q 1069 891 1326 650 
Q 1584 409 2034 409 
Q 2484 409 2743 651 
Q 3003 894 3003 1313 
Q 3003 1734 2745 1975 
Q 2488 2216 2034 2216 
z
M 1403 2484 
Q 997 2584 770 2862 
Q 544 3141 544 3541 
Q 544 4100 942 4425 
Q 1341 4750 2034 4750 
Q 2731 4750 3128 4425 
Q 3525 4100 3525 3541 
Q 3525 3141 3298 2862 
Q 3072 2584 2669 2484 
Q 3125 2378 3379 2068 
Q 3634 1759 3634 1313 
Q 3634 634 3220 271 
Q 2806 -91 2034 -91 
Q 1263 -91 848 271 
Q 434 634 434 1313 
Q 434 1759 690 2068 
Q 947 2378 1403 2484 
z
M 1172 3481 
Q 1172 3119 1398 2916 
Q 1625 2713 2034 2713 
Q 2441 2713 2670 2916 
Q 2900 3119 2900 3481 
Q 2900 3844 2670 4047 
Q 2441 4250 2034 4250 
Q 1625 4250 1398 4047 
Q 1172 3844 1172 3481 
z
" transform="scale(0.015625)"/>
       <path id="DejaVuSans-34" d="M 2419 4116 
L 825 1625 
L 2419 1625 
L 2419 4116 
z
M 2253 4666 
L 3047 4666 
L 3047 1625 
L 3713 1625 
L 3713 1100 
L 3047 1100 
L 3047 0 
L 2419 0 
L 2419 1100 
L 313 1100 
L 313 1709 
L 2253 4666 
z
" transform="scale(0.015625)"/>
       <path id="DejaVuSans-394" d="M 2188 4044 
L 906 525 
L 3472 525 
L 2188 4044 
z
M 50 0 
L 1831 4666 
L 2547 4666 
L 4325 0 
L 50 0 
z
" transform="scale(0.015625)"/>
       <path id="DejaVuSans-3c" d="M 4684 3150 
L 1459 2003 
L 4684 863 
L 4684 294 
L 678 1747 
L 678 2266 
L 4684 3719 
L 4684 3150 
z
" transform="scale(0.015625)"/>
       <path id="DejaVuSans-2e" d="M 684 794 
L 1344 794 
L 1344 0 
L 684 0 
L 684 794 
z
" transform="scale(0.015625)"/>
       <path id="DejaVuSans-25" d="M 4653 2053 
Q 4381 2053 4226 1822 
Q 4072 1591 4072 1178 
Q 4072 772 4226 539 
Q 4381 306 4653 306 
Q 4919 306 5073 539 
Q 5228 772 5228 1178 
Q 5228 1588 5073 1820 
Q 4919 2053 4653 2053 
z
M 4653 2450 
Q 5147 2450 5437 2106 
Q 5728 1763 5728 1178 
Q 5728 594 5436 251 
Q 5144 -91 4653 -91 
Q 4153 -91 3862 251 
Q 3572 594 3572 1178 
Q 3572 1766 3864 2108 
Q 4156 2450 4653 2450 
z
M 1428 4353 
Q 1159 4353 1004 4120 
Q 850 3888 850 3481 
Q 850 3069 1003 2837 
Q 1156 2606 1428 2606 
Q 1700 2606 1854 2837 
Q 2009 3069 2009 3481 
Q 2009 3884 1853 4118 
Q 1697 4353 1428 4353 
z
M 4250 4750 
L 4750 4750 
L 1831 -91 
L 1331 -91 
L 4250 4750 
z
M 1428 4750 
Q 1922 4750 2215 4408 
Q 2509 4066 2509 3481 
Q 2509 2891 2217 2550 
Q 1925 2209 1428 2209 
Q 931 2209 642 2551 
Q 353 2894 353 3481 
Q 353 4063 643 4406 
Q 934 4750 1428 4750 
z
" transform="scale(0.015625)"/>
      </defs>
      <use xlink:href="#DejaVuSans-Oblique-4e" transform="translate(0 0.78125)"/>
      <use xlink:href="#DejaVuSans-3d" transform="translate(94.287109 0.78125)"/>
      <use xlink:href="#DejaVuSans-32" transform="translate(197.558594 0.78125)"/>
      <use xlink:href="#DejaVuSans-38" transform="translate(261.181641 0.78125)"/>
      <use xlink:href="#DejaVuSans-34" transform="translate(324.804688 0.78125)"/>
      <use xlink:href="#DejaVuSans-39" transform="translate(388.427734 0.78125)"/>
      <use xlink:href="#DejaVuSerif-20" transform="translate(452.050781 0.78125)"/>
      <use xlink:href="#DejaVuSerif-20" transform="translate(483.837891 0.78125)"/>
      <use xlink:href="#DejaVuSans-394" transform="translate(515.625 0.78125)"/>
      <use xlink:href="#DejaVuSans-3c" transform="translate(603.515625 0.78125)"/>
      <use xlink:href="#DejaVuSans-Oblique-3c3" transform="translate(706.787109 0.78125)"/>
      <use xlink:href="#DejaVuSans-3d" transform="translate(789.648438 0.78125)"/>
      <use xlink:href="#DejaVuSans-34" transform="translate(892.919922 0.78125)"/>
      <use xlink:href="#DejaVuSans-38" transform="translate(956.542969 0.78125)"/>
      <use xlink:href="#DejaVuSans-2e" transform="translate(1020.166016 0.78125)"/>
      <use xlink:href="#DejaVuSans-31" transform="translate(1051.953125 0.78125)"/>
      <use xlink:href="#DejaVuSans-25" transform="translate(1115.576172 0.78125)"/>
     </g>
    </g>
    <g id="line2d_28">
     <path d="M 71.685 59.76375 
L 79.685 59.76375 
L 87.685 59.76375 
" style="fill: none; stroke: #ff0000; stroke-linecap: square"/>
    </g>
    <g id="text_18">
     <!-- $N=5191$  $\Delta&lt;\sigma = 67.7\%$ -->
     <g transform="translate(94.085 62.56375)scale(0.08 -0.08)">
      <defs>
       <path id="DejaVuSans-36" d="M 2113 2584 
Q 1688 2584 1439 2293 
Q 1191 2003 1191 1497 
Q 1191 994 1439 701 
Q 1688 409 2113 409 
Q 2538 409 2786 701 
Q 3034 994 3034 1497 
Q 3034 2003 2786 2293 
Q 2538 2584 2113 2584 
z
M 3366 4563 
L 3366 3988 
Q 3128 4100 2886 4159 
Q 2644 4219 2406 4219 
Q 1781 4219 1451 3797 
Q 1122 3375 1075 2522 
Q 1259 2794 1537 2939 
Q 1816 3084 2150 3084 
Q 2853 3084 3261 2657 
Q 3669 2231 3669 1497 
Q 3669 778 3244 343 
Q 2819 -91 2113 -91 
Q 1303 -91 875 529 
Q 447 1150 447 2328 
Q 447 3434 972 4092 
Q 1497 4750 2381 4750 
Q 2619 4750 2861 4703 
Q 3103 4656 3366 4563 
z
" transform="scale(0.015625)"/>
       <path id="DejaVuSans-37" d="M 525 4666 
L 3525 4666 
L 3525 4397 
L 1831 0 
L 1172 0 
L 2766 4134 
L 525 4134 
L 525 4666 
z
" transform="scale(0.015625)"/>
      </defs>
      <use xlink:href="#DejaVuSans-Oblique-4e" transform="translate(0 0.78125)"/>
      <use xlink:href="#DejaVuSans-3d" transform="translate(94.287109 0.78125)"/>
      <use xlink:href="#DejaVuSans-35" transform="translate(197.558594 0.78125)"/>
      <use xlink:href="#DejaVuSans-31" transform="translate(261.181641 0.78125)"/>
      <use xlink:href="#DejaVuSans-39" transform="translate(324.804688 0.78125)"/>
      <use xlink:href="#DejaVuSans-31" transform="translate(388.427734 0.78125)"/>
      <use xlink:href="#DejaVuSerif-20" transform="translate(452.050781 0.78125)"/>
      <use xlink:href="#DejaVuSerif-20" transform="translate(483.837891 0.78125)"/>
      <use xlink:href="#DejaVuSans-394" transform="translate(515.625 0.78125)"/>
      <use xlink:href="#DejaVuSans-3c" transform="translate(603.515625 0.78125)"/>
      <use xlink:href="#DejaVuSans-Oblique-3c3" transform="translate(706.787109 0.78125)"/>
      <use xlink:href="#DejaVuSans-3d" transform="translate(789.648438 0.78125)"/>
      <use xlink:href="#DejaVuSans-36" transform="translate(892.919922 0.78125)"/>
      <use xlink:href="#DejaVuSans-37" transform="translate(956.542969 0.78125)"/>
      <use xlink:href="#DejaVuSans-2e" transform="translate(1020.166016 0.78125)"/>
      <use xlink:href="#DejaVuSans-37" transform="translate(1044.203125 0.78125)"/>
      <use xlink:href="#DejaVuSans-25" transform="translate(1107.826172 0.78125)"/>
     </g>
    </g>
   </g>
  </g>
 </g>
 <defs>
  <clipPath id="pe110b61967">
   <rect x="64.485" y="25.8" width="162.822098" height="124.885679"/>
  </clipPath>
 </defs>
</svg>
