<?xml version="1.0" encoding="utf-8" standalone="no"?>
<!DOCTYPE svg PUBLIC "-//W3C//DTD SVG 1.1//EN"
  "http://www.w3.org/Graphics/SVG/1.1/DTD/svg11.dtd">
<svg xmlns:xlink="http://www.w3.org/1999/xlink" width="238.107098pt" height="190.485679pt" viewBox="0 0 238.107098 190.485679" xmlns="http://www.w3.org/2000/svg" version="1.1">
 <metadata>
  <rdf:RDF xmlns:dc="http://purl.org/dc/elements/1.1/" xmlns:cc="http://creativecommons.org/ns#" xmlns:rdf="http://www.w3.org/1999/02/22-rdf-syntax-ns#">
   <cc:Work>
    <dc:type rdf:resource="http://purl.org/dc/dcmitype/StillImage"/>
    <dc:date>1980-01-01T00:00:00+00:00</dc:date>
    <dc:format>image/svg+xml</dc:format>
    <dc:creator>
     <cc:Agent>
      <dc:title>Matplotlib v3.5.1, https://matplotlib.org/</dc:title>
     </cc:Agent>
    </dc:creator>
   </cc:Work>
  </rdf:RDF>
 </metadata>
 <defs>
  <style type="text/css">*{stroke-linejoin: round; stroke-linecap: butt}</style>
 </defs>
 <g id="figure_1">
  <g id="patch_1">
   <path d="M 0 190.485679 
L 238.107098 190.485679 
L 238.107098 0 
L 0 0 
z
" style="fill: #ffffff"/>
  </g>
  <g id="axes_1">
   <g id="patch_2">
    <path d="M 64.485 150.685679 
L 227.307098 150.685679 
L 227.307098 24.971875 
L 64.485 24.971875 
z
" style="fill: #e5e5e5"/>
   </g>
   <g id="matplotlib.axis_1">
    <g id="xtick_1">
     <g id="line2d_1">
      <path d="M 71.886004 150.685679 
L 71.886004 24.971875 
" clip-path="url(#p5a891a12f0)" style="fill: none; stroke: #ffffff; stroke-width: 0.8; stroke-linecap: square"/>
     </g>
     <g id="line2d_2">
      <defs>
       <path id="m4350450a7a" d="M 0 0 
L 0 3.5 
" style="stroke: #555555; stroke-width: 0.8"/>
      </defs>
      <g>
       <use xlink:href="#m4350450a7a" x="71.886004" y="150.685679" style="fill: #555555; stroke: #555555; stroke-width: 0.8"/>
      </g>
     </g>
     <g id="text_1">
      <!-- 0 -->
      <g style="fill: #555555" transform="translate(69.341004 163.764429)scale(0.08 -0.08)">
       <defs>
        <path id="DejaVuSerif-30" d="M 2034 219 
Q 2513 219 2750 744 
Q 2988 1269 2988 2328 
Q 2988 3391 2750 3916 
Q 2513 4441 2034 4441 
Q 1556 4441 1318 3916 
Q 1081 3391 1081 2328 
Q 1081 1269 1318 744 
Q 1556 219 2034 219 
z
M 2034 -91 
Q 1275 -91 848 546 
Q 422 1184 422 2328 
Q 422 3475 848 4112 
Q 1275 4750 2034 4750 
Q 2797 4750 3222 4112 
Q 3647 3475 3647 2328 
Q 3647 1184 3222 546 
Q 2797 -91 2034 -91 
z
" transform="scale(0.015625)"/>
       </defs>
       <use xlink:href="#DejaVuSerif-30"/>
      </g>
     </g>
    </g>
    <g id="xtick_2">
     <g id="line2d_3">
      <path d="M 101.490022 150.685679 
L 101.490022 24.971875 
" clip-path="url(#p5a891a12f0)" style="fill: none; stroke: #ffffff; stroke-width: 0.8; stroke-linecap: square"/>
     </g>
     <g id="line2d_4">
      <g>
       <use xlink:href="#m4350450a7a" x="101.490022" y="150.685679" style="fill: #555555; stroke: #555555; stroke-width: 0.8"/>
      </g>
     </g>
     <g id="text_2">
      <!-- 10 -->
      <g style="fill: #555555" transform="translate(96.400022 163.764429)scale(0.08 -0.08)">
       <defs>
        <path id="DejaVuSerif-31" d="M 909 0 
L 909 331 
L 1722 331 
L 1722 4213 
L 781 3603 
L 781 4013 
L 1919 4750 
L 2350 4750 
L 2350 331 
L 3163 331 
L 3163 0 
L 909 0 
z
" transform="scale(0.015625)"/>
       </defs>
       <use xlink:href="#DejaVuSerif-31"/>
       <use xlink:href="#DejaVuSerif-30" x="63.623047"/>
      </g>
     </g>
    </g>
    <g id="xtick_3">
     <g id="line2d_5">
      <path d="M 131.09404 150.685679 
L 131.09404 24.971875 
" clip-path="url(#p5a891a12f0)" style="fill: none; stroke: #ffffff; stroke-width: 0.8; stroke-linecap: square"/>
     </g>
     <g id="line2d_6">
      <g>
       <use xlink:href="#m4350450a7a" x="131.09404" y="150.685679" style="fill: #555555; stroke: #555555; stroke-width: 0.8"/>
      </g>
     </g>
     <g id="text_3">
      <!-- 20 -->
      <g style="fill: #555555" transform="translate(126.00404 163.764429)scale(0.08 -0.08)">
       <defs>
        <path id="DejaVuSerif-32" d="M 819 3553 
L 469 3553 
L 469 4384 
Q 803 4563 1142 4656 
Q 1481 4750 1806 4750 
Q 2534 4750 2956 4397 
Q 3378 4044 3378 3438 
Q 3378 2753 2422 1800 
Q 2347 1728 2309 1691 
L 1131 513 
L 3078 513 
L 3078 1088 
L 3444 1088 
L 3444 0 
L 434 0 
L 434 341 
L 1850 1753 
Q 2319 2222 2519 2614 
Q 2719 3006 2719 3438 
Q 2719 3909 2473 4175 
Q 2228 4441 1797 4441 
Q 1350 4441 1106 4219 
Q 863 3997 819 3553 
z
" transform="scale(0.015625)"/>
       </defs>
       <use xlink:href="#DejaVuSerif-32"/>
       <use xlink:href="#DejaVuSerif-30" x="63.623047"/>
      </g>
     </g>
    </g>
    <g id="xtick_4">
     <g id="line2d_7">
      <path d="M 160.698058 150.685679 
L 160.698058 24.971875 
" clip-path="url(#p5a891a12f0)" style="fill: none; stroke: #ffffff; stroke-width: 0.8; stroke-linecap: square"/>
     </g>
     <g id="line2d_8">
      <g>
       <use xlink:href="#m4350450a7a" x="160.698058" y="150.685679" style="fill: #555555; stroke: #555555; stroke-width: 0.8"/>
      </g>
     </g>
     <g id="text_4">
      <!-- 30 -->
      <g style="fill: #555555" transform="translate(155.608058 163.764429)scale(0.08 -0.08)">
       <defs>
        <path id="DejaVuSerif-33" d="M 622 4469 
Q 988 4606 1323 4678 
Q 1659 4750 1953 4750 
Q 2638 4750 3022 4454 
Q 3406 4159 3406 3634 
Q 3406 3213 3140 2930 
Q 2875 2647 2388 2547 
Q 2963 2466 3280 2130 
Q 3597 1794 3597 1259 
Q 3597 606 3158 257 
Q 2719 -91 1894 -91 
Q 1528 -91 1179 -12 
Q 831 66 488 225 
L 488 1131 
L 838 1131 
Q 869 681 1141 450 
Q 1413 219 1906 219 
Q 2384 219 2661 495 
Q 2938 772 2938 1253 
Q 2938 1803 2653 2086 
Q 2369 2369 1819 2369 
L 1522 2369 
L 1522 2688 
L 1678 2688 
Q 2225 2688 2498 2914 
Q 2772 3141 2772 3597 
Q 2772 4006 2547 4223 
Q 2322 4441 1900 4441 
Q 1478 4441 1245 4241 
Q 1013 4041 972 3647 
L 622 3647 
L 622 4469 
z
" transform="scale(0.015625)"/>
       </defs>
       <use xlink:href="#DejaVuSerif-33"/>
       <use xlink:href="#DejaVuSerif-30" x="63.623047"/>
      </g>
     </g>
    </g>
    <g id="xtick_5">
     <g id="line2d_9">
      <path d="M 190.302076 150.685679 
L 190.302076 24.971875 
" clip-path="url(#p5a891a12f0)" style="fill: none; stroke: #ffffff; stroke-width: 0.8; stroke-linecap: square"/>
     </g>
     <g id="line2d_10">
      <g>
       <use xlink:href="#m4350450a7a" x="190.302076" y="150.685679" style="fill: #555555; stroke: #555555; stroke-width: 0.8"/>
      </g>
     </g>
     <g id="text_5">
      <!-- 40 -->
      <g style="fill: #555555" transform="translate(185.212076 163.764429)scale(0.08 -0.08)">
       <defs>
        <path id="DejaVuSerif-34" d="M 2234 1581 
L 2234 4063 
L 641 1581 
L 2234 1581 
z
M 3609 0 
L 1484 0 
L 1484 331 
L 2234 331 
L 2234 1247 
L 197 1247 
L 197 1588 
L 2241 4750 
L 2859 4750 
L 2859 1581 
L 3750 1581 
L 3750 1247 
L 2859 1247 
L 2859 331 
L 3609 331 
L 3609 0 
z
" transform="scale(0.015625)"/>
       </defs>
       <use xlink:href="#DejaVuSerif-34"/>
       <use xlink:href="#DejaVuSerif-30" x="63.623047"/>
      </g>
     </g>
    </g>
    <g id="xtick_6">
     <g id="line2d_11">
      <path d="M 219.906094 150.685679 
L 219.906094 24.971875 
" clip-path="url(#p5a891a12f0)" style="fill: none; stroke: #ffffff; stroke-width: 0.8; stroke-linecap: square"/>
     </g>
     <g id="line2d_12">
      <g>
       <use xlink:href="#m4350450a7a" x="219.906094" y="150.685679" style="fill: #555555; stroke: #555555; stroke-width: 0.8"/>
      </g>
     </g>
     <g id="text_6">
      <!-- 50 -->
      <g style="fill: #555555" transform="translate(214.816094 163.764429)scale(0.08 -0.08)">
       <defs>
        <path id="DejaVuSerif-35" d="M 3219 4666 
L 3219 4153 
L 1081 4153 
L 1081 2816 
Q 1244 2928 1461 2984 
Q 1678 3041 1947 3041 
Q 2703 3041 3140 2622 
Q 3578 2203 3578 1478 
Q 3578 738 3136 323 
Q 2694 -91 1894 -91 
Q 1572 -91 1234 -12 
Q 897 66 544 225 
L 544 1131 
L 897 1131 
Q 925 688 1179 453 
Q 1434 219 1894 219 
Q 2388 219 2653 544 
Q 2919 869 2919 1478 
Q 2919 2084 2655 2407 
Q 2391 2731 1894 2731 
Q 1613 2731 1398 2631 
Q 1184 2531 1019 2322 
L 750 2322 
L 750 4666 
L 3219 4666 
z
" transform="scale(0.015625)"/>
       </defs>
       <use xlink:href="#DejaVuSerif-35"/>
       <use xlink:href="#DejaVuSerif-30" x="63.623047"/>
      </g>
     </g>
    </g>
    <g id="text_7">
     <!-- $τ$ -->
     <g style="fill: #555555" transform="translate(142.846049 177.026616)scale(0.1 -0.1)">
      <defs>
       <path id="DejaVuSans-Oblique-3c4" d="M 2103 638 
Q 2188 488 2525 488 
L 2800 488 
L 2706 0 
L 2363 0 
Q 1800 0 1600 300 
Q 1403 606 1534 1269 
L 1856 2925 
L 541 2925 
L 653 3500 
L 3881 3500 
L 3769 2925 
L 2444 2925 
L 2113 1234 
Q 2025 781 2103 638 
z
" transform="scale(0.015625)"/>
      </defs>
      <use xlink:href="#DejaVuSans-Oblique-3c4" transform="translate(0 0.3125)"/>
     </g>
    </g>
   </g>
   <g id="matplotlib.axis_2">
    <g id="ytick_1">
     <g id="line2d_13">
      <path d="M 64.485 144.971415 
L 227.307098 144.971415 
" clip-path="url(#p5a891a12f0)" style="fill: none; stroke: #ffffff; stroke-width: 0.8; stroke-linecap: square"/>
     </g>
     <g id="line2d_14">
      <defs>
       <path id="m44763275b1" d="M 0 0 
L -3.5 0 
" style="stroke: #555555; stroke-width: 0.8"/>
      </defs>
      <g>
       <use xlink:href="#m44763275b1" x="64.485" y="144.971415" style="fill: #555555; stroke: #555555; stroke-width: 0.8"/>
      </g>
     </g>
     <g id="text_8">
      <!-- 0.0000 -->
      <g style="fill: #555555" transform="translate(29.4925 148.01079)scale(0.08 -0.08)">
       <defs>
        <path id="DejaVuSerif-2e" d="M 603 325 
Q 603 500 722 622 
Q 841 744 1019 744 
Q 1191 744 1312 622 
Q 1434 500 1434 325 
Q 1434 153 1312 31 
Q 1191 -91 1019 -91 
Q 841 -91 722 29 
Q 603 150 603 325 
z
" transform="scale(0.015625)"/>
       </defs>
       <use xlink:href="#DejaVuSerif-30"/>
       <use xlink:href="#DejaVuSerif-2e" x="63.623047"/>
       <use xlink:href="#DejaVuSerif-30" x="95.410156"/>
       <use xlink:href="#DejaVuSerif-30" x="159.033203"/>
       <use xlink:href="#DejaVuSerif-30" x="222.65625"/>
       <use xlink:href="#DejaVuSerif-30" x="286.279297"/>
      </g>
     </g>
    </g>
    <g id="ytick_2">
     <g id="line2d_15">
      <path d="M 64.485 118.938815 
L 227.307098 118.938815 
" clip-path="url(#p5a891a12f0)" style="fill: none; stroke: #ffffff; stroke-width: 0.8; stroke-linecap: square"/>
     </g>
     <g id="line2d_16">
      <g>
       <use xlink:href="#m44763275b1" x="64.485" y="118.938815" style="fill: #555555; stroke: #555555; stroke-width: 0.8"/>
      </g>
     </g>
     <g id="text_9">
      <!-- 0.0005 -->
      <g style="fill: #555555" transform="translate(29.4925 121.97819)scale(0.08 -0.08)">
       <use xlink:href="#DejaVuSerif-30"/>
       <use xlink:href="#DejaVuSerif-2e" x="63.623047"/>
       <use xlink:href="#DejaVuSerif-30" x="95.410156"/>
       <use xlink:href="#DejaVuSerif-30" x="159.033203"/>
       <use xlink:href="#DejaVuSerif-30" x="222.65625"/>
       <use xlink:href="#DejaVuSerif-35" x="286.279297"/>
      </g>
     </g>
    </g>
    <g id="ytick_3">
     <g id="line2d_17">
      <path d="M 64.485 92.906216 
L 227.307098 92.906216 
" clip-path="url(#p5a891a12f0)" style="fill: none; stroke: #ffffff; stroke-width: 0.8; stroke-linecap: square"/>
     </g>
     <g id="line2d_18">
      <g>
       <use xlink:href="#m44763275b1" x="64.485" y="92.906216" style="fill: #555555; stroke: #555555; stroke-width: 0.8"/>
      </g>
     </g>
     <g id="text_10">
      <!-- 0.0010 -->
      <g style="fill: #555555" transform="translate(29.4925 95.945591)scale(0.08 -0.08)">
       <use xlink:href="#DejaVuSerif-30"/>
       <use xlink:href="#DejaVuSerif-2e" x="63.623047"/>
       <use xlink:href="#DejaVuSerif-30" x="95.410156"/>
       <use xlink:href="#DejaVuSerif-30" x="159.033203"/>
       <use xlink:href="#DejaVuSerif-31" x="222.65625"/>
       <use xlink:href="#DejaVuSerif-30" x="286.279297"/>
      </g>
     </g>
    </g>
    <g id="ytick_4">
     <g id="line2d_19">
      <path d="M 64.485 66.873616 
L 227.307098 66.873616 
" clip-path="url(#p5a891a12f0)" style="fill: none; stroke: #ffffff; stroke-width: 0.8; stroke-linecap: square"/>
     </g>
     <g id="line2d_20">
      <g>
       <use xlink:href="#m44763275b1" x="64.485" y="66.873616" style="fill: #555555; stroke: #555555; stroke-width: 0.8"/>
      </g>
     </g>
     <g id="text_11">
      <!-- 0.0015 -->
      <g style="fill: #555555" transform="translate(29.4925 69.912991)scale(0.08 -0.08)">
       <use xlink:href="#DejaVuSerif-30"/>
       <use xlink:href="#DejaVuSerif-2e" x="63.623047"/>
       <use xlink:href="#DejaVuSerif-30" x="95.410156"/>
       <use xlink:href="#DejaVuSerif-30" x="159.033203"/>
       <use xlink:href="#DejaVuSerif-31" x="222.65625"/>
       <use xlink:href="#DejaVuSerif-35" x="286.279297"/>
      </g>
     </g>
    </g>
    <g id="ytick_5">
     <g id="line2d_21">
      <path d="M 64.485 40.841016 
L 227.307098 40.841016 
" clip-path="url(#p5a891a12f0)" style="fill: none; stroke: #ffffff; stroke-width: 0.8; stroke-linecap: square"/>
     </g>
     <g id="line2d_22">
      <g>
       <use xlink:href="#m44763275b1" x="64.485" y="40.841016" style="fill: #555555; stroke: #555555; stroke-width: 0.8"/>
      </g>
     </g>
     <g id="text_12">
      <!-- 0.0020 -->
      <g style="fill: #555555" transform="translate(29.4925 43.880391)scale(0.08 -0.08)">
       <use xlink:href="#DejaVuSerif-30"/>
       <use xlink:href="#DejaVuSerif-2e" x="63.623047"/>
       <use xlink:href="#DejaVuSerif-30" x="95.410156"/>
       <use xlink:href="#DejaVuSerif-30" x="159.033203"/>
       <use xlink:href="#DejaVuSerif-32" x="222.65625"/>
       <use xlink:href="#DejaVuSerif-30" x="286.279297"/>
      </g>
     </g>
    </g>
    <g id="text_13">
     <!-- $|{J}_{\mathrm{ref}}-{J}_{N_i}|$ -->
     <g style="fill: #555555" transform="translate(22.6925 108.778777)rotate(-90)scale(0.1 -0.1)">
      <defs>
       <path id="DejaVuSans-7c" d="M 1344 4891 
L 1344 -1509 
L 813 -1509 
L 813 4891 
L 1344 4891 
z
" transform="scale(0.015625)"/>
       <path id="DejaVuSans-Oblique-4a" d="M 1069 4666 
L 1703 4666 
L 856 325 
Q 691 -522 298 -901 
Q -94 -1281 -800 -1281 
L -1050 -1281 
L -947 -750 
L -750 -750 
Q -328 -750 -109 -509 
Q 109 -269 225 325 
L 1069 4666 
z
" transform="scale(0.015625)"/>
       <path id="DejaVuSans-72" d="M 2631 2963 
Q 2534 3019 2420 3045 
Q 2306 3072 2169 3072 
Q 1681 3072 1420 2755 
Q 1159 2438 1159 1844 
L 1159 0 
L 581 0 
L 581 3500 
L 1159 3500 
L 1159 2956 
Q 1341 3275 1631 3429 
Q 1922 3584 2338 3584 
Q 2397 3584 2469 3576 
Q 2541 3569 2628 3553 
L 2631 2963 
z
" transform="scale(0.015625)"/>
       <path id="DejaVuSans-65" d="M 3597 1894 
L 3597 1613 
L 953 1613 
Q 991 1019 1311 708 
Q 1631 397 2203 397 
Q 2534 397 2845 478 
Q 3156 559 3463 722 
L 3463 178 
Q 3153 47 2828 -22 
Q 2503 -91 2169 -91 
Q 1331 -91 842 396 
Q 353 884 353 1716 
Q 353 2575 817 3079 
Q 1281 3584 2069 3584 
Q 2775 3584 3186 3129 
Q 3597 2675 3597 1894 
z
M 3022 2063 
Q 3016 2534 2758 2815 
Q 2500 3097 2075 3097 
Q 1594 3097 1305 2825 
Q 1016 2553 972 2059 
L 3022 2063 
z
" transform="scale(0.015625)"/>
       <path id="DejaVuSans-66" d="M 2375 4863 
L 2375 4384 
L 1825 4384 
Q 1516 4384 1395 4259 
Q 1275 4134 1275 3809 
L 1275 3500 
L 2222 3500 
L 2222 3053 
L 1275 3053 
L 1275 0 
L 697 0 
L 697 3053 
L 147 3053 
L 147 3500 
L 697 3500 
L 697 3744 
Q 697 4328 969 4595 
Q 1241 4863 1831 4863 
L 2375 4863 
z
" transform="scale(0.015625)"/>
       <path id="DejaVuSans-2212" d="M 678 2272 
L 4684 2272 
L 4684 1741 
L 678 1741 
L 678 2272 
z
" transform="scale(0.015625)"/>
       <path id="DejaVuSans-Oblique-4e" d="M 1081 4666 
L 1931 4666 
L 3219 666 
L 4000 4666 
L 4616 4666 
L 3706 0 
L 2853 0 
L 1569 4025 
L 788 0 
L 172 0 
L 1081 4666 
z
" transform="scale(0.015625)"/>
       <path id="DejaVuSans-Oblique-69" d="M 1172 4863 
L 1747 4863 
L 1606 4134 
L 1031 4134 
L 1172 4863 
z
M 909 3500 
L 1484 3500 
L 800 0 
L 225 0 
L 909 3500 
z
" transform="scale(0.015625)"/>
      </defs>
      <use xlink:href="#DejaVuSans-7c" transform="translate(0 0.578125)"/>
      <use xlink:href="#DejaVuSans-Oblique-4a" transform="translate(33.691406 0.578125)"/>
      <use xlink:href="#DejaVuSans-72" transform="translate(63.183594 -15.828125)scale(0.7)"/>
      <use xlink:href="#DejaVuSans-65" transform="translate(91.962891 -15.828125)scale(0.7)"/>
      <use xlink:href="#DejaVuSans-66" transform="translate(135.029297 -15.828125)scale(0.7)"/>
      <use xlink:href="#DejaVuSans-2212" transform="translate(181.889648 0.578125)"/>
      <use xlink:href="#DejaVuSans-Oblique-4a" transform="translate(285.161133 0.578125)"/>
      <use xlink:href="#DejaVuSans-Oblique-4e" transform="translate(314.65332 -15.828125)scale(0.7)"/>
      <use xlink:href="#DejaVuSans-Oblique-69" transform="translate(367.016602 -27.3125)scale(0.49)"/>
      <use xlink:href="#DejaVuSans-7c" transform="translate(385.278809 0.578125)"/>
     </g>
    </g>
   </g>
   <g id="PolyCollection_1">
    <defs>
     <path id="m018c525a9c" d="M 71.886004 -45.514264 
L 71.886004 -45.514264 
L 72.183234 -45.514264 
L 72.480463 -45.514264 
L 72.777692 -45.514264 
L 73.074921 -45.514264 
L 73.37215 -45.514264 
L 73.669379 -45.514264 
L 73.966608 -45.514264 
L 74.263837 -45.514264 
L 74.561066 -45.514264 
L 74.858295 -45.514264 
L 75.155525 -45.514264 
L 75.452754 -45.514264 
L 75.749983 -45.514264 
L 76.047212 -45.514264 
L 76.344441 -45.514264 
L 76.64167 -45.514264 
L 76.938899 -45.514264 
L 77.236128 -45.514264 
L 77.533357 -45.514264 
L 77.830586 -45.514264 
L 78.127815 -45.514264 
L 78.425045 -45.514264 
L 78.722274 -45.514264 
L 79.019503 -45.514264 
L 79.316732 -45.514264 
L 79.613961 -45.514264 
L 79.91119 -45.514264 
L 80.208419 -45.514264 
L 80.505648 -45.514264 
L 80.802877 -45.514264 
L 81.100106 -45.514264 
L 81.397336 -45.514264 
L 81.694565 -45.514264 
L 81.991794 -45.514264 
L 82.289023 -45.514264 
L 82.586252 -45.514264 
L 82.883481 -45.514264 
L 83.18071 -45.514264 
L 83.477939 -45.514264 
L 83.775168 -45.514264 
L 84.072397 -45.514264 
L 84.369626 -45.514264 
L 84.666856 -45.514264 
L 84.964085 -45.514264 
L 85.261314 -45.514264 
L 85.558543 -45.514264 
L 85.855772 -45.514264 
L 86.153001 -45.514264 
L 86.45023 -45.514264 
L 86.747459 -45.514264 
L 87.044688 -45.514264 
L 87.341917 -45.514264 
L 87.639147 -45.514264 
L 87.936376 -45.514264 
L 88.233605 -45.514264 
L 88.530834 -45.514264 
L 88.828063 -45.514264 
L 89.125292 -45.514264 
L 89.422521 -45.514264 
L 89.71975 -45.514264 
L 90.016979 -45.514264 
L 90.314208 -45.514264 
L 90.611437 -45.514264 
L 90.908667 -45.514264 
L 91.205896 -45.514264 
L 91.503125 -45.514264 
L 91.800354 -45.514264 
L 92.097583 -45.514264 
L 92.394812 -45.514264 
L 92.692041 -45.514264 
L 92.98927 -45.514264 
L 93.286499 -45.514264 
L 93.583728 -45.514264 
L 93.880958 -45.514264 
L 94.178187 -45.514264 
L 94.475416 -45.514264 
L 94.772645 -45.514264 
L 95.069874 -45.514264 
L 95.367103 -45.514264 
L 95.664332 -45.514264 
L 95.961561 -45.514264 
L 96.25879 -45.514264 
L 96.556019 -45.514264 
L 96.853248 -45.514264 
L 97.150478 -45.514264 
L 97.447707 -45.514264 
L 97.744936 -45.514264 
L 98.042165 -45.514264 
L 98.339394 -45.514264 
L 98.636623 -45.514264 
L 98.933852 -45.514264 
L 99.231081 -45.514264 
L 99.52831 -45.514264 
L 99.825539 -45.514264 
L 100.122769 -45.514264 
L 100.419998 -45.514264 
L 100.717227 -45.514264 
L 101.014456 -45.514264 
L 101.311685 -45.514264 
L 101.608914 -45.514264 
L 101.906143 -45.514264 
L 102.203372 -45.514264 
L 102.500601 -45.514264 
L 102.79783 -45.514264 
L 103.095059 -45.514264 
L 103.392289 -45.514264 
L 103.689518 -45.514264 
L 103.986747 -45.514264 
L 104.283976 -45.514264 
L 104.581205 -45.514264 
L 104.878434 -45.514264 
L 105.175663 -45.514264 
L 105.472892 -45.514264 
L 105.770121 -45.514264 
L 106.06735 -45.514264 
L 106.36458 -45.514264 
L 106.661809 -45.514264 
L 106.959038 -45.514264 
L 107.256267 -45.514264 
L 107.553496 -45.514264 
L 107.850725 -45.514264 
L 108.147954 -45.514264 
L 108.445183 -45.514264 
L 108.742412 -45.514264 
L 109.039641 -45.514264 
L 109.33687 -45.514264 
L 109.6341 -45.514264 
L 109.931329 -45.514264 
L 110.228558 -45.514264 
L 110.525787 -45.514264 
L 110.823016 -45.514264 
L 111.120245 -45.514264 
L 111.417474 -45.514264 
L 111.714703 -45.514264 
L 112.011932 -45.514264 
L 112.309161 -45.514264 
L 112.606391 -45.514264 
L 112.90362 -45.514264 
L 113.200849 -45.514264 
L 113.498078 -45.514264 
L 113.795307 -45.514264 
L 114.092536 -45.514264 
L 114.389765 -45.514264 
L 114.686994 -45.514264 
L 114.984223 -45.514264 
L 115.281452 -45.514264 
L 115.578681 -45.514264 
L 115.875911 -45.514264 
L 116.17314 -45.514264 
L 116.470369 -45.514264 
L 116.767598 -45.514264 
L 117.064827 -45.514264 
L 117.362056 -45.514264 
L 117.659285 -45.514264 
L 117.956514 -45.514264 
L 118.253743 -45.514264 
L 118.550972 -45.514264 
L 118.848202 -45.514264 
L 119.145431 -45.514264 
L 119.44266 -45.514264 
L 119.739889 -45.514264 
L 120.037118 -45.514264 
L 120.334347 -45.514264 
L 120.631576 -45.514264 
L 120.928805 -45.514264 
L 121.226034 -45.514264 
L 121.523263 -45.514264 
L 121.820492 -45.514264 
L 122.117722 -45.514264 
L 122.414951 -45.514264 
L 122.71218 -45.514264 
L 123.009409 -45.514264 
L 123.306638 -45.514264 
L 123.603867 -45.514264 
L 123.901096 -45.514264 
L 124.198325 -45.514264 
L 124.495554 -45.514264 
L 124.792783 -45.514264 
L 125.090013 -45.514264 
L 125.387242 -45.514264 
L 125.684471 -45.514264 
L 125.9817 -45.514264 
L 126.278929 -45.514264 
L 126.576158 -45.514264 
L 126.873387 -45.514264 
L 127.170616 -45.514264 
L 127.467845 -45.514264 
L 127.765074 -45.514264 
L 128.062303 -45.514264 
L 128.359533 -45.514264 
L 128.656762 -45.514264 
L 128.953991 -45.514264 
L 129.25122 -45.514264 
L 129.548449 -45.514264 
L 129.845678 -45.514264 
L 130.142907 -45.514264 
L 130.440136 -45.514264 
L 130.737365 -45.514264 
L 131.034594 -45.514264 
L 131.331824 -45.514264 
L 131.629053 -45.514264 
L 131.926282 -45.514264 
L 132.223511 -45.514264 
L 132.52074 -45.514264 
L 132.817969 -45.514264 
L 133.115198 -45.514264 
L 133.412427 -45.514264 
L 133.709656 -45.514264 
L 134.006885 -45.514264 
L 134.304114 -45.514264 
L 134.601344 -45.514264 
L 134.898573 -45.514264 
L 135.195802 -45.514264 
L 135.493031 -45.514264 
L 135.79026 -45.514264 
L 136.087489 -45.514264 
L 136.384718 -45.514264 
L 136.681947 -45.514264 
L 136.979176 -45.514264 
L 137.276405 -45.514264 
L 137.573635 -45.514264 
L 137.870864 -45.514264 
L 138.168093 -45.514264 
L 138.465322 -45.514264 
L 138.762551 -45.514264 
L 139.05978 -45.514264 
L 139.357009 -45.514264 
L 139.654238 -45.514264 
L 139.951467 -45.514264 
L 140.248696 -45.514264 
L 140.545925 -45.514264 
L 140.843155 -45.514264 
L 141.140384 -45.514264 
L 141.437613 -45.514264 
L 141.734842 -45.514264 
L 142.032071 -45.514264 
L 142.3293 -45.514264 
L 142.626529 -45.514264 
L 142.923758 -45.514264 
L 143.220987 -45.514264 
L 143.518216 -45.514264 
L 143.815446 -45.514264 
L 144.112675 -45.514264 
L 144.409904 -45.514264 
L 144.707133 -45.514264 
L 145.004362 -45.514264 
L 145.301591 -45.514264 
L 145.59882 -45.514264 
L 145.896049 -45.514264 
L 146.193278 -45.514264 
L 146.490507 -45.514264 
L 146.787736 -45.514264 
L 147.084966 -45.514264 
L 147.382195 -45.514264 
L 147.679424 -45.514264 
L 147.976653 -45.514264 
L 148.273882 -45.514264 
L 148.571111 -45.514264 
L 148.86834 -45.514264 
L 149.165569 -45.514264 
L 149.462798 -45.514264 
L 149.760027 -45.514264 
L 150.057257 -45.514264 
L 150.354486 -45.514264 
L 150.651715 -45.514264 
L 150.948944 -45.514264 
L 151.246173 -45.514264 
L 151.543402 -45.514264 
L 151.840631 -45.514264 
L 152.13786 -45.514264 
L 152.435089 -45.514264 
L 152.732318 -45.514264 
L 153.029547 -45.514264 
L 153.326777 -45.514264 
L 153.624006 -45.514264 
L 153.921235 -45.514264 
L 154.218464 -45.514264 
L 154.515693 -45.514264 
L 154.812922 -45.514264 
L 155.110151 -45.514264 
L 155.40738 -45.514264 
L 155.704609 -45.514264 
L 156.001838 -45.514264 
L 156.299068 -45.514264 
L 156.596297 -45.514264 
L 156.893526 -45.514264 
L 157.190755 -45.514264 
L 157.487984 -45.514264 
L 157.785213 -45.514264 
L 158.082442 -45.514264 
L 158.379671 -45.514264 
L 158.6769 -45.514264 
L 158.974129 -45.514264 
L 159.271358 -45.514264 
L 159.568588 -45.514264 
L 159.865817 -45.514264 
L 160.163046 -45.514264 
L 160.460275 -45.514264 
L 160.757504 -45.514264 
L 161.054733 -45.514264 
L 161.351962 -45.514264 
L 161.649191 -45.514264 
L 161.94642 -45.514264 
L 162.243649 -45.514264 
L 162.540879 -45.514264 
L 162.838108 -45.514264 
L 163.135337 -45.514264 
L 163.432566 -45.514264 
L 163.729795 -45.514264 
L 164.027024 -45.514264 
L 164.324253 -45.514264 
L 164.621482 -45.514264 
L 164.918711 -45.514264 
L 165.21594 -45.514264 
L 165.513169 -45.514264 
L 165.810399 -45.514264 
L 166.107628 -45.514264 
L 166.404857 -45.514264 
L 166.702086 -45.514264 
L 166.999315 -45.514264 
L 167.296544 -45.514264 
L 167.593773 -45.514264 
L 167.891002 -45.514264 
L 168.188231 -45.514264 
L 168.48546 -45.514264 
L 168.78269 -45.514264 
L 169.079919 -45.514264 
L 169.377148 -45.514264 
L 169.674377 -45.514264 
L 169.971606 -45.514264 
L 170.268835 -45.514264 
L 170.566064 -45.514264 
L 170.863293 -45.514264 
L 171.160522 -45.514264 
L 171.457751 -45.514264 
L 171.75498 -45.514264 
L 172.05221 -45.514264 
L 172.349439 -45.514264 
L 172.646668 -45.514264 
L 172.943897 -45.514264 
L 173.241126 -45.514264 
L 173.538355 -45.514264 
L 173.835584 -45.514264 
L 174.132813 -45.514264 
L 174.430042 -45.514264 
L 174.727271 -45.514264 
L 175.024501 -45.514264 
L 175.32173 -45.514264 
L 175.618959 -45.514264 
L 175.916188 -45.514264 
L 176.213417 -45.514264 
L 176.510646 -45.514264 
L 176.807875 -45.514264 
L 177.105104 -45.514264 
L 177.402333 -45.514264 
L 177.699562 -45.514264 
L 177.996791 -45.514264 
L 178.294021 -45.514264 
L 178.59125 -45.514264 
L 178.888479 -45.514264 
L 179.185708 -45.514264 
L 179.482937 -45.514264 
L 179.780166 -45.514264 
L 180.077395 -45.514264 
L 180.374624 -45.514264 
L 180.671853 -45.514264 
L 180.969082 -45.514264 
L 181.266312 -45.514264 
L 181.563541 -45.514264 
L 181.86077 -45.514264 
L 182.157999 -45.514264 
L 182.455228 -45.514264 
L 182.752457 -45.514264 
L 183.049686 -45.514264 
L 183.346915 -45.514264 
L 183.644144 -45.514264 
L 183.941373 -45.514264 
L 184.238602 -45.514264 
L 184.535832 -45.514264 
L 184.833061 -45.514264 
L 185.13029 -45.514264 
L 185.427519 -45.514264 
L 185.724748 -45.514264 
L 186.021977 -45.514264 
L 186.319206 -45.514264 
L 186.616435 -45.514264 
L 186.913664 -45.514264 
L 187.210893 -45.514264 
L 187.508123 -45.514264 
L 187.805352 -45.514264 
L 188.102581 -45.514264 
L 188.39981 -45.514264 
L 188.697039 -45.514264 
L 188.994268 -45.514264 
L 189.291497 -45.514264 
L 189.588726 -45.514264 
L 189.885955 -45.514264 
L 190.183184 -45.514264 
L 190.480413 -45.514264 
L 190.777643 -45.514264 
L 191.074872 -45.514264 
L 191.372101 -45.514264 
L 191.66933 -45.514264 
L 191.966559 -45.514264 
L 192.263788 -45.514264 
L 192.561017 -45.514264 
L 192.858246 -45.514264 
L 193.155475 -45.514264 
L 193.452704 -45.514264 
L 193.749934 -45.514264 
L 194.047163 -45.514264 
L 194.344392 -45.514264 
L 194.641621 -45.514264 
L 194.93885 -45.514264 
L 195.236079 -45.514264 
L 195.533308 -45.514264 
L 195.830537 -45.514264 
L 196.127766 -45.514264 
L 196.424995 -45.514264 
L 196.722224 -45.514264 
L 197.019454 -45.514264 
L 197.316683 -45.514264 
L 197.613912 -45.514264 
L 197.911141 -45.514264 
L 198.20837 -45.514264 
L 198.505599 -45.514264 
L 198.802828 -45.514264 
L 199.100057 -45.514264 
L 199.397286 -45.514264 
L 199.694515 -45.514264 
L 199.991745 -45.514264 
L 200.288974 -45.514264 
L 200.586203 -45.514264 
L 200.883432 -45.514264 
L 201.180661 -45.514264 
L 201.47789 -45.514264 
L 201.775119 -45.514264 
L 202.072348 -45.514264 
L 202.369577 -45.514264 
L 202.666806 -45.514264 
L 202.964035 -45.514264 
L 203.261265 -45.514264 
L 203.558494 -45.514264 
L 203.855723 -45.514264 
L 204.152952 -45.514264 
L 204.450181 -45.514264 
L 204.74741 -45.514264 
L 205.044639 -45.514264 
L 205.341868 -45.514264 
L 205.639097 -45.514264 
L 205.936326 -45.514264 
L 206.233556 -45.514264 
L 206.530785 -45.514264 
L 206.828014 -45.514264 
L 207.125243 -45.514264 
L 207.422472 -45.514264 
L 207.719701 -45.514264 
L 208.01693 -45.514264 
L 208.314159 -45.514264 
L 208.611388 -45.514264 
L 208.908617 -45.514264 
L 209.205846 -45.514264 
L 209.503076 -45.514264 
L 209.800305 -45.514264 
L 210.097534 -45.514264 
L 210.394763 -45.514264 
L 210.691992 -45.514264 
L 210.989221 -45.514264 
L 211.28645 -45.514264 
L 211.583679 -45.514264 
L 211.880908 -45.514264 
L 212.178137 -45.514264 
L 212.475367 -45.514264 
L 212.772596 -45.514264 
L 213.069825 -45.514264 
L 213.367054 -45.514264 
L 213.664283 -45.514264 
L 213.961512 -45.514264 
L 214.258741 -45.514264 
L 214.55597 -45.514264 
L 214.853199 -45.514264 
L 215.150428 -45.514264 
L 215.447657 -45.514264 
L 215.744887 -45.514264 
L 216.042116 -45.514264 
L 216.339345 -45.514264 
L 216.636574 -45.514264 
L 216.933803 -45.514264 
L 217.231032 -45.514264 
L 217.528261 -45.514264 
L 217.82549 -45.514264 
L 218.122719 -45.514264 
L 218.419948 -45.514264 
L 218.717178 -45.514264 
L 219.014407 -45.514264 
L 219.311636 -45.514264 
L 219.608865 -45.514264 
L 219.906094 -45.514264 
L 219.906094 -78.234596 
L 219.906094 -78.234596 
L 219.608865 -77.828631 
L 219.311636 -77.480664 
L 219.014407 -77.212174 
L 218.717178 -77.057149 
L 218.419948 -77.060009 
L 218.122719 -77.183992 
L 217.82549 -77.357018 
L 217.528261 -77.524116 
L 217.231032 -77.650189 
L 216.933803 -77.773341 
L 216.636574 -77.946633 
L 216.339345 -78.132729 
L 216.042116 -78.266551 
L 215.744887 -78.320461 
L 215.447657 -78.273102 
L 215.150428 -78.113265 
L 214.853199 -77.870349 
L 214.55597 -77.626808 
L 214.258741 -77.464915 
L 213.961512 -77.416019 
L 213.664283 -77.469538 
L 213.367054 -77.598837 
L 213.069825 -77.747427 
L 212.772596 -77.852758 
L 212.475367 -77.892514 
L 212.178137 -77.902179 
L 211.880908 -77.935465 
L 211.583679 -78.029081 
L 211.28645 -78.183701 
L 210.989221 -78.342421 
L 210.691992 -78.441825 
L 210.394763 -78.468805 
L 210.097534 -78.477445 
L 209.800305 -78.540342 
L 209.503076 -78.652811 
L 209.205846 -78.765059 
L 208.908617 -78.831735 
L 208.611388 -78.81228 
L 208.314159 -78.693279 
L 208.01693 -78.506931 
L 207.719701 -78.301122 
L 207.422472 -78.112947 
L 207.125243 -77.995833 
L 206.828014 -77.981288 
L 206.530785 -78.080985 
L 206.233556 -78.294033 
L 205.936326 -78.552501 
L 205.639097 -78.746831 
L 205.341868 -78.81703 
L 205.044639 -78.722985 
L 204.74741 -78.454968 
L 204.450181 -78.111142 
L 204.152952 -77.805938 
L 203.855723 -77.562307 
L 203.558494 -77.381944 
L 203.261265 -77.286946 
L 202.964035 -77.280372 
L 202.666806 -77.329198 
L 202.369577 -77.387299 
L 202.072348 -77.442161 
L 201.775119 -77.508351 
L 201.47789 -77.600951 
L 201.180661 -77.734294 
L 200.883432 -77.919549 
L 200.586203 -78.157211 
L 200.288974 -78.46477 
L 199.991745 -78.830643 
L 199.694515 -79.207807 
L 199.397286 -79.568317 
L 199.100057 -79.891967 
L 198.802828 -80.115846 
L 198.505599 -80.182719 
L 198.20837 -80.082314 
L 197.911141 -79.83113 
L 197.613912 -79.498316 
L 197.316683 -79.170794 
L 197.019454 -78.887052 
L 196.722224 -78.631681 
L 196.424995 -78.378974 
L 196.127766 -78.120235 
L 195.830537 -77.859365 
L 195.533308 -77.608782 
L 195.236079 -77.390016 
L 194.93885 -77.234551 
L 194.641621 -77.185156 
L 194.344392 -77.25624 
L 194.047163 -77.426416 
L 193.749934 -77.678478 
L 193.452704 -77.961466 
L 193.155475 -78.192489 
L 192.858246 -78.32517 
L 192.561017 -78.356353 
L 192.263788 -78.331637 
L 191.966559 -78.316332 
L 191.66933 -78.366944 
L 191.372101 -78.496287 
L 191.074872 -78.634442 
L 190.777643 -78.711646 
L 190.480413 -78.720453 
L 190.183184 -78.687074 
L 189.885955 -78.620036 
L 189.588726 -78.512582 
L 189.291497 -78.336306 
L 188.994268 -78.063705 
L 188.697039 -77.71296 
L 188.39981 -77.342675 
L 188.102581 -77.006364 
L 187.805352 -76.71537 
L 187.508123 -76.481778 
L 187.210893 -76.359382 
L 186.913664 -76.415805 
L 186.616435 -76.67861 
L 186.319206 -77.095524 
L 186.021977 -77.545464 
L 185.724748 -77.915031 
L 185.427519 -78.16613 
L 185.13029 -78.287196 
L 184.833061 -78.260158 
L 184.535832 -78.101397 
L 184.238602 -77.84635 
L 183.941373 -77.545395 
L 183.644144 -77.28659 
L 183.346915 -77.148349 
L 183.049686 -77.155962 
L 182.752457 -77.287706 
L 182.455228 -77.464978 
L 182.157999 -77.598473 
L 181.86077 -77.651599 
L 181.563541 -77.657499 
L 181.266312 -77.665891 
L 180.969082 -77.699917 
L 180.671853 -77.776345 
L 180.374624 -77.906714 
L 180.077395 -78.040713 
L 179.780166 -78.073795 
L 179.482937 -77.958341 
L 179.185708 -77.740169 
L 178.888479 -77.517078 
L 178.59125 -77.381368 
L 178.294021 -77.339692 
L 177.996791 -77.353517 
L 177.699562 -77.417621 
L 177.402333 -77.529905 
L 177.105104 -77.660408 
L 176.807875 -77.811661 
L 176.510646 -78.00462 
L 176.213417 -78.197847 
L 175.916188 -78.286578 
L 175.618959 -78.184927 
L 175.32173 -77.908093 
L 175.024501 -77.522458 
L 174.727271 -77.101567 
L 174.430042 -76.735993 
L 174.132813 -76.517655 
L 173.835584 -76.516341 
L 173.538355 -76.757736 
L 173.241126 -77.15805 
L 172.943897 -77.551957 
L 172.646668 -77.829736 
L 172.349439 -77.984945 
L 172.05221 -78.024101 
L 171.75498 -77.951505 
L 171.457751 -77.819437 
L 171.160522 -77.698031 
L 170.863293 -77.615617 
L 170.566064 -77.584261 
L 170.268835 -77.612792 
L 169.971606 -77.716907 
L 169.674377 -77.897047 
L 169.377148 -78.118512 
L 169.079919 -78.322905 
L 168.78269 -78.441466 
L 168.48546 -78.430043 
L 168.188231 -78.32042 
L 167.891002 -78.189113 
L 167.593773 -78.112422 
L 167.296544 -78.13173 
L 166.999315 -78.211365 
L 166.702086 -78.286132 
L 166.404857 -78.341618 
L 166.107628 -78.406247 
L 165.810399 -78.465244 
L 165.513169 -78.478831 
L 165.21594 -78.425784 
L 164.918711 -78.291488 
L 164.621482 -78.049063 
L 164.324253 -77.719985 
L 164.027024 -77.388534 
L 163.729795 -77.129316 
L 163.432566 -76.965468 
L 163.135337 -76.889162 
L 162.838108 -76.889317 
L 162.540879 -76.941593 
L 162.243649 -77.012068 
L 161.94642 -77.078744 
L 161.649191 -77.138666 
L 161.351962 -77.212791 
L 161.054733 -77.357525 
L 160.757504 -77.60563 
L 160.460275 -77.905474 
L 160.163046 -78.14048 
L 159.865817 -78.219658 
L 159.568588 -78.140648 
L 159.271358 -77.967876 
L 158.974129 -77.753342 
L 158.6769 -77.535363 
L 158.379671 -77.375631 
L 158.082442 -77.290135 
L 157.785213 -77.204801 
L 157.487984 -77.03402 
L 157.190755 -76.764386 
L 156.893526 -76.412 
L 156.596297 -76.012797 
L 156.299068 -75.663607 
L 156.001838 -75.495916 
L 155.704609 -75.537331 
L 155.40738 -75.699215 
L 155.110151 -75.899609 
L 154.812922 -76.139096 
L 154.515693 -76.459993 
L 154.218464 -76.877568 
L 153.921235 -77.346038 
L 153.624006 -77.752801 
L 153.326777 -77.976805 
L 153.029547 -77.97532 
L 152.732318 -77.824219 
L 152.435089 -77.64693 
L 152.13786 -77.515705 
L 151.840631 -77.421562 
L 151.543402 -77.333579 
L 151.246173 -77.223242 
L 150.948944 -77.053784 
L 150.651715 -76.800573 
L 150.354486 -76.508573 
L 150.057257 -76.249613 
L 149.760027 -76.075794 
L 149.462798 -76.021 
L 149.165569 -76.06366 
L 148.86834 -76.150969 
L 148.571111 -76.260885 
L 148.273882 -76.376573 
L 147.976653 -76.461839 
L 147.679424 -76.49346 
L 147.382195 -76.454069 
L 147.084966 -76.318126 
L 146.787736 -76.085102 
L 146.490507 -75.839599 
L 146.193278 -75.674955 
L 145.896049 -75.598254 
L 145.59882 -75.591682 
L 145.301591 -75.668903 
L 145.004362 -75.840141 
L 144.707133 -76.062321 
L 144.409904 -76.224533 
L 144.112675 -76.239035 
L 143.815446 -76.049394 
L 143.518216 -75.641275 
L 143.220987 -75.118338 
L 142.923758 -74.657271 
L 142.626529 -74.389443 
L 142.3293 -74.366757 
L 142.032071 -74.573323 
L 141.734842 -74.937015 
L 141.437613 -75.371541 
L 141.140384 -75.794259 
L 140.843155 -76.161149 
L 140.545925 -76.471468 
L 140.248696 -76.730913 
L 139.951467 -76.908866 
L 139.654238 -76.966768 
L 139.357009 -76.88902 
L 139.05978 -76.69348 
L 138.762551 -76.443221 
L 138.465322 -76.188483 
L 138.168093 -75.928821 
L 137.870864 -75.666087 
L 137.573635 -75.467456 
L 137.276405 -75.399234 
L 136.979176 -75.467382 
L 136.681947 -75.610914 
L 136.384718 -75.725521 
L 136.087489 -75.765273 
L 135.79026 -75.762582 
L 135.493031 -75.745392 
L 135.195802 -75.673024 
L 134.898573 -75.511086 
L 134.601344 -75.259624 
L 134.304114 -74.962131 
L 134.006885 -74.725848 
L 133.709656 -74.671411 
L 133.412427 -74.847174 
L 133.115198 -75.179723 
L 132.817969 -75.542103 
L 132.52074 -75.825885 
L 132.223511 -75.954517 
L 131.926282 -75.915332 
L 131.629053 -75.762868 
L 131.331824 -75.568319 
L 131.034594 -75.379858 
L 130.737365 -75.206973 
L 130.440136 -75.026182 
L 130.142907 -74.83782 
L 129.845678 -74.69248 
L 129.548449 -74.64911 
L 129.25122 -74.705598 
L 128.953991 -74.798682 
L 128.656762 -74.876468 
L 128.359533 -74.946179 
L 128.062303 -75.049368 
L 127.765074 -75.213765 
L 127.467845 -75.470319 
L 127.170616 -75.823657 
L 126.873387 -76.207724 
L 126.576158 -76.509133 
L 126.278929 -76.622462 
L 125.9817 -76.538111 
L 125.684471 -76.366344 
L 125.387242 -76.199756 
L 125.090013 -76.045733 
L 124.792783 -75.856985 
L 124.495554 -75.601621 
L 124.198325 -75.257077 
L 123.901096 -74.832669 
L 123.603867 -74.396852 
L 123.306638 -74.019183 
L 123.009409 -73.769175 
L 122.71218 -73.671497 
L 122.414951 -73.718017 
L 122.117722 -73.928914 
L 121.820492 -74.293529 
L 121.523263 -74.747018 
L 121.226034 -75.194712 
L 120.928805 -75.564343 
L 120.631576 -75.799971 
L 120.334347 -75.83161 
L 120.037118 -75.64235 
L 119.739889 -75.305915 
L 119.44266 -74.941278 
L 119.145431 -74.650737 
L 118.848202 -74.476615 
L 118.550972 -74.412106 
L 118.253743 -74.426304 
L 117.956514 -74.501476 
L 117.659285 -74.595674 
L 117.362056 -74.620215 
L 117.064827 -74.51242 
L 116.767598 -74.282645 
L 116.470369 -73.990934 
L 116.17314 -73.716556 
L 115.875911 -73.474587 
L 115.578681 -73.238969 
L 115.281452 -73.031222 
L 114.984223 -72.875088 
L 114.686994 -72.779394 
L 114.389765 -72.775712 
L 114.092536 -72.886469 
L 113.795307 -73.106816 
L 113.498078 -73.386113 
L 113.200849 -73.626402 
L 112.90362 -73.757616 
L 112.606391 -73.799162 
L 112.309161 -73.803086 
L 112.011932 -73.819126 
L 111.714703 -73.865289 
L 111.417474 -73.947774 
L 111.120245 -74.061662 
L 110.823016 -74.125201 
L 110.525787 -74.023464 
L 110.228558 -73.732424 
L 109.931329 -73.331909 
L 109.6341 -72.93393 
L 109.33687 -72.631565 
L 109.039641 -72.460308 
L 108.742412 -72.37979 
L 108.445183 -72.338936 
L 108.147954 -72.322937 
L 107.850725 -72.322806 
L 107.553496 -72.297563 
L 107.256267 -72.231927 
L 106.959038 -72.155869 
L 106.661809 -72.085351 
L 106.36458 -71.988425 
L 106.06735 -71.837674 
L 105.770121 -71.647744 
L 105.472892 -71.443415 
L 105.175663 -71.246948 
L 104.878434 -71.105451 
L 104.581205 -71.053615 
L 104.283976 -71.074311 
L 103.986747 -71.117141 
L 103.689518 -71.158735 
L 103.392289 -71.203215 
L 103.095059 -71.233653 
L 102.79783 -71.213791 
L 102.500601 -71.147753 
L 102.203372 -71.102409 
L 101.906143 -71.129733 
L 101.608914 -71.18966 
L 101.311685 -71.181627 
L 101.014456 -71.05023 
L 100.717227 -70.798583 
L 100.419998 -70.460307 
L 100.122769 -70.102964 
L 99.825539 -69.790283 
L 99.52831 -69.551575 
L 99.231081 -69.404675 
L 98.933852 -69.357545 
L 98.636623 -69.370452 
L 98.339394 -69.400091 
L 98.042165 -69.448267 
L 97.744936 -69.499412 
L 97.447707 -69.53147 
L 97.150478 -69.58943 
L 96.853248 -69.685474 
L 96.556019 -69.763823 
L 96.25879 -69.832736 
L 95.961561 -69.93285 
L 95.664332 -70.070964 
L 95.367103 -70.205909 
L 95.069874 -70.291174 
L 94.772645 -70.337603 
L 94.475416 -70.346784 
L 94.178187 -70.321003 
L 93.880958 -70.303064 
L 93.583728 -70.302076 
L 93.286499 -70.270746 
L 92.98927 -70.184684 
L 92.692041 -70.084049 
L 92.394812 -70.064944 
L 92.097583 -70.175703 
L 91.800354 -70.359459 
L 91.503125 -70.556345 
L 91.205896 -70.737809 
L 90.908667 -70.836003 
L 90.611437 -70.783523 
L 90.314208 -70.585965 
L 90.016979 -70.306919 
L 89.71975 -70.035533 
L 89.422521 -69.857199 
L 89.125292 -69.804049 
L 88.828063 -69.848128 
L 88.530834 -69.911142 
L 88.233605 -69.908666 
L 87.936376 -69.81121 
L 87.639147 -69.637959 
L 87.341917 -69.430391 
L 87.044688 -69.21928 
L 86.747459 -69.01835 
L 86.45023 -68.846771 
L 86.153001 -68.725695 
L 85.855772 -68.661652 
L 85.558543 -68.649489 
L 85.261314 -68.685592 
L 84.964085 -68.752703 
L 84.666856 -68.821471 
L 84.369626 -68.851324 
L 84.072397 -68.832395 
L 83.775168 -68.802825 
L 83.477939 -68.810745 
L 83.18071 -68.868806 
L 82.883481 -68.95227 
L 82.586252 -69.043754 
L 82.289023 -69.167899 
L 81.991794 -69.329103 
L 81.694565 -69.502111 
L 81.397336 -69.675645 
L 81.100106 -69.847139 
L 80.802877 -70.02372 
L 80.505648 -70.229319 
L 80.208419 -70.459852 
L 79.91119 -70.66036 
L 79.613961 -70.800257 
L 79.316732 -70.837092 
L 79.019503 -70.675045 
L 78.722274 -70.262916 
L 78.425045 -69.62184 
L 78.127815 -68.776409 
L 77.830586 -67.792927 
L 77.533357 -66.747566 
L 77.236128 -65.673288 
L 76.938899 -64.599716 
L 76.64167 -63.576241 
L 76.344441 -62.627601 
L 76.047212 -61.726497 
L 75.749983 -60.83702 
L 75.452754 -59.928264 
L 75.155525 -59.01488 
L 74.858295 -58.140927 
L 74.561066 -57.323083 
L 74.263837 -56.595064 
L 73.966608 -55.955063 
L 73.669379 -55.314496 
L 73.37215 -54.543492 
L 73.074921 -53.501436 
L 72.777692 -52.084888 
L 72.480463 -50.243137 
L 72.183234 -47.997866 
L 71.886004 -45.514264 
z
" style="stroke: #ffff00; stroke-width: 0.5"/>
    </defs>
    <g clip-path="url(#p5a891a12f0)">
     <use xlink:href="#m018c525a9c" x="0" y="190.485679" style="fill: #ffff00; stroke: #ffff00; stroke-width: 0.5"/>
    </g>
   </g>
   <g id="line2d_23">
    <path d="M 71.886004 144.971415 
L 72.183234 124.040048 
L 72.480463 140.06078 
L 72.777692 140.386813 
L 73.669379 132.638752 
L 73.966608 131.151284 
L 74.561066 132.351584 
L 75.155525 128.754275 
L 75.452754 128.12105 
L 75.749983 128.840216 
L 76.047212 130.579046 
L 76.344441 133.439728 
L 76.938899 142.459751 
L 77.236128 142.790089 
L 77.533357 139.855892 
L 77.830586 138.975189 
L 78.127815 140.114971 
L 78.425045 143.456652 
L 78.722274 142.6024 
L 79.019503 139.983547 
L 79.316732 139.116761 
L 79.613961 140.539537 
L 79.91119 144.78428 
L 80.505648 127.907451 
L 81.397336 101.790566 
L 81.694565 96.786869 
L 81.991794 95.652322 
L 82.289023 98.100534 
L 82.883481 106.233967 
L 83.18071 108.721488 
L 83.477939 108.748685 
L 83.775168 105.86088 
L 84.369626 95.888108 
L 84.666856 93.063257 
L 84.964085 94.592619 
L 85.261314 102.558939 
L 85.855772 136.950795 
L 86.153001 131.245906 
L 86.747459 95.400546 
L 87.044688 86.241358 
L 87.341917 84.486047 
L 87.639147 89.424076 
L 88.233605 109.783163 
L 89.125292 142.240755 
L 89.422521 138.654969 
L 90.314208 115.527397 
L 91.205896 83.553984 
L 91.503125 77.178446 
L 91.800354 73.592036 
L 92.394812 71.06419 
L 92.98927 63.371382 
L 93.286499 62.191008 
L 93.583728 64.544413 
L 93.880958 71.427358 
L 94.178187 84.436417 
L 95.069874 137.341628 
L 95.367103 142.275794 
L 95.664332 138.495979 
L 95.961561 140.374281 
L 96.25879 144.495889 
L 96.853248 138.660864 
L 97.150478 138.114466 
L 97.744936 141.105881 
L 98.042165 142.943143 
L 98.339394 142.919911 
L 98.636623 134.287855 
L 99.825539 87.729812 
L 100.419998 68.356184 
L 100.717227 62.591888 
L 101.014456 60.452335 
L 101.311685 61.845087 
L 101.906143 71.8687 
L 103.095059 96.816551 
L 103.392289 99.207966 
L 103.689518 99.108879 
L 103.986747 99.254643 
L 104.283976 102.601788 
L 104.581205 110.689248 
L 104.878434 124.922476 
L 105.175663 144.534075 
L 106.36458 53.485299 
L 106.661809 42.022837 
L 106.959038 40.076053 
L 107.256267 48.751793 
L 107.850725 87.391216 
L 108.445183 129.282032 
L 108.742412 142.894376 
L 109.6341 102.611603 
L 109.931329 91.629106 
L 110.228558 85.734941 
L 110.525787 84.46365 
L 110.823016 85.873046 
L 111.120245 89.36136 
L 111.417474 95.588315 
L 112.90362 141.746114 
L 113.200849 140.608419 
L 113.498078 135.680598 
L 113.795307 133.573558 
L 114.389765 131.761392 
L 114.686994 131.291152 
L 114.984223 133.028147 
L 115.578681 142.794663 
L 116.17314 143.966054 
L 116.470369 140.132823 
L 118.253743 86.065261 
L 118.550972 87.988093 
L 119.145431 108.140447 
L 120.037118 142.619672 
L 120.334347 139.461339 
L 120.928805 130.92929 
L 121.820492 117.852283 
L 123.009409 99.202444 
L 123.306638 97.847523 
L 123.603867 98.95373 
L 123.901096 101.906698 
L 125.090013 118.645465 
L 125.387242 117.0543 
L 125.684471 111.887105 
L 126.576158 91.043517 
L 126.873387 91.785026 
L 127.170616 99.943174 
L 127.765074 136.168512 
L 128.062303 130.559762 
L 128.656762 97.681683 
L 128.953991 93.941308 
L 129.25122 98.599802 
L 129.845678 124.897539 
L 130.142907 141.027508 
L 130.440136 134.610954 
L 130.737365 123.826848 
L 131.034594 118.608877 
L 131.331824 120.125052 
L 132.52074 141.009169 
L 132.817969 141.357641 
L 133.115198 138.527765 
L 133.709656 127.771981 
L 134.006885 124.55484 
L 134.304114 122.992618 
L 134.601344 123.004483 
L 134.898573 125.045089 
L 135.195802 128.701351 
L 135.79026 140.78665 
L 136.087489 142.883433 
L 137.276405 120.188396 
L 137.573635 117.028428 
L 137.870864 116.488609 
L 138.168093 119.428362 
L 138.762551 130.507137 
L 139.05978 132.033791 
L 139.357009 126.952778 
L 139.951467 101.806241 
L 140.248696 89.084685 
L 140.545925 81.304439 
L 140.843155 78.810019 
L 141.140384 81.127735 
L 141.734842 96.85341 
L 143.220987 141.691074 
L 143.815446 113.6815 
L 144.112675 104.305575 
L 144.409904 99.002676 
L 144.707133 97.216612 
L 145.004362 99.102046 
L 145.896049 111.358811 
L 146.193278 113.715182 
L 147.084966 117.59255 
L 147.382195 119.234159 
L 147.976653 123.991726 
L 148.273882 124.635472 
L 148.571111 122.728599 
L 149.165569 113.00669 
L 149.462798 107.345043 
L 149.760027 104.99403 
L 150.057257 109.477028 
L 150.354486 120.653231 
L 150.651715 136.112847 
L 150.948944 136.102141 
L 151.840631 87.382148 
L 152.435089 68.957193 
L 152.732318 66.206144 
L 153.029547 70.187069 
L 153.326777 81.515269 
L 153.921235 119.805642 
L 154.218464 141.62502 
L 155.40738 84.254386 
L 155.704609 80.007824 
L 156.001838 80.252669 
L 156.299068 84.525487 
L 156.596297 93.248313 
L 157.190755 123.5347 
L 157.487984 142.239962 
L 158.379671 107.307202 
L 158.6769 105.091126 
L 158.974129 105.846583 
L 159.271358 105.309497 
L 159.568588 102.216255 
L 160.163046 93.757898 
L 160.460275 92.090062 
L 160.757504 94.953072 
L 161.054733 103.700595 
L 161.94642 142.009488 
L 162.243649 140.682062 
L 162.838108 131.215751 
L 163.135337 130.346853 
L 163.729795 135.720838 
L 164.027024 135.98568 
L 164.621482 133.289289 
L 164.918711 133.848924 
L 165.21594 136.268411 
L 165.513169 141.057511 
L 165.810399 140.527481 
L 166.404857 113.350404 
L 166.999315 87.195243 
L 167.296544 81.360302 
L 167.593773 83.169156 
L 167.891002 92.564008 
L 168.78269 143.254187 
L 169.674377 109.55005 
L 169.971606 107.29608 
L 170.268835 110.240715 
L 170.863293 118.336602 
L 171.457751 124.021212 
L 172.05221 131.960928 
L 172.646668 142.092086 
L 173.538355 102.438386 
L 173.835584 99.425186 
L 174.132813 106.397618 
L 174.727271 143.284117 
L 175.618959 89.734363 
L 176.213417 73.507989 
L 177.996791 39.501585 
L 178.294021 38.31188 
L 178.59125 41.748683 
L 178.888479 49.764085 
L 179.482937 79.318761 
L 180.374624 139.730519 
L 180.671853 133.547308 
L 181.266312 109.504622 
L 182.157999 80.244685 
L 182.455228 77.759015 
L 182.752457 84.00249 
L 183.346915 117.739115 
L 183.644144 137.718065 
L 183.941373 134.431234 
L 184.535832 109.700165 
L 184.833061 105.127294 
L 185.13029 105.725751 
L 185.724748 116.088088 
L 186.913664 140.26502 
L 187.210893 143.406038 
L 187.508123 143.50317 
L 187.805352 139.107078 
L 188.39981 123.255663 
L 188.697039 118.62177 
L 188.994268 117.994256 
L 189.291497 120.572189 
L 189.588726 126.706121 
L 190.183184 143.999024 
L 190.777643 136.757734 
L 191.372101 131.621189 
L 191.66933 128.157324 
L 191.966559 127.071345 
L 192.263788 130.066999 
L 192.858246 144.552764 
L 193.452704 133.400212 
L 193.749934 132.354273 
L 194.047163 135.450957 
L 194.344392 142.179952 
L 194.641621 138.66106 
L 195.236079 120.068296 
L 195.533308 115.087644 
L 195.830537 114.286605 
L 196.127766 115.937374 
L 196.722224 123.051233 
L 197.316683 132.228433 
L 197.911141 144.28773 
L 198.20837 140.783467 
L 198.505599 139.460915 
L 198.802828 138.717053 
L 199.100057 135.612246 
L 199.397286 127.971465 
L 200.586203 83.958335 
L 200.883432 85.525104 
L 201.47789 102.960763 
L 202.964035 144.513546 
L 204.450181 96.596225 
L 205.044639 83.109565 
L 205.639097 69.369817 
L 206.233556 54.72215 
L 206.828014 48.108306 
L 207.125243 44.475503 
L 207.719701 33.566087 
L 208.01693 30.686139 
L 208.314159 33.228966 
L 208.611388 42.264391 
L 209.205846 78.031166 
L 210.097534 141.490933 
L 210.691992 111.645768 
L 211.28645 85.230859 
L 211.583679 78.846176 
L 211.880908 78.57396 
L 212.178137 83.693055 
L 212.772596 107.697929 
L 213.367054 137.540312 
L 213.664283 141.112187 
L 213.961512 135.56458 
L 214.258741 135.109629 
L 214.55597 138.446439 
L 214.853199 143.386134 
L 215.150428 144.470652 
L 215.447657 141.757057 
L 216.339345 116.382799 
L 216.636574 113.768734 
L 216.933803 115.545585 
L 217.231032 119.399927 
L 217.82549 132.420588 
L 218.122719 140.63349 
L 218.419948 140.137063 
L 219.014407 122.372152 
L 219.311636 116.701418 
L 219.906094 110.42459 
L 219.906094 110.42459 
" clip-path="url(#p5a891a12f0)" style="fill: none; stroke-dasharray: 1,1.65; stroke-dashoffset: 0; stroke: #e24a33; stroke-opacity: 0.523046"/>
   </g>
   <g id="line2d_24">
    <path d="M 71.886004 144.971415 
L 72.183234 125.753974 
L 72.480463 136.613426 
L 72.777692 135.233935 
L 73.074921 143.79131 
L 73.669379 134.638153 
L 74.263837 124.355156 
L 74.858295 120.188182 
L 75.155525 120.102612 
L 75.452754 123.360513 
L 76.344441 139.669222 
L 76.64167 142.164181 
L 76.938899 142.963568 
L 77.236128 142.322225 
L 77.533357 139.867934 
L 78.127815 133.477907 
L 78.425045 131.591794 
L 78.722274 131.394143 
L 79.019503 133.279133 
L 79.613961 140.339403 
L 79.91119 144.56724 
L 80.208419 140.533181 
L 81.100106 124.866839 
L 81.694565 116.033235 
L 81.991794 113.518964 
L 82.289023 113.142851 
L 82.586252 113.496866 
L 82.883481 113.443155 
L 83.18071 113.168319 
L 83.477939 113.256056 
L 83.775168 113.465432 
L 84.072397 113.289642 
L 84.369626 113.699005 
L 84.666856 116.315176 
L 84.964085 121.827725 
L 85.558543 141.502564 
L 85.855772 136.277202 
L 86.747459 103.919138 
L 87.044688 98.242377 
L 87.341917 96.443024 
L 87.639147 98.003311 
L 88.233605 106.437801 
L 88.828063 117.574904 
L 89.71975 141.743959 
L 90.016979 140.187169 
L 90.611437 127.028507 
L 90.908667 123.474357 
L 91.205896 122.945467 
L 91.800354 125.644392 
L 92.097583 125.767636 
L 92.394812 123.994251 
L 92.98927 116.836431 
L 93.286499 115.331791 
L 93.583728 115.086003 
L 93.880958 115.414217 
L 94.178187 117.54957 
L 94.772645 128.701902 
L 95.664332 144.52144 
L 96.25879 139.873128 
L 96.853248 136.897551 
L 97.447707 131.965579 
L 97.744936 129.629903 
L 98.042165 128.878612 
L 98.933852 130.474047 
L 99.231081 132.078161 
L 99.52831 134.663161 
L 99.825539 136.119491 
L 100.122769 135.616201 
L 100.419998 133.226426 
L 101.311685 122.778339 
L 101.608914 120.300772 
L 101.906143 115.849054 
L 102.79783 97.156768 
L 103.392289 89.786599 
L 103.689518 87.215443 
L 103.986747 86.71894 
L 104.283976 90.20106 
L 104.581205 98.392686 
L 105.472892 138.316241 
L 106.36458 83.956163 
L 106.661809 74.137666 
L 106.959038 71.146611 
L 107.256267 74.920241 
L 107.553496 84.037712 
L 108.147954 111.178516 
L 108.742412 141.79458 
L 109.039641 135.425764 
L 110.525787 85.122037 
L 110.823016 81.21482 
L 111.120245 81.669104 
L 111.417474 87.751679 
L 112.606391 127.759438 
L 112.90362 132.673465 
L 113.200849 135.15659 
L 113.795307 136.658406 
L 114.092536 139.450919 
L 114.389765 144.543123 
L 114.984223 131.129572 
L 115.281452 129.173736 
L 115.578681 130.601197 
L 116.17314 137.654469 
L 116.470369 139.115829 
L 116.767598 137.834684 
L 117.956514 127.739312 
L 118.253743 127.912072 
L 118.550972 131.609467 
L 119.145431 144.105223 
L 120.037118 120.057768 
L 120.928805 104.104688 
L 121.523263 97.161588 
L 123.009409 86.07297 
L 123.306638 85.427462 
L 123.603867 86.436951 
L 123.901096 89.036156 
L 124.198325 93.623129 
L 124.792783 108.664979 
L 125.387242 122.714937 
L 125.9817 130.338856 
L 126.576158 135.885092 
L 126.873387 140.700055 
L 127.170616 142.868456 
L 127.765074 125.445262 
L 128.359533 108.397566 
L 128.656762 104.152494 
L 128.953991 102.641897 
L 129.25122 102.70297 
L 129.845678 104.487083 
L 130.142907 106.21917 
L 130.440136 108.7481 
L 132.223511 129.415506 
L 132.817969 143.201815 
L 133.115198 138.126204 
L 133.709656 121.895199 
L 134.006885 119.365338 
L 134.304114 120.910204 
L 134.601344 125.736004 
L 135.195802 142.369306 
L 135.493031 139.729275 
L 135.79026 134.115601 
L 136.087489 131.780535 
L 136.681947 131.083802 
L 138.168093 126.079094 
L 138.465322 125.420461 
L 138.762551 123.906629 
L 139.05978 119.181722 
L 139.357009 109.38184 
L 140.248696 72.605356 
L 140.545925 68.9552 
L 140.843155 69.861004 
L 141.140384 74.290334 
L 143.815446 140.317038 
L 144.112675 143.529399 
L 144.409904 139.721889 
L 145.004362 136.093612 
L 145.301591 134.120059 
L 145.896049 126.181737 
L 146.787736 111.52494 
L 147.084966 109.187106 
L 147.382195 108.879199 
L 147.679424 111.063223 
L 148.86834 126.187009 
L 149.462798 132.390233 
L 149.760027 136.874722 
L 150.057257 144.396242 
L 150.651715 122.099443 
L 151.840631 68.858204 
L 152.13786 62.126051 
L 152.435089 60.455023 
L 152.732318 64.204725 
L 153.029547 73.502891 
L 153.624006 106.661624 
L 154.218464 143.513369 
L 154.812922 121.296242 
L 155.110151 114.787899 
L 155.40738 112.278179 
L 155.704609 112.953913 
L 156.001838 116.063083 
L 156.596297 127.043428 
L 157.190755 137.438339 
L 157.785213 143.739086 
L 158.082442 144.891246 
L 158.379671 143.787833 
L 158.974129 138.141863 
L 159.271358 138.901629 
L 159.568588 143.247355 
L 159.865817 140.390414 
L 160.460275 129.170155 
L 160.757504 127.219927 
L 161.054733 128.618965 
L 162.243649 142.098067 
L 162.838108 144.030825 
L 163.135337 143.260039 
L 163.729795 138.474918 
L 164.027024 138.88217 
L 164.621482 144.6849 
L 164.918711 144.156565 
L 165.21594 144.314384 
L 165.513169 140.615633 
L 166.404857 125.481719 
L 166.702086 122.804604 
L 166.999315 121.754269 
L 167.296544 123.176662 
L 167.593773 127.352133 
L 168.188231 140.578502 
L 168.48546 142.323877 
L 169.079919 131.315967 
L 169.377148 128.567186 
L 169.674377 128.429929 
L 169.971606 131.01052 
L 170.863293 144.838976 
L 171.160522 144.407657 
L 171.457751 139.253426 
L 172.05221 119.869082 
L 172.349439 109.656065 
L 172.646668 104.07946 
L 172.943897 105.921894 
L 173.538355 127.490264 
L 173.835584 137.435604 
L 174.132813 141.734076 
L 174.430042 139.90031 
L 175.024501 125.900472 
L 175.618959 113.654378 
L 176.807875 97.947268 
L 178.294021 89.917515 
L 178.59125 91.508405 
L 178.888479 95.768051 
L 179.780166 117.960387 
L 180.969082 144.882703 
L 181.86077 128.658873 
L 182.157999 125.469594 
L 182.455228 127.176331 
L 183.049686 144.490186 
L 183.644144 123.618939 
L 184.238602 110.40357 
L 184.535832 106.213363 
L 184.833061 104.540395 
L 185.13029 105.604954 
L 185.427519 109.500557 
L 186.021977 124.532542 
L 186.616435 144.686745 
L 187.508123 120.395506 
L 187.805352 119.427015 
L 188.102581 123.01899 
L 188.994268 141.808757 
L 189.291497 142.95839 
L 189.588726 140.772384 
L 190.183184 144.188428 
L 190.480413 140.931667 
L 190.777643 139.040149 
L 191.074872 138.398103 
L 191.372101 138.123173 
L 191.66933 138.133225 
L 191.966559 140.236076 
L 192.263788 144.80509 
L 192.858246 132.034643 
L 193.452704 117.378514 
L 193.749934 113.176474 
L 194.047163 113.97802 
L 194.344392 119.504017 
L 195.236079 144.544229 
L 195.830537 134.407093 
L 196.424995 130.210538 
L 196.722224 129.050295 
L 197.911141 121.330564 
L 198.20837 120.656783 
L 198.505599 121.453401 
L 198.802828 124.271976 
L 199.100057 130.479017 
L 199.397286 140.902477 
L 199.694515 136.05265 
L 200.288974 115.510765 
L 200.586203 113.137997 
L 200.883432 116.327537 
L 201.775119 133.844855 
L 202.072348 135.531002 
L 202.369577 135.105495 
L 203.261265 129.350579 
L 203.558494 128.680946 
L 203.855723 130.083006 
L 204.152952 134.489751 
L 204.450181 141.083732 
L 204.74741 141.686795 
L 205.639097 119.59101 
L 206.233556 104.969181 
L 206.828014 95.035803 
L 207.422472 77.81873 
L 208.01693 60.464046 
L 208.314159 57.092761 
L 208.611388 58.612142 
L 208.908617 65.119353 
L 209.503076 89.570574 
L 210.691992 144.741093 
L 211.583679 114.472553 
L 211.880908 108.672643 
L 212.178137 106.852565 
L 212.475367 109.088628 
L 213.069825 120.303396 
L 213.961512 139.815009 
L 214.258741 143.773187 
L 214.55597 143.628408 
L 214.853199 141.291891 
L 215.150428 137.463582 
L 216.042116 122.403762 
L 216.339345 121.482946 
L 216.636574 125.192581 
L 217.528261 144.922097 
L 218.122719 136.517245 
L 218.717178 132.350469 
L 219.014407 131.950567 
L 219.311636 134.763254 
L 219.608865 140.767037 
L 219.906094 141.636146 
L 219.906094 141.636146 
" clip-path="url(#p5a891a12f0)" style="fill: none; stroke: #ff0000; stroke-linecap: square"/>
   </g>
   <g id="patch_3">
    <path d="M 64.485 150.685679 
L 64.485 24.971875 
" style="fill: none; stroke: #ffffff; stroke-linejoin: miter; stroke-linecap: square"/>
   </g>
   <g id="patch_4">
    <path d="M 227.307098 150.685679 
L 227.307098 24.971875 
" style="fill: none; stroke: #ffffff; stroke-linejoin: miter; stroke-linecap: square"/>
   </g>
   <g id="patch_5">
    <path d="M 64.485 150.685679 
L 227.307098 150.685679 
" style="fill: none; stroke: #ffffff; stroke-linejoin: miter; stroke-linecap: square"/>
   </g>
   <g id="patch_6">
    <path d="M 64.485 24.971875 
L 227.307098 24.971875 
" style="fill: none; stroke: #ffffff; stroke-linejoin: miter; stroke-linecap: square"/>
   </g>
   <g id="text_14">
    <!-- Bath 1 (left, $T=0.6$) -->
    <g transform="translate(105.176049 18.971875)scale(0.08 -0.08)">
     <defs>
      <path id="DejaVuSerif-42" d="M 1581 331 
L 2516 331 
Q 3078 331 3337 575 
Q 3597 819 3597 1350 
Q 3597 1878 3339 2120 
Q 3081 2363 2516 2363 
L 1581 2363 
L 1581 331 
z
M 1581 2694 
L 2375 2694 
Q 2888 2694 3123 2891 
Q 3359 3088 3359 3513 
Q 3359 3941 3123 4136 
Q 2888 4331 2375 4331 
L 1581 4331 
L 1581 2694 
z
M 353 0 
L 353 331 
L 947 331 
L 947 4331 
L 353 4331 
L 353 4666 
L 2656 4666 
Q 3363 4666 3720 4377 
Q 4078 4088 4078 3513 
Q 4078 3097 3829 2850 
Q 3581 2603 3103 2547 
Q 3697 2472 4005 2167 
Q 4313 1863 4313 1350 
Q 4313 656 3875 328 
Q 3438 0 2509 0 
L 353 0 
z
" transform="scale(0.015625)"/>
      <path id="DejaVuSerif-61" d="M 2547 1044 
L 2547 1747 
L 1806 1747 
Q 1378 1747 1168 1562 
Q 959 1378 959 997 
Q 959 650 1171 447 
Q 1384 244 1747 244 
Q 2106 244 2326 466 
Q 2547 688 2547 1044 
z
M 3122 2075 
L 3122 331 
L 3634 331 
L 3634 0 
L 2547 0 
L 2547 359 
Q 2356 128 2106 18 
Q 1856 -91 1522 -91 
Q 969 -91 644 203 
Q 319 497 319 997 
Q 319 1513 691 1797 
Q 1063 2081 1741 2081 
L 2547 2081 
L 2547 2309 
Q 2547 2688 2317 2895 
Q 2088 3103 1672 3103 
Q 1328 3103 1125 2947 
Q 922 2791 872 2484 
L 575 2484 
L 575 3156 
Q 875 3284 1158 3348 
Q 1441 3413 1709 3413 
Q 2400 3413 2761 3070 
Q 3122 2728 3122 2075 
z
" transform="scale(0.015625)"/>
      <path id="DejaVuSerif-74" d="M 691 2988 
L 184 2988 
L 184 3322 
L 691 3322 
L 691 4353 
L 1269 4353 
L 1269 3322 
L 2350 3322 
L 2350 2988 
L 1269 2988 
L 1269 878 
Q 1269 456 1350 337 
Q 1431 219 1650 219 
Q 1875 219 1978 351 
Q 2081 484 2088 781 
L 2522 781 
Q 2497 328 2275 118 
Q 2053 -91 1600 -91 
Q 1103 -91 897 129 
Q 691 350 691 878 
L 691 2988 
z
" transform="scale(0.015625)"/>
      <path id="DejaVuSerif-68" d="M 263 0 
L 263 331 
L 781 331 
L 781 4531 
L 231 4531 
L 231 4863 
L 1356 4863 
L 1356 2731 
Q 1516 3069 1770 3241 
Q 2025 3413 2363 3413 
Q 2913 3413 3172 3097 
Q 3431 2781 3431 2113 
L 3431 331 
L 3944 331 
L 3944 0 
L 2356 0 
L 2356 331 
L 2853 331 
L 2853 1931 
Q 2853 2541 2704 2764 
Q 2556 2988 2175 2988 
Q 1775 2988 1565 2697 
Q 1356 2406 1356 1850 
L 1356 331 
L 1856 331 
L 1856 0 
L 263 0 
z
" transform="scale(0.015625)"/>
      <path id="DejaVuSerif-20" transform="scale(0.015625)"/>
      <path id="DejaVuSerif-28" d="M 2041 -997 
Q 1281 -656 893 83 
Q 506 822 506 1931 
Q 506 3044 893 3783 
Q 1281 4522 2041 4863 
L 2041 4556 
Q 1559 4225 1350 3623 
Q 1141 3022 1141 1931 
Q 1141 844 1350 242 
Q 1559 -359 2041 -691 
L 2041 -997 
z
" transform="scale(0.015625)"/>
      <path id="DejaVuSerif-6c" d="M 1313 331 
L 1856 331 
L 1856 0 
L 184 0 
L 184 331 
L 738 331 
L 738 4531 
L 184 4531 
L 184 4863 
L 1313 4863 
L 1313 331 
z
" transform="scale(0.015625)"/>
      <path id="DejaVuSerif-65" d="M 3469 1600 
L 991 1600 
L 991 1575 
Q 991 903 1244 561 
Q 1497 219 1991 219 
Q 2369 219 2611 417 
Q 2853 616 2950 1006 
L 3413 1006 
Q 3275 459 2904 184 
Q 2534 -91 1931 -91 
Q 1203 -91 761 389 
Q 319 869 319 1663 
Q 319 2450 753 2931 
Q 1188 3413 1894 3413 
Q 2647 3413 3050 2948 
Q 3453 2484 3469 1600 
z
M 2791 1931 
Q 2772 2513 2545 2808 
Q 2319 3103 1894 3103 
Q 1497 3103 1269 2806 
Q 1041 2509 991 1931 
L 2791 1931 
z
" transform="scale(0.015625)"/>
      <path id="DejaVuSerif-66" d="M 2753 4078 
L 2450 4078 
Q 2447 4313 2317 4434 
Q 2188 4556 1941 4556 
Q 1619 4556 1487 4379 
Q 1356 4203 1356 3750 
L 1356 3322 
L 2284 3322 
L 2284 2988 
L 1356 2988 
L 1356 331 
L 2094 331 
L 2094 0 
L 231 0 
L 231 331 
L 781 331 
L 781 2988 
L 231 2988 
L 231 3322 
L 781 3322 
L 781 3738 
Q 781 4294 1070 4578 
Q 1359 4863 1919 4863 
Q 2128 4863 2337 4825 
Q 2547 4788 2753 4709 
L 2753 4078 
z
" transform="scale(0.015625)"/>
      <path id="DejaVuSerif-2c" d="M 231 -622 
Q 525 -406 662 -114 
Q 800 178 800 594 
L 800 709 
L 1416 709 
Q 1391 175 1164 -208 
Q 938 -591 481 -872 
L 231 -622 
z
" transform="scale(0.015625)"/>
      <path id="DejaVuSans-Oblique-54" d="M 378 4666 
L 4325 4666 
L 4225 4134 
L 2559 4134 
L 1759 0 
L 1125 0 
L 1925 4134 
L 275 4134 
L 378 4666 
z
" transform="scale(0.015625)"/>
      <path id="DejaVuSans-3d" d="M 678 2906 
L 4684 2906 
L 4684 2381 
L 678 2381 
L 678 2906 
z
M 678 1631 
L 4684 1631 
L 4684 1100 
L 678 1100 
L 678 1631 
z
" transform="scale(0.015625)"/>
      <path id="DejaVuSans-30" d="M 2034 4250 
Q 1547 4250 1301 3770 
Q 1056 3291 1056 2328 
Q 1056 1369 1301 889 
Q 1547 409 2034 409 
Q 2525 409 2770 889 
Q 3016 1369 3016 2328 
Q 3016 3291 2770 3770 
Q 2525 4250 2034 4250 
z
M 2034 4750 
Q 2819 4750 3233 4129 
Q 3647 3509 3647 2328 
Q 3647 1150 3233 529 
Q 2819 -91 2034 -91 
Q 1250 -91 836 529 
Q 422 1150 422 2328 
Q 422 3509 836 4129 
Q 1250 4750 2034 4750 
z
" transform="scale(0.015625)"/>
      <path id="DejaVuSans-2e" d="M 684 794 
L 1344 794 
L 1344 0 
L 684 0 
L 684 794 
z
" transform="scale(0.015625)"/>
      <path id="DejaVuSans-36" d="M 2113 2584 
Q 1688 2584 1439 2293 
Q 1191 2003 1191 1497 
Q 1191 994 1439 701 
Q 1688 409 2113 409 
Q 2538 409 2786 701 
Q 3034 994 3034 1497 
Q 3034 2003 2786 2293 
Q 2538 2584 2113 2584 
z
M 3366 4563 
L 3366 3988 
Q 3128 4100 2886 4159 
Q 2644 4219 2406 4219 
Q 1781 4219 1451 3797 
Q 1122 3375 1075 2522 
Q 1259 2794 1537 2939 
Q 1816 3084 2150 3084 
Q 2853 3084 3261 2657 
Q 3669 2231 3669 1497 
Q 3669 778 3244 343 
Q 2819 -91 2113 -91 
Q 1303 -91 875 529 
Q 447 1150 447 2328 
Q 447 3434 972 4092 
Q 1497 4750 2381 4750 
Q 2619 4750 2861 4703 
Q 3103 4656 3366 4563 
z
" transform="scale(0.015625)"/>
      <path id="DejaVuSerif-29" d="M 453 -997 
L 453 -691 
Q 934 -359 1145 242 
Q 1356 844 1356 1931 
Q 1356 3022 1145 3623 
Q 934 4225 453 4556 
L 453 4863 
Q 1216 4522 1603 3783 
Q 1991 3044 1991 1931 
Q 1991 822 1603 83 
Q 1216 -656 453 -997 
z
" transform="scale(0.015625)"/>
     </defs>
     <use xlink:href="#DejaVuSerif-42" transform="translate(0 0.015625)"/>
     <use xlink:href="#DejaVuSerif-61" transform="translate(73.486328 0.015625)"/>
     <use xlink:href="#DejaVuSerif-74" transform="translate(133.105469 0.015625)"/>
     <use xlink:href="#DejaVuSerif-68" transform="translate(173.291016 0.015625)"/>
     <use xlink:href="#DejaVuSerif-20" transform="translate(237.695312 0.015625)"/>
     <use xlink:href="#DejaVuSerif-31" transform="translate(269.482422 0.015625)"/>
     <use xlink:href="#DejaVuSerif-20" transform="translate(333.105469 0.015625)"/>
     <use xlink:href="#DejaVuSerif-28" transform="translate(364.892578 0.015625)"/>
     <use xlink:href="#DejaVuSerif-6c" transform="translate(403.90625 0.015625)"/>
     <use xlink:href="#DejaVuSerif-65" transform="translate(435.888672 0.015625)"/>
     <use xlink:href="#DejaVuSerif-66" transform="translate(495.068359 0.015625)"/>
     <use xlink:href="#DejaVuSerif-74" transform="translate(532.080078 0.015625)"/>
     <use xlink:href="#DejaVuSerif-2c" transform="translate(572.265625 0.015625)"/>
     <use xlink:href="#DejaVuSerif-20" transform="translate(604.052734 0.015625)"/>
     <use xlink:href="#DejaVuSans-Oblique-54" transform="translate(635.839844 0.015625)"/>
     <use xlink:href="#DejaVuSans-3d" transform="translate(716.40625 0.015625)"/>
     <use xlink:href="#DejaVuSans-30" transform="translate(819.677734 0.015625)"/>
     <use xlink:href="#DejaVuSans-2e" transform="translate(883.300781 0.015625)"/>
     <use xlink:href="#DejaVuSans-36" transform="translate(915.087891 0.015625)"/>
     <use xlink:href="#DejaVuSerif-29" transform="translate(978.710938 0.015625)"/>
    </g>
   </g>
   <g id="legend_1">
    <g id="patch_7">
     <path d="M 70.085 66.599375 
L 192.565 66.599375 
Q 194.165 66.599375 194.165 64.999375 
L 194.165 30.571875 
Q 194.165 28.971875 192.565 28.971875 
L 70.085 28.971875 
Q 68.485 28.971875 68.485 30.571875 
L 68.485 64.999375 
Q 68.485 66.599375 70.085 66.599375 
z
" style="fill: #e5e5e5; opacity: 0.8; stroke: #cccccc; stroke-width: 0.5; stroke-linejoin: miter"/>
    </g>
    <g id="patch_8">
     <path d="M 71.685 38.250625 
L 87.685 38.250625 
L 87.685 32.650625 
L 71.685 32.650625 
z
" style="fill: #ffff00; stroke: #ffff00; stroke-width: 0.5; stroke-linejoin: miter"/>
    </g>
    <g id="text_15">
     <!-- $\sigma\, (N=5191)$ -->
     <g transform="translate(94.085 38.250625)scale(0.08 -0.08)">
      <defs>
       <path id="DejaVuSans-Oblique-3c3" d="M 2219 3044 
Q 1744 3044 1422 2700 
Q 1081 2341 969 1747 
Q 844 1119 1044 756 
Q 1241 397 1706 397 
Q 2166 397 2503 759 
Q 2844 1122 2966 1747 
Q 3075 2319 2881 2700 
Q 2700 3044 2219 3044 
z
M 2309 3503 
L 4219 3500 
L 4106 2925 
L 3463 2925 
Q 3706 2438 3575 1747 
Q 3406 888 2884 400 
Q 2359 -91 1609 -91 
Q 856 -91 525 400 
Q 194 888 363 1747 
Q 528 2609 1050 3097 
Q 1484 3503 2309 3503 
z
" transform="scale(0.015625)"/>
       <path id="DejaVuSans-28" d="M 1984 4856 
Q 1566 4138 1362 3434 
Q 1159 2731 1159 2009 
Q 1159 1288 1364 580 
Q 1569 -128 1984 -844 
L 1484 -844 
Q 1016 -109 783 600 
Q 550 1309 550 2009 
Q 550 2706 781 3412 
Q 1013 4119 1484 4856 
L 1984 4856 
z
" transform="scale(0.015625)"/>
       <path id="DejaVuSans-35" d="M 691 4666 
L 3169 4666 
L 3169 4134 
L 1269 4134 
L 1269 2991 
Q 1406 3038 1543 3061 
Q 1681 3084 1819 3084 
Q 2600 3084 3056 2656 
Q 3513 2228 3513 1497 
Q 3513 744 3044 326 
Q 2575 -91 1722 -91 
Q 1428 -91 1123 -41 
Q 819 9 494 109 
L 494 744 
Q 775 591 1075 516 
Q 1375 441 1709 441 
Q 2250 441 2565 725 
Q 2881 1009 2881 1497 
Q 2881 1984 2565 2268 
Q 2250 2553 1709 2553 
Q 1456 2553 1204 2497 
Q 953 2441 691 2322 
L 691 4666 
z
" transform="scale(0.015625)"/>
       <path id="DejaVuSans-31" d="M 794 531 
L 1825 531 
L 1825 4091 
L 703 3866 
L 703 4441 
L 1819 4666 
L 2450 4666 
L 2450 531 
L 3481 531 
L 3481 0 
L 794 0 
L 794 531 
z
" transform="scale(0.015625)"/>
       <path id="DejaVuSans-39" d="M 703 97 
L 703 672 
Q 941 559 1184 500 
Q 1428 441 1663 441 
Q 2288 441 2617 861 
Q 2947 1281 2994 2138 
Q 2813 1869 2534 1725 
Q 2256 1581 1919 1581 
Q 1219 1581 811 2004 
Q 403 2428 403 3163 
Q 403 3881 828 4315 
Q 1253 4750 1959 4750 
Q 2769 4750 3195 4129 
Q 3622 3509 3622 2328 
Q 3622 1225 3098 567 
Q 2575 -91 1691 -91 
Q 1453 -91 1209 -44 
Q 966 3 703 97 
z
M 1959 2075 
Q 2384 2075 2632 2365 
Q 2881 2656 2881 3163 
Q 2881 3666 2632 3958 
Q 2384 4250 1959 4250 
Q 1534 4250 1286 3958 
Q 1038 3666 1038 3163 
Q 1038 2656 1286 2365 
Q 1534 2075 1959 2075 
z
" transform="scale(0.015625)"/>
       <path id="DejaVuSans-29" d="M 513 4856 
L 1013 4856 
Q 1481 4119 1714 3412 
Q 1947 2706 1947 2009 
Q 1947 1309 1714 600 
Q 1481 -109 1013 -844 
L 513 -844 
Q 928 -128 1133 580 
Q 1338 1288 1338 2009 
Q 1338 2731 1133 3434 
Q 928 4138 513 4856 
z
" transform="scale(0.015625)"/>
      </defs>
      <use xlink:href="#DejaVuSans-Oblique-3c3" transform="translate(0 0.125)"/>
      <use xlink:href="#DejaVuSans-28" transform="translate(79.614583 0.125)"/>
      <use xlink:href="#DejaVuSans-Oblique-4e" transform="translate(118.628254 0.125)"/>
      <use xlink:href="#DejaVuSans-3d" transform="translate(212.915364 0.125)"/>
      <use xlink:href="#DejaVuSans-35" transform="translate(316.186848 0.125)"/>
      <use xlink:href="#DejaVuSans-31" transform="translate(379.809895 0.125)"/>
      <use xlink:href="#DejaVuSans-39" transform="translate(443.432942 0.125)"/>
      <use xlink:href="#DejaVuSans-31" transform="translate(507.055989 0.125)"/>
      <use xlink:href="#DejaVuSans-29" transform="translate(570.679036 0.125)"/>
     </g>
    </g>
    <g id="line2d_25">
     <path d="M 71.685 47.193125 
L 79.685 47.193125 
L 87.685 47.193125 
" style="fill: none; stroke-dasharray: 1,1.65; stroke-dashoffset: 0; stroke: #e24a33; stroke-opacity: 0.523046"/>
    </g>
    <g id="text_16">
     <!-- $N=2849$  $\Delta&lt;\sigma = 52.3\%$ -->
     <g transform="translate(94.085 49.993125)scale(0.08 -0.08)">
      <defs>
       <path id="DejaVuSans-32" d="M 1228 531 
L 3431 531 
L 3431 0 
L 469 0 
L 469 531 
Q 828 903 1448 1529 
Q 2069 2156 2228 2338 
Q 2531 2678 2651 2914 
Q 2772 3150 2772 3378 
Q 2772 3750 2511 3984 
Q 2250 4219 1831 4219 
Q 1534 4219 1204 4116 
Q 875 4013 500 3803 
L 500 4441 
Q 881 4594 1212 4672 
Q 1544 4750 1819 4750 
Q 2544 4750 2975 4387 
Q 3406 4025 3406 3419 
Q 3406 3131 3298 2873 
Q 3191 2616 2906 2266 
Q 2828 2175 2409 1742 
Q 1991 1309 1228 531 
z
" transform="scale(0.015625)"/>
       <path id="DejaVuSans-38" d="M 2034 2216 
Q 1584 2216 1326 1975 
Q 1069 1734 1069 1313 
Q 1069 891 1326 650 
Q 1584 409 2034 409 
Q 2484 409 2743 651 
Q 3003 894 3003 1313 
Q 3003 1734 2745 1975 
Q 2488 2216 2034 2216 
z
M 1403 2484 
Q 997 2584 770 2862 
Q 544 3141 544 3541 
Q 544 4100 942 4425 
Q 1341 4750 2034 4750 
Q 2731 4750 3128 4425 
Q 3525 4100 3525 3541 
Q 3525 3141 3298 2862 
Q 3072 2584 2669 2484 
Q 3125 2378 3379 2068 
Q 3634 1759 3634 1313 
Q 3634 634 3220 271 
Q 2806 -91 2034 -91 
Q 1263 -91 848 271 
Q 434 634 434 1313 
Q 434 1759 690 2068 
Q 947 2378 1403 2484 
z
M 1172 3481 
Q 1172 3119 1398 2916 
Q 1625 2713 2034 2713 
Q 2441 2713 2670 2916 
Q 2900 3119 2900 3481 
Q 2900 3844 2670 4047 
Q 2441 4250 2034 4250 
Q 1625 4250 1398 4047 
Q 1172 3844 1172 3481 
z
" transform="scale(0.015625)"/>
       <path id="DejaVuSans-34" d="M 2419 4116 
L 825 1625 
L 2419 1625 
L 2419 4116 
z
M 2253 4666 
L 3047 4666 
L 3047 1625 
L 3713 1625 
L 3713 1100 
L 3047 1100 
L 3047 0 
L 2419 0 
L 2419 1100 
L 313 1100 
L 313 1709 
L 2253 4666 
z
" transform="scale(0.015625)"/>
       <path id="DejaVuSans-394" d="M 2188 4044 
L 906 525 
L 3472 525 
L 2188 4044 
z
M 50 0 
L 1831 4666 
L 2547 4666 
L 4325 0 
L 50 0 
z
" transform="scale(0.015625)"/>
       <path id="DejaVuSans-3c" d="M 4684 3150 
L 1459 2003 
L 4684 863 
L 4684 294 
L 678 1747 
L 678 2266 
L 4684 3719 
L 4684 3150 
z
" transform="scale(0.015625)"/>
       <path id="DejaVuSans-33" d="M 2597 2516 
Q 3050 2419 3304 2112 
Q 3559 1806 3559 1356 
Q 3559 666 3084 287 
Q 2609 -91 1734 -91 
Q 1441 -91 1130 -33 
Q 819 25 488 141 
L 488 750 
Q 750 597 1062 519 
Q 1375 441 1716 441 
Q 2309 441 2620 675 
Q 2931 909 2931 1356 
Q 2931 1769 2642 2001 
Q 2353 2234 1838 2234 
L 1294 2234 
L 1294 2753 
L 1863 2753 
Q 2328 2753 2575 2939 
Q 2822 3125 2822 3475 
Q 2822 3834 2567 4026 
Q 2313 4219 1838 4219 
Q 1578 4219 1281 4162 
Q 984 4106 628 3988 
L 628 4550 
Q 988 4650 1302 4700 
Q 1616 4750 1894 4750 
Q 2613 4750 3031 4423 
Q 3450 4097 3450 3541 
Q 3450 3153 3228 2886 
Q 3006 2619 2597 2516 
z
" transform="scale(0.015625)"/>
       <path id="DejaVuSans-25" d="M 4653 2053 
Q 4381 2053 4226 1822 
Q 4072 1591 4072 1178 
Q 4072 772 4226 539 
Q 4381 306 4653 306 
Q 4919 306 5073 539 
Q 5228 772 5228 1178 
Q 5228 1588 5073 1820 
Q 4919 2053 4653 2053 
z
M 4653 2450 
Q 5147 2450 5437 2106 
Q 5728 1763 5728 1178 
Q 5728 594 5436 251 
Q 5144 -91 4653 -91 
Q 4153 -91 3862 251 
Q 3572 594 3572 1178 
Q 3572 1766 3864 2108 
Q 4156 2450 4653 2450 
z
M 1428 4353 
Q 1159 4353 1004 4120 
Q 850 3888 850 3481 
Q 850 3069 1003 2837 
Q 1156 2606 1428 2606 
Q 1700 2606 1854 2837 
Q 2009 3069 2009 3481 
Q 2009 3884 1853 4118 
Q 1697 4353 1428 4353 
z
M 4250 4750 
L 4750 4750 
L 1831 -91 
L 1331 -91 
L 4250 4750 
z
M 1428 4750 
Q 1922 4750 2215 4408 
Q 2509 4066 2509 3481 
Q 2509 2891 2217 2550 
Q 1925 2209 1428 2209 
Q 931 2209 642 2551 
Q 353 2894 353 3481 
Q 353 4063 643 4406 
Q 934 4750 1428 4750 
z
" transform="scale(0.015625)"/>
      </defs>
      <use xlink:href="#DejaVuSans-Oblique-4e" transform="translate(0 0.78125)"/>
      <use xlink:href="#DejaVuSans-3d" transform="translate(94.287109 0.78125)"/>
      <use xlink:href="#DejaVuSans-32" transform="translate(197.558594 0.78125)"/>
      <use xlink:href="#DejaVuSans-38" transform="translate(261.181641 0.78125)"/>
      <use xlink:href="#DejaVuSans-34" transform="translate(324.804688 0.78125)"/>
      <use xlink:href="#DejaVuSans-39" transform="translate(388.427734 0.78125)"/>
      <use xlink:href="#DejaVuSerif-20" transform="translate(452.050781 0.78125)"/>
      <use xlink:href="#DejaVuSerif-20" transform="translate(483.837891 0.78125)"/>
      <use xlink:href="#DejaVuSans-394" transform="translate(515.625 0.78125)"/>
      <use xlink:href="#DejaVuSans-3c" transform="translate(603.515625 0.78125)"/>
      <use xlink:href="#DejaVuSans-Oblique-3c3" transform="translate(706.787109 0.78125)"/>
      <use xlink:href="#DejaVuSans-3d" transform="translate(789.648438 0.78125)"/>
      <use xlink:href="#DejaVuSans-35" transform="translate(892.919922 0.78125)"/>
      <use xlink:href="#DejaVuSans-32" transform="translate(956.542969 0.78125)"/>
      <use xlink:href="#DejaVuSans-2e" transform="translate(1020.166016 0.78125)"/>
      <use xlink:href="#DejaVuSans-33" transform="translate(1051.953125 0.78125)"/>
      <use xlink:href="#DejaVuSans-25" transform="translate(1115.576172 0.78125)"/>
     </g>
    </g>
    <g id="line2d_26">
     <path d="M 71.685 58.935625 
L 79.685 58.935625 
L 87.685 58.935625 
" style="fill: none; stroke: #ff0000; stroke-linecap: square"/>
    </g>
    <g id="text_17">
     <!-- $N=5191$  $\Delta&lt;\sigma = 68.1\%$ -->
     <g transform="translate(94.085 61.735625)scale(0.08 -0.08)">
      <use xlink:href="#DejaVuSans-Oblique-4e" transform="translate(0 0.78125)"/>
      <use xlink:href="#DejaVuSans-3d" transform="translate(94.287109 0.78125)"/>
      <use xlink:href="#DejaVuSans-35" transform="translate(197.558594 0.78125)"/>
      <use xlink:href="#DejaVuSans-31" transform="translate(261.181641 0.78125)"/>
      <use xlink:href="#DejaVuSans-39" transform="translate(324.804688 0.78125)"/>
      <use xlink:href="#DejaVuSans-31" transform="translate(388.427734 0.78125)"/>
      <use xlink:href="#DejaVuSerif-20" transform="translate(452.050781 0.78125)"/>
      <use xlink:href="#DejaVuSerif-20" transform="translate(483.837891 0.78125)"/>
      <use xlink:href="#DejaVuSans-394" transform="translate(515.625 0.78125)"/>
      <use xlink:href="#DejaVuSans-3c" transform="translate(603.515625 0.78125)"/>
      <use xlink:href="#DejaVuSans-Oblique-3c3" transform="translate(706.787109 0.78125)"/>
      <use xlink:href="#DejaVuSans-3d" transform="translate(789.648438 0.78125)"/>
      <use xlink:href="#DejaVuSans-36" transform="translate(892.919922 0.78125)"/>
      <use xlink:href="#DejaVuSans-38" transform="translate(956.542969 0.78125)"/>
      <use xlink:href="#DejaVuSans-2e" transform="translate(1020.166016 0.78125)"/>
      <use xlink:href="#DejaVuSans-31" transform="translate(1051.953125 0.78125)"/>
      <use xlink:href="#DejaVuSans-25" transform="translate(1115.576172 0.78125)"/>
     </g>
    </g>
   </g>
  </g>
 </g>
 <defs>
  <clipPath id="p5a891a12f0">
   <rect x="64.485" y="24.971875" width="162.822098" height="125.713804"/>
  </clipPath>
 </defs>
</svg>
