<?xml version="1.0" encoding="utf-8" standalone="no"?>
<!DOCTYPE svg PUBLIC "-//W3C//DTD SVG 1.1//EN"
  "http://www.w3.org/Graphics/SVG/1.1/DTD/svg11.dtd">
<svg xmlns:xlink="http://www.w3.org/1999/xlink" width="467.244556pt" height="288.773017pt" viewBox="0 0 467.244556 288.773017" xmlns="http://www.w3.org/2000/svg" version="1.1">
 <metadata>
  <rdf:RDF xmlns:dc="http://purl.org/dc/elements/1.1/" xmlns:cc="http://creativecommons.org/ns#" xmlns:rdf="http://www.w3.org/1999/02/22-rdf-syntax-ns#">
   <cc:Work>
    <dc:type rdf:resource="http://purl.org/dc/dcmitype/StillImage"/>
    <dc:date>1980-01-01T00:00:00+00:00</dc:date>
    <dc:format>image/svg+xml</dc:format>
    <dc:creator>
     <cc:Agent>
      <dc:title>Matplotlib v3.5.2, https://matplotlib.org/</dc:title>
     </cc:Agent>
    </dc:creator>
   </cc:Work>
  </rdf:RDF>
 </metadata>
 <defs>
  <style type="text/css">*{stroke-linejoin: round; stroke-linecap: butt}</style>
 </defs>
 <g id="figure_1">
  <g id="patch_1">
   <path d="M 0 288.773017 
L 467.244556 288.773017 
L 467.244556 0 
L 0 0 
z
" style="fill: #ffffff"/>
  </g>
  <g id="axes_1">
   <g id="patch_2">
    <path d="M 70.7874 227.110617 
L 448.582156 227.110617 
L 448.582156 18.6624 
L 70.7874 18.6624 
z
" style="fill: #e5e5e5"/>
   </g>
   <g id="matplotlib.axis_1">
    <g id="xtick_1">
     <g id="line2d_1">
      <path d="M 103.74972 227.110617 
L 103.74972 18.6624 
" clip-path="url(#p8ffb80cb6e)" style="fill: none; stroke: #ffffff; stroke-width: 0.8; stroke-linecap: square"/>
     </g>
     <g id="line2d_2">
      <defs>
       <path id="m35cf5a7616" d="M 0 0 
L 0 3.5 
" style="stroke: #000000; stroke-width: 0.8"/>
      </defs>
      <g>
       <use xlink:href="#m35cf5a7616" x="103.74972" y="227.110617" style="stroke: #000000; stroke-width: 0.8"/>
      </g>
     </g>
     <g id="text_1">
      <!-- 40 -->
      <g transform="translate(94.58772 245.052367)scale(0.144 -0.144)">
       <defs>
        <path id="DejaVuSans-34" d="M 2419 4116 
L 825 1625 
L 2419 1625 
L 2419 4116 
z
M 2253 4666 
L 3047 4666 
L 3047 1625 
L 3713 1625 
L 3713 1100 
L 3047 1100 
L 3047 0 
L 2419 0 
L 2419 1100 
L 313 1100 
L 313 1709 
L 2253 4666 
z
" transform="scale(0.015625)"/>
        <path id="DejaVuSans-30" d="M 2034 4250 
Q 1547 4250 1301 3770 
Q 1056 3291 1056 2328 
Q 1056 1369 1301 889 
Q 1547 409 2034 409 
Q 2525 409 2770 889 
Q 3016 1369 3016 2328 
Q 3016 3291 2770 3770 
Q 2525 4250 2034 4250 
z
M 2034 4750 
Q 2819 4750 3233 4129 
Q 3647 3509 3647 2328 
Q 3647 1150 3233 529 
Q 2819 -91 2034 -91 
Q 1250 -91 836 529 
Q 422 1150 422 2328 
Q 422 3509 836 4129 
Q 1250 4750 2034 4750 
z
" transform="scale(0.015625)"/>
       </defs>
       <use xlink:href="#DejaVuSans-34"/>
       <use xlink:href="#DejaVuSans-30" x="63.623047"/>
      </g>
     </g>
    </g>
    <g id="xtick_2">
     <g id="line2d_3">
      <path d="M 153.881907 227.110617 
L 153.881907 18.6624 
" clip-path="url(#p8ffb80cb6e)" style="fill: none; stroke: #ffffff; stroke-width: 0.8; stroke-linecap: square"/>
     </g>
     <g id="line2d_4">
      <g>
       <use xlink:href="#m35cf5a7616" x="153.881907" y="227.110617" style="stroke: #000000; stroke-width: 0.8"/>
      </g>
     </g>
     <g id="text_2">
      <!-- 60 -->
      <g transform="translate(144.719907 245.052367)scale(0.144 -0.144)">
       <defs>
        <path id="DejaVuSans-36" d="M 2113 2584 
Q 1688 2584 1439 2293 
Q 1191 2003 1191 1497 
Q 1191 994 1439 701 
Q 1688 409 2113 409 
Q 2538 409 2786 701 
Q 3034 994 3034 1497 
Q 3034 2003 2786 2293 
Q 2538 2584 2113 2584 
z
M 3366 4563 
L 3366 3988 
Q 3128 4100 2886 4159 
Q 2644 4219 2406 4219 
Q 1781 4219 1451 3797 
Q 1122 3375 1075 2522 
Q 1259 2794 1537 2939 
Q 1816 3084 2150 3084 
Q 2853 3084 3261 2657 
Q 3669 2231 3669 1497 
Q 3669 778 3244 343 
Q 2819 -91 2113 -91 
Q 1303 -91 875 529 
Q 447 1150 447 2328 
Q 447 3434 972 4092 
Q 1497 4750 2381 4750 
Q 2619 4750 2861 4703 
Q 3103 4656 3366 4563 
z
" transform="scale(0.015625)"/>
       </defs>
       <use xlink:href="#DejaVuSans-36"/>
       <use xlink:href="#DejaVuSans-30" x="63.623047"/>
      </g>
     </g>
    </g>
    <g id="xtick_3">
     <g id="line2d_5">
      <path d="M 204.014094 227.110617 
L 204.014094 18.6624 
" clip-path="url(#p8ffb80cb6e)" style="fill: none; stroke: #ffffff; stroke-width: 0.8; stroke-linecap: square"/>
     </g>
     <g id="line2d_6">
      <g>
       <use xlink:href="#m35cf5a7616" x="204.014094" y="227.110617" style="stroke: #000000; stroke-width: 0.8"/>
      </g>
     </g>
     <g id="text_3">
      <!-- 80 -->
      <g transform="translate(194.852094 245.052367)scale(0.144 -0.144)">
       <defs>
        <path id="DejaVuSans-38" d="M 2034 2216 
Q 1584 2216 1326 1975 
Q 1069 1734 1069 1313 
Q 1069 891 1326 650 
Q 1584 409 2034 409 
Q 2484 409 2743 651 
Q 3003 894 3003 1313 
Q 3003 1734 2745 1975 
Q 2488 2216 2034 2216 
z
M 1403 2484 
Q 997 2584 770 2862 
Q 544 3141 544 3541 
Q 544 4100 942 4425 
Q 1341 4750 2034 4750 
Q 2731 4750 3128 4425 
Q 3525 4100 3525 3541 
Q 3525 3141 3298 2862 
Q 3072 2584 2669 2484 
Q 3125 2378 3379 2068 
Q 3634 1759 3634 1313 
Q 3634 634 3220 271 
Q 2806 -91 2034 -91 
Q 1263 -91 848 271 
Q 434 634 434 1313 
Q 434 1759 690 2068 
Q 947 2378 1403 2484 
z
M 1172 3481 
Q 1172 3119 1398 2916 
Q 1625 2713 2034 2713 
Q 2441 2713 2670 2916 
Q 2900 3119 2900 3481 
Q 2900 3844 2670 4047 
Q 2441 4250 2034 4250 
Q 1625 4250 1398 4047 
Q 1172 3844 1172 3481 
z
" transform="scale(0.015625)"/>
       </defs>
       <use xlink:href="#DejaVuSans-38"/>
       <use xlink:href="#DejaVuSans-30" x="63.623047"/>
      </g>
     </g>
    </g>
    <g id="xtick_4">
     <g id="line2d_7">
      <path d="M 254.146282 227.110617 
L 254.146282 18.6624 
" clip-path="url(#p8ffb80cb6e)" style="fill: none; stroke: #ffffff; stroke-width: 0.8; stroke-linecap: square"/>
     </g>
     <g id="line2d_8">
      <g>
       <use xlink:href="#m35cf5a7616" x="254.146282" y="227.110617" style="stroke: #000000; stroke-width: 0.8"/>
      </g>
     </g>
     <g id="text_4">
      <!-- 100 -->
      <g transform="translate(240.403282 245.052367)scale(0.144 -0.144)">
       <defs>
        <path id="DejaVuSans-31" d="M 794 531 
L 1825 531 
L 1825 4091 
L 703 3866 
L 703 4441 
L 1819 4666 
L 2450 4666 
L 2450 531 
L 3481 531 
L 3481 0 
L 794 0 
L 794 531 
z
" transform="scale(0.015625)"/>
       </defs>
       <use xlink:href="#DejaVuSans-31"/>
       <use xlink:href="#DejaVuSans-30" x="63.623047"/>
       <use xlink:href="#DejaVuSans-30" x="127.246094"/>
      </g>
     </g>
    </g>
    <g id="xtick_5">
     <g id="line2d_9">
      <path d="M 304.278469 227.110617 
L 304.278469 18.6624 
" clip-path="url(#p8ffb80cb6e)" style="fill: none; stroke: #ffffff; stroke-width: 0.8; stroke-linecap: square"/>
     </g>
     <g id="line2d_10">
      <g>
       <use xlink:href="#m35cf5a7616" x="304.278469" y="227.110617" style="stroke: #000000; stroke-width: 0.8"/>
      </g>
     </g>
     <g id="text_5">
      <!-- 120 -->
      <g transform="translate(290.535469 245.052367)scale(0.144 -0.144)">
       <defs>
        <path id="DejaVuSans-32" d="M 1228 531 
L 3431 531 
L 3431 0 
L 469 0 
L 469 531 
Q 828 903 1448 1529 
Q 2069 2156 2228 2338 
Q 2531 2678 2651 2914 
Q 2772 3150 2772 3378 
Q 2772 3750 2511 3984 
Q 2250 4219 1831 4219 
Q 1534 4219 1204 4116 
Q 875 4013 500 3803 
L 500 4441 
Q 881 4594 1212 4672 
Q 1544 4750 1819 4750 
Q 2544 4750 2975 4387 
Q 3406 4025 3406 3419 
Q 3406 3131 3298 2873 
Q 3191 2616 2906 2266 
Q 2828 2175 2409 1742 
Q 1991 1309 1228 531 
z
" transform="scale(0.015625)"/>
       </defs>
       <use xlink:href="#DejaVuSans-31"/>
       <use xlink:href="#DejaVuSans-32" x="63.623047"/>
       <use xlink:href="#DejaVuSans-30" x="127.246094"/>
      </g>
     </g>
    </g>
    <g id="xtick_6">
     <g id="line2d_11">
      <path d="M 354.410656 227.110617 
L 354.410656 18.6624 
" clip-path="url(#p8ffb80cb6e)" style="fill: none; stroke: #ffffff; stroke-width: 0.8; stroke-linecap: square"/>
     </g>
     <g id="line2d_12">
      <g>
       <use xlink:href="#m35cf5a7616" x="354.410656" y="227.110617" style="stroke: #000000; stroke-width: 0.8"/>
      </g>
     </g>
     <g id="text_6">
      <!-- 140 -->
      <g transform="translate(340.667656 245.052367)scale(0.144 -0.144)">
       <use xlink:href="#DejaVuSans-31"/>
       <use xlink:href="#DejaVuSans-34" x="63.623047"/>
       <use xlink:href="#DejaVuSans-30" x="127.246094"/>
      </g>
     </g>
    </g>
    <g id="xtick_7">
     <g id="line2d_13">
      <path d="M 404.542843 227.110617 
L 404.542843 18.6624 
" clip-path="url(#p8ffb80cb6e)" style="fill: none; stroke: #ffffff; stroke-width: 0.8; stroke-linecap: square"/>
     </g>
     <g id="line2d_14">
      <g>
       <use xlink:href="#m35cf5a7616" x="404.542843" y="227.110617" style="stroke: #000000; stroke-width: 0.8"/>
      </g>
     </g>
     <g id="text_7">
      <!-- 160 -->
      <g transform="translate(390.799843 245.052367)scale(0.144 -0.144)">
       <use xlink:href="#DejaVuSans-31"/>
       <use xlink:href="#DejaVuSans-36" x="63.623047"/>
       <use xlink:href="#DejaVuSans-30" x="127.246094"/>
      </g>
     </g>
    </g>
    <g id="text_8">
     <!-- $\tau$ -->
     <g transform="translate(254.414378 265.177217)scale(0.1728 -0.1728)">
      <defs>
       <path id="DejaVuSans-Oblique-3c4" d="M 2103 638 
Q 2188 488 2525 488 
L 2800 488 
L 2706 0 
L 2363 0 
Q 1800 0 1600 300 
Q 1403 606 1534 1269 
L 1856 2925 
L 541 2925 
L 653 3500 
L 3881 3500 
L 3769 2925 
L 2444 2925 
L 2113 1234 
Q 2025 781 2103 638 
z
" transform="scale(0.015625)"/>
      </defs>
      <use xlink:href="#DejaVuSans-Oblique-3c4" transform="translate(0 0.3125)"/>
     </g>
    </g>
   </g>
   <g id="matplotlib.axis_2">
    <g id="ytick_1">
     <g id="line2d_15">
      <path d="M 70.7874 195.851644 
L 448.582156 195.851644 
" clip-path="url(#p8ffb80cb6e)" style="fill: none; stroke: #ffffff; stroke-width: 0.8; stroke-linecap: square"/>
     </g>
     <g id="line2d_16">
      <defs>
       <path id="m954c4f1002" d="M 0 0 
L -3.5 0 
" style="stroke: #000000; stroke-width: 0.8"/>
      </defs>
      <g>
       <use xlink:href="#m954c4f1002" x="70.7874" y="195.851644" style="stroke: #000000; stroke-width: 0.8"/>
      </g>
     </g>
     <g id="text_9">
      <!-- −4 -->
      <g transform="translate(42.55865 201.322519)scale(0.144 -0.144)">
       <defs>
        <path id="DejaVuSans-2212" d="M 678 2272 
L 4684 2272 
L 4684 1741 
L 678 1741 
L 678 2272 
z
" transform="scale(0.015625)"/>
       </defs>
       <use xlink:href="#DejaVuSans-2212"/>
       <use xlink:href="#DejaVuSans-34" x="83.789062"/>
      </g>
     </g>
    </g>
    <g id="ytick_2">
     <g id="line2d_17">
      <path d="M 70.7874 159.281337 
L 448.582156 159.281337 
" clip-path="url(#p8ffb80cb6e)" style="fill: none; stroke: #ffffff; stroke-width: 0.8; stroke-linecap: square"/>
     </g>
     <g id="line2d_18">
      <g>
       <use xlink:href="#m954c4f1002" x="70.7874" y="159.281337" style="stroke: #000000; stroke-width: 0.8"/>
      </g>
     </g>
     <g id="text_10">
      <!-- −3 -->
      <g transform="translate(42.55865 164.752212)scale(0.144 -0.144)">
       <defs>
        <path id="DejaVuSans-33" d="M 2597 2516 
Q 3050 2419 3304 2112 
Q 3559 1806 3559 1356 
Q 3559 666 3084 287 
Q 2609 -91 1734 -91 
Q 1441 -91 1130 -33 
Q 819 25 488 141 
L 488 750 
Q 750 597 1062 519 
Q 1375 441 1716 441 
Q 2309 441 2620 675 
Q 2931 909 2931 1356 
Q 2931 1769 2642 2001 
Q 2353 2234 1838 2234 
L 1294 2234 
L 1294 2753 
L 1863 2753 
Q 2328 2753 2575 2939 
Q 2822 3125 2822 3475 
Q 2822 3834 2567 4026 
Q 2313 4219 1838 4219 
Q 1578 4219 1281 4162 
Q 984 4106 628 3988 
L 628 4550 
Q 988 4650 1302 4700 
Q 1616 4750 1894 4750 
Q 2613 4750 3031 4423 
Q 3450 4097 3450 3541 
Q 3450 3153 3228 2886 
Q 3006 2619 2597 2516 
z
" transform="scale(0.015625)"/>
       </defs>
       <use xlink:href="#DejaVuSans-2212"/>
       <use xlink:href="#DejaVuSans-33" x="83.789062"/>
      </g>
     </g>
    </g>
    <g id="ytick_3">
     <g id="line2d_19">
      <path d="M 70.7874 122.711031 
L 448.582156 122.711031 
" clip-path="url(#p8ffb80cb6e)" style="fill: none; stroke: #ffffff; stroke-width: 0.8; stroke-linecap: square"/>
     </g>
     <g id="line2d_20">
      <g>
       <use xlink:href="#m954c4f1002" x="70.7874" y="122.711031" style="stroke: #000000; stroke-width: 0.8"/>
      </g>
     </g>
     <g id="text_11">
      <!-- −2 -->
      <g transform="translate(42.55865 128.181906)scale(0.144 -0.144)">
       <use xlink:href="#DejaVuSans-2212"/>
       <use xlink:href="#DejaVuSans-32" x="83.789062"/>
      </g>
     </g>
    </g>
    <g id="ytick_4">
     <g id="line2d_21">
      <path d="M 70.7874 86.140724 
L 448.582156 86.140724 
" clip-path="url(#p8ffb80cb6e)" style="fill: none; stroke: #ffffff; stroke-width: 0.8; stroke-linecap: square"/>
     </g>
     <g id="line2d_22">
      <g>
       <use xlink:href="#m954c4f1002" x="70.7874" y="86.140724" style="stroke: #000000; stroke-width: 0.8"/>
      </g>
     </g>
     <g id="text_12">
      <!-- −1 -->
      <g transform="translate(42.55865 91.611599)scale(0.144 -0.144)">
       <use xlink:href="#DejaVuSans-2212"/>
       <use xlink:href="#DejaVuSans-31" x="83.789062"/>
      </g>
     </g>
    </g>
    <g id="ytick_5">
     <g id="line2d_23">
      <path d="M 70.7874 49.570417 
L 448.582156 49.570417 
" clip-path="url(#p8ffb80cb6e)" style="fill: none; stroke: #ffffff; stroke-width: 0.8; stroke-linecap: square"/>
     </g>
     <g id="line2d_24">
      <g>
       <use xlink:href="#m954c4f1002" x="70.7874" y="49.570417" style="stroke: #000000; stroke-width: 0.8"/>
      </g>
     </g>
     <g id="text_13">
      <!-- 0 -->
      <g transform="translate(54.6254 55.041292)scale(0.144 -0.144)">
       <use xlink:href="#DejaVuSans-30"/>
      </g>
     </g>
    </g>
    <g id="text_14">
     <!-- $\langle{H}\rangle_\tau-\langle{H}\rangle_0$ -->
     <g transform="translate(34.96495 168.160108)rotate(-90)scale(0.1728 -0.1728)">
      <defs>
       <path id="DejaVuSans-27e8" d="M 572 2006 
L 1453 4856 
L 1984 4856 
L 1103 2006 
L 1984 -844 
L 1453 -844 
L 572 2006 
z
" transform="scale(0.015625)"/>
       <path id="DejaVuSans-Oblique-48" d="M 1081 4666 
L 1716 4666 
L 1344 2753 
L 3634 2753 
L 4006 4666 
L 4641 4666 
L 3731 0 
L 3097 0 
L 3531 2222 
L 1241 2222 
L 806 0 
L 172 0 
L 1081 4666 
z
" transform="scale(0.015625)"/>
       <path id="DejaVuSans-27e9" d="M 1925 2006 
L 1044 -844 
L 513 -844 
L 1394 2006 
L 513 4856 
L 1044 4856 
L 1925 2006 
z
" transform="scale(0.015625)"/>
      </defs>
      <use xlink:href="#DejaVuSans-27e8" transform="translate(0 0.125)"/>
      <use xlink:href="#DejaVuSans-Oblique-48" transform="translate(39.013672 0.125)"/>
      <use xlink:href="#DejaVuSans-27e9" transform="translate(114.208984 0.125)"/>
      <use xlink:href="#DejaVuSans-Oblique-3c4" transform="translate(154.179688 -16.28125)scale(0.7)"/>
      <use xlink:href="#DejaVuSans-2212" transform="translate(218.540039 0.125)"/>
      <use xlink:href="#DejaVuSans-27e8" transform="translate(321.811523 0.125)"/>
      <use xlink:href="#DejaVuSans-Oblique-48" transform="translate(360.825195 0.125)"/>
      <use xlink:href="#DejaVuSans-27e9" transform="translate(436.020508 0.125)"/>
      <use xlink:href="#DejaVuSans-30" transform="translate(475.991211 -16.28125)scale(0.7)"/>
     </g>
    </g>
   </g>
   <g id="PolyCollection_1">
    <defs>
     <path id="m5bdbca2f85" d="M 87.959889 -204.277699 
L 87.959889 -208.613684 
L 88.192802 -207.014332 
L 88.44349 -198.177591 
L 88.694178 -210.699465 
L 88.944866 -250.081783 
L 89.195554 -248.648026 
L 89.421173 -199.460515 
L 89.671861 -153.099107 
L 89.922549 -165.339551 
L 90.173237 -221.821509 
L 90.423925 -260.49671 
L 90.674613 -239.221187 
L 90.900232 -186.273624 
L 91.15092 -148.978629 
L 91.401608 -172.734179 
L 91.652296 -231.292097 
L 91.902984 -260.635698 
L 92.153672 -228.54098 
L 92.379291 -175.560194 
L 92.629979 -148.95756 
L 92.880667 -182.764638 
L 93.131355 -240.246468 
L 93.382043 -258.459329 
L 93.632731 -216.6351 
L 93.85835 -164.355852 
L 94.109038 -148.458582 
L 94.359726 -192.165125 
L 94.610414 -247.189342 
L 94.861102 -253.600167 
L 95.11179 -203.461947 
L 95.337409 -155.334143 
L 95.588097 -151.699246 
L 95.838785 -201.447232 
L 96.089473 -250.182766 
L 96.340161 -244.386832 
L 96.56578 -195.861237 
L 96.816468 -148.389598 
L 97.067156 -156.704937 
L 97.317844 -211.006223 
L 97.568531 -252.006797 
L 97.819219 -234.344165 
L 98.044839 -182.776813 
L 98.295527 -143.289645 
L 98.546214 -163.487742 
L 98.796902 -221.355882 
L 99.04759 -253.67787 
L 99.298278 -224.769173 
L 99.523897 -171.379937 
L 99.774585 -147.215014 
L 100.025273 -181.159293 
L 100.275961 -206.791313 
L 100.526649 -200.287545 
L 100.777337 -196.225979 
L 101.002956 -196.209944 
L 101.253644 -196.209944 
L 101.504332 -196.209944 
L 101.75502 -196.209944 
L 102.005708 -196.209944 
L 102.256396 -196.209944 
L 102.482015 -196.209944 
L 102.732703 -196.209944 
L 102.983391 -196.209944 
L 103.234079 -196.209944 
L 103.484767 -196.209944 
L 103.710386 -196.209944 
L 103.961074 -196.209944 
L 104.211762 -196.209944 
L 104.46245 -196.209944 
L 104.713138 -196.209944 
L 104.963826 -196.209944 
L 105.189445 -196.209944 
L 105.440133 -196.209944 
L 105.690821 -196.209944 
L 105.941509 -196.209944 
L 106.192197 -196.209944 
L 106.442885 -196.209944 
L 106.668504 -196.209944 
L 106.919192 -196.209944 
L 107.16988 -196.209944 
L 107.420568 -196.209944 
L 107.671256 -196.209944 
L 107.921944 -196.209944 
L 108.147563 -196.209944 
L 108.398251 -196.209944 
L 108.648939 -196.209944 
L 108.899627 -196.209944 
L 109.150315 -196.209944 
L 109.401002 -196.209944 
L 109.626622 -196.209944 
L 109.87731 -196.209944 
L 110.127997 -196.209944 
L 110.378685 -196.209944 
L 110.629373 -196.209944 
L 110.86824 -196.209944 
L 111.10568 -196.209944 
L 111.356368 -196.209944 
L 111.607056 -196.209944 
L 111.857744 -196.209944 
L 112.108432 -196.209944 
L 112.334051 -196.209944 
L 112.584739 -196.209944 
L 112.835427 -196.209944 
L 113.086115 -196.209944 
L 113.336803 -196.209944 
L 113.587491 -196.209944 
L 113.81311 -196.209944 
L 114.063798 -196.209944 
L 114.314486 -196.209944 
L 114.565174 -196.209944 
L 114.815862 -196.209944 
L 115.06655 -196.209944 
L 115.292169 -196.209944 
L 115.542857 -196.209944 
L 115.793545 -196.209944 
L 116.044233 -196.209944 
L 116.294921 -196.209944 
L 116.545609 -196.209944 
L 116.771228 -196.209944 
L 117.021916 -196.209944 
L 117.272604 -196.209944 
L 117.523292 -196.209944 
L 117.77398 -196.209944 
L 118.024668 -196.209944 
L 118.250287 -196.209944 
L 118.500975 -196.209944 
L 118.751663 -196.209944 
L 119.002351 -196.209944 
L 119.253039 -196.209944 
L 119.478658 -196.209944 
L 119.729346 -196.209944 
L 119.980034 -196.209944 
L 120.230722 -196.209944 
L 120.48141 -196.209944 
L 120.732098 -196.209944 
L 120.957717 -196.209944 
L 121.208405 -196.209944 
L 121.459093 -196.209944 
L 121.709781 -196.209944 
L 121.960468 -196.209944 
L 122.211156 -196.209944 
L 122.436776 -196.209944 
L 122.687464 -196.209944 
L 122.938151 -196.209944 
L 123.188839 -196.209944 
L 123.439527 -196.209944 
L 123.690215 -196.209944 
L 123.915834 -196.209944 
L 124.166522 -196.209944 
L 124.41721 -196.209944 
L 124.667898 -196.209944 
L 124.918586 -196.209944 
L 125.169274 -196.209944 
L 125.394893 -196.209944 
L 125.645581 -196.209944 
L 125.896269 -196.209944 
L 126.146957 -196.209944 
L 126.397645 -196.209944 
L 126.623264 -196.209944 
L 126.873952 -196.209944 
L 127.12464 -196.209944 
L 127.375328 -196.209944 
L 127.626016 -196.209944 
L 127.876704 -196.209944 
L 128.102323 -196.209944 
L 128.353011 -196.209944 
L 128.603699 -196.209944 
L 128.854387 -196.209944 
L 129.105075 -196.209944 
L 129.355763 -196.209944 
L 129.581382 -196.209944 
L 129.83207 -196.209944 
L 130.082758 -196.209944 
L 130.333446 -196.209944 
L 130.584134 -196.209944 
L 130.834822 -196.209944 
L 131.060441 -196.209944 
L 131.311129 -196.209944 
L 131.561817 -196.209944 
L 131.812505 -196.209944 
L 132.063193 -196.209944 
L 132.313881 -196.209944 
L 132.5395 -196.209944 
L 132.790188 -196.209944 
L 133.040876 -196.209944 
L 133.291564 -196.209944 
L 133.542252 -196.209944 
L 133.77659 -196.209944 
L 134.018559 -196.209944 
L 134.269247 -196.209944 
L 134.519934 -196.209944 
L 134.770622 -196.209944 
L 135.02131 -196.209944 
L 135.24693 -196.209944 
L 135.497617 -196.209944 
L 135.748305 -196.209944 
L 135.998993 -196.209944 
L 136.249681 -196.209944 
L 136.500369 -196.209944 
L 136.725988 -196.209944 
L 136.976676 -196.209944 
L 137.227364 -196.209944 
L 137.478052 -196.209944 
L 137.72874 -196.209944 
L 137.979428 -196.209944 
L 138.205047 -196.209944 
L 138.455735 -196.209944 
L 138.706423 -196.209944 
L 138.957111 -196.209944 
L 139.207799 -196.209944 
L 139.458487 -196.209944 
L 139.684106 -196.209944 
L 139.934794 -196.209944 
L 140.185482 -196.209944 
L 140.43617 -196.209944 
L 140.686858 -196.209944 
L 140.93545 -196.209944 
L 141.163165 -196.209944 
L 141.413853 -196.209944 
L 141.664541 -196.209944 
L 141.915229 -196.209944 
L 142.165917 -196.209944 
L 142.391536 -196.209944 
L 142.642224 -196.209944 
L 142.892912 -196.209944 
L 143.1436 -196.209944 
L 143.394288 -196.209944 
L 143.644976 -196.209944 
L 143.870595 -196.209944 
L 144.121283 -196.209944 
L 144.371971 -196.209944 
L 144.622659 -196.209944 
L 144.873347 -196.209944 
L 145.124035 -196.209944 
L 145.349654 -196.064574 
L 145.600342 -189.763306 
L 145.85103 -187.048075 
L 146.101718 -219.68021 
L 146.352405 -245.457065 
L 146.603093 -208.961455 
L 146.828713 -156.929716 
L 147.079401 -140.01719 
L 147.330088 -182.10479 
L 147.580776 -236.789846 
L 147.831464 -244.494452 
L 148.082152 -195.094235 
L 148.307771 -145.671654 
L 148.558459 -140.597911 
L 148.809147 -190.249711 
L 149.059835 -240.123106 
L 149.310523 -235.557099 
L 149.536142 -186.096436 
L 149.78683 -136.123569 
L 150.037518 -143.504638 
L 150.288206 -199.505838 
L 150.538894 -242.769582 
L 150.789582 -226.02968 
L 151.015201 -172.961755 
L 151.265889 -131.259464 
L 151.516577 -150.571402 
L 151.767265 -208.756068 
L 152.017953 -242.643731 
L 152.268641 -214.461916 
L 152.49426 -160.258031 
L 152.744948 -128.800927 
L 152.995636 -158.915084 
L 153.246324 -217.416265 
L 153.497012 -240.76453 
L 153.7477 -202.722529 
L 153.973319 -149.636568 
L 154.224007 -129.164461 
L 154.474695 -169.077366 
L 154.725383 -225.336675 
L 154.976071 -236.703598 
L 155.226759 -190.019025 
L 155.452378 -140.366573 
L 155.703066 -131.816269 
L 155.953754 -178.902358 
L 156.204442 -230.593028 
L 156.45513 -229.815012 
L 156.684941 -181.683595 
L 156.931437 -133.92169 
L 157.182125 -145.799073 
L 157.432813 -184.163821 
L 157.683501 -189.655271 
L 157.934189 -181.860621 
L 158.159808 -181.197217 
L 158.410496 -181.197214 
L 158.661184 -181.197214 
L 158.911872 -181.197214 
L 159.162559 -181.197214 
L 159.413247 -181.197214 
L 159.638867 -181.197214 
L 159.889554 -181.197214 
L 160.140242 -181.197214 
L 160.39093 -181.197214 
L 160.641618 -181.197214 
L 160.892306 -181.197214 
L 161.117925 -181.197214 
L 161.368613 -181.197214 
L 161.619301 -181.197214 
L 161.869989 -181.197214 
L 162.120677 -181.197214 
L 162.371365 -181.197214 
L 162.596984 -181.197214 
L 162.847672 -181.197214 
L 163.09836 -181.197214 
L 163.349048 -181.197214 
L 163.599736 -181.197214 
L 163.8438 -181.197214 
L 164.076043 -181.197214 
L 164.326731 -181.197214 
L 164.577419 -181.197214 
L 164.828107 -181.197214 
L 165.078795 -181.197214 
L 165.304414 -181.197214 
L 165.555102 -181.197214 
L 165.80579 -181.197214 
L 166.056478 -181.197214 
L 166.307166 -181.197214 
L 166.557854 -181.197214 
L 166.783473 -181.197214 
L 167.034161 -181.197214 
L 167.284849 -181.197214 
L 167.535537 -181.197214 
L 167.786225 -181.197214 
L 168.036913 -181.197214 
L 168.262532 -181.197214 
L 168.51322 -181.197214 
L 168.763908 -181.197214 
L 169.014596 -181.197214 
L 169.265284 -181.197214 
L 169.515972 -181.197214 
L 169.741591 -181.197214 
L 169.992279 -181.197214 
L 170.242967 -181.197214 
L 170.493655 -181.197214 
L 170.744342 -181.197214 
L 170.99503 -181.197214 
L 171.22065 -181.197214 
L 171.471338 -181.197214 
L 171.722025 -181.197214 
L 171.972713 -181.197214 
L 172.223401 -181.197214 
L 172.449021 -181.197214 
L 172.699708 -181.197214 
L 172.950396 -181.197214 
L 173.201084 -181.197214 
L 173.451772 -181.197214 
L 173.70246 -181.197214 
L 173.928079 -181.197214 
L 174.178767 -181.197214 
L 174.429455 -181.197214 
L 174.680143 -181.197214 
L 174.930831 -181.197214 
L 175.181519 -181.197214 
L 175.407138 -181.197214 
L 175.657826 -181.197214 
L 175.908514 -181.197214 
L 176.159202 -181.197214 
L 176.40989 -181.197214 
L 176.660578 -181.197214 
L 176.886197 -181.197214 
L 177.136885 -181.197214 
L 177.387573 -181.197214 
L 177.638261 -181.197214 
L 177.888949 -181.197214 
L 178.139637 -181.197214 
L 178.365256 -181.197214 
L 178.615944 -181.197214 
L 178.866632 -181.197214 
L 179.11732 -181.197214 
L 179.368008 -181.197214 
L 179.593627 -181.197214 
L 179.844315 -181.197214 
L 180.095003 -181.197214 
L 180.345691 -181.197214 
L 180.596379 -181.197214 
L 180.847067 -181.197214 
L 181.072686 -181.197214 
L 181.323374 -181.197214 
L 181.574062 -181.197214 
L 181.82475 -181.197214 
L 182.075438 -181.197214 
L 182.326126 -181.197214 
L 182.551745 -181.197214 
L 182.802433 -181.197214 
L 183.053121 -181.197214 
L 183.303809 -181.197214 
L 183.554496 -181.197214 
L 183.805184 -181.197214 
L 184.030804 -181.197214 
L 184.281492 -181.197214 
L 184.532179 -181.197214 
L 184.782867 -181.197214 
L 185.033555 -181.197214 
L 185.284243 -181.197214 
L 185.509862 -181.197214 
L 185.76055 -181.197214 
L 186.011238 -181.197214 
L 186.261926 -181.197214 
L 186.512614 -181.197214 
L 186.752151 -181.197214 
L 186.988921 -181.197214 
L 187.239609 -181.197214 
L 187.490297 -181.197214 
L 187.740985 -181.197214 
L 187.991673 -181.197214 
L 188.217292 -181.197214 
L 188.46798 -181.197214 
L 188.718668 -181.197214 
L 188.969356 -181.197214 
L 189.220044 -181.197214 
L 189.470732 -181.197214 
L 189.696351 -181.197214 
L 189.947039 -181.197214 
L 190.197727 -181.197214 
L 190.448415 -181.197214 
L 190.699103 -181.197214 
L 190.949791 -181.197214 
L 191.17541 -181.197214 
L 191.426098 -181.197214 
L 191.676786 -181.197214 
L 191.927474 -181.197214 
L 192.178162 -181.197214 
L 192.42885 -181.197214 
L 192.654469 -181.197214 
L 192.905157 -181.197214 
L 193.155845 -181.197214 
L 193.406533 -181.197214 
L 193.657221 -181.197214 
L 193.907909 -181.197214 
L 194.133528 -181.197214 
L 194.384216 -181.197214 
L 194.634904 -181.197214 
L 194.885592 -181.197214 
L 195.13628 -181.197214 
L 195.361899 -181.197214 
L 195.612587 -181.197214 
L 195.863275 -181.197214 
L 196.113962 -181.197214 
L 196.36465 -181.197214 
L 196.615338 -181.197214 
L 196.840958 -181.197214 
L 197.091645 -181.197214 
L 197.342333 -181.197214 
L 197.593021 -181.197214 
L 197.843709 -181.197214 
L 198.094397 -181.197214 
L 198.320016 -181.197214 
L 198.570704 -181.197214 
L 198.821392 -181.197214 
L 199.07208 -181.197214 
L 199.322768 -181.197214 
L 199.573456 -181.197214 
L 199.799075 -181.197214 
L 200.049763 -181.197214 
L 200.300451 -181.197214 
L 200.551139 -181.197214 
L 200.801827 -181.197214 
L 201.052515 -181.197214 
L 201.278134 -181.197214 
L 201.528822 -181.197214 
L 201.77951 -181.197214 
L 202.030198 -181.197214 
L 202.280886 -181.197214 
L 202.506505 -181.197212 
L 202.757193 -179.03884 
L 203.007881 -170.398857 
L 203.258569 -186.312464 
L 203.509257 -225.171238 
L 203.759945 -217.531409 
L 203.985564 -165.91508 
L 204.236252 -122.988371 
L 204.48694 -141.422597 
L 204.737628 -200.741017 
L 204.988316 -236.029116 
L 205.239004 -209.183641 
L 205.464623 -154.739608 
L 205.715311 -121.650836 
L 205.965999 -151.120459 
L 206.216687 -210.48342 
L 206.467375 -234.937432 
L 206.718063 -197.996593 
L 206.943682 -144.900813 
L 207.19437 -123.038908 
L 207.445058 -162.423024 
L 207.695746 -219.935862 
L 207.946433 -232.799334 
L 208.197121 -186.880736 
L 208.422741 -135.975971 
L 208.673429 -125.893178 
L 208.924116 -173.425467 
L 209.174804 -226.023385 
L 209.425492 -226.65533 
L 209.660502 -178.441709 
L 209.901799 -129.466899 
L 210.152487 -131.662797 
L 210.403175 -183.774145 
L 210.653863 -228.64649 
L 210.904551 -217.152939 
L 211.13017 -167.125597 
L 211.380858 -123.770939 
L 211.631546 -137.361241 
L 211.882234 -191.837571 
L 212.132922 -228.010995 
L 212.38361 -205.146294 
L 212.609229 -153.381413 
L 212.859917 -119.090205 
L 213.110605 -143.423233 
L 213.361293 -199.203938 
L 213.611981 -225.754028 
L 213.862669 -192.767425 
L 214.088288 -141.776494 
L 214.338976 -124.241251 
L 214.589664 -159.426078 
L 214.840352 -181.403672 
L 215.09104 -174.544083 
L 215.341728 -171.2705 
L 215.567347 -171.26706 
L 215.818035 -171.26706 
L 216.068723 -171.26706 
L 216.319411 -171.26706 
L 216.570099 -171.26706 
L 216.819361 -171.26706 
L 217.046406 -171.26706 
L 217.297094 -171.26706 
L 217.547782 -171.26706 
L 217.79847 -171.26706 
L 218.049158 -171.26706 
L 218.274777 -171.26706 
L 218.525465 -171.26706 
L 218.776153 -171.26706 
L 219.026841 -171.26706 
L 219.277529 -171.26706 
L 219.528217 -171.26706 
L 219.753836 -171.26706 
L 220.004524 -171.26706 
L 220.255212 -171.26706 
L 220.505899 -171.26706 
L 220.756587 -171.26706 
L 221.007275 -171.26706 
L 221.232895 -171.26706 
L 221.483582 -171.26706 
L 221.73427 -171.26706 
L 221.984958 -171.26706 
L 222.235646 -171.26706 
L 222.486334 -171.26706 
L 222.711953 -171.26706 
L 222.962641 -171.26706 
L 223.213329 -171.26706 
L 223.464017 -171.26706 
L 223.714705 -171.26706 
L 223.965393 -171.26706 
L 224.191012 -171.26706 
L 224.4417 -171.26706 
L 224.692388 -171.26706 
L 224.943076 -171.26706 
L 225.193764 -171.26706 
L 225.419383 -171.26706 
L 225.670071 -171.26706 
L 225.920759 -171.26706 
L 226.171447 -171.26706 
L 226.422135 -171.26706 
L 226.672823 -171.26706 
L 226.898442 -171.26706 
L 227.14913 -171.26706 
L 227.399818 -171.26706 
L 227.650506 -171.26706 
L 227.901194 -171.26706 
L 228.151882 -171.26706 
L 228.377501 -171.26706 
L 228.628189 -171.26706 
L 228.878877 -171.26706 
L 229.129565 -171.26706 
L 229.380253 -171.26706 
L 229.630941 -171.26706 
L 229.85656 -171.26706 
L 230.107248 -171.26706 
L 230.357936 -171.26706 
L 230.608624 -171.26706 
L 230.859312 -171.26706 
L 231.11 -171.26706 
L 231.335619 -171.26706 
L 231.586307 -171.26706 
L 231.836995 -171.26706 
L 232.087683 -171.26706 
L 232.33837 -171.26706 
L 232.568852 -171.26706 
L 232.814678 -171.26706 
L 233.065366 -171.26706 
L 233.316053 -171.26706 
L 233.566741 -171.26706 
L 233.817429 -171.26706 
L 234.043049 -171.26706 
L 234.293736 -171.26706 
L 234.544424 -171.26706 
L 234.795112 -171.26706 
L 235.0458 -171.26706 
L 235.296488 -171.26706 
L 235.522107 -171.26706 
L 235.772795 -171.26706 
L 236.023483 -171.26706 
L 236.274171 -171.26706 
L 236.524859 -171.26706 
L 236.775547 -171.26706 
L 237.001166 -171.26706 
L 237.251854 -171.26706 
L 237.502542 -171.26706 
L 237.75323 -171.26706 
L 238.003918 -171.26706 
L 238.254606 -171.26706 
L 238.480225 -171.26706 
L 238.730913 -171.26706 
L 238.981601 -171.26706 
L 239.232289 -171.26706 
L 239.482977 -171.26706 
L 239.727712 -171.26706 
L 239.959284 -171.26706 
L 240.209972 -171.26706 
L 240.46066 -171.26706 
L 240.711348 -171.26706 
L 240.962036 -171.26706 
L 241.187655 -171.26706 
L 241.438343 -171.26706 
L 241.689031 -171.26706 
L 241.939719 -171.26706 
L 242.190407 -171.26706 
L 242.441095 -171.26706 
L 242.666714 -171.26706 
L 242.917402 -171.26706 
L 243.16809 -171.26706 
L 243.418778 -171.26706 
L 243.669466 -171.26706 
L 243.920154 -171.26706 
L 244.145773 -171.26706 
L 244.396461 -171.26706 
L 244.647149 -171.26706 
L 244.897837 -171.26706 
L 245.148524 -171.26706 
L 245.399212 -171.26706 
L 245.624832 -171.26706 
L 245.875519 -171.26706 
L 246.126207 -171.26706 
L 246.376895 -171.26706 
L 246.627583 -171.26706 
L 246.878271 -171.26706 
L 247.10389 -171.26706 
L 247.354578 -171.26706 
L 247.605266 -171.26706 
L 247.855954 -171.26706 
L 248.106642 -171.26706 
L 248.332261 -171.26706 
L 248.582949 -171.26706 
L 248.833637 -171.26706 
L 249.084325 -171.26706 
L 249.335013 -171.26706 
L 249.585701 -171.26706 
L 249.81132 -171.26706 
L 250.062008 -171.26706 
L 250.312696 -171.26706 
L 250.563384 -171.26706 
L 250.814072 -171.26706 
L 251.06476 -171.26706 
L 251.290379 -171.26706 
L 251.541067 -171.26706 
L 251.791755 -171.26706 
L 252.042443 -171.26706 
L 252.293131 -171.26706 
L 252.543819 -171.26706 
L 252.769438 -171.26706 
L 253.020126 -171.26706 
L 253.270814 -171.26706 
L 253.521502 -171.26706 
L 253.77219 -171.26706 
L 254.022878 -171.26706 
L 254.248497 -171.26706 
L 254.499185 -171.26706 
L 254.749873 -171.26706 
L 255.000561 -171.26706 
L 255.251249 -171.26706 
L 255.477203 -171.26706 
L 255.727556 -171.26706 
L 255.978244 -171.26706 
L 256.228932 -171.26706 
L 256.47962 -171.26706 
L 256.730307 -171.26706 
L 256.955927 -171.26706 
L 257.206615 -171.26706 
L 257.457303 -171.26706 
L 257.70799 -171.26706 
L 257.958678 -171.26706 
L 258.209366 -171.26706 
L 258.434986 -171.26706 
L 258.685673 -171.26706 
L 258.936361 -171.26706 
L 259.187049 -171.26706 
L 259.437737 -171.26706 
L 259.688425 -171.26706 
L 259.914044 -170.998501 
L 260.164732 -164.136992 
L 260.41542 -163.934742 
L 260.666108 -198.58723 
L 260.916796 -219.311344 
L 261.167484 -178.684828 
L 261.393103 -129.388162 
L 261.643791 -118.493364 
L 261.894479 -162.386337 
L 262.145167 -212.973361 
L 262.395855 -214.822895 
L 262.636063 -167.286084 
L 262.872162 -119.870249 
L 263.12285 -120.715967 
L 263.373538 -171.556053 
L 263.624226 -216.462842 
L 263.874914 -206.61703 
L 264.100533 -157.64938 
L 264.351221 -113.324001 
L 264.601909 -125.857199 
L 264.852597 -180.158594 
L 265.103285 -216.895862 
L 265.353973 -195.680746 
L 265.579592 -144.445505 
L 265.83028 -109.215058 
L 266.080968 -132.619393 
L 266.331656 -188.469946 
L 266.582344 -216.046814 
L 266.833032 -184.354607 
L 267.058651 -133.021296 
L 267.309339 -107.92287 
L 267.560027 -141.094836 
L 267.810715 -196.2359 
L 268.061403 -213.143494 
L 268.312091 -171.891565 
L 268.53771 -121.278786 
L 268.788398 -106.789831 
L 269.039086 -149.351407 
L 269.289774 -202.56127 
L 269.540461 -208.068411 
L 269.791149 -159.145237 
L 270.016769 -112.290666 
L 270.267457 -109.569217 
L 270.518144 -159.466177 
L 270.768832 -207.37875 
L 271.01952 -200.863106 
L 271.245139 -152.463672 
L 271.495827 -108.029975 
L 271.746515 -125.315653 
L 271.997203 -161.71044 
L 272.247891 -164.083346 
L 272.498579 -156.674006 
L 272.724198 -156.265155 
L 272.974886 -156.265156 
L 273.225574 -156.265156 
L 273.476262 -156.265156 
L 273.72695 -156.265156 
L 273.977638 -156.265156 
L 274.203257 -156.265156 
L 274.453945 -156.265156 
L 274.704633 -156.265156 
L 274.955321 -156.265156 
L 275.206009 -156.265156 
L 275.456697 -156.265156 
L 275.682316 -156.265156 
L 275.933004 -156.265156 
L 276.183692 -156.265156 
L 276.43438 -156.265156 
L 276.685068 -156.265156 
L 276.935756 -156.265156 
L 277.161375 -156.265156 
L 277.412063 -156.265156 
L 277.662751 -156.265156 
L 277.913439 -156.265156 
L 278.164127 -156.265156 
L 278.389746 -156.265156 
L 278.640434 -156.265156 
L 278.891122 -156.265156 
L 279.14181 -156.265156 
L 279.392498 -156.265156 
L 279.643186 -156.265156 
L 279.868805 -156.265156 
L 280.119493 -156.265156 
L 280.370181 -156.265156 
L 280.620869 -156.265156 
L 280.871557 -156.265156 
L 281.122245 -156.265156 
L 281.347864 -156.265156 
L 281.598552 -156.265156 
L 281.84924 -156.265156 
L 282.099927 -156.265156 
L 282.350615 -156.265156 
L 282.601303 -156.265156 
L 282.826923 -156.265156 
L 283.07761 -156.265156 
L 283.328298 -156.265156 
L 283.578986 -156.265156 
L 283.829674 -156.265156 
L 284.080362 -156.265156 
L 284.305981 -156.265156 
L 284.556669 -156.265156 
L 284.807357 -156.265156 
L 285.058045 -156.265156 
L 285.308733 -156.265156 
L 285.544413 -156.265156 
L 285.78504 -156.265156 
L 286.035728 -156.265156 
L 286.286416 -156.265156 
L 286.537104 -156.265156 
L 286.787792 -156.265156 
L 287.013411 -156.265156 
L 287.264099 -156.265156 
L 287.514787 -156.265156 
L 287.765475 -156.265156 
L 288.016163 -156.265156 
L 288.266851 -156.265156 
L 288.49247 -156.265156 
L 288.743158 -156.265156 
L 288.993846 -156.265156 
L 289.244534 -156.265156 
L 289.495222 -156.265156 
L 289.74591 -156.265156 
L 289.971529 -156.265156 
L 290.222217 -156.265156 
L 290.472905 -156.265156 
L 290.723593 -156.265156 
L 290.974281 -156.265156 
L 291.224969 -156.265156 
L 291.450588 -156.265156 
L 291.701276 -156.265156 
L 291.951964 -156.265156 
L 292.202652 -156.265156 
L 292.45334 -156.265156 
L 292.703273 -156.265156 
L 292.929647 -156.265156 
L 293.180335 -156.265156 
L 293.431023 -156.265156 
L 293.681711 -156.265156 
L 293.932398 -156.265156 
L 294.158018 -156.265156 
L 294.408706 -156.265156 
L 294.659394 -156.265156 
L 294.910081 -156.265156 
L 295.160769 -156.265156 
L 295.411457 -156.265156 
L 295.637076 -156.265156 
L 295.887764 -156.265156 
L 296.138452 -156.265156 
L 296.38914 -156.265156 
L 296.639828 -156.265156 
L 296.890516 -156.265156 
L 297.116135 -156.265156 
L 297.366823 -156.265156 
L 297.617511 -156.265156 
L 297.868199 -156.265156 
L 298.118887 -156.265156 
L 298.369575 -156.265156 
L 298.595194 -156.265156 
L 298.845882 -156.265156 
L 299.09657 -156.265156 
L 299.347258 -156.265156 
L 299.597946 -156.265156 
L 299.848634 -156.265156 
L 300.074253 -156.265156 
L 300.324941 -156.265156 
L 300.575629 -156.265156 
L 300.826317 -156.265156 
L 301.077005 -156.265156 
L 301.302624 -156.265156 
L 301.553312 -156.265156 
L 301.804 -156.265156 
L 302.054688 -156.265156 
L 302.305376 -156.265156 
L 302.556064 -156.265156 
L 302.781683 -156.265156 
L 303.032371 -156.265156 
L 303.283059 -156.265156 
L 303.533747 -156.265156 
L 303.784435 -156.265156 
L 304.035123 -156.265156 
L 304.260742 -156.265156 
L 304.51143 -156.265156 
L 304.762118 -156.265156 
L 305.012806 -156.265156 
L 305.263494 -156.265156 
L 305.514182 -156.265156 
L 305.739801 -156.265156 
L 305.990489 -156.265156 
L 306.241177 -156.265156 
L 306.491864 -156.265156 
L 306.742552 -156.265156 
L 306.99324 -156.265156 
L 307.21886 -156.265156 
L 307.469547 -156.265156 
L 307.720235 -156.265156 
L 307.970923 -156.265156 
L 308.221611 -156.265156 
L 308.452764 -156.265156 
L 308.697918 -156.265156 
L 308.948606 -156.265156 
L 309.199294 -156.265156 
L 309.449982 -156.265156 
L 309.70067 -156.265156 
L 309.926289 -156.265156 
L 310.176977 -156.265156 
L 310.427665 -156.265156 
L 310.678353 -156.265156 
L 310.929041 -156.265156 
L 311.179729 -156.265156 
L 311.405348 -156.265156 
L 311.656036 -156.265156 
L 311.906724 -156.265156 
L 312.157412 -156.265156 
L 312.4081 -156.265156 
L 312.658788 -156.265156 
L 312.884407 -156.265156 
L 313.135095 -156.265156 
L 313.385783 -156.265156 
L 313.636471 -156.265156 
L 313.887159 -156.265156 
L 314.137847 -156.265156 
L 314.363466 -156.265156 
L 314.614154 -156.265156 
L 314.864842 -156.265156 
L 315.11553 -156.265156 
L 315.366218 -156.265156 
L 315.611624 -156.265156 
L 315.842525 -156.265156 
L 316.093213 -156.265156 
L 316.343901 -156.265156 
L 316.594589 -156.265156 
L 316.845277 -156.265156 
L 317.070896 -156.264683 
L 317.321584 -153.418377 
L 317.572272 -145.338682 
L 317.82296 -164.895697 
L 318.073648 -202.491102 
L 318.324335 -188.733239 
L 318.549955 -136.467845 
L 318.800643 -98.793521 
L 319.051331 -121.983379 
L 319.302018 -179.733745 
L 319.552706 -209.119292 
L 319.803394 -177.479537 
L 320.029014 -123.813643 
L 320.279701 -96.463879 
L 320.530389 -129.497531 
L 320.781077 -185.950104 
L 321.031765 -204.48235 
L 321.282453 -163.373438 
L 321.508072 -112.080537 
L 321.75876 -96.202061 
L 322.009448 -138.117383 
L 322.260136 -192.228777 
L 322.510824 -199.141059 
L 322.761512 -150.521865 
L 322.987131 -102.999321 
L 323.237819 -98.950037 
L 323.488507 -149.204844 
L 323.739195 -199.132646 
L 323.989883 -193.913906 
L 324.215502 -145.551485 
L 324.46619 -97.246472 
L 324.716878 -105.29731 
L 324.967566 -160.689119 
L 325.218254 -202.978923 
L 325.468942 -185.489331 
L 325.694561 -132.735461 
L 325.945249 -91.966517 
L 326.195937 -111.732634 
L 326.446625 -169.244402 
L 326.697313 -202.155519 
L 326.948001 -173.519818 
L 327.17362 -120.350728 
L 327.424308 -90.115183 
L 327.674996 -120.671811 
L 327.925684 -179.025868 
L 328.176372 -201.404486 
L 328.42706 -162.866563 
L 328.652679 -111.025439 
L 328.903367 -98.979538 
L 329.154055 -137.124616 
L 329.404743 -156.201394 
L 329.655431 -148.110418 
L 329.906119 -145.470875 
L 330.131738 -145.470675 
L 330.382426 -145.470675 
L 330.633114 -145.470675 
L 330.883802 -145.470675 
L 331.134489 -145.470675 
L 331.361115 -145.470675 
L 331.610797 -145.470675 
L 331.861484 -145.470675 
L 332.112172 -145.470675 
L 332.36286 -145.470675 
L 332.613548 -145.470675 
L 332.839167 -145.470675 
L 333.089855 -145.470675 
L 333.340543 -145.470675 
L 333.591231 -145.470675 
L 333.841919 -145.470675 
L 334.092607 -145.470675 
L 334.318226 -145.470675 
L 334.568914 -145.470675 
L 334.819602 -145.470675 
L 335.07029 -145.470675 
L 335.320978 -145.470675 
L 335.571666 -145.470675 
L 335.797285 -145.470675 
L 336.047973 -145.470675 
L 336.298661 -145.470675 
L 336.549349 -145.470675 
L 336.800037 -145.470675 
L 337.050725 -145.470675 
L 337.276344 -145.470675 
L 337.527032 -145.470675 
L 337.77772 -145.470675 
L 338.028408 -145.470675 
L 338.279096 -145.470675 
L 338.519974 -145.470675 
L 338.755403 -145.470675 
L 339.006091 -145.470675 
L 339.256779 -145.470675 
L 339.507467 -145.470675 
L 339.758155 -145.470675 
L 339.983774 -145.470675 
L 340.234462 -145.470675 
L 340.48515 -145.470675 
L 340.735838 -145.470675 
L 340.986526 -145.470675 
L 341.237214 -145.470675 
L 341.462833 -145.470675 
L 341.713521 -145.470675 
L 341.964209 -145.470675 
L 342.214897 -145.470675 
L 342.465585 -145.470675 
L 342.716272 -145.470675 
L 342.941892 -145.470675 
L 343.19258 -145.470675 
L 343.443268 -145.470675 
L 343.693955 -145.470675 
L 343.944643 -145.470675 
L 344.195331 -145.470675 
L 344.420951 -145.470675 
L 344.671638 -145.470675 
L 344.922326 -145.470675 
L 345.173014 -145.470675 
L 345.423702 -145.470675 
L 345.67439 -145.470675 
L 345.900009 -145.470675 
L 346.150697 -145.470675 
L 346.401385 -145.470675 
L 346.652073 -145.470675 
L 346.902761 -145.470675 
L 347.12838 -145.470675 
L 347.379068 -145.470675 
L 347.629756 -145.470675 
L 347.880444 -145.470675 
L 348.131132 -145.470675 
L 348.38182 -145.470675 
L 348.607439 -145.470675 
L 348.858127 -145.470675 
L 349.108815 -145.470675 
L 349.359503 -145.470675 
L 349.610191 -145.470675 
L 349.860879 -145.470675 
L 350.086498 -145.470675 
L 350.337186 -145.470675 
L 350.587874 -145.470675 
L 350.838562 -145.470675 
L 351.08925 -145.470675 
L 351.339938 -145.470675 
L 351.565557 -145.470675 
L 351.816245 -145.470675 
L 352.066933 -145.470675 
L 352.317621 -145.470675 
L 352.568309 -145.470675 
L 352.818997 -145.470675 
L 353.044616 -145.470675 
L 353.295304 -145.470675 
L 353.545992 -145.470675 
L 353.79668 -145.470675 
L 354.047368 -145.470675 
L 354.272987 -145.470675 
L 354.523675 -145.470675 
L 354.774363 -145.470675 
L 355.025051 -145.470675 
L 355.275739 -145.470675 
L 355.526426 -145.470675 
L 355.752046 -145.470675 
L 356.002734 -145.470675 
L 356.253422 -145.470675 
L 356.504109 -145.470675 
L 356.754797 -145.470675 
L 357.005485 -145.470675 
L 357.231104 -145.470675 
L 357.481792 -145.470675 
L 357.73248 -145.470675 
L 357.983168 -145.470675 
L 358.233856 -145.470675 
L 358.484544 -145.470675 
L 358.710163 -145.470675 
L 358.960851 -145.470675 
L 359.211539 -145.470675 
L 359.462227 -145.470675 
L 359.712915 -145.470675 
L 359.963603 -145.470675 
L 360.189222 -145.470675 
L 360.43991 -145.470675 
L 360.690598 -145.470675 
L 360.941286 -145.470675 
L 361.191974 -145.470675 
L 361.428325 -145.470675 
L 361.668281 -145.470675 
L 361.918969 -145.470675 
L 362.169657 -145.470675 
L 362.420345 -145.470675 
L 362.671033 -145.470675 
L 362.896652 -145.470675 
L 363.14734 -145.470675 
L 363.398028 -145.470675 
L 363.648716 -145.470675 
L 363.899404 -145.470675 
L 364.150092 -145.470675 
L 364.375711 -145.470675 
L 364.626399 -145.470675 
L 364.877087 -145.470675 
L 365.127775 -145.470675 
L 365.378463 -145.470675 
L 365.629151 -145.470675 
L 365.85477 -145.470675 
L 366.105458 -145.470675 
L 366.356146 -145.470675 
L 366.606834 -145.470675 
L 366.857522 -145.470675 
L 367.10821 -145.470675 
L 367.333829 -145.470675 
L 367.584517 -145.470675 
L 367.835205 -145.470675 
L 368.085892 -145.470675 
L 368.33658 -145.470675 
L 368.587185 -145.470675 
L 368.812888 -145.470675 
L 369.063575 -145.470675 
L 369.314263 -145.470675 
L 369.564951 -145.470675 
L 369.815639 -145.470675 
L 370.041258 -145.470675 
L 370.291946 -145.470675 
L 370.542634 -145.470675 
L 370.793322 -145.470675 
L 371.04401 -145.470675 
L 371.294698 -145.470675 
L 371.520317 -145.470675 
L 371.771005 -145.470675 
L 372.021693 -145.470675 
L 372.272381 -145.470675 
L 372.523069 -145.470675 
L 372.773757 -145.470675 
L 372.999376 -145.470675 
L 373.250064 -145.470675 
L 373.500752 -145.470675 
L 373.75144 -145.470675 
L 374.002128 -145.470675 
L 374.252816 -145.470675 
L 374.478435 -144.986037 
L 374.729123 -137.060183 
L 374.979811 -139.461785 
L 375.230499 -176.577199 
L 375.481187 -192.747764 
L 375.731875 -146.675247 
L 375.957494 -97.095758 
L 376.208182 -91.450715 
L 376.45887 -141.721963 
L 376.709558 -192.215847 
L 376.960246 -188.138536 
L 377.185865 -139.14222 
L 377.436553 -89.108459 
L 377.687241 -95.837786 
L 377.937929 -151.332673 
L 378.188617 -195.063669 
L 378.439305 -178.646403 
L 378.664924 -125.098671 
L 378.915612 -82.45772 
L 379.1663 -101.705535 
L 379.416988 -161.558655 
L 379.667676 -196.741122 
L 379.918363 -168.30441 
L 380.143983 -112.378895 
L 380.394671 -79.255495 
L 380.645359 -109.842412 
L 380.896046 -169.916911 
L 381.146734 -194.161708 
L 381.397422 -155.250663 
L 381.623041 -100.957997 
L 381.873729 -79.698677 
L 382.124417 -120.103942 
L 382.375105 -178.410793 
L 382.625793 -190.76871 
L 382.876481 -142.50286 
L 383.1021 -90.813525 
L 383.352788 -81.480905 
L 383.603476 -129.416685 
L 383.854164 -182.573969 
L 384.104852 -182.288642 
L 384.336676 -133.017434 
L 384.581159 -82.779723 
L 384.831847 -85.934327 
L 385.082535 -140.977359 
L 385.333223 -188.369718 
L 385.583911 -175.669393 
L 385.80953 -123.569524 
L 386.060218 -82.168889 
L 386.310906 -105.584519 
L 386.561594 -141.936618 
L 386.812282 -141.270797 
L 387.06297 -134.280311 
L 387.288589 -134.042011 
L 387.539277 -134.042011 
L 387.789965 -134.042011 
L 388.040653 -134.042011 
L 388.291341 -134.042011 
L 388.542029 -134.042011 
L 388.767648 -134.042011 
L 389.018336 -134.042011 
L 389.269024 -134.042011 
L 389.519712 -134.042011 
L 389.7704 -134.042011 
L 390.021088 -134.042011 
L 390.246707 -134.042011 
L 390.497395 -134.042011 
L 390.748083 -134.042011 
L 390.998771 -134.042011 
L 391.249459 -134.042011 
L 391.495535 -134.042011 
L 391.725766 -134.042011 
L 391.976454 -134.042011 
L 392.227142 -134.042011 
L 392.477829 -134.042011 
L 392.728517 -134.042011 
L 392.954137 -134.042011 
L 393.204825 -134.042011 
L 393.455512 -134.042011 
L 393.7062 -134.042011 
L 393.956888 -134.042011 
L 394.207576 -134.042011 
L 394.433195 -134.042011 
L 394.683883 -134.042011 
L 394.934571 -134.042011 
L 395.185259 -134.042011 
L 395.435947 -134.042011 
L 395.686635 -134.042011 
L 395.912254 -134.042011 
L 396.162942 -134.042011 
L 396.41363 -134.042011 
L 396.664318 -134.042011 
L 396.915006 -134.042011 
L 397.165694 -134.042011 
L 397.391313 -134.042011 
L 397.642001 -134.042011 
L 397.892689 -134.042011 
L 398.143377 -134.042011 
L 398.394065 -134.042011 
L 398.644753 -134.042011 
L 398.870372 -134.042011 
L 399.12106 -134.042011 
L 399.371748 -134.042011 
L 399.622436 -134.042011 
L 399.873124 -134.042011 
L 400.098743 -134.042011 
L 400.349431 -134.042011 
L 400.600119 -134.042011 
L 400.850807 -134.042011 
L 401.101495 -134.042011 
L 401.352183 -134.042011 
L 401.577802 -134.042011 
L 401.82849 -134.042011 
L 402.079178 -134.042011 
L 402.329866 -134.042011 
L 402.580554 -134.042011 
L 402.831242 -134.042011 
L 403.056861 -134.042011 
L 403.307549 -134.042011 
L 403.558237 -134.042011 
L 403.808925 -134.042011 
L 404.059613 -134.042011 
L 404.3103 -134.042011 
L 404.53592 -134.042011 
L 404.786608 -134.042011 
L 405.037296 -134.042011 
L 405.287983 -134.042011 
L 405.538671 -134.042011 
L 405.789359 -134.042011 
L 406.014979 -134.042011 
L 406.265666 -134.042011 
L 406.516354 -134.042011 
L 406.767042 -134.042011 
L 407.01773 -134.042011 
L 407.245026 -134.042011 
L 407.494037 -134.042011 
L 407.744725 -134.042011 
L 407.995413 -134.042011 
L 408.246101 -134.042011 
L 408.496789 -134.042011 
L 408.722408 -134.042011 
L 408.973096 -134.042011 
L 409.223784 -134.042011 
L 409.474472 -134.042011 
L 409.72516 -134.042011 
L 409.975848 -134.042011 
L 410.201467 -134.042011 
L 410.452155 -134.042011 
L 410.702843 -134.042011 
L 410.953531 -134.042011 
L 411.204219 -134.042011 
L 411.454907 -134.042011 
L 411.680526 -134.042011 
L 411.931214 -134.042011 
L 412.181902 -134.042011 
L 412.43259 -134.042011 
L 412.683278 -134.042011 
L 412.933966 -134.042011 
L 413.159585 -134.042011 
L 413.410273 -134.042011 
L 413.660961 -134.042011 
L 413.911649 -134.042011 
L 414.162337 -134.042011 
L 414.403886 -134.042011 
L 414.638644 -134.042011 
L 414.889332 -134.042011 
L 415.14002 -134.042011 
L 415.390708 -134.042011 
L 415.641396 -134.042011 
L 415.867015 -134.042011 
L 416.117703 -134.042011 
L 416.368391 -134.042011 
L 416.619079 -134.042011 
L 416.869767 -134.042011 
L 417.120454 -134.042011 
L 417.346074 -134.042011 
L 417.596762 -134.042011 
L 417.847449 -134.042011 
L 418.098137 -134.042011 
L 418.348825 -134.042011 
L 418.599513 -134.042011 
L 418.825132 -134.042011 
L 419.07582 -134.042011 
L 419.326508 -134.042011 
L 419.577196 -134.042011 
L 419.827884 -134.042011 
L 420.078572 -134.042011 
L 420.304191 -134.042011 
L 420.554879 -134.042011 
L 420.805567 -134.042011 
L 421.056255 -134.042011 
L 421.306943 -134.042011 
L 421.557631 -134.042011 
L 421.78325 -134.042011 
L 422.033938 -134.042011 
L 422.284626 -134.042011 
L 422.535314 -134.042011 
L 422.786002 -134.042011 
L 423.011621 -134.042011 
L 423.262309 -134.042011 
L 423.512997 -134.042011 
L 423.763685 -134.042011 
L 424.014373 -134.042011 
L 424.265061 -134.042011 
L 424.49068 -134.042011 
L 424.741368 -134.042011 
L 424.992056 -134.042011 
L 425.242744 -134.042011 
L 425.493432 -134.042011 
L 425.74412 -134.042011 
L 425.969739 -134.042011 
L 426.220427 -134.042011 
L 426.471115 -134.042011 
L 426.721803 -134.042011 
L 426.972491 -134.042011 
L 427.223179 -134.042011 
L 427.448798 -134.042011 
L 427.699486 -134.042011 
L 427.950174 -134.042011 
L 428.200862 -134.042011 
L 428.45155 -134.042011 
L 428.702237 -134.042011 
L 428.927857 -134.042011 
L 429.178545 -134.042011 
L 429.429233 -134.042011 
L 429.67992 -134.042011 
L 429.930608 -134.042011 
L 430.156228 -134.042011 
L 430.406916 -134.042011 
L 430.657603 -134.042011 
L 430.908291 -134.042011 
L 431.158979 -134.042011 
L 431.409667 -134.042011 
L 431.409667 -125.664821 
L 431.409667 -125.664821 
L 431.158979 -125.664821 
L 430.908291 -125.664821 
L 430.657603 -125.664821 
L 430.406916 -125.664821 
L 430.156228 -125.664821 
L 429.930608 -125.664821 
L 429.67992 -125.664821 
L 429.429233 -125.664821 
L 429.178545 -125.664821 
L 428.927857 -125.664821 
L 428.702237 -125.664821 
L 428.45155 -125.664821 
L 428.200862 -125.664821 
L 427.950174 -125.664821 
L 427.699486 -125.664821 
L 427.448798 -125.664821 
L 427.223179 -125.664821 
L 426.972491 -125.664821 
L 426.721803 -125.664821 
L 426.471115 -125.664821 
L 426.220427 -125.664821 
L 425.969739 -125.664821 
L 425.74412 -125.664821 
L 425.493432 -125.664821 
L 425.242744 -125.664821 
L 424.992056 -125.664821 
L 424.741368 -125.664821 
L 424.49068 -125.664821 
L 424.265061 -125.664821 
L 424.014373 -125.664821 
L 423.763685 -125.664821 
L 423.512997 -125.664821 
L 423.262309 -125.664821 
L 423.011621 -125.664821 
L 422.786002 -125.664821 
L 422.535314 -125.664821 
L 422.284626 -125.664821 
L 422.033938 -125.664821 
L 421.78325 -125.664821 
L 421.557631 -125.664821 
L 421.306943 -125.664821 
L 421.056255 -125.664821 
L 420.805567 -125.664821 
L 420.554879 -125.664821 
L 420.304191 -125.664821 
L 420.078572 -125.664821 
L 419.827884 -125.664821 
L 419.577196 -125.664821 
L 419.326508 -125.664821 
L 419.07582 -125.664821 
L 418.825132 -125.664821 
L 418.599513 -125.664821 
L 418.348825 -125.664821 
L 418.098137 -125.664821 
L 417.847449 -125.664821 
L 417.596762 -125.664821 
L 417.346074 -125.664821 
L 417.120454 -125.664821 
L 416.869767 -125.664821 
L 416.619079 -125.664821 
L 416.368391 -125.664821 
L 416.117703 -125.664821 
L 415.867015 -125.664821 
L 415.641396 -125.664821 
L 415.390708 -125.664821 
L 415.14002 -125.664821 
L 414.889332 -125.664821 
L 414.638644 -125.664821 
L 414.403886 -125.664821 
L 414.162337 -125.664821 
L 413.911649 -125.664821 
L 413.660961 -125.664821 
L 413.410273 -125.664821 
L 413.159585 -125.664821 
L 412.933966 -125.664821 
L 412.683278 -125.664821 
L 412.43259 -125.664821 
L 412.181902 -125.664821 
L 411.931214 -125.664821 
L 411.680526 -125.664821 
L 411.454907 -125.664821 
L 411.204219 -125.664821 
L 410.953531 -125.664821 
L 410.702843 -125.664821 
L 410.452155 -125.664821 
L 410.201467 -125.664821 
L 409.975848 -125.664821 
L 409.72516 -125.664821 
L 409.474472 -125.664821 
L 409.223784 -125.664821 
L 408.973096 -125.664821 
L 408.722408 -125.664821 
L 408.496789 -125.664821 
L 408.246101 -125.664821 
L 407.995413 -125.664821 
L 407.744725 -125.664821 
L 407.494037 -125.664821 
L 407.245026 -125.664821 
L 407.01773 -125.664821 
L 406.767042 -125.664821 
L 406.516354 -125.664821 
L 406.265666 -125.664821 
L 406.014979 -125.664821 
L 405.789359 -125.664821 
L 405.538671 -125.664821 
L 405.287983 -125.664821 
L 405.037296 -125.664821 
L 404.786608 -125.664821 
L 404.53592 -125.664821 
L 404.3103 -125.664821 
L 404.059613 -125.664821 
L 403.808925 -125.664821 
L 403.558237 -125.664821 
L 403.307549 -125.664821 
L 403.056861 -125.664821 
L 402.831242 -125.664821 
L 402.580554 -125.664821 
L 402.329866 -125.664821 
L 402.079178 -125.664821 
L 401.82849 -125.664821 
L 401.577802 -125.664821 
L 401.352183 -125.664821 
L 401.101495 -125.664821 
L 400.850807 -125.664821 
L 400.600119 -125.664821 
L 400.349431 -125.664821 
L 400.098743 -125.664821 
L 399.873124 -125.664821 
L 399.622436 -125.664821 
L 399.371748 -125.664821 
L 399.12106 -125.664821 
L 398.870372 -125.664821 
L 398.644753 -125.664821 
L 398.394065 -125.664821 
L 398.143377 -125.664821 
L 397.892689 -125.664821 
L 397.642001 -125.664821 
L 397.391313 -125.664821 
L 397.165694 -125.664821 
L 396.915006 -125.664821 
L 396.664318 -125.664821 
L 396.41363 -125.664821 
L 396.162942 -125.664821 
L 395.912254 -125.664821 
L 395.686635 -125.664821 
L 395.435947 -125.664821 
L 395.185259 -125.664821 
L 394.934571 -125.664821 
L 394.683883 -125.664821 
L 394.433195 -125.664821 
L 394.207576 -125.664821 
L 393.956888 -125.664821 
L 393.7062 -125.664821 
L 393.455512 -125.664821 
L 393.204825 -125.664821 
L 392.954137 -125.664821 
L 392.728517 -125.664821 
L 392.477829 -125.664821 
L 392.227142 -125.664821 
L 391.976454 -125.664821 
L 391.725766 -125.664821 
L 391.495535 -125.664821 
L 391.249459 -125.664821 
L 390.998771 -125.664821 
L 390.748083 -125.664821 
L 390.497395 -125.664821 
L 390.246707 -125.664821 
L 390.021088 -125.664821 
L 389.7704 -125.664821 
L 389.519712 -125.664821 
L 389.269024 -125.664821 
L 389.018336 -125.664821 
L 388.767648 -125.664821 
L 388.542029 -125.664821 
L 388.291341 -125.664821 
L 388.040653 -125.664821 
L 387.789965 -125.664821 
L 387.539277 -125.664821 
L 387.288589 -125.664822 
L 387.06297 -125.903125 
L 386.812282 -132.894061 
L 386.561594 -133.560938 
L 386.310906 -97.216849 
L 386.060218 -73.805862 
L 385.80953 -115.21717 
L 385.583911 -167.332465 
L 385.333223 -180.035648 
L 385.082535 -132.655742 
L 384.831847 -77.62937 
L 384.581159 -74.476905 
L 384.336676 -124.728937 
L 384.104852 -174.013862 
L 383.854164 -174.301261 
L 383.603476 -121.160401 
L 383.352788 -73.238835 
L 383.1021 -82.573931 
L 382.876481 -134.277992 
L 382.625793 -182.55595 
L 382.375105 -170.200832 
L 382.124417 -111.912619 
L 381.873729 -71.517658 
L 381.623041 -92.781333 
L 381.397422 -147.091549 
L 381.146734 -186.011744 
L 380.896046 -161.771934 
L 380.645359 -101.717608 
L 380.394671 -71.137319 
L 380.143983 -104.267762 
L 379.918363 -160.210559 
L 379.667676 -188.653147 
L 379.416988 -153.478625 
L 379.1663 -93.644875 
L 378.915612 -74.400988 
L 378.664924 -117.053065 
L 378.439305 -170.617513 
L 378.188617 -187.038247 
L 377.937929 -143.31961 
L 377.687241 -87.843769 
L 377.436553 -81.116969 
L 377.185865 -131.16592 
L 376.960246 -180.176869 
L 376.709558 -184.256522 
L 376.45887 -133.779902 
L 376.208182 -83.525645 
L 375.957494 -89.173141 
L 375.731875 -138.767497 
L 375.481187 -184.853769 
L 375.230499 -168.687399 
L 374.979811 -131.582204 
L 374.729123 -129.182043 
L 374.478435 -137.108501 
L 374.252816 -137.593148 
L 374.002128 -137.593148 
L 373.75144 -137.593148 
L 373.500752 -137.593148 
L 373.250064 -137.593148 
L 372.999376 -137.593148 
L 372.773757 -137.593148 
L 372.523069 -137.593148 
L 372.272381 -137.593148 
L 372.021693 -137.593148 
L 371.771005 -137.593148 
L 371.520317 -137.593148 
L 371.294698 -137.593148 
L 371.04401 -137.593148 
L 370.793322 -137.593148 
L 370.542634 -137.593148 
L 370.291946 -137.593148 
L 370.041258 -137.593148 
L 369.815639 -137.593148 
L 369.564951 -137.593148 
L 369.314263 -137.593148 
L 369.063575 -137.593148 
L 368.812888 -137.593148 
L 368.587185 -137.593148 
L 368.33658 -137.593148 
L 368.085892 -137.593148 
L 367.835205 -137.593148 
L 367.584517 -137.593148 
L 367.333829 -137.593148 
L 367.10821 -137.593148 
L 366.857522 -137.593148 
L 366.606834 -137.593148 
L 366.356146 -137.593148 
L 366.105458 -137.593148 
L 365.85477 -137.593148 
L 365.629151 -137.593148 
L 365.378463 -137.593148 
L 365.127775 -137.593148 
L 364.877087 -137.593148 
L 364.626399 -137.593148 
L 364.375711 -137.593148 
L 364.150092 -137.593148 
L 363.899404 -137.593148 
L 363.648716 -137.593148 
L 363.398028 -137.593148 
L 363.14734 -137.593148 
L 362.896652 -137.593148 
L 362.671033 -137.593148 
L 362.420345 -137.593148 
L 362.169657 -137.593148 
L 361.918969 -137.593148 
L 361.668281 -137.593148 
L 361.428325 -137.593148 
L 361.191974 -137.593148 
L 360.941286 -137.593148 
L 360.690598 -137.593148 
L 360.43991 -137.593148 
L 360.189222 -137.593148 
L 359.963603 -137.593148 
L 359.712915 -137.593148 
L 359.462227 -137.593148 
L 359.211539 -137.593148 
L 358.960851 -137.593148 
L 358.710163 -137.593148 
L 358.484544 -137.593148 
L 358.233856 -137.593148 
L 357.983168 -137.593148 
L 357.73248 -137.593148 
L 357.481792 -137.593148 
L 357.231104 -137.593148 
L 357.005485 -137.593148 
L 356.754797 -137.593148 
L 356.504109 -137.593148 
L 356.253422 -137.593148 
L 356.002734 -137.593148 
L 355.752046 -137.593148 
L 355.526426 -137.593148 
L 355.275739 -137.593148 
L 355.025051 -137.593148 
L 354.774363 -137.593148 
L 354.523675 -137.593148 
L 354.272987 -137.593148 
L 354.047368 -137.593148 
L 353.79668 -137.593148 
L 353.545992 -137.593148 
L 353.295304 -137.593148 
L 353.044616 -137.593148 
L 352.818997 -137.593148 
L 352.568309 -137.593148 
L 352.317621 -137.593148 
L 352.066933 -137.593148 
L 351.816245 -137.593148 
L 351.565557 -137.593148 
L 351.339938 -137.593148 
L 351.08925 -137.593148 
L 350.838562 -137.593148 
L 350.587874 -137.593148 
L 350.337186 -137.593148 
L 350.086498 -137.593148 
L 349.860879 -137.593148 
L 349.610191 -137.593148 
L 349.359503 -137.593148 
L 349.108815 -137.593148 
L 348.858127 -137.593148 
L 348.607439 -137.593148 
L 348.38182 -137.593148 
L 348.131132 -137.593148 
L 347.880444 -137.593148 
L 347.629756 -137.593148 
L 347.379068 -137.593148 
L 347.12838 -137.593148 
L 346.902761 -137.593148 
L 346.652073 -137.593148 
L 346.401385 -137.593148 
L 346.150697 -137.593148 
L 345.900009 -137.593148 
L 345.67439 -137.593148 
L 345.423702 -137.593148 
L 345.173014 -137.593148 
L 344.922326 -137.593148 
L 344.671638 -137.593148 
L 344.420951 -137.593148 
L 344.195331 -137.593148 
L 343.944643 -137.593148 
L 343.693955 -137.593148 
L 343.443268 -137.593148 
L 343.19258 -137.593148 
L 342.941892 -137.593148 
L 342.716272 -137.593148 
L 342.465585 -137.593148 
L 342.214897 -137.593148 
L 341.964209 -137.593148 
L 341.713521 -137.593148 
L 341.462833 -137.593148 
L 341.237214 -137.593148 
L 340.986526 -137.593148 
L 340.735838 -137.593148 
L 340.48515 -137.593148 
L 340.234462 -137.593148 
L 339.983774 -137.593148 
L 339.758155 -137.593148 
L 339.507467 -137.593148 
L 339.256779 -137.593148 
L 339.006091 -137.593148 
L 338.755403 -137.593148 
L 338.519974 -137.593148 
L 338.279096 -137.593148 
L 338.028408 -137.593148 
L 337.77772 -137.593148 
L 337.527032 -137.593148 
L 337.276344 -137.593148 
L 337.050725 -137.593148 
L 336.800037 -137.593148 
L 336.549349 -137.593148 
L 336.298661 -137.593148 
L 336.047973 -137.593148 
L 335.797285 -137.593148 
L 335.571666 -137.593148 
L 335.320978 -137.593148 
L 335.07029 -137.593148 
L 334.819602 -137.593148 
L 334.568914 -137.593148 
L 334.318226 -137.593148 
L 334.092607 -137.593148 
L 333.841919 -137.593148 
L 333.591231 -137.593148 
L 333.340543 -137.593148 
L 333.089855 -137.593148 
L 332.839167 -137.593148 
L 332.613548 -137.593148 
L 332.36286 -137.593148 
L 332.112172 -137.593148 
L 331.861484 -137.593148 
L 331.610797 -137.593148 
L 331.361115 -137.593148 
L 331.134489 -137.593148 
L 330.883802 -137.593148 
L 330.633114 -137.593148 
L 330.382426 -137.593148 
L 330.131738 -137.593148 
L 329.906119 -137.593348 
L 329.655431 -140.233012 
L 329.404743 -148.324868 
L 329.154055 -129.252297 
L 328.903367 -91.117607 
L 328.652679 -103.16735 
L 328.42706 -155.02691 
L 328.176372 -193.575566 
L 327.925684 -171.202125 
L 327.674996 -112.869936 
L 327.424308 -82.321113 
L 327.17362 -112.564385 
L 326.948001 -165.752866 
L 326.697313 -194.395525 
L 326.446625 -161.49303 
L 326.195937 -104.003567 
L 325.945249 -84.242262 
L 325.694561 -125.022584 
L 325.468942 -177.794084 
L 325.218254 -195.287612 
L 324.967566 -153.010621 
L 324.716878 -97.638941 
L 324.46619 -89.590835 
L 324.215502 -137.911654 
L 323.989883 -186.290483 
L 323.739195 -191.511835 
L 323.488507 -141.600968 
L 323.237819 -91.363453 
L 322.987131 -95.415279 
L 322.761512 -142.954212 
L 322.510824 -191.590525 
L 322.260136 -184.681041 
L 322.009448 -130.59147 
L 321.75876 -88.690714 
L 321.508072 -104.57324 
L 321.282453 -155.885011 
L 321.031765 -197.006193 
L 320.781077 -178.478788 
L 320.530389 -122.050346 
L 320.279701 -89.026526 
L 320.029014 -116.383079 
L 319.803394 -170.069008 
L 319.552706 -201.717031 
L 319.302018 -172.339693 
L 319.051331 -114.613445 
L 318.800643 -91.429449 
L 318.549955 -129.114796 
L 318.324335 -181.400808 
L 318.073648 -195.163079 
L 317.82296 -157.579397 
L 317.572272 -138.027434 
L 317.321584 -146.108139 
L 317.070896 -148.954596 
L 316.845277 -148.955068 
L 316.594589 -148.955068 
L 316.343901 -148.955068 
L 316.093213 -148.955068 
L 315.842525 -148.955068 
L 315.611624 -148.955068 
L 315.366218 -148.955068 
L 315.11553 -148.955068 
L 314.864842 -148.955068 
L 314.614154 -148.955068 
L 314.363466 -148.955068 
L 314.137847 -148.955068 
L 313.887159 -148.955068 
L 313.636471 -148.955068 
L 313.385783 -148.955068 
L 313.135095 -148.955068 
L 312.884407 -148.955068 
L 312.658788 -148.955068 
L 312.4081 -148.955068 
L 312.157412 -148.955068 
L 311.906724 -148.955068 
L 311.656036 -148.955068 
L 311.405348 -148.955068 
L 311.179729 -148.955068 
L 310.929041 -148.955068 
L 310.678353 -148.955068 
L 310.427665 -148.955068 
L 310.176977 -148.955068 
L 309.926289 -148.955068 
L 309.70067 -148.955068 
L 309.449982 -148.955068 
L 309.199294 -148.955068 
L 308.948606 -148.955068 
L 308.697918 -148.955068 
L 308.452764 -148.955068 
L 308.221611 -148.955068 
L 307.970923 -148.955068 
L 307.720235 -148.955068 
L 307.469547 -148.955068 
L 307.21886 -148.955068 
L 306.99324 -148.955068 
L 306.742552 -148.955068 
L 306.491864 -148.955068 
L 306.241177 -148.955068 
L 305.990489 -148.955068 
L 305.739801 -148.955068 
L 305.514182 -148.955068 
L 305.263494 -148.955068 
L 305.012806 -148.955068 
L 304.762118 -148.955068 
L 304.51143 -148.955068 
L 304.260742 -148.955068 
L 304.035123 -148.955068 
L 303.784435 -148.955068 
L 303.533747 -148.955068 
L 303.283059 -148.955068 
L 303.032371 -148.955068 
L 302.781683 -148.955068 
L 302.556064 -148.955068 
L 302.305376 -148.955068 
L 302.054688 -148.955068 
L 301.804 -148.955068 
L 301.553312 -148.955068 
L 301.302624 -148.955068 
L 301.077005 -148.955068 
L 300.826317 -148.955068 
L 300.575629 -148.955068 
L 300.324941 -148.955068 
L 300.074253 -148.955068 
L 299.848634 -148.955068 
L 299.597946 -148.955068 
L 299.347258 -148.955068 
L 299.09657 -148.955068 
L 298.845882 -148.955068 
L 298.595194 -148.955068 
L 298.369575 -148.955068 
L 298.118887 -148.955068 
L 297.868199 -148.955068 
L 297.617511 -148.955068 
L 297.366823 -148.955068 
L 297.116135 -148.955068 
L 296.890516 -148.955068 
L 296.639828 -148.955068 
L 296.38914 -148.955068 
L 296.138452 -148.955068 
L 295.887764 -148.955068 
L 295.637076 -148.955068 
L 295.411457 -148.955068 
L 295.160769 -148.955068 
L 294.910081 -148.955068 
L 294.659394 -148.955068 
L 294.408706 -148.955068 
L 294.158018 -148.955068 
L 293.932398 -148.955068 
L 293.681711 -148.955068 
L 293.431023 -148.955068 
L 293.180335 -148.955068 
L 292.929647 -148.955068 
L 292.703273 -148.955068 
L 292.45334 -148.955068 
L 292.202652 -148.955068 
L 291.951964 -148.955068 
L 291.701276 -148.955068 
L 291.450588 -148.955068 
L 291.224969 -148.955068 
L 290.974281 -148.955068 
L 290.723593 -148.955068 
L 290.472905 -148.955068 
L 290.222217 -148.955068 
L 289.971529 -148.955068 
L 289.74591 -148.955068 
L 289.495222 -148.955068 
L 289.244534 -148.955068 
L 288.993846 -148.955068 
L 288.743158 -148.955068 
L 288.49247 -148.955068 
L 288.266851 -148.955068 
L 288.016163 -148.955068 
L 287.765475 -148.955068 
L 287.514787 -148.955068 
L 287.264099 -148.955068 
L 287.013411 -148.955068 
L 286.787792 -148.955068 
L 286.537104 -148.955068 
L 286.286416 -148.955068 
L 286.035728 -148.955068 
L 285.78504 -148.955068 
L 285.544413 -148.955068 
L 285.308733 -148.955068 
L 285.058045 -148.955068 
L 284.807357 -148.955068 
L 284.556669 -148.955068 
L 284.305981 -148.955068 
L 284.080362 -148.955068 
L 283.829674 -148.955068 
L 283.578986 -148.955068 
L 283.328298 -148.955068 
L 283.07761 -148.955068 
L 282.826923 -148.955068 
L 282.601303 -148.955068 
L 282.350615 -148.955068 
L 282.099927 -148.955068 
L 281.84924 -148.955068 
L 281.598552 -148.955068 
L 281.347864 -148.955068 
L 281.122245 -148.955068 
L 280.871557 -148.955068 
L 280.620869 -148.955068 
L 280.370181 -148.955068 
L 280.119493 -148.955068 
L 279.868805 -148.955068 
L 279.643186 -148.955068 
L 279.392498 -148.955068 
L 279.14181 -148.955068 
L 278.891122 -148.955068 
L 278.640434 -148.955068 
L 278.389746 -148.955068 
L 278.164127 -148.955068 
L 277.913439 -148.955068 
L 277.662751 -148.955068 
L 277.412063 -148.955068 
L 277.161375 -148.955068 
L 276.935756 -148.955068 
L 276.685068 -148.955068 
L 276.43438 -148.955068 
L 276.183692 -148.955068 
L 275.933004 -148.955068 
L 275.682316 -148.955068 
L 275.456697 -148.955068 
L 275.206009 -148.955068 
L 274.955321 -148.955068 
L 274.704633 -148.955068 
L 274.453945 -148.955068 
L 274.203257 -148.955068 
L 273.977638 -148.955068 
L 273.72695 -148.955068 
L 273.476262 -148.955068 
L 273.225574 -148.955068 
L 272.974886 -148.955068 
L 272.724198 -148.955067 
L 272.498579 -149.363927 
L 272.247891 -156.773933 
L 271.997203 -154.402528 
L 271.746515 -118.01916 
L 271.495827 -100.738365 
L 271.245139 -145.187522 
L 271.01952 -193.604913 
L 270.768832 -200.123501 
L 270.518144 -152.229835 
L 270.267457 -102.35281 
L 270.016769 -105.076899 
L 269.791149 -151.948743 
L 269.540461 -200.890313 
L 269.289774 -195.386119 
L 269.039086 -142.198558 
L 268.788398 -99.651998 
L 268.53771 -114.144884 
L 268.312091 -164.778536 
L 268.061403 -206.044946 
L 267.810715 -189.142453 
L 267.560027 -134.028465 
L 267.309339 -100.868332 
L 267.058651 -125.97463 
L 266.833032 -177.332688 
L 266.582344 -209.035625 
L 266.331656 -181.467531 
L 266.080968 -125.644635 
L 265.83028 -102.247607 
L 265.579592 -137.490757 
L 265.353973 -188.750543 
L 265.103285 -209.972277 
L 264.852597 -173.249244 
L 264.601909 -118.974704 
L 264.351221 -106.445569 
L 264.100533 -150.787582 
L 263.874914 -199.776075 
L 263.624226 -209.625632 
L 263.373538 -164.738014 
L 263.12285 -113.921402 
L 262.872162 -113.078626 
L 262.636063 -160.514107 
L 262.395855 -208.070973 
L 262.145167 -206.224485 
L 261.894479 -155.66156 
L 261.643791 -111.787591 
L 261.393103 -122.686177 
L 261.167484 -172.00344 
L 260.916796 -212.645162 
L 260.666108 -191.92762 
L 260.41542 -157.287026 
L 260.164732 -157.490765 
L 259.914044 -164.352929 
L 259.688425 -164.621492 
L 259.437737 -164.621492 
L 259.187049 -164.621492 
L 258.936361 -164.621492 
L 258.685673 -164.621492 
L 258.434986 -164.621492 
L 258.209366 -164.621492 
L 257.958678 -164.621492 
L 257.70799 -164.621492 
L 257.457303 -164.621492 
L 257.206615 -164.621492 
L 256.955927 -164.621492 
L 256.730307 -164.621492 
L 256.47962 -164.621492 
L 256.228932 -164.621492 
L 255.978244 -164.621492 
L 255.727556 -164.621492 
L 255.477203 -164.621492 
L 255.251249 -164.621492 
L 255.000561 -164.621492 
L 254.749873 -164.621492 
L 254.499185 -164.621492 
L 254.248497 -164.621492 
L 254.022878 -164.621492 
L 253.77219 -164.621492 
L 253.521502 -164.621492 
L 253.270814 -164.621492 
L 253.020126 -164.621492 
L 252.769438 -164.621492 
L 252.543819 -164.621492 
L 252.293131 -164.621492 
L 252.042443 -164.621492 
L 251.791755 -164.621492 
L 251.541067 -164.621492 
L 251.290379 -164.621492 
L 251.06476 -164.621492 
L 250.814072 -164.621492 
L 250.563384 -164.621492 
L 250.312696 -164.621492 
L 250.062008 -164.621492 
L 249.81132 -164.621492 
L 249.585701 -164.621492 
L 249.335013 -164.621492 
L 249.084325 -164.621492 
L 248.833637 -164.621492 
L 248.582949 -164.621492 
L 248.332261 -164.621492 
L 248.106642 -164.621492 
L 247.855954 -164.621492 
L 247.605266 -164.621492 
L 247.354578 -164.621492 
L 247.10389 -164.621492 
L 246.878271 -164.621492 
L 246.627583 -164.621492 
L 246.376895 -164.621492 
L 246.126207 -164.621492 
L 245.875519 -164.621492 
L 245.624832 -164.621492 
L 245.399212 -164.621492 
L 245.148524 -164.621492 
L 244.897837 -164.621492 
L 244.647149 -164.621492 
L 244.396461 -164.621492 
L 244.145773 -164.621492 
L 243.920154 -164.621492 
L 243.669466 -164.621492 
L 243.418778 -164.621492 
L 243.16809 -164.621492 
L 242.917402 -164.621492 
L 242.666714 -164.621492 
L 242.441095 -164.621492 
L 242.190407 -164.621492 
L 241.939719 -164.621492 
L 241.689031 -164.621492 
L 241.438343 -164.621492 
L 241.187655 -164.621492 
L 240.962036 -164.621492 
L 240.711348 -164.621492 
L 240.46066 -164.621492 
L 240.209972 -164.621492 
L 239.959284 -164.621492 
L 239.727712 -164.621492 
L 239.482977 -164.621492 
L 239.232289 -164.621492 
L 238.981601 -164.621492 
L 238.730913 -164.621492 
L 238.480225 -164.621492 
L 238.254606 -164.621492 
L 238.003918 -164.621492 
L 237.75323 -164.621492 
L 237.502542 -164.621492 
L 237.251854 -164.621492 
L 237.001166 -164.621492 
L 236.775547 -164.621492 
L 236.524859 -164.621492 
L 236.274171 -164.621492 
L 236.023483 -164.621492 
L 235.772795 -164.621492 
L 235.522107 -164.621492 
L 235.296488 -164.621492 
L 235.0458 -164.621492 
L 234.795112 -164.621492 
L 234.544424 -164.621492 
L 234.293736 -164.621492 
L 234.043049 -164.621492 
L 233.817429 -164.621492 
L 233.566741 -164.621492 
L 233.316053 -164.621492 
L 233.065366 -164.621492 
L 232.814678 -164.621492 
L 232.568852 -164.621492 
L 232.33837 -164.621492 
L 232.087683 -164.621492 
L 231.836995 -164.621492 
L 231.586307 -164.621492 
L 231.335619 -164.621492 
L 231.11 -164.621492 
L 230.859312 -164.621492 
L 230.608624 -164.621492 
L 230.357936 -164.621492 
L 230.107248 -164.621492 
L 229.85656 -164.621492 
L 229.630941 -164.621492 
L 229.380253 -164.621492 
L 229.129565 -164.621492 
L 228.878877 -164.621492 
L 228.628189 -164.621492 
L 228.377501 -164.621492 
L 228.151882 -164.621492 
L 227.901194 -164.621492 
L 227.650506 -164.621492 
L 227.399818 -164.621492 
L 227.14913 -164.621492 
L 226.898442 -164.621492 
L 226.672823 -164.621492 
L 226.422135 -164.621492 
L 226.171447 -164.621492 
L 225.920759 -164.621492 
L 225.670071 -164.621492 
L 225.419383 -164.621492 
L 225.193764 -164.621492 
L 224.943076 -164.621492 
L 224.692388 -164.621492 
L 224.4417 -164.621492 
L 224.191012 -164.621492 
L 223.965393 -164.621492 
L 223.714705 -164.621492 
L 223.464017 -164.621492 
L 223.213329 -164.621492 
L 222.962641 -164.621492 
L 222.711953 -164.621492 
L 222.486334 -164.621492 
L 222.235646 -164.621492 
L 221.984958 -164.621492 
L 221.73427 -164.621492 
L 221.483582 -164.621492 
L 221.232895 -164.621492 
L 221.007275 -164.621492 
L 220.756587 -164.621492 
L 220.505899 -164.621492 
L 220.255212 -164.621492 
L 220.004524 -164.621492 
L 219.753836 -164.621492 
L 219.528217 -164.621492 
L 219.277529 -164.621492 
L 219.026841 -164.621492 
L 218.776153 -164.621492 
L 218.525465 -164.621492 
L 218.274777 -164.621492 
L 218.049158 -164.621492 
L 217.79847 -164.621492 
L 217.547782 -164.621492 
L 217.297094 -164.621492 
L 217.046406 -164.621492 
L 216.819361 -164.621492 
L 216.570099 -164.621492 
L 216.319411 -164.621492 
L 216.068723 -164.621492 
L 215.818035 -164.621492 
L 215.567347 -164.621492 
L 215.341728 -164.624932 
L 215.09104 -167.89874 
L 214.840352 -174.759461 
L 214.589664 -152.788352 
L 214.338976 -117.615759 
L 214.088288 -135.157178 
L 213.862669 -186.171751 
L 213.611981 -219.169309 
L 213.361293 -192.627645 
L 213.110605 -136.87475 
L 212.859917 -112.549349 
L 212.609229 -146.85234 
L 212.38361 -198.64069 
L 212.132922 -221.512066 
L 211.882234 -185.351713 
L 211.631546 -130.902514 
L 211.380858 -117.316779 
L 211.13017 -160.688612 
L 210.904551 -210.737231 
L 210.653863 -222.234638 
L 210.403175 -177.380796 
L 210.152487 -125.293385 
L 209.901799 -123.10052 
L 209.660502 -172.095123 
L 209.425492 -220.327952 
L 209.174804 -219.69885 
L 208.924116 -167.122875 
L 208.673429 -119.608255 
L 208.422741 -129.694366 
L 208.197121 -180.618842 
L 207.946433 -226.554089 
L 207.695746 -213.69459 
L 207.445058 -156.206434 
L 207.19437 -116.835025 
L 206.943682 -138.702785 
L 206.718063 -191.821592 
L 206.467375 -228.774784 
L 206.216687 -204.327741 
L 205.965999 -144.992176 
L 205.715311 -115.531505 
L 205.464623 -148.630835 
L 205.239004 -203.100192 
L 204.988316 -229.95367 
L 204.737628 -194.677285 
L 204.48694 -135.38622 
L 204.236252 -116.957282 
L 203.985564 -159.899706 
L 203.759945 -211.540288 
L 203.509257 -219.184615 
L 203.258569 -180.34047 
L 203.007881 -164.431663 
L 202.757193 -173.072797 
L 202.506505 -175.231288 
L 202.280886 -175.23129 
L 202.030198 -175.23129 
L 201.77951 -175.23129 
L 201.528822 -175.23129 
L 201.278134 -175.23129 
L 201.052515 -175.23129 
L 200.801827 -175.23129 
L 200.551139 -175.23129 
L 200.300451 -175.23129 
L 200.049763 -175.23129 
L 199.799075 -175.23129 
L 199.573456 -175.23129 
L 199.322768 -175.23129 
L 199.07208 -175.23129 
L 198.821392 -175.23129 
L 198.570704 -175.23129 
L 198.320016 -175.23129 
L 198.094397 -175.23129 
L 197.843709 -175.23129 
L 197.593021 -175.23129 
L 197.342333 -175.23129 
L 197.091645 -175.23129 
L 196.840958 -175.23129 
L 196.615338 -175.23129 
L 196.36465 -175.23129 
L 196.113962 -175.23129 
L 195.863275 -175.23129 
L 195.612587 -175.23129 
L 195.361899 -175.23129 
L 195.13628 -175.23129 
L 194.885592 -175.23129 
L 194.634904 -175.23129 
L 194.384216 -175.23129 
L 194.133528 -175.23129 
L 193.907909 -175.23129 
L 193.657221 -175.23129 
L 193.406533 -175.23129 
L 193.155845 -175.23129 
L 192.905157 -175.23129 
L 192.654469 -175.23129 
L 192.42885 -175.23129 
L 192.178162 -175.23129 
L 191.927474 -175.23129 
L 191.676786 -175.23129 
L 191.426098 -175.23129 
L 191.17541 -175.23129 
L 190.949791 -175.23129 
L 190.699103 -175.23129 
L 190.448415 -175.23129 
L 190.197727 -175.23129 
L 189.947039 -175.23129 
L 189.696351 -175.23129 
L 189.470732 -175.23129 
L 189.220044 -175.23129 
L 188.969356 -175.23129 
L 188.718668 -175.23129 
L 188.46798 -175.23129 
L 188.217292 -175.23129 
L 187.991673 -175.23129 
L 187.740985 -175.23129 
L 187.490297 -175.23129 
L 187.239609 -175.23129 
L 186.988921 -175.23129 
L 186.752151 -175.23129 
L 186.512614 -175.23129 
L 186.261926 -175.23129 
L 186.011238 -175.23129 
L 185.76055 -175.23129 
L 185.509862 -175.23129 
L 185.284243 -175.23129 
L 185.033555 -175.23129 
L 184.782867 -175.23129 
L 184.532179 -175.23129 
L 184.281492 -175.23129 
L 184.030804 -175.23129 
L 183.805184 -175.23129 
L 183.554496 -175.23129 
L 183.303809 -175.23129 
L 183.053121 -175.23129 
L 182.802433 -175.23129 
L 182.551745 -175.23129 
L 182.326126 -175.23129 
L 182.075438 -175.23129 
L 181.82475 -175.23129 
L 181.574062 -175.23129 
L 181.323374 -175.23129 
L 181.072686 -175.23129 
L 180.847067 -175.23129 
L 180.596379 -175.23129 
L 180.345691 -175.23129 
L 180.095003 -175.23129 
L 179.844315 -175.23129 
L 179.593627 -175.23129 
L 179.368008 -175.23129 
L 179.11732 -175.23129 
L 178.866632 -175.23129 
L 178.615944 -175.23129 
L 178.365256 -175.23129 
L 178.139637 -175.23129 
L 177.888949 -175.23129 
L 177.638261 -175.23129 
L 177.387573 -175.23129 
L 177.136885 -175.23129 
L 176.886197 -175.23129 
L 176.660578 -175.23129 
L 176.40989 -175.23129 
L 176.159202 -175.23129 
L 175.908514 -175.23129 
L 175.657826 -175.23129 
L 175.407138 -175.23129 
L 175.181519 -175.23129 
L 174.930831 -175.23129 
L 174.680143 -175.23129 
L 174.429455 -175.23129 
L 174.178767 -175.23129 
L 173.928079 -175.23129 
L 173.70246 -175.23129 
L 173.451772 -175.23129 
L 173.201084 -175.23129 
L 172.950396 -175.23129 
L 172.699708 -175.23129 
L 172.449021 -175.23129 
L 172.223401 -175.23129 
L 171.972713 -175.23129 
L 171.722025 -175.23129 
L 171.471338 -175.23129 
L 171.22065 -175.23129 
L 170.99503 -175.23129 
L 170.744342 -175.23129 
L 170.493655 -175.23129 
L 170.242967 -175.23129 
L 169.992279 -175.23129 
L 169.741591 -175.23129 
L 169.515972 -175.23129 
L 169.265284 -175.23129 
L 169.014596 -175.23129 
L 168.763908 -175.23129 
L 168.51322 -175.23129 
L 168.262532 -175.23129 
L 168.036913 -175.23129 
L 167.786225 -175.23129 
L 167.535537 -175.23129 
L 167.284849 -175.23129 
L 167.034161 -175.23129 
L 166.783473 -175.23129 
L 166.557854 -175.23129 
L 166.307166 -175.23129 
L 166.056478 -175.23129 
L 165.80579 -175.23129 
L 165.555102 -175.23129 
L 165.304414 -175.23129 
L 165.078795 -175.23129 
L 164.828107 -175.23129 
L 164.577419 -175.23129 
L 164.326731 -175.23129 
L 164.076043 -175.23129 
L 163.8438 -175.23129 
L 163.599736 -175.23129 
L 163.349048 -175.23129 
L 163.09836 -175.23129 
L 162.847672 -175.23129 
L 162.596984 -175.23129 
L 162.371365 -175.23129 
L 162.120677 -175.23129 
L 161.869989 -175.23129 
L 161.619301 -175.23129 
L 161.368613 -175.23129 
L 161.117925 -175.23129 
L 160.892306 -175.23129 
L 160.641618 -175.23129 
L 160.39093 -175.23129 
L 160.140242 -175.23129 
L 159.889554 -175.23129 
L 159.638867 -175.23129 
L 159.413247 -175.23129 
L 159.162559 -175.23129 
L 158.911872 -175.23129 
L 158.661184 -175.23129 
L 158.410496 -175.23129 
L 158.159808 -175.231292 
L 157.934189 -175.894717 
L 157.683501 -183.690281 
L 157.432813 -178.201043 
L 157.182125 -139.851007 
L 156.931437 -127.9785 
L 156.684941 -175.760426 
L 156.45513 -223.912242 
L 156.204442 -224.693372 
L 155.953754 -173.026602 
L 155.703066 -125.961213 
L 155.452378 -134.515192 
L 155.226759 -184.190598 
L 154.976071 -230.894144 
L 154.725383 -219.531376 
L 154.474695 -163.300057 
L 154.224007 -123.402668 
L 153.973319 -143.881051 
L 153.7477 -196.992702 
L 153.497012 -235.048796 
L 153.246324 -211.707961 
L 152.995636 -153.237194 
L 152.744948 -123.133483 
L 152.49426 -154.601491 
L 152.268641 -208.832327 
L 152.017953 -237.023451 
L 151.767265 -203.148055 
L 151.516577 -144.993458 
L 151.265889 -125.687537 
L 151.015201 -167.405637 
L 150.789582 -220.497902 
L 150.538894 -237.243142 
L 150.288206 -193.997903 
L 150.037518 -138.025185 
L 149.78683 -130.647768 
L 149.536142 -180.642579 
L 149.310523 -230.125217 
L 149.059835 -234.694823 
L 148.809147 -184.847135 
L 148.558459 -135.221233 
L 148.307771 -140.298643 
L 148.082152 -189.743743 
L 147.831464 -239.166975 
L 147.580776 -231.466465 
L 147.330088 -176.811708 
L 147.079401 -134.743114 
L 146.828713 -151.661572 
L 146.603093 -203.720482 
L 146.352405 -240.232256 
L 146.101718 -214.465052 
L 145.85103 -181.846017 
L 145.600342 -184.562853 
L 145.349654 -190.864767 
L 145.124035 -191.01014 
L 144.873347 -191.01014 
L 144.622659 -191.01014 
L 144.371971 -191.01014 
L 144.121283 -191.01014 
L 143.870595 -191.01014 
L 143.644976 -191.01014 
L 143.394288 -191.01014 
L 143.1436 -191.01014 
L 142.892912 -191.01014 
L 142.642224 -191.01014 
L 142.391536 -191.01014 
L 142.165917 -191.01014 
L 141.915229 -191.01014 
L 141.664541 -191.01014 
L 141.413853 -191.01014 
L 141.163165 -191.01014 
L 140.93545 -191.01014 
L 140.686858 -191.01014 
L 140.43617 -191.01014 
L 140.185482 -191.01014 
L 139.934794 -191.01014 
L 139.684106 -191.01014 
L 139.458487 -191.01014 
L 139.207799 -191.01014 
L 138.957111 -191.01014 
L 138.706423 -191.01014 
L 138.455735 -191.01014 
L 138.205047 -191.01014 
L 137.979428 -191.01014 
L 137.72874 -191.01014 
L 137.478052 -191.01014 
L 137.227364 -191.01014 
L 136.976676 -191.01014 
L 136.725988 -191.01014 
L 136.500369 -191.01014 
L 136.249681 -191.01014 
L 135.998993 -191.01014 
L 135.748305 -191.01014 
L 135.497617 -191.01014 
L 135.24693 -191.01014 
L 135.02131 -191.01014 
L 134.770622 -191.01014 
L 134.519934 -191.01014 
L 134.269247 -191.01014 
L 134.018559 -191.01014 
L 133.77659 -191.01014 
L 133.542252 -191.01014 
L 133.291564 -191.01014 
L 133.040876 -191.01014 
L 132.790188 -191.01014 
L 132.5395 -191.01014 
L 132.313881 -191.01014 
L 132.063193 -191.01014 
L 131.812505 -191.01014 
L 131.561817 -191.01014 
L 131.311129 -191.01014 
L 131.060441 -191.01014 
L 130.834822 -191.01014 
L 130.584134 -191.01014 
L 130.333446 -191.01014 
L 130.082758 -191.01014 
L 129.83207 -191.01014 
L 129.581382 -191.01014 
L 129.355763 -191.01014 
L 129.105075 -191.01014 
L 128.854387 -191.01014 
L 128.603699 -191.01014 
L 128.353011 -191.01014 
L 128.102323 -191.01014 
L 127.876704 -191.01014 
L 127.626016 -191.01014 
L 127.375328 -191.01014 
L 127.12464 -191.01014 
L 126.873952 -191.01014 
L 126.623264 -191.01014 
L 126.397645 -191.01014 
L 126.146957 -191.01014 
L 125.896269 -191.01014 
L 125.645581 -191.01014 
L 125.394893 -191.01014 
L 125.169274 -191.01014 
L 124.918586 -191.01014 
L 124.667898 -191.01014 
L 124.41721 -191.01014 
L 124.166522 -191.01014 
L 123.915834 -191.01014 
L 123.690215 -191.01014 
L 123.439527 -191.01014 
L 123.188839 -191.01014 
L 122.938151 -191.01014 
L 122.687464 -191.01014 
L 122.436776 -191.01014 
L 122.211156 -191.01014 
L 121.960468 -191.01014 
L 121.709781 -191.01014 
L 121.459093 -191.01014 
L 121.208405 -191.01014 
L 120.957717 -191.01014 
L 120.732098 -191.01014 
L 120.48141 -191.01014 
L 120.230722 -191.01014 
L 119.980034 -191.01014 
L 119.729346 -191.01014 
L 119.478658 -191.01014 
L 119.253039 -191.01014 
L 119.002351 -191.01014 
L 118.751663 -191.01014 
L 118.500975 -191.01014 
L 118.250287 -191.01014 
L 118.024668 -191.01014 
L 117.77398 -191.01014 
L 117.523292 -191.01014 
L 117.272604 -191.01014 
L 117.021916 -191.01014 
L 116.771228 -191.01014 
L 116.545609 -191.01014 
L 116.294921 -191.01014 
L 116.044233 -191.01014 
L 115.793545 -191.01014 
L 115.542857 -191.01014 
L 115.292169 -191.01014 
L 115.06655 -191.01014 
L 114.815862 -191.01014 
L 114.565174 -191.01014 
L 114.314486 -191.01014 
L 114.063798 -191.01014 
L 113.81311 -191.01014 
L 113.587491 -191.01014 
L 113.336803 -191.01014 
L 113.086115 -191.01014 
L 112.835427 -191.01014 
L 112.584739 -191.01014 
L 112.334051 -191.01014 
L 112.108432 -191.01014 
L 111.857744 -191.01014 
L 111.607056 -191.01014 
L 111.356368 -191.01014 
L 111.10568 -191.01014 
L 110.86824 -191.01014 
L 110.629373 -191.01014 
L 110.378685 -191.01014 
L 110.127997 -191.01014 
L 109.87731 -191.01014 
L 109.626622 -191.01014 
L 109.401002 -191.01014 
L 109.150315 -191.01014 
L 108.899627 -191.01014 
L 108.648939 -191.01014 
L 108.398251 -191.01014 
L 108.147563 -191.01014 
L 107.921944 -191.01014 
L 107.671256 -191.01014 
L 107.420568 -191.01014 
L 107.16988 -191.01014 
L 106.919192 -191.01014 
L 106.668504 -191.01014 
L 106.442885 -191.01014 
L 106.192197 -191.01014 
L 105.941509 -191.01014 
L 105.690821 -191.01014 
L 105.440133 -191.01014 
L 105.189445 -191.01014 
L 104.963826 -191.01014 
L 104.713138 -191.01014 
L 104.46245 -191.01014 
L 104.211762 -191.01014 
L 103.961074 -191.01014 
L 103.710386 -191.01014 
L 103.484767 -191.01014 
L 103.234079 -191.01014 
L 102.983391 -191.01014 
L 102.732703 -191.01014 
L 102.482015 -191.01014 
L 102.256396 -191.01014 
L 102.005708 -191.01014 
L 101.75502 -191.01014 
L 101.504332 -191.01014 
L 101.253644 -191.01014 
L 101.002956 -191.01014 
L 100.777337 -191.026175 
L 100.526649 -195.088107 
L 100.275961 -201.593301 
L 100.025273 -175.970753 
L 99.774585 -142.039799 
L 99.523897 -166.214523 
L 99.298278 -219.633232 
L 99.04759 -248.552785 
L 98.796902 -216.243805 
L 98.546214 -158.409278 
L 98.295527 -138.218601 
L 98.044839 -177.723896 
L 97.819219 -229.319649 
L 97.568531 -246.988632 
L 97.317844 -206.007916 
L 97.067156 -151.73877 
L 96.816468 -143.427845 
L 96.56578 -190.923265 
L 96.340161 -239.473164 
L 96.089473 -245.272947 
L 95.838785 -196.563003 
L 95.588097 -146.841985 
L 95.337409 -150.480733 
L 95.11179 -198.63282 
L 94.861102 -248.795497 
L 94.610414 -242.38881 
L 94.359726 -187.39632 
L 94.109038 -143.710901 
L 93.85835 -159.614129 
L 93.632731 -211.923001 
L 93.382043 -253.76686 
L 93.131355 -235.560906 
L 92.880667 -178.114334 
L 92.629979 -144.322285 
L 92.379291 -170.935494 
L 92.153672 -223.948332 
L 91.902984 -256.055926 
L 91.652296 -226.723959 
L 91.401608 -168.20062 
L 91.15092 -144.453681 
L 90.900232 -181.764389 
L 90.674613 -234.742876 
L 90.423925 -256.026152 
L 90.173237 -217.368735 
L 89.922549 -160.919401 
L 89.671861 -148.683879 
L 89.421173 -195.067235 
L 89.195554 -244.281348 
L 88.944866 -245.720067 
L 88.694178 -206.356974 
L 88.44349 -193.840027 
L 88.192802 -202.67825 
L 87.959889 -204.277699 
z
" style="stroke: #f0a499; stroke-opacity: 0.5; stroke-width: 0.5"/>
    </defs>
    <g clip-path="url(#p8ffb80cb6e)">
     <use xlink:href="#m5bdbca2f85" x="0" y="288.773017" style="fill: #f0a499; fill-opacity: 0.5; stroke: #f0a499; stroke-opacity: 0.5; stroke-width: 0.5"/>
    </g>
   </g>
   <g id="line2d_25">
    <path d="M 87.959889 227.110617 
L 87.959889 18.6624 
" clip-path="url(#p8ffb80cb6e)" style="fill: none; stroke-dasharray: 3.7,1.6; stroke-dashoffset: 0; stroke: #ff4500"/>
   </g>
   <g id="line2d_26">
    <path d="M 145.230766 227.110617 
L 145.230766 18.6624 
" clip-path="url(#p8ffb80cb6e)" style="fill: none; stroke-dasharray: 3.7,1.6; stroke-dashoffset: 0; stroke: #ff4500"/>
   </g>
   <g id="line2d_27">
    <path d="M 202.501642 227.110617 
L 202.501642 18.6624 
" clip-path="url(#p8ffb80cb6e)" style="fill: none; stroke-dasharray: 3.7,1.6; stroke-dashoffset: 0; stroke: #ff4500"/>
   </g>
   <g id="line2d_28">
    <path d="M 259.7887 227.110617 
L 259.7887 18.6624 
" clip-path="url(#p8ffb80cb6e)" style="fill: none; stroke-dasharray: 3.7,1.6; stroke-dashoffset: 0; stroke: #ff4500"/>
   </g>
   <g id="line2d_29">
    <path d="M 317.043396 227.110617 
L 317.043396 18.6624 
" clip-path="url(#p8ffb80cb6e)" style="fill: none; stroke-dasharray: 3.7,1.6; stroke-dashoffset: 0; stroke: #ff4500"/>
   </g>
   <g id="line2d_30">
    <path d="M 374.314272 227.110617 
L 374.314272 18.6624 
" clip-path="url(#p8ffb80cb6e)" style="fill: none; stroke-dasharray: 3.7,1.6; stroke-dashoffset: 0; stroke: #ff4500"/>
   </g>
   <g id="line2d_31">
    <path d="M 100.845836 227.110617 
L 100.845836 18.6624 
" clip-path="url(#p8ffb80cb6e)" style="fill: none; stroke-dasharray: 1,1.65; stroke-dashoffset: 0; stroke: #add8e6"/>
   </g>
   <g id="line2d_32">
    <path d="M 158.116713 227.110617 
L 158.116713 18.6624 
" clip-path="url(#p8ffb80cb6e)" style="fill: none; stroke-dasharray: 1,1.65; stroke-dashoffset: 0; stroke: #add8e6"/>
   </g>
   <g id="line2d_33">
    <path d="M 215.387589 227.110617 
L 215.387589 18.6624 
" clip-path="url(#p8ffb80cb6e)" style="fill: none; stroke-dasharray: 1,1.65; stroke-dashoffset: 0; stroke: #add8e6"/>
   </g>
   <g id="line2d_34">
    <path d="M 272.674061 227.110617 
L 272.674061 18.6624 
" clip-path="url(#p8ffb80cb6e)" style="fill: none; stroke-dasharray: 1,1.65; stroke-dashoffset: 0; stroke: #add8e6"/>
   </g>
   <g id="line2d_35">
    <path d="M 329.929343 227.110617 
L 329.929343 18.6624 
" clip-path="url(#p8ffb80cb6e)" style="fill: none; stroke-dasharray: 1,1.65; stroke-dashoffset: 0; stroke: #add8e6"/>
   </g>
   <g id="line2d_36">
    <path d="M 387.200219 227.110617 
L 387.200219 18.6624 
" clip-path="url(#p8ffb80cb6e)" style="fill: none; stroke-dasharray: 1,1.65; stroke-dashoffset: 0; stroke: #add8e6"/>
   </g>
   <g id="line2d_37">
    <path d="M 87.959889 82.327325 
L 88.192802 83.926726 
L 88.44349 92.764208 
L 88.694178 80.244797 
L 88.944866 40.872092 
L 89.195554 42.30833 
L 89.671861 137.881524 
L 89.922549 125.643541 
L 90.423925 30.511585 
L 90.674613 51.790986 
L 91.15092 142.056862 
L 91.401608 118.305617 
L 91.652296 59.764989 
L 91.902984 30.427205 
L 92.153672 62.528361 
L 92.379291 115.525173 
L 92.629979 142.133095 
L 92.880667 108.333531 
L 93.131355 50.86933 
L 93.382043 32.659922 
L 94.109038 142.688275 
L 94.610414 43.983941 
L 94.861102 37.575185 
L 95.337409 135.865579 
L 95.588097 139.502401 
L 96.089473 41.04516 
L 96.340161 46.843019 
L 96.816468 142.864295 
L 97.067156 134.551164 
L 97.568531 39.275302 
L 97.819219 56.94111 
L 98.295527 148.018894 
L 98.546214 127.824506 
L 99.04759 37.657689 
L 99.298278 66.571814 
L 99.523897 119.975787 
L 99.774585 144.14561 
L 100.275961 84.58071 
L 100.777337 95.14694 
L 102.482015 95.162975 
L 145.124035 95.162975 
L 145.349654 95.308346 
L 145.600342 101.609937 
L 145.85103 104.325971 
L 146.352405 45.928356 
L 146.603093 82.432048 
L 146.828713 134.477373 
L 147.079401 151.392865 
L 147.580776 54.644862 
L 147.831464 46.942304 
L 148.307771 145.787868 
L 148.558459 150.863445 
L 149.059835 51.364052 
L 149.310523 55.931859 
L 149.78683 155.387348 
L 150.037518 148.008106 
L 150.538894 48.766655 
L 150.789582 65.509226 
L 151.265889 160.299516 
L 151.516577 140.990587 
L 152.017953 48.939426 
L 152.268641 77.125895 
L 152.49426 131.343256 
L 152.744948 162.805812 
L 152.995636 132.696878 
L 153.246324 74.210904 
L 153.497012 50.866354 
L 153.7477 88.915401 
L 153.973319 142.014208 
L 154.224007 162.489452 
L 154.976071 54.974146 
L 155.452378 151.332134 
L 155.703066 159.884276 
L 156.204442 61.129816 
L 156.45513 61.909389 
L 156.931437 157.822922 
L 157.182125 145.947977 
L 157.432813 107.590585 
L 157.683501 102.100241 
L 157.934189 109.895348 
L 158.159808 110.558762 
L 202.506505 110.558767 
L 202.757193 112.717198 
L 203.007881 121.357756 
L 203.258569 105.44655 
L 203.509257 66.595091 
L 203.759945 74.237168 
L 204.236252 168.800191 
L 204.48694 150.368608 
L 204.988316 55.781624 
L 205.239004 82.6311 
L 205.464623 137.087795 
L 205.715311 170.181846 
L 205.965999 140.7167 
L 206.216687 81.367436 
L 206.467375 56.916909 
L 206.718063 93.863924 
L 206.943682 146.971218 
L 207.19437 168.83605 
L 207.445058 129.458288 
L 207.695746 71.957791 
L 207.946433 59.096305 
L 208.422741 155.937849 
L 208.673429 166.0223 
L 209.174804 65.9119 
L 209.425492 65.281376 
L 209.901799 162.489307 
L 210.152487 160.294926 
L 210.653863 63.332453 
L 210.904551 74.827932 
L 211.380858 168.229158 
L 211.631546 154.641139 
L 212.132922 64.011487 
L 212.38361 86.879525 
L 212.859917 172.95324 
L 213.110605 148.624025 
L 213.361293 92.857225 
L 213.611981 66.311349 
L 213.862669 99.303429 
L 214.088288 150.306181 
L 214.338976 167.844512 
L 214.840352 110.69145 
L 215.09104 117.551605 
L 215.341728 120.825301 
L 222.711953 120.828741 
L 259.688425 120.82874 
L 259.914044 121.097302 
L 260.164732 127.959138 
L 260.41542 128.162132 
L 260.916796 72.794764 
L 261.643791 173.63254 
L 262.145167 79.174094 
L 262.395855 77.326083 
L 262.872162 172.298579 
L 263.12285 171.454332 
L 263.624226 75.72878 
L 263.874914 85.576464 
L 264.351221 178.888232 
L 264.601909 166.357065 
L 265.103285 75.338947 
L 265.353973 96.557372 
L 265.83028 183.041684 
L 266.080968 159.641002 
L 266.331656 103.804278 
L 266.582344 76.231797 
L 266.833032 107.92937 
L 267.058651 159.275054 
L 267.309339 184.377416 
L 267.560027 151.211366 
L 267.810715 96.08384 
L 268.061403 79.178797 
L 268.788398 185.552102 
L 269.289774 89.799323 
L 269.540461 84.293655 
L 270.016769 180.089235 
L 270.267457 182.812003 
L 270.768832 85.021892 
L 271.01952 91.539008 
L 271.495827 184.388846 
L 271.746515 167.105611 
L 271.997203 130.716533 
L 272.247891 128.344377 
L 272.498579 135.75405 
L 272.724198 136.162906 
L 317.070896 136.163377 
L 317.321584 139.009759 
L 317.572272 147.089959 
L 317.82296 127.53547 
L 318.073648 89.945926 
L 318.324335 103.705993 
L 318.800643 193.661532 
L 319.051331 170.474605 
L 319.302018 112.736298 
L 319.552706 83.354855 
L 319.803394 114.998744 
L 320.029014 168.674656 
L 320.279701 196.027814 
L 320.530389 162.999078 
L 320.781077 106.558571 
L 321.031765 88.028745 
L 321.75876 196.32663 
L 322.260136 100.318108 
L 322.510824 93.407225 
L 322.987131 189.565717 
L 323.237819 193.616272 
L 323.739195 93.450777 
L 323.989883 98.670822 
L 324.46619 195.354363 
L 324.716878 187.304891 
L 325.218254 89.63975 
L 325.468942 107.13131 
L 325.945249 200.668627 
L 326.195937 180.904916 
L 326.697313 90.497495 
L 326.948001 119.136675 
L 327.17362 172.31546 
L 327.424308 202.554868 
L 327.674996 172.002143 
L 327.925684 113.65902 
L 328.176372 91.28299 
L 328.42706 129.82628 
L 328.652679 181.676622 
L 328.903367 193.724444 
L 329.154055 155.58456 
L 329.404743 136.509886 
L 329.655431 144.601302 
L 329.906119 147.240906 
L 374.252816 147.241105 
L 374.478435 147.725747 
L 374.729123 155.651904 
L 374.979811 153.251022 
L 375.230499 116.140718 
L 375.481187 99.97225 
L 375.957494 195.638567 
L 376.208182 201.284837 
L 376.709558 100.536832 
L 376.960246 104.615315 
L 377.436553 203.660303 
L 377.687241 196.932239 
L 378.188617 97.722059 
L 378.439305 114.141059 
L 378.915612 210.343663 
L 379.1663 191.097812 
L 379.667676 96.075883 
L 379.918363 124.515532 
L 380.143983 180.449689 
L 380.394671 213.57661 
L 380.645359 182.993007 
L 380.896046 122.928594 
L 381.146734 98.686291 
L 381.397422 137.601911 
L 381.623041 191.903352 
L 381.873729 213.164849 
L 382.625793 102.110687 
L 383.1021 202.079289 
L 383.352788 211.413147 
L 383.854164 110.335402 
L 384.104852 110.621765 
L 384.581159 210.144703 
L 384.831847 206.991168 
L 385.333223 104.570334 
L 385.583911 117.272088 
L 386.060218 210.785641 
L 386.310906 187.372333 
L 386.561594 151.024239 
L 386.812282 151.690588 
L 387.06297 158.681299 
L 387.288589 158.9196 
L 431.409667 158.919601 
L 431.409667 158.919601 
" clip-path="url(#p8ffb80cb6e)" style="fill: none; stroke: #e24a33; stroke-width: 0.5; stroke-linecap: square"/>
   </g>
   <g id="line2d_38">
    <path d="M 87.959889 84.694198 
L 92.379291 87.513959 
L 97.067156 90.240753 
L 103.710386 93.832031 
L 105.189445 94.51007 
L 107.420568 94.956639 
L 109.626622 95.167939 
L 112.584739 95.207575 
L 125.169274 95.162975 
L 135.998993 95.24936 
L 137.979428 95.550352 
L 139.934794 96.089972 
L 141.915229 96.896339 
L 143.870595 97.95849 
L 146.101718 99.431699 
L 149.536142 102.006067 
L 155.703066 106.691882 
L 158.159808 108.243136 
L 160.140242 109.221548 
L 161.869989 109.834855 
L 163.8438 110.277813 
L 166.056478 110.537377 
L 168.763908 110.620993 
L 194.885592 110.620014 
L 197.843709 110.915107 
L 200.049763 111.366021 
L 202.030198 111.997934 
L 204.48694 113.035236 
L 207.946433 114.776688 
L 214.840352 118.281865 
L 217.547782 119.412156 
L 219.753836 120.111424 
L 221.984958 120.590715 
L 224.191012 120.83664 
L 226.898442 120.886294 
L 239.482977 120.828741 
L 251.06476 120.936609 
L 253.020126 121.247116 
L 255.000561 121.800906 
L 256.730307 122.505528 
L 258.685673 123.5588 
L 260.916796 125.026517 
L 264.351221 127.596535 
L 270.518144 132.267825 
L 272.974886 133.823168 
L 274.955321 134.809853 
L 276.685068 135.432952 
L 278.640434 135.886692 
L 280.871557 136.150905 
L 283.578986 136.221844 
L 306.742552 136.155996 
L 309.199294 136.369844 
L 311.405348 136.802719 
L 313.636471 137.490973 
L 315.842525 138.422852 
L 318.800643 139.951279 
L 329.154055 145.547437 
L 331.361115 146.370672 
L 333.340543 146.872646 
L 335.571666 147.184629 
L 338.279096 147.329288 
L 342.214897 147.288383 
L 348.607439 147.241105 
L 365.127775 147.335018 
L 367.333829 147.650571 
L 369.314263 148.158179 
L 371.294698 148.895627 
L 373.500752 149.973314 
L 376.709558 151.831258 
L 384.336676 156.343471 
L 386.812282 157.530632 
L 388.767648 158.250011 
L 390.748083 158.734463 
L 392.728517 158.988211 
L 395.185259 159.08405 
L 399.622436 158.970252 
L 405.037296 158.919601 
L 431.409667 158.919601 
L 431.409667 158.919601 
" clip-path="url(#p8ffb80cb6e)" style="fill: none; stroke: #348abd; stroke-width: 1.5; stroke-linecap: square"/>
   </g>
   <g id="patch_3">
    <path d="M 70.7874 227.110617 
L 70.7874 18.6624 
" style="fill: none; stroke: #ffffff; stroke-linejoin: miter; stroke-linecap: square"/>
   </g>
   <g id="patch_4">
    <path d="M 448.582156 227.110617 
L 448.582156 18.6624 
" style="fill: none; stroke: #ffffff; stroke-linejoin: miter; stroke-linecap: square"/>
   </g>
   <g id="patch_5">
    <path d="M 70.7874 227.110617 
L 448.582156 227.110617 
" style="fill: none; stroke: #ffffff; stroke-linejoin: miter; stroke-linecap: square"/>
   </g>
   <g id="patch_6">
    <path d="M 70.7874 18.6624 
L 448.582156 18.6624 
" style="fill: none; stroke: #ffffff; stroke-linejoin: miter; stroke-linecap: square"/>
   </g>
  </g>
 </g>
 <defs>
  <clipPath id="p8ffb80cb6e">
   <rect x="70.7874" y="18.6624" width="377.794756" height="208.448217"/>
  </clipPath>
 </defs>
</svg>
