<?xml version="1.0" encoding="utf-8" standalone="no"?>
<!DOCTYPE svg PUBLIC "-//W3C//DTD SVG 1.1//EN"
  "http://www.w3.org/Graphics/SVG/1.1/DTD/svg11.dtd">
<svg xmlns:xlink="http://www.w3.org/1999/xlink" width="467.244556pt" height="288.773017pt" viewBox="0 0 467.244556 288.773017" xmlns="http://www.w3.org/2000/svg" version="1.1">
 <metadata>
  <rdf:RDF xmlns:dc="http://purl.org/dc/elements/1.1/" xmlns:cc="http://creativecommons.org/ns#" xmlns:rdf="http://www.w3.org/1999/02/22-rdf-syntax-ns#">
   <cc:Work>
    <dc:type rdf:resource="http://purl.org/dc/dcmitype/StillImage"/>
    <dc:date>1980-01-01T00:00:00+00:00</dc:date>
    <dc:format>image/svg+xml</dc:format>
    <dc:creator>
     <cc:Agent>
      <dc:title>Matplotlib v3.5.2, https://matplotlib.org/</dc:title>
     </cc:Agent>
    </dc:creator>
   </cc:Work>
  </rdf:RDF>
 </metadata>
 <defs>
  <style type="text/css">*{stroke-linejoin: round; stroke-linecap: butt}</style>
 </defs>
 <g id="figure_1">
  <g id="patch_1">
   <path d="M 0 288.773017 
L 467.244556 288.773017 
L 467.244556 0 
L 0 0 
z
" style="fill: #ffffff"/>
  </g>
  <g id="axes_1">
   <g id="patch_2">
    <path d="M 70.7874 227.110617 
L 448.582156 227.110617 
L 448.582156 18.6624 
L 70.7874 18.6624 
z
" style="fill: #e5e5e5"/>
   </g>
   <g id="matplotlib.axis_1">
    <g id="xtick_1">
     <g id="line2d_1">
      <path d="M 101.003213 227.110617 
L 101.003213 18.6624 
" clip-path="url(#pd51dcb5e76)" style="fill: none; stroke: #ffffff; stroke-width: 0.8; stroke-linecap: square"/>
     </g>
     <g id="line2d_2">
      <defs>
       <path id="mc5abbb1dbf" d="M 0 0 
L 0 3.5 
" style="stroke: #000000; stroke-width: 0.8"/>
      </defs>
      <g>
       <use xlink:href="#mc5abbb1dbf" x="101.003213" y="227.110617" style="stroke: #000000; stroke-width: 0.8"/>
      </g>
     </g>
     <g id="text_1">
      <!-- 35 -->
      <g transform="translate(91.841213 245.052367)scale(0.144 -0.144)">
       <defs>
        <path id="DejaVuSans-33" d="M 2597 2516 
Q 3050 2419 3304 2112 
Q 3559 1806 3559 1356 
Q 3559 666 3084 287 
Q 2609 -91 1734 -91 
Q 1441 -91 1130 -33 
Q 819 25 488 141 
L 488 750 
Q 750 597 1062 519 
Q 1375 441 1716 441 
Q 2309 441 2620 675 
Q 2931 909 2931 1356 
Q 2931 1769 2642 2001 
Q 2353 2234 1838 2234 
L 1294 2234 
L 1294 2753 
L 1863 2753 
Q 2328 2753 2575 2939 
Q 2822 3125 2822 3475 
Q 2822 3834 2567 4026 
Q 2313 4219 1838 4219 
Q 1578 4219 1281 4162 
Q 984 4106 628 3988 
L 628 4550 
Q 988 4650 1302 4700 
Q 1616 4750 1894 4750 
Q 2613 4750 3031 4423 
Q 3450 4097 3450 3541 
Q 3450 3153 3228 2886 
Q 3006 2619 2597 2516 
z
" transform="scale(0.015625)"/>
        <path id="DejaVuSans-35" d="M 691 4666 
L 3169 4666 
L 3169 4134 
L 1269 4134 
L 1269 2991 
Q 1406 3038 1543 3061 
Q 1681 3084 1819 3084 
Q 2600 3084 3056 2656 
Q 3513 2228 3513 1497 
Q 3513 744 3044 326 
Q 2575 -91 1722 -91 
Q 1428 -91 1123 -41 
Q 819 9 494 109 
L 494 744 
Q 775 591 1075 516 
Q 1375 441 1709 441 
Q 2250 441 2565 725 
Q 2881 1009 2881 1497 
Q 2881 1984 2565 2268 
Q 2250 2553 1709 2553 
Q 1456 2553 1204 2497 
Q 953 2441 691 2322 
L 691 4666 
z
" transform="scale(0.015625)"/>
       </defs>
       <use xlink:href="#DejaVuSans-33"/>
       <use xlink:href="#DejaVuSans-35" x="63.623047"/>
      </g>
     </g>
    </g>
    <g id="xtick_2">
     <g id="line2d_3">
      <path d="M 151.197691 227.110617 
L 151.197691 18.6624 
" clip-path="url(#pd51dcb5e76)" style="fill: none; stroke: #ffffff; stroke-width: 0.8; stroke-linecap: square"/>
     </g>
     <g id="line2d_4">
      <g>
       <use xlink:href="#mc5abbb1dbf" x="151.197691" y="227.110617" style="stroke: #000000; stroke-width: 0.8"/>
      </g>
     </g>
     <g id="text_2">
      <!-- 40 -->
      <g transform="translate(142.035691 245.052367)scale(0.144 -0.144)">
       <defs>
        <path id="DejaVuSans-34" d="M 2419 4116 
L 825 1625 
L 2419 1625 
L 2419 4116 
z
M 2253 4666 
L 3047 4666 
L 3047 1625 
L 3713 1625 
L 3713 1100 
L 3047 1100 
L 3047 0 
L 2419 0 
L 2419 1100 
L 313 1100 
L 313 1709 
L 2253 4666 
z
" transform="scale(0.015625)"/>
        <path id="DejaVuSans-30" d="M 2034 4250 
Q 1547 4250 1301 3770 
Q 1056 3291 1056 2328 
Q 1056 1369 1301 889 
Q 1547 409 2034 409 
Q 2525 409 2770 889 
Q 3016 1369 3016 2328 
Q 3016 3291 2770 3770 
Q 2525 4250 2034 4250 
z
M 2034 4750 
Q 2819 4750 3233 4129 
Q 3647 3509 3647 2328 
Q 3647 1150 3233 529 
Q 2819 -91 2034 -91 
Q 1250 -91 836 529 
Q 422 1150 422 2328 
Q 422 3509 836 4129 
Q 1250 4750 2034 4750 
z
" transform="scale(0.015625)"/>
       </defs>
       <use xlink:href="#DejaVuSans-34"/>
       <use xlink:href="#DejaVuSans-30" x="63.623047"/>
      </g>
     </g>
    </g>
    <g id="xtick_3">
     <g id="line2d_5">
      <path d="M 201.392169 227.110617 
L 201.392169 18.6624 
" clip-path="url(#pd51dcb5e76)" style="fill: none; stroke: #ffffff; stroke-width: 0.8; stroke-linecap: square"/>
     </g>
     <g id="line2d_6">
      <g>
       <use xlink:href="#mc5abbb1dbf" x="201.392169" y="227.110617" style="stroke: #000000; stroke-width: 0.8"/>
      </g>
     </g>
     <g id="text_3">
      <!-- 45 -->
      <g transform="translate(192.230169 245.052367)scale(0.144 -0.144)">
       <use xlink:href="#DejaVuSans-34"/>
       <use xlink:href="#DejaVuSans-35" x="63.623047"/>
      </g>
     </g>
    </g>
    <g id="xtick_4">
     <g id="line2d_7">
      <path d="M 251.586647 227.110617 
L 251.586647 18.6624 
" clip-path="url(#pd51dcb5e76)" style="fill: none; stroke: #ffffff; stroke-width: 0.8; stroke-linecap: square"/>
     </g>
     <g id="line2d_8">
      <g>
       <use xlink:href="#mc5abbb1dbf" x="251.586647" y="227.110617" style="stroke: #000000; stroke-width: 0.8"/>
      </g>
     </g>
     <g id="text_4">
      <!-- 50 -->
      <g transform="translate(242.424647 245.052367)scale(0.144 -0.144)">
       <use xlink:href="#DejaVuSans-35"/>
       <use xlink:href="#DejaVuSans-30" x="63.623047"/>
      </g>
     </g>
    </g>
    <g id="xtick_5">
     <g id="line2d_9">
      <path d="M 301.781124 227.110617 
L 301.781124 18.6624 
" clip-path="url(#pd51dcb5e76)" style="fill: none; stroke: #ffffff; stroke-width: 0.8; stroke-linecap: square"/>
     </g>
     <g id="line2d_10">
      <g>
       <use xlink:href="#mc5abbb1dbf" x="301.781124" y="227.110617" style="stroke: #000000; stroke-width: 0.8"/>
      </g>
     </g>
     <g id="text_5">
      <!-- 55 -->
      <g transform="translate(292.619124 245.052367)scale(0.144 -0.144)">
       <use xlink:href="#DejaVuSans-35"/>
       <use xlink:href="#DejaVuSans-35" x="63.623047"/>
      </g>
     </g>
    </g>
    <g id="xtick_6">
     <g id="line2d_11">
      <path d="M 351.975602 227.110617 
L 351.975602 18.6624 
" clip-path="url(#pd51dcb5e76)" style="fill: none; stroke: #ffffff; stroke-width: 0.8; stroke-linecap: square"/>
     </g>
     <g id="line2d_12">
      <g>
       <use xlink:href="#mc5abbb1dbf" x="351.975602" y="227.110617" style="stroke: #000000; stroke-width: 0.8"/>
      </g>
     </g>
     <g id="text_6">
      <!-- 60 -->
      <g transform="translate(342.813602 245.052367)scale(0.144 -0.144)">
       <defs>
        <path id="DejaVuSans-36" d="M 2113 2584 
Q 1688 2584 1439 2293 
Q 1191 2003 1191 1497 
Q 1191 994 1439 701 
Q 1688 409 2113 409 
Q 2538 409 2786 701 
Q 3034 994 3034 1497 
Q 3034 2003 2786 2293 
Q 2538 2584 2113 2584 
z
M 3366 4563 
L 3366 3988 
Q 3128 4100 2886 4159 
Q 2644 4219 2406 4219 
Q 1781 4219 1451 3797 
Q 1122 3375 1075 2522 
Q 1259 2794 1537 2939 
Q 1816 3084 2150 3084 
Q 2853 3084 3261 2657 
Q 3669 2231 3669 1497 
Q 3669 778 3244 343 
Q 2819 -91 2113 -91 
Q 1303 -91 875 529 
Q 447 1150 447 2328 
Q 447 3434 972 4092 
Q 1497 4750 2381 4750 
Q 2619 4750 2861 4703 
Q 3103 4656 3366 4563 
z
" transform="scale(0.015625)"/>
       </defs>
       <use xlink:href="#DejaVuSans-36"/>
       <use xlink:href="#DejaVuSans-30" x="63.623047"/>
      </g>
     </g>
    </g>
    <g id="xtick_7">
     <g id="line2d_13">
      <path d="M 402.17008 227.110617 
L 402.17008 18.6624 
" clip-path="url(#pd51dcb5e76)" style="fill: none; stroke: #ffffff; stroke-width: 0.8; stroke-linecap: square"/>
     </g>
     <g id="line2d_14">
      <g>
       <use xlink:href="#mc5abbb1dbf" x="402.17008" y="227.110617" style="stroke: #000000; stroke-width: 0.8"/>
      </g>
     </g>
     <g id="text_7">
      <!-- 65 -->
      <g transform="translate(393.00808 245.052367)scale(0.144 -0.144)">
       <use xlink:href="#DejaVuSans-36"/>
       <use xlink:href="#DejaVuSans-35" x="63.623047"/>
      </g>
     </g>
    </g>
    <g id="text_8">
     <!-- $\tau$ -->
     <g transform="translate(254.414378 265.177217)scale(0.1728 -0.1728)">
      <defs>
       <path id="DejaVuSans-Oblique-3c4" d="M 2103 638 
Q 2188 488 2525 488 
L 2800 488 
L 2706 0 
L 2363 0 
Q 1800 0 1600 300 
Q 1403 606 1534 1269 
L 1856 2925 
L 541 2925 
L 653 3500 
L 3881 3500 
L 3769 2925 
L 2444 2925 
L 2113 1234 
Q 2025 781 2103 638 
z
" transform="scale(0.015625)"/>
      </defs>
      <use xlink:href="#DejaVuSans-Oblique-3c4" transform="translate(0 0.3125)"/>
     </g>
    </g>
   </g>
   <g id="matplotlib.axis_2">
    <g id="ytick_1">
     <g id="line2d_15">
      <path d="M 70.7874 217.41855 
L 448.582156 217.41855 
" clip-path="url(#pd51dcb5e76)" style="fill: none; stroke: #ffffff; stroke-width: 0.8; stroke-linecap: square"/>
     </g>
     <g id="line2d_16">
      <defs>
       <path id="m0e79af3a85" d="M 0 0 
L -3.5 0 
" style="stroke: #000000; stroke-width: 0.8"/>
      </defs>
      <g>
       <use xlink:href="#m0e79af3a85" x="70.7874" y="217.41855" style="stroke: #000000; stroke-width: 0.8"/>
      </g>
     </g>
     <g id="text_9">
      <!-- −5 -->
      <g transform="translate(42.55865 222.889425)scale(0.144 -0.144)">
       <defs>
        <path id="DejaVuSans-2212" d="M 678 2272 
L 4684 2272 
L 4684 1741 
L 678 1741 
L 678 2272 
z
" transform="scale(0.015625)"/>
       </defs>
       <use xlink:href="#DejaVuSans-2212"/>
       <use xlink:href="#DejaVuSans-35" x="83.789062"/>
      </g>
     </g>
    </g>
    <g id="ytick_2">
     <g id="line2d_17">
      <path d="M 70.7874 179.270616 
L 448.582156 179.270616 
" clip-path="url(#pd51dcb5e76)" style="fill: none; stroke: #ffffff; stroke-width: 0.8; stroke-linecap: square"/>
     </g>
     <g id="line2d_18">
      <g>
       <use xlink:href="#m0e79af3a85" x="70.7874" y="179.270616" style="stroke: #000000; stroke-width: 0.8"/>
      </g>
     </g>
     <g id="text_10">
      <!-- −4 -->
      <g transform="translate(42.55865 184.741491)scale(0.144 -0.144)">
       <use xlink:href="#DejaVuSans-2212"/>
       <use xlink:href="#DejaVuSans-34" x="83.789062"/>
      </g>
     </g>
    </g>
    <g id="ytick_3">
     <g id="line2d_19">
      <path d="M 70.7874 141.122683 
L 448.582156 141.122683 
" clip-path="url(#pd51dcb5e76)" style="fill: none; stroke: #ffffff; stroke-width: 0.8; stroke-linecap: square"/>
     </g>
     <g id="line2d_20">
      <g>
       <use xlink:href="#m0e79af3a85" x="70.7874" y="141.122683" style="stroke: #000000; stroke-width: 0.8"/>
      </g>
     </g>
     <g id="text_11">
      <!-- −3 -->
      <g transform="translate(42.55865 146.593558)scale(0.144 -0.144)">
       <use xlink:href="#DejaVuSans-2212"/>
       <use xlink:href="#DejaVuSans-33" x="83.789062"/>
      </g>
     </g>
    </g>
    <g id="ytick_4">
     <g id="line2d_21">
      <path d="M 70.7874 102.974749 
L 448.582156 102.974749 
" clip-path="url(#pd51dcb5e76)" style="fill: none; stroke: #ffffff; stroke-width: 0.8; stroke-linecap: square"/>
     </g>
     <g id="line2d_22">
      <g>
       <use xlink:href="#m0e79af3a85" x="70.7874" y="102.974749" style="stroke: #000000; stroke-width: 0.8"/>
      </g>
     </g>
     <g id="text_12">
      <!-- −2 -->
      <g transform="translate(42.55865 108.445624)scale(0.144 -0.144)">
       <defs>
        <path id="DejaVuSans-32" d="M 1228 531 
L 3431 531 
L 3431 0 
L 469 0 
L 469 531 
Q 828 903 1448 1529 
Q 2069 2156 2228 2338 
Q 2531 2678 2651 2914 
Q 2772 3150 2772 3378 
Q 2772 3750 2511 3984 
Q 2250 4219 1831 4219 
Q 1534 4219 1204 4116 
Q 875 4013 500 3803 
L 500 4441 
Q 881 4594 1212 4672 
Q 1544 4750 1819 4750 
Q 2544 4750 2975 4387 
Q 3406 4025 3406 3419 
Q 3406 3131 3298 2873 
Q 3191 2616 2906 2266 
Q 2828 2175 2409 1742 
Q 1991 1309 1228 531 
z
" transform="scale(0.015625)"/>
       </defs>
       <use xlink:href="#DejaVuSans-2212"/>
       <use xlink:href="#DejaVuSans-32" x="83.789062"/>
      </g>
     </g>
    </g>
    <g id="ytick_5">
     <g id="line2d_23">
      <path d="M 70.7874 64.826815 
L 448.582156 64.826815 
" clip-path="url(#pd51dcb5e76)" style="fill: none; stroke: #ffffff; stroke-width: 0.8; stroke-linecap: square"/>
     </g>
     <g id="line2d_24">
      <g>
       <use xlink:href="#m0e79af3a85" x="70.7874" y="64.826815" style="stroke: #000000; stroke-width: 0.8"/>
      </g>
     </g>
     <g id="text_13">
      <!-- −1 -->
      <g transform="translate(42.55865 70.29769)scale(0.144 -0.144)">
       <defs>
        <path id="DejaVuSans-31" d="M 794 531 
L 1825 531 
L 1825 4091 
L 703 3866 
L 703 4441 
L 1819 4666 
L 2450 4666 
L 2450 531 
L 3481 531 
L 3481 0 
L 794 0 
L 794 531 
z
" transform="scale(0.015625)"/>
       </defs>
       <use xlink:href="#DejaVuSans-2212"/>
       <use xlink:href="#DejaVuSans-31" x="83.789062"/>
      </g>
     </g>
    </g>
    <g id="ytick_6">
     <g id="line2d_25">
      <path d="M 70.7874 26.678882 
L 448.582156 26.678882 
" clip-path="url(#pd51dcb5e76)" style="fill: none; stroke: #ffffff; stroke-width: 0.8; stroke-linecap: square"/>
     </g>
     <g id="line2d_26">
      <g>
       <use xlink:href="#m0e79af3a85" x="70.7874" y="26.678882" style="stroke: #000000; stroke-width: 0.8"/>
      </g>
     </g>
     <g id="text_14">
      <!-- 0 -->
      <g transform="translate(54.6254 32.149757)scale(0.144 -0.144)">
       <use xlink:href="#DejaVuSans-30"/>
      </g>
     </g>
    </g>
    <g id="text_15">
     <!-- $\langle{H}\rangle_\tau-\langle{H}\rangle_0$ -->
     <g transform="translate(34.96495 168.160108)rotate(-90)scale(0.1728 -0.1728)">
      <defs>
       <path id="DejaVuSans-27e8" d="M 572 2006 
L 1453 4856 
L 1984 4856 
L 1103 2006 
L 1984 -844 
L 1453 -844 
L 572 2006 
z
" transform="scale(0.015625)"/>
       <path id="DejaVuSans-Oblique-48" d="M 1081 4666 
L 1716 4666 
L 1344 2753 
L 3634 2753 
L 4006 4666 
L 4641 4666 
L 3731 0 
L 3097 0 
L 3531 2222 
L 1241 2222 
L 806 0 
L 172 0 
L 1081 4666 
z
" transform="scale(0.015625)"/>
       <path id="DejaVuSans-27e9" d="M 1925 2006 
L 1044 -844 
L 513 -844 
L 1394 2006 
L 513 4856 
L 1044 4856 
L 1925 2006 
z
" transform="scale(0.015625)"/>
      </defs>
      <use xlink:href="#DejaVuSans-27e8" transform="translate(0 0.125)"/>
      <use xlink:href="#DejaVuSans-Oblique-48" transform="translate(39.013672 0.125)"/>
      <use xlink:href="#DejaVuSans-27e9" transform="translate(114.208984 0.125)"/>
      <use xlink:href="#DejaVuSans-Oblique-3c4" transform="translate(154.179688 -16.28125)scale(0.7)"/>
      <use xlink:href="#DejaVuSans-2212" transform="translate(218.540039 0.125)"/>
      <use xlink:href="#DejaVuSans-27e8" transform="translate(321.811523 0.125)"/>
      <use xlink:href="#DejaVuSans-Oblique-48" transform="translate(360.825195 0.125)"/>
      <use xlink:href="#DejaVuSans-27e9" transform="translate(436.020508 0.125)"/>
      <use xlink:href="#DejaVuSans-30" transform="translate(475.991211 -16.28125)scale(0.7)"/>
     </g>
    </g>
   </g>
   <g id="PolyCollection_1">
    <defs>
     <path id="me047f07972" d="M 87.959889 -198.205387 
L 87.959889 -205.622308 
L 88.919246 -203.795898 
L 89.923322 -194.859792 
L 90.927398 -208.93455 
L 91.931475 -249.699591 
L 92.935551 -246.296705 
L 93.83922 -194.709612 
L 94.843296 -148.308156 
L 95.847372 -162.785787 
L 96.851449 -221.804962 
L 97.855525 -260.635698 
L 98.859601 -237.283692 
L 99.76327 -182.624437 
L 100.767346 -145.642827 
L 101.771422 -171.650113 
L 102.775499 -230.945705 
L 103.779575 -259.076437 
L 104.783651 -224.416891 
L 105.68732 -169.195672 
L 106.691396 -143.151657 
L 107.695472 -179.086589 
L 108.699549 -236.426526 
L 109.703625 -252.97871 
L 110.707701 -209.433774 
L 111.61137 -157.866208 
L 112.615446 -144.057223 
L 113.619522 -187.651729 
L 114.623599 -240.934371 
L 115.627675 -245.41698 
L 116.630908 -195.456784 
L 117.53542 -149.00279 
L 118.539496 -147.229748 
L 119.543573 -197.213272 
L 120.547649 -244.514114 
L 121.551725 -236.925191 
L 122.455394 -187.730095 
L 123.45947 -141.063519 
L 124.463546 -151.278699 
L 125.467623 -205.91959 
L 126.471699 -245.375645 
L 127.475775 -226.171276 
L 128.379444 -175.000753 
L 129.38352 -137.960471 
L 130.387596 -159.116271 
L 131.391673 -215.434365 
L 132.395749 -245.450596 
L 133.399825 -215.414496 
L 134.303494 -163.271398 
L 135.30757 -141.439488 
L 136.311647 -174.933799 
L 137.315723 -199.226047 
L 138.319799 -192.997159 
L 139.323875 -189.289989 
L 140.227544 -189.280794 
L 141.23162 -189.280794 
L 142.235697 -189.280794 
L 143.239773 -189.280794 
L 144.243849 -189.280794 
L 145.247926 -189.280796 
L 146.151594 -188.17204 
L 147.15567 -179.892952 
L 148.159747 -188.929551 
L 149.163823 -227.530239 
L 150.167899 -231.639385 
L 151.071568 -186.023265 
L 152.075644 -137.952972 
L 153.079721 -144.850638 
L 154.083797 -199.241063 
L 155.087873 -241.571519 
L 156.091949 -225.561246 
L 156.995618 -173.953544 
L 157.999694 -132.786163 
L 159.003771 -151.772712 
L 160.007847 -210.072313 
L 161.011923 -244.19854 
L 162.016 -216.427929 
L 162.919668 -161.76703 
L 163.923744 -129.649986 
L 164.927821 -159.956424 
L 165.931897 -218.699782 
L 166.935973 -242.111394 
L 167.94005 -204.371048 
L 168.843718 -151.497228 
L 169.847795 -130.926914 
L 170.851871 -171.12919 
L 171.855947 -228.580789 
L 172.860023 -240.394713 
L 173.8641 -193.207463 
L 174.767768 -143.202914 
L 175.771845 -134.472461 
L 176.775921 -181.337786 
L 177.779997 -233.23587 
L 178.784074 -232.647427 
L 179.707149 -183.45539 
L 180.691818 -132.617624 
L 181.695895 -136.040634 
L 182.699971 -189.572574 
L 183.704047 -235.164805 
L 184.708124 -222.270081 
L 185.611792 -170.082147 
L 186.615869 -125.602112 
L 187.619945 -141.261418 
L 188.624021 -199.103186 
L 189.628097 -236.250347 
L 190.632174 -211.612726 
L 191.535842 -157.885081 
L 192.539919 -128.306807 
L 193.543995 -160.251362 
L 194.548071 -189.212665 
L 195.552148 -184.097585 
L 196.556224 -179.165522 
L 197.459892 -179.123354 
L 198.463969 -179.123354 
L 199.468045 -179.123354 
L 200.472121 -179.123354 
L 201.476198 -179.123354 
L 202.480274 -179.123352 
L 203.383943 -178.380002 
L 204.388019 -169.996325 
L 205.392095 -175.55928 
L 206.396171 -214.854258 
L 207.400248 -226.247377 
L 208.378167 -177.444543 
L 209.307993 -128.476204 
L 210.312069 -128.307516 
L 211.316145 -180.778062 
L 212.320221 -228.845285 
L 213.324298 -219.354072 
L 214.227966 -168.070297 
L 215.232043 -121.147636 
L 216.236119 -133.187665 
L 217.240195 -189.890694 
L 218.244272 -229.805979 
L 219.248348 -208.008543 
L 220.152017 -153.806997 
L 221.156093 -115.89744 
L 222.160169 -139.745479 
L 223.164245 -199.015288 
L 224.168322 -229.17552 
L 225.172398 -196.132526 
L 226.076067 -141.303231 
L 227.080143 -113.6548 
L 228.084219 -148.202952 
L 229.088295 -206.741286 
L 230.092372 -225.527409 
L 231.096448 -182.375224 
L 232.000117 -128.430015 
L 233.004193 -112.099169 
L 234.008269 -156.571695 
L 235.012346 -212.780095 
L 236.016422 -219.485407 
L 237.020498 -168.444013 
L 237.924167 -119.180774 
L 238.928243 -115.438776 
L 239.932319 -167.128445 
L 240.936396 -217.912811 
L 241.940472 -211.943572 
L 242.844141 -161.747155 
L 243.848217 -112.525436 
L 244.852293 -121.302761 
L 245.856369 -178.37824 
L 246.860446 -221.732226 
L 247.864522 -203.20531 
L 248.768191 -148.68483 
L 249.772267 -111.399829 
L 250.776343 -139.162763 
L 251.78042 -173.125489 
L 252.784496 -170.489727 
L 253.788572 -164.35089 
L 254.692241 -164.229202 
L 255.696317 -164.229203 
L 256.700393 -164.229203 
L 257.70447 -164.229203 
L 258.708546 -164.229203 
L 259.712622 -164.229204 
L 260.616291 -163.798878 
L 261.620367 -156.014776 
L 262.624443 -157.796591 
L 263.62852 -196.495926 
L 264.632596 -214.899118 
L 265.636672 -168.005552 
L 266.540341 -116.262722 
L 267.544417 -108.748294 
L 268.548494 -160.680992 
L 269.55257 -215.540271 
L 270.556646 -213.178096 
L 271.460315 -162.249632 
L 272.464391 -108.07275 
L 273.468467 -113.481726 
L 274.472544 -171.831515 
L 275.47662 -219.293594 
L 276.480696 -203.692097 
L 277.384365 -147.903513 
L 278.388441 -102.337453 
L 279.392517 -120.276182 
L 280.396594 -181.325889 
L 281.40067 -219.262207 
L 282.404746 -191.114743 
L 283.308415 -133.109789 
L 284.312491 -97.644025 
L 285.316568 -127.378595 
L 286.320644 -189.531994 
L 287.32472 -216.479337 
L 288.328796 -177.153446 
L 289.232465 -119.688184 
L 290.236541 -95.589913 
L 291.240618 -136.627527 
L 292.244694 -198.041202 
L 293.24877 -212.719112 
L 294.252847 -163.993475 
L 295.156515 -109.756979 
L 296.160591 -98.357958 
L 297.164668 -148.187988 
L 298.168744 -205.258442 
L 299.17282 -206.689821 
L 300.125427 -153.191358 
L 301.080565 -99.819171 
L 302.084642 -101.413657 
L 303.088718 -158.834784 
L 304.092794 -209.322185 
L 305.09687 -197.311204 
L 306.000539 -142.033086 
L 307.004615 -96.715225 
L 308.008692 -119.817642 
L 309.012768 -158.608826 
L 310.016844 -158.764719 
L 311.02092 -151.257892 
L 311.924589 -150.972144 
L 312.928665 -150.972144 
L 313.932742 -150.972144 
L 314.936818 -150.972144 
L 315.940894 -150.972144 
L 316.944971 -150.972144 
L 317.848639 -150.766606 
L 318.852716 -143.750304 
L 319.856792 -142.475423 
L 320.860868 -179.786152 
L 321.864944 -205.737444 
L 322.869021 -162.538188 
L 323.772689 -105.631787 
L 324.776766 -89.856636 
L 325.780842 -138.988864 
L 326.784918 -198.590333 
L 327.788994 -203.839638 
L 328.793071 -148.679012 
L 329.696739 -97.137089 
L 330.700816 -94.851337 
L 331.704892 -150.479427 
L 332.708968 -203.194461 
L 333.713045 -195.151898 
L 334.616713 -141.710618 
L 335.62079 -91.256018 
L 336.624866 -102.120242 
L 337.628942 -162.025719 
L 338.633018 -205.788314 
L 339.637095 -185.127059 
L 340.540763 -129.49689 
L 341.54484 -88.87991 
L 342.548916 -111.963427 
L 343.552992 -173.803212 
L 344.557068 -206.999158 
L 345.561145 -174.532731 
L 346.464813 -117.71607 
L 347.46889 -87.302505 
L 348.472966 -121.786297 
L 349.477042 -183.361976 
L 350.481119 -204.877777 
L 351.485195 -162.428394 
L 352.388864 -107.873664 
L 353.39294 -89.595315 
L 354.397016 -133.786209 
L 355.401092 -192.447151 
L 356.405169 -201.295226 
L 357.409245 -150.79378 
L 358.312914 -100.654244 
L 359.31699 -94.935443 
L 360.321066 -146.791996 
L 361.325142 -200.144969 
L 362.329219 -196.130241 
L 363.232887 -146.04824 
L 364.236964 -97.591698 
L 365.24104 -113.442465 
L 366.245116 -153.276207 
L 367.249193 -156.946653 
L 368.253269 -148.768393 
L 369.156938 -148.222799 
L 370.161014 -148.222798 
L 371.16509 -148.222798 
L 372.169166 -148.222798 
L 373.173243 -148.222798 
L 374.177319 -148.222799 
L 375.080988 -148.133463 
L 376.085064 -142.230404 
L 377.08914 -138.200958 
L 378.093216 -170.928498 
L 379.097293 -200.934656 
L 380.101369 -166.051464 
L 381.005038 -110.562243 
L 382.009114 -88.742256 
L 383.01319 -130.173009 
L 384.017267 -189.565258 
L 385.021343 -202.118475 
L 386.025419 -153.540915 
L 386.929088 -101.212454 
L 387.933164 -91.789583 
L 388.93724 -140.966014 
L 389.941317 -195.162647 
L 390.945393 -194.812835 
L 391.872687 -143.884283 
L 392.853138 -91.572694 
L 393.857214 -94.870326 
L 394.86129 -150.861547 
L 395.865367 -198.781529 
L 396.869443 -185.723426 
L 397.773112 -132.002767 
L 398.777188 -86.317693 
L 399.781264 -102.26575 
L 400.785341 -162.266213 
L 401.789417 -201.376045 
L 402.793493 -175.664018 
L 403.697162 -118.785556 
L 404.701238 -81.614035 
L 405.705314 -110.176076 
L 406.709391 -173.131626 
L 407.713467 -201.741023 
L 408.717543 -164.395493 
L 409.621212 -107.592516 
L 410.625288 -81.964417 
L 411.629364 -121.103677 
L 412.633441 -182.449693 
L 413.637517 -198.813319 
L 414.641593 -152.02496 
L 415.545262 -97.687096 
L 416.549338 -84.373825 
L 417.553415 -132.535281 
L 418.557491 -189.107595 
L 419.561567 -192.549136 
L 420.543706 -140.209509 
L 421.469312 -91.977418 
L 422.473388 -100.453614 
L 423.477465 -140.852145 
L 424.481541 -148.346347 
L 425.485617 -139.769575 
L 426.389286 -138.872564 
L 427.393362 -138.872564 
L 428.397438 -138.872564 
L 429.401515 -138.872564 
L 430.405591 -138.872564 
L 431.409667 -138.872564 
L 431.409667 -128.201073 
L 431.409667 -128.201073 
L 430.405591 -128.201073 
L 429.401515 -128.201073 
L 428.397438 -128.201073 
L 427.393362 -128.201073 
L 426.389286 -128.201073 
L 425.485617 -129.098104 
L 424.481541 -137.6755 
L 423.477465 -130.182989 
L 422.473388 -89.794568 
L 421.469312 -81.321273 
L 420.543706 -129.566748 
L 419.561567 -181.920537 
L 418.557491 -178.481181 
L 417.553415 -121.926339 
L 416.549338 -73.777773 
L 415.545262 -87.093802 
L 414.641593 -141.446594 
L 413.637517 -188.246634 
L 412.633441 -171.886325 
L 411.629364 -110.559373 
L 410.625288 -71.429059 
L 409.621212 -97.061979 
L 408.717543 -153.881009 
L 407.713467 -191.234359 
L 406.709391 -162.630513 
L 405.705314 -99.693893 
L 404.701238 -71.137319 
L 403.697162 -108.316774 
L 402.793493 -165.211473 
L 401.789417 -190.928377 
L 400.785341 -151.827407 
L 399.781264 -91.845446 
L 398.777188 -75.900529 
L 397.773112 -121.597107 
L 396.869443 -175.332968 
L 395.865367 -188.393895 
L 394.86129 -140.486183 
L 393.857214 -84.511028 
L 392.853138 -81.215427 
L 391.872687 -133.540074 
L 390.945393 -184.481263 
L 389.941317 -184.833025 
L 388.93724 -130.651984 
L 387.933164 -81.489069 
L 386.929088 -90.914366 
L 386.025419 -143.257466 
L 385.021343 -191.847165 
L 384.017267 -179.296613 
L 383.01319 -119.92223 
L 382.009114 -78.501363 
L 381.005038 -100.325392 
L 380.101369 -155.83059 
L 379.097293 -190.721 
L 378.093216 -160.720885 
L 377.08914 -127.999935 
L 376.085064 -132.030202 
L 375.080988 -137.933564 
L 374.177319 -138.022901 
L 373.173243 -138.0229 
L 372.169166 -138.0229 
L 371.16509 -138.0229 
L 370.161014 -138.0229 
L 369.156938 -138.022901 
L 368.253269 -138.568503 
L 367.249193 -146.747294 
L 366.245116 -143.078074 
L 365.24104 -103.253179 
L 364.236964 -87.405812 
L 363.232887 -135.875095 
L 362.329219 -185.969982 
L 361.325142 -189.98669 
L 360.321066 -136.647556 
L 359.31699 -84.804399 
L 358.312914 -90.525321 
L 357.409245 -140.678003 
L 356.405169 -191.192129 
L 355.401092 -182.346211 
L 354.397016 -123.701016 
L 353.39294 -79.519867 
L 352.388864 -97.80154 
L 351.485195 -152.370841 
L 350.481119 -194.829419 
L 349.477042 -173.317298 
L 348.472966 -111.758809 
L 347.46889 -77.281595 
L 346.464813 -107.700596 
L 345.561145 -164.531973 
L 344.557068 -197.00432 
L 343.552992 -163.814539 
L 342.548916 -101.991819 
L 341.54484 -78.912251 
L 340.540763 -119.537746 
L 339.637095 -175.182464 
L 338.633018 -195.847171 
L 337.628942 -152.093817 
L 336.624866 -92.204621 
L 335.62079 -81.342779 
L 334.616713 -131.8093 
L 333.713045 -185.263531 
L 332.708968 -193.308117 
L 331.704892 -140.605248 
L 330.700816 -84.990696 
L 329.696739 -87.278253 
L 328.793071 -138.83227 
L 327.788994 -194.005502 
L 326.784918 -188.758094 
L 325.780842 -129.171177 
L 324.776766 -80.049405 
L 323.772689 -95.82725 
L 322.869021 -152.74802 
L 321.864944 -195.956182 
L 320.860868 -170.009457 
L 319.856792 -132.706001 
L 318.852716 -133.981805 
L 317.848639 -140.998503 
L 316.944971 -141.204042 
L 315.940894 -141.204043 
L 314.936818 -141.204043 
L 313.932742 -141.204043 
L 312.928665 -141.204043 
L 311.924589 -141.204043 
L 311.02092 -141.489795 
L 310.016844 -148.997059 
L 309.012768 -148.842192 
L 308.008692 -110.058874 
L 307.004615 -86.960674 
L 306.000539 -132.288731 
L 305.09687 -187.580507 
L 304.092794 -199.593907 
L 303.088718 -149.118611 
L 302.084642 -91.712792 
L 301.080565 -90.120244 
L 300.125427 -143.504716 
L 299.17282 -197.015458 
L 298.168744 -195.586004 
L 297.164668 -138.530811 
L 296.160591 -88.713085 
L 295.156515 -100.1147 
L 294.252847 -154.36608 
L 293.24877 -203.10374 
L 292.244694 -188.428694 
L 291.240618 -127.032628 
L 290.236541 -86.003961 
L 289.232465 -110.106608 
L 288.328796 -167.587898 
L 287.32472 -206.922031 
L 286.320644 -179.979836 
L 285.316568 -117.845932 
L 284.312491 -88.117507 
L 283.308415 -123.590688 
L 282.404746 -181.612541 
L 281.40067 -209.765287 
L 280.396594 -171.837664 
L 279.392517 -110.807684 
L 278.388441 -92.872687 
L 277.384365 -138.450102 
L 276.480696 -194.255365 
L 275.47662 -209.860003 
L 274.472544 -162.410786 
L 273.468467 -104.079178 
L 272.464391 -98.672519 
L 271.460315 -152.864499 
L 270.556646 -203.807777 
L 269.55257 -206.1722 
L 268.548494 -151.329239 
L 267.544417 -99.411477 
L 266.540341 -106.928383 
L 265.636672 -158.687041 
L 264.632596 -205.594058 
L 263.62852 -187.195323 
L 262.624443 -148.506028 
L 261.620367 -146.725488 
L 260.616291 -154.510173 
L 259.712622 -154.940505 
L 258.708546 -154.940504 
L 257.70447 -154.940504 
L 256.700393 -154.940504 
L 255.696317 -154.940504 
L 254.692241 -154.940504 
L 253.788572 -155.062192 
L 252.784496 -161.201439 
L 251.78042 -163.838164 
L 250.776343 -129.883865 
L 249.772267 -102.127369 
L 248.768191 -139.422299 
L 247.864522 -193.96064 
L 246.860446 -212.491698 
L 245.856369 -169.150379 
L 244.852293 -112.09523 
L 243.848217 -103.320675 
L 242.844141 -152.557946 
L 241.940472 -202.770777 
L 240.936396 -208.742681 
L 239.932319 -157.976122 
L 238.928243 -106.304567 
L 237.924167 -110.049076 
L 237.020498 -159.328464 
L 236.016422 -210.386912 
L 235.012346 -203.68442 
L 234.008269 -147.497418 
L 233.004193 -103.038687 
L 232.000117 -119.373315 
L 231.096448 -173.337588 
L 230.092372 -216.502912 
L 229.088295 -197.721644 
L 228.084219 -139.207905 
L 227.080143 -104.669964 
L 226.076067 -132.325509 
L 225.172398 -187.176255 
L 224.168322 -220.228101 
L 223.164245 -190.076021 
L 222.160169 -130.830352 
L 221.156093 -106.988247 
L 220.152017 -144.908342 
L 219.248348 -199.130448 
L 218.244272 -220.933047 
L 217.240195 -181.03002 
L 216.236119 -124.350053 
L 215.232043 -112.313555 
L 214.227966 -159.251523 
L 213.324298 -210.553773 
L 212.320221 -220.048067 
L 211.316145 -171.997922 
L 210.312069 -119.547865 
L 209.307993 -119.719183 
L 208.378167 -168.704655 
L 207.400248 -217.524196 
L 206.396171 -206.135023 
L 205.392095 -166.852034 
L 204.388019 -161.290894 
L 203.383943 -169.67533 
L 202.480274 -170.418697 
L 201.476198 -170.418699 
L 200.472121 -170.418699 
L 199.468045 -170.418699 
L 198.463969 -170.418699 
L 197.459892 -170.418699 
L 196.556224 -170.460867 
L 195.552148 -175.393268 
L 194.548071 -180.50936 
L 193.543995 -151.555929 
L 192.539919 -119.619874 
L 191.535842 -149.206106 
L 190.632174 -202.953033 
L 189.628097 -227.596668 
L 188.624021 -190.460771 
L 187.619945 -132.64275 
L 186.615869 -116.987531 
L 185.611792 -161.481312 
L 184.708124 -213.687492 
L 183.704047 -226.585713 
L 182.699971 -181.009123 
L 181.695895 -127.497927 
L 180.691818 -124.077464 
L 179.707149 -174.931818 
L 178.784074 -224.140341 
L 177.779997 -224.731321 
L 176.775921 -172.853372 
L 175.771845 -126.005587 
L 174.767768 -134.73913 
L 173.8641 -184.7622 
L 172.860023 -231.964589 
L 171.855947 -220.154095 
L 170.851871 -162.724917 
L 169.847795 -122.53473 
L 168.843718 -143.110187 
L 167.94005 -196.005475 
L 166.935973 -233.757574 
L 165.931897 -210.351998 
L 164.927821 -151.632939 
L 163.923744 -121.334592 
L 162.919668 -153.460356 
L 162.016 -208.142866 
L 161.011923 -235.921064 
L 160.007847 -201.805137 
L 159.003771 -143.530659 
L 157.999694 -124.549178 
L 156.995618 -165.730552 
L 156.091949 -217.359977 
L 155.087873 -233.374937 
L 154.083797 -191.060794 
L 153.079721 -136.694774 
L 152.075644 -129.80034 
L 151.071568 -177.890477 
L 150.167899 -223.525448 
L 149.163823 -219.420109 
L 148.159747 -180.833401 
L 147.15567 -171.799548 
L 146.151594 -180.079557 
L 145.247926 -181.188354 
L 144.243849 -181.188352 
L 143.239773 -181.188352 
L 142.235697 -181.188352 
L 141.23162 -181.188352 
L 140.227544 -181.188352 
L 139.323875 -181.197547 
L 138.319799 -184.904978 
L 137.315723 -191.134909 
L 136.311647 -166.84987 
L 135.30757 -133.367111 
L 134.303494 -155.206522 
L 133.399825 -207.374501 
L 132.395749 -237.420677 
L 131.391673 -207.414624 
L 130.387596 -151.125153 
L 129.38352 -129.976057 
L 128.379444 -167.030181 
L 127.475775 -218.224855 
L 126.471699 -237.435032 
L 125.467623 -197.994165 
L 124.463546 -143.37946 
L 123.45947 -133.167991 
L 122.455394 -179.852733 
L 121.551725 -229.068756 
L 120.547649 -236.661053 
L 119.543573 -189.380385 
L 118.539496 -139.419304 
L 117.53542 -141.195304 
L 116.630908 -187.669639 
L 115.627675 -237.651305 
L 114.623599 -233.171814 
L 113.619522 -179.912945 
L 112.615446 -136.33534 
L 111.61137 -150.148627 
L 110.707701 -201.738954 
L 109.703625 -245.299627 
L 108.699549 -228.752402 
L 107.695472 -171.43957 
L 106.691396 -135.516551 
L 105.68732 -161.567653 
L 104.783651 -216.811193 
L 103.779575 -251.480912 
L 102.775499 -223.358337 
L 101.771422 -164.08852 
L 100.767346 -138.087993 
L 99.76327 -175.080435 
L 98.859601 -229.761727 
L 97.855525 -253.120186 
L 96.851449 -214.302093 
L 95.847372 -155.307622 
L 94.843296 -140.83403 
L 93.83922 -187.251238 
L 92.935551 -238.857517 
L 91.931475 -242.264069 
L 90.927398 -201.51287 
L 89.923322 -187.44177 
L 88.919246 -196.3789 
L 87.959889 -198.205387 
z
" style="stroke: #f0a499; stroke-opacity: 0.5; stroke-width: 0.5"/>
    </defs>
    <g clip-path="url(#pd51dcb5e76)">
     <use xlink:href="#me047f07972" x="0" y="288.773017" style="fill: #f0a499; fill-opacity: 0.5; stroke: #f0a499; stroke-opacity: 0.5; stroke-width: 0.5"/>
    </g>
   </g>
   <g id="line2d_27">
    <path d="M 87.959889 227.110617 
L 87.959889 18.6624 
" clip-path="url(#pd51dcb5e76)" style="fill: none; stroke-dasharray: 3.7,1.6; stroke-dashoffset: 0; stroke: #ff4500"/>
   </g>
   <g id="line2d_28">
    <path d="M 145.301926 227.110617 
L 145.301926 18.6624 
" clip-path="url(#pd51dcb5e76)" style="fill: none; stroke-dasharray: 3.7,1.6; stroke-dashoffset: 0; stroke: #ff4500"/>
   </g>
   <g id="line2d_29">
    <path d="M 202.643964 227.110617 
L 202.643964 18.6624 
" clip-path="url(#pd51dcb5e76)" style="fill: none; stroke-dasharray: 3.7,1.6; stroke-dashoffset: 0; stroke: #ff4500"/>
   </g>
   <g id="line2d_30">
    <path d="M 259.986001 227.110617 
L 259.986001 18.6624 
" clip-path="url(#pd51dcb5e76)" style="fill: none; stroke-dasharray: 3.7,1.6; stroke-dashoffset: 0; stroke: #ff4500"/>
   </g>
   <g id="line2d_31">
    <path d="M 317.328038 227.110617 
L 317.328038 18.6624 
" clip-path="url(#pd51dcb5e76)" style="fill: none; stroke-dasharray: 3.7,1.6; stroke-dashoffset: 0; stroke: #ff4500"/>
   </g>
   <g id="line2d_32">
    <path d="M 374.670076 227.110617 
L 374.670076 18.6624 
" clip-path="url(#pd51dcb5e76)" style="fill: none; stroke-dasharray: 3.7,1.6; stroke-dashoffset: 0; stroke: #ff4500"/>
   </g>
   <g id="line2d_33">
    <path d="M 139.567723 227.110617 
L 139.567723 18.6624 
" clip-path="url(#pd51dcb5e76)" style="fill: none; stroke-dasharray: 1,1.65; stroke-dashoffset: 0; stroke: #add8e6"/>
   </g>
   <g id="line2d_34">
    <path d="M 196.90976 227.110617 
L 196.90976 18.6624 
" clip-path="url(#pd51dcb5e76)" style="fill: none; stroke-dasharray: 1,1.65; stroke-dashoffset: 0; stroke: #add8e6"/>
   </g>
   <g id="line2d_35">
    <path d="M 254.251797 227.110617 
L 254.251797 18.6624 
" clip-path="url(#pd51dcb5e76)" style="fill: none; stroke-dasharray: 1,1.65; stroke-dashoffset: 0; stroke: #add8e6"/>
   </g>
   <g id="line2d_36">
    <path d="M 311.593835 227.110617 
L 311.593835 18.6624 
" clip-path="url(#pd51dcb5e76)" style="fill: none; stroke-dasharray: 1,1.65; stroke-dashoffset: 0; stroke: #add8e6"/>
   </g>
   <g id="line2d_37">
    <path d="M 368.935872 227.110617 
L 368.935872 18.6624 
" clip-path="url(#pd51dcb5e76)" style="fill: none; stroke-dasharray: 1,1.65; stroke-dashoffset: 0; stroke: #add8e6"/>
   </g>
   <g id="line2d_38">
    <path d="M 426.277909 227.110617 
L 426.277909 18.6624 
" clip-path="url(#pd51dcb5e76)" style="fill: none; stroke-dasharray: 1,1.65; stroke-dashoffset: 0; stroke: #add8e6"/>
   </g>
   <g id="line2d_39">
    <path d="M 87.959889 86.859169 
L 88.919246 88.685618 
L 89.923322 97.622236 
L 90.927398 83.549307 
L 91.931475 42.791187 
L 92.935551 46.195906 
L 93.83922 97.792592 
L 94.843296 144.201924 
L 95.847372 129.726313 
L 96.851449 70.719489 
L 97.855525 31.895075 
L 98.859601 55.250307 
L 99.76327 109.920581 
L 100.767346 146.907607 
L 101.771422 120.9037 
L 102.775499 61.620996 
L 103.779575 33.494342 
L 104.783651 68.158975 
L 105.68732 123.391354 
L 106.691396 149.438913 
L 107.695472 113.509937 
L 108.699549 56.183553 
L 109.703625 39.633849 
L 110.707701 83.186653 
L 111.61137 134.765599 
L 112.615446 148.576735 
L 113.619522 104.99068 
L 114.623599 51.719924 
L 115.627675 47.238874 
L 117.53542 143.67397 
L 118.539496 145.448491 
L 120.547649 48.185433 
L 121.551725 55.776043 
L 122.455394 104.981603 
L 123.45947 151.657262 
L 124.463546 141.443937 
L 125.467623 86.816139 
L 126.471699 47.367678 
L 127.475775 66.574951 
L 128.379444 117.75755 
L 129.38352 154.804753 
L 130.387596 133.652305 
L 131.391673 77.348522 
L 132.395749 47.337381 
L 133.399825 77.378519 
L 134.303494 129.534057 
L 135.30757 151.369717 
L 136.311647 117.881182 
L 137.315723 93.592539 
L 138.319799 99.821948 
L 139.323875 103.529249 
L 145.247926 103.538442 
L 146.151594 104.647218 
L 147.15567 112.926767 
L 148.159747 103.891541 
L 149.163823 65.297843 
L 150.167899 61.1906 
L 152.075644 154.896361 
L 153.079721 148.000311 
L 154.083797 93.622088 
L 155.087873 51.299788 
L 156.091949 67.312405 
L 156.995618 118.930969 
L 157.999694 160.105346 
L 159.003771 141.121331 
L 160.007847 82.834292 
L 161.011923 48.713215 
L 162.016 76.487619 
L 162.919668 131.159324 
L 163.923744 163.280728 
L 164.927821 132.978335 
L 165.931897 74.247127 
L 166.935973 50.838533 
L 167.94005 88.584755 
L 168.843718 141.469309 
L 169.847795 162.042195 
L 170.851871 121.845964 
L 171.855947 64.405575 
L 172.860023 52.593366 
L 173.8641 99.788186 
L 174.767768 149.801995 
L 175.771845 158.533993 
L 177.779997 59.789421 
L 178.784074 60.379133 
L 180.691818 160.425473 
L 181.695895 157.003736 
L 182.699971 103.482168 
L 183.704047 57.897758 
L 184.708124 70.79423 
L 185.611792 122.991287 
L 186.615869 167.478195 
L 187.619945 151.820932 
L 188.624021 93.991038 
L 189.628097 56.849509 
L 190.632174 81.490137 
L 191.535842 135.227423 
L 192.539919 164.809676 
L 194.548071 103.912004 
L 196.556224 113.959822 
L 199.468045 114.00199 
L 202.480274 114.001993 
L 203.383943 114.745351 
L 204.388019 123.129408 
L 205.392095 117.56736 
L 206.396171 78.278376 
L 207.400248 66.88723 
L 209.307993 164.675323 
L 210.312069 164.845327 
L 212.320221 64.326341 
L 213.324298 73.819094 
L 214.227966 125.112107 
L 215.232043 172.042421 
L 216.236119 160.004158 
L 217.240195 103.31266 
L 218.244272 63.403504 
L 219.248348 85.203521 
L 220.152017 139.415347 
L 221.156093 177.330173 
L 222.160169 153.485102 
L 223.164245 94.227362 
L 224.168322 64.071206 
L 225.172398 97.118626 
L 226.076067 151.958647 
L 227.080143 179.610635 
L 228.084219 145.067588 
L 229.088295 86.541552 
L 230.092372 67.757856 
L 231.096448 110.916611 
L 232.000117 164.871352 
L 233.004193 181.204089 
L 234.008269 136.73846 
L 235.012346 80.540759 
L 236.016422 73.836858 
L 237.924167 174.158092 
L 238.928243 177.901345 
L 240.936396 75.445271 
L 241.940472 81.415842 
L 242.844141 131.620467 
L 243.848217 180.849961 
L 244.852293 172.074021 
L 245.856369 115.008707 
L 246.860446 71.661055 
L 247.864522 90.190042 
L 248.768191 144.719452 
L 249.772267 182.009418 
L 250.776343 154.249703 
L 251.78042 120.29119 
L 252.784496 122.927434 
L 253.788572 129.066476 
L 254.692241 129.188163 
L 259.712622 129.188162 
L 260.616291 129.618491 
L 261.620367 137.402885 
L 262.624443 135.621708 
L 263.62852 96.927392 
L 264.632596 78.526428 
L 265.636672 125.42672 
L 266.540341 177.177464 
L 267.544417 184.693131 
L 269.55257 77.916781 
L 270.556646 80.28008 
L 272.464391 185.400382 
L 273.468467 179.992565 
L 274.472544 121.651866 
L 275.47662 74.196218 
L 276.480696 89.799286 
L 277.384365 145.596209 
L 278.388441 191.167947 
L 279.392517 173.231084 
L 280.396594 112.19124 
L 281.40067 74.259269 
L 282.404746 102.409375 
L 283.308415 160.422779 
L 284.312491 195.892251 
L 285.316568 166.160753 
L 286.320644 104.017102 
L 287.32472 77.072333 
L 288.328796 116.402345 
L 289.232465 173.875621 
L 290.236541 197.97608 
L 291.240618 156.942939 
L 292.244694 95.538069 
L 293.24877 80.861591 
L 294.252847 129.593239 
L 295.156515 183.837177 
L 296.160591 195.237495 
L 297.164668 145.413618 
L 298.168744 88.350794 
L 299.17282 86.920377 
L 301.080565 193.803309 
L 302.084642 192.209792 
L 303.088718 134.796319 
L 304.092794 84.314971 
L 305.09687 96.327161 
L 306.000539 151.612109 
L 307.004615 196.935068 
L 308.008692 173.834759 
L 309.012768 135.047507 
L 310.016844 134.892128 
L 311.02092 142.399173 
L 311.924589 142.684923 
L 316.944971 142.684924 
L 317.848639 142.890462 
L 318.852716 149.906962 
L 319.856792 151.182305 
L 320.860868 113.875212 
L 321.864944 87.926204 
L 322.869021 131.129913 
L 323.772689 188.043498 
L 324.776766 203.819997 
L 325.780842 154.692996 
L 326.784918 95.098803 
L 327.788994 89.850447 
L 329.696739 196.565346 
L 330.700816 198.852 
L 332.708968 90.521728 
L 333.713045 98.565303 
L 334.616713 152.013058 
L 335.62079 202.473618 
L 336.624866 191.610585 
L 337.628942 131.713249 
L 338.633018 87.955274 
L 339.637095 108.618255 
L 340.540763 164.255699 
L 341.54484 204.876936 
L 342.548916 181.795394 
L 343.552992 119.964141 
L 344.557068 86.771277 
L 345.561145 119.240665 
L 346.464813 176.064684 
L 347.46889 206.480967 
L 348.472966 172.000464 
L 349.477042 110.433379 
L 350.481119 88.919418 
L 351.485195 131.373399 
L 352.388864 185.935415 
L 353.39294 204.215426 
L 354.397016 160.029405 
L 355.401092 101.376336 
L 356.405169 92.529339 
L 358.312914 193.183234 
L 359.31699 198.903096 
L 361.325142 93.707187 
L 362.329219 97.722905 
L 363.232887 147.811349 
L 364.236964 196.274261 
L 365.24104 180.425195 
L 366.245116 140.595876 
L 367.249193 136.926044 
L 368.253269 145.104569 
L 369.156938 145.650167 
L 375.080988 145.739503 
L 376.085064 151.642714 
L 377.08914 155.672571 
L 379.097293 92.945189 
L 380.101369 127.83199 
L 381.005038 183.329199 
L 382.009114 205.151207 
L 383.01319 163.725397 
L 384.017267 104.342082 
L 385.021343 91.790196 
L 386.025419 140.373827 
L 386.929088 192.709607 
L 387.933164 202.133691 
L 389.941317 98.775181 
L 390.945393 99.125968 
L 392.853138 202.378956 
L 393.857214 199.08234 
L 394.86129 143.099152 
L 395.865367 95.185305 
L 396.869443 108.24482 
L 397.773112 161.97308 
L 398.777188 207.663906 
L 399.781264 191.717419 
L 400.785341 131.726207 
L 401.789417 92.620805 
L 402.793493 118.335271 
L 403.697162 175.221852 
L 404.701238 212.39734 
L 405.705314 183.838032 
L 406.709391 120.891947 
L 407.713467 92.285326 
L 408.717543 129.634766 
L 409.621212 186.445769 
L 410.625288 212.076279 
L 411.629364 172.941492 
L 412.633441 111.605008 
L 413.637517 95.24304 
L 414.641593 142.03724 
L 415.545262 196.382568 
L 416.549338 209.697218 
L 417.553415 161.542207 
L 418.557491 104.978629 
L 419.561567 101.538181 
L 421.469312 202.123672 
L 422.473388 193.648926 
L 423.477465 153.25545 
L 424.481541 145.762093 
L 425.485617 154.339178 
L 426.389286 155.236199 
L 431.409667 155.236198 
L 431.409667 155.236198 
" clip-path="url(#pd51dcb5e76)" style="fill: none; stroke: #e24a33; stroke-width: 0.5; stroke-linecap: square"/>
   </g>
   <g id="line2d_40">
    <path d="M 87.959889 82.720453 
L 95.847372 86.958591 
L 102.775499 90.731384 
L 105.68732 92.399475 
L 107.695472 93.172302 
L 109.703625 93.909369 
L 112.615446 95.371795 
L 115.627675 96.530349 
L 118.539496 97.849151 
L 121.551725 98.747582 
L 123.45947 99.640174 
L 125.467623 100.589597 
L 130.387596 102.623933 
L 133.399825 103.352362 
L 135.30757 103.607162 
L 139.323875 103.496128 
L 141.23162 103.629096 
L 144.243849 103.45299 
L 146.151594 103.56662 
L 148.159747 103.376897 
L 150.167899 103.187917 
L 152.075644 103.391569 
L 155.087873 103.874152 
L 162.016 105.69291 
L 163.923744 106.027167 
L 166.935973 106.186086 
L 173.8641 107.702818 
L 175.771845 108.32418 
L 178.784074 109.050738 
L 180.691818 109.923393 
L 183.704047 111.396393 
L 187.619945 113.213422 
L 189.628097 113.791538 
L 191.535842 114.227308 
L 192.539919 114.326861 
L 196.556224 114.145276 
L 198.463969 114.279613 
L 201.476198 114.162513 
L 204.388019 114.49432 
L 206.396171 114.466356 
L 207.400248 114.567004 
L 209.307993 115.090945 
L 212.320221 116.153326 
L 218.244272 119.164535 
L 220.152017 120.224869 
L 222.160169 121.004745 
L 224.168322 121.648726 
L 228.084219 123.258837 
L 230.092372 123.855224 
L 233.004193 124.988798 
L 237.020498 126.069864 
L 239.932319 127.324057 
L 244.852293 129.012258 
L 247.864522 129.530137 
L 249.772267 129.705423 
L 253.788572 129.37457 
L 255.696317 129.471439 
L 259.712622 129.227495 
L 261.620367 129.26427 
L 264.632596 128.926706 
L 266.540341 129.175999 
L 269.55257 129.827375 
L 272.464391 130.980346 
L 275.47662 132.240213 
L 277.384365 133.187032 
L 279.392517 133.88338 
L 281.40067 134.439136 
L 285.316568 135.969203 
L 287.32472 136.517689 
L 290.236541 137.65865 
L 294.252847 138.72709 
L 298.168744 140.401556 
L 303.088718 142.173546 
L 307.004615 142.914183 
L 309.012768 142.774109 
L 310.016844 142.691961 
L 313.932742 142.859825 
L 315.940894 142.707389 
L 318.852716 142.900041 
L 321.864944 142.640719 
L 323.772689 142.905954 
L 326.784918 143.530341 
L 334.616713 145.946739 
L 335.62079 146.133364 
L 337.628942 146.184701 
L 339.637095 146.316999 
L 341.54484 146.606164 
L 343.552992 146.586038 
L 345.561145 146.646922 
L 347.46889 146.806894 
L 351.485195 146.591752 
L 357.409245 147.205856 
L 359.31699 147.384263 
L 362.329219 147.276254 
L 364.236964 147.14285 
L 366.245116 146.623958 
L 367.249193 146.360854 
L 369.156938 146.200928 
L 371.16509 146.039328 
L 373.173243 145.735122 
L 377.08914 145.701314 
L 379.097293 145.512652 
L 381.005038 145.785379 
L 384.017267 146.501404 
L 388.93724 148.364532 
L 392.853138 149.883519 
L 394.86129 150.217878 
L 396.869443 150.608993 
L 398.777188 151.153726 
L 400.785341 151.40021 
L 402.793493 151.690084 
L 404.701238 152.089003 
L 408.717543 152.410186 
L 418.557491 154.914943 
L 426.389286 156.428218 
L 431.409667 157.405154 
L 431.409667 157.405154 
" clip-path="url(#pd51dcb5e76)" style="fill: none; stroke: #348abd; stroke-width: 1.5; stroke-linecap: square"/>
   </g>
   <g id="patch_3">
    <path d="M 70.7874 227.110617 
L 70.7874 18.6624 
" style="fill: none; stroke: #ffffff; stroke-linejoin: miter; stroke-linecap: square"/>
   </g>
   <g id="patch_4">
    <path d="M 448.582156 227.110617 
L 448.582156 18.6624 
" style="fill: none; stroke: #ffffff; stroke-linejoin: miter; stroke-linecap: square"/>
   </g>
   <g id="patch_5">
    <path d="M 70.7874 227.110617 
L 448.582156 227.110617 
" style="fill: none; stroke: #ffffff; stroke-linejoin: miter; stroke-linecap: square"/>
   </g>
   <g id="patch_6">
    <path d="M 70.7874 18.6624 
L 448.582156 18.6624 
" style="fill: none; stroke: #ffffff; stroke-linejoin: miter; stroke-linecap: square"/>
   </g>
  </g>
 </g>
 <defs>
  <clipPath id="pd51dcb5e76">
   <rect x="70.7874" y="18.6624" width="377.794756" height="208.448217"/>
  </clipPath>
 </defs>
</svg>
