<?xml version="1.0" encoding="utf-8" standalone="no"?>
<!DOCTYPE svg PUBLIC "-//W3C//DTD SVG 1.1//EN"
  "http://www.w3.org/Graphics/SVG/1.1/DTD/svg11.dtd">
<svg xmlns:xlink="http://www.w3.org/1999/xlink" width="467.244556pt" height="288.773017pt" viewBox="0 0 467.244556 288.773017" xmlns="http://www.w3.org/2000/svg" version="1.1">
 <metadata>
  <rdf:RDF xmlns:dc="http://purl.org/dc/elements/1.1/" xmlns:cc="http://creativecommons.org/ns#" xmlns:rdf="http://www.w3.org/1999/02/22-rdf-syntax-ns#">
   <cc:Work>
    <dc:type rdf:resource="http://purl.org/dc/dcmitype/StillImage"/>
    <dc:date>1980-01-01T00:00:00+00:00</dc:date>
    <dc:format>image/svg+xml</dc:format>
    <dc:creator>
     <cc:Agent>
      <dc:title>Matplotlib v3.5.2, https://matplotlib.org/</dc:title>
     </cc:Agent>
    </dc:creator>
   </cc:Work>
  </rdf:RDF>
 </metadata>
 <defs>
  <style type="text/css">*{stroke-linejoin: round; stroke-linecap: butt}</style>
 </defs>
 <g id="figure_1">
  <g id="patch_1">
   <path d="M 0 288.773017 
L 467.244556 288.773017 
L 467.244556 0 
L 0 0 
z
" style="fill: #ffffff"/>
  </g>
  <g id="axes_1">
   <g id="patch_2">
    <path d="M 48.6624 227.110617 
L 439.394656 227.110617 
L 439.394656 18.6624 
L 48.6624 18.6624 
z
" style="fill: #e5e5e5"/>
   </g>
   <g id="matplotlib.axis_1">
    <g id="xtick_1">
     <g id="line2d_1">
      <path d="M 54.165671 227.110617 
L 54.165671 18.6624 
" clip-path="url(#pfc1726b55c)" style="fill: none; stroke: #ffffff; stroke-width: 0.8; stroke-linecap: square"/>
     </g>
     <g id="line2d_2">
      <defs>
       <path id="md141754e2a" d="M 0 0 
L 0 3.5 
" style="stroke: #000000; stroke-width: 0.8"/>
      </defs>
      <g>
       <use xlink:href="#md141754e2a" x="54.165671" y="227.110617" style="stroke: #000000; stroke-width: 0.8"/>
      </g>
     </g>
     <g id="text_1">
      <!-- 0 -->
      <g transform="translate(49.584671 245.052367)scale(0.144 -0.144)">
       <defs>
        <path id="DejaVuSans-30" d="M 2034 4250 
Q 1547 4250 1301 3770 
Q 1056 3291 1056 2328 
Q 1056 1369 1301 889 
Q 1547 409 2034 409 
Q 2525 409 2770 889 
Q 3016 1369 3016 2328 
Q 3016 3291 2770 3770 
Q 2525 4250 2034 4250 
z
M 2034 4750 
Q 2819 4750 3233 4129 
Q 3647 3509 3647 2328 
Q 3647 1150 3233 529 
Q 2819 -91 2034 -91 
Q 1250 -91 836 529 
Q 422 1150 422 2328 
Q 422 3509 836 4129 
Q 1250 4750 2034 4750 
z
" transform="scale(0.015625)"/>
       </defs>
       <use xlink:href="#DejaVuSans-30"/>
      </g>
     </g>
    </g>
    <g id="xtick_2">
     <g id="line2d_3">
      <path d="M 109.198383 227.110617 
L 109.198383 18.6624 
" clip-path="url(#pfc1726b55c)" style="fill: none; stroke: #ffffff; stroke-width: 0.8; stroke-linecap: square"/>
     </g>
     <g id="line2d_4">
      <g>
       <use xlink:href="#md141754e2a" x="109.198383" y="227.110617" style="stroke: #000000; stroke-width: 0.8"/>
      </g>
     </g>
     <g id="text_2">
      <!-- 10 -->
      <g transform="translate(100.036383 245.052367)scale(0.144 -0.144)">
       <defs>
        <path id="DejaVuSans-31" d="M 794 531 
L 1825 531 
L 1825 4091 
L 703 3866 
L 703 4441 
L 1819 4666 
L 2450 4666 
L 2450 531 
L 3481 531 
L 3481 0 
L 794 0 
L 794 531 
z
" transform="scale(0.015625)"/>
       </defs>
       <use xlink:href="#DejaVuSans-31"/>
       <use xlink:href="#DejaVuSans-30" x="63.623047"/>
      </g>
     </g>
    </g>
    <g id="xtick_3">
     <g id="line2d_5">
      <path d="M 164.231095 227.110617 
L 164.231095 18.6624 
" clip-path="url(#pfc1726b55c)" style="fill: none; stroke: #ffffff; stroke-width: 0.8; stroke-linecap: square"/>
     </g>
     <g id="line2d_6">
      <g>
       <use xlink:href="#md141754e2a" x="164.231095" y="227.110617" style="stroke: #000000; stroke-width: 0.8"/>
      </g>
     </g>
     <g id="text_3">
      <!-- 20 -->
      <g transform="translate(155.069095 245.052367)scale(0.144 -0.144)">
       <defs>
        <path id="DejaVuSans-32" d="M 1228 531 
L 3431 531 
L 3431 0 
L 469 0 
L 469 531 
Q 828 903 1448 1529 
Q 2069 2156 2228 2338 
Q 2531 2678 2651 2914 
Q 2772 3150 2772 3378 
Q 2772 3750 2511 3984 
Q 2250 4219 1831 4219 
Q 1534 4219 1204 4116 
Q 875 4013 500 3803 
L 500 4441 
Q 881 4594 1212 4672 
Q 1544 4750 1819 4750 
Q 2544 4750 2975 4387 
Q 3406 4025 3406 3419 
Q 3406 3131 3298 2873 
Q 3191 2616 2906 2266 
Q 2828 2175 2409 1742 
Q 1991 1309 1228 531 
z
" transform="scale(0.015625)"/>
       </defs>
       <use xlink:href="#DejaVuSans-32"/>
       <use xlink:href="#DejaVuSans-30" x="63.623047"/>
      </g>
     </g>
    </g>
    <g id="xtick_4">
     <g id="line2d_7">
      <path d="M 219.263808 227.110617 
L 219.263808 18.6624 
" clip-path="url(#pfc1726b55c)" style="fill: none; stroke: #ffffff; stroke-width: 0.8; stroke-linecap: square"/>
     </g>
     <g id="line2d_8">
      <g>
       <use xlink:href="#md141754e2a" x="219.263808" y="227.110617" style="stroke: #000000; stroke-width: 0.8"/>
      </g>
     </g>
     <g id="text_4">
      <!-- 30 -->
      <g transform="translate(210.101808 245.052367)scale(0.144 -0.144)">
       <defs>
        <path id="DejaVuSans-33" d="M 2597 2516 
Q 3050 2419 3304 2112 
Q 3559 1806 3559 1356 
Q 3559 666 3084 287 
Q 2609 -91 1734 -91 
Q 1441 -91 1130 -33 
Q 819 25 488 141 
L 488 750 
Q 750 597 1062 519 
Q 1375 441 1716 441 
Q 2309 441 2620 675 
Q 2931 909 2931 1356 
Q 2931 1769 2642 2001 
Q 2353 2234 1838 2234 
L 1294 2234 
L 1294 2753 
L 1863 2753 
Q 2328 2753 2575 2939 
Q 2822 3125 2822 3475 
Q 2822 3834 2567 4026 
Q 2313 4219 1838 4219 
Q 1578 4219 1281 4162 
Q 984 4106 628 3988 
L 628 4550 
Q 988 4650 1302 4700 
Q 1616 4750 1894 4750 
Q 2613 4750 3031 4423 
Q 3450 4097 3450 3541 
Q 3450 3153 3228 2886 
Q 3006 2619 2597 2516 
z
" transform="scale(0.015625)"/>
       </defs>
       <use xlink:href="#DejaVuSans-33"/>
       <use xlink:href="#DejaVuSans-30" x="63.623047"/>
      </g>
     </g>
    </g>
    <g id="xtick_5">
     <g id="line2d_9">
      <path d="M 274.29652 227.110617 
L 274.29652 18.6624 
" clip-path="url(#pfc1726b55c)" style="fill: none; stroke: #ffffff; stroke-width: 0.8; stroke-linecap: square"/>
     </g>
     <g id="line2d_10">
      <g>
       <use xlink:href="#md141754e2a" x="274.29652" y="227.110617" style="stroke: #000000; stroke-width: 0.8"/>
      </g>
     </g>
     <g id="text_5">
      <!-- 40 -->
      <g transform="translate(265.13452 245.052367)scale(0.144 -0.144)">
       <defs>
        <path id="DejaVuSans-34" d="M 2419 4116 
L 825 1625 
L 2419 1625 
L 2419 4116 
z
M 2253 4666 
L 3047 4666 
L 3047 1625 
L 3713 1625 
L 3713 1100 
L 3047 1100 
L 3047 0 
L 2419 0 
L 2419 1100 
L 313 1100 
L 313 1709 
L 2253 4666 
z
" transform="scale(0.015625)"/>
       </defs>
       <use xlink:href="#DejaVuSans-34"/>
       <use xlink:href="#DejaVuSans-30" x="63.623047"/>
      </g>
     </g>
    </g>
    <g id="xtick_6">
     <g id="line2d_11">
      <path d="M 329.329232 227.110617 
L 329.329232 18.6624 
" clip-path="url(#pfc1726b55c)" style="fill: none; stroke: #ffffff; stroke-width: 0.8; stroke-linecap: square"/>
     </g>
     <g id="line2d_12">
      <g>
       <use xlink:href="#md141754e2a" x="329.329232" y="227.110617" style="stroke: #000000; stroke-width: 0.8"/>
      </g>
     </g>
     <g id="text_6">
      <!-- 50 -->
      <g transform="translate(320.167232 245.052367)scale(0.144 -0.144)">
       <defs>
        <path id="DejaVuSans-35" d="M 691 4666 
L 3169 4666 
L 3169 4134 
L 1269 4134 
L 1269 2991 
Q 1406 3038 1543 3061 
Q 1681 3084 1819 3084 
Q 2600 3084 3056 2656 
Q 3513 2228 3513 1497 
Q 3513 744 3044 326 
Q 2575 -91 1722 -91 
Q 1428 -91 1123 -41 
Q 819 9 494 109 
L 494 744 
Q 775 591 1075 516 
Q 1375 441 1709 441 
Q 2250 441 2565 725 
Q 2881 1009 2881 1497 
Q 2881 1984 2565 2268 
Q 2250 2553 1709 2553 
Q 1456 2553 1204 2497 
Q 953 2441 691 2322 
L 691 4666 
z
" transform="scale(0.015625)"/>
       </defs>
       <use xlink:href="#DejaVuSans-35"/>
       <use xlink:href="#DejaVuSans-30" x="63.623047"/>
      </g>
     </g>
    </g>
    <g id="xtick_7">
     <g id="line2d_13">
      <path d="M 384.361944 227.110617 
L 384.361944 18.6624 
" clip-path="url(#pfc1726b55c)" style="fill: none; stroke: #ffffff; stroke-width: 0.8; stroke-linecap: square"/>
     </g>
     <g id="line2d_14">
      <g>
       <use xlink:href="#md141754e2a" x="384.361944" y="227.110617" style="stroke: #000000; stroke-width: 0.8"/>
      </g>
     </g>
     <g id="text_7">
      <!-- 60 -->
      <g transform="translate(375.199944 245.052367)scale(0.144 -0.144)">
       <defs>
        <path id="DejaVuSans-36" d="M 2113 2584 
Q 1688 2584 1439 2293 
Q 1191 2003 1191 1497 
Q 1191 994 1439 701 
Q 1688 409 2113 409 
Q 2538 409 2786 701 
Q 3034 994 3034 1497 
Q 3034 2003 2786 2293 
Q 2538 2584 2113 2584 
z
M 3366 4563 
L 3366 3988 
Q 3128 4100 2886 4159 
Q 2644 4219 2406 4219 
Q 1781 4219 1451 3797 
Q 1122 3375 1075 2522 
Q 1259 2794 1537 2939 
Q 1816 3084 2150 3084 
Q 2853 3084 3261 2657 
Q 3669 2231 3669 1497 
Q 3669 778 3244 343 
Q 2819 -91 2113 -91 
Q 1303 -91 875 529 
Q 447 1150 447 2328 
Q 447 3434 972 4092 
Q 1497 4750 2381 4750 
Q 2619 4750 2861 4703 
Q 3103 4656 3366 4563 
z
" transform="scale(0.015625)"/>
       </defs>
       <use xlink:href="#DejaVuSans-36"/>
       <use xlink:href="#DejaVuSans-30" x="63.623047"/>
      </g>
     </g>
    </g>
    <g id="xtick_8">
     <g id="line2d_15">
      <path d="M 439.394656 227.110617 
L 439.394656 18.6624 
" clip-path="url(#pfc1726b55c)" style="fill: none; stroke: #ffffff; stroke-width: 0.8; stroke-linecap: square"/>
     </g>
     <g id="line2d_16">
      <g>
       <use xlink:href="#md141754e2a" x="439.394656" y="227.110617" style="stroke: #000000; stroke-width: 0.8"/>
      </g>
     </g>
     <g id="text_8">
      <!-- 70 -->
      <g transform="translate(430.232656 245.052367)scale(0.144 -0.144)">
       <defs>
        <path id="DejaVuSans-37" d="M 525 4666 
L 3525 4666 
L 3525 4397 
L 1831 0 
L 1172 0 
L 2766 4134 
L 525 4134 
L 525 4666 
z
" transform="scale(0.015625)"/>
       </defs>
       <use xlink:href="#DejaVuSans-37"/>
       <use xlink:href="#DejaVuSans-30" x="63.623047"/>
      </g>
     </g>
    </g>
    <g id="text_9">
     <!-- $\tau$ -->
     <g transform="translate(238.758128 265.177217)scale(0.1728 -0.1728)">
      <defs>
       <path id="DejaVuSans-Oblique-3c4" d="M 2103 638 
Q 2188 488 2525 488 
L 2800 488 
L 2706 0 
L 2363 0 
Q 1800 0 1600 300 
Q 1403 606 1534 1269 
L 1856 2925 
L 541 2925 
L 653 3500 
L 3881 3500 
L 3769 2925 
L 2444 2925 
L 2113 1234 
Q 2025 781 2103 638 
z
" transform="scale(0.015625)"/>
      </defs>
      <use xlink:href="#DejaVuSans-Oblique-3c4" transform="translate(0 0.3125)"/>
     </g>
    </g>
   </g>
   <g id="matplotlib.axis_2">
    <g id="ytick_1">
     <g id="line2d_17">
      <path d="M 48.6624 194.7293 
L 439.394656 194.7293 
" clip-path="url(#pfc1726b55c)" style="fill: none; stroke: #ffffff; stroke-width: 0.8; stroke-linecap: square"/>
     </g>
     <g id="line2d_18">
      <defs>
       <path id="mcc4c36fe32" d="M 0 0 
L -3.5 0 
" style="stroke: #000000; stroke-width: 0.8"/>
      </defs>
      <g>
       <use xlink:href="#mcc4c36fe32" x="48.6624" y="194.7293" style="stroke: #000000; stroke-width: 0.8"/>
      </g>
     </g>
     <g id="text_10">
      <!-- 0.0 -->
      <g transform="translate(18.7619 200.200175)scale(0.144 -0.144)">
       <defs>
        <path id="DejaVuSans-2e" d="M 684 794 
L 1344 794 
L 1344 0 
L 684 0 
L 684 794 
z
" transform="scale(0.015625)"/>
       </defs>
       <use xlink:href="#DejaVuSans-30"/>
       <use xlink:href="#DejaVuSans-2e" x="63.623047"/>
       <use xlink:href="#DejaVuSans-30" x="95.410156"/>
      </g>
     </g>
    </g>
    <g id="ytick_2">
     <g id="line2d_19">
      <path d="M 48.6624 161.410904 
L 439.394656 161.410904 
" clip-path="url(#pfc1726b55c)" style="fill: none; stroke: #ffffff; stroke-width: 0.8; stroke-linecap: square"/>
     </g>
     <g id="line2d_20">
      <g>
       <use xlink:href="#mcc4c36fe32" x="48.6624" y="161.410904" style="stroke: #000000; stroke-width: 0.8"/>
      </g>
     </g>
     <g id="text_11">
      <!-- 0.2 -->
      <g transform="translate(18.7619 166.881779)scale(0.144 -0.144)">
       <use xlink:href="#DejaVuSans-30"/>
       <use xlink:href="#DejaVuSans-2e" x="63.623047"/>
       <use xlink:href="#DejaVuSans-32" x="95.410156"/>
      </g>
     </g>
    </g>
    <g id="ytick_3">
     <g id="line2d_21">
      <path d="M 48.6624 128.092508 
L 439.394656 128.092508 
" clip-path="url(#pfc1726b55c)" style="fill: none; stroke: #ffffff; stroke-width: 0.8; stroke-linecap: square"/>
     </g>
     <g id="line2d_22">
      <g>
       <use xlink:href="#mcc4c36fe32" x="48.6624" y="128.092508" style="stroke: #000000; stroke-width: 0.8"/>
      </g>
     </g>
     <g id="text_12">
      <!-- 0.4 -->
      <g transform="translate(18.7619 133.563383)scale(0.144 -0.144)">
       <use xlink:href="#DejaVuSans-30"/>
       <use xlink:href="#DejaVuSans-2e" x="63.623047"/>
       <use xlink:href="#DejaVuSans-34" x="95.410156"/>
      </g>
     </g>
    </g>
    <g id="ytick_4">
     <g id="line2d_23">
      <path d="M 48.6624 94.774112 
L 439.394656 94.774112 
" clip-path="url(#pfc1726b55c)" style="fill: none; stroke: #ffffff; stroke-width: 0.8; stroke-linecap: square"/>
     </g>
     <g id="line2d_24">
      <g>
       <use xlink:href="#mcc4c36fe32" x="48.6624" y="94.774112" style="stroke: #000000; stroke-width: 0.8"/>
      </g>
     </g>
     <g id="text_13">
      <!-- 0.6 -->
      <g transform="translate(18.7619 100.244987)scale(0.144 -0.144)">
       <use xlink:href="#DejaVuSans-30"/>
       <use xlink:href="#DejaVuSans-2e" x="63.623047"/>
       <use xlink:href="#DejaVuSans-36" x="95.410156"/>
      </g>
     </g>
    </g>
    <g id="ytick_5">
     <g id="line2d_25">
      <path d="M 48.6624 61.455715 
L 439.394656 61.455715 
" clip-path="url(#pfc1726b55c)" style="fill: none; stroke: #ffffff; stroke-width: 0.8; stroke-linecap: square"/>
     </g>
     <g id="line2d_26">
      <g>
       <use xlink:href="#mcc4c36fe32" x="48.6624" y="61.455715" style="stroke: #000000; stroke-width: 0.8"/>
      </g>
     </g>
     <g id="text_14">
      <!-- 0.8 -->
      <g transform="translate(18.7619 66.92659)scale(0.144 -0.144)">
       <defs>
        <path id="DejaVuSans-38" d="M 2034 2216 
Q 1584 2216 1326 1975 
Q 1069 1734 1069 1313 
Q 1069 891 1326 650 
Q 1584 409 2034 409 
Q 2484 409 2743 651 
Q 3003 894 3003 1313 
Q 3003 1734 2745 1975 
Q 2488 2216 2034 2216 
z
M 1403 2484 
Q 997 2584 770 2862 
Q 544 3141 544 3541 
Q 544 4100 942 4425 
Q 1341 4750 2034 4750 
Q 2731 4750 3128 4425 
Q 3525 4100 3525 3541 
Q 3525 3141 3298 2862 
Q 3072 2584 2669 2484 
Q 3125 2378 3379 2068 
Q 3634 1759 3634 1313 
Q 3634 634 3220 271 
Q 2806 -91 2034 -91 
Q 1263 -91 848 271 
Q 434 634 434 1313 
Q 434 1759 690 2068 
Q 947 2378 1403 2484 
z
M 1172 3481 
Q 1172 3119 1398 2916 
Q 1625 2713 2034 2713 
Q 2441 2713 2670 2916 
Q 2900 3119 2900 3481 
Q 2900 3844 2670 4047 
Q 2441 4250 2034 4250 
Q 1625 4250 1398 4047 
Q 1172 3844 1172 3481 
z
" transform="scale(0.015625)"/>
       </defs>
       <use xlink:href="#DejaVuSans-30"/>
       <use xlink:href="#DejaVuSans-2e" x="63.623047"/>
       <use xlink:href="#DejaVuSans-38" x="95.410156"/>
      </g>
     </g>
    </g>
    <g id="ytick_6">
     <g id="line2d_27">
      <path d="M 48.6624 28.137319 
L 439.394656 28.137319 
" clip-path="url(#pfc1726b55c)" style="fill: none; stroke: #ffffff; stroke-width: 0.8; stroke-linecap: square"/>
     </g>
     <g id="line2d_28">
      <g>
       <use xlink:href="#mcc4c36fe32" x="48.6624" y="28.137319" style="stroke: #000000; stroke-width: 0.8"/>
      </g>
     </g>
     <g id="text_15">
      <!-- 1.0 -->
      <g transform="translate(18.7619 33.608194)scale(0.144 -0.144)">
       <use xlink:href="#DejaVuSans-31"/>
       <use xlink:href="#DejaVuSans-2e" x="63.623047"/>
       <use xlink:href="#DejaVuSans-30" x="95.410156"/>
      </g>
     </g>
    </g>
   </g>
   <g id="line2d_29">
    <path d="M 54.165671 194.7293 
L 54.275748 194.66147 
L 54.385826 194.215451 
L 54.550942 192.198429 
L 54.771096 186.001041 
L 55.101328 168.076703 
L 55.596676 125.342428 
L 56.477294 48.051337 
L 56.862565 31.953658 
L 57.137758 28.385666 
L 57.309132 28.137319 
L 139.145334 28.198367 
L 139.255412 28.625519 
L 139.420528 30.597725 
L 139.640682 36.717685 
L 139.970914 54.521957 
L 140.466262 97.146378 
L 141.34688 174.581855 
L 141.732151 190.821005 
L 142.007344 194.464275 
L 142.182584 194.7293 
L 239.755972 194.628146 
L 239.866049 194.100046 
L 240.031165 191.893359 
L 240.25132 185.372929 
L 240.581552 166.953016 
L 241.076899 123.773728 
L 241.957518 47.099066 
L 242.342788 31.586688 
L 242.617981 28.32382 
L 242.783097 28.137319 
L 264.853593 28.160037 
L 264.96367 28.453027 
L 265.128786 30.088871 
L 265.34894 35.612251 
L 265.624134 48.947966 
L 266.064443 83.741309 
L 267.165216 179.12109 
L 267.495447 191.389274 
L 267.715602 194.308731 
L 267.921031 194.7293 
L 365.46423 194.684131 
L 365.574307 194.305447 
L 365.739423 192.450852 
L 365.959578 186.536264 
L 366.28981 169.052933 
L 366.785158 126.726034 
L 367.720815 45.668944 
L 368.051046 32.297316 
L 368.32624 28.450311 
L 368.511788 28.137319 
L 390.61689 28.189754 
L 390.726967 28.591469 
L 390.892083 30.502422 
L 391.112237 36.515823 
L 391.442469 54.154029 
L 391.937817 96.625204 
L 392.818435 174.257233 
L 393.203706 190.691841 
L 393.478899 194.440078 
L 393.659477 194.7293 
L 439.436165 194.7293 
L 439.436165 194.7293 
" clip-path="url(#pfc1726b55c)" style="fill: none; stroke: #348abd; stroke-linecap: square"/>
   </g>
   <g id="line2d_30">
    <path d="M 54.165671 194.7293 
L 54.716058 174.313719 
L 54.936212 171.833648 
L 54.991251 171.895037 
L 55.101328 172.84196 
L 55.321483 177.805193 
L 55.706753 193.326914 
L 56.25714 214.470616 
L 56.477294 217.539055 
L 56.532333 217.631937 
L 56.64241 216.98922 
L 56.807526 214.036685 
L 57.137758 202.423229 
L 57.908299 173.399452 
L 58.073415 171.844215 
L 58.128453 171.874101 
L 58.238531 172.759156 
L 58.458685 177.61342 
L 58.843956 193.041017 
L 59.394342 214.323735 
L 59.614497 217.510977 
L 59.669535 217.635337 
L 59.779613 217.055074 
L 59.944729 214.189363 
L 60.27496 202.692524 
L 61.045501 173.505588 
L 61.265656 171.856742 
L 61.375733 172.67979 
L 61.595888 177.424325 
L 61.981158 192.755383 
L 62.586583 215.385631 
L 62.806738 217.635153 
L 62.861777 217.514032 
L 63.026893 215.520261 
L 63.302086 207.427588 
L 64.292781 172.185524 
L 64.402859 171.842962 
L 64.512936 172.603874 
L 64.73309 177.237938 
L 65.118361 192.470059 
L 65.723786 215.260166 
L 65.943941 217.631384 
L 65.998979 217.541743 
L 66.109057 216.539445 
L 66.329211 211.479121 
L 66.76952 193.356358 
L 67.264868 174.858851 
L 67.485023 171.897395 
L 67.540061 171.832763 
L 67.650138 172.531421 
L 67.870293 177.054288 
L 68.255564 192.185088 
L 68.860989 215.131488 
L 69.081143 217.624031 
L 69.136182 217.565885 
L 69.246259 216.625323 
L 69.466414 211.673272 
L 69.882977 194.7293 
L 70.402071 175.002963 
L 70.622225 171.922271 
L 70.677264 171.826148 
L 70.787341 172.462441 
L 70.952457 175.406059 
L 71.282689 187.007594 
L 72.05323 216.048377 
L 72.218346 217.613095 
L 72.273384 217.586452 
L 72.383462 216.707774 
L 72.603616 211.864771 
L 73.026438 194.7293 
L 73.539273 175.150161 
L 73.759428 171.950717 
L 73.814466 171.823117 
L 73.869505 171.972462 
L 74.034621 174.04754 
L 74.309814 182.245749 
L 75.30051 217.317214 
L 75.410587 217.603443 
L 75.520664 216.786786 
L 75.740819 212.053589 
L 76.126089 196.732604 
L 76.731514 174.085737 
L 76.951669 171.823671 
L 77.006708 171.941552 
L 77.116785 172.999097 
L 77.336939 178.155876 
L 77.777249 196.358743 
L 78.272596 214.726381 
L 78.492751 217.580482 
L 78.54779 217.616854 
L 78.657867 216.862345 
L 78.878021 212.239695 
L 79.263292 197.017895 
L 79.868717 174.211534 
L 80.088872 171.827809 
L 80.14391 171.914208 
L 80.253988 172.910157 
L 80.474142 177.959373 
L 80.914451 196.072797 
L 81.409799 214.585058 
L 81.629954 217.55881 
L 81.684992 217.626684 
L 81.795069 216.934442 
L 82.015224 212.423062 
L 82.400495 197.302827 
L 83.00592 174.340541 
L 83.226074 171.835531 
L 83.281113 171.890434 
L 83.39119 172.824632 
L 83.611345 177.765493 
L 83.996615 193.268034 
L 84.547002 214.440628 
L 84.767156 217.533566 
L 84.822195 217.63293 
L 84.932272 217.003063 
L 85.097388 214.068366 
L 85.42762 202.478772 
L 86.198161 173.421032 
L 86.363277 171.846835 
L 86.418315 171.870234 
L 86.528393 172.742534 
L 86.748547 177.574269 
L 87.133818 192.982187 
L 87.684204 214.293113 
L 87.904359 217.504753 
L 87.959397 217.635592 
L 88.014436 217.489485 
L 88.179552 215.423725 
L 88.454745 207.237574 
L 89.445441 172.146308 
L 89.555518 171.853612 
L 89.665595 172.663878 
L 89.88575 177.385728 
L 90.27102 192.696613 
L 90.876445 215.360063 
L 91.0966 217.63467 
L 91.151639 217.520029 
L 91.261716 216.468816 
L 91.48187 211.323073 
L 91.92218 193.129282 
L 92.417527 174.746624 
L 92.637682 171.880185 
L 92.692721 171.840569 
L 92.802798 172.588674 
L 93.022952 177.199903 
L 93.408223 192.411358 
L 94.013648 215.233935 
L 94.233803 217.630163 
L 94.288841 217.547005 
L 94.398918 216.557405 
L 94.619073 211.519308 
L 95.059382 193.415253 
L 95.55473 174.888268 
L 95.774885 171.902224 
L 95.829923 171.831108 
L 95.94 172.516935 
L 96.160155 177.01682 
L 96.545426 192.126465 
L 97.150851 215.104598 
L 97.371005 217.622072 
L 97.426044 217.570411 
L 97.536121 216.642579 
L 97.756276 211.712916 
L 98.174128 194.7293 
L 98.691933 175.033016 
L 98.912087 171.927836 
L 98.967126 171.825231 
L 99.077203 172.448672 
L 99.242319 175.374442 
L 99.572551 186.952077 
L 100.343092 216.026727 
L 100.508208 217.610399 
L 100.563246 217.590243 
L 100.673324 216.724323 
L 100.893478 211.903865 
L 101.317589 194.7293 
L 101.829135 175.180848 
L 102.04929 171.957016 
L 102.104328 171.822938 
L 102.159367 171.965807 
L 102.324483 174.022247 
L 102.599676 182.196326 
L 103.590372 217.307335 
L 103.700449 217.606497 
L 103.810526 216.802625 
L 104.030681 212.092127 
L 104.415951 196.791368 
L 105.021376 174.111373 
L 105.241531 171.82423 
L 105.29657 171.93563 
L 105.406647 172.980508 
L 105.626801 178.115206 
L 106.067111 196.299891 
L 106.562458 214.69754 
L 106.782613 217.576313 
L 106.837652 217.619171 
L 106.947729 216.877472 
L 107.167883 212.277672 
L 107.553154 197.076588 
L 108.158579 174.237832 
L 108.378734 171.829105 
L 108.433772 171.909021 
L 108.543849 172.89227 
L 108.764004 177.919241 
L 109.204313 196.013898 
L 109.699661 214.555576 
L 109.919816 217.553905 
L 109.974854 217.628263 
L 110.084931 216.948854 
L 110.305086 212.460471 
L 110.690357 197.361441 
L 111.295782 174.367498 
L 111.515936 171.837565 
L 111.570975 171.885983 
L 111.681052 172.807449 
L 111.901207 177.725905 
L 112.286477 193.209163 
L 112.836864 214.410509 
L 113.057018 217.527926 
L 113.112057 217.633771 
L 113.222134 217.016758 
L 113.38725 214.09992 
L 113.717482 202.534263 
L 114.488023 173.442752 
L 114.653139 171.849607 
L 114.708177 171.86652 
L 114.818255 172.726059 
L 115.038409 177.535231 
L 115.42368 192.923368 
L 115.974066 214.262361 
L 116.194221 217.498378 
L 116.249259 217.635696 
L 116.304298 217.496065 
L 116.469414 215.448949 
L 116.744607 207.286956 
L 117.735303 172.156261 
L 117.84538 171.850634 
L 117.955457 172.648112 
L 118.175612 177.347247 
L 118.560882 192.637857 
L 119.166307 215.334359 
L 119.386462 217.634035 
L 119.441501 217.525874 
L 119.551578 216.487334 
L 119.771732 211.363688 
L 120.212042 193.18814 
L 120.707389 174.775531 
L 120.927544 171.88443 
L 120.982583 171.838329 
L 121.09266 172.57362 
L 121.312814 177.161984 
L 121.698085 192.352672 
L 122.30351 215.207569 
L 122.523665 217.62879 
L 122.578703 217.552116 
L 122.68878 216.575221 
L 122.908935 211.559384 
L 123.349244 193.474156 
L 123.844592 174.917816 
L 124.064747 171.907205 
L 124.119785 171.829605 
L 124.229862 172.502596 
L 124.394978 175.497101 
L 124.72521 187.166496 
L 125.440713 215.077574 
L 125.660867 217.619962 
L 125.715906 217.574787 
L 125.825983 216.659689 
L 126.046138 211.752447 
L 126.465278 194.7293 
L 126.981795 175.063201 
L 127.201949 171.933552 
L 127.256988 171.824466 
L 127.367065 172.43505 
L 127.532181 175.342953 
L 127.862413 186.896611 
L 128.632954 216.004936 
L 128.79807 217.607551 
L 128.853108 217.593882 
L 128.963186 216.740725 
L 129.18334 211.942846 
L 129.568611 196.564637 
L 130.118997 175.211664 
L 130.339152 171.963467 
L 130.39419 171.822911 
L 130.449229 171.959303 
L 130.614345 173.997091 
L 130.889538 182.146985 
L 131.880234 217.297307 
L 131.990311 217.609399 
L 132.100388 216.818317 
L 132.320543 212.130551 
L 132.705813 196.850117 
L 133.311238 174.137145 
L 133.531393 171.82494 
L 133.586432 171.92986 
L 133.696509 172.962062 
L 133.916663 178.074647 
L 134.356973 196.241029 
L 134.85232 214.668567 
L 135.072475 217.571991 
L 135.127514 217.621336 
L 135.237591 216.892452 
L 135.457745 212.315533 
L 135.843016 197.135266 
L 136.448441 174.264267 
L 136.668596 171.830554 
L 136.723634 171.903986 
L 136.833711 172.874527 
L 137.053866 177.87922 
L 137.494175 195.95499 
L 137.989523 214.525962 
L 138.209677 217.548848 
L 138.264716 217.62969 
L 138.374793 216.963119 
L 138.539909 213.977508 
L 138.870141 202.319943 
L 139.585644 175.203926 
L 139.750759 173.891314 
L 139.860837 174.52989 
L 140.080991 178.892801 
L 140.851532 198.531003 
L 141.016648 199.18853 
L 141.126726 198.928302 
L 141.401919 197.060555 
L 141.787189 194.995179 
L 142.007344 194.741805 
L 142.722846 194.7293 
L 239.921088 194.64258 
L 240.086204 194.288822 
L 240.306358 193.158181 
L 240.801706 190.269883 
L 240.911783 190.578503 
L 241.076899 192.322391 
L 241.352093 198.727974 
L 241.957518 214.992075 
L 242.067595 215.567936 
L 242.177672 214.933102 
L 242.342788 211.738004 
L 242.67302 199.290433 
L 243.333484 174.115046 
L 243.553638 171.824322 
L 243.608677 171.934797 
L 243.718754 172.977864 
L 243.938909 178.109406 
L 244.379218 196.291483 
L 244.874566 214.693409 
L 245.09472 217.575705 
L 245.149759 217.61949 
L 245.259836 216.879621 
L 245.479991 212.283088 
L 245.865261 197.084971 
L 246.470686 174.2416 
L 246.690841 171.829303 
L 246.745879 171.908293 
L 246.855957 172.889726 
L 247.076111 177.913517 
L 247.51642 196.005483 
L 248.011768 214.551353 
L 248.231923 217.553192 
L 248.286961 217.628476 
L 248.397039 216.950901 
L 248.617193 212.465806 
L 249.002464 197.369813 
L 249.607889 174.37136 
L 249.828043 171.837868 
L 249.883082 171.885359 
L 249.993159 172.805006 
L 250.213314 177.720259 
L 250.598584 193.200753 
L 251.148971 214.406195 
L 251.369125 217.527107 
L 251.424164 217.633879 
L 251.534241 217.018703 
L 251.699357 214.104417 
L 252.029589 202.542187 
L 252.80013 173.445866 
L 252.965246 171.850015 
L 253.020285 171.866001 
L 253.130362 172.723717 
L 253.350516 177.529664 
L 253.735787 192.914967 
L 254.286173 214.257958 
L 254.506328 217.497455 
L 254.561367 217.635698 
L 254.616405 217.496993 
L 254.781521 215.452541 
L 255.056714 207.294004 
L 256.04741 172.157695 
L 256.157487 171.850221 
L 256.267565 172.645872 
L 256.487719 177.341759 
L 256.87299 192.629464 
L 257.478415 215.330676 
L 257.698569 217.633932 
L 257.753608 217.526697 
L 257.863685 216.489967 
L 258.08384 211.369481 
L 258.524149 193.196549 
L 259.019497 174.779671 
L 259.239651 171.885049 
L 259.29469 171.838021 
L 259.404767 172.571482 
L 259.624922 177.156576 
L 260.010192 192.34429 
L 260.615617 215.203791 
L 260.835772 217.628582 
L 260.89081 217.552834 
L 261.000888 216.577754 
L 261.221042 211.565101 
L 261.661351 193.482571 
L 262.156699 174.922048 
L 262.376854 171.907929 
L 262.431892 171.829403 
L 262.54197 172.50056 
L 262.707086 175.492524 
L 263.037317 187.158541 
L 263.75282 215.073702 
L 263.972974 217.619648 
L 264.028013 217.575399 
L 264.13809 216.662122 
L 264.358245 211.758085 
L 264.777569 194.7293 
L 265.293902 175.738283 
L 265.459018 173.924983 
L 265.514056 173.93228 
L 265.624134 174.831716 
L 265.844288 179.582397 
L 266.559791 198.246453 
L 266.724906 199.172658 
L 266.779945 199.171028 
L 266.890022 198.812296 
L 267.715602 194.752384 
L 268.155911 194.7293 
L 365.629346 194.671811 
L 365.794462 194.382492 
L 366.014617 193.357195 
L 366.565003 190.28663 
L 366.67508 190.737643 
L 366.840196 192.728162 
L 367.115389 199.477149 
L 367.720815 215.224031 
L 367.830892 215.532143 
L 367.940969 214.620103 
L 368.161124 209.329683 
L 368.656471 188.196836 
L 369.096781 173.644573 
L 369.316935 171.839914 
L 369.427012 172.584358 
L 369.647167 177.189057 
L 370.032437 192.394589 
L 370.637863 215.226416 
L 370.858017 217.629786 
L 370.913056 217.548481 
L 371.023133 216.56251 
L 371.243288 211.53077 
L 371.683597 193.432081 
L 372.178945 174.896697 
L 372.399099 171.903632 
L 372.454138 171.830664 
L 372.564215 172.512823 
L 372.78437 177.006136 
L 373.16964 192.109719 
L 373.775065 215.096891 
L 373.99522 217.621485 
L 374.050258 217.571677 
L 374.160336 216.647482 
L 374.38049 211.724222 
L 374.79871 194.7293 
L 375.316147 175.041627 
L 375.536302 171.929454 
L 375.59134 171.824997 
L 375.701418 172.444765 
L 375.866534 175.365432 
L 376.196765 186.936224 
L 376.967306 216.020515 
L 377.132422 217.609601 
L 377.187461 217.591298 
L 377.297538 216.729024 
L 377.517693 211.915014 
L 377.942171 194.7293 
L 378.45335 175.189639 
L 378.673504 171.958844 
L 378.728543 171.822915 
L 378.783582 171.963933 
L 378.948697 174.015045 
L 379.223891 182.18222 
L 380.214586 217.304485 
L 380.324664 217.607342 
L 380.434741 216.807123 
L 380.654895 212.103117 
L 381.040166 196.808155 
L 381.645591 174.118723 
L 381.865745 171.824417 
L 381.920784 171.933966 
L 382.030861 172.975223 
L 382.251016 178.103607 
L 382.691325 196.283074 
L 383.186673 214.689276 
L 383.406827 217.575093 
L 383.461866 217.619805 
L 383.571943 216.881767 
L 383.792098 212.288501 
L 384.177368 197.093355 
L 384.782794 174.245371 
L 385.002948 171.829504 
L 385.057987 171.907567 
L 385.168064 172.887186 
L 385.388219 177.907795 
L 385.828528 195.997068 
L 386.323875 214.547128 
L 386.54403 217.552476 
L 386.599069 217.628686 
L 386.709146 216.952945 
L 386.874262 213.95463 
L 387.204494 202.280171 
L 387.919996 174.375225 
L 388.140151 171.838174 
L 388.195189 171.884739 
L 388.305267 172.802566 
L 388.525421 177.714615 
L 388.910692 193.192344 
L 389.461078 214.401879 
L 389.681233 217.526286 
L 389.736271 217.633984 
L 389.846349 217.020644 
L 390.011465 214.108911 
L 390.341696 202.550109 
L 391.057199 175.291986 
L 391.222315 173.890578 
L 391.332392 174.472331 
L 391.552546 178.748681 
L 392.323087 198.484634 
L 392.488203 199.188766 
L 392.598281 198.950845 
L 392.873474 197.101532 
L 393.258744 195.008223 
L 393.478899 194.743345 
L 394.084324 194.7293 
L 439.436165 194.7293 
L 439.436165 194.7293 
" clip-path="url(#pfc1726b55c)" style="fill: none; stroke: #988ed5; stroke-width: 0.5; stroke-linecap: square"/>
   </g>
   <g id="line2d_31">
    <path d="M 54.165671 28.137319 
L 57.309132 40.275787 
L 60.452594 51.529804 
L 63.596055 61.963814 
L 66.739516 71.637567 
L 69.906723 80.671658 
L 73.098964 89.106367 
L 76.291205 96.917318 
L 79.483447 104.150639 
L 82.730726 110.960083 
L 85.978006 117.257613 
L 89.280325 123.176556 
L 92.582643 128.643284 
L 95.94 133.773144 
L 99.352396 138.579231 
L 102.764792 143.006383 
L 106.232227 147.147545 
L 109.809738 151.072958 
L 113.442289 154.727554 
L 117.129878 158.124733 
L 120.927544 161.322026 
L 124.835288 164.320712 
L 128.853108 167.123463 
L 132.981007 169.734192 
L 137.274021 172.187776 
L 141.732151 174.481134 
L 146.410435 176.637282 
L 151.308874 178.649257 
L 156.482507 180.531828 
L 161.931332 182.276747 
L 167.71039 183.89367 
L 173.929756 185.40003 
L 180.589432 186.781646 
L 187.799494 188.047747 
L 195.67002 189.200733 
L 204.311087 190.238809 
L 213.942849 191.167906 
L 224.785461 191.985894 
L 237.224194 192.695646 
L 251.754396 193.295781 
L 269.256684 193.78857 
L 291.217102 194.174766 
L 320.607737 194.455944 
L 364.693689 194.634692 
L 439.436165 194.713644 
L 439.436165 194.713644 
" clip-path="url(#pfc1726b55c)" style="fill: none; stroke: #777777; stroke-width: 1.5; stroke-linecap: square"/>
   </g>
   <g id="patch_3">
    <path d="M 48.6624 227.110617 
L 48.6624 18.6624 
" style="fill: none; stroke: #ffffff; stroke-linejoin: miter; stroke-linecap: square"/>
   </g>
   <g id="patch_4">
    <path d="M 439.394656 227.110617 
L 439.394656 18.6624 
" style="fill: none; stroke: #ffffff; stroke-linejoin: miter; stroke-linecap: square"/>
   </g>
   <g id="patch_5">
    <path d="M 48.6624 227.110617 
L 439.394656 227.110617 
" style="fill: none; stroke: #ffffff; stroke-linejoin: miter; stroke-linecap: square"/>
   </g>
   <g id="patch_6">
    <path d="M 48.6624 18.6624 
L 439.394656 18.6624 
" style="fill: none; stroke: #ffffff; stroke-linejoin: miter; stroke-linecap: square"/>
   </g>
   <g id="line2d_32">
    <path d="M 54.165671 28.137319 
L 54.275748 59.121354 
L 54.440864 124.714878 
L 54.661019 33.179423 
L 54.716058 39.32854 
L 54.936212 131.434102 
L 54.991251 110.810294 
L 55.156367 46.979241 
L 55.211405 50.066168 
L 55.43156 139.167402 
L 55.486599 127.360646 
L 55.706753 65.654198 
L 55.81683 97.393336 
L 55.926908 144.253358 
L 55.981946 143.81276 
L 56.202101 83.804362 
L 56.312178 103.054347 
L 56.477294 155.31033 
L 56.532333 145.422299 
L 56.752487 102.632412 
L 56.862565 124.581706 
L 57.027681 160.876399 
L 57.247835 117.583559 
L 57.309132 119.997248 
L 57.523028 166.854302 
L 57.633106 153.347356 
L 57.798222 130.347326 
L 57.908299 140.69159 
L 58.073415 172.289579 
L 58.128453 168.647963 
L 58.348608 140.916613 
L 58.458685 150.524026 
L 58.623801 176.170347 
L 58.67884 172.221727 
L 58.898994 149.453666 
L 59.009072 157.874192 
L 59.174188 179.142723 
L 59.229226 175.519544 
L 59.449381 156.309587 
L 59.559458 163.431601 
L 59.724574 181.495784 
L 59.779613 178.461232 
L 59.999767 161.838951 
L 60.109845 167.705794 
L 60.27496 183.369912 
L 60.329999 181.020263 
L 60.550154 166.340641 
L 60.660231 171.058772 
L 60.825347 184.847995 
L 60.880386 183.205272 
L 61.10054 170.049307 
L 61.155579 170.960037 
L 61.375733 185.991461 
L 61.430772 185.041346 
L 61.650927 173.143621 
L 61.705965 173.707902 
L 61.92612 186.854197 
L 62.036197 183.313385 
L 62.201313 175.758044 
L 62.256352 176.018063 
L 62.421468 184.382287 
L 62.531545 187.78544 
L 62.806738 177.989893 
L 62.916815 181.81179 
L 63.081931 188.749297 
L 63.357124 179.696479 
L 63.467202 182.728186 
L 63.632318 189.475862 
L 63.907511 181.192054 
L 63.962549 181.868337 
L 64.182704 189.993206 
L 64.237743 189.053876 
L 64.457897 182.517239 
L 64.512936 182.926306 
L 64.73309 190.334113 
L 64.788129 189.932858 
L 65.008284 183.702748 
L 65.063322 183.881279 
L 65.228438 188.76485 
L 65.338516 190.626924 
L 65.613709 184.752276 
L 65.723786 186.98703 
L 65.888902 191.147742 
L 66.164095 185.553616 
L 66.219134 186.102353 
L 66.439288 191.508684 
L 66.494327 190.664403 
L 66.714482 186.296147 
L 66.739516 186.370757 
L 66.824559 187.616469 
L 66.989675 191.729186 
L 67.044713 191.284728 
L 67.264868 186.988129 
L 67.319907 187.158058 
L 67.485023 190.649206 
L 67.540061 191.836229 
L 67.5951 191.778407 
L 67.815254 187.635879 
L 67.870293 187.650846 
L 67.98037 189.283321 
L 68.145486 192.147665 
L 68.420679 188.124346 
L 68.530757 189.411466 
L 68.695873 192.396984 
L 68.971066 188.580503 
L 69.026105 188.838923 
L 69.246259 192.537505 
L 69.301298 192.189319 
L 69.521452 189.020625 
L 69.576491 189.144122 
L 69.741607 191.714287 
L 69.796646 192.58885 
L 69.851684 192.541369 
L 70.126877 189.449215 
L 70.236955 190.652564 
L 70.402071 192.800642 
L 70.677264 189.753678 
L 70.787341 190.700797 
L 70.952457 192.967771 
L 71.007496 192.492813 
L 71.22765 190.056818 
L 71.337728 190.766468 
L 71.502843 193.050306 
L 71.557882 192.81388 
L 71.778037 190.357822 
L 71.833075 190.434265 
L 71.998191 192.374342 
L 72.108268 193.066232 
L 72.383462 190.638456 
L 72.493539 191.534833 
L 72.658655 193.245953 
L 72.933848 190.848872 
L 72.988887 191.058684 
L 73.209041 193.35268 
L 73.26408 193.019828 
L 73.484235 191.064128 
L 73.539273 191.183596 
L 73.759428 193.393078 
L 73.814466 193.255689 
L 74.034621 191.282848 
L 74.08966 191.319889 
L 74.254776 192.812752 
L 74.364853 193.436321 
L 74.640046 191.466084 
L 74.750123 192.138797 
L 74.915239 193.557638 
L 75.190432 191.620707 
L 75.245471 191.765194 
L 75.465626 193.619851 
L 75.520664 193.400248 
L 75.740819 191.782298 
L 75.795858 191.854559 
L 76.016012 193.630046 
L 76.126089 193.101392 
L 76.291205 191.949426 
L 76.346244 191.955385 
L 76.456321 192.593854 
L 76.621437 193.701787 
L 76.89663 192.06631 
L 77.006708 192.572667 
L 77.171824 193.779435 
L 77.447017 192.185975 
L 77.502055 192.281009 
L 77.72221 193.808866 
L 77.777249 193.679708 
L 77.997403 192.31303 
L 78.052442 192.349242 
L 78.217558 193.411935 
L 78.327635 193.807268 
L 78.602828 192.428157 
L 78.712906 192.917409 
L 78.878021 193.894298 
L 79.153215 192.516563 
L 79.208253 192.626104 
L 79.428408 193.938908 
L 79.483447 193.763979 
L 79.703601 192.613259 
L 79.75864 192.670591 
L 79.978794 193.944494 
L 80.088872 193.540455 
L 80.253988 192.717049 
L 80.309026 192.72573 
L 80.474142 193.576109 
L 80.584219 193.979096 
L 80.859413 192.790511 
L 80.96949 193.165037 
L 81.134606 194.034671 
L 81.409799 192.863903 
L 81.464838 192.935957 
L 81.684992 194.054315 
L 81.740031 193.951261 
L 81.960185 192.944859 
L 82.015224 192.973227 
L 82.18034 193.760575 
L 82.290417 194.043491 
L 82.56561 193.019944 
L 82.675688 193.385048 
L 82.840804 194.106201 
L 83.115997 193.075242 
L 83.171036 193.157458 
L 83.39119 194.137148 
L 83.446229 194.003413 
L 83.666383 193.138221 
L 83.776461 193.345075 
L 83.941577 194.138266 
L 83.996615 194.093886 
L 84.271808 193.213939 
L 84.436924 193.855891 
L 84.547002 194.160547 
L 84.822195 193.255047 
L 84.932272 193.538052 
L 85.097388 194.200024 
L 85.372581 193.303738 
L 85.42762 193.35748 
L 85.647774 194.211867 
L 85.702813 194.134537 
L 85.922968 193.359225 
L 85.978006 193.379388 
L 86.143122 193.981421 
L 86.253199 194.202682 
L 86.528393 193.409275 
L 86.63847 193.687889 
L 86.803586 194.24813 
L 87.078779 193.446511 
L 87.133818 193.5082 
L 87.353972 194.268862 
L 87.409011 194.168292 
L 87.629166 193.490429 
L 87.739243 193.647242 
L 87.904359 194.266295 
L 87.959397 194.236108 
L 88.234591 193.542546 
L 88.399707 194.040174 
L 88.509784 194.285326 
L 88.784977 193.570532 
L 88.840016 193.638005 
L 89.06017 194.313074 
L 89.115209 194.197065 
L 89.335363 193.604994 
L 89.445441 193.768618 
L 89.610557 194.318978 
L 89.665595 194.263292 
L 89.940788 193.658486 
L 90.105904 194.13041 
L 90.215982 194.314486 
L 90.491175 193.678955 
L 90.601252 193.895496 
L 90.766368 194.347468 
L 91.041561 193.70564 
L 91.0966 193.751944 
L 91.316755 194.360617 
L 91.371793 194.285966 
L 91.591948 193.738035 
L 91.702025 193.857887 
L 91.887205 194.372867 
L 91.92218 194.337744 
L 92.197373 193.774299 
L 92.362489 194.168264 
L 92.472566 194.374361 
L 92.747759 193.794551 
L 92.802798 193.84593 
L 93.022952 194.393465 
L 93.077991 194.305346 
L 93.298146 193.820301 
L 93.408223 193.94682 
L 93.573339 194.39493 
L 93.628378 194.356672 
L 93.903571 193.858593 
L 94.068687 194.235913 
L 94.178764 194.395559 
L 94.453957 193.873501 
L 94.564034 194.044282 
L 94.72915 194.419345 
L 95.030666 193.902008 
L 95.059382 193.928341 
L 95.279537 194.426845 
L 95.334575 194.372423 
L 95.609769 193.933488 
L 95.884962 194.412468 
L 95.94 194.28307 
L 96.160155 193.943936 
L 96.325271 194.261135 
L 96.435348 194.439742 
L 96.710541 193.959394 
L 96.76558 193.998607 
L 96.985735 194.452385 
L 97.040773 194.385836 
L 97.260928 193.979533 
L 97.371005 194.07807 
L 97.59116 194.426167 
L 97.866353 194.00705 
L 98.031469 194.31355 
L 98.141546 194.455864 
L 98.174128 194.40263 
L 98.416739 194.018522 
L 98.581855 194.283506 
L 98.691933 194.472728 
L 98.746971 194.397521 
L 98.967126 194.034472 
L 99.077203 194.137912 
L 99.242319 194.476002 
L 99.297358 194.437474 
L 99.572551 194.063833 
L 99.847744 194.468687 
L 99.902783 194.363717 
L 100.122937 194.07192 
L 100.288053 194.330797 
L 100.39813 194.48887 
L 100.728362 194.114155 
L 100.948517 194.496622 
L 101.003556 194.447011 
L 101.278749 194.115111 
L 101.553942 194.478993 
L 101.608981 194.375458 
L 101.829135 194.120316 
L 101.994251 194.372495 
L 102.104328 194.501655 
L 102.43456 194.162833 
L 102.654715 194.51322 
L 102.709753 194.455237 
L 102.929908 194.142693 
L 103.039985 194.224669 
L 103.26014 194.487395 
L 103.535333 194.164326 
L 103.810526 194.511789 
L 103.865565 194.426042 
L 104.085719 194.17093 
L 104.250835 194.384534 
L 104.360913 194.526485 
L 104.415951 194.462496 
L 104.636106 194.181206 
L 104.801222 194.361117 
L 104.911299 194.5305 
L 104.966338 194.494373 
L 105.241531 194.204472 
L 105.516724 194.519857 
L 105.571763 194.434167 
L 105.791917 194.208775 
L 105.957033 194.418424 
L 106.067111 194.537021 
L 106.397342 194.242338 
L 106.672536 194.500294 
L 106.947729 194.241198 
L 107.222922 194.526337 
L 107.277961 194.441846 
L 107.498115 194.243512 
L 107.828347 194.475058 
L 108.048502 194.249161 
L 108.213618 194.42697 
L 108.323695 194.555734 
L 108.378734 194.505438 
L 108.598888 194.257992 
L 108.764004 194.406574 
L 108.92912 194.531613 
L 109.204313 194.275479 
L 109.534545 194.480682 
L 109.7547 194.279241 
L 109.919816 194.455004 
L 110.029893 194.56472 
L 110.084931 194.510015 
L 110.305086 194.286047 
L 110.470202 194.435212 
L 110.635318 194.535988 
L 110.910511 194.304968 
L 111.240743 194.486014 
L 111.460898 194.307078 
L 111.846168 194.434347 
L 112.066323 194.33442 
L 112.341516 194.5397 
L 112.616709 194.332233 
L 112.891902 194.561276 
L 112.946941 194.491125 
L 113.167095 194.332897 
L 113.552366 194.442848 
L 113.77252 194.360796 
L 114.047714 194.54293 
L 114.322907 194.357495 
L 114.653139 194.496069 
L 114.873293 194.356891 
L 115.203525 194.521734 
L 115.42368 194.358928 
L 115.80895 194.475979 
L 116.029105 194.380947 
L 116.304298 194.567362 
L 116.579491 194.379234 
L 116.909723 194.525263 
L 117.129878 194.380032 
L 117.515148 194.482224 
L 117.735303 194.402759 
L 118.010496 194.569671 
L 118.285689 194.400075 
L 118.615921 194.528697 
L 118.836076 194.399776 
L 119.221346 194.488325 
L 119.441501 194.42308 
L 119.716694 194.571672 
L 119.991887 194.419549 
L 120.322119 194.532068 
L 120.542273 194.41828 
L 120.872505 194.553352 
L 121.09266 194.419239 
L 121.47793 194.51479 
L 121.698085 194.437772 
L 122.028317 194.535398 
L 122.248471 194.435646 
L 122.578703 194.555686 
L 122.798858 194.435643 
L 123.184128 194.519293 
L 123.404283 194.454851 
L 123.679476 194.593002 
L 123.954669 194.451968 
L 124.284901 194.557993 
L 124.505056 194.451106 
L 124.890326 194.523744 
L 125.110481 194.470879 
L 125.385674 194.594194 
L 125.660867 194.467329 
L 125.991099 194.560295 
L 126.211254 194.4657 
L 126.596524 194.528148 
L 126.816679 194.485939 
L 127.091872 194.595254 
L 127.367065 194.481803 
L 127.697297 194.562608 
L 127.917451 194.479491 
L 128.247683 194.579741 
L 128.467838 194.478995 
L 128.853108 194.548576 
L 129.073263 194.495458 
L 129.403495 194.56494 
L 129.623649 194.492538 
L 129.953881 194.581275 
L 130.174036 194.491349 
L 130.559306 194.551864 
L 130.779461 194.508352 
L 131.054654 194.612171 
L 131.329847 194.504893 
L 131.660079 194.582837 
L 131.880234 194.503083 
L 132.265504 194.555155 
L 132.485659 194.52054 
L 132.760852 194.612738 
L 133.036045 194.516605 
L 133.366277 194.584436 
L 133.586432 194.514237 
L 133.916663 194.59909 
L 134.191857 194.532072 
L 134.46705 194.613265 
L 134.742243 194.527716 
L 135.072475 194.58608 
L 135.292629 194.524849 
L 135.622861 194.600084 
L 135.898055 194.542992 
L 136.173248 194.613784 
L 136.448441 194.538267 
L 136.778673 194.587771 
L 136.998827 194.534954 
L 137.329059 194.601123 
L 137.604252 194.553339 
L 137.879446 194.614318 
L 138.154639 194.548293 
L 138.429832 194.62698 
L 138.705025 194.544583 
L 139.039123 194.599619 
L 139.31045 194.56315 
L 139.585644 194.614884 
L 139.860837 194.557826 
L 140.13603 194.627192 
L 140.411223 194.553764 
L 140.741455 194.603363 
L 141.016648 194.572458 
L 141.291841 194.615496 
L 141.567035 194.566897 
L 141.842228 194.627412 
L 142.117421 194.562524 
L 142.447653 194.604571 
L 142.722846 194.581295 
L 142.998039 194.616162 
L 143.273233 194.575532 
L 143.548426 194.627658 
L 143.823619 194.570888 
L 144.153851 194.605838 
L 144.429044 194.589686 
L 144.649199 194.648976 
L 144.97943 194.583757 
L 145.254624 194.627946 
L 145.529817 194.578876 
L 145.80501 194.638728 
L 146.080203 194.575096 
L 146.410435 194.617675 
L 146.685628 194.591594 
L 146.960822 194.628284 
L 147.236015 194.586509 
L 147.511208 194.638739 
L 147.786401 194.582463 
L 148.116633 194.618527 
L 148.391826 194.599064 
L 148.667019 194.62868 
L 148.942213 194.593805 
L 149.217406 194.638783 
L 149.492599 194.589526 
L 149.822831 194.619443 
L 150.098024 194.606185 
L 150.373217 194.629138 
L 150.648411 194.600783 
L 150.923604 194.638871 
L 151.198797 194.596298 
L 151.529029 194.620423 
L 151.804222 194.612976 
L 152.079415 194.62966 
L 152.354608 194.607456 
L 152.629802 194.639012 
L 152.904995 194.602795 
L 153.235227 194.621465 
L 153.51042 194.619453 
L 153.785613 194.630248 
L 154.060806 194.613841 
L 154.336 194.639211 
L 154.611193 194.609028 
L 154.886386 194.648157 
L 155.161579 194.605078 
L 155.491811 194.630901 
L 155.767004 194.619949 
L 156.042197 194.639472 
L 156.317391 194.615009 
L 156.592584 194.648102 
L 156.867777 194.61088 
L 157.198009 194.631619 
L 157.473202 194.625793 
L 157.748395 194.639797 
L 158.023589 194.62075 
L 158.298782 194.6481 
L 158.573975 194.616465 
L 158.904207 194.632399 
L 159.1794 194.631385 
L 159.454593 194.640187 
L 159.729787 194.62626 
L 160.00498 194.648155 
L 160.280173 194.621841 
L 160.610405 194.633241 
L 160.885598 194.636735 
L 161.160791 194.640641 
L 161.435984 194.631548 
L 161.711178 194.648271 
L 161.986371 194.627017 
L 162.316603 194.634142 
L 162.591796 194.641851 
L 162.866989 194.641159 
L 163.142182 194.636624 
L 163.417376 194.648448 
L 163.692569 194.631999 
L 163.967762 194.655867 
L 164.297994 194.646744 
L 164.573187 194.641739 
L 164.84838 194.641494 
L 165.123573 194.648688 
L 165.398767 194.636796 
L 165.67396 194.655817 
L 166.004192 194.65142 
L 166.279385 194.642379 
L 166.554578 194.646166 
L 166.829771 194.64899 
L 167.160003 194.661453 
L 167.380158 194.655824 
L 167.71039 194.655887 
L 167.985583 194.643078 
L 168.315815 194.671181 
L 168.535969 194.649354 
L 168.866201 194.665622 
L 169.086356 194.65589 
L 169.416587 194.66015 
L 169.691781 194.643833 
L 170.022013 194.674939 
L 170.242167 194.649779 
L 170.572399 194.669574 
L 170.792554 194.656016 
L 171.122785 194.664216 
L 171.397979 194.644642 
L 171.72821 194.67846 
L 172.003404 194.636239 
L 172.718906 194.636419 
L 173.159215 194.634317 
L 173.984795 194.676844 
L 174.259988 194.641856 
L 174.97549 194.638099 
L 175.470838 194.63429 
L 178.22277 194.648358 
L 178.938273 194.643122 
L 179.763852 194.693934 
L 180.204161 194.677092 
L 180.479355 194.653491 
L 181.194857 194.644921 
L 182.075475 194.684225 
L 182.460746 194.67571 
L 182.735939 194.658514 
L 183.121209 194.698236 
L 184.662291 194.660225 
L 185.047562 194.65272 
L 185.873141 194.681716 
L 186.19104 194.652722 
L 186.973914 194.673426 
L 187.304146 194.656907 
L 188.129726 194.680365 
L 188.459958 194.655093 
L 189.780885 194.669094 
L 190.166156 194.656319 
L 191.542122 194.685764 
L 191.872353 194.657569 
L 193.798706 194.68445 
L 194.128938 194.660898 
L 195.504904 194.68694 
L 195.835136 194.661969 
L 197.761488 194.685702 
L 198.146759 194.661799 
L 201.449077 194.673974 
L 202.219618 194.673304 
L 202.990159 194.705541 
L 203.870777 194.668773 
L 204.806434 194.684398 
L 205.521937 194.668174 
L 208.21883 194.684193 
L 208.989371 194.674198 
L 209.869989 194.694818 
L 210.530453 194.678501 
L 211.411071 194.701867 
L 212.181612 194.687321 
L 212.952153 194.676456 
L 213.88781 194.687218 
L 214.658351 194.678084 
L 215.594008 194.687155 
L 216.419588 194.686895 
L 217.13509 194.710009 
L 218.786249 194.705301 
L 219.666868 194.678649 
L 287.089204 194.704622 
L 291.877566 194.715244 
L 293.253532 194.709883 
L 295.124846 194.705739 
L 297.766701 194.712207 
L 299.252744 194.716582 
L 300.738787 194.706311 
L 313.122482 194.711064 
L 315.709298 194.719372 
L 318.130998 194.717671 
L 319.67208 194.719334 
L 322.038742 194.721558 
L 324.075171 194.711804 
L 326.16664 194.712468 
L 329.358881 194.722354 
L 338.935605 194.7201 
L 341.302266 194.722839 
L 343.889083 194.713341 
L 347.081324 194.717527 
L 349.503024 194.713244 
L 358.419284 194.718337 
L 360.951062 194.716876 
L 363.4278 194.723185 
L 365.959578 194.714976 
L 372.068867 194.717396 
L 376.196765 194.71633 
L 380.104509 194.71612 
L 394.689749 194.720863 
L 397.771913 194.718675 
L 401.074232 194.717673 
L 420.778065 194.721562 
L 424.520693 194.723544 
L 428.098205 194.723548 
L 431.290446 194.722629 
L 434.427649 194.720848 
L 439.436165 194.723849 
L 439.436165 194.723849 
" clip-path="url(#pfc1726b55c)" style="fill: none; stroke: #e24a33; stroke-opacity: 0.5; stroke-width: 1.5; stroke-linecap: square"/>
   </g>
   <g id="legend_1">
    <g id="patch_7">
     <path d="M 158.648059 154.164633 
L 329.408997 154.164633 
Q 331.408997 154.164633 331.408997 152.164633 
L 331.408997 93.608383 
Q 331.408997 91.608383 329.408997 91.608383 
L 158.648059 91.608383 
Q 156.648059 91.608383 156.648059 93.608383 
L 156.648059 152.164633 
Q 156.648059 154.164633 158.648059 154.164633 
z
" style="fill: #e5e5e5; opacity: 0.8; stroke: #cccccc; stroke-width: 0.5; stroke-linejoin: miter"/>
    </g>
    <g id="line2d_33">
     <path d="M 160.648059 99.706821 
L 170.648059 99.706821 
L 180.648059 99.706821 
" style="fill: none; stroke: #e24a33; stroke-opacity: 0.5; stroke-width: 1.5; stroke-linecap: square"/>
    </g>
    <g id="text_16">
     <!-- BCF (cold bath) -->
     <g transform="translate(188.648059 103.206821)scale(0.1 -0.1)">
      <defs>
       <path id="DejaVuSans-42" d="M 1259 2228 
L 1259 519 
L 2272 519 
Q 2781 519 3026 730 
Q 3272 941 3272 1375 
Q 3272 1813 3026 2020 
Q 2781 2228 2272 2228 
L 1259 2228 
z
M 1259 4147 
L 1259 2741 
L 2194 2741 
Q 2656 2741 2882 2914 
Q 3109 3088 3109 3444 
Q 3109 3797 2882 3972 
Q 2656 4147 2194 4147 
L 1259 4147 
z
M 628 4666 
L 2241 4666 
Q 2963 4666 3353 4366 
Q 3744 4066 3744 3513 
Q 3744 3084 3544 2831 
Q 3344 2578 2956 2516 
Q 3422 2416 3680 2098 
Q 3938 1781 3938 1306 
Q 3938 681 3513 340 
Q 3088 0 2303 0 
L 628 0 
L 628 4666 
z
" transform="scale(0.015625)"/>
       <path id="DejaVuSans-43" d="M 4122 4306 
L 4122 3641 
Q 3803 3938 3442 4084 
Q 3081 4231 2675 4231 
Q 1875 4231 1450 3742 
Q 1025 3253 1025 2328 
Q 1025 1406 1450 917 
Q 1875 428 2675 428 
Q 3081 428 3442 575 
Q 3803 722 4122 1019 
L 4122 359 
Q 3791 134 3420 21 
Q 3050 -91 2638 -91 
Q 1578 -91 968 557 
Q 359 1206 359 2328 
Q 359 3453 968 4101 
Q 1578 4750 2638 4750 
Q 3056 4750 3426 4639 
Q 3797 4528 4122 4306 
z
" transform="scale(0.015625)"/>
       <path id="DejaVuSans-46" d="M 628 4666 
L 3309 4666 
L 3309 4134 
L 1259 4134 
L 1259 2759 
L 3109 2759 
L 3109 2228 
L 1259 2228 
L 1259 0 
L 628 0 
L 628 4666 
z
" transform="scale(0.015625)"/>
       <path id="DejaVuSans-20" transform="scale(0.015625)"/>
       <path id="DejaVuSans-28" d="M 1984 4856 
Q 1566 4138 1362 3434 
Q 1159 2731 1159 2009 
Q 1159 1288 1364 580 
Q 1569 -128 1984 -844 
L 1484 -844 
Q 1016 -109 783 600 
Q 550 1309 550 2009 
Q 550 2706 781 3412 
Q 1013 4119 1484 4856 
L 1984 4856 
z
" transform="scale(0.015625)"/>
       <path id="DejaVuSans-63" d="M 3122 3366 
L 3122 2828 
Q 2878 2963 2633 3030 
Q 2388 3097 2138 3097 
Q 1578 3097 1268 2742 
Q 959 2388 959 1747 
Q 959 1106 1268 751 
Q 1578 397 2138 397 
Q 2388 397 2633 464 
Q 2878 531 3122 666 
L 3122 134 
Q 2881 22 2623 -34 
Q 2366 -91 2075 -91 
Q 1284 -91 818 406 
Q 353 903 353 1747 
Q 353 2603 823 3093 
Q 1294 3584 2113 3584 
Q 2378 3584 2631 3529 
Q 2884 3475 3122 3366 
z
" transform="scale(0.015625)"/>
       <path id="DejaVuSans-6f" d="M 1959 3097 
Q 1497 3097 1228 2736 
Q 959 2375 959 1747 
Q 959 1119 1226 758 
Q 1494 397 1959 397 
Q 2419 397 2687 759 
Q 2956 1122 2956 1747 
Q 2956 2369 2687 2733 
Q 2419 3097 1959 3097 
z
M 1959 3584 
Q 2709 3584 3137 3096 
Q 3566 2609 3566 1747 
Q 3566 888 3137 398 
Q 2709 -91 1959 -91 
Q 1206 -91 779 398 
Q 353 888 353 1747 
Q 353 2609 779 3096 
Q 1206 3584 1959 3584 
z
" transform="scale(0.015625)"/>
       <path id="DejaVuSans-6c" d="M 603 4863 
L 1178 4863 
L 1178 0 
L 603 0 
L 603 4863 
z
" transform="scale(0.015625)"/>
       <path id="DejaVuSans-64" d="M 2906 2969 
L 2906 4863 
L 3481 4863 
L 3481 0 
L 2906 0 
L 2906 525 
Q 2725 213 2448 61 
Q 2172 -91 1784 -91 
Q 1150 -91 751 415 
Q 353 922 353 1747 
Q 353 2572 751 3078 
Q 1150 3584 1784 3584 
Q 2172 3584 2448 3432 
Q 2725 3281 2906 2969 
z
M 947 1747 
Q 947 1113 1208 752 
Q 1469 391 1925 391 
Q 2381 391 2643 752 
Q 2906 1113 2906 1747 
Q 2906 2381 2643 2742 
Q 2381 3103 1925 3103 
Q 1469 3103 1208 2742 
Q 947 2381 947 1747 
z
" transform="scale(0.015625)"/>
       <path id="DejaVuSans-62" d="M 3116 1747 
Q 3116 2381 2855 2742 
Q 2594 3103 2138 3103 
Q 1681 3103 1420 2742 
Q 1159 2381 1159 1747 
Q 1159 1113 1420 752 
Q 1681 391 2138 391 
Q 2594 391 2855 752 
Q 3116 1113 3116 1747 
z
M 1159 2969 
Q 1341 3281 1617 3432 
Q 1894 3584 2278 3584 
Q 2916 3584 3314 3078 
Q 3713 2572 3713 1747 
Q 3713 922 3314 415 
Q 2916 -91 2278 -91 
Q 1894 -91 1617 61 
Q 1341 213 1159 525 
L 1159 0 
L 581 0 
L 581 4863 
L 1159 4863 
L 1159 2969 
z
" transform="scale(0.015625)"/>
       <path id="DejaVuSans-61" d="M 2194 1759 
Q 1497 1759 1228 1600 
Q 959 1441 959 1056 
Q 959 750 1161 570 
Q 1363 391 1709 391 
Q 2188 391 2477 730 
Q 2766 1069 2766 1631 
L 2766 1759 
L 2194 1759 
z
M 3341 1997 
L 3341 0 
L 2766 0 
L 2766 531 
Q 2569 213 2275 61 
Q 1981 -91 1556 -91 
Q 1019 -91 701 211 
Q 384 513 384 1019 
Q 384 1609 779 1909 
Q 1175 2209 1959 2209 
L 2766 2209 
L 2766 2266 
Q 2766 2663 2505 2880 
Q 2244 3097 1772 3097 
Q 1472 3097 1187 3025 
Q 903 2953 641 2809 
L 641 3341 
Q 956 3463 1253 3523 
Q 1550 3584 1831 3584 
Q 2591 3584 2966 3190 
Q 3341 2797 3341 1997 
z
" transform="scale(0.015625)"/>
       <path id="DejaVuSans-74" d="M 1172 4494 
L 1172 3500 
L 2356 3500 
L 2356 3053 
L 1172 3053 
L 1172 1153 
Q 1172 725 1289 603 
Q 1406 481 1766 481 
L 2356 481 
L 2356 0 
L 1766 0 
Q 1100 0 847 248 
Q 594 497 594 1153 
L 594 3053 
L 172 3053 
L 172 3500 
L 594 3500 
L 594 4494 
L 1172 4494 
z
" transform="scale(0.015625)"/>
       <path id="DejaVuSans-68" d="M 3513 2113 
L 3513 0 
L 2938 0 
L 2938 2094 
Q 2938 2591 2744 2837 
Q 2550 3084 2163 3084 
Q 1697 3084 1428 2787 
Q 1159 2491 1159 1978 
L 1159 0 
L 581 0 
L 581 4863 
L 1159 4863 
L 1159 2956 
Q 1366 3272 1645 3428 
Q 1925 3584 2291 3584 
Q 2894 3584 3203 3211 
Q 3513 2838 3513 2113 
z
" transform="scale(0.015625)"/>
       <path id="DejaVuSans-29" d="M 513 4856 
L 1013 4856 
Q 1481 4119 1714 3412 
Q 1947 2706 1947 2009 
Q 1947 1309 1714 600 
Q 1481 -109 1013 -844 
L 513 -844 
Q 928 -128 1133 580 
Q 1338 1288 1338 2009 
Q 1338 2731 1133 3434 
Q 928 4138 513 4856 
z
" transform="scale(0.015625)"/>
      </defs>
      <use xlink:href="#DejaVuSans-42"/>
      <use xlink:href="#DejaVuSans-43" x="66.853516"/>
      <use xlink:href="#DejaVuSans-46" x="136.677734"/>
      <use xlink:href="#DejaVuSans-20" x="194.197266"/>
      <use xlink:href="#DejaVuSans-28" x="225.984375"/>
      <use xlink:href="#DejaVuSans-63" x="264.998047"/>
      <use xlink:href="#DejaVuSans-6f" x="319.978516"/>
      <use xlink:href="#DejaVuSans-6c" x="381.160156"/>
      <use xlink:href="#DejaVuSans-64" x="408.943359"/>
      <use xlink:href="#DejaVuSans-20" x="472.419922"/>
      <use xlink:href="#DejaVuSans-62" x="504.207031"/>
      <use xlink:href="#DejaVuSans-61" x="567.683594"/>
      <use xlink:href="#DejaVuSans-74" x="628.962891"/>
      <use xlink:href="#DejaVuSans-68" x="668.171875"/>
      <use xlink:href="#DejaVuSans-29" x="731.550781"/>
     </g>
    </g>
    <g id="line2d_34">
     <path d="M 160.648059 114.486508 
L 170.648059 114.486508 
L 180.648059 114.486508 
" style="fill: none; stroke: #348abd; stroke-linecap: square"/>
    </g>
    <g id="text_17">
     <!-- $||L||$ -->
     <g transform="translate(188.648059 117.986508)scale(0.1 -0.1)">
      <defs>
       <path id="DejaVuSans-7c" d="M 1344 4891 
L 1344 -1509 
L 813 -1509 
L 813 4891 
L 1344 4891 
z
" transform="scale(0.015625)"/>
       <path id="DejaVuSans-Oblique-4c" d="M 1075 4666 
L 1709 4666 
L 909 525 
L 3181 525 
L 3078 0 
L 172 0 
L 1075 4666 
z
" transform="scale(0.015625)"/>
      </defs>
      <use xlink:href="#DejaVuSans-7c" transform="translate(0 0.578125)"/>
      <use xlink:href="#DejaVuSans-7c" transform="translate(33.691406 0.578125)"/>
      <use xlink:href="#DejaVuSans-Oblique-4c" transform="translate(67.382812 0.578125)"/>
      <use xlink:href="#DejaVuSans-7c" transform="translate(123.095703 0.578125)"/>
      <use xlink:href="#DejaVuSans-7c" transform="translate(156.787109 0.578125)"/>
     </g>
    </g>
    <g id="line2d_35">
     <path d="M 160.648059 129.586508 
L 170.648059 129.586508 
L 180.648059 129.586508 
" style="fill: none; stroke: #988ed5; stroke-width: 0.5; stroke-linecap: square"/>
    </g>
    <g id="text_18">
     <!-- $||H_{\mathrm{S}}||$ -->
     <g transform="translate(188.648059 133.086508)scale(0.1 -0.1)">
      <defs>
       <path id="DejaVuSans-Oblique-48" d="M 1081 4666 
L 1716 4666 
L 1344 2753 
L 3634 2753 
L 4006 4666 
L 4641 4666 
L 3731 0 
L 3097 0 
L 3531 2222 
L 1241 2222 
L 806 0 
L 172 0 
L 1081 4666 
z
" transform="scale(0.015625)"/>
       <path id="DejaVuSans-53" d="M 3425 4513 
L 3425 3897 
Q 3066 4069 2747 4153 
Q 2428 4238 2131 4238 
Q 1616 4238 1336 4038 
Q 1056 3838 1056 3469 
Q 1056 3159 1242 3001 
Q 1428 2844 1947 2747 
L 2328 2669 
Q 3034 2534 3370 2195 
Q 3706 1856 3706 1288 
Q 3706 609 3251 259 
Q 2797 -91 1919 -91 
Q 1588 -91 1214 -16 
Q 841 59 441 206 
L 441 856 
Q 825 641 1194 531 
Q 1563 422 1919 422 
Q 2459 422 2753 634 
Q 3047 847 3047 1241 
Q 3047 1584 2836 1778 
Q 2625 1972 2144 2069 
L 1759 2144 
Q 1053 2284 737 2584 
Q 422 2884 422 3419 
Q 422 4038 858 4394 
Q 1294 4750 2059 4750 
Q 2388 4750 2728 4690 
Q 3069 4631 3425 4513 
z
" transform="scale(0.015625)"/>
      </defs>
      <use xlink:href="#DejaVuSans-7c" transform="translate(0 0.578125)"/>
      <use xlink:href="#DejaVuSans-7c" transform="translate(33.691406 0.578125)"/>
      <use xlink:href="#DejaVuSans-Oblique-48" transform="translate(67.382812 0.578125)"/>
      <use xlink:href="#DejaVuSans-53" transform="translate(142.578125 -15.828125)scale(0.7)"/>
      <use xlink:href="#DejaVuSans-7c" transform="translate(189.746094 0.578125)"/>
      <use xlink:href="#DejaVuSans-7c" transform="translate(223.4375 0.578125)"/>
     </g>
    </g>
    <g id="line2d_36">
     <path d="M 160.648059 144.584946 
L 170.648059 144.584946 
L 180.648059 144.584946 
" style="fill: none; stroke: #777777; stroke-width: 1.5; stroke-linecap: square"/>
    </g>
    <g id="text_19">
     <!-- Slowest Decaying BCF Term -->
     <g transform="translate(188.648059 148.084946)scale(0.1 -0.1)">
      <defs>
       <path id="DejaVuSans-77" d="M 269 3500 
L 844 3500 
L 1563 769 
L 2278 3500 
L 2956 3500 
L 3675 769 
L 4391 3500 
L 4966 3500 
L 4050 0 
L 3372 0 
L 2619 2869 
L 1863 0 
L 1184 0 
L 269 3500 
z
" transform="scale(0.015625)"/>
       <path id="DejaVuSans-65" d="M 3597 1894 
L 3597 1613 
L 953 1613 
Q 991 1019 1311 708 
Q 1631 397 2203 397 
Q 2534 397 2845 478 
Q 3156 559 3463 722 
L 3463 178 
Q 3153 47 2828 -22 
Q 2503 -91 2169 -91 
Q 1331 -91 842 396 
Q 353 884 353 1716 
Q 353 2575 817 3079 
Q 1281 3584 2069 3584 
Q 2775 3584 3186 3129 
Q 3597 2675 3597 1894 
z
M 3022 2063 
Q 3016 2534 2758 2815 
Q 2500 3097 2075 3097 
Q 1594 3097 1305 2825 
Q 1016 2553 972 2059 
L 3022 2063 
z
" transform="scale(0.015625)"/>
       <path id="DejaVuSans-73" d="M 2834 3397 
L 2834 2853 
Q 2591 2978 2328 3040 
Q 2066 3103 1784 3103 
Q 1356 3103 1142 2972 
Q 928 2841 928 2578 
Q 928 2378 1081 2264 
Q 1234 2150 1697 2047 
L 1894 2003 
Q 2506 1872 2764 1633 
Q 3022 1394 3022 966 
Q 3022 478 2636 193 
Q 2250 -91 1575 -91 
Q 1294 -91 989 -36 
Q 684 19 347 128 
L 347 722 
Q 666 556 975 473 
Q 1284 391 1588 391 
Q 1994 391 2212 530 
Q 2431 669 2431 922 
Q 2431 1156 2273 1281 
Q 2116 1406 1581 1522 
L 1381 1569 
Q 847 1681 609 1914 
Q 372 2147 372 2553 
Q 372 3047 722 3315 
Q 1072 3584 1716 3584 
Q 2034 3584 2315 3537 
Q 2597 3491 2834 3397 
z
" transform="scale(0.015625)"/>
       <path id="DejaVuSans-44" d="M 1259 4147 
L 1259 519 
L 2022 519 
Q 2988 519 3436 956 
Q 3884 1394 3884 2338 
Q 3884 3275 3436 3711 
Q 2988 4147 2022 4147 
L 1259 4147 
z
M 628 4666 
L 1925 4666 
Q 3281 4666 3915 4102 
Q 4550 3538 4550 2338 
Q 4550 1131 3912 565 
Q 3275 0 1925 0 
L 628 0 
L 628 4666 
z
" transform="scale(0.015625)"/>
       <path id="DejaVuSans-79" d="M 2059 -325 
Q 1816 -950 1584 -1140 
Q 1353 -1331 966 -1331 
L 506 -1331 
L 506 -850 
L 844 -850 
Q 1081 -850 1212 -737 
Q 1344 -625 1503 -206 
L 1606 56 
L 191 3500 
L 800 3500 
L 1894 763 
L 2988 3500 
L 3597 3500 
L 2059 -325 
z
" transform="scale(0.015625)"/>
       <path id="DejaVuSans-69" d="M 603 3500 
L 1178 3500 
L 1178 0 
L 603 0 
L 603 3500 
z
M 603 4863 
L 1178 4863 
L 1178 4134 
L 603 4134 
L 603 4863 
z
" transform="scale(0.015625)"/>
       <path id="DejaVuSans-6e" d="M 3513 2113 
L 3513 0 
L 2938 0 
L 2938 2094 
Q 2938 2591 2744 2837 
Q 2550 3084 2163 3084 
Q 1697 3084 1428 2787 
Q 1159 2491 1159 1978 
L 1159 0 
L 581 0 
L 581 3500 
L 1159 3500 
L 1159 2956 
Q 1366 3272 1645 3428 
Q 1925 3584 2291 3584 
Q 2894 3584 3203 3211 
Q 3513 2838 3513 2113 
z
" transform="scale(0.015625)"/>
       <path id="DejaVuSans-67" d="M 2906 1791 
Q 2906 2416 2648 2759 
Q 2391 3103 1925 3103 
Q 1463 3103 1205 2759 
Q 947 2416 947 1791 
Q 947 1169 1205 825 
Q 1463 481 1925 481 
Q 2391 481 2648 825 
Q 2906 1169 2906 1791 
z
M 3481 434 
Q 3481 -459 3084 -895 
Q 2688 -1331 1869 -1331 
Q 1566 -1331 1297 -1286 
Q 1028 -1241 775 -1147 
L 775 -588 
Q 1028 -725 1275 -790 
Q 1522 -856 1778 -856 
Q 2344 -856 2625 -561 
Q 2906 -266 2906 331 
L 2906 616 
Q 2728 306 2450 153 
Q 2172 0 1784 0 
Q 1141 0 747 490 
Q 353 981 353 1791 
Q 353 2603 747 3093 
Q 1141 3584 1784 3584 
Q 2172 3584 2450 3431 
Q 2728 3278 2906 2969 
L 2906 3500 
L 3481 3500 
L 3481 434 
z
" transform="scale(0.015625)"/>
       <path id="DejaVuSans-54" d="M -19 4666 
L 3928 4666 
L 3928 4134 
L 2272 4134 
L 2272 0 
L 1638 0 
L 1638 4134 
L -19 4134 
L -19 4666 
z
" transform="scale(0.015625)"/>
       <path id="DejaVuSans-72" d="M 2631 2963 
Q 2534 3019 2420 3045 
Q 2306 3072 2169 3072 
Q 1681 3072 1420 2755 
Q 1159 2438 1159 1844 
L 1159 0 
L 581 0 
L 581 3500 
L 1159 3500 
L 1159 2956 
Q 1341 3275 1631 3429 
Q 1922 3584 2338 3584 
Q 2397 3584 2469 3576 
Q 2541 3569 2628 3553 
L 2631 2963 
z
" transform="scale(0.015625)"/>
       <path id="DejaVuSans-6d" d="M 3328 2828 
Q 3544 3216 3844 3400 
Q 4144 3584 4550 3584 
Q 5097 3584 5394 3201 
Q 5691 2819 5691 2113 
L 5691 0 
L 5113 0 
L 5113 2094 
Q 5113 2597 4934 2840 
Q 4756 3084 4391 3084 
Q 3944 3084 3684 2787 
Q 3425 2491 3425 1978 
L 3425 0 
L 2847 0 
L 2847 2094 
Q 2847 2600 2669 2842 
Q 2491 3084 2119 3084 
Q 1678 3084 1418 2786 
Q 1159 2488 1159 1978 
L 1159 0 
L 581 0 
L 581 3500 
L 1159 3500 
L 1159 2956 
Q 1356 3278 1631 3431 
Q 1906 3584 2284 3584 
Q 2666 3584 2933 3390 
Q 3200 3197 3328 2828 
z
" transform="scale(0.015625)"/>
      </defs>
      <use xlink:href="#DejaVuSans-53"/>
      <use xlink:href="#DejaVuSans-6c" x="63.476562"/>
      <use xlink:href="#DejaVuSans-6f" x="91.259766"/>
      <use xlink:href="#DejaVuSans-77" x="152.441406"/>
      <use xlink:href="#DejaVuSans-65" x="234.228516"/>
      <use xlink:href="#DejaVuSans-73" x="295.751953"/>
      <use xlink:href="#DejaVuSans-74" x="347.851562"/>
      <use xlink:href="#DejaVuSans-20" x="387.060547"/>
      <use xlink:href="#DejaVuSans-44" x="418.847656"/>
      <use xlink:href="#DejaVuSans-65" x="495.849609"/>
      <use xlink:href="#DejaVuSans-63" x="557.373047"/>
      <use xlink:href="#DejaVuSans-61" x="612.353516"/>
      <use xlink:href="#DejaVuSans-79" x="673.632812"/>
      <use xlink:href="#DejaVuSans-69" x="732.8125"/>
      <use xlink:href="#DejaVuSans-6e" x="760.595703"/>
      <use xlink:href="#DejaVuSans-67" x="823.974609"/>
      <use xlink:href="#DejaVuSans-20" x="887.451172"/>
      <use xlink:href="#DejaVuSans-42" x="919.238281"/>
      <use xlink:href="#DejaVuSans-43" x="986.091797"/>
      <use xlink:href="#DejaVuSans-46" x="1055.916016"/>
      <use xlink:href="#DejaVuSans-20" x="1113.435547"/>
      <use xlink:href="#DejaVuSans-54" x="1145.222656"/>
      <use xlink:href="#DejaVuSans-65" x="1189.306641"/>
      <use xlink:href="#DejaVuSans-72" x="1250.830078"/>
      <use xlink:href="#DejaVuSans-6d" x="1290.193359"/>
     </g>
    </g>
   </g>
  </g>
 </g>
 <defs>
  <clipPath id="pfc1726b55c">
   <rect x="48.6624" y="18.6624" width="390.732256" height="208.448217"/>
  </clipPath>
 </defs>
</svg>
