<?xml version="1.0" encoding="utf-8" standalone="no"?>
<!DOCTYPE svg PUBLIC "-//W3C//DTD SVG 1.1//EN"
  "http://www.w3.org/Graphics/SVG/1.1/DTD/svg11.dtd">
<svg xmlns:xlink="http://www.w3.org/1999/xlink" width="238.107098pt" height="190.485679pt" viewBox="0 0 238.107098 190.485679" xmlns="http://www.w3.org/2000/svg" version="1.1">
 <metadata>
  <rdf:RDF xmlns:dc="http://purl.org/dc/elements/1.1/" xmlns:cc="http://creativecommons.org/ns#" xmlns:rdf="http://www.w3.org/1999/02/22-rdf-syntax-ns#">
   <cc:Work>
    <dc:type rdf:resource="http://purl.org/dc/dcmitype/StillImage"/>
    <dc:date>1980-01-01T00:00:00+00:00</dc:date>
    <dc:format>image/svg+xml</dc:format>
    <dc:creator>
     <cc:Agent>
      <dc:title>Matplotlib v3.5.1, https://matplotlib.org/</dc:title>
     </cc:Agent>
    </dc:creator>
   </cc:Work>
  </rdf:RDF>
 </metadata>
 <defs>
  <style type="text/css">*{stroke-linejoin: round; stroke-linecap: butt}</style>
 </defs>
 <g id="figure_1">
  <g id="patch_1">
   <path d="M 0 190.485679 
L 238.107098 190.485679 
L 238.107098 0 
L 0 0 
z
" style="fill: #ffffff"/>
  </g>
  <g id="axes_1">
   <g id="patch_2">
    <path d="M 29.675 150.685679 
L 227.307098 150.685679 
L 227.307098 19.8 
L 29.675 19.8 
z
" style="fill: #e5e5e5"/>
   </g>
   <g id="matplotlib.axis_1">
    <g id="xtick_1">
     <g id="line2d_1">
      <path d="M 38.658277 150.685679 
L 38.658277 19.8 
" clip-path="url(#p2c47296b69)" style="fill: none; stroke: #ffffff; stroke-width: 0.8; stroke-linecap: square"/>
     </g>
     <g id="line2d_2">
      <defs>
       <path id="m7d8ad80ff2" d="M 0 0 
L 0 3.5 
" style="stroke: #555555; stroke-width: 0.8"/>
      </defs>
      <g>
       <use xlink:href="#m7d8ad80ff2" x="38.658277" y="150.685679" style="fill: #555555; stroke: #555555; stroke-width: 0.8"/>
      </g>
     </g>
     <g id="text_1">
      <!-- 0 -->
      <g style="fill: #555555" transform="translate(36.113277 163.764429)scale(0.08 -0.08)">
       <defs>
        <path id="DejaVuSerif-30" d="M 2034 219 
Q 2513 219 2750 744 
Q 2988 1269 2988 2328 
Q 2988 3391 2750 3916 
Q 2513 4441 2034 4441 
Q 1556 4441 1318 3916 
Q 1081 3391 1081 2328 
Q 1081 1269 1318 744 
Q 1556 219 2034 219 
z
M 2034 -91 
Q 1275 -91 848 546 
Q 422 1184 422 2328 
Q 422 3475 848 4112 
Q 1275 4750 2034 4750 
Q 2797 4750 3222 4112 
Q 3647 3475 3647 2328 
Q 3647 1184 3222 546 
Q 2797 -91 2034 -91 
z
" transform="scale(0.015625)"/>
       </defs>
       <use xlink:href="#DejaVuSerif-30"/>
      </g>
     </g>
    </g>
    <g id="xtick_2">
     <g id="line2d_3">
      <path d="M 74.591386 150.685679 
L 74.591386 19.8 
" clip-path="url(#p2c47296b69)" style="fill: none; stroke: #ffffff; stroke-width: 0.8; stroke-linecap: square"/>
     </g>
     <g id="line2d_4">
      <g>
       <use xlink:href="#m7d8ad80ff2" x="74.591386" y="150.685679" style="fill: #555555; stroke: #555555; stroke-width: 0.8"/>
      </g>
     </g>
     <g id="text_2">
      <!-- 10 -->
      <g style="fill: #555555" transform="translate(69.501386 163.764429)scale(0.08 -0.08)">
       <defs>
        <path id="DejaVuSerif-31" d="M 909 0 
L 909 331 
L 1722 331 
L 1722 4213 
L 781 3603 
L 781 4013 
L 1919 4750 
L 2350 4750 
L 2350 331 
L 3163 331 
L 3163 0 
L 909 0 
z
" transform="scale(0.015625)"/>
       </defs>
       <use xlink:href="#DejaVuSerif-31"/>
       <use xlink:href="#DejaVuSerif-30" x="63.623047"/>
      </g>
     </g>
    </g>
    <g id="xtick_3">
     <g id="line2d_5">
      <path d="M 110.524495 150.685679 
L 110.524495 19.8 
" clip-path="url(#p2c47296b69)" style="fill: none; stroke: #ffffff; stroke-width: 0.8; stroke-linecap: square"/>
     </g>
     <g id="line2d_6">
      <g>
       <use xlink:href="#m7d8ad80ff2" x="110.524495" y="150.685679" style="fill: #555555; stroke: #555555; stroke-width: 0.8"/>
      </g>
     </g>
     <g id="text_3">
      <!-- 20 -->
      <g style="fill: #555555" transform="translate(105.434495 163.764429)scale(0.08 -0.08)">
       <defs>
        <path id="DejaVuSerif-32" d="M 819 3553 
L 469 3553 
L 469 4384 
Q 803 4563 1142 4656 
Q 1481 4750 1806 4750 
Q 2534 4750 2956 4397 
Q 3378 4044 3378 3438 
Q 3378 2753 2422 1800 
Q 2347 1728 2309 1691 
L 1131 513 
L 3078 513 
L 3078 1088 
L 3444 1088 
L 3444 0 
L 434 0 
L 434 341 
L 1850 1753 
Q 2319 2222 2519 2614 
Q 2719 3006 2719 3438 
Q 2719 3909 2473 4175 
Q 2228 4441 1797 4441 
Q 1350 4441 1106 4219 
Q 863 3997 819 3553 
z
" transform="scale(0.015625)"/>
       </defs>
       <use xlink:href="#DejaVuSerif-32"/>
       <use xlink:href="#DejaVuSerif-30" x="63.623047"/>
      </g>
     </g>
    </g>
    <g id="xtick_4">
     <g id="line2d_7">
      <path d="M 146.457604 150.685679 
L 146.457604 19.8 
" clip-path="url(#p2c47296b69)" style="fill: none; stroke: #ffffff; stroke-width: 0.8; stroke-linecap: square"/>
     </g>
     <g id="line2d_8">
      <g>
       <use xlink:href="#m7d8ad80ff2" x="146.457604" y="150.685679" style="fill: #555555; stroke: #555555; stroke-width: 0.8"/>
      </g>
     </g>
     <g id="text_4">
      <!-- 30 -->
      <g style="fill: #555555" transform="translate(141.367604 163.764429)scale(0.08 -0.08)">
       <defs>
        <path id="DejaVuSerif-33" d="M 622 4469 
Q 988 4606 1323 4678 
Q 1659 4750 1953 4750 
Q 2638 4750 3022 4454 
Q 3406 4159 3406 3634 
Q 3406 3213 3140 2930 
Q 2875 2647 2388 2547 
Q 2963 2466 3280 2130 
Q 3597 1794 3597 1259 
Q 3597 606 3158 257 
Q 2719 -91 1894 -91 
Q 1528 -91 1179 -12 
Q 831 66 488 225 
L 488 1131 
L 838 1131 
Q 869 681 1141 450 
Q 1413 219 1906 219 
Q 2384 219 2661 495 
Q 2938 772 2938 1253 
Q 2938 1803 2653 2086 
Q 2369 2369 1819 2369 
L 1522 2369 
L 1522 2688 
L 1678 2688 
Q 2225 2688 2498 2914 
Q 2772 3141 2772 3597 
Q 2772 4006 2547 4223 
Q 2322 4441 1900 4441 
Q 1478 4441 1245 4241 
Q 1013 4041 972 3647 
L 622 3647 
L 622 4469 
z
" transform="scale(0.015625)"/>
       </defs>
       <use xlink:href="#DejaVuSerif-33"/>
       <use xlink:href="#DejaVuSerif-30" x="63.623047"/>
      </g>
     </g>
    </g>
    <g id="xtick_5">
     <g id="line2d_9">
      <path d="M 182.390712 150.685679 
L 182.390712 19.8 
" clip-path="url(#p2c47296b69)" style="fill: none; stroke: #ffffff; stroke-width: 0.8; stroke-linecap: square"/>
     </g>
     <g id="line2d_10">
      <g>
       <use xlink:href="#m7d8ad80ff2" x="182.390712" y="150.685679" style="fill: #555555; stroke: #555555; stroke-width: 0.8"/>
      </g>
     </g>
     <g id="text_5">
      <!-- 40 -->
      <g style="fill: #555555" transform="translate(177.300712 163.764429)scale(0.08 -0.08)">
       <defs>
        <path id="DejaVuSerif-34" d="M 2234 1581 
L 2234 4063 
L 641 1581 
L 2234 1581 
z
M 3609 0 
L 1484 0 
L 1484 331 
L 2234 331 
L 2234 1247 
L 197 1247 
L 197 1588 
L 2241 4750 
L 2859 4750 
L 2859 1581 
L 3750 1581 
L 3750 1247 
L 2859 1247 
L 2859 331 
L 3609 331 
L 3609 0 
z
" transform="scale(0.015625)"/>
       </defs>
       <use xlink:href="#DejaVuSerif-34"/>
       <use xlink:href="#DejaVuSerif-30" x="63.623047"/>
      </g>
     </g>
    </g>
    <g id="xtick_6">
     <g id="line2d_11">
      <path d="M 218.323821 150.685679 
L 218.323821 19.8 
" clip-path="url(#p2c47296b69)" style="fill: none; stroke: #ffffff; stroke-width: 0.8; stroke-linecap: square"/>
     </g>
     <g id="line2d_12">
      <g>
       <use xlink:href="#m7d8ad80ff2" x="218.323821" y="150.685679" style="fill: #555555; stroke: #555555; stroke-width: 0.8"/>
      </g>
     </g>
     <g id="text_6">
      <!-- 50 -->
      <g style="fill: #555555" transform="translate(213.233821 163.764429)scale(0.08 -0.08)">
       <defs>
        <path id="DejaVuSerif-35" d="M 3219 4666 
L 3219 4153 
L 1081 4153 
L 1081 2816 
Q 1244 2928 1461 2984 
Q 1678 3041 1947 3041 
Q 2703 3041 3140 2622 
Q 3578 2203 3578 1478 
Q 3578 738 3136 323 
Q 2694 -91 1894 -91 
Q 1572 -91 1234 -12 
Q 897 66 544 225 
L 544 1131 
L 897 1131 
Q 925 688 1179 453 
Q 1434 219 1894 219 
Q 2388 219 2653 544 
Q 2919 869 2919 1478 
Q 2919 2084 2655 2407 
Q 2391 2731 1894 2731 
Q 1613 2731 1398 2631 
Q 1184 2531 1019 2322 
L 750 2322 
L 750 4666 
L 3219 4666 
z
" transform="scale(0.015625)"/>
       </defs>
       <use xlink:href="#DejaVuSerif-35"/>
       <use xlink:href="#DejaVuSerif-30" x="63.623047"/>
      </g>
     </g>
    </g>
    <g id="text_7">
     <!-- $τ$ -->
     <g style="fill: #555555" transform="translate(125.441049 177.026616)scale(0.1 -0.1)">
      <defs>
       <path id="DejaVuSans-Oblique-3c4" d="M 2103 638 
Q 2188 488 2525 488 
L 2800 488 
L 2706 0 
L 2363 0 
Q 1800 0 1600 300 
Q 1403 606 1534 1269 
L 1856 2925 
L 541 2925 
L 653 3500 
L 3881 3500 
L 3769 2925 
L 2444 2925 
L 2113 1234 
Q 2025 781 2103 638 
z
" transform="scale(0.015625)"/>
      </defs>
      <use xlink:href="#DejaVuSans-Oblique-3c4" transform="translate(0 0.3125)"/>
     </g>
    </g>
   </g>
   <g id="matplotlib.axis_2">
    <g id="ytick_1">
     <g id="line2d_13">
      <path d="M 29.675 134.703252 
L 227.307098 134.703252 
" clip-path="url(#p2c47296b69)" style="fill: none; stroke: #ffffff; stroke-width: 0.8; stroke-linecap: square"/>
     </g>
     <g id="line2d_14">
      <defs>
       <path id="m1cc879101e" d="M 0 0 
L -3.5 0 
" style="stroke: #555555; stroke-width: 0.8"/>
      </defs>
      <g>
       <use xlink:href="#m1cc879101e" x="29.675" y="134.703252" style="fill: #555555; stroke: #555555; stroke-width: 0.8"/>
      </g>
     </g>
     <g id="text_8">
      <!-- −2 -->
      <g style="fill: #555555" transform="translate(10.88125 137.742627)scale(0.08 -0.08)">
       <defs>
        <path id="DejaVuSerif-2212" d="M 678 2259 
L 4684 2259 
L 4684 1753 
L 678 1753 
L 678 2259 
z
" transform="scale(0.015625)"/>
       </defs>
       <use xlink:href="#DejaVuSerif-2212"/>
       <use xlink:href="#DejaVuSerif-32" x="83.789062"/>
      </g>
     </g>
    </g>
    <g id="ytick_2">
     <g id="line2d_15">
      <path d="M 29.675 105.044297 
L 227.307098 105.044297 
" clip-path="url(#p2c47296b69)" style="fill: none; stroke: #ffffff; stroke-width: 0.8; stroke-linecap: square"/>
     </g>
     <g id="line2d_16">
      <g>
       <use xlink:href="#m1cc879101e" x="29.675" y="105.044297" style="fill: #555555; stroke: #555555; stroke-width: 0.8"/>
      </g>
     </g>
     <g id="text_9">
      <!-- −1 -->
      <g style="fill: #555555" transform="translate(10.88125 108.083672)scale(0.08 -0.08)">
       <use xlink:href="#DejaVuSerif-2212"/>
       <use xlink:href="#DejaVuSerif-31" x="83.789062"/>
      </g>
     </g>
    </g>
    <g id="ytick_3">
     <g id="line2d_17">
      <path d="M 29.675 75.385342 
L 227.307098 75.385342 
" clip-path="url(#p2c47296b69)" style="fill: none; stroke: #ffffff; stroke-width: 0.8; stroke-linecap: square"/>
     </g>
     <g id="line2d_18">
      <g>
       <use xlink:href="#m1cc879101e" x="29.675" y="75.385342" style="fill: #555555; stroke: #555555; stroke-width: 0.8"/>
      </g>
     </g>
     <g id="text_10">
      <!-- 0 -->
      <g style="fill: #555555" transform="translate(17.585 78.424717)scale(0.08 -0.08)">
       <use xlink:href="#DejaVuSerif-30"/>
      </g>
     </g>
    </g>
    <g id="ytick_4">
     <g id="line2d_19">
      <path d="M 29.675 45.726387 
L 227.307098 45.726387 
" clip-path="url(#p2c47296b69)" style="fill: none; stroke: #ffffff; stroke-width: 0.8; stroke-linecap: square"/>
     </g>
     <g id="line2d_20">
      <g>
       <use xlink:href="#m1cc879101e" x="29.675" y="45.726387" style="fill: #555555; stroke: #555555; stroke-width: 0.8"/>
      </g>
     </g>
     <g id="text_11">
      <!-- 1 -->
      <g style="fill: #555555" transform="translate(17.585 48.765762)scale(0.08 -0.08)">
       <use xlink:href="#DejaVuSerif-31"/>
      </g>
     </g>
    </g>
    <g id="text_12">
     <!-- 1e−5 -->
     <g style="fill: #555555" transform="translate(29.675 16.8)scale(0.08 -0.08)">
      <defs>
       <path id="DejaVuSerif-65" d="M 3469 1600 
L 991 1600 
L 991 1575 
Q 991 903 1244 561 
Q 1497 219 1991 219 
Q 2369 219 2611 417 
Q 2853 616 2950 1006 
L 3413 1006 
Q 3275 459 2904 184 
Q 2534 -91 1931 -91 
Q 1203 -91 761 389 
Q 319 869 319 1663 
Q 319 2450 753 2931 
Q 1188 3413 1894 3413 
Q 2647 3413 3050 2948 
Q 3453 2484 3469 1600 
z
M 2791 1931 
Q 2772 2513 2545 2808 
Q 2319 3103 1894 3103 
Q 1497 3103 1269 2806 
Q 1041 2509 991 1931 
L 2791 1931 
z
" transform="scale(0.015625)"/>
      </defs>
      <use xlink:href="#DejaVuSerif-31"/>
      <use xlink:href="#DejaVuSerif-65" x="63.623047"/>
      <use xlink:href="#DejaVuSerif-2212" x="122.802734"/>
      <use xlink:href="#DejaVuSerif-35" x="206.591797"/>
     </g>
    </g>
   </g>
   <g id="line2d_21">
    <path d="M 38.658277 25.749349 
L 38.748132 89.333307 
L 38.79306 82.166377 
L 38.882915 73.160607 
L 38.927843 74.141346 
L 39.017698 76.788605 
L 39.062626 75.555231 
L 39.287264 60.306393 
L 39.332191 61.415338 
L 39.511902 80.416647 
L 39.691612 92.597575 
L 39.781468 89.621145 
L 40.185816 64.721586 
L 40.230744 64.91312 
L 40.455382 70.06852 
L 40.590165 71.759984 
L 40.635092 71.752026 
L 40.769875 70.564046 
L 40.949586 69.138724 
L 41.039441 69.696126 
L 41.219151 74.073635 
L 41.713355 88.269018 
L 41.758283 88.295657 
L 41.848138 87.559273 
L 42.072776 82.34517 
L 42.56698 70.551788 
L 42.791618 69.418544 
L 42.881473 69.525668 
L 43.420605 70.789688 
L 43.600315 70.507379 
L 43.914808 69.954319 
L 44.004664 70.006769 
L 44.139447 70.392964 
L 44.364085 71.958211 
L 44.768433 77.042514 
L 45.352492 83.82538 
L 45.57713 84.677222 
L 45.666986 84.676219 
L 45.801768 84.328762 
L 46.026407 82.957065 
L 46.52061 78.000582 
L 47.104669 72.730519 
L 47.46409 71.080087 
L 47.733656 70.607811 
L 47.958294 70.559419 
L 48.317715 70.795699 
L 49.036557 71.263423 
L 49.440905 71.579128 
L 49.710471 72.09661 
L 50.024965 73.286077 
L 50.384385 75.702917 
L 50.833662 80.553568 
L 51.462648 90.35148 
L 52.900332 113.952692 
L 53.349608 117.805049 
L 53.664102 118.883713 
L 53.798884 118.921158 
L 53.933667 118.705286 
L 54.158305 117.796382 
L 54.472799 115.437011 
L 54.922075 110.15048 
L 55.595989 99.157858 
L 58.111936 55.275111 
L 58.830778 47.397753 
L 59.459764 42.73638 
L 59.998896 40.282287 
L 60.403244 39.287622 
L 60.717738 38.969103 
L 60.987303 38.987339 
L 61.256869 39.254168 
L 61.61629 39.964259 
L 62.110494 41.528989 
L 62.73948 44.352908 
L 63.593105 49.337305 
L 64.851078 58.212374 
L 68.40036 83.981058 
L 69.613406 90.876987 
L 70.646741 95.558666 
L 71.545294 98.689627 
L 72.353991 100.762055 
L 73.072833 102.029713 
L 73.701819 102.71575 
L 74.240951 103.006097 
L 74.735154 103.044402 
L 75.274286 102.852768 
L 75.858345 102.389629 
L 76.532259 101.553717 
L 77.340956 100.171721 
L 78.329364 98.005342 
L 79.542409 94.778803 
L 81.204731 89.662401 
L 88.258367 67.131657 
L 89.920689 62.942543 
L 91.403301 59.786614 
L 92.751129 57.417603 
L 94.009102 55.640845 
L 95.177221 54.361385 
L 96.300411 53.45753 
L 97.333746 52.897159 
L 98.367081 52.58385 
L 99.400417 52.503511 
L 100.478679 52.651543 
L 101.60187 53.038104 
L 102.814916 53.697666 
L 104.162744 54.693131 
L 105.690283 56.110351 
L 107.44246 58.049101 
L 109.598986 60.788345 
L 112.429426 64.773635 
L 122.852633 79.795452 
L 125.593218 83.182968 
L 128.064237 85.898346 
L 130.400473 88.14134 
L 132.601926 89.952865 
L 134.713524 91.410018 
L 136.780195 92.570544 
L 138.801937 93.455378 
L 140.82368 94.098945 
L 142.845423 94.509782 
L 144.912094 94.699815 
L 147.023692 94.666517 
L 149.180217 94.409744 
L 151.426598 93.91973 
L 153.807762 93.172414 
L 156.368636 92.131461 
L 159.109221 90.774862 
L 162.119371 89.033067 
L 165.488943 86.819132 
L 169.352718 84.003214 
L 173.935335 80.375621 
L 179.955635 75.305454 
L 201.835385 56.620412 
L 207.900614 51.877387 
L 213.471638 47.799728 
L 218.323821 44.486673 
L 218.323821 44.486673 
" clip-path="url(#p2c47296b69)" style="fill: none; stroke: #e24a33; stroke-linecap: square"/>
   </g>
   <g id="line2d_22">
    <path d="M 38.658277 144.73633 
L 38.748132 43.3314 
L 38.79306 54.903844 
L 38.927843 100.277627 
L 38.972771 99.900815 
L 39.242336 58.124311 
L 39.332191 62.112844 
L 39.601757 77.402659 
L 39.826395 74.556423 
L 39.871323 75.131241 
L 40.051033 82.394535 
L 40.230744 88.395424 
L 40.275671 88.388848 
L 40.365527 86.252131 
L 40.904658 62.476608 
L 40.949586 62.782446 
L 41.129296 67.019373 
L 41.488717 75.65231 
L 41.6235 76.311001 
L 41.668428 76.30527 
L 41.893066 76.012529 
L 41.937993 76.094058 
L 42.072776 76.908581 
L 42.342342 80.766805 
L 42.701763 85.182837 
L 42.74669 85.28323 
L 42.791618 85.252294 
L 42.926401 84.374467 
L 43.151039 80.691854 
L 43.869881 67.074115 
L 44.094519 66.231407 
L 44.184374 66.390551 
L 44.364085 67.330451 
L 45.532203 75.094928 
L 46.206117 77.629403 
L 47.329307 82.751128 
L 47.46409 82.749359 
L 47.643801 82.390909 
L 47.913366 81.101202 
L 48.317715 77.808768 
L 49.306123 69.207389 
L 49.620616 68.192112 
L 49.755399 68.147513 
L 49.890182 68.340568 
L 50.11482 69.168264 
L 50.474241 71.628844 
L 51.148155 78.388031 
L 51.911924 85.388977 
L 52.316273 87.492395 
L 52.630766 88.162213 
L 52.810477 88.177043 
L 52.990187 87.947892 
L 53.259753 87.207995 
L 53.709029 85.206987 
L 55.101785 78.495259 
L 55.506134 77.656284 
L 55.7757 77.506518 
L 56.000338 77.628908 
L 56.269903 78.05371 
L 56.674252 79.186508 
L 57.258311 81.591813 
L 59.369909 90.94925 
L 59.953968 92.334151 
L 60.403244 92.886194 
L 60.762665 93.011777 
L 61.077159 92.902827 
L 61.481507 92.484508 
L 61.975711 91.592675 
L 62.604698 89.948682 
L 63.458322 87.029772 
L 64.806151 81.491464 
L 67.501808 70.318155 
L 68.714854 66.277839 
L 69.748189 63.572387 
L 70.646741 61.809516 
L 71.455438 60.690384 
L 72.17428 60.052979 
L 72.848194 59.742941 
L 73.477181 59.686682 
L 74.151095 59.854964 
L 74.869937 60.268627 
L 75.723562 61.03311 
L 76.756897 62.286896 
L 78.059798 64.254144 
L 79.90183 67.484856 
L 84.798941 76.253388 
L 86.596045 78.935887 
L 88.21344 80.96322 
L 89.696051 82.476499 
L 91.088807 83.595498 
L 92.481563 84.4303 
L 93.829392 84.982559 
L 95.222148 85.3093 
L 96.659832 85.411561 
L 98.187371 85.289717 
L 99.849693 84.926707 
L 101.736653 84.277109 
L 103.983034 83.254039 
L 106.903329 81.658621 
L 119.258424 74.615953 
L 122.493212 73.189208 
L 125.54829 72.081779 
L 128.603368 71.211487 
L 131.703374 70.562896 
L 134.893235 70.125299 
L 138.262806 69.891168 
L 141.857016 69.866316 
L 145.855574 70.066407 
L 150.393263 70.52273 
L 155.874432 71.307928 
L 163.332417 72.620447 
L 187.41362 77.008948 
L 196.08465 78.276193 
L 204.531042 79.285269 
L 213.157145 80.089659 
L 218.323821 80.468978 
L 218.323821 80.468978 
" clip-path="url(#p2c47296b69)" style="fill: none; stroke: #348abd; stroke-linecap: square"/>
   </g>
   <g id="line2d_23">
    <path d="M 38.658277 70.72696 
L 38.703205 77.27864 
L 38.748132 74.134569 
L 38.79306 71.596443 
L 38.837988 72.398742 
L 39.017698 82.510744 
L 39.062626 80.884695 
L 39.287264 67.00902 
L 39.332191 67.406733 
L 39.646685 80.888392 
L 39.73654 79.532188 
L 40.006106 72.30074 
L 40.051033 72.436321 
L 40.185816 75.15796 
L 40.455382 79.737568 
L 40.545237 78.72694 
L 40.949586 70.801533 
L 40.994513 70.813653 
L 41.129296 72.140278 
L 41.533645 77.449787 
L 41.578572 77.438189 
L 41.713355 76.614467 
L 42.162631 72.744886 
L 42.252487 72.891668 
L 42.432197 74.179193 
L 42.926401 78.153143 
L 43.016256 78.188122 
L 43.151039 77.792389 
L 43.51046 75.431644 
L 43.824953 74.050173 
L 43.959736 73.991947 
L 44.094519 74.230502 
L 44.409012 75.443728 
L 44.813361 76.71194 
L 44.993071 76.778042 
L 45.172782 76.516729 
L 45.487275 75.52667 
L 46.071334 73.711311 
L 46.3409 73.474835 
L 46.52061 73.56633 
L 46.790176 73.994153 
L 47.913366 76.183053 
L 48.22786 76.2736 
L 48.542353 76.128439 
L 49.216267 75.468969 
L 49.800326 75.041401 
L 50.249603 74.983825 
L 50.743806 75.177549 
L 51.687286 75.884419 
L 52.406128 76.28686 
L 52.94526 76.355425 
L 53.484391 76.198908 
L 54.113378 75.772316 
L 55.191641 74.711403 
L 56.314831 73.702761 
L 57.033673 73.341446 
L 57.66266 73.269479 
L 58.291646 73.427988 
L 59.010488 73.856689 
L 59.953968 74.705128 
L 62.784408 77.434639 
L 63.727888 77.948257 
L 64.581513 78.161465 
L 65.435137 78.147794 
L 66.423545 77.894409 
L 67.681518 77.316276 
L 72.084425 75.076072 
L 73.477181 74.727983 
L 74.869937 74.606472 
L 76.442404 74.695175 
L 78.59893 75.061184 
L 83.361257 75.926015 
L 85.56271 76.05853 
L 87.809091 75.968698 
L 90.414893 75.633822 
L 94.99751 74.770168 
L 98.996068 74.118992 
L 102.006218 73.854655 
L 104.926514 73.824678 
L 107.981592 74.019632 
L 111.530873 74.476172 
L 116.87726 75.418697 
L 124.065679 76.647631 
L 128.333803 77.143184 
L 132.287433 77.381167 
L 136.285991 77.397193 
L 140.509187 77.188746 
L 145.316442 76.723083 
L 151.696164 75.863813 
L 165.983146 73.874641 
L 171.554171 73.369014 
L 176.586064 73.133056 
L 181.393319 73.129666 
L 186.110719 73.348662 
L 190.828119 73.789454 
L 195.680302 74.467994 
L 200.712195 75.399314 
L 206.013654 76.6101 
L 211.719461 78.146058 
L 217.9644 80.061482 
L 218.323821 80.178188 
L 218.323821 80.178188 
" clip-path="url(#p2c47296b69)" style="fill: none; stroke: #988ed5; stroke-linecap: square"/>
   </g>
   <g id="line2d_24">
    <path d="M 38.658277 108.297643 
L 38.748132 61.683508 
L 38.79306 66.584133 
L 38.927843 83.973408 
L 38.972771 83.02337 
L 39.197409 71.171923 
L 39.466974 78.937181 
L 39.511902 78.104351 
L 39.781468 69.09604 
L 39.826395 69.194078 
L 39.961178 72.923784 
L 40.230744 80.605885 
L 40.275671 80.483616 
L 40.410454 78.006979 
L 40.68002 72.775115 
L 40.724948 72.733394 
L 40.814803 73.42948 
L 41.219151 78.714264 
L 41.264079 78.608128 
L 41.398862 77.277752 
L 41.848138 71.768265 
L 41.893066 71.784621 
L 42.027849 72.532132 
L 42.611908 77.144564 
L 42.74669 76.743868 
L 43.375677 73.479915 
L 43.420605 73.505067 
L 43.555388 73.850372 
L 43.869881 75.646061 
L 44.274229 77.593125 
L 44.45394 77.749564 
L 44.588723 77.565727 
L 44.858288 76.660463 
L 45.442348 74.580268 
L 45.666986 74.358305 
L 45.846696 74.450359 
L 46.116262 74.908648 
L 46.835104 76.279085 
L 47.104669 76.366818 
L 47.374235 76.167721 
L 47.778584 75.504476 
L 48.587281 74.151413 
L 48.946702 73.937038 
L 49.261195 73.990573 
L 49.665544 74.322858 
L 50.609024 75.541052 
L 51.282938 76.183774 
L 51.777142 76.380558 
L 52.316273 76.344192 
L 52.990187 76.045558 
L 54.787292 75.136393 
L 55.506134 75.073276 
L 56.269903 75.233021 
L 57.438021 75.744675 
L 58.78585 76.275871 
L 59.639475 76.367152 
L 60.403244 76.230805 
L 61.256869 75.842984 
L 62.335132 75.082471 
L 65.524993 72.649531 
L 66.5134 72.265182 
L 67.411953 72.156455 
L 68.310505 72.278351 
L 69.253985 72.632527 
L 70.377175 73.29994 
L 71.949642 74.52333 
L 75.498924 77.364643 
L 76.936608 78.187437 
L 78.239509 78.678275 
L 79.497482 78.911619 
L 80.755455 78.919426 
L 82.103284 78.706043 
L 83.67575 78.222481 
L 85.697493 77.346378 
L 93.290261 73.815332 
L 95.446786 73.192788 
L 97.513457 72.827313 
L 99.625055 72.67934 
L 101.916363 72.746776 
L 104.522165 73.054626 
L 107.801881 73.679419 
L 121.280167 76.499539 
L 125.099014 76.925186 
L 128.962789 77.13026 
L 133.141058 77.123541 
L 137.948313 76.884618 
L 144.328035 76.326969 
L 162.164299 74.65384 
L 168.993297 74.308259 
L 175.642584 74.196213 
L 182.51651 74.304993 
L 190.019422 74.650093 
L 198.73538 75.280877 
L 210.191922 76.348755 
L 218.323821 77.184333 
L 218.323821 77.184333 
" clip-path="url(#p2c47296b69)" style="fill: none; stroke: #777777; stroke-linecap: square"/>
   </g>
   <g id="patch_3">
    <path d="M 29.675 150.685679 
L 29.675 19.8 
" style="fill: none; stroke: #ffffff; stroke-linejoin: miter; stroke-linecap: square"/>
   </g>
   <g id="patch_4">
    <path d="M 227.307098 150.685679 
L 227.307098 19.8 
" style="fill: none; stroke: #ffffff; stroke-linejoin: miter; stroke-linecap: square"/>
   </g>
   <g id="patch_5">
    <path d="M 29.675 150.685679 
L 227.307098 150.685679 
" style="fill: none; stroke: #ffffff; stroke-linejoin: miter; stroke-linecap: square"/>
   </g>
   <g id="patch_6">
    <path d="M 29.675 19.8 
L 227.307098 19.8 
" style="fill: none; stroke: #ffffff; stroke-linejoin: miter; stroke-linecap: square"/>
   </g>
   <g id="legend_1">
    <g id="patch_7">
     <path d="M 142.427098 146.685679 
L 221.707098 146.685679 
Q 223.307098 146.685679 223.307098 145.085679 
L 223.307098 98.528179 
Q 223.307098 96.928179 221.707098 96.928179 
L 142.427098 96.928179 
Q 140.827098 96.928179 140.827098 98.528179 
L 140.827098 145.085679 
Q 140.827098 146.685679 142.427098 146.685679 
z
" style="fill: #e5e5e5; opacity: 0.8; stroke: #cccccc; stroke-width: 0.5; stroke-linejoin: miter"/>
    </g>
    <g id="line2d_25">
     <path d="M 144.027098 103.408179 
L 152.027098 103.408179 
L 160.027098 103.408179 
" style="fill: none; stroke: #e24a33; stroke-linecap: square"/>
    </g>
    <g id="text_13">
     <!-- $α$, real part -->
     <g transform="translate(166.427098 106.208179)scale(0.08 -0.08)">
      <defs>
       <path id="DejaVuSans-Oblique-3b1" d="M 2619 1628 
L 2622 2350 
Q 2625 3088 2069 3091 
Q 1653 3094 1394 2747 
Q 1069 2319 959 1747 
Q 825 1059 994 731 
Q 1169 397 1547 397 
Q 1966 397 2319 1063 
L 2619 1628 
z
M 2166 3578 
Q 3141 3594 3128 2584 
Q 3128 2584 3616 3500 
L 4128 3500 
L 3119 1603 
L 3109 919 
Q 3109 766 3194 638 
Q 3291 488 3391 488 
L 3669 488 
L 3575 0 
L 3228 0 
Q 2934 0 2722 263 
Q 2622 394 2619 669 
Q 2416 334 2066 50 
Q 1900 -81 1453 -78 
Q 722 -72 456 397 
Q 184 884 353 1747 
Q 534 2675 1009 3097 
Q 1544 3569 2166 3578 
z
" transform="scale(0.015625)"/>
       <path id="DejaVuSerif-2c" d="M 231 -622 
Q 525 -406 662 -114 
Q 800 178 800 594 
L 800 709 
L 1416 709 
Q 1391 175 1164 -208 
Q 938 -591 481 -872 
L 231 -622 
z
" transform="scale(0.015625)"/>
       <path id="DejaVuSerif-20" transform="scale(0.015625)"/>
       <path id="DejaVuSerif-72" d="M 3059 3328 
L 3059 2497 
L 2728 2497 
Q 2713 2744 2591 2866 
Q 2469 2988 2234 2988 
Q 1809 2988 1582 2694 
Q 1356 2400 1356 1850 
L 1356 331 
L 2022 331 
L 2022 0 
L 263 0 
L 263 331 
L 781 331 
L 781 2994 
L 231 2994 
L 231 3322 
L 1356 3322 
L 1356 2731 
Q 1525 3078 1790 3245 
Q 2056 3413 2438 3413 
Q 2578 3413 2733 3391 
Q 2888 3369 3059 3328 
z
" transform="scale(0.015625)"/>
       <path id="DejaVuSerif-61" d="M 2547 1044 
L 2547 1747 
L 1806 1747 
Q 1378 1747 1168 1562 
Q 959 1378 959 997 
Q 959 650 1171 447 
Q 1384 244 1747 244 
Q 2106 244 2326 466 
Q 2547 688 2547 1044 
z
M 3122 2075 
L 3122 331 
L 3634 331 
L 3634 0 
L 2547 0 
L 2547 359 
Q 2356 128 2106 18 
Q 1856 -91 1522 -91 
Q 969 -91 644 203 
Q 319 497 319 997 
Q 319 1513 691 1797 
Q 1063 2081 1741 2081 
L 2547 2081 
L 2547 2309 
Q 2547 2688 2317 2895 
Q 2088 3103 1672 3103 
Q 1328 3103 1125 2947 
Q 922 2791 872 2484 
L 575 2484 
L 575 3156 
Q 875 3284 1158 3348 
Q 1441 3413 1709 3413 
Q 2400 3413 2761 3070 
Q 3122 2728 3122 2075 
z
" transform="scale(0.015625)"/>
       <path id="DejaVuSerif-6c" d="M 1313 331 
L 1856 331 
L 1856 0 
L 184 0 
L 184 331 
L 738 331 
L 738 4531 
L 184 4531 
L 184 4863 
L 1313 4863 
L 1313 331 
z
" transform="scale(0.015625)"/>
       <path id="DejaVuSerif-70" d="M 1313 1825 
L 1313 1497 
Q 1313 897 1542 583 
Q 1772 269 2209 269 
Q 2650 269 2876 622 
Q 3103 975 3103 1663 
Q 3103 2353 2876 2703 
Q 2650 3053 2209 3053 
Q 1772 3053 1542 2737 
Q 1313 2422 1313 1825 
z
M 738 2988 
L 184 2988 
L 184 3322 
L 1313 3322 
L 1313 2803 
Q 1481 3116 1742 3264 
Q 2003 3413 2388 3413 
Q 3000 3413 3387 2928 
Q 3775 2444 3775 1663 
Q 3775 881 3387 395 
Q 3000 -91 2388 -91 
Q 2003 -91 1742 57 
Q 1481 206 1313 519 
L 1313 -997 
L 1856 -997 
L 1856 -1331 
L 184 -1331 
L 184 -997 
L 738 -997 
L 738 2988 
z
" transform="scale(0.015625)"/>
       <path id="DejaVuSerif-74" d="M 691 2988 
L 184 2988 
L 184 3322 
L 691 3322 
L 691 4353 
L 1269 4353 
L 1269 3322 
L 2350 3322 
L 2350 2988 
L 1269 2988 
L 1269 878 
Q 1269 456 1350 337 
Q 1431 219 1650 219 
Q 1875 219 1978 351 
Q 2081 484 2088 781 
L 2522 781 
Q 2497 328 2275 118 
Q 2053 -91 1600 -91 
Q 1103 -91 897 129 
Q 691 350 691 878 
L 691 2988 
z
" transform="scale(0.015625)"/>
      </defs>
      <use xlink:href="#DejaVuSans-Oblique-3b1" transform="translate(0 0.015625)"/>
      <use xlink:href="#DejaVuSerif-2c" transform="translate(65.917969 0.015625)"/>
      <use xlink:href="#DejaVuSerif-20" transform="translate(97.705078 0.015625)"/>
      <use xlink:href="#DejaVuSerif-72" transform="translate(129.492188 0.015625)"/>
      <use xlink:href="#DejaVuSerif-65" transform="translate(177.294922 0.015625)"/>
      <use xlink:href="#DejaVuSerif-61" transform="translate(236.474609 0.015625)"/>
      <use xlink:href="#DejaVuSerif-6c" transform="translate(296.09375 0.015625)"/>
      <use xlink:href="#DejaVuSerif-20" transform="translate(328.076172 0.015625)"/>
      <use xlink:href="#DejaVuSerif-70" transform="translate(359.863281 0.015625)"/>
      <use xlink:href="#DejaVuSerif-61" transform="translate(423.876953 0.015625)"/>
      <use xlink:href="#DejaVuSerif-72" transform="translate(483.496094 0.015625)"/>
      <use xlink:href="#DejaVuSerif-74" transform="translate(531.298828 0.015625)"/>
     </g>
    </g>
    <g id="line2d_26">
     <path d="M 144.027098 115.166929 
L 152.027098 115.166929 
L 160.027098 115.166929 
" style="fill: none; stroke: #348abd; stroke-linecap: square"/>
    </g>
    <g id="text_14">
     <!-- $α$, imag part -->
     <g transform="translate(166.427098 117.966929)scale(0.08 -0.08)">
      <defs>
       <path id="DejaVuSerif-69" d="M 622 4353 
Q 622 4497 726 4603 
Q 831 4709 978 4709 
Q 1122 4709 1226 4603 
Q 1331 4497 1331 4353 
Q 1331 4206 1228 4103 
Q 1125 4000 978 4000 
Q 831 4000 726 4103 
Q 622 4206 622 4353 
z
M 1356 331 
L 1900 331 
L 1900 0 
L 231 0 
L 231 331 
L 781 331 
L 781 2988 
L 231 2988 
L 231 3322 
L 1356 3322 
L 1356 331 
z
" transform="scale(0.015625)"/>
       <path id="DejaVuSerif-6d" d="M 3316 2675 
Q 3481 3041 3739 3227 
Q 3997 3413 4341 3413 
Q 4863 3413 5119 3089 
Q 5375 2766 5375 2113 
L 5375 331 
L 5894 331 
L 5894 0 
L 4300 0 
L 4300 331 
L 4800 331 
L 4800 2047 
Q 4800 2556 4650 2772 
Q 4500 2988 4153 2988 
Q 3769 2988 3567 2697 
Q 3366 2406 3366 1850 
L 3366 331 
L 3866 331 
L 3866 0 
L 2291 0 
L 2291 331 
L 2791 331 
L 2791 2069 
Q 2791 2566 2641 2777 
Q 2491 2988 2144 2988 
Q 1759 2988 1557 2697 
Q 1356 2406 1356 1850 
L 1356 331 
L 1856 331 
L 1856 0 
L 263 0 
L 263 331 
L 781 331 
L 781 2994 
L 231 2994 
L 231 3322 
L 1356 3322 
L 1356 2731 
Q 1516 3063 1762 3238 
Q 2009 3413 2322 3413 
Q 2709 3413 2968 3220 
Q 3228 3028 3316 2675 
z
" transform="scale(0.015625)"/>
       <path id="DejaVuSerif-67" d="M 3359 2988 
L 3359 72 
Q 3359 -644 2965 -1033 
Q 2572 -1422 1844 -1422 
Q 1516 -1422 1216 -1362 
Q 916 -1303 641 -1184 
L 641 -488 
L 941 -488 
Q 997 -813 1206 -963 
Q 1416 -1113 1806 -1113 
Q 2313 -1113 2548 -827 
Q 2784 -541 2784 72 
L 2784 519 
Q 2616 206 2355 57 
Q 2094 -91 1709 -91 
Q 1097 -91 708 395 
Q 319 881 319 1663 
Q 319 2444 706 2928 
Q 1094 3413 1709 3413 
Q 2094 3413 2355 3264 
Q 2616 3116 2784 2803 
L 2784 3322 
L 3909 3322 
L 3909 2988 
L 3359 2988 
z
M 2784 1825 
Q 2784 2422 2554 2737 
Q 2325 3053 1888 3053 
Q 1444 3053 1217 2703 
Q 991 2353 991 1663 
Q 991 975 1217 622 
Q 1444 269 1888 269 
Q 2325 269 2554 583 
Q 2784 897 2784 1497 
L 2784 1825 
z
" transform="scale(0.015625)"/>
      </defs>
      <use xlink:href="#DejaVuSans-Oblique-3b1" transform="translate(0 0.421875)"/>
      <use xlink:href="#DejaVuSerif-2c" transform="translate(65.917969 0.421875)"/>
      <use xlink:href="#DejaVuSerif-20" transform="translate(97.705078 0.421875)"/>
      <use xlink:href="#DejaVuSerif-69" transform="translate(129.492188 0.421875)"/>
      <use xlink:href="#DejaVuSerif-6d" transform="translate(161.474609 0.421875)"/>
      <use xlink:href="#DejaVuSerif-61" transform="translate(256.298828 0.421875)"/>
      <use xlink:href="#DejaVuSerif-67" transform="translate(315.917969 0.421875)"/>
      <use xlink:href="#DejaVuSerif-20" transform="translate(379.931641 0.421875)"/>
      <use xlink:href="#DejaVuSerif-70" transform="translate(411.71875 0.421875)"/>
      <use xlink:href="#DejaVuSerif-61" transform="translate(475.732422 0.421875)"/>
      <use xlink:href="#DejaVuSerif-72" transform="translate(535.351562 0.421875)"/>
      <use xlink:href="#DejaVuSerif-74" transform="translate(583.154297 0.421875)"/>
     </g>
    </g>
    <g id="line2d_27">
     <path d="M 144.027098 127.086929 
L 152.027098 127.086929 
L 160.027098 127.086929 
" style="fill: none; stroke: #988ed5; stroke-linecap: square"/>
    </g>
    <g id="text_15">
     <!-- $α_0$, real part -->
     <g transform="translate(166.427098 129.886929)scale(0.08 -0.08)">
      <defs>
       <path id="DejaVuSans-30" d="M 2034 4250 
Q 1547 4250 1301 3770 
Q 1056 3291 1056 2328 
Q 1056 1369 1301 889 
Q 1547 409 2034 409 
Q 2525 409 2770 889 
Q 3016 1369 3016 2328 
Q 3016 3291 2770 3770 
Q 2525 4250 2034 4250 
z
M 2034 4750 
Q 2819 4750 3233 4129 
Q 3647 3509 3647 2328 
Q 3647 1150 3233 529 
Q 2819 -91 2034 -91 
Q 1250 -91 836 529 
Q 422 1150 422 2328 
Q 422 3509 836 4129 
Q 1250 4750 2034 4750 
z
" transform="scale(0.015625)"/>
      </defs>
      <use xlink:href="#DejaVuSans-Oblique-3b1" transform="translate(0 0.015625)"/>
      <use xlink:href="#DejaVuSans-30" transform="translate(65.917969 -16.390625)scale(0.7)"/>
      <use xlink:href="#DejaVuSerif-2c" transform="translate(113.188477 0.015625)"/>
      <use xlink:href="#DejaVuSerif-20" transform="translate(144.975586 0.015625)"/>
      <use xlink:href="#DejaVuSerif-72" transform="translate(176.762695 0.015625)"/>
      <use xlink:href="#DejaVuSerif-65" transform="translate(224.56543 0.015625)"/>
      <use xlink:href="#DejaVuSerif-61" transform="translate(283.745117 0.015625)"/>
      <use xlink:href="#DejaVuSerif-6c" transform="translate(343.364258 0.015625)"/>
      <use xlink:href="#DejaVuSerif-20" transform="translate(375.34668 0.015625)"/>
      <use xlink:href="#DejaVuSerif-70" transform="translate(407.133789 0.015625)"/>
      <use xlink:href="#DejaVuSerif-61" transform="translate(471.147461 0.015625)"/>
      <use xlink:href="#DejaVuSerif-72" transform="translate(530.766602 0.015625)"/>
      <use xlink:href="#DejaVuSerif-74" transform="translate(578.569336 0.015625)"/>
     </g>
    </g>
    <g id="line2d_28">
     <path d="M 144.027098 138.845679 
L 152.027098 138.845679 
L 160.027098 138.845679 
" style="fill: none; stroke: #777777; stroke-linecap: square"/>
    </g>
    <g id="text_16">
     <!-- $α_0$, imag part -->
     <g transform="translate(166.427098 141.645679)scale(0.08 -0.08)">
      <use xlink:href="#DejaVuSans-Oblique-3b1" transform="translate(0 0.421875)"/>
      <use xlink:href="#DejaVuSans-30" transform="translate(65.917969 -15.984375)scale(0.7)"/>
      <use xlink:href="#DejaVuSerif-2c" transform="translate(113.188477 0.421875)"/>
      <use xlink:href="#DejaVuSerif-20" transform="translate(144.975586 0.421875)"/>
      <use xlink:href="#DejaVuSerif-69" transform="translate(176.762695 0.421875)"/>
      <use xlink:href="#DejaVuSerif-6d" transform="translate(208.745117 0.421875)"/>
      <use xlink:href="#DejaVuSerif-61" transform="translate(303.569336 0.421875)"/>
      <use xlink:href="#DejaVuSerif-67" transform="translate(363.188477 0.421875)"/>
      <use xlink:href="#DejaVuSerif-20" transform="translate(427.202148 0.421875)"/>
      <use xlink:href="#DejaVuSerif-70" transform="translate(458.989258 0.421875)"/>
      <use xlink:href="#DejaVuSerif-61" transform="translate(523.00293 0.421875)"/>
      <use xlink:href="#DejaVuSerif-72" transform="translate(582.62207 0.421875)"/>
      <use xlink:href="#DejaVuSerif-74" transform="translate(630.424805 0.421875)"/>
     </g>
    </g>
   </g>
  </g>
 </g>
 <defs>
  <clipPath id="p2c47296b69">
   <rect x="29.675" y="19.8" width="197.632098" height="130.885679"/>
  </clipPath>
 </defs>
</svg>
