<?xml version="1.0" encoding="utf-8" standalone="no"?>
<!DOCTYPE svg PUBLIC "-//W3C//DTD SVG 1.1//EN"
  "http://www.w3.org/Graphics/SVG/1.1/DTD/svg11.dtd">
<svg xmlns:xlink="http://www.w3.org/1999/xlink" width="317.210461pt" height="95.163138pt" viewBox="0 0 317.210461 95.163138" xmlns="http://www.w3.org/2000/svg" version="1.1">
 <metadata>
  <rdf:RDF xmlns:dc="http://purl.org/dc/elements/1.1/" xmlns:cc="http://creativecommons.org/ns#" xmlns:rdf="http://www.w3.org/1999/02/22-rdf-syntax-ns#">
   <cc:Work>
    <dc:type rdf:resource="http://purl.org/dc/dcmitype/StillImage"/>
    <dc:date>1980-01-01T00:00:00+00:00</dc:date>
    <dc:format>image/svg+xml</dc:format>
    <dc:creator>
     <cc:Agent>
      <dc:title>Matplotlib v3.5.1, https://matplotlib.org/</dc:title>
     </cc:Agent>
    </dc:creator>
   </cc:Work>
  </rdf:RDF>
 </metadata>
 <defs>
  <style type="text/css">*{stroke-linejoin: round; stroke-linecap: butt}</style>
 </defs>
 <g id="figure_1">
  <g id="patch_1">
   <path d="M 0 95.163138 
L 317.210461 95.163138 
L 317.210461 0 
L 0 0 
z
" style="fill: #ffffff"/>
  </g>
  <g id="axes_1">
   <g id="patch_2">
    <path d="M 29.55 55.363138 
L 306.410461 55.363138 
L 306.410461 10.8 
L 29.55 10.8 
z
" style="fill: #e5e5e5"/>
   </g>
   <g id="matplotlib.axis_1">
    <g id="xtick_1">
     <g id="line2d_1">
      <path d="M 42.134566 55.363138 
L 42.134566 10.8 
" clip-path="url(#p80f6c97578)" style="fill: none; stroke: #ffffff; stroke-width: 0.8; stroke-linecap: square"/>
     </g>
     <g id="line2d_2">
      <defs>
       <path id="m21480869f2" d="M 0 0 
L 0 3.5 
" style="stroke: #555555; stroke-width: 0.8"/>
      </defs>
      <g>
       <use xlink:href="#m21480869f2" x="42.134566" y="55.363138" style="fill: #555555; stroke: #555555; stroke-width: 0.8"/>
      </g>
     </g>
     <g id="text_1">
      <!-- 0 -->
      <g style="fill: #555555" transform="translate(39.589566 68.441888)scale(0.08 -0.08)">
       <defs>
        <path id="DejaVuSerif-30" d="M 2034 219 
Q 2513 219 2750 744 
Q 2988 1269 2988 2328 
Q 2988 3391 2750 3916 
Q 2513 4441 2034 4441 
Q 1556 4441 1318 3916 
Q 1081 3391 1081 2328 
Q 1081 1269 1318 744 
Q 1556 219 2034 219 
z
M 2034 -91 
Q 1275 -91 848 546 
Q 422 1184 422 2328 
Q 422 3475 848 4112 
Q 1275 4750 2034 4750 
Q 2797 4750 3222 4112 
Q 3647 3475 3647 2328 
Q 3647 1184 3222 546 
Q 2797 -91 2034 -91 
z
" transform="scale(0.015625)"/>
       </defs>
       <use xlink:href="#DejaVuSerif-30"/>
      </g>
     </g>
    </g>
    <g id="xtick_2">
     <g id="line2d_3">
      <path d="M 92.472832 55.363138 
L 92.472832 10.8 
" clip-path="url(#p80f6c97578)" style="fill: none; stroke: #ffffff; stroke-width: 0.8; stroke-linecap: square"/>
     </g>
     <g id="line2d_4">
      <g>
       <use xlink:href="#m21480869f2" x="92.472832" y="55.363138" style="fill: #555555; stroke: #555555; stroke-width: 0.8"/>
      </g>
     </g>
     <g id="text_2">
      <!-- 2 -->
      <g style="fill: #555555" transform="translate(89.927832 68.441888)scale(0.08 -0.08)">
       <defs>
        <path id="DejaVuSerif-32" d="M 819 3553 
L 469 3553 
L 469 4384 
Q 803 4563 1142 4656 
Q 1481 4750 1806 4750 
Q 2534 4750 2956 4397 
Q 3378 4044 3378 3438 
Q 3378 2753 2422 1800 
Q 2347 1728 2309 1691 
L 1131 513 
L 3078 513 
L 3078 1088 
L 3444 1088 
L 3444 0 
L 434 0 
L 434 341 
L 1850 1753 
Q 2319 2222 2519 2614 
Q 2719 3006 2719 3438 
Q 2719 3909 2473 4175 
Q 2228 4441 1797 4441 
Q 1350 4441 1106 4219 
Q 863 3997 819 3553 
z
" transform="scale(0.015625)"/>
       </defs>
       <use xlink:href="#DejaVuSerif-32"/>
      </g>
     </g>
    </g>
    <g id="xtick_3">
     <g id="line2d_5">
      <path d="M 142.811098 55.363138 
L 142.811098 10.8 
" clip-path="url(#p80f6c97578)" style="fill: none; stroke: #ffffff; stroke-width: 0.8; stroke-linecap: square"/>
     </g>
     <g id="line2d_6">
      <g>
       <use xlink:href="#m21480869f2" x="142.811098" y="55.363138" style="fill: #555555; stroke: #555555; stroke-width: 0.8"/>
      </g>
     </g>
     <g id="text_3">
      <!-- 4 -->
      <g style="fill: #555555" transform="translate(140.266098 68.441888)scale(0.08 -0.08)">
       <defs>
        <path id="DejaVuSerif-34" d="M 2234 1581 
L 2234 4063 
L 641 1581 
L 2234 1581 
z
M 3609 0 
L 1484 0 
L 1484 331 
L 2234 331 
L 2234 1247 
L 197 1247 
L 197 1588 
L 2241 4750 
L 2859 4750 
L 2859 1581 
L 3750 1581 
L 3750 1247 
L 2859 1247 
L 2859 331 
L 3609 331 
L 3609 0 
z
" transform="scale(0.015625)"/>
       </defs>
       <use xlink:href="#DejaVuSerif-34"/>
      </g>
     </g>
    </g>
    <g id="xtick_4">
     <g id="line2d_7">
      <path d="M 193.149363 55.363138 
L 193.149363 10.8 
" clip-path="url(#p80f6c97578)" style="fill: none; stroke: #ffffff; stroke-width: 0.8; stroke-linecap: square"/>
     </g>
     <g id="line2d_8">
      <g>
       <use xlink:href="#m21480869f2" x="193.149363" y="55.363138" style="fill: #555555; stroke: #555555; stroke-width: 0.8"/>
      </g>
     </g>
     <g id="text_4">
      <!-- 6 -->
      <g style="fill: #555555" transform="translate(190.604363 68.441888)scale(0.08 -0.08)">
       <defs>
        <path id="DejaVuSerif-36" d="M 2094 219 
Q 2534 219 2771 542 
Q 3009 866 3009 1472 
Q 3009 2078 2771 2401 
Q 2534 2725 2094 2725 
Q 1647 2725 1412 2412 
Q 1178 2100 1178 1509 
Q 1178 888 1415 553 
Q 1653 219 2094 219 
z
M 1075 2569 
Q 1288 2803 1556 2918 
Q 1825 3034 2163 3034 
Q 2859 3034 3264 2615 
Q 3669 2197 3669 1472 
Q 3669 763 3233 336 
Q 2797 -91 2069 -91 
Q 1278 -91 853 498 
Q 428 1088 428 2181 
Q 428 3406 931 4078 
Q 1434 4750 2350 4750 
Q 2597 4750 2869 4703 
Q 3141 4656 3425 4563 
L 3425 3794 
L 3072 3794 
Q 3034 4109 2831 4275 
Q 2628 4441 2284 4441 
Q 1678 4441 1381 3981 
Q 1084 3522 1075 2569 
z
" transform="scale(0.015625)"/>
       </defs>
       <use xlink:href="#DejaVuSerif-36"/>
      </g>
     </g>
    </g>
    <g id="xtick_5">
     <g id="line2d_9">
      <path d="M 243.487629 55.363138 
L 243.487629 10.8 
" clip-path="url(#p80f6c97578)" style="fill: none; stroke: #ffffff; stroke-width: 0.8; stroke-linecap: square"/>
     </g>
     <g id="line2d_10">
      <g>
       <use xlink:href="#m21480869f2" x="243.487629" y="55.363138" style="fill: #555555; stroke: #555555; stroke-width: 0.8"/>
      </g>
     </g>
     <g id="text_5">
      <!-- 8 -->
      <g style="fill: #555555" transform="translate(240.942629 68.441888)scale(0.08 -0.08)">
       <defs>
        <path id="DejaVuSerif-38" d="M 2981 1275 
Q 2981 1775 2732 2051 
Q 2484 2328 2034 2328 
Q 1584 2328 1336 2051 
Q 1088 1775 1088 1275 
Q 1088 772 1336 495 
Q 1584 219 2034 219 
Q 2484 219 2732 495 
Q 2981 772 2981 1275 
z
M 2853 3541 
Q 2853 3966 2637 4203 
Q 2422 4441 2034 4441 
Q 1650 4441 1433 4203 
Q 1216 3966 1216 3541 
Q 1216 3113 1433 2875 
Q 1650 2638 2034 2638 
Q 2422 2638 2637 2875 
Q 2853 3113 2853 3541 
z
M 2516 2484 
Q 3047 2413 3344 2092 
Q 3641 1772 3641 1275 
Q 3641 619 3225 264 
Q 2809 -91 2034 -91 
Q 1263 -91 845 264 
Q 428 619 428 1275 
Q 428 1772 725 2092 
Q 1022 2413 1556 2484 
Q 1084 2569 832 2842 
Q 581 3116 581 3541 
Q 581 4103 968 4426 
Q 1356 4750 2034 4750 
Q 2713 4750 3100 4426 
Q 3488 4103 3488 3541 
Q 3488 3116 3236 2842 
Q 2984 2569 2516 2484 
z
" transform="scale(0.015625)"/>
       </defs>
       <use xlink:href="#DejaVuSerif-38"/>
      </g>
     </g>
    </g>
    <g id="xtick_6">
     <g id="line2d_11">
      <path d="M 293.825894 55.363138 
L 293.825894 10.8 
" clip-path="url(#p80f6c97578)" style="fill: none; stroke: #ffffff; stroke-width: 0.8; stroke-linecap: square"/>
     </g>
     <g id="line2d_12">
      <g>
       <use xlink:href="#m21480869f2" x="293.825894" y="55.363138" style="fill: #555555; stroke: #555555; stroke-width: 0.8"/>
      </g>
     </g>
     <g id="text_6">
      <!-- 10 -->
      <g style="fill: #555555" transform="translate(288.735894 68.441888)scale(0.08 -0.08)">
       <defs>
        <path id="DejaVuSerif-31" d="M 909 0 
L 909 331 
L 1722 331 
L 1722 4213 
L 781 3603 
L 781 4013 
L 1919 4750 
L 2350 4750 
L 2350 331 
L 3163 331 
L 3163 0 
L 909 0 
z
" transform="scale(0.015625)"/>
       </defs>
       <use xlink:href="#DejaVuSerif-31"/>
       <use xlink:href="#DejaVuSerif-30" x="63.623047"/>
      </g>
     </g>
    </g>
    <g id="text_7">
     <!-- $τ$ -->
     <g style="fill: #555555" transform="translate(164.93023 81.704076)scale(0.1 -0.1)">
      <defs>
       <path id="DejaVuSans-Oblique-3c4" d="M 2103 638 
Q 2188 488 2525 488 
L 2800 488 
L 2706 0 
L 2363 0 
Q 1800 0 1600 300 
Q 1403 606 1534 1269 
L 1856 2925 
L 541 2925 
L 653 3500 
L 3881 3500 
L 3769 2925 
L 2444 2925 
L 2113 1234 
Q 2025 781 2103 638 
z
" transform="scale(0.015625)"/>
      </defs>
      <use xlink:href="#DejaVuSans-Oblique-3c4" transform="translate(0 0.3125)"/>
     </g>
    </g>
   </g>
   <g id="matplotlib.axis_2">
    <g id="ytick_1">
     <g id="line2d_13">
      <path d="M 29.55 53.065185 
L 306.410461 53.065185 
" clip-path="url(#p80f6c97578)" style="fill: none; stroke: #ffffff; stroke-width: 0.8; stroke-linecap: square"/>
     </g>
     <g id="line2d_14">
      <defs>
       <path id="md5bc4e2f50" d="M 0 0 
L -3.5 0 
" style="stroke: #555555; stroke-width: 0.8"/>
      </defs>
      <g>
       <use xlink:href="#md5bc4e2f50" x="29.55" y="53.065185" style="fill: #555555; stroke: #555555; stroke-width: 0.8"/>
      </g>
     </g>
     <g id="text_8">
      <!-- −5 -->
      <g style="fill: #555555" transform="translate(10.75625 56.10456)scale(0.08 -0.08)">
       <defs>
        <path id="DejaVuSerif-2212" d="M 678 2259 
L 4684 2259 
L 4684 1753 
L 678 1753 
L 678 2259 
z
" transform="scale(0.015625)"/>
        <path id="DejaVuSerif-35" d="M 3219 4666 
L 3219 4153 
L 1081 4153 
L 1081 2816 
Q 1244 2928 1461 2984 
Q 1678 3041 1947 3041 
Q 2703 3041 3140 2622 
Q 3578 2203 3578 1478 
Q 3578 738 3136 323 
Q 2694 -91 1894 -91 
Q 1572 -91 1234 -12 
Q 897 66 544 225 
L 544 1131 
L 897 1131 
Q 925 688 1179 453 
Q 1434 219 1894 219 
Q 2388 219 2653 544 
Q 2919 869 2919 1478 
Q 2919 2084 2655 2407 
Q 2391 2731 1894 2731 
Q 1613 2731 1398 2631 
Q 1184 2531 1019 2322 
L 750 2322 
L 750 4666 
L 3219 4666 
z
" transform="scale(0.015625)"/>
       </defs>
       <use xlink:href="#DejaVuSerif-2212"/>
       <use xlink:href="#DejaVuSerif-35" x="83.789062"/>
      </g>
     </g>
    </g>
    <g id="ytick_2">
     <g id="line2d_15">
      <path d="M 29.55 31.738579 
L 306.410461 31.738579 
" clip-path="url(#p80f6c97578)" style="fill: none; stroke: #ffffff; stroke-width: 0.8; stroke-linecap: square"/>
     </g>
     <g id="line2d_16">
      <g>
       <use xlink:href="#md5bc4e2f50" x="29.55" y="31.738579" style="fill: #555555; stroke: #555555; stroke-width: 0.8"/>
      </g>
     </g>
     <g id="text_9">
      <!-- 0 -->
      <g style="fill: #555555" transform="translate(17.46 34.777954)scale(0.08 -0.08)">
       <use xlink:href="#DejaVuSerif-30"/>
      </g>
     </g>
    </g>
   </g>
   <g id="line2d_17">
    <path d="M 42.134566 35.648397 
L 43.646226 40.505867 
L 43.898169 40.702017 
L 44.150113 40.617052 
L 44.402056 40.269357 
L 44.905942 38.951134 
L 45.913715 35.190279 
L 47.677318 28.739387 
L 48.433148 26.829749 
L 48.937035 26.083404 
L 49.440921 25.793715 
L 49.692865 25.83362 
L 50.196751 26.301297 
L 50.700638 27.241317 
L 52.716184 31.876497 
L 53.22007 32.277848 
L 53.472014 32.299035 
L 53.9759 32.023671 
L 55.235617 30.819336 
L 55.739503 30.796618 
L 56.24339 31.087614 
L 56.999219 31.566162 
L 57.503106 31.558196 
L 58.006992 31.177269 
L 59.266709 29.736176 
L 59.518652 29.722911 
L 59.770595 29.912966 
L 60.022539 30.337804 
L 60.526425 31.934005 
L 61.282255 35.79736 
L 62.038085 39.80032 
L 62.541971 41.475025 
L 62.793915 41.847755 
L 63.045858 41.887304 
L 63.297801 41.606564 
L 63.801688 40.241284 
L 64.809461 35.938234 
L 66.069177 30.751406 
L 66.825007 28.254168 
L 67.328894 27.181905 
L 67.83278 26.679669 
L 68.336667 26.627203 
L 68.840553 26.882175 
L 69.34444 27.41297 
L 69.848326 28.274035 
L 70.604156 30.238573 
L 72.115816 34.712558 
L 72.619702 35.312173 
L 72.871645 35.334603 
L 73.123589 35.175657 
L 73.627475 34.369246 
L 74.131362 33.03981 
L 74.887192 30.400491 
L 75.643021 27.146486 
L 76.650795 21.57052 
L 77.910511 14.428772 
L 78.414397 13.009297 
L 78.666341 12.825597 
L 78.918284 13.011013 
L 79.170227 13.548028 
L 79.674114 15.50342 
L 80.681887 21.171261 
L 81.437717 25.12919 
L 82.193547 27.924826 
L 82.949376 29.735854 
L 84.461036 32.918848 
L 85.216866 35.455906 
L 86.476582 40.592846 
L 86.980469 41.583178 
L 87.232412 41.614727 
L 87.484355 41.308875 
L 87.736298 40.66982 
L 88.240185 38.485651 
L 88.996015 33.508468 
L 91.011561 18.484562 
L 91.515448 16.132773 
L 92.019334 14.910765 
L 92.271277 14.786068 
L 92.523221 15.007078 
L 92.775164 15.57891 
L 93.27905 17.732115 
L 94.03488 22.949197 
L 95.294597 32.613637 
L 96.050426 36.425737 
L 96.554313 37.937589 
L 97.0582 38.797623 
L 97.310143 39.010997 
L 97.562086 39.074794 
L 97.814029 38.973956 
L 98.065973 38.691647 
L 98.569859 37.550722 
L 99.325689 34.709982 
L 100.081519 31.821107 
L 100.585405 30.599693 
L 101.089292 30.046897 
L 101.845122 29.863413 
L 102.349008 29.651988 
L 102.852895 29.076554 
L 103.356781 28.047541 
L 104.112611 25.781974 
L 105.624271 20.944575 
L 106.128157 20.009217 
L 106.632044 19.592448 
L 106.883987 19.579139 
L 107.387874 19.921274 
L 107.89176 20.6756 
L 109.40342 23.794712 
L 110.663136 26.756229 
L 111.167023 27.864982 
L 111.670909 28.476925 
L 111.922853 28.513959 
L 112.174796 28.365649 
L 112.678682 27.635773 
L 113.434512 26.31489 
L 113.686455 26.056173 
L 113.938399 25.957945 
L 114.190342 26.035573 
L 114.694229 26.694862 
L 115.450058 28.551781 
L 116.709775 31.779973 
L 117.717548 33.568099 
L 119.229207 35.930417 
L 119.985037 37.804262 
L 120.99281 41.232684 
L 121.74864 43.583432 
L 122.252527 44.367405 
L 122.50447 44.405462 
L 122.756413 44.190759 
L 123.2603 43.08188 
L 124.01613 40.369645 
L 125.779732 33.72826 
L 126.787506 30.837669 
L 127.543335 29.372077 
L 128.551108 27.690003 
L 129.054995 26.492023 
L 129.558882 24.811696 
L 130.566655 20.223611 
L 131.322484 17.130111 
L 131.826371 16.030807 
L 132.078314 15.849553 
L 132.330258 15.916735 
L 132.582201 16.224763 
L 133.086087 17.526401 
L 133.589974 19.686875 
L 134.345804 24.290584 
L 135.857463 34.323301 
L 136.36135 36.365687 
L 136.865236 37.392795 
L 137.11718 37.560252 
L 137.369123 37.545281 
L 137.873009 37.168026 
L 138.628839 36.451824 
L 139.132726 36.190669 
L 140.140499 35.895356 
L 140.644385 35.470026 
L 141.148272 34.703047 
L 141.904102 32.962468 
L 142.911875 29.816877 
L 143.667705 27.563659 
L 144.171591 26.706856 
L 144.423535 26.543986 
L 144.675478 26.544196 
L 145.179364 26.872013 
L 145.683251 27.252426 
L 145.935194 27.309452 
L 146.187137 27.208692 
L 146.439081 26.915498 
L 146.942967 25.710075 
L 147.698797 22.744789 
L 148.454627 19.756016 
L 148.958513 18.540943 
L 149.210457 18.283886 
L 149.4624 18.280899 
L 149.714343 18.527517 
L 150.21823 19.67054 
L 151.226003 23.285637 
L 151.981833 25.772353 
L 152.737662 27.472697 
L 153.493492 28.571944 
L 154.753209 30.242646 
L 155.257095 31.297557 
L 157.020698 35.607691 
L 157.524585 35.952415 
L 157.776528 35.91292 
L 158.280414 35.507856 
L 160.044017 33.410495 
L 160.547904 33.230564 
L 161.05179 33.436237 
L 161.555677 34.09624 
L 162.059564 35.215135 
L 163.067337 38.380726 
L 163.823166 40.457799 
L 164.327053 41.12129 
L 164.578996 41.186158 
L 164.830939 41.073991 
L 165.334826 40.347864 
L 165.838713 39.025532 
L 166.594542 36.205348 
L 167.854259 30.261019 
L 169.869805 20.195614 
L 170.373691 19.234549 
L 170.625635 19.214666 
L 170.877578 19.512967 
L 171.129521 20.121676 
L 171.633408 22.193176 
L 172.389238 26.95142 
L 174.152841 39.453813 
L 175.160614 44.645154 
L 176.168387 48.556696 
L 176.924217 50.652302 
L 177.428103 51.379427 
L 177.680046 51.47339 
L 177.93199 51.365017 
L 178.183933 51.045254 
L 178.687819 49.776278 
L 179.191706 47.76477 
L 180.451422 41.129098 
L 181.459195 36.424368 
L 182.970855 30.932896 
L 183.978628 27.693158 
L 184.734458 25.877064 
L 185.490288 24.699463 
L 186.246118 24.043683 
L 186.750004 23.842576 
L 187.253891 23.924735 
L 187.757777 24.466885 
L 188.261664 25.609725 
L 189.017494 28.3768 
L 191.284983 37.928421 
L 191.78887 39.298017 
L 192.292756 40.065463 
L 192.544699 40.185354 
L 192.796643 40.124218 
L 193.048586 39.890034 
L 193.552472 38.982792 
L 195.568019 34.139313 
L 196.071905 33.500498 
L 196.575792 33.21268 
L 197.079678 33.298993 
L 197.583565 33.690574 
L 198.591338 34.556414 
L 198.843281 34.590032 
L 199.095224 34.489571 
L 199.599111 33.851105 
L 200.354941 32.123905 
L 200.858827 31.011598 
L 201.362714 30.421912 
L 201.614657 30.421509 
L 201.8666 30.649937 
L 202.118544 31.120016 
L 202.62243 32.800346 
L 203.126317 35.412016 
L 204.13409 42.339823 
L 204.88992 47.207584 
L 205.393806 49.513411 
L 205.897693 50.795226 
L 206.149636 51.022776 
L 206.401579 50.978238 
L 206.653523 50.678123 
L 207.157409 49.439735 
L 208.417125 45.346094 
L 208.921012 44.598548 
L 209.172955 44.525057 
L 209.424899 44.627309 
L 209.928785 45.210752 
L 211.188501 47.039809 
L 211.692388 47.299974 
L 211.944331 47.248727 
L 212.196274 47.053903 
L 212.700161 46.167047 
L 213.204048 44.535019 
L 213.707934 42.156514 
L 214.715707 35.815256 
L 215.975424 27.736776 
L 216.47931 25.641416 
L 216.731253 25.028087 
L 216.983197 24.737863 
L 217.23514 24.773838 
L 217.487083 25.120409 
L 217.99097 26.601684 
L 218.7468 30.031201 
L 220.258459 37.111691 
L 221.014289 39.49472 
L 221.518176 40.537287 
L 222.022062 41.218489 
L 222.525949 41.555848 
L 223.029835 41.524879 
L 223.533722 41.118766 
L 224.037608 40.337904 
L 224.541495 39.14554 
L 225.297325 36.55818 
L 226.557041 31.653927 
L 227.060927 30.35875 
L 227.564814 29.69691 
L 228.068701 29.534807 
L 228.82453 29.49407 
L 229.328417 29.095621 
L 229.832303 28.23041 
L 231.09202 25.444557 
L 231.343963 25.131339 
L 231.595906 24.999162 
L 231.84785 25.082431 
L 232.099793 25.406646 
L 232.603679 26.805769 
L 233.107566 29.076335 
L 235.375055 40.808237 
L 236.382829 44.427622 
L 236.886715 45.743863 
L 237.390602 46.45083 
L 237.642545 46.509923 
L 237.894488 46.355372 
L 238.146431 45.988987 
L 238.650318 44.688507 
L 239.406148 41.803192 
L 242.68141 27.601782 
L 243.689183 23.014255 
L 244.19307 21.679771 
L 244.445013 21.399881 
L 244.696956 21.407938 
L 244.9489 21.701286 
L 245.452786 23.022674 
L 246.964446 28.484412 
L 247.468332 29.354756 
L 247.720276 29.500849 
L 247.972219 29.462268 
L 248.476106 28.910941 
L 249.231935 27.318741 
L 251.751368 21.315092 
L 252.255255 20.450614 
L 252.507198 20.208753 
L 252.759141 20.151354 
L 253.011084 20.314357 
L 253.263028 20.719348 
L 253.766914 22.238874 
L 255.530517 29.450334 
L 255.78246 29.880762 
L 256.034404 30.063991 
L 256.286347 30.00974 
L 256.53829 29.738148 
L 257.042177 28.651181 
L 257.798007 26.134396 
L 258.553836 23.552377 
L 259.057723 22.510958 
L 259.309666 22.346185 
L 259.561609 22.458736 
L 259.813553 22.854393 
L 260.317439 24.410321 
L 261.325212 29.102161 
L 262.081042 32.202091 
L 262.584929 33.61284 
L 263.088815 34.446059 
L 263.340759 34.639305 
L 263.592702 34.679388 
L 263.844645 34.565035 
L 264.348532 33.886156 
L 264.852418 32.660534 
L 265.608248 30.005016 
L 267.371851 23.099245 
L 267.875737 21.863536 
L 268.379624 21.046128 
L 269.135454 20.314125 
L 270.143227 19.757249 
L 271.402943 19.453319 
L 272.158773 19.380669 
L 272.410716 19.476976 
L 272.66266 19.701585 
L 273.166546 20.682135 
L 273.670433 22.463823 
L 274.678206 27.569311 
L 275.434036 31.133083 
L 275.937922 32.802462 
L 276.441809 33.798176 
L 276.693752 34.046387 
L 276.945695 34.137544 
L 277.197638 34.085138 
L 277.701525 33.644774 
L 278.709298 32.507407 
L 278.961241 32.408503 
L 279.213185 32.434751 
L 279.717071 32.853461 
L 281.480674 35.291984 
L 281.984561 35.454231 
L 282.74039 35.36669 
L 284.25205 35.124304 
L 284.755937 35.304392 
L 285.259823 35.723631 
L 286.267596 36.762867 
L 286.771483 36.996121 
L 287.275369 36.955738 
L 289.542859 36.242997 
L 290.046745 35.599169 
L 290.550632 34.392422 
L 291.306462 31.658541 
L 292.314235 27.769017 
L 292.818121 26.39551 
L 293.322008 25.648109 
L 293.573951 25.511594 
L 293.825894 25.507679 
L 293.825894 25.507679 
" clip-path="url(#p80f6c97578)" style="fill: none; stroke: #e24a33; stroke-linecap: square"/>
   </g>
   <g id="line2d_18">
    <path d="M 42.134566 35.648397 
L 43.646226 40.505867 
L 43.898169 40.702017 
L 44.150113 40.617052 
L 44.402056 40.269357 
L 44.905942 38.951134 
L 45.913715 35.190279 
L 47.677318 28.739387 
L 48.433148 26.829749 
L 48.937035 26.083404 
L 49.440921 25.793715 
L 49.692865 25.83362 
L 50.196751 26.301297 
L 50.700638 27.241317 
L 52.716184 31.876497 
L 53.22007 32.277848 
L 53.472014 32.299035 
L 53.9759 32.023671 
L 55.235617 30.819336 
L 55.739503 30.796618 
L 56.24339 31.087614 
L 56.999219 31.566162 
L 57.503106 31.558196 
L 58.006992 31.177269 
L 59.266709 29.736176 
L 59.518652 29.722911 
L 59.770595 29.912966 
L 60.022539 30.337804 
L 60.526425 31.934005 
L 61.282255 35.79736 
L 62.038085 39.80032 
L 62.541971 41.475025 
L 62.793915 41.847755 
L 63.045858 41.887304 
L 63.297801 41.606564 
L 63.801688 40.241284 
L 64.809461 35.938234 
L 66.069177 30.751406 
L 66.825007 28.254168 
L 67.328894 27.181905 
L 67.83278 26.679669 
L 68.336667 26.627203 
L 68.840553 26.882175 
L 69.34444 27.41297 
L 69.848326 28.274035 
L 70.604156 30.238573 
L 72.115816 34.712558 
L 72.619702 35.312173 
L 72.871645 35.334603 
L 73.123589 35.175657 
L 73.627475 34.369246 
L 74.131362 33.03981 
L 74.887192 30.400491 
L 75.643021 27.146486 
L 76.650795 21.57052 
L 77.910511 14.428772 
L 78.414397 13.009297 
L 78.666341 12.825597 
L 78.918284 13.011013 
L 79.170227 13.548028 
L 79.674114 15.50342 
L 80.681887 21.171261 
L 81.437717 25.12919 
L 82.193547 27.924826 
L 82.949376 29.735854 
L 84.461036 32.918848 
L 85.216866 35.455906 
L 86.476582 40.592846 
L 86.980469 41.583178 
L 87.232412 41.614727 
L 87.484355 41.308875 
L 87.736298 40.66982 
L 88.240185 38.485651 
L 88.996015 33.508468 
L 91.011561 18.484562 
L 91.515448 16.132773 
L 92.019334 14.910765 
L 92.271277 14.786068 
L 92.523221 15.007078 
L 92.775164 15.57891 
L 93.27905 17.732115 
L 94.03488 22.949197 
L 95.294597 32.613637 
L 96.050426 36.425737 
L 96.554313 37.937589 
L 97.0582 38.797623 
L 97.310143 39.010997 
L 97.562086 39.074794 
L 97.814029 38.973956 
L 98.065973 38.691647 
L 98.569859 37.550722 
L 99.325689 34.709982 
L 100.081519 31.821107 
L 100.585405 30.599693 
L 101.089292 30.046897 
L 101.845122 29.863413 
L 102.349008 29.651988 
L 102.852895 29.076554 
L 103.356781 28.047541 
L 104.112611 25.781974 
L 105.624271 20.944575 
L 106.128157 20.009217 
L 106.632044 19.592448 
L 106.883987 19.579139 
L 107.387874 19.921274 
L 107.89176 20.6756 
L 109.40342 23.794712 
L 110.663136 26.756229 
L 111.167023 27.864982 
L 111.670909 28.476925 
L 111.922853 28.513959 
L 112.174796 28.365649 
L 112.678682 27.635773 
L 113.434512 26.31489 
L 113.686455 26.056173 
L 113.938399 25.957945 
L 114.190342 26.035573 
L 114.694229 26.694862 
L 115.450058 28.551781 
L 116.709775 31.779973 
L 117.717548 33.568099 
L 119.229207 35.930417 
L 119.985037 37.804262 
L 120.99281 41.232684 
L 121.74864 43.583432 
L 122.252527 44.367405 
L 122.50447 44.405462 
L 122.756413 44.190759 
L 123.2603 43.08188 
L 124.01613 40.369645 
L 125.779732 33.72826 
L 126.787506 30.839442 
L 127.543335 29.385833 
L 128.551108 27.631284 
L 129.054995 26.341246 
L 129.810825 23.642655 
L 131.322484 17.492037 
L 131.826371 16.297938 
L 132.078314 16.03293 
L 132.330258 16.023012 
L 132.582201 16.286575 
L 132.834144 16.837374 
L 133.338031 18.820026 
L 134.09386 23.665686 
L 135.101633 30.706743 
L 135.60552 33.000389 
L 136.109407 34.10811 
L 136.36135 34.275045 
L 136.613293 34.25597 
L 137.621066 33.718146 
L 137.873009 33.774696 
L 138.376896 34.315854 
L 139.132726 35.889625 
L 139.888556 37.512131 
L 140.392442 38.214941 
L 140.644385 38.368512 
L 140.896329 38.349063 
L 141.148272 38.127779 
L 141.400215 37.682894 
L 141.904102 36.092455 
L 142.659932 32.228132 
L 143.667705 26.465259 
L 144.171591 24.521485 
L 144.423535 23.955002 
L 144.675478 23.667206 
L 144.927421 23.629946 
L 145.431308 24.082146 
L 146.187137 25.055504 
L 146.691024 25.359379 
L 147.194911 25.332063 
L 147.95074 24.936486 
L 148.70657 24.247697 
L 149.4624 23.166239 
L 150.470173 21.674263 
L 150.722116 21.503537 
L 150.97406 21.48632 
L 151.226003 21.650337 
L 151.477946 22.013716 
L 151.981833 23.351755 
L 152.737662 26.623118 
L 153.997379 32.82059 
L 154.501265 34.413587 
L 154.753209 34.850627 
L 155.005152 35.023819 
L 155.257095 34.935268 
L 155.509038 34.602703 
L 156.012925 33.340174 
L 157.776528 27.636525 
L 158.280414 26.981077 
L 158.532358 26.920343 
L 158.784301 27.032755 
L 159.288188 27.701271 
L 160.044017 29.357706 
L 161.80762 33.817962 
L 163.31928 38.192666 
L 163.823166 38.808655 
L 164.07511 38.867126 
L 164.327053 38.776743 
L 164.830939 38.249848 
L 165.586769 36.956942 
L 167.854259 32.681757 
L 168.610089 31.662102 
L 169.113975 31.449912 
L 169.365918 31.545688 
L 169.869805 32.121463 
L 171.381465 34.51217 
L 171.885351 34.860363 
L 172.641181 35.014258 
L 173.648954 35.143092 
L 174.152841 35.442552 
L 174.90867 36.23295 
L 175.916443 37.352915 
L 177.428103 38.723978 
L 177.93199 39.660442 
L 178.435876 41.024767 
L 179.191706 43.745611 
L 181.207252 51.812994 
L 181.711139 52.932874 
L 181.963082 53.23451 
L 182.215025 53.337541 
L 182.466968 53.22204 
L 182.718912 52.869622 
L 183.222798 51.402178 
L 183.726685 48.912747 
L 184.734458 41.901411 
L 185.490288 37.094236 
L 185.994174 35.053864 
L 186.498061 34.040936 
L 186.750004 33.853319 
L 187.253891 33.898664 
L 188.261664 34.373321 
L 188.76555 34.34537 
L 189.52138 34.26585 
L 189.773323 34.389451 
L 190.27721 35.014702 
L 191.78887 37.813887 
L 192.292756 37.998951 
L 192.796643 37.819344 
L 193.552472 37.48939 
L 195.064132 37.148524 
L 195.568019 36.312903 
L 196.071905 34.707002 
L 196.827735 30.961518 
L 198.087451 24.177045 
L 198.591338 22.506322 
L 198.843281 22.035397 
L 199.095224 21.820499 
L 199.347168 21.853334 
L 199.599111 22.110721 
L 200.102997 23.151677 
L 201.110771 26.210244 
L 202.118544 29.054733 
L 202.62243 29.997908 
L 203.126317 30.457724 
L 203.37826 30.480217 
L 203.630203 30.352954 
L 204.13409 29.615526 
L 204.637976 28.196351 
L 205.393806 24.908032 
L 206.653523 18.751137 
L 207.157409 17.303581 
L 207.409352 17.010447 
L 207.661296 17.06455 
L 207.913239 17.500572 
L 208.165182 18.338694 
L 208.669069 21.193689 
L 209.424899 27.587109 
L 210.180728 34.047991 
L 210.684615 37.048038 
L 211.188501 38.581527 
L 211.440445 38.826012 
L 211.692388 38.781589 
L 212.196274 38.073505 
L 213.707934 34.595731 
L 216.227367 29.25286 
L 216.731253 28.560534 
L 217.23514 28.215187 
L 217.487083 28.209229 
L 217.99097 28.53315 
L 218.998743 29.860714 
L 220.510402 31.888696 
L 221.014289 33.144425 
L 222.022062 36.672775 
L 222.777892 39.138381 
L 223.533722 40.760071 
L 224.289552 41.698812 
L 225.297325 42.778407 
L 226.053154 43.972945 
L 227.312871 46.279919 
L 227.564814 46.527095 
L 227.816757 46.612497 
L 228.068701 46.506852 
L 228.320644 46.193293 
L 228.82453 44.943863 
L 229.328417 42.987577 
L 230.33619 37.913649 
L 232.351736 27.67639 
L 233.107566 24.98169 
L 233.611453 23.958564 
L 233.863396 23.71203 
L 234.115339 23.645964 
L 234.367282 23.758772 
L 234.871169 24.489131 
L 235.626999 26.474213 
L 236.382829 28.341623 
L 236.634772 28.661198 
L 236.886715 28.755776 
L 237.138658 28.607811 
L 237.390602 28.221165 
L 237.894488 26.849088 
L 239.154205 22.517148 
L 239.658091 21.562187 
L 239.910034 21.370401 
L 240.161978 21.370599 
L 240.413921 21.552328 
L 240.917807 22.390463 
L 241.421694 23.726272 
L 242.177524 26.356776 
L 244.19307 34.006433 
L 245.200843 36.590993 
L 245.956673 37.877041 
L 246.460559 38.219418 
L 246.712503 38.20362 
L 247.216389 37.814857 
L 247.972219 36.642717 
L 248.728049 35.581122 
L 249.231935 35.376904 
L 249.483879 35.47643 
L 249.987765 36.067766 
L 250.743595 37.6699 
L 251.499425 39.376474 
L 252.003311 40.01726 
L 252.255255 40.066243 
L 252.507198 39.897408 
L 252.759141 39.500029 
L 253.263028 38.060345 
L 254.270801 33.748021 
L 255.026631 31.060259 
L 255.530517 30.145671 
L 255.78246 29.982095 
L 256.034404 30.000127 
L 256.53829 30.477078 
L 258.04995 32.701471 
L 259.561609 34.083668 
L 260.317439 35.356993 
L 261.325212 37.166086 
L 261.829099 37.592237 
L 262.081042 37.577586 
L 262.332985 37.393315 
L 262.836872 36.551016 
L 263.592702 34.5307 
L 264.600475 31.88264 
L 265.104361 31.00877 
L 265.608248 30.504798 
L 266.364078 30.192918 
L 266.867964 29.966293 
L 267.371851 29.497584 
L 267.875737 28.725592 
L 268.631567 27.123764 
L 270.143227 23.702362 
L 270.647113 23.143315 
L 270.899057 23.085425 
L 271.151 23.19681 
L 271.402943 23.483458 
L 271.90683 24.547995 
L 272.914603 27.756099 
L 273.922376 30.584518 
L 274.678206 32.127987 
L 275.434036 33.227359 
L 275.937922 33.651163 
L 276.441809 33.722669 
L 276.693752 33.582575 
L 276.945695 33.296225 
L 277.449582 32.19667 
L 277.953468 30.313889 
L 279.717071 22.012791 
L 279.969014 21.612061 
L 280.220958 21.58932 
L 280.472901 21.952351 
L 280.976788 23.727717 
L 281.984561 29.457632 
L 282.488447 31.979082 
L 282.992334 33.543706 
L 283.244277 33.88586 
L 283.49622 33.921099 
L 283.748164 33.655708 
L 284.25205 32.309814 
L 285.00788 28.868103 
L 286.267596 22.787121 
L 287.275369 19.168901 
L 288.283142 16.278399 
L 289.038972 14.800993 
L 289.542859 14.264998 
L 290.046745 14.137809 
L 290.550632 14.431073 
L 291.054518 15.157717 
L 291.558405 16.38684 
L 292.062291 18.227342 
L 292.818121 22.17827 
L 293.825894 28.814202 
L 293.825894 28.814202 
" clip-path="url(#p80f6c97578)" style="fill: none; stroke: #348abd; stroke-linecap: square"/>
   </g>
   <g id="patch_3">
    <path d="M 29.55 55.363138 
L 29.55 10.8 
" style="fill: none; stroke: #ffffff; stroke-linejoin: miter; stroke-linecap: square"/>
   </g>
   <g id="patch_4">
    <path d="M 306.410461 55.363138 
L 306.410461 10.8 
" style="fill: none; stroke: #ffffff; stroke-linejoin: miter; stroke-linecap: square"/>
   </g>
   <g id="patch_5">
    <path d="M 29.55 55.363138 
L 306.410461 55.363138 
" style="fill: none; stroke: #ffffff; stroke-linejoin: miter; stroke-linecap: square"/>
   </g>
   <g id="patch_6">
    <path d="M 29.55 10.8 
L 306.410461 10.8 
" style="fill: none; stroke: #ffffff; stroke-linejoin: miter; stroke-linecap: square"/>
   </g>
  </g>
 </g>
 <defs>
  <clipPath id="p80f6c97578">
   <rect x="29.55" y="10.8" width="276.860461" height="44.563138"/>
  </clipPath>
 </defs>
</svg>
