<?xml version="1.0" encoding="utf-8" standalone="no"?>
<!DOCTYPE svg PUBLIC "-//W3C//DTD SVG 1.1//EN"
  "http://www.w3.org/Graphics/SVG/1.1/DTD/svg11.dtd">
<svg xmlns:xlink="http://www.w3.org/1999/xlink" width="476.780159pt" height="294.666344pt" viewBox="0 0 476.780159 294.666344" xmlns="http://www.w3.org/2000/svg" version="1.1">
 <metadata>
  <rdf:RDF xmlns:dc="http://purl.org/dc/elements/1.1/" xmlns:cc="http://creativecommons.org/ns#" xmlns:rdf="http://www.w3.org/1999/02/22-rdf-syntax-ns#">
   <cc:Work>
    <dc:type rdf:resource="http://purl.org/dc/dcmitype/StillImage"/>
    <dc:date>1980-01-01T00:00:00+00:00</dc:date>
    <dc:format>image/svg+xml</dc:format>
    <dc:creator>
     <cc:Agent>
      <dc:title>Matplotlib v3.5.1, https://matplotlib.org/</dc:title>
     </cc:Agent>
    </dc:creator>
   </cc:Work>
  </rdf:RDF>
 </metadata>
 <defs>
  <style type="text/css">*{stroke-linejoin: round; stroke-linecap: butt}</style>
 </defs>
 <g id="figure_1">
  <g id="patch_1">
   <path d="M 0 294.666344 
L 476.780159 294.666344 
L 476.780159 0 
L 0 0 
z
" style="fill: #ffffff"/>
  </g>
  <g id="axes_1">
   <g id="patch_2">
    <path d="M 103.5124 233.003944 
L 458.117759 233.003944 
L 458.117759 40.6624 
L 103.5124 40.6624 
z
" style="fill: #e5e5e5"/>
   </g>
   <g id="matplotlib.axis_1">
    <g id="xtick_1">
     <g id="line2d_1">
      <path d="M 119.630825 233.003944 
L 119.630825 40.6624 
" clip-path="url(#p779038677d)" style="fill: none; stroke: #ffffff; stroke-width: 0.8; stroke-linecap: square"/>
     </g>
     <g id="line2d_2">
      <defs>
       <path id="m540d2d1488" d="M 0 0 
L 0 3.5 
" style="stroke: #555555; stroke-width: 0.8"/>
      </defs>
      <g>
       <use xlink:href="#m540d2d1488" x="119.630825" y="233.003944" style="fill: #555555; stroke: #555555; stroke-width: 0.8"/>
      </g>
     </g>
     <g id="text_1">
      <!-- 0 -->
      <g style="fill: #555555" transform="translate(115.049825 250.945694)scale(0.144 -0.144)">
       <defs>
        <path id="DejaVuSans-30" d="M 2034 4250 
Q 1547 4250 1301 3770 
Q 1056 3291 1056 2328 
Q 1056 1369 1301 889 
Q 1547 409 2034 409 
Q 2525 409 2770 889 
Q 3016 1369 3016 2328 
Q 3016 3291 2770 3770 
Q 2525 4250 2034 4250 
z
M 2034 4750 
Q 2819 4750 3233 4129 
Q 3647 3509 3647 2328 
Q 3647 1150 3233 529 
Q 2819 -91 2034 -91 
Q 1250 -91 836 529 
Q 422 1150 422 2328 
Q 422 3509 836 4129 
Q 1250 4750 2034 4750 
z
" transform="scale(0.015625)"/>
       </defs>
       <use xlink:href="#DejaVuSans-30"/>
      </g>
     </g>
    </g>
    <g id="xtick_2">
     <g id="line2d_3">
      <path d="M 184.104527 233.003944 
L 184.104527 40.6624 
" clip-path="url(#p779038677d)" style="fill: none; stroke: #ffffff; stroke-width: 0.8; stroke-linecap: square"/>
     </g>
     <g id="line2d_4">
      <g>
       <use xlink:href="#m540d2d1488" x="184.104527" y="233.003944" style="fill: #555555; stroke: #555555; stroke-width: 0.8"/>
      </g>
     </g>
     <g id="text_2">
      <!-- 10 -->
      <g style="fill: #555555" transform="translate(174.942527 250.945694)scale(0.144 -0.144)">
       <defs>
        <path id="DejaVuSans-31" d="M 794 531 
L 1825 531 
L 1825 4091 
L 703 3866 
L 703 4441 
L 1819 4666 
L 2450 4666 
L 2450 531 
L 3481 531 
L 3481 0 
L 794 0 
L 794 531 
z
" transform="scale(0.015625)"/>
       </defs>
       <use xlink:href="#DejaVuSans-31"/>
       <use xlink:href="#DejaVuSans-30" x="63.623047"/>
      </g>
     </g>
    </g>
    <g id="xtick_3">
     <g id="line2d_5">
      <path d="M 248.578229 233.003944 
L 248.578229 40.6624 
" clip-path="url(#p779038677d)" style="fill: none; stroke: #ffffff; stroke-width: 0.8; stroke-linecap: square"/>
     </g>
     <g id="line2d_6">
      <g>
       <use xlink:href="#m540d2d1488" x="248.578229" y="233.003944" style="fill: #555555; stroke: #555555; stroke-width: 0.8"/>
      </g>
     </g>
     <g id="text_3">
      <!-- 20 -->
      <g style="fill: #555555" transform="translate(239.416229 250.945694)scale(0.144 -0.144)">
       <defs>
        <path id="DejaVuSans-32" d="M 1228 531 
L 3431 531 
L 3431 0 
L 469 0 
L 469 531 
Q 828 903 1448 1529 
Q 2069 2156 2228 2338 
Q 2531 2678 2651 2914 
Q 2772 3150 2772 3378 
Q 2772 3750 2511 3984 
Q 2250 4219 1831 4219 
Q 1534 4219 1204 4116 
Q 875 4013 500 3803 
L 500 4441 
Q 881 4594 1212 4672 
Q 1544 4750 1819 4750 
Q 2544 4750 2975 4387 
Q 3406 4025 3406 3419 
Q 3406 3131 3298 2873 
Q 3191 2616 2906 2266 
Q 2828 2175 2409 1742 
Q 1991 1309 1228 531 
z
" transform="scale(0.015625)"/>
       </defs>
       <use xlink:href="#DejaVuSans-32"/>
       <use xlink:href="#DejaVuSans-30" x="63.623047"/>
      </g>
     </g>
    </g>
    <g id="xtick_4">
     <g id="line2d_7">
      <path d="M 313.051931 233.003944 
L 313.051931 40.6624 
" clip-path="url(#p779038677d)" style="fill: none; stroke: #ffffff; stroke-width: 0.8; stroke-linecap: square"/>
     </g>
     <g id="line2d_8">
      <g>
       <use xlink:href="#m540d2d1488" x="313.051931" y="233.003944" style="fill: #555555; stroke: #555555; stroke-width: 0.8"/>
      </g>
     </g>
     <g id="text_4">
      <!-- 30 -->
      <g style="fill: #555555" transform="translate(303.889931 250.945694)scale(0.144 -0.144)">
       <defs>
        <path id="DejaVuSans-33" d="M 2597 2516 
Q 3050 2419 3304 2112 
Q 3559 1806 3559 1356 
Q 3559 666 3084 287 
Q 2609 -91 1734 -91 
Q 1441 -91 1130 -33 
Q 819 25 488 141 
L 488 750 
Q 750 597 1062 519 
Q 1375 441 1716 441 
Q 2309 441 2620 675 
Q 2931 909 2931 1356 
Q 2931 1769 2642 2001 
Q 2353 2234 1838 2234 
L 1294 2234 
L 1294 2753 
L 1863 2753 
Q 2328 2753 2575 2939 
Q 2822 3125 2822 3475 
Q 2822 3834 2567 4026 
Q 2313 4219 1838 4219 
Q 1578 4219 1281 4162 
Q 984 4106 628 3988 
L 628 4550 
Q 988 4650 1302 4700 
Q 1616 4750 1894 4750 
Q 2613 4750 3031 4423 
Q 3450 4097 3450 3541 
Q 3450 3153 3228 2886 
Q 3006 2619 2597 2516 
z
" transform="scale(0.015625)"/>
       </defs>
       <use xlink:href="#DejaVuSans-33"/>
       <use xlink:href="#DejaVuSans-30" x="63.623047"/>
      </g>
     </g>
    </g>
    <g id="xtick_5">
     <g id="line2d_9">
      <path d="M 377.525632 233.003944 
L 377.525632 40.6624 
" clip-path="url(#p779038677d)" style="fill: none; stroke: #ffffff; stroke-width: 0.8; stroke-linecap: square"/>
     </g>
     <g id="line2d_10">
      <g>
       <use xlink:href="#m540d2d1488" x="377.525632" y="233.003944" style="fill: #555555; stroke: #555555; stroke-width: 0.8"/>
      </g>
     </g>
     <g id="text_5">
      <!-- 40 -->
      <g style="fill: #555555" transform="translate(368.363632 250.945694)scale(0.144 -0.144)">
       <defs>
        <path id="DejaVuSans-34" d="M 2419 4116 
L 825 1625 
L 2419 1625 
L 2419 4116 
z
M 2253 4666 
L 3047 4666 
L 3047 1625 
L 3713 1625 
L 3713 1100 
L 3047 1100 
L 3047 0 
L 2419 0 
L 2419 1100 
L 313 1100 
L 313 1709 
L 2253 4666 
z
" transform="scale(0.015625)"/>
       </defs>
       <use xlink:href="#DejaVuSans-34"/>
       <use xlink:href="#DejaVuSans-30" x="63.623047"/>
      </g>
     </g>
    </g>
    <g id="xtick_6">
     <g id="line2d_11">
      <path d="M 441.999334 233.003944 
L 441.999334 40.6624 
" clip-path="url(#p779038677d)" style="fill: none; stroke: #ffffff; stroke-width: 0.8; stroke-linecap: square"/>
     </g>
     <g id="line2d_12">
      <g>
       <use xlink:href="#m540d2d1488" x="441.999334" y="233.003944" style="fill: #555555; stroke: #555555; stroke-width: 0.8"/>
      </g>
     </g>
     <g id="text_6">
      <!-- 50 -->
      <g style="fill: #555555" transform="translate(432.837334 250.945694)scale(0.144 -0.144)">
       <defs>
        <path id="DejaVuSans-35" d="M 691 4666 
L 3169 4666 
L 3169 4134 
L 1269 4134 
L 1269 2991 
Q 1406 3038 1543 3061 
Q 1681 3084 1819 3084 
Q 2600 3084 3056 2656 
Q 3513 2228 3513 1497 
Q 3513 744 3044 326 
Q 2575 -91 1722 -91 
Q 1428 -91 1123 -41 
Q 819 9 494 109 
L 494 744 
Q 775 591 1075 516 
Q 1375 441 1709 441 
Q 2250 441 2565 725 
Q 2881 1009 2881 1497 
Q 2881 1984 2565 2268 
Q 2250 2553 1709 2553 
Q 1456 2553 1204 2497 
Q 953 2441 691 2322 
L 691 4666 
z
" transform="scale(0.015625)"/>
       </defs>
       <use xlink:href="#DejaVuSans-35"/>
       <use xlink:href="#DejaVuSans-30" x="63.623047"/>
      </g>
     </g>
    </g>
    <g id="text_7">
     <!-- $τ$ -->
     <g style="fill: #555555" transform="translate(275.54468 271.070544)scale(0.1728 -0.1728)">
      <defs>
       <path id="DejaVuSans-Oblique-3c4" d="M 2103 638 
Q 2188 488 2525 488 
L 2800 488 
L 2706 0 
L 2363 0 
Q 1800 0 1600 300 
Q 1403 606 1534 1269 
L 1856 2925 
L 541 2925 
L 653 3500 
L 3881 3500 
L 3769 2925 
L 2444 2925 
L 2113 1234 
Q 2025 781 2103 638 
z
" transform="scale(0.015625)"/>
      </defs>
      <use xlink:href="#DejaVuSans-Oblique-3c4" transform="translate(0 0.3125)"/>
     </g>
    </g>
   </g>
   <g id="matplotlib.axis_2">
    <g id="ytick_1">
     <g id="line2d_13">
      <path d="M 103.5124 224.261146 
L 458.117759 224.261146 
" clip-path="url(#p779038677d)" style="fill: none; stroke: #ffffff; stroke-width: 0.8; stroke-linecap: square"/>
     </g>
     <g id="line2d_14">
      <defs>
       <path id="mf66a815387" d="M 0 0 
L -3.5 0 
" style="stroke: #555555; stroke-width: 0.8"/>
      </defs>
      <g>
       <use xlink:href="#mf66a815387" x="103.5124" y="224.261146" style="fill: #555555; stroke: #555555; stroke-width: 0.8"/>
      </g>
     </g>
     <g id="text_8">
      <!-- 0.0000 -->
      <g style="fill: #555555" transform="translate(46.1259 229.732021)scale(0.144 -0.144)">
       <defs>
        <path id="DejaVuSans-2e" d="M 684 794 
L 1344 794 
L 1344 0 
L 684 0 
L 684 794 
z
" transform="scale(0.015625)"/>
       </defs>
       <use xlink:href="#DejaVuSans-30"/>
       <use xlink:href="#DejaVuSans-2e" x="63.623047"/>
       <use xlink:href="#DejaVuSans-30" x="95.410156"/>
       <use xlink:href="#DejaVuSans-30" x="159.033203"/>
       <use xlink:href="#DejaVuSans-30" x="222.65625"/>
       <use xlink:href="#DejaVuSans-30" x="286.279297"/>
      </g>
     </g>
    </g>
    <g id="ytick_2">
     <g id="line2d_15">
      <path d="M 103.5124 189.396603 
L 458.117759 189.396603 
" clip-path="url(#p779038677d)" style="fill: none; stroke: #ffffff; stroke-width: 0.8; stroke-linecap: square"/>
     </g>
     <g id="line2d_16">
      <g>
       <use xlink:href="#mf66a815387" x="103.5124" y="189.396603" style="fill: #555555; stroke: #555555; stroke-width: 0.8"/>
      </g>
     </g>
     <g id="text_9">
      <!-- 0.0001 -->
      <g style="fill: #555555" transform="translate(46.1259 194.867478)scale(0.144 -0.144)">
       <use xlink:href="#DejaVuSans-30"/>
       <use xlink:href="#DejaVuSans-2e" x="63.623047"/>
       <use xlink:href="#DejaVuSans-30" x="95.410156"/>
       <use xlink:href="#DejaVuSans-30" x="159.033203"/>
       <use xlink:href="#DejaVuSans-30" x="222.65625"/>
       <use xlink:href="#DejaVuSans-31" x="286.279297"/>
      </g>
     </g>
    </g>
    <g id="ytick_3">
     <g id="line2d_17">
      <path d="M 103.5124 154.532059 
L 458.117759 154.532059 
" clip-path="url(#p779038677d)" style="fill: none; stroke: #ffffff; stroke-width: 0.8; stroke-linecap: square"/>
     </g>
     <g id="line2d_18">
      <g>
       <use xlink:href="#mf66a815387" x="103.5124" y="154.532059" style="fill: #555555; stroke: #555555; stroke-width: 0.8"/>
      </g>
     </g>
     <g id="text_10">
      <!-- 0.0002 -->
      <g style="fill: #555555" transform="translate(46.1259 160.002934)scale(0.144 -0.144)">
       <use xlink:href="#DejaVuSans-30"/>
       <use xlink:href="#DejaVuSans-2e" x="63.623047"/>
       <use xlink:href="#DejaVuSans-30" x="95.410156"/>
       <use xlink:href="#DejaVuSans-30" x="159.033203"/>
       <use xlink:href="#DejaVuSans-30" x="222.65625"/>
       <use xlink:href="#DejaVuSans-32" x="286.279297"/>
      </g>
     </g>
    </g>
    <g id="ytick_4">
     <g id="line2d_19">
      <path d="M 103.5124 119.667516 
L 458.117759 119.667516 
" clip-path="url(#p779038677d)" style="fill: none; stroke: #ffffff; stroke-width: 0.8; stroke-linecap: square"/>
     </g>
     <g id="line2d_20">
      <g>
       <use xlink:href="#mf66a815387" x="103.5124" y="119.667516" style="fill: #555555; stroke: #555555; stroke-width: 0.8"/>
      </g>
     </g>
     <g id="text_11">
      <!-- 0.0003 -->
      <g style="fill: #555555" transform="translate(46.1259 125.138391)scale(0.144 -0.144)">
       <use xlink:href="#DejaVuSans-30"/>
       <use xlink:href="#DejaVuSans-2e" x="63.623047"/>
       <use xlink:href="#DejaVuSans-30" x="95.410156"/>
       <use xlink:href="#DejaVuSans-30" x="159.033203"/>
       <use xlink:href="#DejaVuSans-30" x="222.65625"/>
       <use xlink:href="#DejaVuSans-33" x="286.279297"/>
      </g>
     </g>
    </g>
    <g id="ytick_5">
     <g id="line2d_21">
      <path d="M 103.5124 84.802972 
L 458.117759 84.802972 
" clip-path="url(#p779038677d)" style="fill: none; stroke: #ffffff; stroke-width: 0.8; stroke-linecap: square"/>
     </g>
     <g id="line2d_22">
      <g>
       <use xlink:href="#mf66a815387" x="103.5124" y="84.802972" style="fill: #555555; stroke: #555555; stroke-width: 0.8"/>
      </g>
     </g>
     <g id="text_12">
      <!-- 0.0004 -->
      <g style="fill: #555555" transform="translate(46.1259 90.273847)scale(0.144 -0.144)">
       <use xlink:href="#DejaVuSans-30"/>
       <use xlink:href="#DejaVuSans-2e" x="63.623047"/>
       <use xlink:href="#DejaVuSans-30" x="95.410156"/>
       <use xlink:href="#DejaVuSans-30" x="159.033203"/>
       <use xlink:href="#DejaVuSans-30" x="222.65625"/>
       <use xlink:href="#DejaVuSans-34" x="286.279297"/>
      </g>
     </g>
    </g>
    <g id="ytick_6">
     <g id="line2d_23">
      <path d="M 103.5124 49.938428 
L 458.117759 49.938428 
" clip-path="url(#p779038677d)" style="fill: none; stroke: #ffffff; stroke-width: 0.8; stroke-linecap: square"/>
     </g>
     <g id="line2d_24">
      <g>
       <use xlink:href="#mf66a815387" x="103.5124" y="49.938428" style="fill: #555555; stroke: #555555; stroke-width: 0.8"/>
      </g>
     </g>
     <g id="text_13">
      <!-- 0.0005 -->
      <g style="fill: #555555" transform="translate(46.1259 55.409303)scale(0.144 -0.144)">
       <use xlink:href="#DejaVuSans-30"/>
       <use xlink:href="#DejaVuSans-2e" x="63.623047"/>
       <use xlink:href="#DejaVuSans-30" x="95.410156"/>
       <use xlink:href="#DejaVuSans-30" x="159.033203"/>
       <use xlink:href="#DejaVuSans-30" x="222.65625"/>
       <use xlink:href="#DejaVuSans-35" x="286.279297"/>
      </g>
     </g>
    </g>
    <g id="text_14">
     <!-- $|{J}_{\mathrm{ref}}-{J}_{N_i}|$ -->
     <g style="fill: #555555" transform="translate(37.2875 173.034772)rotate(-90)scale(0.1728 -0.1728)">
      <defs>
       <path id="DejaVuSans-7c" d="M 1344 4891 
L 1344 -1509 
L 813 -1509 
L 813 4891 
L 1344 4891 
z
" transform="scale(0.015625)"/>
       <path id="DejaVuSans-Oblique-4a" d="M 1069 4666 
L 1703 4666 
L 856 325 
Q 691 -522 298 -901 
Q -94 -1281 -800 -1281 
L -1050 -1281 
L -947 -750 
L -750 -750 
Q -328 -750 -109 -509 
Q 109 -269 225 325 
L 1069 4666 
z
" transform="scale(0.015625)"/>
       <path id="DejaVuSans-72" d="M 2631 2963 
Q 2534 3019 2420 3045 
Q 2306 3072 2169 3072 
Q 1681 3072 1420 2755 
Q 1159 2438 1159 1844 
L 1159 0 
L 581 0 
L 581 3500 
L 1159 3500 
L 1159 2956 
Q 1341 3275 1631 3429 
Q 1922 3584 2338 3584 
Q 2397 3584 2469 3576 
Q 2541 3569 2628 3553 
L 2631 2963 
z
" transform="scale(0.015625)"/>
       <path id="DejaVuSans-65" d="M 3597 1894 
L 3597 1613 
L 953 1613 
Q 991 1019 1311 708 
Q 1631 397 2203 397 
Q 2534 397 2845 478 
Q 3156 559 3463 722 
L 3463 178 
Q 3153 47 2828 -22 
Q 2503 -91 2169 -91 
Q 1331 -91 842 396 
Q 353 884 353 1716 
Q 353 2575 817 3079 
Q 1281 3584 2069 3584 
Q 2775 3584 3186 3129 
Q 3597 2675 3597 1894 
z
M 3022 2063 
Q 3016 2534 2758 2815 
Q 2500 3097 2075 3097 
Q 1594 3097 1305 2825 
Q 1016 2553 972 2059 
L 3022 2063 
z
" transform="scale(0.015625)"/>
       <path id="DejaVuSans-66" d="M 2375 4863 
L 2375 4384 
L 1825 4384 
Q 1516 4384 1395 4259 
Q 1275 4134 1275 3809 
L 1275 3500 
L 2222 3500 
L 2222 3053 
L 1275 3053 
L 1275 0 
L 697 0 
L 697 3053 
L 147 3053 
L 147 3500 
L 697 3500 
L 697 3744 
Q 697 4328 969 4595 
Q 1241 4863 1831 4863 
L 2375 4863 
z
" transform="scale(0.015625)"/>
       <path id="DejaVuSans-2212" d="M 678 2272 
L 4684 2272 
L 4684 1741 
L 678 1741 
L 678 2272 
z
" transform="scale(0.015625)"/>
       <path id="DejaVuSans-Oblique-4e" d="M 1081 4666 
L 1931 4666 
L 3219 666 
L 4000 4666 
L 4616 4666 
L 3706 0 
L 2853 0 
L 1569 4025 
L 788 0 
L 172 0 
L 1081 4666 
z
" transform="scale(0.015625)"/>
       <path id="DejaVuSans-Oblique-69" d="M 1172 4863 
L 1747 4863 
L 1606 4134 
L 1031 4134 
L 1172 4863 
z
M 909 3500 
L 1484 3500 
L 800 0 
L 225 0 
L 909 3500 
z
" transform="scale(0.015625)"/>
      </defs>
      <use xlink:href="#DejaVuSans-7c" transform="translate(0 0.578125)"/>
      <use xlink:href="#DejaVuSans-Oblique-4a" transform="translate(33.691406 0.578125)"/>
      <use xlink:href="#DejaVuSans-72" transform="translate(63.183594 -15.828125)scale(0.7)"/>
      <use xlink:href="#DejaVuSans-65" transform="translate(91.962891 -15.828125)scale(0.7)"/>
      <use xlink:href="#DejaVuSans-66" transform="translate(135.029297 -15.828125)scale(0.7)"/>
      <use xlink:href="#DejaVuSans-2212" transform="translate(181.889648 0.578125)"/>
      <use xlink:href="#DejaVuSans-Oblique-4a" transform="translate(285.161133 0.578125)"/>
      <use xlink:href="#DejaVuSans-Oblique-4e" transform="translate(314.65332 -15.828125)scale(0.7)"/>
      <use xlink:href="#DejaVuSans-Oblique-69" transform="translate(367.016602 -27.3125)scale(0.49)"/>
      <use xlink:href="#DejaVuSans-7c" transform="translate(385.278809 0.578125)"/>
     </g>
    </g>
   </g>
   <g id="PolyCollection_1">
    <defs>
     <path id="m6ebf9ee8c9" d="M 119.630825 -70.405197 
L 119.630825 -70.405197 
L 120.278152 -70.405197 
L 120.925478 -70.405197 
L 121.572804 -70.405197 
L 122.220131 -70.405197 
L 122.867457 -70.405197 
L 123.514783 -70.405197 
L 124.16211 -70.405197 
L 124.809436 -70.405197 
L 125.456762 -70.405197 
L 126.104089 -70.405197 
L 126.751415 -70.405197 
L 127.398741 -70.405197 
L 128.046068 -70.405197 
L 128.693394 -70.405197 
L 129.34072 -70.405197 
L 129.988047 -70.405197 
L 130.635373 -70.405197 
L 131.282699 -70.405197 
L 131.930026 -70.405197 
L 132.577352 -70.405197 
L 133.224678 -70.405197 
L 133.872005 -70.405197 
L 134.519331 -70.405197 
L 135.166657 -70.405197 
L 135.813983 -70.405197 
L 136.46131 -70.405197 
L 137.108636 -70.405197 
L 137.755962 -70.405197 
L 138.403289 -70.405197 
L 139.050615 -70.405197 
L 139.697941 -70.405197 
L 140.345268 -70.405197 
L 140.992594 -70.405197 
L 141.63992 -70.405197 
L 142.287247 -70.405197 
L 142.934573 -70.405197 
L 143.581899 -70.405197 
L 144.229226 -70.405197 
L 144.876552 -70.405197 
L 145.523878 -70.405197 
L 146.171205 -70.405197 
L 146.818531 -70.405197 
L 147.465857 -70.405197 
L 148.113184 -70.405197 
L 148.76051 -70.405197 
L 149.407836 -70.405197 
L 150.055163 -70.405197 
L 150.702489 -70.405197 
L 151.349815 -70.405197 
L 151.997142 -70.405197 
L 152.644468 -70.405197 
L 153.291794 -70.405197 
L 153.939121 -70.405197 
L 154.586447 -70.405197 
L 155.233773 -70.405197 
L 155.881099 -70.405197 
L 156.528426 -70.405197 
L 157.175752 -70.405197 
L 157.823078 -70.405197 
L 158.470405 -70.405197 
L 159.117731 -70.405197 
L 159.765057 -70.405197 
L 160.412384 -70.405197 
L 161.05971 -70.405197 
L 161.707036 -70.405197 
L 162.354363 -70.405197 
L 163.001689 -70.405197 
L 163.649015 -70.405197 
L 164.296342 -70.405197 
L 164.943668 -70.405197 
L 165.590994 -70.405197 
L 166.238321 -70.405197 
L 166.885647 -70.405197 
L 167.532973 -70.405197 
L 168.1803 -70.405197 
L 168.827626 -70.405197 
L 169.474952 -70.405197 
L 170.122279 -70.405197 
L 170.769605 -70.405197 
L 171.416931 -70.405197 
L 172.064258 -70.405197 
L 172.711584 -70.405197 
L 173.35891 -70.405197 
L 174.006237 -70.405197 
L 174.653563 -70.405197 
L 175.300889 -70.405197 
L 175.948215 -70.405197 
L 176.595542 -70.405197 
L 177.242868 -70.405197 
L 177.890194 -70.405197 
L 178.537521 -70.405197 
L 179.184847 -70.405197 
L 179.832173 -70.405197 
L 180.4795 -70.405197 
L 181.126826 -70.405197 
L 181.774152 -70.405197 
L 182.421479 -70.405197 
L 183.068805 -70.405197 
L 183.716131 -70.405197 
L 184.363458 -70.405197 
L 185.010784 -70.405197 
L 185.65811 -70.405197 
L 186.305437 -70.405197 
L 186.952763 -70.405197 
L 187.600089 -70.405197 
L 188.247416 -70.405197 
L 188.894742 -70.405197 
L 189.542068 -70.405197 
L 190.189395 -70.405197 
L 190.836721 -70.405197 
L 191.484047 -70.405197 
L 192.131374 -70.405197 
L 192.7787 -70.405197 
L 193.426026 -70.405197 
L 194.073353 -70.405197 
L 194.720679 -70.405197 
L 195.368005 -70.405197 
L 196.015331 -70.405197 
L 196.662658 -70.405197 
L 197.309984 -70.405197 
L 197.95731 -70.405197 
L 198.604637 -70.405197 
L 199.251963 -70.405197 
L 199.899289 -70.405197 
L 200.546616 -70.405197 
L 201.193942 -70.405197 
L 201.841268 -70.405197 
L 202.488595 -70.405197 
L 203.135921 -70.405197 
L 203.783247 -70.405197 
L 204.430574 -70.405197 
L 205.0779 -70.405197 
L 205.725226 -70.405197 
L 206.372553 -70.405197 
L 207.019879 -70.405197 
L 207.667205 -70.405197 
L 208.314532 -70.405197 
L 208.961858 -70.405197 
L 209.609184 -70.405197 
L 210.256511 -70.405197 
L 210.903837 -70.405197 
L 211.551163 -70.405197 
L 212.19849 -70.405197 
L 212.845816 -70.405197 
L 213.493142 -70.405197 
L 214.140468 -70.405197 
L 214.787795 -70.405197 
L 215.435121 -70.405197 
L 216.082447 -70.405197 
L 216.729774 -70.405197 
L 217.3771 -70.405197 
L 218.024426 -70.405197 
L 218.671753 -70.405197 
L 219.319079 -70.405197 
L 219.966405 -70.405197 
L 220.613732 -70.405197 
L 221.261058 -70.405197 
L 221.908384 -70.405197 
L 222.555711 -70.405197 
L 223.203037 -70.405197 
L 223.850363 -70.405197 
L 224.49769 -70.405197 
L 225.145016 -70.405197 
L 225.792342 -70.405197 
L 226.439669 -70.405197 
L 227.086995 -70.405197 
L 227.734321 -70.405197 
L 228.381648 -70.405197 
L 229.028974 -70.405197 
L 229.6763 -70.405197 
L 230.323627 -70.405197 
L 230.970953 -70.405197 
L 231.618279 -70.405197 
L 232.265606 -70.405197 
L 232.912932 -70.405197 
L 233.560258 -70.405197 
L 234.207584 -70.405197 
L 234.854911 -70.405197 
L 235.502237 -70.405197 
L 236.149563 -70.405197 
L 236.79689 -70.405197 
L 237.444216 -70.405197 
L 238.091542 -70.405197 
L 238.738869 -70.405197 
L 239.386195 -70.405197 
L 240.033521 -70.405197 
L 240.680848 -70.405197 
L 241.328174 -70.405197 
L 241.9755 -70.405197 
L 242.622827 -70.405197 
L 243.270153 -70.405197 
L 243.917479 -70.405197 
L 244.564806 -70.405197 
L 245.212132 -70.405197 
L 245.859458 -70.405197 
L 246.506785 -70.405197 
L 247.154111 -70.405197 
L 247.801437 -70.405197 
L 248.448764 -70.405197 
L 249.09609 -70.405197 
L 249.743416 -70.405197 
L 250.390743 -70.405197 
L 251.038069 -70.405197 
L 251.685395 -70.405197 
L 252.332722 -70.405197 
L 252.980048 -70.405197 
L 253.627374 -70.405197 
L 254.2747 -70.405197 
L 254.922027 -70.405197 
L 255.569353 -70.405197 
L 256.216679 -70.405197 
L 256.864006 -70.405197 
L 257.511332 -70.405197 
L 258.158658 -70.405197 
L 258.805985 -70.405197 
L 259.453311 -70.405197 
L 260.100637 -70.405197 
L 260.747964 -70.405197 
L 261.39529 -70.405197 
L 262.042616 -70.405197 
L 262.689943 -70.405197 
L 263.337269 -70.405197 
L 263.984595 -70.405197 
L 264.631922 -70.405197 
L 265.279248 -70.405197 
L 265.926574 -70.405197 
L 266.573901 -70.405197 
L 267.221227 -70.405197 
L 267.868553 -70.405197 
L 268.51588 -70.405197 
L 269.163206 -70.405197 
L 269.810532 -70.405197 
L 270.457859 -70.405197 
L 271.105185 -70.405197 
L 271.752511 -70.405197 
L 272.399838 -70.405197 
L 273.047164 -70.405197 
L 273.69449 -70.405197 
L 274.341816 -70.405197 
L 274.989143 -70.405197 
L 275.636469 -70.405197 
L 276.283795 -70.405197 
L 276.931122 -70.405197 
L 277.578448 -70.405197 
L 278.225774 -70.405197 
L 278.873101 -70.405197 
L 279.520427 -70.405197 
L 280.167753 -70.405197 
L 280.81508 -70.405197 
L 281.462406 -70.405197 
L 282.109732 -70.405197 
L 282.757059 -70.405197 
L 283.404385 -70.405197 
L 284.051711 -70.405197 
L 284.699038 -70.405197 
L 285.346364 -70.405197 
L 285.99369 -70.405197 
L 286.641017 -70.405197 
L 287.288343 -70.405197 
L 287.935669 -70.405197 
L 288.582996 -70.405197 
L 289.230322 -70.405197 
L 289.877648 -70.405197 
L 290.524975 -70.405197 
L 291.172301 -70.405197 
L 291.819627 -70.405197 
L 292.466954 -70.405197 
L 293.11428 -70.405197 
L 293.761606 -70.405197 
L 294.408932 -70.405197 
L 295.056259 -70.405197 
L 295.703585 -70.405197 
L 296.350911 -70.405197 
L 296.998238 -70.405197 
L 297.645564 -70.405197 
L 298.29289 -70.405197 
L 298.940217 -70.405197 
L 299.587543 -70.405197 
L 300.234869 -70.405197 
L 300.882196 -70.405197 
L 301.529522 -70.405197 
L 302.176848 -70.405197 
L 302.824175 -70.405197 
L 303.471501 -70.405197 
L 304.118827 -70.405197 
L 304.766154 -70.405197 
L 305.41348 -70.405197 
L 306.060806 -70.405197 
L 306.708133 -70.405197 
L 307.355459 -70.405197 
L 308.002785 -70.405197 
L 308.650112 -70.405197 
L 309.297438 -70.405197 
L 309.944764 -70.405197 
L 310.592091 -70.405197 
L 311.239417 -70.405197 
L 311.886743 -70.405197 
L 312.534069 -70.405197 
L 313.181396 -70.405197 
L 313.828722 -70.405197 
L 314.476048 -70.405197 
L 315.123375 -70.405197 
L 315.770701 -70.405197 
L 316.418027 -70.405197 
L 317.065354 -70.405197 
L 317.71268 -70.405197 
L 318.360006 -70.405197 
L 319.007333 -70.405197 
L 319.654659 -70.405197 
L 320.301985 -70.405197 
L 320.949312 -70.405197 
L 321.596638 -70.405197 
L 322.243964 -70.405197 
L 322.891291 -70.405197 
L 323.538617 -70.405197 
L 324.185943 -70.405197 
L 324.83327 -70.405197 
L 325.480596 -70.405197 
L 326.127922 -70.405197 
L 326.775249 -70.405197 
L 327.422575 -70.405197 
L 328.069901 -70.405197 
L 328.717228 -70.405197 
L 329.364554 -70.405197 
L 330.01188 -70.405197 
L 330.659207 -70.405197 
L 331.306533 -70.405197 
L 331.953859 -70.405197 
L 332.601185 -70.405197 
L 333.248512 -70.405197 
L 333.895838 -70.405197 
L 334.543164 -70.405197 
L 335.190491 -70.405197 
L 335.837817 -70.405197 
L 336.485143 -70.405197 
L 337.13247 -70.405197 
L 337.779796 -70.405197 
L 338.427122 -70.405197 
L 339.074449 -70.405197 
L 339.721775 -70.405197 
L 340.369101 -70.405197 
L 341.016428 -70.405197 
L 341.663754 -70.405197 
L 342.31108 -70.405197 
L 342.958407 -70.405197 
L 343.605733 -70.405197 
L 344.253059 -70.405197 
L 344.900386 -70.405197 
L 345.547712 -70.405197 
L 346.195038 -70.405197 
L 346.842365 -70.405197 
L 347.489691 -70.405197 
L 348.137017 -70.405197 
L 348.784344 -70.405197 
L 349.43167 -70.405197 
L 350.078996 -70.405197 
L 350.726323 -70.405197 
L 351.373649 -70.405197 
L 352.020975 -70.405197 
L 352.668301 -70.405197 
L 353.315628 -70.405197 
L 353.962954 -70.405197 
L 354.61028 -70.405197 
L 355.257607 -70.405197 
L 355.904933 -70.405197 
L 356.552259 -70.405197 
L 357.199586 -70.405197 
L 357.846912 -70.405197 
L 358.494238 -70.405197 
L 359.141565 -70.405197 
L 359.788891 -70.405197 
L 360.436217 -70.405197 
L 361.083544 -70.405197 
L 361.73087 -70.405197 
L 362.378196 -70.405197 
L 363.025523 -70.405197 
L 363.672849 -70.405197 
L 364.320175 -70.405197 
L 364.967502 -70.405197 
L 365.614828 -70.405197 
L 366.262154 -70.405197 
L 366.909481 -70.405197 
L 367.556807 -70.405197 
L 368.204133 -70.405197 
L 368.85146 -70.405197 
L 369.498786 -70.405197 
L 370.146112 -70.405197 
L 370.793439 -70.405197 
L 371.440765 -70.405197 
L 372.088091 -70.405197 
L 372.735417 -70.405197 
L 373.382744 -70.405197 
L 374.03007 -70.405197 
L 374.677396 -70.405197 
L 375.324723 -70.405197 
L 375.972049 -70.405197 
L 376.619375 -70.405197 
L 377.266702 -70.405197 
L 377.914028 -70.405197 
L 378.561354 -70.405197 
L 379.208681 -70.405197 
L 379.856007 -70.405197 
L 380.503333 -70.405197 
L 381.15066 -70.405197 
L 381.797986 -70.405197 
L 382.445312 -70.405197 
L 383.092639 -70.405197 
L 383.739965 -70.405197 
L 384.387291 -70.405197 
L 385.034618 -70.405197 
L 385.681944 -70.405197 
L 386.32927 -70.405197 
L 386.976597 -70.405197 
L 387.623923 -70.405197 
L 388.271249 -70.405197 
L 388.918576 -70.405197 
L 389.565902 -70.405197 
L 390.213228 -70.405197 
L 390.860555 -70.405197 
L 391.507881 -70.405197 
L 392.155207 -70.405197 
L 392.802533 -70.405197 
L 393.44986 -70.405197 
L 394.097186 -70.405197 
L 394.744512 -70.405197 
L 395.391839 -70.405197 
L 396.039165 -70.405197 
L 396.686491 -70.405197 
L 397.333818 -70.405197 
L 397.981144 -70.405197 
L 398.62847 -70.405197 
L 399.275797 -70.405197 
L 399.923123 -70.405197 
L 400.570449 -70.405197 
L 401.217776 -70.405197 
L 401.865102 -70.405197 
L 402.512428 -70.405197 
L 403.159755 -70.405197 
L 403.807081 -70.405197 
L 404.454407 -70.405197 
L 405.101734 -70.405197 
L 405.74906 -70.405197 
L 406.396386 -70.405197 
L 407.043713 -70.405197 
L 407.691039 -70.405197 
L 408.338365 -70.405197 
L 408.985692 -70.405197 
L 409.633018 -70.405197 
L 410.280344 -70.405197 
L 410.927671 -70.405197 
L 411.574997 -70.405197 
L 412.222323 -70.405197 
L 412.869649 -70.405197 
L 413.516976 -70.405197 
L 414.164302 -70.405197 
L 414.811628 -70.405197 
L 415.458955 -70.405197 
L 416.106281 -70.405197 
L 416.753607 -70.405197 
L 417.400934 -70.405197 
L 418.04826 -70.405197 
L 418.695586 -70.405197 
L 419.342913 -70.405197 
L 419.990239 -70.405197 
L 420.637565 -70.405197 
L 421.284892 -70.405197 
L 421.932218 -70.405197 
L 422.579544 -70.405197 
L 423.226871 -70.405197 
L 423.874197 -70.405197 
L 424.521523 -70.405197 
L 425.16885 -70.405197 
L 425.816176 -70.405197 
L 426.463502 -70.405197 
L 427.110829 -70.405197 
L 427.758155 -70.405197 
L 428.405481 -70.405197 
L 429.052808 -70.405197 
L 429.700134 -70.405197 
L 430.34746 -70.405197 
L 430.994786 -70.405197 
L 431.642113 -70.405197 
L 432.289439 -70.405197 
L 432.936765 -70.405197 
L 433.584092 -70.405197 
L 434.231418 -70.405197 
L 434.878744 -70.405197 
L 435.526071 -70.405197 
L 436.173397 -70.405197 
L 436.820723 -70.405197 
L 437.46805 -70.405197 
L 438.115376 -70.405197 
L 438.762702 -70.405197 
L 439.410029 -70.405197 
L 440.057355 -70.405197 
L 440.704681 -70.405197 
L 441.352008 -70.405197 
L 441.999334 -70.405197 
L 441.999334 -124.344783 
L 441.999334 -124.344783 
L 441.352008 -124.816593 
L 440.704681 -125.366418 
L 440.057355 -125.936191 
L 439.410029 -126.489484 
L 438.762702 -127.010202 
L 438.115376 -127.480757 
L 437.46805 -127.865563 
L 436.820723 -128.08319 
L 436.173397 -128.050599 
L 435.526071 -127.775142 
L 434.878744 -127.291534 
L 434.231418 -126.610312 
L 433.584092 -125.785664 
L 432.936765 -124.954303 
L 432.289439 -124.271107 
L 431.642113 -123.78256 
L 430.994786 -123.433136 
L 430.34746 -123.175175 
L 429.700134 -123.004685 
L 429.052808 -122.906237 
L 428.405481 -122.861816 
L 427.758155 -122.875865 
L 427.110829 -122.952415 
L 426.463502 -123.06299 
L 425.816176 -123.175874 
L 425.16885 -123.287948 
L 424.521523 -123.386524 
L 423.874197 -123.45396 
L 423.226871 -123.499261 
L 422.579544 -123.533486 
L 421.932218 -123.581444 
L 421.284892 -123.685297 
L 420.637565 -123.892191 
L 419.990239 -124.177904 
L 419.342913 -124.445136 
L 418.695586 -124.591432 
L 418.04826 -124.593703 
L 417.400934 -124.50426 
L 416.753607 -124.373778 
L 416.106281 -124.227896 
L 415.458955 -124.059046 
L 414.811628 -123.859822 
L 414.164302 -123.619858 
L 413.516976 -123.325269 
L 412.869649 -123.006786 
L 412.222323 -122.731833 
L 411.574997 -122.502068 
L 410.927671 -122.326217 
L 410.280344 -122.272605 
L 409.633018 -122.36471 
L 408.985692 -122.541169 
L 408.338365 -122.708336 
L 407.691039 -122.779475 
L 407.043713 -122.704946 
L 406.396386 -122.515405 
L 405.74906 -122.302241 
L 405.101734 -122.127488 
L 404.454407 -121.979024 
L 403.807081 -121.81211 
L 403.159755 -121.615819 
L 402.512428 -121.459252 
L 401.865102 -121.390437 
L 401.217776 -121.390112 
L 400.570449 -121.454168 
L 399.923123 -121.597827 
L 399.275797 -121.802121 
L 398.62847 -122.018027 
L 397.981144 -122.236894 
L 397.333818 -122.468913 
L 396.686491 -122.658272 
L 396.039165 -122.700556 
L 395.391839 -122.588995 
L 394.744512 -122.399716 
L 394.097186 -122.173355 
L 393.44986 -121.920442 
L 392.802533 -121.69025 
L 392.155207 -121.519117 
L 391.507881 -121.37261 
L 390.860555 -121.259078 
L 390.213228 -121.220949 
L 389.565902 -121.23072 
L 388.918576 -121.277469 
L 388.271249 -121.399375 
L 387.623923 -121.596645 
L 386.976597 -121.826297 
L 386.32927 -122.038165 
L 385.681944 -122.213309 
L 385.034618 -122.397559 
L 384.387291 -122.639031 
L 383.739965 -122.909505 
L 383.092639 -123.144231 
L 382.445312 -123.276526 
L 381.797986 -123.280751 
L 381.15066 -123.162656 
L 380.503333 -122.94846 
L 379.856007 -122.701505 
L 379.208681 -122.477934 
L 378.561354 -122.283482 
L 377.914028 -122.111969 
L 377.266702 -121.968446 
L 376.619375 -121.846401 
L 375.972049 -121.782191 
L 375.324723 -121.811441 
L 374.677396 -121.875964 
L 374.03007 -121.919656 
L 373.382744 -121.952181 
L 372.735417 -121.967266 
L 372.088091 -121.930076 
L 371.440765 -121.808456 
L 370.793439 -121.600031 
L 370.146112 -121.395433 
L 369.498786 -121.339312 
L 368.85146 -121.52877 
L 368.204133 -121.96747 
L 367.556807 -122.591608 
L 366.909481 -123.310691 
L 366.262154 -124.041975 
L 365.614828 -124.681309 
L 364.967502 -125.091865 
L 364.320175 -125.173697 
L 363.672849 -124.934898 
L 363.025523 -124.467385 
L 362.378196 -123.800098 
L 361.73087 -122.921141 
L 361.083544 -121.948783 
L 360.436217 -121.118576 
L 359.788891 -120.611626 
L 359.141565 -120.459845 
L 358.494238 -120.612768 
L 357.846912 -120.981898 
L 357.199586 -121.482148 
L 356.552259 -122.004713 
L 355.904933 -122.456531 
L 355.257607 -122.81311 
L 354.61028 -123.069364 
L 353.962954 -123.221097 
L 353.315628 -123.242451 
L 352.668301 -123.14246 
L 352.020975 -122.972827 
L 351.373649 -122.797651 
L 350.726323 -122.648857 
L 350.078996 -122.516468 
L 349.43167 -122.348012 
L 348.784344 -122.049595 
L 348.137017 -121.602885 
L 347.489691 -121.072353 
L 346.842365 -120.526735 
L 346.195038 -119.96529 
L 345.547712 -119.354468 
L 344.900386 -118.741291 
L 344.253059 -118.203906 
L 343.605733 -117.7791 
L 342.958407 -117.525237 
L 342.31108 -117.515759 
L 341.663754 -117.737254 
L 341.016428 -118.094362 
L 340.369101 -118.492994 
L 339.721775 -118.878103 
L 339.074449 -119.218524 
L 338.427122 -119.503321 
L 337.779796 -119.775952 
L 337.13247 -120.080321 
L 336.485143 -120.37978 
L 335.837817 -120.630556 
L 335.190491 -120.823691 
L 334.543164 -120.97277 
L 333.895838 -121.137813 
L 333.248512 -121.310868 
L 332.601185 -121.39263 
L 331.953859 -121.322318 
L 331.306533 -121.11489 
L 330.659207 -120.777616 
L 330.01188 -120.26542 
L 329.364554 -119.579632 
L 328.717228 -118.822404 
L 328.069901 -118.10927 
L 327.422575 -117.530088 
L 326.775249 -117.14639 
L 326.127922 -116.958756 
L 325.480596 -116.926114 
L 324.83327 -117.019852 
L 324.185943 -117.22019 
L 323.538617 -117.458791 
L 322.891291 -117.650733 
L 322.243964 -117.754599 
L 321.596638 -117.792254 
L 320.949312 -117.795991 
L 320.301985 -117.733884 
L 319.654659 -117.588743 
L 319.007333 -117.394336 
L 318.360006 -117.204351 
L 317.71268 -117.064288 
L 317.065354 -117.002197 
L 316.418027 -117.053794 
L 315.770701 -117.209567 
L 315.123375 -117.414967 
L 314.476048 -117.657179 
L 313.828722 -117.964137 
L 313.181396 -118.334628 
L 312.534069 -118.700222 
L 311.886743 -118.961724 
L 311.239417 -119.06312 
L 310.592091 -119.032683 
L 309.944764 -118.924025 
L 309.297438 -118.781006 
L 308.650112 -118.647844 
L 308.002785 -118.556582 
L 307.355459 -118.524996 
L 306.708133 -118.567461 
L 306.060806 -118.667143 
L 305.41348 -118.765408 
L 304.766154 -118.803363 
L 304.118827 -118.746457 
L 303.471501 -118.575707 
L 302.824175 -118.280053 
L 302.176848 -117.881066 
L 301.529522 -117.440834 
L 300.882196 -117.059522 
L 300.234869 -116.814418 
L 299.587543 -116.731379 
L 298.940217 -116.826811 
L 298.29289 -117.083166 
L 297.645564 -117.47894 
L 296.998238 -117.984675 
L 296.350911 -118.516117 
L 295.703585 -118.966132 
L 295.056259 -119.320311 
L 294.408932 -119.602047 
L 293.761606 -119.771679 
L 293.11428 -119.805584 
L 292.466954 -119.761433 
L 291.819627 -119.719864 
L 291.172301 -119.675394 
L 290.524975 -119.614386 
L 289.877648 -119.559129 
L 289.230322 -119.518576 
L 288.582996 -119.452725 
L 287.935669 -119.319409 
L 287.288343 -119.076165 
L 286.641017 -118.735104 
L 285.99369 -118.408258 
L 285.346364 -118.182737 
L 284.699038 -118.053087 
L 284.051711 -117.973249 
L 283.404385 -117.928411 
L 282.757059 -117.960976 
L 282.109732 -118.129506 
L 281.462406 -118.411658 
L 280.81508 -118.751661 
L 280.167753 -119.088639 
L 279.520427 -119.345542 
L 278.873101 -119.476794 
L 278.225774 -119.46725 
L 277.578448 -119.283945 
L 276.931122 -118.934291 
L 276.283795 -118.530978 
L 275.636469 -118.12448 
L 274.989143 -117.687689 
L 274.341816 -117.235277 
L 273.69449 -116.812484 
L 273.047164 -116.436375 
L 272.399838 -116.115487 
L 271.752511 -115.894428 
L 271.105185 -115.809174 
L 270.457859 -115.825265 
L 269.810532 -115.914291 
L 269.163206 -116.064942 
L 268.51588 -116.252014 
L 267.868553 -116.430603 
L 267.221227 -116.55188 
L 266.573901 -116.57587 
L 265.926574 -116.477303 
L 265.279248 -116.259434 
L 264.631922 -115.948595 
L 263.984595 -115.624266 
L 263.337269 -115.376724 
L 262.689943 -115.211276 
L 262.042616 -115.064727 
L 261.39529 -114.84782 
L 260.747964 -114.503235 
L 260.100637 -114.050827 
L 259.453311 -113.568252 
L 258.805985 -113.130493 
L 258.158658 -112.723206 
L 257.511332 -112.315805 
L 256.864006 -111.908333 
L 256.216679 -111.520379 
L 255.569353 -111.172383 
L 254.922027 -110.875438 
L 254.2747 -110.703298 
L 253.627374 -110.762566 
L 252.980048 -111.032712 
L 252.332722 -111.403366 
L 251.685395 -111.802301 
L 251.038069 -112.162896 
L 250.390743 -112.385665 
L 249.743416 -112.434437 
L 249.09609 -112.342949 
L 248.448764 -112.139238 
L 247.801437 -111.836562 
L 247.154111 -111.435244 
L 246.506785 -110.957462 
L 245.859458 -110.447573 
L 245.212132 -109.9413 
L 244.564806 -109.485049 
L 243.917479 -109.134067 
L 243.270153 -108.88382 
L 242.622827 -108.699225 
L 241.9755 -108.563384 
L 241.328174 -108.468978 
L 240.680848 -108.40497 
L 240.033521 -108.324612 
L 239.386195 -108.193681 
L 238.738869 -108.048682 
L 238.091542 -107.950418 
L 237.444216 -107.918688 
L 236.79689 -107.932131 
L 236.149563 -107.963333 
L 235.502237 -108.023218 
L 234.854911 -108.127865 
L 234.207584 -108.239689 
L 233.560258 -108.301132 
L 232.912932 -108.277663 
L 232.265606 -108.165715 
L 231.618279 -107.980503 
L 230.970953 -107.727316 
L 230.323627 -107.438221 
L 229.6763 -107.136177 
L 229.028974 -106.788805 
L 228.381648 -106.386962 
L 227.734321 -105.994394 
L 227.086995 -105.704414 
L 226.439669 -105.577125 
L 225.792342 -105.575429 
L 225.145016 -105.626241 
L 224.49769 -105.663767 
L 223.850363 -105.661411 
L 223.203037 -105.67972 
L 222.555711 -105.753631 
L 221.908384 -105.851296 
L 221.261058 -105.951812 
L 220.613732 -106.032071 
L 219.966405 -106.075461 
L 219.319079 -106.098793 
L 218.671753 -106.132739 
L 218.024426 -106.169474 
L 217.3771 -106.184482 
L 216.729774 -106.195461 
L 216.082447 -106.194506 
L 215.435121 -106.115255 
L 214.787795 -105.93632 
L 214.140468 -105.692522 
L 213.493142 -105.414254 
L 212.845816 -105.150504 
L 212.19849 -104.978142 
L 211.551163 -104.956835 
L 210.903837 -105.089391 
L 210.256511 -105.326956 
L 209.609184 -105.608792 
L 208.961858 -105.904387 
L 208.314532 -106.192929 
L 207.667205 -106.429885 
L 207.019879 -106.561351 
L 206.372553 -106.572733 
L 205.725226 -106.491401 
L 205.0779 -106.326253 
L 204.430574 -106.093114 
L 203.783247 -105.835672 
L 203.135921 -105.612467 
L 202.488595 -105.467608 
L 201.841268 -105.426162 
L 201.193942 -105.492376 
L 200.546616 -105.61494 
L 199.899289 -105.705791 
L 199.251963 -105.719269 
L 198.604637 -105.660226 
L 197.95731 -105.544889 
L 197.309984 -105.406003 
L 196.662658 -105.273449 
L 196.015331 -105.18536 
L 195.368005 -105.182571 
L 194.720679 -105.237998 
L 194.073353 -105.278382 
L 193.426026 -105.265641 
L 192.7787 -105.217221 
L 192.131374 -105.141319 
L 191.484047 -104.979592 
L 190.836721 -104.695126 
L 190.189395 -104.312131 
L 189.542068 -103.88764 
L 188.894742 -103.461308 
L 188.247416 -103.025946 
L 187.600089 -102.588419 
L 186.952763 -102.212607 
L 186.305437 -101.945561 
L 185.65811 -101.762101 
L 185.010784 -101.603367 
L 184.363458 -101.449176 
L 183.716131 -101.319641 
L 183.068805 -101.233513 
L 182.421479 -101.230142 
L 181.774152 -101.366069 
L 181.126826 -101.650579 
L 180.4795 -102.027511 
L 179.832173 -102.464298 
L 179.184847 -102.933512 
L 178.537521 -103.330996 
L 177.890194 -103.550936 
L 177.242868 -103.577388 
L 176.595542 -103.43992 
L 175.948215 -103.178277 
L 175.300889 -102.776686 
L 174.653563 -102.122481 
L 174.006237 -101.161607 
L 173.35891 -100.000177 
L 172.711584 -98.767836 
L 172.064258 -97.528709 
L 171.416931 -96.316508 
L 170.769605 -95.141948 
L 170.122279 -94.015205 
L 169.474952 -92.990988 
L 168.827626 -92.13896 
L 168.1803 -91.517926 
L 167.532973 -91.160968 
L 166.885647 -91.046893 
L 166.238321 -91.125614 
L 165.590994 -91.349122 
L 164.943668 -91.700582 
L 164.296342 -92.176473 
L 163.649015 -92.718018 
L 163.001689 -93.263831 
L 162.354363 -93.766252 
L 161.707036 -94.157795 
L 161.05971 -94.397438 
L 160.412384 -94.481345 
L 159.765057 -94.376916 
L 159.117731 -94.024366 
L 158.470405 -93.403174 
L 157.823078 -92.557819 
L 157.175752 -91.529603 
L 156.528426 -90.355775 
L 155.881099 -89.089832 
L 155.233773 -87.808346 
L 154.586447 -86.587681 
L 153.939121 -85.460801 
L 153.291794 -84.441654 
L 152.644468 -83.552752 
L 151.997142 -82.804838 
L 151.349815 -82.175921 
L 150.702489 -81.647706 
L 150.055163 -81.235777 
L 149.407836 -80.934779 
L 148.76051 -80.690769 
L 148.113184 -80.506445 
L 147.465857 -80.431439 
L 146.818531 -80.470291 
L 146.171205 -80.590754 
L 145.523878 -80.763323 
L 144.876552 -80.957149 
L 144.229226 -81.123082 
L 143.581899 -81.224129 
L 142.934573 -81.245495 
L 142.287247 -81.159307 
L 141.63992 -80.947906 
L 140.992594 -80.63067 
L 140.345268 -80.247468 
L 139.697941 -79.835351 
L 139.050615 -79.418965 
L 138.403289 -79.028261 
L 137.755962 -78.695396 
L 137.108636 -78.433227 
L 136.46131 -78.231809 
L 135.813983 -78.048556 
L 135.166657 -77.847237 
L 134.519331 -77.632685 
L 133.872005 -77.41104 
L 133.224678 -77.19445 
L 132.577352 -77.004708 
L 131.930026 -76.833939 
L 131.282699 -76.681925 
L 130.635373 -76.575267 
L 129.988047 -76.508478 
L 129.34072 -76.452294 
L 128.693394 -76.386169 
L 128.046068 -76.277072 
L 127.398741 -76.088095 
L 126.751415 -75.8034 
L 126.104089 -75.437535 
L 125.456762 -75.073912 
L 124.809436 -74.903298 
L 124.16211 -75.145839 
L 123.514783 -75.803565 
L 122.867457 -76.484539 
L 122.220131 -76.508286 
L 121.572804 -75.229633 
L 120.925478 -73.023533 
L 120.278152 -70.978239 
L 119.630825 -70.405197 
z
" style="stroke: #ffff00; stroke-width: 0.5"/>
    </defs>
    <g clip-path="url(#p779038677d)">
     <use xlink:href="#m6ebf9ee8c9" x="0" y="294.666344" style="fill: #ffff00; stroke: #ffff00; stroke-width: 0.5"/>
    </g>
   </g>
   <g id="line2d_25">
    <path d="M 119.630825 224.261146 
L 120.278152 102.222233 
L 120.925478 159.510249 
L 121.572804 147.247954 
L 122.220131 208.868229 
L 122.867457 211.474633 
L 123.514783 206.368176 
L 124.16211 203.415478 
L 124.809436 195.695345 
L 125.456762 191.193952 
L 126.104089 197.440606 
L 126.751415 210.085278 
L 127.398741 219.896964 
L 128.046068 222.104316 
L 128.693394 218.483545 
L 129.34072 213.90537 
L 129.988047 212.311677 
L 130.635373 214.797827 
L 131.282699 220.294993 
L 131.930026 221.763579 
L 132.577352 216.629705 
L 133.224678 214.315191 
L 133.872005 214.450378 
L 134.519331 215.732012 
L 135.166657 217.649116 
L 135.813983 220.169194 
L 136.46131 223.343961 
L 137.108636 222.086212 
L 137.755962 220.114081 
L 138.403289 219.625722 
L 139.050615 220.426482 
L 139.697941 222.847027 
L 140.345268 221.524498 
L 142.287247 206.363055 
L 142.934573 204.438315 
L 143.581899 204.641835 
L 144.229226 206.135375 
L 144.876552 208.883467 
L 146.171205 216.103709 
L 146.818531 217.973799 
L 147.465857 218.711365 
L 148.113184 219.232235 
L 148.76051 220.22433 
L 149.407836 221.864342 
L 150.055163 223.807096 
L 150.702489 222.862603 
L 151.349815 221.392392 
L 151.997142 220.369613 
L 152.644468 220.371183 
L 153.291794 222.548883 
L 153.939121 221.730961 
L 155.233773 210.782434 
L 155.881099 204.946352 
L 156.528426 200.845623 
L 157.175752 199.301703 
L 157.823078 198.9839 
L 158.470405 198.538399 
L 159.117731 197.38068 
L 159.765057 195.557816 
L 160.412384 193.022462 
L 161.05971 189.897922 
L 163.001689 178.412633 
L 163.649015 178.124231 
L 164.296342 180.365873 
L 164.943668 183.443382 
L 165.590994 185.320325 
L 166.238321 185.624798 
L 166.885647 185.785371 
L 168.827626 188.208397 
L 169.474952 189.775298 
L 170.122279 192.785569 
L 170.769605 198.143237 
L 172.064258 215.11683 
L 172.711584 224.100285 
L 173.35891 216.743565 
L 174.653563 206.119449 
L 175.300889 201.579468 
L 175.948215 198.06972 
L 176.595542 196.913137 
L 177.242868 199.371769 
L 179.184847 217.076748 
L 180.4795 223.720998 
L 181.126826 217.760827 
L 181.774152 210.190611 
L 184.363458 175.237576 
L 185.010784 169.685966 
L 185.65811 165.583603 
L 186.305437 164.377891 
L 186.952763 167.228481 
L 187.600089 173.940807 
L 188.247416 183.991754 
L 190.189395 219.813269 
L 190.836721 220.427921 
L 191.484047 216.702156 
L 192.131374 216.681312 
L 192.7787 217.644248 
L 193.426026 218.909813 
L 194.073353 221.302808 
L 194.720679 223.000667 
L 195.368005 217.239957 
L 196.662658 201.372786 
L 197.309984 193.184161 
L 197.95731 187.07844 
L 198.604637 183.512132 
L 199.251963 181.194733 
L 199.899289 179.573963 
L 200.546616 179.04585 
L 201.193942 179.65515 
L 201.841268 182.369089 
L 202.488595 188.252033 
L 203.135921 196.799682 
L 204.430574 218.189063 
L 205.0779 217.771243 
L 205.725226 205.281552 
L 206.372553 194.997444 
L 207.019879 188.402372 
L 207.667205 186.002567 
L 208.314532 188.080075 
L 208.961858 192.910662 
L 209.609184 199.33425 
L 210.903837 218.579972 
L 211.551163 220.302135 
L 212.845816 200.613707 
L 214.787795 168.041353 
L 215.435121 159.654359 
L 216.082447 155.154517 
L 216.729774 154.233968 
L 217.3771 154.956013 
L 218.024426 157.236572 
L 218.671753 162.183865 
L 219.319079 170.803714 
L 219.966405 183.833306 
L 220.613732 202.024147 
L 221.261058 223.888905 
L 222.555711 183.492662 
L 223.203037 167.898319 
L 223.850363 156.524083 
L 224.49769 148.63512 
L 225.145016 143.286922 
L 225.792342 141.320523 
L 226.439669 144.692066 
L 227.086995 154.116991 
L 227.734321 168.955553 
L 229.6763 223.366237 
L 230.323627 207.025009 
L 231.618279 162.54663 
L 232.912932 115.237166 
L 233.560258 98.061784 
L 234.207584 87.883489 
L 234.854911 84.674465 
L 235.502237 87.516425 
L 236.149563 96.367697 
L 236.79689 112.423135 
L 237.444216 135.153129 
L 238.738869 193.344028 
L 239.386195 223.813408 
L 240.680848 168.956627 
L 241.328174 146.674081 
L 241.9755 131.220444 
L 242.622827 121.508554 
L 243.270153 115.849723 
L 243.917479 114.091839 
L 244.564806 116.569944 
L 245.212132 123.78032 
L 245.859458 136.054946 
L 247.154111 172.271684 
L 248.448764 212.597312 
L 249.09609 215.400798 
L 251.038069 155.462368 
L 251.685395 142.418346 
L 252.332722 134.055967 
L 252.980048 129.199038 
L 253.627374 128.210872 
L 254.2747 131.791384 
L 254.922027 141.188773 
L 255.569353 156.576514 
L 256.864006 197.643642 
L 257.511332 219.744264 
L 258.158658 207.633409 
L 258.805985 190.731478 
L 259.453311 179.899962 
L 260.100637 174.302779 
L 260.747964 171.443601 
L 261.39529 169.65066 
L 262.042616 169.482643 
L 262.689943 171.87034 
L 263.337269 177.634487 
L 263.984595 187.957617 
L 265.279248 217.492069 
L 265.926574 219.80883 
L 267.221227 200.47979 
L 267.868553 189.737147 
L 268.51588 180.953966 
L 269.163206 174.941538 
L 270.457859 167.237371 
L 271.105185 163.645445 
L 271.752511 161.319061 
L 272.399838 160.305567 
L 273.047164 161.439271 
L 273.69449 165.730274 
L 274.341816 171.981588 
L 274.989143 179.795238 
L 276.931122 210.850882 
L 277.578448 215.295724 
L 278.225774 217.063977 
L 278.873101 217.449329 
L 279.520427 217.998429 
L 280.167753 219.671454 
L 280.81508 220.841496 
L 281.462406 220.907643 
L 282.109732 219.99041 
L 282.757059 218.145591 
L 283.404385 214.863579 
L 284.699038 204.285578 
L 285.346364 198.669242 
L 285.99369 191.437148 
L 287.288343 172.030655 
L 287.935669 164.570672 
L 288.582996 159.80894 
L 289.230322 158.057451 
L 289.877648 158.037663 
L 290.524975 158.256188 
L 291.172301 160.124406 
L 291.819627 165.121882 
L 293.11428 177.148422 
L 293.761606 186.684367 
L 295.056259 217.954257 
L 295.703585 217.064754 
L 296.350911 207.647876 
L 296.998238 201.42032 
L 298.29289 190.77657 
L 298.940217 184.870033 
L 299.587543 181.21931 
L 300.234869 180.1787 
L 300.882196 180.151459 
L 301.529522 181.076243 
L 302.176848 183.837073 
L 302.824175 189.803595 
L 305.41348 222.248693 
L 306.060806 220.406118 
L 308.002785 206.91857 
L 309.944764 196.990512 
L 310.592091 193.620817 
L 311.239417 192.931895 
L 311.886743 195.174405 
L 312.534069 199.383318 
L 313.181396 204.88827 
L 313.828722 213.102715 
L 314.476048 224.030559 
L 315.123375 214.099314 
L 315.770701 207.512774 
L 316.418027 204.775771 
L 317.065354 202.956058 
L 317.71268 199.950637 
L 318.360006 198.223601 
L 319.007333 198.895063 
L 319.654659 198.796642 
L 320.301985 196.435236 
L 320.949312 192.576517 
L 322.891291 177.052538 
L 323.538617 173.824222 
L 324.83327 168.368697 
L 326.127922 160.814841 
L 326.775249 161.006951 
L 327.422575 168.121544 
L 328.069901 180.600704 
L 329.364554 212.826172 
L 330.01188 218.622513 
L 331.953859 173.870114 
L 332.601185 160.991902 
L 333.248512 153.461835 
L 333.895838 152.312039 
L 334.543164 155.60718 
L 335.190491 162.152723 
L 335.837817 172.546997 
L 336.485143 187.350425 
L 337.13247 206.30815 
L 337.779796 221.056027 
L 339.074449 182.606695 
L 340.369101 154.324893 
L 341.663754 131.38858 
L 342.31108 122.563117 
L 342.958407 115.825629 
L 343.605733 113.243527 
L 344.253059 116.818532 
L 344.900386 126.617573 
L 346.195038 157.74221 
L 348.784344 223.020891 
L 350.078996 189.926269 
L 350.726323 177.040064 
L 351.373649 166.999455 
L 352.020975 159.77322 
L 352.668301 157.281247 
L 353.315628 160.610783 
L 353.962954 168.535688 
L 354.61028 180.261368 
L 355.257607 195.362631 
L 355.904933 213.371883 
L 356.552259 216.542712 
L 359.141565 152.113316 
L 359.788891 144.509194 
L 360.436217 146.318753 
L 361.083544 155.261587 
L 362.378196 176.466047 
L 363.025523 185.500288 
L 363.672849 191.603579 
L 364.320175 195.805242 
L 364.967502 199.106154 
L 365.614828 201.450006 
L 366.262154 203.281647 
L 366.909481 204.115859 
L 367.556807 202.324698 
L 368.204133 197.040169 
L 368.85146 189.107962 
L 370.146112 171.076464 
L 370.793439 165.75031 
L 372.088091 159.892986 
L 372.735417 157.667044 
L 373.382744 158.288462 
L 374.03007 163.688189 
L 374.677396 174.285426 
L 376.619375 215.057304 
L 377.266702 222.049366 
L 378.561354 199.524742 
L 379.856007 175.232032 
L 380.503333 167.95266 
L 381.15066 165.423203 
L 381.797986 168.649628 
L 382.445312 178.114639 
L 383.092639 193.975442 
L 383.739965 214.384012 
L 384.387291 211.959479 
L 388.271249 76.431177 
L 388.918576 62.102988 
L 389.565902 53.176444 
L 390.213228 49.405197 
L 390.860555 51.631847 
L 391.507881 60.356029 
L 392.155207 74.530469 
L 392.802533 93.311974 
L 394.744512 161.994013 
L 396.039165 213.085955 
L 396.686491 208.594408 
L 397.333818 183.698104 
L 397.981144 163.463622 
L 398.62847 151.2493 
L 399.275797 148.618274 
L 399.923123 153.264322 
L 400.570449 161.533968 
L 401.217776 172.804046 
L 402.512428 201.752394 
L 403.159755 217.372583 
L 403.807081 213.49502 
L 406.396386 137.649224 
L 407.691039 106.690688 
L 408.985692 82.616905 
L 409.633018 74.128192 
L 410.280344 70.479008 
L 410.927671 73.49258 
L 411.574997 82.527815 
L 412.222323 96.42786 
L 412.869649 115.086442 
L 413.516976 137.94568 
L 414.164302 165.647447 
L 414.811628 198.247106 
L 415.458955 215.524021 
L 416.753607 152.870789 
L 417.400934 129.760746 
L 418.04826 112.356117 
L 418.695586 101.210316 
L 419.342913 98.295768 
L 419.990239 104.089746 
L 420.637565 116.209125 
L 421.932218 145.441499 
L 422.579544 163.373137 
L 423.874197 213.282317 
L 424.521523 208.285982 
L 425.816176 161.432218 
L 427.110829 124.523296 
L 427.758155 109.702716 
L 428.405481 99.714294 
L 429.052808 96.278885 
L 429.700134 99.760134 
L 430.34746 110.506304 
L 430.994786 127.867321 
L 431.642113 150.571697 
L 432.936765 208.886893 
L 433.584092 206.903446 
L 434.231418 176.825822 
L 434.878744 152.159669 
L 435.526071 133.122542 
L 436.173397 117.420594 
L 436.820723 104.838173 
L 437.46805 96.577546 
L 438.115376 92.246292 
L 438.762702 92.328863 
L 439.410029 98.371031 
L 440.057355 110.516905 
L 441.352008 145.824989 
L 441.999334 165.348821 
L 441.999334 165.348821 
" clip-path="url(#p779038677d)" style="fill: none; stroke-dasharray: 2,3.3; stroke-dashoffset: 0; stroke: #e24a33; stroke-opacity: 0.480962; stroke-width: 2"/>
   </g>
   <g id="line2d_26">
    <path d="M 119.630825 224.261146 
L 120.278152 102.11728 
L 120.925478 156.429122 
L 121.572804 143.560879 
L 122.220131 207.206761 
L 122.867457 213.15422 
L 124.16211 207.915073 
L 124.809436 199.367169 
L 125.456762 193.174863 
L 126.104089 197.517172 
L 126.751415 208.449298 
L 127.398741 216.654954 
L 128.046068 217.341825 
L 129.34072 207.221633 
L 129.988047 204.898056 
L 130.635373 206.04124 
L 132.577352 215.636799 
L 133.224678 216.914626 
L 133.872005 217.292058 
L 134.519331 217.263606 
L 135.166657 217.408499 
L 135.813983 218.21571 
L 136.46131 219.720929 
L 137.108636 222.097319 
L 137.755962 222.839161 
L 141.63992 195.944885 
L 142.287247 194.127318 
L 142.934573 194.822179 
L 143.581899 197.678632 
L 144.229226 202.016179 
L 146.171205 218.920792 
L 146.818531 222.527986 
L 147.465857 222.828456 
L 149.407836 212.185964 
L 150.055163 210.015901 
L 150.702489 209.179125 
L 151.997142 208.993319 
L 152.644468 209.606303 
L 153.291794 212.420268 
L 154.586447 222.924604 
L 155.233773 219.910303 
L 155.881099 214.320173 
L 156.528426 210.108637 
L 157.175752 207.75302 
L 159.117731 203.635808 
L 159.765057 202.758523 
L 160.412384 202.611038 
L 161.05971 202.035993 
L 161.707036 199.840504 
L 162.354363 197.004417 
L 163.001689 195.760166 
L 163.649015 196.965862 
L 164.296342 199.942003 
L 165.590994 206.61203 
L 167.532973 213.817646 
L 168.1803 215.09997 
L 168.827626 215.010767 
L 169.474952 214.801231 
L 170.122279 215.929841 
L 170.769605 218.851277 
L 171.416931 222.808053 
L 172.064258 222.143278 
L 172.711584 219.163497 
L 174.006237 214.587652 
L 174.653563 211.290725 
L 175.948215 200.987168 
L 176.595542 197.862894 
L 177.242868 197.737466 
L 177.890194 199.782934 
L 180.4795 211.122416 
L 182.421479 223.60875 
L 183.068805 220.915123 
L 184.363458 212.939238 
L 185.010784 209.887682 
L 185.65811 208.105712 
L 186.305437 208.402868 
L 186.952763 211.099551 
L 187.600089 215.934038 
L 188.247416 222.858069 
L 188.894742 216.865016 
L 190.189395 199.128393 
L 190.836721 191.107631 
L 191.484047 184.521166 
L 192.131374 180.280901 
L 192.7787 178.794779 
L 193.426026 179.708377 
L 194.073353 181.752753 
L 194.720679 184.668137 
L 195.368005 188.568501 
L 197.309984 204.869141 
L 197.95731 207.478306 
L 198.604637 208.740756 
L 199.899289 212.360222 
L 200.546616 213.412635 
L 201.193942 213.251248 
L 201.841268 211.739397 
L 202.488595 208.441308 
L 203.783247 199.755281 
L 206.372553 185.120243 
L 207.019879 183.977256 
L 207.667205 183.837802 
L 208.314532 184.46134 
L 208.961858 186.177144 
L 210.256511 191.516756 
L 210.903837 194.648633 
L 211.551163 197.127915 
L 212.845816 199.847683 
L 214.140468 203.540611 
L 214.787795 205.82191 
L 216.082447 213.04844 
L 216.729774 217.209432 
L 217.3771 222.151073 
L 218.024426 222.144092 
L 218.671753 220.455542 
L 219.966405 223.119499 
L 221.908384 206.987328 
L 223.203037 200.083103 
L 224.49769 194.146459 
L 225.792342 186.683268 
L 226.439669 184.205931 
L 227.086995 184.20139 
L 227.734321 186.840481 
L 229.6763 199.171079 
L 230.323627 203.275987 
L 230.970953 209.756814 
L 231.618279 219.051987 
L 232.265606 218.085921 
L 233.560258 194.188714 
L 234.207584 184.675077 
L 234.854911 177.876508 
L 235.502237 173.957439 
L 236.149563 173.276979 
L 236.79689 175.680694 
L 237.444216 180.41311 
L 239.386195 199.984343 
L 240.033521 208.085114 
L 240.680848 218.183799 
L 241.328174 220.107725 
L 243.270153 190.488762 
L 244.564806 171.919057 
L 245.212132 165.070863 
L 245.859458 160.631841 
L 246.506785 159.006185 
L 247.154111 159.862769 
L 247.801437 162.621797 
L 248.448764 166.910591 
L 249.09609 172.875606 
L 249.743416 180.80042 
L 252.332722 220.248097 
L 252.980048 219.377528 
L 254.2747 203.281473 
L 254.922027 198.772828 
L 255.569353 198.093643 
L 256.216679 200.480073 
L 256.864006 205.174864 
L 258.158658 219.763549 
L 258.805985 223.408332 
L 260.100637 218.908755 
L 260.747964 214.680561 
L 262.689943 195.991871 
L 263.337269 193.799261 
L 263.984595 194.372202 
L 264.631922 196.366824 
L 265.279248 197.987167 
L 266.573901 198.324472 
L 267.221227 200.49822 
L 267.868553 204.184529 
L 268.51588 208.587759 
L 269.163206 214.167516 
L 269.810532 221.083215 
L 270.457859 219.263276 
L 271.105185 211.108503 
L 271.752511 204.963603 
L 272.399838 201.358895 
L 273.047164 201.321652 
L 277.578448 220.228336 
L 278.225774 222.826406 
L 278.873101 224.026768 
L 279.520427 224.105434 
L 280.167753 223.745874 
L 280.81508 222.1837 
L 281.462406 220.065379 
L 282.109732 218.454563 
L 282.757059 218.437681 
L 283.404385 220.554204 
L 284.051711 223.773887 
L 287.288343 198.410995 
L 287.935669 195.699692 
L 288.582996 193.771009 
L 290.524975 189.014344 
L 291.172301 189.069647 
L 291.819627 192.328629 
L 293.11428 203.237839 
L 293.761606 211.725097 
L 294.408932 224.044218 
L 295.056259 211.111257 
L 295.703585 200.534169 
L 296.350911 194.054074 
L 296.998238 191.113528 
L 297.645564 190.579774 
L 298.29289 191.106922 
L 298.940217 191.79041 
L 299.587543 193.092078 
L 300.882196 197.375773 
L 301.529522 200.595107 
L 302.176848 205.406422 
L 302.824175 212.649048 
L 303.471501 221.427849 
L 304.118827 218.331097 
L 305.41348 201.982323 
L 306.060806 195.520989 
L 306.708133 190.988437 
L 307.355459 187.627197 
L 308.002785 185.220481 
L 308.650112 184.765966 
L 309.297438 185.865683 
L 309.944764 187.76927 
L 310.592091 191.087662 
L 311.239417 196.5576 
L 313.181396 218.191036 
L 313.828722 222.768944 
L 315.123375 205.063431 
L 315.770701 198.192285 
L 316.418027 194.477326 
L 317.065354 191.717468 
L 318.360006 184.917667 
L 319.007333 183.848237 
L 319.654659 184.047579 
L 320.301985 185.359219 
L 320.949312 188.058779 
L 321.596638 192.217114 
L 322.243964 198.460937 
L 323.538617 215.929907 
L 324.185943 222.108809 
L 324.83327 223.571531 
L 325.480596 222.702138 
L 326.127922 222.019343 
L 326.775249 219.749188 
L 327.422575 214.177635 
L 328.717228 194.994741 
L 329.364554 185.601865 
L 330.01188 179.155124 
L 330.659207 176.331601 
L 331.306533 175.686671 
L 331.953859 175.719338 
L 332.601185 176.593529 
L 333.248512 179.08555 
L 333.895838 183.628116 
L 334.543164 190.62858 
L 335.190491 200.694182 
L 335.837817 212.939809 
L 336.485143 223.019721 
L 338.427122 186.389961 
L 339.074449 176.091496 
L 339.721775 168.673652 
L 340.369101 163.067646 
L 341.016428 158.502602 
L 341.663754 154.830961 
L 342.31108 152.655318 
L 342.958407 153.542756 
L 343.605733 158.805818 
L 344.253059 168.408671 
L 345.547712 195.888244 
L 346.842365 223.852717 
L 348.137017 198.168959 
L 349.43167 175.503094 
L 350.078996 165.758801 
L 350.726323 159.028594 
L 351.373649 156.785962 
L 352.020975 159.090072 
L 352.668301 165.567535 
L 353.315628 175.599661 
L 354.61028 202.713647 
L 355.257607 218.713035 
L 355.904933 212.229063 
L 357.846912 158.583454 
L 358.494238 142.844863 
L 359.141565 130.614914 
L 359.788891 124.138387 
L 360.436217 124.530009 
L 361.083544 129.728421 
L 364.320175 162.31914 
L 365.614828 184.860395 
L 366.909481 207.972691 
L 367.556807 215.171426 
L 368.204133 217.452254 
L 368.85146 215.860354 
L 369.498786 212.017893 
L 371.440765 197.700796 
L 373.382744 181.105254 
L 374.03007 179.210337 
L 374.677396 179.936398 
L 375.324723 181.098114 
L 375.972049 181.102819 
L 376.619375 179.682331 
L 377.914028 174.386325 
L 378.561354 172.594479 
L 379.208681 172.456207 
L 379.856007 173.657559 
L 381.15066 177.324199 
L 381.797986 177.524951 
L 382.445312 173.865566 
L 384.387291 150.738878 
L 385.681944 140.363233 
L 386.976597 130.666078 
L 387.623923 127.450284 
L 388.271249 127.209555 
L 388.918576 130.561045 
L 390.213228 142.743447 
L 392.802533 169.383652 
L 394.744512 188.984439 
L 396.686491 212.431801 
L 397.333818 216.668299 
L 397.981144 217.873718 
L 398.62847 214.968099 
L 399.275797 207.407723 
L 400.570449 187.906084 
L 401.865102 172.788214 
L 402.512428 167.621575 
L 403.807081 159.693455 
L 405.101734 149.151977 
L 405.74906 147.113756 
L 406.396386 148.488148 
L 407.691039 153.857849 
L 408.338365 157.43387 
L 408.985692 162.87153 
L 409.633018 170.350156 
L 410.280344 180.61022 
L 411.574997 209.377414 
L 412.222323 223.803349 
L 413.516976 194.674364 
L 414.811628 169.866828 
L 415.458955 160.518156 
L 416.106281 153.906619 
L 416.753607 149.980925 
L 417.400934 148.616321 
L 418.04826 150.26497 
L 418.695586 156.098336 
L 419.342913 167.442116 
L 420.637565 201.811012 
L 421.284892 219.20056 
L 421.932218 212.899494 
L 423.874197 162.758524 
L 424.521523 149.352318 
L 425.16885 138.849238 
L 425.816176 131.133874 
L 426.463502 126.964437 
L 427.110829 126.301442 
L 427.758155 128.157275 
L 428.405481 132.862029 
L 429.052808 141.501777 
L 429.700134 154.738307 
L 430.34746 172.891398 
L 431.642113 218.634974 
L 432.289439 203.388328 
L 433.584092 148.940644 
L 434.231418 128.188674 
L 434.878744 114.293848 
L 435.526071 105.30569 
L 436.173397 98.532172 
L 436.820723 94.843781 
L 437.46805 96.516788 
L 438.115376 103.401979 
L 438.762702 114.600355 
L 439.410029 129.650447 
L 440.704681 168.204366 
L 441.999334 208.552438 
L 441.999334 208.552438 
" clip-path="url(#p779038677d)" style="fill: none; stroke: #ff0000; stroke-width: 2; stroke-linecap: square"/>
   </g>
   <g id="patch_3">
    <path d="M 103.5124 233.003944 
L 103.5124 40.6624 
" style="fill: none; stroke: #ffffff; stroke-linejoin: miter; stroke-linecap: square"/>
   </g>
   <g id="patch_4">
    <path d="M 458.117759 233.003944 
L 458.117759 40.6624 
" style="fill: none; stroke: #ffffff; stroke-linejoin: miter; stroke-linecap: square"/>
   </g>
   <g id="patch_5">
    <path d="M 103.5124 233.003944 
L 458.117759 233.003944 
" style="fill: none; stroke: #ffffff; stroke-linejoin: miter; stroke-linecap: square"/>
   </g>
   <g id="patch_6">
    <path d="M 103.5124 40.6624 
L 458.117759 40.6624 
" style="fill: none; stroke: #ffffff; stroke-linejoin: miter; stroke-linecap: square"/>
   </g>
   <g id="text_15">
    <!-- Bath 2 (right, $T=0$) -->
    <g transform="translate(195.79748 34.6624)scale(0.1728 -0.1728)">
     <defs>
      <path id="DejaVuSans-42" d="M 1259 2228 
L 1259 519 
L 2272 519 
Q 2781 519 3026 730 
Q 3272 941 3272 1375 
Q 3272 1813 3026 2020 
Q 2781 2228 2272 2228 
L 1259 2228 
z
M 1259 4147 
L 1259 2741 
L 2194 2741 
Q 2656 2741 2882 2914 
Q 3109 3088 3109 3444 
Q 3109 3797 2882 3972 
Q 2656 4147 2194 4147 
L 1259 4147 
z
M 628 4666 
L 2241 4666 
Q 2963 4666 3353 4366 
Q 3744 4066 3744 3513 
Q 3744 3084 3544 2831 
Q 3344 2578 2956 2516 
Q 3422 2416 3680 2098 
Q 3938 1781 3938 1306 
Q 3938 681 3513 340 
Q 3088 0 2303 0 
L 628 0 
L 628 4666 
z
" transform="scale(0.015625)"/>
      <path id="DejaVuSans-61" d="M 2194 1759 
Q 1497 1759 1228 1600 
Q 959 1441 959 1056 
Q 959 750 1161 570 
Q 1363 391 1709 391 
Q 2188 391 2477 730 
Q 2766 1069 2766 1631 
L 2766 1759 
L 2194 1759 
z
M 3341 1997 
L 3341 0 
L 2766 0 
L 2766 531 
Q 2569 213 2275 61 
Q 1981 -91 1556 -91 
Q 1019 -91 701 211 
Q 384 513 384 1019 
Q 384 1609 779 1909 
Q 1175 2209 1959 2209 
L 2766 2209 
L 2766 2266 
Q 2766 2663 2505 2880 
Q 2244 3097 1772 3097 
Q 1472 3097 1187 3025 
Q 903 2953 641 2809 
L 641 3341 
Q 956 3463 1253 3523 
Q 1550 3584 1831 3584 
Q 2591 3584 2966 3190 
Q 3341 2797 3341 1997 
z
" transform="scale(0.015625)"/>
      <path id="DejaVuSans-74" d="M 1172 4494 
L 1172 3500 
L 2356 3500 
L 2356 3053 
L 1172 3053 
L 1172 1153 
Q 1172 725 1289 603 
Q 1406 481 1766 481 
L 2356 481 
L 2356 0 
L 1766 0 
Q 1100 0 847 248 
Q 594 497 594 1153 
L 594 3053 
L 172 3053 
L 172 3500 
L 594 3500 
L 594 4494 
L 1172 4494 
z
" transform="scale(0.015625)"/>
      <path id="DejaVuSans-68" d="M 3513 2113 
L 3513 0 
L 2938 0 
L 2938 2094 
Q 2938 2591 2744 2837 
Q 2550 3084 2163 3084 
Q 1697 3084 1428 2787 
Q 1159 2491 1159 1978 
L 1159 0 
L 581 0 
L 581 4863 
L 1159 4863 
L 1159 2956 
Q 1366 3272 1645 3428 
Q 1925 3584 2291 3584 
Q 2894 3584 3203 3211 
Q 3513 2838 3513 2113 
z
" transform="scale(0.015625)"/>
      <path id="DejaVuSans-20" transform="scale(0.015625)"/>
      <path id="DejaVuSans-28" d="M 1984 4856 
Q 1566 4138 1362 3434 
Q 1159 2731 1159 2009 
Q 1159 1288 1364 580 
Q 1569 -128 1984 -844 
L 1484 -844 
Q 1016 -109 783 600 
Q 550 1309 550 2009 
Q 550 2706 781 3412 
Q 1013 4119 1484 4856 
L 1984 4856 
z
" transform="scale(0.015625)"/>
      <path id="DejaVuSans-69" d="M 603 3500 
L 1178 3500 
L 1178 0 
L 603 0 
L 603 3500 
z
M 603 4863 
L 1178 4863 
L 1178 4134 
L 603 4134 
L 603 4863 
z
" transform="scale(0.015625)"/>
      <path id="DejaVuSans-67" d="M 2906 1791 
Q 2906 2416 2648 2759 
Q 2391 3103 1925 3103 
Q 1463 3103 1205 2759 
Q 947 2416 947 1791 
Q 947 1169 1205 825 
Q 1463 481 1925 481 
Q 2391 481 2648 825 
Q 2906 1169 2906 1791 
z
M 3481 434 
Q 3481 -459 3084 -895 
Q 2688 -1331 1869 -1331 
Q 1566 -1331 1297 -1286 
Q 1028 -1241 775 -1147 
L 775 -588 
Q 1028 -725 1275 -790 
Q 1522 -856 1778 -856 
Q 2344 -856 2625 -561 
Q 2906 -266 2906 331 
L 2906 616 
Q 2728 306 2450 153 
Q 2172 0 1784 0 
Q 1141 0 747 490 
Q 353 981 353 1791 
Q 353 2603 747 3093 
Q 1141 3584 1784 3584 
Q 2172 3584 2450 3431 
Q 2728 3278 2906 2969 
L 2906 3500 
L 3481 3500 
L 3481 434 
z
" transform="scale(0.015625)"/>
      <path id="DejaVuSans-2c" d="M 750 794 
L 1409 794 
L 1409 256 
L 897 -744 
L 494 -744 
L 750 256 
L 750 794 
z
" transform="scale(0.015625)"/>
      <path id="DejaVuSans-Oblique-54" d="M 378 4666 
L 4325 4666 
L 4225 4134 
L 2559 4134 
L 1759 0 
L 1125 0 
L 1925 4134 
L 275 4134 
L 378 4666 
z
" transform="scale(0.015625)"/>
      <path id="DejaVuSans-3d" d="M 678 2906 
L 4684 2906 
L 4684 2381 
L 678 2381 
L 678 2906 
z
M 678 1631 
L 4684 1631 
L 4684 1100 
L 678 1100 
L 678 1631 
z
" transform="scale(0.015625)"/>
      <path id="DejaVuSans-29" d="M 513 4856 
L 1013 4856 
Q 1481 4119 1714 3412 
Q 1947 2706 1947 2009 
Q 1947 1309 1714 600 
Q 1481 -109 1013 -844 
L 513 -844 
Q 928 -128 1133 580 
Q 1338 1288 1338 2009 
Q 1338 2731 1133 3434 
Q 928 4138 513 4856 
z
" transform="scale(0.015625)"/>
     </defs>
     <use xlink:href="#DejaVuSans-42" transform="translate(0 0.015625)"/>
     <use xlink:href="#DejaVuSans-61" transform="translate(68.603516 0.015625)"/>
     <use xlink:href="#DejaVuSans-74" transform="translate(129.882812 0.015625)"/>
     <use xlink:href="#DejaVuSans-68" transform="translate(169.091797 0.015625)"/>
     <use xlink:href="#DejaVuSans-20" transform="translate(232.470703 0.015625)"/>
     <use xlink:href="#DejaVuSans-32" transform="translate(264.257812 0.015625)"/>
     <use xlink:href="#DejaVuSans-20" transform="translate(327.880859 0.015625)"/>
     <use xlink:href="#DejaVuSans-28" transform="translate(359.667969 0.015625)"/>
     <use xlink:href="#DejaVuSans-72" transform="translate(398.681641 0.015625)"/>
     <use xlink:href="#DejaVuSans-69" transform="translate(439.794922 0.015625)"/>
     <use xlink:href="#DejaVuSans-67" transform="translate(467.578125 0.015625)"/>
     <use xlink:href="#DejaVuSans-68" transform="translate(531.054688 0.015625)"/>
     <use xlink:href="#DejaVuSans-74" transform="translate(594.433594 0.015625)"/>
     <use xlink:href="#DejaVuSans-2c" transform="translate(633.642578 0.015625)"/>
     <use xlink:href="#DejaVuSans-20" transform="translate(665.429688 0.015625)"/>
     <use xlink:href="#DejaVuSans-Oblique-54" transform="translate(697.216797 0.015625)"/>
     <use xlink:href="#DejaVuSans-3d" transform="translate(777.783203 0.015625)"/>
     <use xlink:href="#DejaVuSans-30" transform="translate(881.054688 0.015625)"/>
     <use xlink:href="#DejaVuSans-29" transform="translate(944.677734 0.015625)"/>
    </g>
   </g>
   <g id="legend_1">
    <g id="patch_7">
     <path d="M 113.588368 115.561928 
L 333.964182 115.561928 
Q 336.84303 115.561928 336.84303 112.68308 
L 336.84303 50.738368 
Q 336.84303 47.85952 333.964182 47.85952 
L 113.588368 47.85952 
Q 110.70952 47.85952 110.70952 50.738368 
L 110.70952 112.68308 
Q 110.70952 115.561928 113.588368 115.561928 
z
" style="fill: #e5e5e5; opacity: 0.8; stroke: #cccccc; stroke-width: 0.5; stroke-linejoin: miter"/>
    </g>
    <g id="patch_8">
     <path d="M 116.467216 64.554589 
L 145.255696 64.554589 
L 145.255696 54.478621 
L 116.467216 54.478621 
z
" style="fill: #ffff00; stroke: #ffff00; stroke-width: 0.5; stroke-linejoin: miter"/>
    </g>
    <g id="text_16">
     <!-- $\sigma\, (N=5191)$ -->
     <g transform="translate(156.771088 64.554589)scale(0.143942 -0.143942)">
      <defs>
       <path id="DejaVuSans-Oblique-3c3" d="M 2219 3044 
Q 1744 3044 1422 2700 
Q 1081 2341 969 1747 
Q 844 1119 1044 756 
Q 1241 397 1706 397 
Q 2166 397 2503 759 
Q 2844 1122 2966 1747 
Q 3075 2319 2881 2700 
Q 2700 3044 2219 3044 
z
M 2309 3503 
L 4219 3500 
L 4106 2925 
L 3463 2925 
Q 3706 2438 3575 1747 
Q 3406 888 2884 400 
Q 2359 -91 1609 -91 
Q 856 -91 525 400 
Q 194 888 363 1747 
Q 528 2609 1050 3097 
Q 1484 3503 2309 3503 
z
" transform="scale(0.015625)"/>
       <path id="DejaVuSans-39" d="M 703 97 
L 703 672 
Q 941 559 1184 500 
Q 1428 441 1663 441 
Q 2288 441 2617 861 
Q 2947 1281 2994 2138 
Q 2813 1869 2534 1725 
Q 2256 1581 1919 1581 
Q 1219 1581 811 2004 
Q 403 2428 403 3163 
Q 403 3881 828 4315 
Q 1253 4750 1959 4750 
Q 2769 4750 3195 4129 
Q 3622 3509 3622 2328 
Q 3622 1225 3098 567 
Q 2575 -91 1691 -91 
Q 1453 -91 1209 -44 
Q 966 3 703 97 
z
M 1959 2075 
Q 2384 2075 2632 2365 
Q 2881 2656 2881 3163 
Q 2881 3666 2632 3958 
Q 2384 4250 1959 4250 
Q 1534 4250 1286 3958 
Q 1038 3666 1038 3163 
Q 1038 2656 1286 2365 
Q 1534 2075 1959 2075 
z
" transform="scale(0.015625)"/>
      </defs>
      <use xlink:href="#DejaVuSans-Oblique-3c3" transform="translate(0 0.125)"/>
      <use xlink:href="#DejaVuSans-28" transform="translate(79.614583 0.125)"/>
      <use xlink:href="#DejaVuSans-Oblique-4e" transform="translate(118.628254 0.125)"/>
      <use xlink:href="#DejaVuSans-3d" transform="translate(212.915364 0.125)"/>
      <use xlink:href="#DejaVuSans-35" transform="translate(316.186848 0.125)"/>
      <use xlink:href="#DejaVuSans-31" transform="translate(379.809895 0.125)"/>
      <use xlink:href="#DejaVuSans-39" transform="translate(443.432942 0.125)"/>
      <use xlink:href="#DejaVuSans-31" transform="translate(507.055989 0.125)"/>
      <use xlink:href="#DejaVuSans-29" transform="translate(570.679036 0.125)"/>
     </g>
    </g>
    <g id="line2d_27">
     <path d="M 116.467216 80.644651 
L 130.861456 80.644651 
L 145.255696 80.644651 
" style="fill: none; stroke-dasharray: 2,3.3; stroke-dashoffset: 0; stroke: #e24a33; stroke-opacity: 0.480962; stroke-width: 2"/>
    </g>
    <g id="text_17">
     <!-- $N=2849$  $\Delta&lt;\sigma = 48.1\%$ -->
     <g transform="translate(156.771088 85.682635)scale(0.143942 -0.143942)">
      <defs>
       <path id="DejaVuSans-38" d="M 2034 2216 
Q 1584 2216 1326 1975 
Q 1069 1734 1069 1313 
Q 1069 891 1326 650 
Q 1584 409 2034 409 
Q 2484 409 2743 651 
Q 3003 894 3003 1313 
Q 3003 1734 2745 1975 
Q 2488 2216 2034 2216 
z
M 1403 2484 
Q 997 2584 770 2862 
Q 544 3141 544 3541 
Q 544 4100 942 4425 
Q 1341 4750 2034 4750 
Q 2731 4750 3128 4425 
Q 3525 4100 3525 3541 
Q 3525 3141 3298 2862 
Q 3072 2584 2669 2484 
Q 3125 2378 3379 2068 
Q 3634 1759 3634 1313 
Q 3634 634 3220 271 
Q 2806 -91 2034 -91 
Q 1263 -91 848 271 
Q 434 634 434 1313 
Q 434 1759 690 2068 
Q 947 2378 1403 2484 
z
M 1172 3481 
Q 1172 3119 1398 2916 
Q 1625 2713 2034 2713 
Q 2441 2713 2670 2916 
Q 2900 3119 2900 3481 
Q 2900 3844 2670 4047 
Q 2441 4250 2034 4250 
Q 1625 4250 1398 4047 
Q 1172 3844 1172 3481 
z
" transform="scale(0.015625)"/>
       <path id="DejaVuSans-394" d="M 2188 4044 
L 906 525 
L 3472 525 
L 2188 4044 
z
M 50 0 
L 1831 4666 
L 2547 4666 
L 4325 0 
L 50 0 
z
" transform="scale(0.015625)"/>
       <path id="DejaVuSans-3c" d="M 4684 3150 
L 1459 2003 
L 4684 863 
L 4684 294 
L 678 1747 
L 678 2266 
L 4684 3719 
L 4684 3150 
z
" transform="scale(0.015625)"/>
       <path id="DejaVuSans-25" d="M 4653 2053 
Q 4381 2053 4226 1822 
Q 4072 1591 4072 1178 
Q 4072 772 4226 539 
Q 4381 306 4653 306 
Q 4919 306 5073 539 
Q 5228 772 5228 1178 
Q 5228 1588 5073 1820 
Q 4919 2053 4653 2053 
z
M 4653 2450 
Q 5147 2450 5437 2106 
Q 5728 1763 5728 1178 
Q 5728 594 5436 251 
Q 5144 -91 4653 -91 
Q 4153 -91 3862 251 
Q 3572 594 3572 1178 
Q 3572 1766 3864 2108 
Q 4156 2450 4653 2450 
z
M 1428 4353 
Q 1159 4353 1004 4120 
Q 850 3888 850 3481 
Q 850 3069 1003 2837 
Q 1156 2606 1428 2606 
Q 1700 2606 1854 2837 
Q 2009 3069 2009 3481 
Q 2009 3884 1853 4118 
Q 1697 4353 1428 4353 
z
M 4250 4750 
L 4750 4750 
L 1831 -91 
L 1331 -91 
L 4250 4750 
z
M 1428 4750 
Q 1922 4750 2215 4408 
Q 2509 4066 2509 3481 
Q 2509 2891 2217 2550 
Q 1925 2209 1428 2209 
Q 931 2209 642 2551 
Q 353 2894 353 3481 
Q 353 4063 643 4406 
Q 934 4750 1428 4750 
z
" transform="scale(0.015625)"/>
      </defs>
      <use xlink:href="#DejaVuSans-Oblique-4e" transform="translate(0 0.78125)"/>
      <use xlink:href="#DejaVuSans-3d" transform="translate(94.287109 0.78125)"/>
      <use xlink:href="#DejaVuSans-32" transform="translate(197.558594 0.78125)"/>
      <use xlink:href="#DejaVuSans-38" transform="translate(261.181641 0.78125)"/>
      <use xlink:href="#DejaVuSans-34" transform="translate(324.804688 0.78125)"/>
      <use xlink:href="#DejaVuSans-39" transform="translate(388.427734 0.78125)"/>
      <use xlink:href="#DejaVuSans-20" transform="translate(452.050781 0.78125)"/>
      <use xlink:href="#DejaVuSans-20" transform="translate(483.837891 0.78125)"/>
      <use xlink:href="#DejaVuSans-394" transform="translate(515.625 0.78125)"/>
      <use xlink:href="#DejaVuSans-3c" transform="translate(603.515625 0.78125)"/>
      <use xlink:href="#DejaVuSans-Oblique-3c3" transform="translate(706.787109 0.78125)"/>
      <use xlink:href="#DejaVuSans-3d" transform="translate(789.648438 0.78125)"/>
      <use xlink:href="#DejaVuSans-34" transform="translate(892.919922 0.78125)"/>
      <use xlink:href="#DejaVuSans-38" transform="translate(956.542969 0.78125)"/>
      <use xlink:href="#DejaVuSans-2e" transform="translate(1020.166016 0.78125)"/>
      <use xlink:href="#DejaVuSans-31" transform="translate(1051.953125 0.78125)"/>
      <use xlink:href="#DejaVuSans-25" transform="translate(1115.576172 0.78125)"/>
     </g>
    </g>
    <g id="line2d_28">
     <path d="M 116.467216 101.772696 
L 130.861456 101.772696 
L 145.255696 101.772696 
" style="fill: none; stroke: #ff0000; stroke-width: 2; stroke-linecap: square"/>
    </g>
    <g id="text_18">
     <!-- $N=5191$  $\Delta&lt;\sigma = 67.7\%$ -->
     <g transform="translate(156.771088 106.81068)scale(0.143942 -0.143942)">
      <defs>
       <path id="DejaVuSans-36" d="M 2113 2584 
Q 1688 2584 1439 2293 
Q 1191 2003 1191 1497 
Q 1191 994 1439 701 
Q 1688 409 2113 409 
Q 2538 409 2786 701 
Q 3034 994 3034 1497 
Q 3034 2003 2786 2293 
Q 2538 2584 2113 2584 
z
M 3366 4563 
L 3366 3988 
Q 3128 4100 2886 4159 
Q 2644 4219 2406 4219 
Q 1781 4219 1451 3797 
Q 1122 3375 1075 2522 
Q 1259 2794 1537 2939 
Q 1816 3084 2150 3084 
Q 2853 3084 3261 2657 
Q 3669 2231 3669 1497 
Q 3669 778 3244 343 
Q 2819 -91 2113 -91 
Q 1303 -91 875 529 
Q 447 1150 447 2328 
Q 447 3434 972 4092 
Q 1497 4750 2381 4750 
Q 2619 4750 2861 4703 
Q 3103 4656 3366 4563 
z
" transform="scale(0.015625)"/>
       <path id="DejaVuSans-37" d="M 525 4666 
L 3525 4666 
L 3525 4397 
L 1831 0 
L 1172 0 
L 2766 4134 
L 525 4134 
L 525 4666 
z
" transform="scale(0.015625)"/>
      </defs>
      <use xlink:href="#DejaVuSans-Oblique-4e" transform="translate(0 0.78125)"/>
      <use xlink:href="#DejaVuSans-3d" transform="translate(94.287109 0.78125)"/>
      <use xlink:href="#DejaVuSans-35" transform="translate(197.558594 0.78125)"/>
      <use xlink:href="#DejaVuSans-31" transform="translate(261.181641 0.78125)"/>
      <use xlink:href="#DejaVuSans-39" transform="translate(324.804688 0.78125)"/>
      <use xlink:href="#DejaVuSans-31" transform="translate(388.427734 0.78125)"/>
      <use xlink:href="#DejaVuSans-20" transform="translate(452.050781 0.78125)"/>
      <use xlink:href="#DejaVuSans-20" transform="translate(483.837891 0.78125)"/>
      <use xlink:href="#DejaVuSans-394" transform="translate(515.625 0.78125)"/>
      <use xlink:href="#DejaVuSans-3c" transform="translate(603.515625 0.78125)"/>
      <use xlink:href="#DejaVuSans-Oblique-3c3" transform="translate(706.787109 0.78125)"/>
      <use xlink:href="#DejaVuSans-3d" transform="translate(789.648438 0.78125)"/>
      <use xlink:href="#DejaVuSans-36" transform="translate(892.919922 0.78125)"/>
      <use xlink:href="#DejaVuSans-37" transform="translate(956.542969 0.78125)"/>
      <use xlink:href="#DejaVuSans-2e" transform="translate(1020.166016 0.78125)"/>
      <use xlink:href="#DejaVuSans-37" transform="translate(1044.203125 0.78125)"/>
      <use xlink:href="#DejaVuSans-25" transform="translate(1107.826172 0.78125)"/>
     </g>
    </g>
   </g>
  </g>
 </g>
 <defs>
  <clipPath id="p779038677d">
   <rect x="103.5124" y="40.6624" width="354.605359" height="192.341544"/>
  </clipPath>
 </defs>
</svg>
