<?xml version="1.0" encoding="utf-8" standalone="no"?>
<!DOCTYPE svg PUBLIC "-//W3C//DTD SVG 1.1//EN"
  "http://www.w3.org/Graphics/SVG/1.1/DTD/svg11.dtd">
<svg xmlns:xlink="http://www.w3.org/1999/xlink" width="476.780159pt" height="294.666344pt" viewBox="0 0 476.780159 294.666344" xmlns="http://www.w3.org/2000/svg" version="1.1">
 <metadata>
  <rdf:RDF xmlns:dc="http://purl.org/dc/elements/1.1/" xmlns:cc="http://creativecommons.org/ns#" xmlns:rdf="http://www.w3.org/1999/02/22-rdf-syntax-ns#">
   <cc:Work>
    <dc:type rdf:resource="http://purl.org/dc/dcmitype/StillImage"/>
    <dc:date>1980-01-01T00:00:00+00:00</dc:date>
    <dc:format>image/svg+xml</dc:format>
    <dc:creator>
     <cc:Agent>
      <dc:title>Matplotlib v3.5.1, https://matplotlib.org/</dc:title>
     </cc:Agent>
    </dc:creator>
   </cc:Work>
  </rdf:RDF>
 </metadata>
 <defs>
  <style type="text/css">*{stroke-linejoin: round; stroke-linecap: butt}</style>
 </defs>
 <g id="figure_1">
  <g id="patch_1">
   <path d="M 0 294.666344 
L 476.780159 294.666344 
L 476.780159 0 
L 0 0 
z
" style="fill: #ffffff"/>
  </g>
  <g id="axes_1">
   <g id="patch_2">
    <path d="M 103.5124 233.003944 
L 458.117759 233.003944 
L 458.117759 40.6624 
L 103.5124 40.6624 
z
" style="fill: #e5e5e5"/>
   </g>
   <g id="matplotlib.axis_1">
    <g id="xtick_1">
     <g id="line2d_1">
      <path d="M 119.630825 233.003944 
L 119.630825 40.6624 
" clip-path="url(#p8b7ba07f66)" style="fill: none; stroke: #ffffff; stroke-width: 0.8; stroke-linecap: square"/>
     </g>
     <g id="line2d_2">
      <defs>
       <path id="m9af4113cf3" d="M 0 0 
L 0 3.5 
" style="stroke: #555555; stroke-width: 0.8"/>
      </defs>
      <g>
       <use xlink:href="#m9af4113cf3" x="119.630825" y="233.003944" style="fill: #555555; stroke: #555555; stroke-width: 0.8"/>
      </g>
     </g>
     <g id="text_1">
      <!-- 0 -->
      <g style="fill: #555555" transform="translate(115.049825 250.945694)scale(0.144 -0.144)">
       <defs>
        <path id="DejaVuSans-30" d="M 2034 4250 
Q 1547 4250 1301 3770 
Q 1056 3291 1056 2328 
Q 1056 1369 1301 889 
Q 1547 409 2034 409 
Q 2525 409 2770 889 
Q 3016 1369 3016 2328 
Q 3016 3291 2770 3770 
Q 2525 4250 2034 4250 
z
M 2034 4750 
Q 2819 4750 3233 4129 
Q 3647 3509 3647 2328 
Q 3647 1150 3233 529 
Q 2819 -91 2034 -91 
Q 1250 -91 836 529 
Q 422 1150 422 2328 
Q 422 3509 836 4129 
Q 1250 4750 2034 4750 
z
" transform="scale(0.015625)"/>
       </defs>
       <use xlink:href="#DejaVuSans-30"/>
      </g>
     </g>
    </g>
    <g id="xtick_2">
     <g id="line2d_3">
      <path d="M 184.104527 233.003944 
L 184.104527 40.6624 
" clip-path="url(#p8b7ba07f66)" style="fill: none; stroke: #ffffff; stroke-width: 0.8; stroke-linecap: square"/>
     </g>
     <g id="line2d_4">
      <g>
       <use xlink:href="#m9af4113cf3" x="184.104527" y="233.003944" style="fill: #555555; stroke: #555555; stroke-width: 0.8"/>
      </g>
     </g>
     <g id="text_2">
      <!-- 10 -->
      <g style="fill: #555555" transform="translate(174.942527 250.945694)scale(0.144 -0.144)">
       <defs>
        <path id="DejaVuSans-31" d="M 794 531 
L 1825 531 
L 1825 4091 
L 703 3866 
L 703 4441 
L 1819 4666 
L 2450 4666 
L 2450 531 
L 3481 531 
L 3481 0 
L 794 0 
L 794 531 
z
" transform="scale(0.015625)"/>
       </defs>
       <use xlink:href="#DejaVuSans-31"/>
       <use xlink:href="#DejaVuSans-30" x="63.623047"/>
      </g>
     </g>
    </g>
    <g id="xtick_3">
     <g id="line2d_5">
      <path d="M 248.578229 233.003944 
L 248.578229 40.6624 
" clip-path="url(#p8b7ba07f66)" style="fill: none; stroke: #ffffff; stroke-width: 0.8; stroke-linecap: square"/>
     </g>
     <g id="line2d_6">
      <g>
       <use xlink:href="#m9af4113cf3" x="248.578229" y="233.003944" style="fill: #555555; stroke: #555555; stroke-width: 0.8"/>
      </g>
     </g>
     <g id="text_3">
      <!-- 20 -->
      <g style="fill: #555555" transform="translate(239.416229 250.945694)scale(0.144 -0.144)">
       <defs>
        <path id="DejaVuSans-32" d="M 1228 531 
L 3431 531 
L 3431 0 
L 469 0 
L 469 531 
Q 828 903 1448 1529 
Q 2069 2156 2228 2338 
Q 2531 2678 2651 2914 
Q 2772 3150 2772 3378 
Q 2772 3750 2511 3984 
Q 2250 4219 1831 4219 
Q 1534 4219 1204 4116 
Q 875 4013 500 3803 
L 500 4441 
Q 881 4594 1212 4672 
Q 1544 4750 1819 4750 
Q 2544 4750 2975 4387 
Q 3406 4025 3406 3419 
Q 3406 3131 3298 2873 
Q 3191 2616 2906 2266 
Q 2828 2175 2409 1742 
Q 1991 1309 1228 531 
z
" transform="scale(0.015625)"/>
       </defs>
       <use xlink:href="#DejaVuSans-32"/>
       <use xlink:href="#DejaVuSans-30" x="63.623047"/>
      </g>
     </g>
    </g>
    <g id="xtick_4">
     <g id="line2d_7">
      <path d="M 313.051931 233.003944 
L 313.051931 40.6624 
" clip-path="url(#p8b7ba07f66)" style="fill: none; stroke: #ffffff; stroke-width: 0.8; stroke-linecap: square"/>
     </g>
     <g id="line2d_8">
      <g>
       <use xlink:href="#m9af4113cf3" x="313.051931" y="233.003944" style="fill: #555555; stroke: #555555; stroke-width: 0.8"/>
      </g>
     </g>
     <g id="text_4">
      <!-- 30 -->
      <g style="fill: #555555" transform="translate(303.889931 250.945694)scale(0.144 -0.144)">
       <defs>
        <path id="DejaVuSans-33" d="M 2597 2516 
Q 3050 2419 3304 2112 
Q 3559 1806 3559 1356 
Q 3559 666 3084 287 
Q 2609 -91 1734 -91 
Q 1441 -91 1130 -33 
Q 819 25 488 141 
L 488 750 
Q 750 597 1062 519 
Q 1375 441 1716 441 
Q 2309 441 2620 675 
Q 2931 909 2931 1356 
Q 2931 1769 2642 2001 
Q 2353 2234 1838 2234 
L 1294 2234 
L 1294 2753 
L 1863 2753 
Q 2328 2753 2575 2939 
Q 2822 3125 2822 3475 
Q 2822 3834 2567 4026 
Q 2313 4219 1838 4219 
Q 1578 4219 1281 4162 
Q 984 4106 628 3988 
L 628 4550 
Q 988 4650 1302 4700 
Q 1616 4750 1894 4750 
Q 2613 4750 3031 4423 
Q 3450 4097 3450 3541 
Q 3450 3153 3228 2886 
Q 3006 2619 2597 2516 
z
" transform="scale(0.015625)"/>
       </defs>
       <use xlink:href="#DejaVuSans-33"/>
       <use xlink:href="#DejaVuSans-30" x="63.623047"/>
      </g>
     </g>
    </g>
    <g id="xtick_5">
     <g id="line2d_9">
      <path d="M 377.525632 233.003944 
L 377.525632 40.6624 
" clip-path="url(#p8b7ba07f66)" style="fill: none; stroke: #ffffff; stroke-width: 0.8; stroke-linecap: square"/>
     </g>
     <g id="line2d_10">
      <g>
       <use xlink:href="#m9af4113cf3" x="377.525632" y="233.003944" style="fill: #555555; stroke: #555555; stroke-width: 0.8"/>
      </g>
     </g>
     <g id="text_5">
      <!-- 40 -->
      <g style="fill: #555555" transform="translate(368.363632 250.945694)scale(0.144 -0.144)">
       <defs>
        <path id="DejaVuSans-34" d="M 2419 4116 
L 825 1625 
L 2419 1625 
L 2419 4116 
z
M 2253 4666 
L 3047 4666 
L 3047 1625 
L 3713 1625 
L 3713 1100 
L 3047 1100 
L 3047 0 
L 2419 0 
L 2419 1100 
L 313 1100 
L 313 1709 
L 2253 4666 
z
" transform="scale(0.015625)"/>
       </defs>
       <use xlink:href="#DejaVuSans-34"/>
       <use xlink:href="#DejaVuSans-30" x="63.623047"/>
      </g>
     </g>
    </g>
    <g id="xtick_6">
     <g id="line2d_11">
      <path d="M 441.999334 233.003944 
L 441.999334 40.6624 
" clip-path="url(#p8b7ba07f66)" style="fill: none; stroke: #ffffff; stroke-width: 0.8; stroke-linecap: square"/>
     </g>
     <g id="line2d_12">
      <g>
       <use xlink:href="#m9af4113cf3" x="441.999334" y="233.003944" style="fill: #555555; stroke: #555555; stroke-width: 0.8"/>
      </g>
     </g>
     <g id="text_6">
      <!-- 50 -->
      <g style="fill: #555555" transform="translate(432.837334 250.945694)scale(0.144 -0.144)">
       <defs>
        <path id="DejaVuSans-35" d="M 691 4666 
L 3169 4666 
L 3169 4134 
L 1269 4134 
L 1269 2991 
Q 1406 3038 1543 3061 
Q 1681 3084 1819 3084 
Q 2600 3084 3056 2656 
Q 3513 2228 3513 1497 
Q 3513 744 3044 326 
Q 2575 -91 1722 -91 
Q 1428 -91 1123 -41 
Q 819 9 494 109 
L 494 744 
Q 775 591 1075 516 
Q 1375 441 1709 441 
Q 2250 441 2565 725 
Q 2881 1009 2881 1497 
Q 2881 1984 2565 2268 
Q 2250 2553 1709 2553 
Q 1456 2553 1204 2497 
Q 953 2441 691 2322 
L 691 4666 
z
" transform="scale(0.015625)"/>
       </defs>
       <use xlink:href="#DejaVuSans-35"/>
       <use xlink:href="#DejaVuSans-30" x="63.623047"/>
      </g>
     </g>
    </g>
    <g id="text_7">
     <!-- $τ$ -->
     <g style="fill: #555555" transform="translate(275.54468 271.070544)scale(0.1728 -0.1728)">
      <defs>
       <path id="DejaVuSans-Oblique-3c4" d="M 2103 638 
Q 2188 488 2525 488 
L 2800 488 
L 2706 0 
L 2363 0 
Q 1800 0 1600 300 
Q 1403 606 1534 1269 
L 1856 2925 
L 541 2925 
L 653 3500 
L 3881 3500 
L 3769 2925 
L 2444 2925 
L 2113 1234 
Q 2025 781 2103 638 
z
" transform="scale(0.015625)"/>
      </defs>
      <use xlink:href="#DejaVuSans-Oblique-3c4" transform="translate(0 0.3125)"/>
     </g>
    </g>
   </g>
   <g id="matplotlib.axis_2">
    <g id="ytick_1">
     <g id="line2d_13">
      <path d="M 103.5124 224.261146 
L 458.117759 224.261146 
" clip-path="url(#p8b7ba07f66)" style="fill: none; stroke: #ffffff; stroke-width: 0.8; stroke-linecap: square"/>
     </g>
     <g id="line2d_14">
      <defs>
       <path id="mc6e9a83802" d="M 0 0 
L -3.5 0 
" style="stroke: #555555; stroke-width: 0.8"/>
      </defs>
      <g>
       <use xlink:href="#mc6e9a83802" x="103.5124" y="224.261146" style="fill: #555555; stroke: #555555; stroke-width: 0.8"/>
      </g>
     </g>
     <g id="text_8">
      <!-- 0.0000 -->
      <g style="fill: #555555" transform="translate(46.1259 229.732021)scale(0.144 -0.144)">
       <defs>
        <path id="DejaVuSans-2e" d="M 684 794 
L 1344 794 
L 1344 0 
L 684 0 
L 684 794 
z
" transform="scale(0.015625)"/>
       </defs>
       <use xlink:href="#DejaVuSans-30"/>
       <use xlink:href="#DejaVuSans-2e" x="63.623047"/>
       <use xlink:href="#DejaVuSans-30" x="95.410156"/>
       <use xlink:href="#DejaVuSans-30" x="159.033203"/>
       <use xlink:href="#DejaVuSans-30" x="222.65625"/>
       <use xlink:href="#DejaVuSans-30" x="286.279297"/>
      </g>
     </g>
    </g>
    <g id="ytick_2">
     <g id="line2d_15">
      <path d="M 103.5124 184.431388 
L 458.117759 184.431388 
" clip-path="url(#p8b7ba07f66)" style="fill: none; stroke: #ffffff; stroke-width: 0.8; stroke-linecap: square"/>
     </g>
     <g id="line2d_16">
      <g>
       <use xlink:href="#mc6e9a83802" x="103.5124" y="184.431388" style="fill: #555555; stroke: #555555; stroke-width: 0.8"/>
      </g>
     </g>
     <g id="text_9">
      <!-- 0.0005 -->
      <g style="fill: #555555" transform="translate(46.1259 189.902263)scale(0.144 -0.144)">
       <use xlink:href="#DejaVuSans-30"/>
       <use xlink:href="#DejaVuSans-2e" x="63.623047"/>
       <use xlink:href="#DejaVuSans-30" x="95.410156"/>
       <use xlink:href="#DejaVuSans-30" x="159.033203"/>
       <use xlink:href="#DejaVuSans-30" x="222.65625"/>
       <use xlink:href="#DejaVuSans-35" x="286.279297"/>
      </g>
     </g>
    </g>
    <g id="ytick_3">
     <g id="line2d_17">
      <path d="M 103.5124 144.60163 
L 458.117759 144.60163 
" clip-path="url(#p8b7ba07f66)" style="fill: none; stroke: #ffffff; stroke-width: 0.8; stroke-linecap: square"/>
     </g>
     <g id="line2d_18">
      <g>
       <use xlink:href="#mc6e9a83802" x="103.5124" y="144.60163" style="fill: #555555; stroke: #555555; stroke-width: 0.8"/>
      </g>
     </g>
     <g id="text_10">
      <!-- 0.0010 -->
      <g style="fill: #555555" transform="translate(46.1259 150.072505)scale(0.144 -0.144)">
       <use xlink:href="#DejaVuSans-30"/>
       <use xlink:href="#DejaVuSans-2e" x="63.623047"/>
       <use xlink:href="#DejaVuSans-30" x="95.410156"/>
       <use xlink:href="#DejaVuSans-30" x="159.033203"/>
       <use xlink:href="#DejaVuSans-31" x="222.65625"/>
       <use xlink:href="#DejaVuSans-30" x="286.279297"/>
      </g>
     </g>
    </g>
    <g id="ytick_4">
     <g id="line2d_19">
      <path d="M 103.5124 104.771872 
L 458.117759 104.771872 
" clip-path="url(#p8b7ba07f66)" style="fill: none; stroke: #ffffff; stroke-width: 0.8; stroke-linecap: square"/>
     </g>
     <g id="line2d_20">
      <g>
       <use xlink:href="#mc6e9a83802" x="103.5124" y="104.771872" style="fill: #555555; stroke: #555555; stroke-width: 0.8"/>
      </g>
     </g>
     <g id="text_11">
      <!-- 0.0015 -->
      <g style="fill: #555555" transform="translate(46.1259 110.242747)scale(0.144 -0.144)">
       <use xlink:href="#DejaVuSans-30"/>
       <use xlink:href="#DejaVuSans-2e" x="63.623047"/>
       <use xlink:href="#DejaVuSans-30" x="95.410156"/>
       <use xlink:href="#DejaVuSans-30" x="159.033203"/>
       <use xlink:href="#DejaVuSans-31" x="222.65625"/>
       <use xlink:href="#DejaVuSans-35" x="286.279297"/>
      </g>
     </g>
    </g>
    <g id="ytick_5">
     <g id="line2d_21">
      <path d="M 103.5124 64.942114 
L 458.117759 64.942114 
" clip-path="url(#p8b7ba07f66)" style="fill: none; stroke: #ffffff; stroke-width: 0.8; stroke-linecap: square"/>
     </g>
     <g id="line2d_22">
      <g>
       <use xlink:href="#mc6e9a83802" x="103.5124" y="64.942114" style="fill: #555555; stroke: #555555; stroke-width: 0.8"/>
      </g>
     </g>
     <g id="text_12">
      <!-- 0.0020 -->
      <g style="fill: #555555" transform="translate(46.1259 70.412989)scale(0.144 -0.144)">
       <use xlink:href="#DejaVuSans-30"/>
       <use xlink:href="#DejaVuSans-2e" x="63.623047"/>
       <use xlink:href="#DejaVuSans-30" x="95.410156"/>
       <use xlink:href="#DejaVuSans-30" x="159.033203"/>
       <use xlink:href="#DejaVuSans-32" x="222.65625"/>
       <use xlink:href="#DejaVuSans-30" x="286.279297"/>
      </g>
     </g>
    </g>
    <g id="text_13">
     <!-- $|{J}_{\mathrm{ref}}-{J}_{N_i}|$ -->
     <g style="fill: #555555" transform="translate(37.2875 173.034772)rotate(-90)scale(0.1728 -0.1728)">
      <defs>
       <path id="DejaVuSans-7c" d="M 1344 4891 
L 1344 -1509 
L 813 -1509 
L 813 4891 
L 1344 4891 
z
" transform="scale(0.015625)"/>
       <path id="DejaVuSans-Oblique-4a" d="M 1069 4666 
L 1703 4666 
L 856 325 
Q 691 -522 298 -901 
Q -94 -1281 -800 -1281 
L -1050 -1281 
L -947 -750 
L -750 -750 
Q -328 -750 -109 -509 
Q 109 -269 225 325 
L 1069 4666 
z
" transform="scale(0.015625)"/>
       <path id="DejaVuSans-72" d="M 2631 2963 
Q 2534 3019 2420 3045 
Q 2306 3072 2169 3072 
Q 1681 3072 1420 2755 
Q 1159 2438 1159 1844 
L 1159 0 
L 581 0 
L 581 3500 
L 1159 3500 
L 1159 2956 
Q 1341 3275 1631 3429 
Q 1922 3584 2338 3584 
Q 2397 3584 2469 3576 
Q 2541 3569 2628 3553 
L 2631 2963 
z
" transform="scale(0.015625)"/>
       <path id="DejaVuSans-65" d="M 3597 1894 
L 3597 1613 
L 953 1613 
Q 991 1019 1311 708 
Q 1631 397 2203 397 
Q 2534 397 2845 478 
Q 3156 559 3463 722 
L 3463 178 
Q 3153 47 2828 -22 
Q 2503 -91 2169 -91 
Q 1331 -91 842 396 
Q 353 884 353 1716 
Q 353 2575 817 3079 
Q 1281 3584 2069 3584 
Q 2775 3584 3186 3129 
Q 3597 2675 3597 1894 
z
M 3022 2063 
Q 3016 2534 2758 2815 
Q 2500 3097 2075 3097 
Q 1594 3097 1305 2825 
Q 1016 2553 972 2059 
L 3022 2063 
z
" transform="scale(0.015625)"/>
       <path id="DejaVuSans-66" d="M 2375 4863 
L 2375 4384 
L 1825 4384 
Q 1516 4384 1395 4259 
Q 1275 4134 1275 3809 
L 1275 3500 
L 2222 3500 
L 2222 3053 
L 1275 3053 
L 1275 0 
L 697 0 
L 697 3053 
L 147 3053 
L 147 3500 
L 697 3500 
L 697 3744 
Q 697 4328 969 4595 
Q 1241 4863 1831 4863 
L 2375 4863 
z
" transform="scale(0.015625)"/>
       <path id="DejaVuSans-2212" d="M 678 2272 
L 4684 2272 
L 4684 1741 
L 678 1741 
L 678 2272 
z
" transform="scale(0.015625)"/>
       <path id="DejaVuSans-Oblique-4e" d="M 1081 4666 
L 1931 4666 
L 3219 666 
L 4000 4666 
L 4616 4666 
L 3706 0 
L 2853 0 
L 1569 4025 
L 788 0 
L 172 0 
L 1081 4666 
z
" transform="scale(0.015625)"/>
       <path id="DejaVuSans-Oblique-69" d="M 1172 4863 
L 1747 4863 
L 1606 4134 
L 1031 4134 
L 1172 4863 
z
M 909 3500 
L 1484 3500 
L 800 0 
L 225 0 
L 909 3500 
z
" transform="scale(0.015625)"/>
      </defs>
      <use xlink:href="#DejaVuSans-7c" transform="translate(0 0.578125)"/>
      <use xlink:href="#DejaVuSans-Oblique-4a" transform="translate(33.691406 0.578125)"/>
      <use xlink:href="#DejaVuSans-72" transform="translate(63.183594 -15.828125)scale(0.7)"/>
      <use xlink:href="#DejaVuSans-65" transform="translate(91.962891 -15.828125)scale(0.7)"/>
      <use xlink:href="#DejaVuSans-66" transform="translate(135.029297 -15.828125)scale(0.7)"/>
      <use xlink:href="#DejaVuSans-2212" transform="translate(181.889648 0.578125)"/>
      <use xlink:href="#DejaVuSans-Oblique-4a" transform="translate(285.161133 0.578125)"/>
      <use xlink:href="#DejaVuSans-Oblique-4e" transform="translate(314.65332 -15.828125)scale(0.7)"/>
      <use xlink:href="#DejaVuSans-Oblique-69" transform="translate(367.016602 -27.3125)scale(0.49)"/>
      <use xlink:href="#DejaVuSans-7c" transform="translate(385.278809 0.578125)"/>
     </g>
    </g>
   </g>
   <g id="PolyCollection_1">
    <defs>
     <path id="m510453a664" d="M 119.630825 -70.405197 
L 119.630825 -70.405197 
L 120.278152 -70.405197 
L 120.925478 -70.405197 
L 121.572804 -70.405197 
L 122.220131 -70.405197 
L 122.867457 -70.405197 
L 123.514783 -70.405197 
L 124.16211 -70.405197 
L 124.809436 -70.405197 
L 125.456762 -70.405197 
L 126.104089 -70.405197 
L 126.751415 -70.405197 
L 127.398741 -70.405197 
L 128.046068 -70.405197 
L 128.693394 -70.405197 
L 129.34072 -70.405197 
L 129.988047 -70.405197 
L 130.635373 -70.405197 
L 131.282699 -70.405197 
L 131.930026 -70.405197 
L 132.577352 -70.405197 
L 133.224678 -70.405197 
L 133.872005 -70.405197 
L 134.519331 -70.405197 
L 135.166657 -70.405197 
L 135.813983 -70.405197 
L 136.46131 -70.405197 
L 137.108636 -70.405197 
L 137.755962 -70.405197 
L 138.403289 -70.405197 
L 139.050615 -70.405197 
L 139.697941 -70.405197 
L 140.345268 -70.405197 
L 140.992594 -70.405197 
L 141.63992 -70.405197 
L 142.287247 -70.405197 
L 142.934573 -70.405197 
L 143.581899 -70.405197 
L 144.229226 -70.405197 
L 144.876552 -70.405197 
L 145.523878 -70.405197 
L 146.171205 -70.405197 
L 146.818531 -70.405197 
L 147.465857 -70.405197 
L 148.113184 -70.405197 
L 148.76051 -70.405197 
L 149.407836 -70.405197 
L 150.055163 -70.405197 
L 150.702489 -70.405197 
L 151.349815 -70.405197 
L 151.997142 -70.405197 
L 152.644468 -70.405197 
L 153.291794 -70.405197 
L 153.939121 -70.405197 
L 154.586447 -70.405197 
L 155.233773 -70.405197 
L 155.881099 -70.405197 
L 156.528426 -70.405197 
L 157.175752 -70.405197 
L 157.823078 -70.405197 
L 158.470405 -70.405197 
L 159.117731 -70.405197 
L 159.765057 -70.405197 
L 160.412384 -70.405197 
L 161.05971 -70.405197 
L 161.707036 -70.405197 
L 162.354363 -70.405197 
L 163.001689 -70.405197 
L 163.649015 -70.405197 
L 164.296342 -70.405197 
L 164.943668 -70.405197 
L 165.590994 -70.405197 
L 166.238321 -70.405197 
L 166.885647 -70.405197 
L 167.532973 -70.405197 
L 168.1803 -70.405197 
L 168.827626 -70.405197 
L 169.474952 -70.405197 
L 170.122279 -70.405197 
L 170.769605 -70.405197 
L 171.416931 -70.405197 
L 172.064258 -70.405197 
L 172.711584 -70.405197 
L 173.35891 -70.405197 
L 174.006237 -70.405197 
L 174.653563 -70.405197 
L 175.300889 -70.405197 
L 175.948215 -70.405197 
L 176.595542 -70.405197 
L 177.242868 -70.405197 
L 177.890194 -70.405197 
L 178.537521 -70.405197 
L 179.184847 -70.405197 
L 179.832173 -70.405197 
L 180.4795 -70.405197 
L 181.126826 -70.405197 
L 181.774152 -70.405197 
L 182.421479 -70.405197 
L 183.068805 -70.405197 
L 183.716131 -70.405197 
L 184.363458 -70.405197 
L 185.010784 -70.405197 
L 185.65811 -70.405197 
L 186.305437 -70.405197 
L 186.952763 -70.405197 
L 187.600089 -70.405197 
L 188.247416 -70.405197 
L 188.894742 -70.405197 
L 189.542068 -70.405197 
L 190.189395 -70.405197 
L 190.836721 -70.405197 
L 191.484047 -70.405197 
L 192.131374 -70.405197 
L 192.7787 -70.405197 
L 193.426026 -70.405197 
L 194.073353 -70.405197 
L 194.720679 -70.405197 
L 195.368005 -70.405197 
L 196.015331 -70.405197 
L 196.662658 -70.405197 
L 197.309984 -70.405197 
L 197.95731 -70.405197 
L 198.604637 -70.405197 
L 199.251963 -70.405197 
L 199.899289 -70.405197 
L 200.546616 -70.405197 
L 201.193942 -70.405197 
L 201.841268 -70.405197 
L 202.488595 -70.405197 
L 203.135921 -70.405197 
L 203.783247 -70.405197 
L 204.430574 -70.405197 
L 205.0779 -70.405197 
L 205.725226 -70.405197 
L 206.372553 -70.405197 
L 207.019879 -70.405197 
L 207.667205 -70.405197 
L 208.314532 -70.405197 
L 208.961858 -70.405197 
L 209.609184 -70.405197 
L 210.256511 -70.405197 
L 210.903837 -70.405197 
L 211.551163 -70.405197 
L 212.19849 -70.405197 
L 212.845816 -70.405197 
L 213.493142 -70.405197 
L 214.140468 -70.405197 
L 214.787795 -70.405197 
L 215.435121 -70.405197 
L 216.082447 -70.405197 
L 216.729774 -70.405197 
L 217.3771 -70.405197 
L 218.024426 -70.405197 
L 218.671753 -70.405197 
L 219.319079 -70.405197 
L 219.966405 -70.405197 
L 220.613732 -70.405197 
L 221.261058 -70.405197 
L 221.908384 -70.405197 
L 222.555711 -70.405197 
L 223.203037 -70.405197 
L 223.850363 -70.405197 
L 224.49769 -70.405197 
L 225.145016 -70.405197 
L 225.792342 -70.405197 
L 226.439669 -70.405197 
L 227.086995 -70.405197 
L 227.734321 -70.405197 
L 228.381648 -70.405197 
L 229.028974 -70.405197 
L 229.6763 -70.405197 
L 230.323627 -70.405197 
L 230.970953 -70.405197 
L 231.618279 -70.405197 
L 232.265606 -70.405197 
L 232.912932 -70.405197 
L 233.560258 -70.405197 
L 234.207584 -70.405197 
L 234.854911 -70.405197 
L 235.502237 -70.405197 
L 236.149563 -70.405197 
L 236.79689 -70.405197 
L 237.444216 -70.405197 
L 238.091542 -70.405197 
L 238.738869 -70.405197 
L 239.386195 -70.405197 
L 240.033521 -70.405197 
L 240.680848 -70.405197 
L 241.328174 -70.405197 
L 241.9755 -70.405197 
L 242.622827 -70.405197 
L 243.270153 -70.405197 
L 243.917479 -70.405197 
L 244.564806 -70.405197 
L 245.212132 -70.405197 
L 245.859458 -70.405197 
L 246.506785 -70.405197 
L 247.154111 -70.405197 
L 247.801437 -70.405197 
L 248.448764 -70.405197 
L 249.09609 -70.405197 
L 249.743416 -70.405197 
L 250.390743 -70.405197 
L 251.038069 -70.405197 
L 251.685395 -70.405197 
L 252.332722 -70.405197 
L 252.980048 -70.405197 
L 253.627374 -70.405197 
L 254.2747 -70.405197 
L 254.922027 -70.405197 
L 255.569353 -70.405197 
L 256.216679 -70.405197 
L 256.864006 -70.405197 
L 257.511332 -70.405197 
L 258.158658 -70.405197 
L 258.805985 -70.405197 
L 259.453311 -70.405197 
L 260.100637 -70.405197 
L 260.747964 -70.405197 
L 261.39529 -70.405197 
L 262.042616 -70.405197 
L 262.689943 -70.405197 
L 263.337269 -70.405197 
L 263.984595 -70.405197 
L 264.631922 -70.405197 
L 265.279248 -70.405197 
L 265.926574 -70.405197 
L 266.573901 -70.405197 
L 267.221227 -70.405197 
L 267.868553 -70.405197 
L 268.51588 -70.405197 
L 269.163206 -70.405197 
L 269.810532 -70.405197 
L 270.457859 -70.405197 
L 271.105185 -70.405197 
L 271.752511 -70.405197 
L 272.399838 -70.405197 
L 273.047164 -70.405197 
L 273.69449 -70.405197 
L 274.341816 -70.405197 
L 274.989143 -70.405197 
L 275.636469 -70.405197 
L 276.283795 -70.405197 
L 276.931122 -70.405197 
L 277.578448 -70.405197 
L 278.225774 -70.405197 
L 278.873101 -70.405197 
L 279.520427 -70.405197 
L 280.167753 -70.405197 
L 280.81508 -70.405197 
L 281.462406 -70.405197 
L 282.109732 -70.405197 
L 282.757059 -70.405197 
L 283.404385 -70.405197 
L 284.051711 -70.405197 
L 284.699038 -70.405197 
L 285.346364 -70.405197 
L 285.99369 -70.405197 
L 286.641017 -70.405197 
L 287.288343 -70.405197 
L 287.935669 -70.405197 
L 288.582996 -70.405197 
L 289.230322 -70.405197 
L 289.877648 -70.405197 
L 290.524975 -70.405197 
L 291.172301 -70.405197 
L 291.819627 -70.405197 
L 292.466954 -70.405197 
L 293.11428 -70.405197 
L 293.761606 -70.405197 
L 294.408932 -70.405197 
L 295.056259 -70.405197 
L 295.703585 -70.405197 
L 296.350911 -70.405197 
L 296.998238 -70.405197 
L 297.645564 -70.405197 
L 298.29289 -70.405197 
L 298.940217 -70.405197 
L 299.587543 -70.405197 
L 300.234869 -70.405197 
L 300.882196 -70.405197 
L 301.529522 -70.405197 
L 302.176848 -70.405197 
L 302.824175 -70.405197 
L 303.471501 -70.405197 
L 304.118827 -70.405197 
L 304.766154 -70.405197 
L 305.41348 -70.405197 
L 306.060806 -70.405197 
L 306.708133 -70.405197 
L 307.355459 -70.405197 
L 308.002785 -70.405197 
L 308.650112 -70.405197 
L 309.297438 -70.405197 
L 309.944764 -70.405197 
L 310.592091 -70.405197 
L 311.239417 -70.405197 
L 311.886743 -70.405197 
L 312.534069 -70.405197 
L 313.181396 -70.405197 
L 313.828722 -70.405197 
L 314.476048 -70.405197 
L 315.123375 -70.405197 
L 315.770701 -70.405197 
L 316.418027 -70.405197 
L 317.065354 -70.405197 
L 317.71268 -70.405197 
L 318.360006 -70.405197 
L 319.007333 -70.405197 
L 319.654659 -70.405197 
L 320.301985 -70.405197 
L 320.949312 -70.405197 
L 321.596638 -70.405197 
L 322.243964 -70.405197 
L 322.891291 -70.405197 
L 323.538617 -70.405197 
L 324.185943 -70.405197 
L 324.83327 -70.405197 
L 325.480596 -70.405197 
L 326.127922 -70.405197 
L 326.775249 -70.405197 
L 327.422575 -70.405197 
L 328.069901 -70.405197 
L 328.717228 -70.405197 
L 329.364554 -70.405197 
L 330.01188 -70.405197 
L 330.659207 -70.405197 
L 331.306533 -70.405197 
L 331.953859 -70.405197 
L 332.601185 -70.405197 
L 333.248512 -70.405197 
L 333.895838 -70.405197 
L 334.543164 -70.405197 
L 335.190491 -70.405197 
L 335.837817 -70.405197 
L 336.485143 -70.405197 
L 337.13247 -70.405197 
L 337.779796 -70.405197 
L 338.427122 -70.405197 
L 339.074449 -70.405197 
L 339.721775 -70.405197 
L 340.369101 -70.405197 
L 341.016428 -70.405197 
L 341.663754 -70.405197 
L 342.31108 -70.405197 
L 342.958407 -70.405197 
L 343.605733 -70.405197 
L 344.253059 -70.405197 
L 344.900386 -70.405197 
L 345.547712 -70.405197 
L 346.195038 -70.405197 
L 346.842365 -70.405197 
L 347.489691 -70.405197 
L 348.137017 -70.405197 
L 348.784344 -70.405197 
L 349.43167 -70.405197 
L 350.078996 -70.405197 
L 350.726323 -70.405197 
L 351.373649 -70.405197 
L 352.020975 -70.405197 
L 352.668301 -70.405197 
L 353.315628 -70.405197 
L 353.962954 -70.405197 
L 354.61028 -70.405197 
L 355.257607 -70.405197 
L 355.904933 -70.405197 
L 356.552259 -70.405197 
L 357.199586 -70.405197 
L 357.846912 -70.405197 
L 358.494238 -70.405197 
L 359.141565 -70.405197 
L 359.788891 -70.405197 
L 360.436217 -70.405197 
L 361.083544 -70.405197 
L 361.73087 -70.405197 
L 362.378196 -70.405197 
L 363.025523 -70.405197 
L 363.672849 -70.405197 
L 364.320175 -70.405197 
L 364.967502 -70.405197 
L 365.614828 -70.405197 
L 366.262154 -70.405197 
L 366.909481 -70.405197 
L 367.556807 -70.405197 
L 368.204133 -70.405197 
L 368.85146 -70.405197 
L 369.498786 -70.405197 
L 370.146112 -70.405197 
L 370.793439 -70.405197 
L 371.440765 -70.405197 
L 372.088091 -70.405197 
L 372.735417 -70.405197 
L 373.382744 -70.405197 
L 374.03007 -70.405197 
L 374.677396 -70.405197 
L 375.324723 -70.405197 
L 375.972049 -70.405197 
L 376.619375 -70.405197 
L 377.266702 -70.405197 
L 377.914028 -70.405197 
L 378.561354 -70.405197 
L 379.208681 -70.405197 
L 379.856007 -70.405197 
L 380.503333 -70.405197 
L 381.15066 -70.405197 
L 381.797986 -70.405197 
L 382.445312 -70.405197 
L 383.092639 -70.405197 
L 383.739965 -70.405197 
L 384.387291 -70.405197 
L 385.034618 -70.405197 
L 385.681944 -70.405197 
L 386.32927 -70.405197 
L 386.976597 -70.405197 
L 387.623923 -70.405197 
L 388.271249 -70.405197 
L 388.918576 -70.405197 
L 389.565902 -70.405197 
L 390.213228 -70.405197 
L 390.860555 -70.405197 
L 391.507881 -70.405197 
L 392.155207 -70.405197 
L 392.802533 -70.405197 
L 393.44986 -70.405197 
L 394.097186 -70.405197 
L 394.744512 -70.405197 
L 395.391839 -70.405197 
L 396.039165 -70.405197 
L 396.686491 -70.405197 
L 397.333818 -70.405197 
L 397.981144 -70.405197 
L 398.62847 -70.405197 
L 399.275797 -70.405197 
L 399.923123 -70.405197 
L 400.570449 -70.405197 
L 401.217776 -70.405197 
L 401.865102 -70.405197 
L 402.512428 -70.405197 
L 403.159755 -70.405197 
L 403.807081 -70.405197 
L 404.454407 -70.405197 
L 405.101734 -70.405197 
L 405.74906 -70.405197 
L 406.396386 -70.405197 
L 407.043713 -70.405197 
L 407.691039 -70.405197 
L 408.338365 -70.405197 
L 408.985692 -70.405197 
L 409.633018 -70.405197 
L 410.280344 -70.405197 
L 410.927671 -70.405197 
L 411.574997 -70.405197 
L 412.222323 -70.405197 
L 412.869649 -70.405197 
L 413.516976 -70.405197 
L 414.164302 -70.405197 
L 414.811628 -70.405197 
L 415.458955 -70.405197 
L 416.106281 -70.405197 
L 416.753607 -70.405197 
L 417.400934 -70.405197 
L 418.04826 -70.405197 
L 418.695586 -70.405197 
L 419.342913 -70.405197 
L 419.990239 -70.405197 
L 420.637565 -70.405197 
L 421.284892 -70.405197 
L 421.932218 -70.405197 
L 422.579544 -70.405197 
L 423.226871 -70.405197 
L 423.874197 -70.405197 
L 424.521523 -70.405197 
L 425.16885 -70.405197 
L 425.816176 -70.405197 
L 426.463502 -70.405197 
L 427.110829 -70.405197 
L 427.758155 -70.405197 
L 428.405481 -70.405197 
L 429.052808 -70.405197 
L 429.700134 -70.405197 
L 430.34746 -70.405197 
L 430.994786 -70.405197 
L 431.642113 -70.405197 
L 432.289439 -70.405197 
L 432.936765 -70.405197 
L 433.584092 -70.405197 
L 434.231418 -70.405197 
L 434.878744 -70.405197 
L 435.526071 -70.405197 
L 436.173397 -70.405197 
L 436.820723 -70.405197 
L 437.46805 -70.405197 
L 438.115376 -70.405197 
L 438.762702 -70.405197 
L 439.410029 -70.405197 
L 440.057355 -70.405197 
L 440.704681 -70.405197 
L 441.352008 -70.405197 
L 441.999334 -70.405197 
L 441.999334 -120.467155 
L 441.999334 -120.467155 
L 441.352008 -119.846031 
L 440.704681 -119.313643 
L 440.057355 -118.902855 
L 439.410029 -118.665668 
L 438.762702 -118.670043 
L 438.115376 -118.859737 
L 437.46805 -119.124465 
L 436.820723 -119.380124 
L 436.173397 -119.573016 
L 435.526071 -119.761438 
L 434.878744 -120.026573 
L 434.231418 -120.311299 
L 433.584092 -120.516047 
L 432.936765 -120.598529 
L 432.289439 -120.526069 
L 431.642113 -120.28152 
L 430.994786 -119.909859 
L 430.34746 -119.537242 
L 429.700134 -119.289547 
L 429.052808 -119.214737 
L 428.405481 -119.296621 
L 427.758155 -119.494447 
L 427.110829 -119.72179 
L 426.463502 -119.882945 
L 425.816176 -119.943772 
L 425.16885 -119.958559 
L 424.521523 -120.009487 
L 423.874197 -120.152718 
L 423.226871 -120.389287 
L 422.579544 -120.632128 
L 421.932218 -120.784215 
L 421.284892 -120.825495 
L 420.637565 -120.838714 
L 419.990239 -120.934945 
L 419.342913 -121.107023 
L 418.695586 -121.278761 
L 418.04826 -121.380775 
L 417.400934 -121.35101 
L 416.753607 -121.168939 
L 416.106281 -120.883828 
L 415.458955 -120.568941 
L 414.811628 -120.281034 
L 414.164302 -120.101849 
L 413.516976 -120.079595 
L 412.869649 -120.232131 
L 412.222323 -120.558094 
L 411.574997 -120.953549 
L 410.927671 -121.250872 
L 410.280344 -121.358276 
L 409.633018 -121.214389 
L 408.985692 -120.804323 
L 408.338365 -120.278272 
L 407.691039 -119.811311 
L 407.043713 -119.438557 
L 406.396386 -119.162603 
L 405.74906 -119.017256 
L 405.101734 -119.007197 
L 404.454407 -119.081901 
L 403.807081 -119.170795 
L 403.159755 -119.254734 
L 402.512428 -119.356005 
L 401.865102 -119.497682 
L 401.217776 -119.701697 
L 400.570449 -119.985135 
L 399.923123 -120.348758 
L 399.275797 -120.819321 
L 398.62847 -121.379105 
L 397.981144 -121.956165 
L 397.333818 -122.507743 
L 396.686491 -123.002925 
L 396.039165 -123.34546 
L 395.391839 -123.447776 
L 394.744512 -123.294155 
L 394.097186 -122.909846 
L 393.44986 -122.400641 
L 392.802533 -121.899534 
L 392.155207 -121.465411 
L 391.507881 -121.074693 
L 390.860555 -120.688054 
L 390.213228 -120.292185 
L 389.565902 -119.893054 
L 388.918576 -119.509663 
L 388.271249 -119.174953 
L 387.623923 -118.937091 
L 386.976597 -118.861518 
L 386.32927 -118.970275 
L 385.681944 -119.230645 
L 385.034618 -119.616298 
L 384.387291 -120.049267 
L 383.739965 -120.402732 
L 383.092639 -120.605734 
L 382.445312 -120.653443 
L 381.797986 -120.615629 
L 381.15066 -120.592212 
L 380.503333 -120.669647 
L 379.856007 -120.867542 
L 379.208681 -121.078918 
L 378.561354 -121.197041 
L 377.914028 -121.210514 
L 377.266702 -121.159445 
L 376.619375 -121.056877 
L 375.972049 -120.892472 
L 375.324723 -120.622772 
L 374.677396 -120.205693 
L 374.03007 -119.669055 
L 373.382744 -119.102521 
L 372.735417 -118.587967 
L 372.088091 -118.142748 
L 371.440765 -117.785352 
L 370.793439 -117.598087 
L 370.146112 -117.684414 
L 369.498786 -118.086504 
L 368.85146 -118.724381 
L 368.204133 -119.412787 
L 367.556807 -119.978222 
L 366.909481 -120.362403 
L 366.262154 -120.547633 
L 365.614828 -120.506265 
L 364.967502 -120.263363 
L 364.320175 -119.873141 
L 363.672849 -119.412681 
L 363.025523 -119.016711 
L 362.378196 -118.805203 
L 361.73087 -118.816851 
L 361.083544 -119.018418 
L 360.436217 -119.289644 
L 359.788891 -119.49389 
L 359.141565 -119.575173 
L 358.494238 -119.5842 
L 357.846912 -119.597039 
L 357.199586 -119.649099 
L 356.552259 -119.766033 
L 355.904933 -119.965498 
L 355.257607 -120.170516 
L 354.61028 -120.22113 
L 353.962954 -120.044487 
L 353.315628 -119.710685 
L 352.668301 -119.369356 
L 352.020975 -119.161721 
L 351.373649 -119.097957 
L 350.726323 -119.119108 
L 350.078996 -119.217188 
L 349.43167 -119.388982 
L 348.784344 -119.588651 
L 348.137017 -119.820067 
L 347.489691 -120.115293 
L 346.842365 -120.41093 
L 346.195038 -120.546688 
L 345.547712 -120.391162 
L 344.900386 -119.967607 
L 344.253059 -119.377588 
L 343.605733 -118.733626 
L 342.958407 -118.1743 
L 342.31108 -117.840244 
L 341.663754 -117.838233 
L 341.016428 -118.207566 
L 340.369101 -118.820046 
L 339.721775 -119.422721 
L 339.074449 -119.847722 
L 338.427122 -120.08519 
L 337.779796 -120.1451 
L 337.13247 -120.034028 
L 336.485143 -119.831964 
L 335.837817 -119.646213 
L 335.190491 -119.520121 
L 334.543164 -119.472147 
L 333.895838 -119.515798 
L 333.248512 -119.675094 
L 332.601185 -119.950708 
L 331.953859 -120.289548 
L 331.306533 -120.602268 
L 330.659207 -120.783666 
L 330.01188 -120.766189 
L 329.364554 -120.598466 
L 328.717228 -120.397566 
L 328.069901 -120.28023 
L 327.422575 -120.309771 
L 326.775249 -120.431613 
L 326.127922 -120.546005 
L 325.480596 -120.6309 
L 324.83327 -120.729782 
L 324.185943 -120.820047 
L 323.538617 -120.840834 
L 322.891291 -120.759672 
L 322.243964 -120.5542 
L 321.596638 -120.183291 
L 320.949312 -119.679803 
L 320.301985 -119.172684 
L 319.654659 -118.776082 
L 319.007333 -118.525395 
L 318.360006 -118.408648 
L 317.71268 -118.408885 
L 317.065354 -118.488867 
L 316.418027 -118.596694 
L 315.770701 -118.698708 
L 315.123375 -118.790388 
L 314.476048 -118.903799 
L 313.828722 -119.125241 
L 313.181396 -119.504841 
L 312.534069 -119.9636 
L 311.886743 -120.323159 
L 311.239417 -120.4443 
L 310.592091 -120.323415 
L 309.944764 -120.059076 
L 309.297438 -119.730839 
L 308.650112 -119.397333 
L 308.002785 -119.152943 
L 307.355459 -119.022135 
L 306.708133 -118.891574 
L 306.060806 -118.630279 
L 305.41348 -118.217741 
L 304.766154 -117.678593 
L 304.118827 -117.067813 
L 303.471501 -116.533554 
L 302.824175 -116.276989 
L 302.176848 -116.340352 
L 301.529522 -116.588034 
L 300.882196 -116.894637 
L 300.234869 -117.26105 
L 299.587543 -117.752022 
L 298.940217 -118.390909 
L 298.29289 -119.107666 
L 297.645564 -119.730012 
L 296.998238 -120.072737 
L 296.350911 -120.070464 
L 295.703585 -119.83928 
L 295.056259 -119.56803 
L 294.408932 -119.367256 
L 293.761606 -119.223217 
L 293.11428 -119.088603 
L 292.466954 -118.919789 
L 291.819627 -118.660519 
L 291.172301 -118.273107 
L 290.524975 -117.826348 
L 289.877648 -117.430141 
L 289.230322 -117.164199 
L 288.582996 -117.080365 
L 287.935669 -117.145633 
L 287.288343 -117.279217 
L 286.641017 -117.447387 
L 285.99369 -117.624389 
L 285.346364 -117.754846 
L 284.699038 -117.803226 
L 284.051711 -117.742958 
L 283.404385 -117.534965 
L 282.757059 -117.178439 
L 282.109732 -116.802821 
L 281.462406 -116.550916 
L 280.81508 -116.433565 
L 280.167753 -116.42351 
L 279.520427 -116.541657 
L 278.873101 -116.80365 
L 278.225774 -117.143585 
L 277.578448 -117.391768 
L 276.931122 -117.413957 
L 276.283795 -117.123807 
L 275.636469 -116.499387 
L 274.989143 -115.699295 
L 274.341816 -114.993865 
L 273.69449 -114.584089 
L 273.047164 -114.549379 
L 272.399838 -114.865424 
L 271.752511 -115.421872 
L 271.105185 -116.086695 
L 270.457859 -116.733451 
L 269.810532 -117.294792 
L 269.163206 -117.769578 
L 268.51588 -118.166528 
L 267.868553 -118.438795 
L 267.221227 -118.527385 
L 266.573901 -118.408431 
L 265.926574 -118.109256 
L 265.279248 -117.72636 
L 264.631922 -117.336613 
L 263.984595 -116.939331 
L 263.337269 -116.537349 
L 262.689943 -116.233444 
L 262.042616 -116.129065 
L 261.39529 -116.233331 
L 260.747964 -116.452934 
L 260.100637 -116.628283 
L 259.453311 -116.689103 
L 258.805985 -116.684986 
L 258.158658 -116.658685 
L 257.511332 -116.547963 
L 256.864006 -116.300197 
L 256.216679 -115.915462 
L 255.569353 -115.4603 
L 254.922027 -115.098787 
L 254.2747 -115.015499 
L 253.627374 -115.284415 
L 252.980048 -115.793214 
L 252.332722 -116.347654 
L 251.685395 -116.781838 
L 251.038069 -116.978645 
L 250.390743 -116.918693 
L 249.743416 -116.685423 
L 249.09609 -116.387764 
L 248.448764 -116.099419 
L 247.801437 -115.834907 
L 247.154111 -115.558297 
L 246.506785 -115.270104 
L 245.859458 -115.047735 
L 245.212132 -114.981379 
L 244.564806 -115.067805 
L 243.917479 -115.210223 
L 243.270153 -115.329236 
L 242.622827 -115.435894 
L 241.9755 -115.593771 
L 241.328174 -115.845298 
L 240.680848 -116.237825 
L 240.033521 -116.778431 
L 239.386195 -117.36605 
L 238.738869 -117.827205 
L 238.091542 -118.000597 
L 237.444216 -117.871542 
L 236.79689 -117.608738 
L 236.149563 -117.353859 
L 235.502237 -117.118206 
L 234.854911 -116.829422 
L 234.207584 -116.438716 
L 233.560258 -115.911565 
L 232.912932 -115.262223 
L 232.265606 -114.595424 
L 231.618279 -114.017593 
L 230.970953 -113.635082 
L 230.323627 -113.485635 
L 229.6763 -113.556811 
L 229.028974 -113.879482 
L 228.381648 -114.437341 
L 227.734321 -115.131178 
L 227.086995 -115.816148 
L 226.439669 -116.38168 
L 225.792342 -116.742191 
L 225.145016 -116.790599 
L 224.49769 -116.501031 
L 223.850363 -115.986288 
L 223.203037 -115.428394 
L 222.555711 -114.983868 
L 221.908384 -114.717463 
L 221.261058 -114.618763 
L 220.613732 -114.640486 
L 219.966405 -114.755499 
L 219.319079 -114.899621 
L 218.671753 -114.93717 
L 218.024426 -114.772244 
L 217.3771 -114.420689 
L 216.729774 -113.974372 
L 216.082447 -113.554576 
L 215.435121 -113.184365 
L 214.787795 -112.823869 
L 214.140468 -112.506018 
L 213.493142 -112.267133 
L 212.845816 -112.120722 
L 212.19849 -112.115088 
L 211.551163 -112.284545 
L 210.903837 -112.621675 
L 210.256511 -113.049 
L 209.609184 -113.41664 
L 208.961858 -113.617397 
L 208.314532 -113.680962 
L 207.667205 -113.686966 
L 207.019879 -113.711507 
L 206.372553 -113.782135 
L 205.725226 -113.908338 
L 205.0779 -114.082585 
L 204.430574 -114.179801 
L 203.783247 -114.024143 
L 203.135921 -113.578854 
L 202.488595 -112.966066 
L 201.841268 -112.357161 
L 201.193942 -111.894544 
L 200.546616 -111.632522 
L 199.899289 -111.509329 
L 199.251963 -111.446823 
L 198.604637 -111.422345 
L 197.95731 -111.422144 
L 197.309984 -111.383522 
L 196.662658 -111.2831 
L 196.015331 -111.166731 
L 195.368005 -111.058838 
L 194.720679 -110.910543 
L 194.073353 -110.679895 
L 193.426026 -110.389303 
L 192.7787 -110.07668 
L 192.131374 -109.776087 
L 191.484047 -109.559597 
L 190.836721 -109.480288 
L 190.189395 -109.511952 
L 189.542068 -109.577482 
L 188.894742 -109.641121 
L 188.247416 -109.709175 
L 187.600089 -109.755745 
L 186.952763 -109.725356 
L 186.305437 -109.624318 
L 185.65811 -109.554942 
L 185.010784 -109.596749 
L 184.363458 -109.688436 
L 183.716131 -109.676146 
L 183.068805 -109.475109 
L 182.421479 -109.09009 
L 181.774152 -108.572529 
L 181.126826 -108.025796 
L 180.4795 -107.547396 
L 179.832173 -107.182174 
L 179.184847 -106.957417 
L 178.537521 -106.885308 
L 177.890194 -106.905056 
L 177.242868 -106.950404 
L 176.595542 -107.024113 
L 175.948215 -107.102365 
L 175.300889 -107.151412 
L 174.653563 -107.240092 
L 174.006237 -107.387039 
L 173.35891 -107.506912 
L 172.711584 -107.612348 
L 172.064258 -107.765522 
L 171.416931 -107.976836 
L 170.769605 -108.183302 
L 170.122279 -108.313757 
L 169.474952 -108.384793 
L 168.827626 -108.39884 
L 168.1803 -108.359395 
L 167.532973 -108.331947 
L 166.885647 -108.330436 
L 166.238321 -108.282502 
L 165.590994 -108.150827 
L 164.943668 -107.996857 
L 164.296342 -107.967626 
L 163.649015 -108.137086 
L 163.001689 -108.418232 
L 162.354363 -108.719466 
L 161.707036 -108.997106 
L 161.05971 -109.147342 
L 160.412384 -109.067048 
L 159.765057 -108.764785 
L 159.117731 -108.337847 
L 158.470405 -107.922628 
L 157.823078 -107.649777 
L 157.175752 -107.568458 
L 156.528426 -107.635897 
L 155.881099 -107.732309 
L 155.233773 -107.728521 
L 154.586447 -107.579413 
L 153.939121 -107.314341 
L 153.291794 -106.996762 
L 152.644468 -106.673763 
L 151.997142 -106.366342 
L 151.349815 -106.103827 
L 150.702489 -105.918581 
L 150.055163 -105.820596 
L 149.407836 -105.801986 
L 148.76051 -105.857224 
L 148.113184 -105.959902 
L 147.465857 -106.065118 
L 146.818531 -106.110793 
L 146.171205 -106.081831 
L 145.523878 -106.03659 
L 144.876552 -106.048707 
L 144.229226 -106.137539 
L 143.581899 -106.26524 
L 142.934573 -106.40521 
L 142.287247 -106.595151 
L 141.63992 -106.841793 
L 140.992594 -107.106494 
L 140.345268 -107.372 
L 139.697941 -107.634385 
L 139.050615 -107.904554 
L 138.403289 -108.219118 
L 137.755962 -108.571832 
L 137.108636 -108.878609 
L 136.46131 -109.092651 
L 135.813983 -109.149009 
L 135.166657 -108.901078 
L 134.519331 -108.270522 
L 133.872005 -107.289679 
L 133.224678 -105.996173 
L 132.577352 -104.49145 
L 131.930026 -102.892053 
L 131.282699 -101.248412 
L 130.635373 -99.605852 
L 129.988047 -98.03994 
L 129.34072 -96.588525 
L 128.693394 -95.209839 
L 128.046068 -93.848945 
L 127.398741 -92.458552 
L 126.751415 -91.061078 
L 126.104089 -89.723934 
L 125.456762 -88.472636 
L 124.809436 -87.358771 
L 124.16211 -86.379572 
L 123.514783 -85.399508 
L 122.867457 -84.219875 
L 122.220131 -82.625535 
L 121.572804 -80.458222 
L 120.925478 -77.640351 
L 120.278152 -74.205097 
L 119.630825 -70.405197 
z
" style="stroke: #ffff00; stroke-width: 0.5"/>
    </defs>
    <g clip-path="url(#p8b7ba07f66)">
     <use xlink:href="#m510453a664" x="0" y="294.666344" style="fill: #ffff00; stroke: #ffff00; stroke-width: 0.5"/>
    </g>
   </g>
   <g id="line2d_23">
    <path d="M 119.630825 224.261146 
L 120.278152 192.23625 
L 120.925478 216.747898 
L 121.572804 217.246726 
L 122.867457 207.863277 
L 124.16211 203.116409 
L 125.456762 204.952863 
L 126.104089 202.466503 
L 126.751415 199.448996 
L 127.398741 198.480165 
L 128.046068 199.580486 
L 128.693394 202.240888 
L 129.34072 206.617718 
L 129.988047 212.88339 
L 130.635373 220.418311 
L 131.282699 220.923728 
L 131.930026 216.43442 
L 132.577352 215.086948 
L 133.224678 216.83081 
L 133.872005 221.943566 
L 134.519331 220.636564 
L 135.166657 216.629731 
L 135.813983 215.303552 
L 136.46131 217.480393 
L 137.108636 223.97483 
L 137.755962 212.427022 
L 139.697941 169.920654 
L 140.345268 158.194646 
L 140.992594 150.539011 
L 141.63992 148.80316 
L 142.287247 152.548914 
L 143.581899 164.993028 
L 144.229226 168.798924 
L 144.876552 168.840536 
L 145.523878 164.422207 
L 146.818531 149.163911 
L 147.465857 144.841903 
L 148.113184 147.181819 
L 148.76051 159.370252 
L 149.407836 181.93544 
L 150.055163 211.989634 
L 150.702489 203.261181 
L 151.349815 172.465262 
L 151.997142 148.417944 
L 152.644468 134.404428 
L 153.291794 131.71881 
L 153.939121 139.273972 
L 154.586447 153.561109 
L 157.175752 220.083249 
L 157.823078 214.597012 
L 159.765057 179.211934 
L 161.707036 130.292758 
L 162.354363 120.538214 
L 163.001689 115.051024 
L 164.296342 111.18343 
L 165.590994 99.41347 
L 166.238321 97.607504 
L 166.885647 101.208202 
L 167.532973 111.739076 
L 168.1803 131.642877 
L 170.122279 212.587607 
L 170.769605 220.136858 
L 171.416931 214.353758 
L 172.064258 217.227553 
L 172.711584 223.533594 
L 174.006237 214.606032 
L 174.653563 213.770046 
L 175.300889 215.712447 
L 176.595542 221.157899 
L 177.242868 221.122354 
L 177.890194 207.915349 
L 179.832173 152.955926 
L 181.126826 120.517835 
L 181.774152 107.040194 
L 182.421479 98.220848 
L 183.068805 94.947342 
L 183.716131 97.078245 
L 184.363458 103.557048 
L 185.65811 122.514172 
L 186.952763 143.063338 
L 187.600089 150.584425 
L 188.247416 154.243279 
L 188.894742 154.091677 
L 189.542068 154.314695 
L 190.189395 159.435811 
L 190.836721 171.809588 
L 191.484047 193.586362 
L 192.131374 223.592018 
L 194.073353 112.601594 
L 194.720679 84.287808 
L 195.368005 66.750294 
L 196.015331 63.771723 
L 196.662658 77.045565 
L 197.309984 103.470236 
L 199.251963 200.256463 
L 199.899289 221.083286 
L 201.193942 178.993811 
L 202.488595 142.647658 
L 203.135921 133.629612 
L 203.783247 131.684544 
L 204.430574 133.840913 
L 205.0779 139.178017 
L 205.725226 148.70523 
L 208.314532 204.941175 
L 208.961858 219.32645 
L 209.609184 217.585783 
L 210.256511 210.04624 
L 210.903837 206.822477 
L 212.19849 204.049872 
L 212.845816 203.330406 
L 213.493142 205.988001 
L 214.787795 220.930726 
L 215.435121 222.046733 
L 216.082447 222.722948 
L 216.729774 216.858122 
L 218.671753 171.02854 
L 219.966405 141.691365 
L 220.613732 134.135001 
L 221.261058 137.076924 
L 221.908384 150.085838 
L 224.49769 220.662991 
L 225.145016 215.830756 
L 225.792342 208.189896 
L 227.086995 196.629205 
L 229.6763 167.672596 
L 230.323627 159.996428 
L 230.970953 154.23483 
L 231.618279 152.161807 
L 232.265606 153.8543 
L 232.912932 158.372327 
L 233.560258 165.246974 
L 234.854911 180.688736 
L 235.502237 183.982563 
L 236.149563 181.548089 
L 236.79689 173.642304 
L 238.091542 149.692617 
L 238.738869 141.751709 
L 239.386195 142.886214 
L 240.033521 155.368144 
L 240.680848 178.762597 
L 241.328174 210.792745 
L 241.9755 202.211384 
L 242.622827 171.334468 
L 243.270153 151.908073 
L 243.917479 146.185317 
L 244.564806 153.312791 
L 245.212132 170.494661 
L 246.506785 218.226987 
L 247.154111 208.409689 
L 247.801437 191.910055 
L 248.448764 183.926584 
L 249.09609 186.246325 
L 251.038069 213.405465 
L 251.685395 218.198928 
L 252.332722 218.732089 
L 252.980048 214.402391 
L 254.2747 197.946091 
L 254.922027 193.02388 
L 255.569353 190.633688 
L 256.216679 190.651841 
L 256.864006 193.773958 
L 257.511332 199.368022 
L 258.158658 207.685194 
L 258.805985 217.858475 
L 259.453311 221.066543 
L 262.042616 186.343241 
L 262.689943 181.508504 
L 263.337269 180.682583 
L 263.984595 185.180392 
L 265.279248 202.130867 
L 265.926574 204.466641 
L 266.573901 196.692714 
L 267.221227 179.788862 
L 268.51588 138.754706 
L 269.163206 126.850965 
L 269.810532 123.034514 
L 270.457859 126.580608 
L 271.105185 136.980081 
L 273.69449 192.314427 
L 274.341816 208.742891 
L 274.989143 219.242239 
L 276.283795 176.38772 
L 276.931122 162.042598 
L 277.578448 153.929186 
L 278.225774 151.196516 
L 278.873101 154.081223 
L 280.81508 172.834016 
L 281.462406 176.439253 
L 282.757059 180.107687 
L 284.051711 184.883263 
L 285.346364 192.162319 
L 285.99369 193.147247 
L 286.641017 190.22974 
L 287.288343 183.84666 
L 288.582996 166.69297 
L 289.230322 163.09593 
L 289.877648 169.954897 
L 290.524975 187.054436 
L 291.172301 210.707578 
L 291.819627 210.691198 
L 293.11428 157.284782 
L 293.761606 136.149832 
L 294.408932 119.628673 
L 295.056259 107.959735 
L 295.703585 103.750643 
L 296.350911 109.84144 
L 296.998238 127.173534 
L 297.645564 153.7363 
L 298.940217 219.141178 
L 299.587543 196.666528 
L 300.234869 167.340345 
L 300.882196 145.266736 
L 301.529522 131.36437 
L 302.176848 124.86715 
L 302.824175 125.241761 
L 303.471501 131.779153 
L 304.118827 145.125038 
L 304.766154 165.473976 
L 306.060806 220.082036 
L 306.708133 201.694938 
L 307.355459 179.862216 
L 308.002785 166.635073 
L 308.650112 163.244487 
L 309.297438 164.400333 
L 309.944764 163.578594 
L 310.592091 158.845948 
L 311.886743 145.904699 
L 312.534069 143.352919 
L 313.181396 147.733311 
L 313.828722 161.116981 
L 315.770701 219.729411 
L 316.418027 217.698457 
L 317.065354 209.589787 
L 317.71268 203.215043 
L 318.360006 201.885634 
L 319.654659 210.107806 
L 320.301985 210.513012 
L 320.949312 208.131192 
L 321.596638 206.387547 
L 322.243964 207.243786 
L 322.891291 210.94559 
L 323.538617 218.272891 
L 324.185943 217.461948 
L 324.83327 198.506201 
L 326.127922 153.50034 
L 326.775249 135.863868 
L 327.422575 126.936436 
L 328.069901 129.703973 
L 328.717228 144.078054 
L 330.01188 195.153861 
L 330.659207 221.633796 
L 331.953859 182.959073 
L 332.601185 170.06662 
L 333.248512 166.618057 
L 333.895838 171.123334 
L 334.543164 177.981086 
L 335.190491 183.510004 
L 336.485143 192.207432 
L 337.779796 204.355161 
L 338.427122 213.769015 
L 339.074449 219.855786 
L 341.016428 159.185806 
L 341.663754 154.575624 
L 342.31108 165.243414 
L 342.958407 189.294838 
L 343.605733 221.679588 
L 344.900386 161.942056 
L 345.547712 139.748709 
L 346.195038 125.295808 
L 347.489691 105.889922 
L 348.784344 89.712148 
L 349.43167 81.673374 
L 350.078996 71.361472 
L 350.726323 62.892789 
L 351.373649 61.072546 
L 352.020975 66.33084 
L 352.668301 78.594367 
L 353.315628 97.912592 
L 353.962954 123.812887 
L 355.904933 216.242599 
L 356.552259 206.782315 
L 357.199586 186.46969 
L 359.141565 138.7116 
L 359.788891 125.229546 
L 360.436217 121.426482 
L 361.083544 130.97897 
L 361.73087 152.908849 
L 363.025523 213.163555 
L 363.672849 208.134718 
L 364.320175 185.771349 
L 364.967502 170.296296 
L 365.614828 163.299823 
L 366.262154 164.21546 
L 366.909481 170.941701 
L 368.85146 199.619321 
L 369.498786 209.204521 
L 370.146112 217.060384 
L 370.793439 221.866127 
L 371.440765 222.014738 
L 372.088091 215.288738 
L 373.382744 191.036145 
L 374.03007 183.946311 
L 374.677396 182.986216 
L 375.324723 186.930442 
L 375.972049 196.31533 
L 377.266702 222.773393 
L 378.561354 211.694252 
L 379.208681 208.174701 
L 379.856007 203.835361 
L 380.503333 198.535664 
L 381.15066 196.874122 
L 381.797986 201.457458 
L 382.445312 211.38428 
L 383.092639 223.620612 
L 383.739965 213.860099 
L 384.387291 206.557259 
L 385.034618 204.956977 
L 385.681944 209.69489 
L 386.32927 219.990221 
L 386.976597 214.606332 
L 388.271249 186.159489 
L 388.918576 178.539114 
L 389.565902 177.313527 
L 390.213228 179.839197 
L 390.860555 184.521131 
L 392.155207 197.009863 
L 392.802533 204.764442 
L 393.44986 215.64534 
L 394.097186 223.215111 
L 394.744512 217.853605 
L 395.391839 215.830107 
L 396.039165 214.692001 
L 396.686491 209.94166 
L 397.333818 198.251301 
L 397.981144 180.216218 
L 399.275797 139.958297 
L 399.923123 130.911413 
L 400.570449 133.308563 
L 401.217776 144.857392 
L 402.512428 172.545638 
L 403.807081 194.034981 
L 405.101734 223.560609 
L 408.338365 150.247328 
L 408.985692 138.71098 
L 410.280344 120.232163 
L 412.222323 86.180184 
L 412.869649 80.195366 
L 413.516976 76.061034 
L 414.164302 70.502861 
L 415.458955 53.811505 
L 416.106281 49.405197 
L 416.753607 53.295711 
L 417.400934 67.119871 
L 418.04826 90.859068 
L 420.637565 218.936025 
L 421.284892 199.591004 
L 422.579544 150.728296 
L 423.226871 132.858369 
L 423.874197 123.089834 
L 424.521523 122.673344 
L 425.16885 130.505536 
L 425.816176 146.015326 
L 427.758155 212.891593 
L 428.405481 218.356546 
L 429.052808 209.868731 
L 429.700134 209.172659 
L 430.34746 214.277963 
L 430.994786 221.835674 
L 431.642113 223.494981 
L 432.289439 219.343193 
L 434.231418 180.520695 
L 434.878744 176.521188 
L 435.526071 179.239761 
L 436.173397 185.136887 
L 436.820723 193.828141 
L 438.115376 217.624141 
L 438.762702 216.86461 
L 440.057355 189.684378 
L 440.704681 181.00818 
L 441.352008 175.654414 
L 441.999334 171.404663 
L 441.999334 171.404663 
" clip-path="url(#p8b7ba07f66)" style="fill: none; stroke-dasharray: 2,3.3; stroke-dashoffset: 0; stroke: #e24a33; stroke-opacity: 0.523046; stroke-width: 2"/>
   </g>
   <g id="line2d_24">
    <path d="M 119.630825 224.261146 
L 120.278152 194.85855 
L 120.925478 211.473461 
L 121.572804 209.362846 
L 122.220131 222.455592 
L 122.867457 216.193173 
L 123.514783 208.451303 
L 124.16211 198.823555 
L 124.809436 192.718365 
L 126.104089 186.342913 
L 126.751415 186.211991 
L 127.398741 191.196565 
L 129.34072 216.148816 
L 129.988047 219.966091 
L 130.635373 221.189149 
L 131.282699 220.207898 
L 131.930026 216.452845 
L 133.224678 206.676132 
L 133.872005 203.790388 
L 134.519331 203.487983 
L 135.166657 206.372008 
L 136.46131 217.17419 
L 137.108636 223.64276 
L 137.755962 217.470668 
L 139.050615 200.558398 
L 140.992594 179.985864 
L 141.63992 176.13904 
L 142.287247 175.563589 
L 142.934573 176.105231 
L 143.581899 176.023053 
L 144.229226 175.602555 
L 144.876552 175.736792 
L 145.523878 176.057137 
L 146.171205 175.788178 
L 146.818531 176.414502 
L 147.465857 180.417232 
L 148.113184 188.851407 
L 148.76051 202.015855 
L 149.407836 218.95382 
L 150.055163 210.95904 
L 151.349815 175.226142 
L 151.997142 161.451351 
L 152.644468 152.765932 
L 153.291794 150.012931 
L 153.939121 152.400162 
L 154.586447 158.159621 
L 155.881099 173.160243 
L 156.528426 182.34461 
L 157.823078 206.186992 
L 158.470405 219.323153 
L 159.117731 216.941272 
L 159.765057 205.852687 
L 160.412384 196.808579 
L 161.05971 191.370746 
L 161.707036 190.561548 
L 163.001689 194.690889 
L 163.649015 194.879452 
L 164.296342 192.166181 
L 165.590994 181.21475 
L 166.238321 178.912657 
L 166.885647 178.536604 
L 167.532973 179.03877 
L 168.1803 182.305849 
L 168.827626 189.858974 
L 170.122279 208.429981 
L 171.416931 223.572687 
L 172.711584 216.460791 
L 174.006237 211.908171 
L 174.653563 208.634176 
L 175.948215 200.788703 
L 176.595542 199.639231 
L 178.537521 202.080239 
L 179.184847 204.534527 
L 179.832173 208.489565 
L 180.4795 210.717743 
L 181.126826 209.947712 
L 181.774152 206.291366 
L 183.068805 194.307423 
L 184.363458 186.515176 
L 185.010784 179.704068 
L 186.952763 151.104956 
L 187.600089 144.6805 
L 188.247416 139.828631 
L 188.894742 135.894774 
L 189.542068 135.135126 
L 190.189395 140.462754 
L 190.836721 152.995905 
L 191.484047 173.902387 
L 192.131374 202.44071 
L 192.7787 214.078761 
L 194.073353 153.915855 
L 194.720679 130.908091 
L 195.368005 115.885835 
L 196.015331 111.309535 
L 196.662658 117.083172 
L 197.309984 131.032861 
L 198.604637 172.558166 
L 199.899289 219.400604 
L 200.546616 209.656344 
L 203.135921 143.719472 
L 203.783247 132.691872 
L 204.430574 126.713848 
L 205.0779 127.408901 
L 205.725226 136.715213 
L 207.667205 186.541841 
L 208.314532 197.926901 
L 208.961858 205.445339 
L 209.609184 209.244509 
L 210.903837 211.542281 
L 211.551163 215.814812 
L 212.19849 223.605861 
L 212.845816 212.078766 
L 213.493142 203.083191 
L 214.140468 200.090769 
L 214.787795 202.274779 
L 216.082447 213.066253 
L 216.729774 215.302126 
L 217.3771 213.341981 
L 218.671753 205.965636 
L 219.966405 197.896107 
L 220.613732 198.16043 
L 221.261058 203.817427 
L 222.555711 222.935877 
L 223.850363 196.582644 
L 225.145016 177.460816 
L 226.439669 161.735242 
L 227.086995 155.792348 
L 227.734321 151.11233 
L 230.970953 134.146796 
L 231.618279 133.159172 
L 232.265606 134.703684 
L 232.912932 138.680457 
L 233.560258 145.698504 
L 234.207584 156.061125 
L 235.502237 180.745948 
L 236.149563 190.208837 
L 236.79689 197.206672 
L 237.444216 201.873399 
L 238.091542 205.463424 
L 238.738869 210.359113 
L 239.386195 217.725986 
L 240.033521 221.043629 
L 240.680848 208.855108 
L 241.9755 179.811692 
L 242.622827 168.303324 
L 243.270153 161.808385 
L 243.917479 159.497178 
L 244.564806 159.590619 
L 245.212132 160.79793 
L 245.859458 162.320304 
L 246.506785 164.970389 
L 247.154111 168.839641 
L 249.743416 189.291662 
L 250.390743 193.867059 
L 251.038069 200.460676 
L 251.685395 209.957593 
L 252.332722 221.553666 
L 252.980048 213.788005 
L 253.627374 199.762418 
L 254.2747 188.954641 
L 254.922027 185.083966 
L 255.569353 187.447604 
L 256.216679 194.831056 
L 257.511332 220.279932 
L 258.158658 216.240696 
L 258.805985 207.6518 
L 259.453311 204.079161 
L 260.100637 203.628997 
L 260.747964 203.013162 
L 263.984595 195.355982 
L 264.631922 194.348277 
L 265.279248 192.03212 
L 265.926574 184.803035 
L 266.573901 169.809259 
L 267.868553 128.010502 
L 268.51588 113.541408 
L 269.163206 107.956685 
L 269.810532 109.342562 
L 270.457859 116.119417 
L 271.752511 140.206495 
L 273.047164 163.0456 
L 274.989143 192.809978 
L 276.283795 217.139971 
L 276.931122 222.054868 
L 277.578448 216.229396 
L 278.225774 212.88541 
L 278.873101 210.678149 
L 279.520427 207.658622 
L 280.167753 202.507357 
L 281.462406 187.378356 
L 282.109732 179.341364 
L 282.757059 173.088194 
L 283.404385 169.511317 
L 284.051711 169.040221 
L 284.699038 172.381768 
L 286.641017 190.919695 
L 288.582996 205.011996 
L 289.230322 211.873244 
L 289.877648 223.381134 
L 290.524975 208.787178 
L 291.819627 167.976193 
L 293.11428 124.740319 
L 293.761606 107.808282 
L 294.408932 97.508119 
L 295.056259 94.951453 
L 295.703585 100.688481 
L 296.350911 114.914632 
L 296.998238 137.355106 
L 298.940217 222.030343 
L 300.234869 188.03824 
L 300.882196 178.080505 
L 301.529522 174.240645 
L 302.176848 175.274515 
L 302.824175 180.031531 
L 303.471501 187.491968 
L 304.766154 205.714295 
L 305.41348 212.735574 
L 306.060806 218.345823 
L 306.708133 222.375688 
L 307.355459 224.138488 
L 308.002785 222.450271 
L 308.650112 217.705244 
L 309.297438 213.811963 
L 309.944764 214.974401 
L 310.592091 221.623342 
L 311.239417 217.252236 
L 311.886743 207.52866 
L 312.534069 200.085292 
L 313.181396 197.101452 
L 313.828722 199.241972 
L 314.476048 204.92382 
L 315.123375 211.734442 
L 315.770701 217.149473 
L 316.418027 219.864938 
L 317.065354 221.584481 
L 317.71268 222.822049 
L 318.360006 221.642749 
L 319.654659 214.321536 
L 320.301985 214.944629 
L 321.596638 223.82278 
L 322.243964 223.014429 
L 322.891291 223.255893 
L 323.538617 217.59682 
L 325.480596 194.442 
L 326.127922 190.346028 
L 326.775249 188.73902 
L 327.422575 190.915274 
L 328.069901 197.303725 
L 328.717228 206.590136 
L 329.364554 217.54001 
L 330.01188 220.210425 
L 330.659207 210.785666 
L 331.306533 203.368373 
L 331.953859 199.162751 
L 332.601185 198.952749 
L 333.248512 202.901042 
L 334.543164 219.165565 
L 335.190491 224.058515 
L 335.837817 223.3986 
L 336.485143 215.51265 
L 337.13247 202.312918 
L 338.427122 170.228823 
L 339.074449 161.696643 
L 339.721775 164.515558 
L 340.369101 178.605742 
L 341.016428 197.515066 
L 341.663754 212.731391 
L 342.31108 219.308033 
L 342.958407 216.50238 
L 343.605733 206.990069 
L 344.900386 184.269434 
L 345.547712 176.346224 
L 346.842365 164.330949 
L 347.489691 157.653574 
L 348.137017 152.314417 
L 348.784344 149.679738 
L 349.43167 147.884506 
L 350.726323 141.196681 
L 351.373649 140.028931 
L 352.020975 142.462986 
L 352.668301 148.980224 
L 353.315628 159.046721 
L 355.257607 193.430616 
L 357.199586 224.125417 
L 358.494238 207.097647 
L 359.141565 199.303032 
L 359.788891 194.423449 
L 360.436217 197.034749 
L 361.083544 208.260015 
L 361.73087 223.524868 
L 363.025523 191.591957 
L 363.672849 180.43263 
L 364.320175 171.372501 
L 364.967502 164.961505 
L 365.614828 162.401871 
L 366.262154 164.030642 
L 366.909481 169.990896 
L 367.556807 179.757772 
L 368.85146 208.402325 
L 369.498786 223.825602 
L 370.793439 196.105926 
L 371.440765 186.660118 
L 372.088091 185.178331 
L 372.735417 190.674036 
L 374.677396 219.422293 
L 375.324723 221.181227 
L 375.972049 217.836648 
L 376.619375 220.093212 
L 377.266702 223.063179 
L 377.914028 218.08035 
L 378.561354 215.186337 
L 379.208681 214.204009 
L 379.856007 213.783368 
L 380.503333 213.798747 
L 381.15066 217.016099 
L 381.797986 224.006669 
L 382.445312 215.168513 
L 384.387291 182.044135 
L 385.034618 175.615032 
L 385.681944 176.841394 
L 386.32927 185.296144 
L 388.271249 223.607553 
L 388.918576 214.095246 
L 389.565902 208.097782 
L 390.213228 204.244262 
L 390.860555 201.677073 
L 391.507881 199.901906 
L 392.155207 197.014106 
L 392.802533 193.076077 
L 393.44986 190.162362 
L 394.097186 188.090752 
L 394.744512 187.05987 
L 395.391839 188.278693 
L 396.039165 192.5911 
L 396.686491 202.087843 
L 397.333818 218.03569 
L 397.981144 210.615476 
L 398.62847 191.795706 
L 399.275797 179.186486 
L 399.923123 175.556162 
L 400.570449 180.436144 
L 401.865102 200.549963 
L 402.512428 207.23756 
L 403.159755 209.817358 
L 403.807081 209.166334 
L 405.74906 200.361339 
L 406.396386 199.336804 
L 407.043713 201.481949 
L 407.691039 208.224249 
L 408.338365 218.313009 
L 408.985692 219.235692 
L 410.280344 198.052887 
L 411.574997 172.764721 
L 412.222323 163.057912 
L 413.516976 147.859889 
L 414.164302 136.473238 
L 415.458955 106.390759 
L 416.106281 94.965259 
L 416.753607 89.807208 
L 417.400934 92.131855 
L 418.04826 102.087858 
L 418.695586 118.554199 
L 419.990239 162.623809 
L 421.284892 206.264636 
L 421.932218 223.908755 
L 423.226871 191.296396 
L 423.874197 177.598028 
L 424.521523 168.724192 
L 425.16885 165.93948 
L 425.816176 169.360646 
L 426.463502 176.937187 
L 427.758155 197.038559 
L 428.405481 207.696767 
L 429.052808 216.371869 
L 429.700134 222.427863 
L 430.34746 222.206351 
L 430.994786 218.631491 
L 431.642113 212.774197 
L 433.584092 189.732741 
L 434.231418 188.323896 
L 434.878744 193.999621 
L 436.820723 224.185689 
L 437.46805 216.526373 
L 438.115376 211.326305 
L 439.410029 204.951156 
L 440.057355 204.339309 
L 440.704681 208.642707 
L 441.352008 217.828467 
L 441.999334 219.1582 
L 441.999334 219.1582 
" clip-path="url(#p8b7ba07f66)" style="fill: none; stroke: #ff0000; stroke-width: 2; stroke-linecap: square"/>
   </g>
   <g id="patch_3">
    <path d="M 103.5124 233.003944 
L 103.5124 40.6624 
" style="fill: none; stroke: #ffffff; stroke-linejoin: miter; stroke-linecap: square"/>
   </g>
   <g id="patch_4">
    <path d="M 458.117759 233.003944 
L 458.117759 40.6624 
" style="fill: none; stroke: #ffffff; stroke-linejoin: miter; stroke-linecap: square"/>
   </g>
   <g id="patch_5">
    <path d="M 103.5124 233.003944 
L 458.117759 233.003944 
" style="fill: none; stroke: #ffffff; stroke-linejoin: miter; stroke-linecap: square"/>
   </g>
   <g id="patch_6">
    <path d="M 103.5124 40.6624 
L 458.117759 40.6624 
" style="fill: none; stroke: #ffffff; stroke-linejoin: miter; stroke-linecap: square"/>
   </g>
   <g id="text_14">
    <!-- Bath 1 (left, $T=0.6$) -->
    <g transform="translate(193.72388 34.6624)scale(0.1728 -0.1728)">
     <defs>
      <path id="DejaVuSans-42" d="M 1259 2228 
L 1259 519 
L 2272 519 
Q 2781 519 3026 730 
Q 3272 941 3272 1375 
Q 3272 1813 3026 2020 
Q 2781 2228 2272 2228 
L 1259 2228 
z
M 1259 4147 
L 1259 2741 
L 2194 2741 
Q 2656 2741 2882 2914 
Q 3109 3088 3109 3444 
Q 3109 3797 2882 3972 
Q 2656 4147 2194 4147 
L 1259 4147 
z
M 628 4666 
L 2241 4666 
Q 2963 4666 3353 4366 
Q 3744 4066 3744 3513 
Q 3744 3084 3544 2831 
Q 3344 2578 2956 2516 
Q 3422 2416 3680 2098 
Q 3938 1781 3938 1306 
Q 3938 681 3513 340 
Q 3088 0 2303 0 
L 628 0 
L 628 4666 
z
" transform="scale(0.015625)"/>
      <path id="DejaVuSans-61" d="M 2194 1759 
Q 1497 1759 1228 1600 
Q 959 1441 959 1056 
Q 959 750 1161 570 
Q 1363 391 1709 391 
Q 2188 391 2477 730 
Q 2766 1069 2766 1631 
L 2766 1759 
L 2194 1759 
z
M 3341 1997 
L 3341 0 
L 2766 0 
L 2766 531 
Q 2569 213 2275 61 
Q 1981 -91 1556 -91 
Q 1019 -91 701 211 
Q 384 513 384 1019 
Q 384 1609 779 1909 
Q 1175 2209 1959 2209 
L 2766 2209 
L 2766 2266 
Q 2766 2663 2505 2880 
Q 2244 3097 1772 3097 
Q 1472 3097 1187 3025 
Q 903 2953 641 2809 
L 641 3341 
Q 956 3463 1253 3523 
Q 1550 3584 1831 3584 
Q 2591 3584 2966 3190 
Q 3341 2797 3341 1997 
z
" transform="scale(0.015625)"/>
      <path id="DejaVuSans-74" d="M 1172 4494 
L 1172 3500 
L 2356 3500 
L 2356 3053 
L 1172 3053 
L 1172 1153 
Q 1172 725 1289 603 
Q 1406 481 1766 481 
L 2356 481 
L 2356 0 
L 1766 0 
Q 1100 0 847 248 
Q 594 497 594 1153 
L 594 3053 
L 172 3053 
L 172 3500 
L 594 3500 
L 594 4494 
L 1172 4494 
z
" transform="scale(0.015625)"/>
      <path id="DejaVuSans-68" d="M 3513 2113 
L 3513 0 
L 2938 0 
L 2938 2094 
Q 2938 2591 2744 2837 
Q 2550 3084 2163 3084 
Q 1697 3084 1428 2787 
Q 1159 2491 1159 1978 
L 1159 0 
L 581 0 
L 581 4863 
L 1159 4863 
L 1159 2956 
Q 1366 3272 1645 3428 
Q 1925 3584 2291 3584 
Q 2894 3584 3203 3211 
Q 3513 2838 3513 2113 
z
" transform="scale(0.015625)"/>
      <path id="DejaVuSans-20" transform="scale(0.015625)"/>
      <path id="DejaVuSans-28" d="M 1984 4856 
Q 1566 4138 1362 3434 
Q 1159 2731 1159 2009 
Q 1159 1288 1364 580 
Q 1569 -128 1984 -844 
L 1484 -844 
Q 1016 -109 783 600 
Q 550 1309 550 2009 
Q 550 2706 781 3412 
Q 1013 4119 1484 4856 
L 1984 4856 
z
" transform="scale(0.015625)"/>
      <path id="DejaVuSans-6c" d="M 603 4863 
L 1178 4863 
L 1178 0 
L 603 0 
L 603 4863 
z
" transform="scale(0.015625)"/>
      <path id="DejaVuSans-2c" d="M 750 794 
L 1409 794 
L 1409 256 
L 897 -744 
L 494 -744 
L 750 256 
L 750 794 
z
" transform="scale(0.015625)"/>
      <path id="DejaVuSans-Oblique-54" d="M 378 4666 
L 4325 4666 
L 4225 4134 
L 2559 4134 
L 1759 0 
L 1125 0 
L 1925 4134 
L 275 4134 
L 378 4666 
z
" transform="scale(0.015625)"/>
      <path id="DejaVuSans-3d" d="M 678 2906 
L 4684 2906 
L 4684 2381 
L 678 2381 
L 678 2906 
z
M 678 1631 
L 4684 1631 
L 4684 1100 
L 678 1100 
L 678 1631 
z
" transform="scale(0.015625)"/>
      <path id="DejaVuSans-36" d="M 2113 2584 
Q 1688 2584 1439 2293 
Q 1191 2003 1191 1497 
Q 1191 994 1439 701 
Q 1688 409 2113 409 
Q 2538 409 2786 701 
Q 3034 994 3034 1497 
Q 3034 2003 2786 2293 
Q 2538 2584 2113 2584 
z
M 3366 4563 
L 3366 3988 
Q 3128 4100 2886 4159 
Q 2644 4219 2406 4219 
Q 1781 4219 1451 3797 
Q 1122 3375 1075 2522 
Q 1259 2794 1537 2939 
Q 1816 3084 2150 3084 
Q 2853 3084 3261 2657 
Q 3669 2231 3669 1497 
Q 3669 778 3244 343 
Q 2819 -91 2113 -91 
Q 1303 -91 875 529 
Q 447 1150 447 2328 
Q 447 3434 972 4092 
Q 1497 4750 2381 4750 
Q 2619 4750 2861 4703 
Q 3103 4656 3366 4563 
z
" transform="scale(0.015625)"/>
      <path id="DejaVuSans-29" d="M 513 4856 
L 1013 4856 
Q 1481 4119 1714 3412 
Q 1947 2706 1947 2009 
Q 1947 1309 1714 600 
Q 1481 -109 1013 -844 
L 513 -844 
Q 928 -128 1133 580 
Q 1338 1288 1338 2009 
Q 1338 2731 1133 3434 
Q 928 4138 513 4856 
z
" transform="scale(0.015625)"/>
     </defs>
     <use xlink:href="#DejaVuSans-42" transform="translate(0 0.015625)"/>
     <use xlink:href="#DejaVuSans-61" transform="translate(68.603516 0.015625)"/>
     <use xlink:href="#DejaVuSans-74" transform="translate(129.882812 0.015625)"/>
     <use xlink:href="#DejaVuSans-68" transform="translate(169.091797 0.015625)"/>
     <use xlink:href="#DejaVuSans-20" transform="translate(232.470703 0.015625)"/>
     <use xlink:href="#DejaVuSans-31" transform="translate(264.257812 0.015625)"/>
     <use xlink:href="#DejaVuSans-20" transform="translate(327.880859 0.015625)"/>
     <use xlink:href="#DejaVuSans-28" transform="translate(359.667969 0.015625)"/>
     <use xlink:href="#DejaVuSans-6c" transform="translate(398.681641 0.015625)"/>
     <use xlink:href="#DejaVuSans-65" transform="translate(426.464844 0.015625)"/>
     <use xlink:href="#DejaVuSans-66" transform="translate(487.988281 0.015625)"/>
     <use xlink:href="#DejaVuSans-74" transform="translate(523.193359 0.015625)"/>
     <use xlink:href="#DejaVuSans-2c" transform="translate(562.402344 0.015625)"/>
     <use xlink:href="#DejaVuSans-20" transform="translate(594.189453 0.015625)"/>
     <use xlink:href="#DejaVuSans-Oblique-54" transform="translate(625.976562 0.015625)"/>
     <use xlink:href="#DejaVuSans-3d" transform="translate(706.542969 0.015625)"/>
     <use xlink:href="#DejaVuSans-30" transform="translate(809.814453 0.015625)"/>
     <use xlink:href="#DejaVuSans-2e" transform="translate(873.4375 0.015625)"/>
     <use xlink:href="#DejaVuSans-36" transform="translate(905.224609 0.015625)"/>
     <use xlink:href="#DejaVuSans-29" transform="translate(968.847656 0.015625)"/>
    </g>
   </g>
   <g id="legend_1">
    <g id="patch_7">
     <path d="M 113.588368 115.561928 
L 333.964182 115.561928 
Q 336.84303 115.561928 336.84303 112.68308 
L 336.84303 50.738368 
Q 336.84303 47.85952 333.964182 47.85952 
L 113.588368 47.85952 
Q 110.70952 47.85952 110.70952 50.738368 
L 110.70952 112.68308 
Q 110.70952 115.561928 113.588368 115.561928 
z
" style="fill: #e5e5e5; opacity: 0.8; stroke: #cccccc; stroke-width: 0.5; stroke-linejoin: miter"/>
    </g>
    <g id="patch_8">
     <path d="M 116.467216 64.554589 
L 145.255696 64.554589 
L 145.255696 54.478621 
L 116.467216 54.478621 
z
" style="fill: #ffff00; stroke: #ffff00; stroke-width: 0.5; stroke-linejoin: miter"/>
    </g>
    <g id="text_15">
     <!-- $\sigma\, (N=5191)$ -->
     <g transform="translate(156.771088 64.554589)scale(0.143942 -0.143942)">
      <defs>
       <path id="DejaVuSans-Oblique-3c3" d="M 2219 3044 
Q 1744 3044 1422 2700 
Q 1081 2341 969 1747 
Q 844 1119 1044 756 
Q 1241 397 1706 397 
Q 2166 397 2503 759 
Q 2844 1122 2966 1747 
Q 3075 2319 2881 2700 
Q 2700 3044 2219 3044 
z
M 2309 3503 
L 4219 3500 
L 4106 2925 
L 3463 2925 
Q 3706 2438 3575 1747 
Q 3406 888 2884 400 
Q 2359 -91 1609 -91 
Q 856 -91 525 400 
Q 194 888 363 1747 
Q 528 2609 1050 3097 
Q 1484 3503 2309 3503 
z
" transform="scale(0.015625)"/>
       <path id="DejaVuSans-39" d="M 703 97 
L 703 672 
Q 941 559 1184 500 
Q 1428 441 1663 441 
Q 2288 441 2617 861 
Q 2947 1281 2994 2138 
Q 2813 1869 2534 1725 
Q 2256 1581 1919 1581 
Q 1219 1581 811 2004 
Q 403 2428 403 3163 
Q 403 3881 828 4315 
Q 1253 4750 1959 4750 
Q 2769 4750 3195 4129 
Q 3622 3509 3622 2328 
Q 3622 1225 3098 567 
Q 2575 -91 1691 -91 
Q 1453 -91 1209 -44 
Q 966 3 703 97 
z
M 1959 2075 
Q 2384 2075 2632 2365 
Q 2881 2656 2881 3163 
Q 2881 3666 2632 3958 
Q 2384 4250 1959 4250 
Q 1534 4250 1286 3958 
Q 1038 3666 1038 3163 
Q 1038 2656 1286 2365 
Q 1534 2075 1959 2075 
z
" transform="scale(0.015625)"/>
      </defs>
      <use xlink:href="#DejaVuSans-Oblique-3c3" transform="translate(0 0.125)"/>
      <use xlink:href="#DejaVuSans-28" transform="translate(79.614583 0.125)"/>
      <use xlink:href="#DejaVuSans-Oblique-4e" transform="translate(118.628254 0.125)"/>
      <use xlink:href="#DejaVuSans-3d" transform="translate(212.915364 0.125)"/>
      <use xlink:href="#DejaVuSans-35" transform="translate(316.186848 0.125)"/>
      <use xlink:href="#DejaVuSans-31" transform="translate(379.809895 0.125)"/>
      <use xlink:href="#DejaVuSans-39" transform="translate(443.432942 0.125)"/>
      <use xlink:href="#DejaVuSans-31" transform="translate(507.055989 0.125)"/>
      <use xlink:href="#DejaVuSans-29" transform="translate(570.679036 0.125)"/>
     </g>
    </g>
    <g id="line2d_25">
     <path d="M 116.467216 80.644651 
L 130.861456 80.644651 
L 145.255696 80.644651 
" style="fill: none; stroke-dasharray: 2,3.3; stroke-dashoffset: 0; stroke: #e24a33; stroke-opacity: 0.523046; stroke-width: 2"/>
    </g>
    <g id="text_16">
     <!-- $N=2849$  $\Delta&lt;\sigma = 52.3\%$ -->
     <g transform="translate(156.771088 85.682635)scale(0.143942 -0.143942)">
      <defs>
       <path id="DejaVuSans-38" d="M 2034 2216 
Q 1584 2216 1326 1975 
Q 1069 1734 1069 1313 
Q 1069 891 1326 650 
Q 1584 409 2034 409 
Q 2484 409 2743 651 
Q 3003 894 3003 1313 
Q 3003 1734 2745 1975 
Q 2488 2216 2034 2216 
z
M 1403 2484 
Q 997 2584 770 2862 
Q 544 3141 544 3541 
Q 544 4100 942 4425 
Q 1341 4750 2034 4750 
Q 2731 4750 3128 4425 
Q 3525 4100 3525 3541 
Q 3525 3141 3298 2862 
Q 3072 2584 2669 2484 
Q 3125 2378 3379 2068 
Q 3634 1759 3634 1313 
Q 3634 634 3220 271 
Q 2806 -91 2034 -91 
Q 1263 -91 848 271 
Q 434 634 434 1313 
Q 434 1759 690 2068 
Q 947 2378 1403 2484 
z
M 1172 3481 
Q 1172 3119 1398 2916 
Q 1625 2713 2034 2713 
Q 2441 2713 2670 2916 
Q 2900 3119 2900 3481 
Q 2900 3844 2670 4047 
Q 2441 4250 2034 4250 
Q 1625 4250 1398 4047 
Q 1172 3844 1172 3481 
z
" transform="scale(0.015625)"/>
       <path id="DejaVuSans-394" d="M 2188 4044 
L 906 525 
L 3472 525 
L 2188 4044 
z
M 50 0 
L 1831 4666 
L 2547 4666 
L 4325 0 
L 50 0 
z
" transform="scale(0.015625)"/>
       <path id="DejaVuSans-3c" d="M 4684 3150 
L 1459 2003 
L 4684 863 
L 4684 294 
L 678 1747 
L 678 2266 
L 4684 3719 
L 4684 3150 
z
" transform="scale(0.015625)"/>
       <path id="DejaVuSans-25" d="M 4653 2053 
Q 4381 2053 4226 1822 
Q 4072 1591 4072 1178 
Q 4072 772 4226 539 
Q 4381 306 4653 306 
Q 4919 306 5073 539 
Q 5228 772 5228 1178 
Q 5228 1588 5073 1820 
Q 4919 2053 4653 2053 
z
M 4653 2450 
Q 5147 2450 5437 2106 
Q 5728 1763 5728 1178 
Q 5728 594 5436 251 
Q 5144 -91 4653 -91 
Q 4153 -91 3862 251 
Q 3572 594 3572 1178 
Q 3572 1766 3864 2108 
Q 4156 2450 4653 2450 
z
M 1428 4353 
Q 1159 4353 1004 4120 
Q 850 3888 850 3481 
Q 850 3069 1003 2837 
Q 1156 2606 1428 2606 
Q 1700 2606 1854 2837 
Q 2009 3069 2009 3481 
Q 2009 3884 1853 4118 
Q 1697 4353 1428 4353 
z
M 4250 4750 
L 4750 4750 
L 1831 -91 
L 1331 -91 
L 4250 4750 
z
M 1428 4750 
Q 1922 4750 2215 4408 
Q 2509 4066 2509 3481 
Q 2509 2891 2217 2550 
Q 1925 2209 1428 2209 
Q 931 2209 642 2551 
Q 353 2894 353 3481 
Q 353 4063 643 4406 
Q 934 4750 1428 4750 
z
" transform="scale(0.015625)"/>
      </defs>
      <use xlink:href="#DejaVuSans-Oblique-4e" transform="translate(0 0.78125)"/>
      <use xlink:href="#DejaVuSans-3d" transform="translate(94.287109 0.78125)"/>
      <use xlink:href="#DejaVuSans-32" transform="translate(197.558594 0.78125)"/>
      <use xlink:href="#DejaVuSans-38" transform="translate(261.181641 0.78125)"/>
      <use xlink:href="#DejaVuSans-34" transform="translate(324.804688 0.78125)"/>
      <use xlink:href="#DejaVuSans-39" transform="translate(388.427734 0.78125)"/>
      <use xlink:href="#DejaVuSans-20" transform="translate(452.050781 0.78125)"/>
      <use xlink:href="#DejaVuSans-20" transform="translate(483.837891 0.78125)"/>
      <use xlink:href="#DejaVuSans-394" transform="translate(515.625 0.78125)"/>
      <use xlink:href="#DejaVuSans-3c" transform="translate(603.515625 0.78125)"/>
      <use xlink:href="#DejaVuSans-Oblique-3c3" transform="translate(706.787109 0.78125)"/>
      <use xlink:href="#DejaVuSans-3d" transform="translate(789.648438 0.78125)"/>
      <use xlink:href="#DejaVuSans-35" transform="translate(892.919922 0.78125)"/>
      <use xlink:href="#DejaVuSans-32" transform="translate(956.542969 0.78125)"/>
      <use xlink:href="#DejaVuSans-2e" transform="translate(1020.166016 0.78125)"/>
      <use xlink:href="#DejaVuSans-33" transform="translate(1051.953125 0.78125)"/>
      <use xlink:href="#DejaVuSans-25" transform="translate(1115.576172 0.78125)"/>
     </g>
    </g>
    <g id="line2d_26">
     <path d="M 116.467216 101.772696 
L 130.861456 101.772696 
L 145.255696 101.772696 
" style="fill: none; stroke: #ff0000; stroke-width: 2; stroke-linecap: square"/>
    </g>
    <g id="text_17">
     <!-- $N=5191$  $\Delta&lt;\sigma = 68.1\%$ -->
     <g transform="translate(156.771088 106.81068)scale(0.143942 -0.143942)">
      <use xlink:href="#DejaVuSans-Oblique-4e" transform="translate(0 0.78125)"/>
      <use xlink:href="#DejaVuSans-3d" transform="translate(94.287109 0.78125)"/>
      <use xlink:href="#DejaVuSans-35" transform="translate(197.558594 0.78125)"/>
      <use xlink:href="#DejaVuSans-31" transform="translate(261.181641 0.78125)"/>
      <use xlink:href="#DejaVuSans-39" transform="translate(324.804688 0.78125)"/>
      <use xlink:href="#DejaVuSans-31" transform="translate(388.427734 0.78125)"/>
      <use xlink:href="#DejaVuSans-20" transform="translate(452.050781 0.78125)"/>
      <use xlink:href="#DejaVuSans-20" transform="translate(483.837891 0.78125)"/>
      <use xlink:href="#DejaVuSans-394" transform="translate(515.625 0.78125)"/>
      <use xlink:href="#DejaVuSans-3c" transform="translate(603.515625 0.78125)"/>
      <use xlink:href="#DejaVuSans-Oblique-3c3" transform="translate(706.787109 0.78125)"/>
      <use xlink:href="#DejaVuSans-3d" transform="translate(789.648438 0.78125)"/>
      <use xlink:href="#DejaVuSans-36" transform="translate(892.919922 0.78125)"/>
      <use xlink:href="#DejaVuSans-38" transform="translate(956.542969 0.78125)"/>
      <use xlink:href="#DejaVuSans-2e" transform="translate(1020.166016 0.78125)"/>
      <use xlink:href="#DejaVuSans-31" transform="translate(1051.953125 0.78125)"/>
      <use xlink:href="#DejaVuSans-25" transform="translate(1115.576172 0.78125)"/>
     </g>
    </g>
   </g>
  </g>
 </g>
 <defs>
  <clipPath id="p8b7ba07f66">
   <rect x="103.5124" y="40.6624" width="354.605359" height="192.341544"/>
  </clipPath>
 </defs>
</svg>
