<?xml version="1.0" encoding="utf-8" standalone="no"?>
<!DOCTYPE svg PUBLIC "-//W3C//DTD SVG 1.1//EN"
  "http://www.w3.org/Graphics/SVG/1.1/DTD/svg11.dtd">
<svg xmlns:xlink="http://www.w3.org/1999/xlink" width="953.560319pt" height="589.332687pt" viewBox="0 0 953.560319 589.332687" xmlns="http://www.w3.org/2000/svg" version="1.1">
 <metadata>
  <rdf:RDF xmlns:dc="http://purl.org/dc/elements/1.1/" xmlns:cc="http://creativecommons.org/ns#" xmlns:rdf="http://www.w3.org/1999/02/22-rdf-syntax-ns#">
   <cc:Work>
    <dc:type rdf:resource="http://purl.org/dc/dcmitype/StillImage"/>
    <dc:date>1980-01-01T00:00:00+00:00</dc:date>
    <dc:format>image/svg+xml</dc:format>
    <dc:creator>
     <cc:Agent>
      <dc:title>Matplotlib v3.5.1, https://matplotlib.org/</dc:title>
     </cc:Agent>
    </dc:creator>
   </cc:Work>
  </rdf:RDF>
 </metadata>
 <defs>
  <style type="text/css">*{stroke-linejoin: round; stroke-linecap: butt}</style>
 </defs>
 <g id="figure_1">
  <g id="patch_1">
   <path d="M 0 589.332687 
L 953.560319 589.332687 
L 953.560319 0 
L 0 0 
z
" style="fill: #ffffff"/>
  </g>
  <g id="axes_1">
   <g id="patch_2">
    <path d="M 48.55 549.532687 
L 942.760319 549.532687 
L 942.760319 19.8 
L 48.55 19.8 
z
" style="fill: #e5e5e5"/>
   </g>
   <g id="matplotlib.axis_1">
    <g id="xtick_1">
     <g id="line2d_1">
      <path d="M 89.195924 549.532687 
L 89.195924 19.8 
" clip-path="url(#p7407f90b65)" style="fill: none; stroke: #ffffff; stroke-width: 0.8; stroke-linecap: square"/>
     </g>
     <g id="line2d_2">
      <defs>
       <path id="m278cc3bbf4" d="M 0 0 
L 0 3.5 
" style="stroke: #555555; stroke-width: 0.8"/>
      </defs>
      <g>
       <use xlink:href="#m278cc3bbf4" x="89.195924" y="549.532687" style="fill: #555555; stroke: #555555; stroke-width: 0.8"/>
      </g>
     </g>
     <g id="text_1">
      <!-- 0 -->
      <g style="fill: #555555" transform="translate(86.650924 562.611437)scale(0.08 -0.08)">
       <defs>
        <path id="DejaVuSerif-30" d="M 2034 219 
Q 2513 219 2750 744 
Q 2988 1269 2988 2328 
Q 2988 3391 2750 3916 
Q 2513 4441 2034 4441 
Q 1556 4441 1318 3916 
Q 1081 3391 1081 2328 
Q 1081 1269 1318 744 
Q 1556 219 2034 219 
z
M 2034 -91 
Q 1275 -91 848 546 
Q 422 1184 422 2328 
Q 422 3475 848 4112 
Q 1275 4750 2034 4750 
Q 2797 4750 3222 4112 
Q 3647 3475 3647 2328 
Q 3647 1184 3222 546 
Q 2797 -91 2034 -91 
z
" transform="scale(0.015625)"/>
       </defs>
       <use xlink:href="#DejaVuSerif-30"/>
      </g>
     </g>
    </g>
    <g id="xtick_2">
     <g id="line2d_3">
      <path d="M 251.779618 549.532687 
L 251.779618 19.8 
" clip-path="url(#p7407f90b65)" style="fill: none; stroke: #ffffff; stroke-width: 0.8; stroke-linecap: square"/>
     </g>
     <g id="line2d_4">
      <g>
       <use xlink:href="#m278cc3bbf4" x="251.779618" y="549.532687" style="fill: #555555; stroke: #555555; stroke-width: 0.8"/>
      </g>
     </g>
     <g id="text_2">
      <!-- 10 -->
      <g style="fill: #555555" transform="translate(246.689618 562.611437)scale(0.08 -0.08)">
       <defs>
        <path id="DejaVuSerif-31" d="M 909 0 
L 909 331 
L 1722 331 
L 1722 4213 
L 781 3603 
L 781 4013 
L 1919 4750 
L 2350 4750 
L 2350 331 
L 3163 331 
L 3163 0 
L 909 0 
z
" transform="scale(0.015625)"/>
       </defs>
       <use xlink:href="#DejaVuSerif-31"/>
       <use xlink:href="#DejaVuSerif-30" x="63.623047"/>
      </g>
     </g>
    </g>
    <g id="xtick_3">
     <g id="line2d_5">
      <path d="M 414.363312 549.532687 
L 414.363312 19.8 
" clip-path="url(#p7407f90b65)" style="fill: none; stroke: #ffffff; stroke-width: 0.8; stroke-linecap: square"/>
     </g>
     <g id="line2d_6">
      <g>
       <use xlink:href="#m278cc3bbf4" x="414.363312" y="549.532687" style="fill: #555555; stroke: #555555; stroke-width: 0.8"/>
      </g>
     </g>
     <g id="text_3">
      <!-- 20 -->
      <g style="fill: #555555" transform="translate(409.273312 562.611437)scale(0.08 -0.08)">
       <defs>
        <path id="DejaVuSerif-32" d="M 819 3553 
L 469 3553 
L 469 4384 
Q 803 4563 1142 4656 
Q 1481 4750 1806 4750 
Q 2534 4750 2956 4397 
Q 3378 4044 3378 3438 
Q 3378 2753 2422 1800 
Q 2347 1728 2309 1691 
L 1131 513 
L 3078 513 
L 3078 1088 
L 3444 1088 
L 3444 0 
L 434 0 
L 434 341 
L 1850 1753 
Q 2319 2222 2519 2614 
Q 2719 3006 2719 3438 
Q 2719 3909 2473 4175 
Q 2228 4441 1797 4441 
Q 1350 4441 1106 4219 
Q 863 3997 819 3553 
z
" transform="scale(0.015625)"/>
       </defs>
       <use xlink:href="#DejaVuSerif-32"/>
       <use xlink:href="#DejaVuSerif-30" x="63.623047"/>
      </g>
     </g>
    </g>
    <g id="xtick_4">
     <g id="line2d_7">
      <path d="M 576.947007 549.532687 
L 576.947007 19.8 
" clip-path="url(#p7407f90b65)" style="fill: none; stroke: #ffffff; stroke-width: 0.8; stroke-linecap: square"/>
     </g>
     <g id="line2d_8">
      <g>
       <use xlink:href="#m278cc3bbf4" x="576.947007" y="549.532687" style="fill: #555555; stroke: #555555; stroke-width: 0.8"/>
      </g>
     </g>
     <g id="text_4">
      <!-- 30 -->
      <g style="fill: #555555" transform="translate(571.857007 562.611437)scale(0.08 -0.08)">
       <defs>
        <path id="DejaVuSerif-33" d="M 622 4469 
Q 988 4606 1323 4678 
Q 1659 4750 1953 4750 
Q 2638 4750 3022 4454 
Q 3406 4159 3406 3634 
Q 3406 3213 3140 2930 
Q 2875 2647 2388 2547 
Q 2963 2466 3280 2130 
Q 3597 1794 3597 1259 
Q 3597 606 3158 257 
Q 2719 -91 1894 -91 
Q 1528 -91 1179 -12 
Q 831 66 488 225 
L 488 1131 
L 838 1131 
Q 869 681 1141 450 
Q 1413 219 1906 219 
Q 2384 219 2661 495 
Q 2938 772 2938 1253 
Q 2938 1803 2653 2086 
Q 2369 2369 1819 2369 
L 1522 2369 
L 1522 2688 
L 1678 2688 
Q 2225 2688 2498 2914 
Q 2772 3141 2772 3597 
Q 2772 4006 2547 4223 
Q 2322 4441 1900 4441 
Q 1478 4441 1245 4241 
Q 1013 4041 972 3647 
L 622 3647 
L 622 4469 
z
" transform="scale(0.015625)"/>
       </defs>
       <use xlink:href="#DejaVuSerif-33"/>
       <use xlink:href="#DejaVuSerif-30" x="63.623047"/>
      </g>
     </g>
    </g>
    <g id="xtick_5">
     <g id="line2d_9">
      <path d="M 739.530701 549.532687 
L 739.530701 19.8 
" clip-path="url(#p7407f90b65)" style="fill: none; stroke: #ffffff; stroke-width: 0.8; stroke-linecap: square"/>
     </g>
     <g id="line2d_10">
      <g>
       <use xlink:href="#m278cc3bbf4" x="739.530701" y="549.532687" style="fill: #555555; stroke: #555555; stroke-width: 0.8"/>
      </g>
     </g>
     <g id="text_5">
      <!-- 40 -->
      <g style="fill: #555555" transform="translate(734.440701 562.611437)scale(0.08 -0.08)">
       <defs>
        <path id="DejaVuSerif-34" d="M 2234 1581 
L 2234 4063 
L 641 1581 
L 2234 1581 
z
M 3609 0 
L 1484 0 
L 1484 331 
L 2234 331 
L 2234 1247 
L 197 1247 
L 197 1588 
L 2241 4750 
L 2859 4750 
L 2859 1581 
L 3750 1581 
L 3750 1247 
L 2859 1247 
L 2859 331 
L 3609 331 
L 3609 0 
z
" transform="scale(0.015625)"/>
       </defs>
       <use xlink:href="#DejaVuSerif-34"/>
       <use xlink:href="#DejaVuSerif-30" x="63.623047"/>
      </g>
     </g>
    </g>
    <g id="xtick_6">
     <g id="line2d_11">
      <path d="M 902.114395 549.532687 
L 902.114395 19.8 
" clip-path="url(#p7407f90b65)" style="fill: none; stroke: #ffffff; stroke-width: 0.8; stroke-linecap: square"/>
     </g>
     <g id="line2d_12">
      <g>
       <use xlink:href="#m278cc3bbf4" x="902.114395" y="549.532687" style="fill: #555555; stroke: #555555; stroke-width: 0.8"/>
      </g>
     </g>
     <g id="text_6">
      <!-- 50 -->
      <g style="fill: #555555" transform="translate(897.024395 562.611437)scale(0.08 -0.08)">
       <defs>
        <path id="DejaVuSerif-35" d="M 3219 4666 
L 3219 4153 
L 1081 4153 
L 1081 2816 
Q 1244 2928 1461 2984 
Q 1678 3041 1947 3041 
Q 2703 3041 3140 2622 
Q 3578 2203 3578 1478 
Q 3578 738 3136 323 
Q 2694 -91 1894 -91 
Q 1572 -91 1234 -12 
Q 897 66 544 225 
L 544 1131 
L 897 1131 
Q 925 688 1179 453 
Q 1434 219 1894 219 
Q 2388 219 2653 544 
Q 2919 869 2919 1478 
Q 2919 2084 2655 2407 
Q 2391 2731 1894 2731 
Q 1613 2731 1398 2631 
Q 1184 2531 1019 2322 
L 750 2322 
L 750 4666 
L 3219 4666 
z
" transform="scale(0.015625)"/>
       </defs>
       <use xlink:href="#DejaVuSerif-35"/>
       <use xlink:href="#DejaVuSerif-30" x="63.623047"/>
      </g>
     </g>
    </g>
    <g id="text_7">
     <!-- $τ$ -->
     <g style="fill: #555555" transform="translate(492.605159 575.873625)scale(0.1 -0.1)">
      <defs>
       <path id="DejaVuSans-Oblique-3c4" d="M 2103 638 
Q 2188 488 2525 488 
L 2800 488 
L 2706 0 
L 2363 0 
Q 1800 0 1600 300 
Q 1403 606 1534 1269 
L 1856 2925 
L 541 2925 
L 653 3500 
L 3881 3500 
L 3769 2925 
L 2444 2925 
L 2113 1234 
Q 2025 781 2103 638 
z
" transform="scale(0.015625)"/>
      </defs>
      <use xlink:href="#DejaVuSans-Oblique-3c4" transform="translate(0 0.3125)"/>
     </g>
    </g>
   </g>
   <g id="matplotlib.axis_2">
    <g id="ytick_1">
     <g id="line2d_13">
      <path d="M 48.55 518.632214 
L 942.760319 518.632214 
" clip-path="url(#p7407f90b65)" style="fill: none; stroke: #ffffff; stroke-width: 0.8; stroke-linecap: square"/>
     </g>
     <g id="line2d_14">
      <defs>
       <path id="m3f1c8816ea" d="M 0 0 
L -3.5 0 
" style="stroke: #555555; stroke-width: 0.8"/>
      </defs>
      <g>
       <use xlink:href="#m3f1c8816ea" x="48.55" y="518.632214" style="fill: #555555; stroke: #555555; stroke-width: 0.8"/>
      </g>
     </g>
     <g id="text_8">
      <!-- 0.0 -->
      <g style="fill: #555555" transform="translate(28.8275 521.671589)scale(0.08 -0.08)">
       <defs>
        <path id="DejaVuSerif-2e" d="M 603 325 
Q 603 500 722 622 
Q 841 744 1019 744 
Q 1191 744 1312 622 
Q 1434 500 1434 325 
Q 1434 153 1312 31 
Q 1191 -91 1019 -91 
Q 841 -91 722 29 
Q 603 150 603 325 
z
" transform="scale(0.015625)"/>
       </defs>
       <use xlink:href="#DejaVuSerif-30"/>
       <use xlink:href="#DejaVuSerif-2e" x="63.623047"/>
       <use xlink:href="#DejaVuSerif-30" x="95.410156"/>
      </g>
     </g>
    </g>
    <g id="ytick_2">
     <g id="line2d_15">
      <path d="M 48.55 443.72351 
L 942.760319 443.72351 
" clip-path="url(#p7407f90b65)" style="fill: none; stroke: #ffffff; stroke-width: 0.8; stroke-linecap: square"/>
     </g>
     <g id="line2d_16">
      <g>
       <use xlink:href="#m3f1c8816ea" x="48.55" y="443.72351" style="fill: #555555; stroke: #555555; stroke-width: 0.8"/>
      </g>
     </g>
     <g id="text_9">
      <!-- 0.2 -->
      <g style="fill: #555555" transform="translate(28.8275 446.762885)scale(0.08 -0.08)">
       <use xlink:href="#DejaVuSerif-30"/>
       <use xlink:href="#DejaVuSerif-2e" x="63.623047"/>
       <use xlink:href="#DejaVuSerif-32" x="95.410156"/>
      </g>
     </g>
    </g>
    <g id="ytick_3">
     <g id="line2d_17">
      <path d="M 48.55 368.814807 
L 942.760319 368.814807 
" clip-path="url(#p7407f90b65)" style="fill: none; stroke: #ffffff; stroke-width: 0.8; stroke-linecap: square"/>
     </g>
     <g id="line2d_18">
      <g>
       <use xlink:href="#m3f1c8816ea" x="48.55" y="368.814807" style="fill: #555555; stroke: #555555; stroke-width: 0.8"/>
      </g>
     </g>
     <g id="text_10">
      <!-- 0.4 -->
      <g style="fill: #555555" transform="translate(28.8275 371.854182)scale(0.08 -0.08)">
       <use xlink:href="#DejaVuSerif-30"/>
       <use xlink:href="#DejaVuSerif-2e" x="63.623047"/>
       <use xlink:href="#DejaVuSerif-34" x="95.410156"/>
      </g>
     </g>
    </g>
    <g id="ytick_4">
     <g id="line2d_19">
      <path d="M 48.55 293.906104 
L 942.760319 293.906104 
" clip-path="url(#p7407f90b65)" style="fill: none; stroke: #ffffff; stroke-width: 0.8; stroke-linecap: square"/>
     </g>
     <g id="line2d_20">
      <g>
       <use xlink:href="#m3f1c8816ea" x="48.55" y="293.906104" style="fill: #555555; stroke: #555555; stroke-width: 0.8"/>
      </g>
     </g>
     <g id="text_11">
      <!-- 0.6 -->
      <g style="fill: #555555" transform="translate(28.8275 296.945479)scale(0.08 -0.08)">
       <defs>
        <path id="DejaVuSerif-36" d="M 2094 219 
Q 2534 219 2771 542 
Q 3009 866 3009 1472 
Q 3009 2078 2771 2401 
Q 2534 2725 2094 2725 
Q 1647 2725 1412 2412 
Q 1178 2100 1178 1509 
Q 1178 888 1415 553 
Q 1653 219 2094 219 
z
M 1075 2569 
Q 1288 2803 1556 2918 
Q 1825 3034 2163 3034 
Q 2859 3034 3264 2615 
Q 3669 2197 3669 1472 
Q 3669 763 3233 336 
Q 2797 -91 2069 -91 
Q 1278 -91 853 498 
Q 428 1088 428 2181 
Q 428 3406 931 4078 
Q 1434 4750 2350 4750 
Q 2597 4750 2869 4703 
Q 3141 4656 3425 4563 
L 3425 3794 
L 3072 3794 
Q 3034 4109 2831 4275 
Q 2628 4441 2284 4441 
Q 1678 4441 1381 3981 
Q 1084 3522 1075 2569 
z
" transform="scale(0.015625)"/>
       </defs>
       <use xlink:href="#DejaVuSerif-30"/>
       <use xlink:href="#DejaVuSerif-2e" x="63.623047"/>
       <use xlink:href="#DejaVuSerif-36" x="95.410156"/>
      </g>
     </g>
    </g>
    <g id="ytick_5">
     <g id="line2d_21">
      <path d="M 48.55 218.9974 
L 942.760319 218.9974 
" clip-path="url(#p7407f90b65)" style="fill: none; stroke: #ffffff; stroke-width: 0.8; stroke-linecap: square"/>
     </g>
     <g id="line2d_22">
      <g>
       <use xlink:href="#m3f1c8816ea" x="48.55" y="218.9974" style="fill: #555555; stroke: #555555; stroke-width: 0.8"/>
      </g>
     </g>
     <g id="text_12">
      <!-- 0.8 -->
      <g style="fill: #555555" transform="translate(28.8275 222.036775)scale(0.08 -0.08)">
       <defs>
        <path id="DejaVuSerif-38" d="M 2981 1275 
Q 2981 1775 2732 2051 
Q 2484 2328 2034 2328 
Q 1584 2328 1336 2051 
Q 1088 1775 1088 1275 
Q 1088 772 1336 495 
Q 1584 219 2034 219 
Q 2484 219 2732 495 
Q 2981 772 2981 1275 
z
M 2853 3541 
Q 2853 3966 2637 4203 
Q 2422 4441 2034 4441 
Q 1650 4441 1433 4203 
Q 1216 3966 1216 3541 
Q 1216 3113 1433 2875 
Q 1650 2638 2034 2638 
Q 2422 2638 2637 2875 
Q 2853 3113 2853 3541 
z
M 2516 2484 
Q 3047 2413 3344 2092 
Q 3641 1772 3641 1275 
Q 3641 619 3225 264 
Q 2809 -91 2034 -91 
Q 1263 -91 845 264 
Q 428 619 428 1275 
Q 428 1772 725 2092 
Q 1022 2413 1556 2484 
Q 1084 2569 832 2842 
Q 581 3116 581 3541 
Q 581 4103 968 4426 
Q 1356 4750 2034 4750 
Q 2713 4750 3100 4426 
Q 3488 4103 3488 3541 
Q 3488 3116 3236 2842 
Q 2984 2569 2516 2484 
z
" transform="scale(0.015625)"/>
       </defs>
       <use xlink:href="#DejaVuSerif-30"/>
       <use xlink:href="#DejaVuSerif-2e" x="63.623047"/>
       <use xlink:href="#DejaVuSerif-38" x="95.410156"/>
      </g>
     </g>
    </g>
    <g id="ytick_6">
     <g id="line2d_23">
      <path d="M 48.55 144.088697 
L 942.760319 144.088697 
" clip-path="url(#p7407f90b65)" style="fill: none; stroke: #ffffff; stroke-width: 0.8; stroke-linecap: square"/>
     </g>
     <g id="line2d_24">
      <g>
       <use xlink:href="#m3f1c8816ea" x="48.55" y="144.088697" style="fill: #555555; stroke: #555555; stroke-width: 0.8"/>
      </g>
     </g>
     <g id="text_13">
      <!-- 1.0 -->
      <g style="fill: #555555" transform="translate(28.8275 147.128072)scale(0.08 -0.08)">
       <use xlink:href="#DejaVuSerif-31"/>
       <use xlink:href="#DejaVuSerif-2e" x="63.623047"/>
       <use xlink:href="#DejaVuSerif-30" x="95.410156"/>
      </g>
     </g>
    </g>
    <g id="ytick_7">
     <g id="line2d_25">
      <path d="M 48.55 69.179994 
L 942.760319 69.179994 
" clip-path="url(#p7407f90b65)" style="fill: none; stroke: #ffffff; stroke-width: 0.8; stroke-linecap: square"/>
     </g>
     <g id="line2d_26">
      <g>
       <use xlink:href="#m3f1c8816ea" x="48.55" y="69.179994" style="fill: #555555; stroke: #555555; stroke-width: 0.8"/>
      </g>
     </g>
     <g id="text_14">
      <!-- 1.2 -->
      <g style="fill: #555555" transform="translate(28.8275 72.219369)scale(0.08 -0.08)">
       <use xlink:href="#DejaVuSerif-31"/>
       <use xlink:href="#DejaVuSerif-2e" x="63.623047"/>
       <use xlink:href="#DejaVuSerif-32" x="95.410156"/>
      </g>
     </g>
    </g>
    <g id="text_15">
     <!-- $||ψ|| - 1$ -->
     <g style="fill: #555555" transform="translate(22.4275 304.066344)rotate(-90)scale(0.1 -0.1)">
      <defs>
       <path id="DejaVuSans-7c" d="M 1344 4891 
L 1344 -1509 
L 813 -1509 
L 813 4891 
L 1344 4891 
z
" transform="scale(0.015625)"/>
       <path id="DejaVuSans-Oblique-3c8" d="M 1591 -78 
Q 891 38 616 341 
Q 278 713 425 1472 
L 819 3500 
L 1400 3500 
L 1009 1494 
Q 900 922 1119 684 
Q 1313 478 1691 434 
L 2284 3500 
L 2856 3500 
L 2263 438 
Q 2681 481 2928 688 
Q 3247 950 3353 1497 
L 3741 3500 
L 4322 3500 
L 3928 1475 
Q 3775 688 3300 344 
Q 2872 34 2163 -75 
L 1919 -1331 
L 1347 -1331 
L 1591 -78 
z
" transform="scale(0.015625)"/>
       <path id="DejaVuSans-2212" d="M 678 2272 
L 4684 2272 
L 4684 1741 
L 678 1741 
L 678 2272 
z
" transform="scale(0.015625)"/>
       <path id="DejaVuSans-31" d="M 794 531 
L 1825 531 
L 1825 4091 
L 703 3866 
L 703 4441 
L 1819 4666 
L 2450 4666 
L 2450 531 
L 3481 531 
L 3481 0 
L 794 0 
L 794 531 
z
" transform="scale(0.015625)"/>
      </defs>
      <use xlink:href="#DejaVuSans-7c" transform="translate(0 0.578125)"/>
      <use xlink:href="#DejaVuSans-7c" transform="translate(33.691406 0.578125)"/>
      <use xlink:href="#DejaVuSans-Oblique-3c8" transform="translate(67.382812 0.578125)"/>
      <use xlink:href="#DejaVuSans-7c" transform="translate(133.349609 0.578125)"/>
      <use xlink:href="#DejaVuSans-7c" transform="translate(167.041016 0.578125)"/>
      <use xlink:href="#DejaVuSans-2212" transform="translate(220.214844 0.578125)"/>
      <use xlink:href="#DejaVuSans-31" transform="translate(323.486328 0.578125)"/>
     </g>
    </g>
    <g id="text_16">
     <!-- 1e−6 -->
     <g style="fill: #555555" transform="translate(48.55 16.8)scale(0.08 -0.08)">
      <defs>
       <path id="DejaVuSerif-65" d="M 3469 1600 
L 991 1600 
L 991 1575 
Q 991 903 1244 561 
Q 1497 219 1991 219 
Q 2369 219 2611 417 
Q 2853 616 2950 1006 
L 3413 1006 
Q 3275 459 2904 184 
Q 2534 -91 1931 -91 
Q 1203 -91 761 389 
Q 319 869 319 1663 
Q 319 2450 753 2931 
Q 1188 3413 1894 3413 
Q 2647 3413 3050 2948 
Q 3453 2484 3469 1600 
z
M 2791 1931 
Q 2772 2513 2545 2808 
Q 2319 3103 1894 3103 
Q 1497 3103 1269 2806 
Q 1041 2509 991 1931 
L 2791 1931 
z
" transform="scale(0.015625)"/>
       <path id="DejaVuSerif-2212" d="M 678 2259 
L 4684 2259 
L 4684 1753 
L 678 1753 
L 678 2259 
z
" transform="scale(0.015625)"/>
      </defs>
      <use xlink:href="#DejaVuSerif-31"/>
      <use xlink:href="#DejaVuSerif-65" x="63.623047"/>
      <use xlink:href="#DejaVuSerif-2212" x="122.802734"/>
      <use xlink:href="#DejaVuSerif-36" x="206.591797"/>
     </g>
    </g>
   </g>
   <g id="line2d_27">
    <path d="M 89.195924 518.632214 
L 90.82829 432.184599 
L 92.460656 43.878759 
L 94.093023 78.3308 
L 95.725389 158.016381 
L 97.357756 224.698699 
L 98.990122 278.087138 
L 100.622488 321.753414 
L 102.254855 357.235775 
L 103.887221 386.785837 
L 105.519588 410.731394 
L 107.151954 430.119028 
L 108.78432 445.992989 
L 110.416687 459.332614 
L 113.68142 478.607643 
L 115.313786 485.785446 
L 116.946153 491.822152 
L 118.578519 496.804849 
L 121.843252 504.592751 
L 123.475618 506.090259 
L 125.107985 507.790918 
L 126.740351 510.246842 
L 128.372717 511.276314 
L 131.63745 514.417667 
L 133.269817 514.25799 
L 134.902183 514.263035 
L 136.534549 516.051014 
L 138.166916 516.16823 
L 139.799282 516.589686 
L 141.431649 515.785069 
L 143.064015 517.371058 
L 144.696381 518.001435 
L 146.328748 517.587116 
L 147.961114 519.382952 
L 149.593481 517.301641 
L 151.225847 517.279604 
L 152.858214 517.756439 
L 154.49058 517.414972 
L 156.122946 518.044622 
L 157.755313 518.163776 
L 159.387679 516.169298 
L 161.020046 518.928493 
L 162.652412 518.287555 
L 164.284778 519.396773 
L 165.917145 517.22676 
L 167.549511 517.999074 
L 169.181878 519.09783 
L 170.814244 518.681765 
L 172.44661 516.44911 
L 174.078977 515.846353 
L 175.711343 518.406369 
L 177.34371 516.337519 
L 178.976076 518.920431 
L 180.608442 521.028615 
L 182.240809 518.138826 
L 183.873175 521.110255 
L 185.505542 520.229986 
L 187.137908 517.703161 
L 188.770275 519.371817 
L 190.402641 518.052564 
L 192.035007 518.782855 
L 193.667374 518.720925 
L 195.29974 518.091212 
L 196.932107 517.830181 
L 198.564473 517.248359 
L 200.196839 516.436284 
L 201.829206 516.840629 
L 203.461572 515.597893 
L 205.093939 517.641494 
L 206.726305 518.631712 
L 208.358671 517.606873 
L 209.991038 518.909647 
L 211.623404 519.143943 
L 213.255771 518.225439 
L 214.888137 518.647828 
L 216.520503 517.810325 
L 218.15287 520.620298 
L 219.785236 517.059361 
L 221.417603 517.727324 
L 223.049969 517.274219 
L 224.682336 516.213533 
L 226.314702 517.873167 
L 227.947068 517.628798 
L 229.579435 520.301624 
L 231.211801 518.112766 
L 232.844168 518.678231 
L 234.476534 517.990366 
L 236.1089 517.97507 
L 237.741267 521.609144 
L 239.373633 518.221806 
L 241.006 517.900515 
L 242.638366 519.774812 
L 244.270732 519.405377 
L 245.903099 517.912025 
L 247.535465 519.310352 
L 249.167832 517.522484 
L 250.800198 518.112532 
L 252.432564 517.024115 
L 254.064931 517.258851 
L 255.697297 517.829461 
L 257.329664 517.797573 
L 258.96203 516.131631 
L 260.594397 517.39617 
L 262.226763 516.882329 
L 263.859129 518.7274 
L 265.491496 517.89039 
L 267.123862 517.329991 
L 268.756229 516.555859 
L 270.388595 517.843964 
L 272.020961 516.802509 
L 273.653328 515.353421 
L 275.285694 520.669324 
L 276.918061 517.238172 
L 278.550427 517.604773 
L 280.182793 517.75663 
L 281.81516 515.144586 
L 283.447526 518.121127 
L 285.079893 517.983481 
L 286.712259 519.506936 
L 288.344625 517.758963 
L 289.976992 518.451285 
L 291.609358 519.422689 
L 293.241725 514.525555 
L 294.874091 517.734875 
L 296.506458 521.462363 
L 298.138824 517.62493 
L 299.77119 516.123817 
L 301.403557 517.870058 
L 303.035923 516.202929 
L 304.66829 519.641541 
L 306.300656 518.536191 
L 307.933022 517.871659 
L 309.565389 517.571679 
L 311.197755 516.217243 
L 312.830122 517.755696 
L 314.462488 516.523647 
L 316.094854 517.465976 
L 317.727221 516.770868 
L 319.359587 518.005183 
L 322.62432 517.39482 
L 324.256686 517.768407 
L 325.889053 517.853729 
L 327.521419 516.429851 
L 329.153786 518.160945 
L 330.786152 517.908182 
L 332.418519 518.876935 
L 334.050885 517.486175 
L 335.683251 517.778422 
L 337.315618 516.837052 
L 338.947984 518.109722 
L 340.580351 517.445275 
L 342.212717 515.184011 
L 343.845083 517.906794 
L 345.47745 516.773397 
L 347.109816 518.336728 
L 348.742183 517.900084 
L 350.374549 517.785265 
L 352.006915 518.947292 
L 353.639282 517.314435 
L 355.271648 516.226165 
L 356.904015 517.483581 
L 358.536381 517.78826 
L 360.168747 517.834968 
L 361.801114 518.140254 
L 363.43348 518.786203 
L 365.065847 516.937098 
L 366.698213 518.188758 
L 369.962946 519.132965 
L 371.595312 517.644547 
L 373.227679 517.753491 
L 374.860045 517.411559 
L 376.492412 520.949438 
L 378.124778 520.022626 
L 379.757144 516.973854 
L 381.389511 517.264096 
L 383.021877 516.071827 
L 384.654244 510.942501 
L 386.28661 518.180548 
L 387.918976 517.235688 
L 389.551343 517.489757 
L 391.183709 520.275626 
L 392.816076 516.786756 
L 394.448442 515.709698 
L 396.080808 515.889948 
L 397.713175 517.490807 
L 399.345541 517.703356 
L 400.977908 520.928723 
L 402.610274 518.420859 
L 404.242641 517.867196 
L 405.875007 517.977826 
L 407.507373 517.420256 
L 409.13974 517.914283 
L 412.404473 516.920028 
L 414.036839 517.657482 
L 415.669205 518.195915 
L 417.301572 517.016907 
L 418.933938 515.165954 
L 420.566305 517.610199 
L 422.198671 517.708018 
L 423.831037 514.612027 
L 425.463404 518.60605 
L 427.09577 517.909234 
L 428.728137 516.906702 
L 430.360503 518.033623 
L 431.992869 518.948663 
L 433.625236 517.824019 
L 435.257602 517.729151 
L 436.889969 518.316732 
L 438.522335 518.039029 
L 440.154701 518.481228 
L 441.787068 517.74879 
L 443.419434 518.011505 
L 445.051801 516.352341 
L 446.684167 517.948675 
L 448.316534 517.184249 
L 449.9489 517.587896 
L 451.581266 518.150508 
L 453.213633 517.69702 
L 454.845999 516.595365 
L 456.478366 517.923294 
L 458.110732 517.735545 
L 459.743098 518.065081 
L 461.375465 518.025138 
L 463.007831 518.129031 
L 464.640198 518.885806 
L 466.272564 517.323044 
L 467.90493 518.609577 
L 469.537297 517.315816 
L 471.169663 518.334459 
L 472.80203 517.053733 
L 474.434396 518.143651 
L 476.066762 517.472184 
L 477.699129 517.208847 
L 479.331495 517.593959 
L 480.963862 518.411638 
L 482.596228 518.527865 
L 484.228595 518.005561 
L 485.860961 518.675836 
L 487.493327 518.114336 
L 489.125694 518.073236 
L 490.75806 518.392652 
L 492.390427 519.385649 
L 494.022793 517.093083 
L 495.655159 517.858361 
L 497.287526 517.866497 
L 498.919892 518.286958 
L 500.552259 516.625588 
L 502.184625 517.214332 
L 505.449358 517.574588 
L 507.081724 518.104621 
L 508.714091 518.112263 
L 510.346457 516.963074 
L 511.978823 517.327788 
L 513.61119 517.170613 
L 515.243556 518.020198 
L 516.875923 518.463602 
L 518.508289 517.787927 
L 520.140656 517.744538 
L 521.773022 516.876385 
L 523.405388 517.008256 
L 525.037755 519.561447 
L 526.670121 517.444587 
L 528.302488 518.874121 
L 529.934854 519.380205 
L 531.56722 519.764928 
L 533.199587 520.517607 
L 534.831953 523.297348 
L 536.46432 518.576901 
L 538.096686 519.569106 
L 539.729052 517.384477 
L 541.361419 514.020228 
L 542.993785 516.58162 
L 544.626152 514.377031 
L 546.258518 514.608317 
L 547.890884 517.710651 
L 549.523251 514.745774 
L 551.155617 508.688136 
L 552.787984 517.228825 
L 554.42035 513.748945 
L 556.052717 517.740914 
L 557.685083 520.456395 
L 559.317449 518.00638 
L 560.949816 517.609498 
L 562.582182 520.951226 
L 564.214549 518.061896 
L 565.846915 515.590813 
L 567.479281 522.640826 
L 569.111648 516.780939 
L 570.744014 516.975426 
L 572.376381 518.387671 
L 574.008747 517.236464 
L 575.641113 517.057526 
L 577.27348 512.894101 
L 578.905846 516.731029 
L 580.538213 513.72813 
L 582.170579 514.515928 
L 583.802945 516.087778 
L 585.435312 516.34758 
L 587.067678 516.760869 
L 588.700045 516.563551 
L 590.332411 514.633861 
L 591.964778 513.515281 
L 593.597144 513.595023 
L 595.22951 515.675336 
L 596.861877 513.829341 
L 598.494243 496.064252 
L 600.12661 512.421893 
L 601.758976 514.497492 
L 603.391342 515.052534 
L 605.023709 514.864326 
L 606.656075 512.677613 
L 608.288442 516.110254 
L 609.920808 516.649388 
L 611.553174 521.059575 
L 613.185541 515.531498 
L 614.817907 517.591903 
L 616.450274 514.064935 
L 618.08264 518.868321 
L 619.715006 517.374803 
L 621.347373 515.301719 
L 622.979739 516.091989 
L 624.612106 517.290231 
L 626.244472 517.823604 
L 627.876839 510.893438 
L 629.509205 515.626724 
L 631.141571 513.490577 
L 632.773938 515.126298 
L 634.406304 516.579128 
L 636.038671 515.667967 
L 637.671037 517.051578 
L 639.303403 516.55457 
L 640.93577 514.574187 
L 642.568136 517.062318 
L 644.200503 516.207004 
L 645.832869 516.823278 
L 647.465235 519.944688 
L 649.097602 515.47896 
L 650.729968 520.82186 
L 652.362335 519.104 
L 653.994701 516.521049 
L 655.627067 516.429059 
L 657.259434 520.870098 
L 658.8918 517.538273 
L 660.524167 525.453929 
L 662.156533 516.727026 
L 663.7889 517.788454 
L 665.421266 514.442561 
L 667.053632 517.273126 
L 668.685999 517.714741 
L 670.318365 516.871154 
L 671.950732 521.222093 
L 673.583098 517.663315 
L 675.215464 519.520932 
L 676.847831 517.418225 
L 678.480197 517.330063 
L 680.112564 516.559373 
L 681.74493 517.108514 
L 683.377296 517.489506 
L 685.009663 516.644134 
L 686.642029 520.56815 
L 688.274396 517.239085 
L 689.906762 518.368724 
L 691.539128 516.540338 
L 693.171495 516.427655 
L 694.803861 517.601504 
L 696.436228 515.998269 
L 698.068594 518.577402 
L 699.700961 518.641299 
L 701.333327 514.614552 
L 702.965693 519.509414 
L 704.59806 517.676764 
L 706.230426 518.110458 
L 707.862793 516.45257 
L 711.127525 517.789603 
L 712.759892 518.892266 
L 714.392258 517.266855 
L 716.024625 517.296567 
L 717.656991 515.638762 
L 719.289357 517.455549 
L 720.921724 518.25781 
L 722.55409 517.471953 
L 724.186457 517.503823 
L 725.818823 519.413632 
L 727.451189 516.676552 
L 729.083556 517.340034 
L 730.715922 517.615871 
L 732.348289 514.194205 
L 733.980655 517.711895 
L 735.613022 518.6711 
L 737.245388 517.755268 
L 738.877754 520.630966 
L 740.510121 517.714479 
L 742.142487 517.861245 
L 743.774854 517.272659 
L 745.40722 517.206262 
L 747.039586 517.596829 
L 748.671953 517.587831 
L 750.304319 517.921727 
L 751.936686 515.259758 
L 753.569052 517.48674 
L 755.201418 516.906058 
L 756.833785 517.967662 
L 758.466151 518.340987 
L 760.098518 519.805926 
L 761.730884 517.629825 
L 763.36325 519.199402 
L 764.995617 517.959147 
L 766.627983 517.03229 
L 768.26035 517.2226 
L 769.892716 518.313268 
L 771.525083 516.266311 
L 773.157449 517.729 
L 774.789815 516.868161 
L 776.422182 517.433959 
L 778.054548 517.836818 
L 779.686915 518.065854 
L 781.319281 520.489425 
L 782.951647 517.771103 
L 784.584014 521.07401 
L 786.21638 517.621432 
L 787.848747 522.983997 
L 789.481113 513.967579 
L 791.113479 516.518592 
L 794.378212 517.597726 
L 796.010579 519.068796 
L 797.642945 517.858893 
L 799.275311 519.699274 
L 800.907678 521.273819 
L 802.540044 517.604038 
L 804.172411 517.86231 
L 805.804777 519.01935 
L 807.437144 518.066237 
L 809.06951 518.127975 
L 810.701876 520.022898 
L 812.334243 517.717781 
L 813.966609 521.848622 
L 815.598976 521.274948 
L 817.231342 518.563283 
L 818.863708 518.065284 
L 820.496075 517.109689 
L 822.128441 517.883144 
L 823.760808 517.969473 
L 825.393174 517.551649 
L 827.02554 518.042782 
L 828.657907 516.894249 
L 830.290273 517.858796 
L 831.92264 519.280575 
L 833.555006 518.209707 
L 835.187372 520.388356 
L 836.819739 517.594524 
L 838.452105 517.773663 
L 840.084472 517.032317 
L 841.716838 517.89475 
L 843.349205 517.951266 
L 844.981571 518.228468 
L 848.246304 517.753736 
L 849.87867 517.04685 
L 851.511037 518.586901 
L 853.143403 519.516603 
L 854.775769 517.785446 
L 856.408136 518.04131 
L 858.040502 518.151334 
L 859.672869 515.706371 
L 861.305235 517.47984 
L 862.937601 513.07876 
L 864.569968 517.482716 
L 866.202334 516.175252 
L 867.834701 518.22086 
L 869.467067 513.747938 
L 871.099433 518.529565 
L 872.7318 518.064035 
L 874.364166 519.439863 
L 875.996533 519.94795 
L 877.628899 519.203345 
L 879.261265 517.932544 
L 880.893632 522.485463 
L 882.525998 518.082253 
L 884.158365 523.126108 
L 885.790731 517.449936 
L 887.423098 517.669561 
L 889.055464 517.578109 
L 890.68783 517.641637 
L 892.320197 518.167579 
L 893.952563 518.144964 
L 895.58493 518.267075 
L 897.217296 517.983283 
L 898.849662 518.032574 
L 900.482029 517.965648 
L 902.114395 518.034358 
L 902.114395 518.034358 
" clip-path="url(#p7407f90b65)" style="fill: none; stroke: #e24a33; stroke-linecap: square"/>
   </g>
   <g id="patch_3">
    <path d="M 48.55 549.532687 
L 48.55 19.8 
" style="fill: none; stroke: #ffffff; stroke-linejoin: miter; stroke-linecap: square"/>
   </g>
   <g id="patch_4">
    <path d="M 942.760319 549.532687 
L 942.760319 19.8 
" style="fill: none; stroke: #ffffff; stroke-linejoin: miter; stroke-linecap: square"/>
   </g>
   <g id="patch_5">
    <path d="M 48.55 549.532687 
L 942.760319 549.532687 
" style="fill: none; stroke: #ffffff; stroke-linejoin: miter; stroke-linecap: square"/>
   </g>
   <g id="patch_6">
    <path d="M 48.55 19.8 
L 942.760319 19.8 
" style="fill: none; stroke: #ffffff; stroke-linejoin: miter; stroke-linecap: square"/>
   </g>
  </g>
 </g>
 <defs>
  <clipPath id="p7407f90b65">
   <rect x="48.55" y="19.8" width="894.210319" height="529.732687"/>
  </clipPath>
 </defs>
</svg>
